<svg width="986" height="984" fill="none" xmlns="http://www.w3.org/2000/svg"><path d="M269.986 867.86c-10.003-5.902-19.581-12.239-28.932-18.786L206.16 891.43c11.557 8.247 23.526 16.083 35.978 23.419 85.386 50.361 179.96 71.96 272.347 67.774l-6.062-54.476c-80.972 3.005-163.659-16.193-238.44-60.287h.003z" fill="#283B3C"/><path d="M115.938 269.366c8.267-13.949 17.237-27.213 26.759-39.882l-41.312-36.07c-11.639 15.231-22.543 31.273-32.543 48.167a491.518 491.518 0 00-35.225 72.332l52.358 16.353a439.297 439.297 0 0129.966-60.9h-.003z" fill="#00A48A"/><path d="M66.319 392.82l-52.377-16.363c-41.085 170.269 12.341 352.365 141.506 473.464l34.89-42.375C78.348 700.758 31.661 541.961 66.318 392.82z" fill="#005D62"/><path d="M551.387 58.72l11.368-53.527C410.823-16.284 254.711 34.279 144.566 144.088l41.344 36.088C282.793 85.199 418.668 41.074 551.387 58.719z" fill="#2B2826"/><path d="M715.826 115.666c83.112 49.019 143.976 121.391 179.33 203.805l51.939-17.777c-39.529-94.285-108.651-177.121-203.427-233.017-37.442-22.086-76.665-38.63-116.694-49.911l-11.38 53.545c34.374 9.998 68.029 24.368 100.232 43.355zm208.382 451.966l53.244 13.553c13.434-72.922 9.902-147.299-9.119-217.556l-51.856 17.764c15.772 60.237 18.711 123.809 7.734 186.239h-.003z" fill="#273738"/><path d="M869.953 714.127C803.24 826.695 693.405 898.376 573.711 920.883l6.056 54.485c136.228-24.459 261.483-105.547 337.285-233.46a490.725 490.725 0 0044.154-97.227l-53.19-13.54a436.734 436.734 0 01-38.063 82.986z" fill="#2B2826"/></svg>