<svg width="1141" height="1138" fill="none" xmlns="http://www.w3.org/2000/svg"><path d="M935.482 205.097c81.838 81.634 130.348 184.129 145.548 290.484l54.6-4.315c-16.25-118.877-70.05-233.58-161.461-324.772-36.882-36.79-77.623-67.454-120.901-92.045l-24.358 49.01c38.114 21.957 74.006 49.151 106.572 81.635v.003z" fill="#283B3C"/><path d="M206.375 205.08a516.347 516.347 0 0146.763-41.303l-30.997-45.156a571.306 571.306 0 00-54.456 47.869 569.667 569.667 0 00-63.373 75.16l46.618 28.822a516.07 516.07 0 0155.448-65.395l-.003.003z" fill="#00A48A"/><path d="M1037.99 786.594l48.07 26.273c38.36-80.745 56.64-168.697 54.76-256.316l-54.65 4.312c1.18 77.134-14.87 154.488-48.18 225.731zM770.064 94.38l24.358-49.001c-166.768-70.618-360.601-58.536-518.09 36.24l30.962 45.096c140.973-83.646 313.617-94.405 462.77-32.336z" fill="#005D62"/><path d="M116.315 326.098l-46.599-28.813c-98.587 181.386-91.164 405.329 22.27 580.3l44.254-32.295C35.897 688.404 29.255 488.672 116.315 326.101v-.003zm819.181 606.345C824.911 1042.76 676.152 1092.36 531.237 1081.3l-7.694 54.11c161.399 13.31 327.437-41.45 450.644-164.377 31.163-31.075 57.943-64.879 80.373-100.659l-48.12-26.292c-19.925 31.365-43.552 61.038-70.941 88.361h-.003z" fill="#283B3C"/><path d="M206.36 932.417a519.882 519.882 0 01-31.334-34.237l-44.26 32.295c11.547 13.948 23.816 27.501 36.897 40.529 82.497 82.296 184.173 134.026 290.816 155.266l7.694-54.13c-95.276-19.58-186.037-66.13-259.816-139.723h.003z" fill="#00A48A"/></svg>