<svg width="19" height="19" fill="none" xmlns="http://www.w3.org/2000/svg"><path d="M9.499 18.01c-4.695 0-8.51-3.817-8.51-8.511 0-4.695 3.815-8.51 8.51-8.51 4.694 0 8.51 3.815 8.51 8.51 0 4.694-3.816 8.51-8.51 8.51zm0-15.834c-4.038 0-7.323 3.285-7.323 7.323 0 4.037 3.285 7.323 7.323 7.323 4.037 0 7.323-3.286 7.323-7.323 0-4.038-3.286-7.323-7.323-7.323z" fill="#00A48A"/><path d="M12.437 12.611a.53.53 0 01-.3-.087L9.681 11.06c-.61-.365-1.06-1.164-1.06-1.869V5.945c0-.324.268-.593.593-.593.324 0 .594.269.594.593v3.246c0 .285.237.705.482.847l2.455 1.465c.285.166.372.53.205.815a.61.61 0 01-.514.293z" fill="#00A48A"/></svg>