<svg width="21" height="21" fill="none" xmlns="http://www.w3.org/2000/svg"><path d="M10.5 14.288A3.79 3.79 0 016.71 10.5a3.79 3.79 0 013.79-3.79 3.79 3.79 0 013.788 3.79 3.79 3.79 0 01-3.788 3.788zm0-6.265A2.48 2.48 0 008.023 10.5a2.48 2.48 0 002.477 2.476 2.48 2.48 0 002.476-2.476A2.48 2.48 0 0010.5 8.023z" fill="#00A48A"/><path d="M10.5 18.394c-3.29 0-6.396-1.925-8.53-5.267-.928-1.444-.928-3.798 0-5.25 2.143-3.343 5.25-5.268 8.53-5.268 3.282 0 6.388 1.925 8.523 5.268.927 1.444.927 3.797 0 5.25-2.135 3.342-5.241 5.267-8.523 5.267zm0-14.472c-2.826 0-5.53 1.697-7.42 4.664-.656 1.023-.656 2.808 0 3.832 1.89 2.966 4.594 4.664 7.42 4.664 2.827 0 5.53-1.698 7.42-4.664.657-1.024.657-2.809 0-3.832-1.89-2.967-4.593-4.664-7.42-4.664z" fill="#00A48A"/></svg>