<svg width="24" height="26" fill="none" xmlns="http://www.w3.org/2000/svg"><path d="M13.882 1.745a.485.485 0 00-.134.094L2.06 14.182C.916 15.353.243 16.946.184 18.628a6.746 6.746 0 001.56 4.58 6.08 6.08 0 001.982 1.526c.752.36 1.567.555 2.393.57h.15a5.773 5.773 0 002.336-.486 6.04 6.04 0 001.976-1.4l11.804-12.463a.36.36 0 00.082-.138 6.686 6.686 0 001.36-4.396 6.618 6.618 0 00-1.779-4.226A5.967 5.967 0 0018.047.313a5.896 5.896 0 00-4.165 1.432zm6.578 7.598l-8.28 8.742-.044.043c-.322.318-.74.505-1.18.528a1.79 1.79 0 01-1.222-.404 1.874 1.874 0 01-.46-.592 1.972 1.972 0 01-.106-1.496c.08-.244.206-.468.37-.658l6.847-7.237c.23-.242.357-.57.357-.913 0-.342-.13-.67-.359-.912a1.19 1.19 0 00-.864-.376 1.19 1.19 0 00-.864.379l-6.92 7.306a.343.343 0 00-.06.09 4.619 4.619 0 00-1.05 3.093 4.587 4.587 0 001.24 3.014c.44.465.971.822 1.556 1.048l-.469.495a3.664 3.664 0 01-2.483 1.186 3.622 3.622 0 01-2.588-.903 3.802 3.802 0 01-.906-1.253 3.991 3.991 0 01-.348-1.532 4.062 4.062 0 01.251-1.55c.184-.493.461-.94.815-1.316L15.253 3.92l.151-.138a3.551 3.551 0 012.833-.911c.508.06.998.234 1.438.51.44.274.82.644 1.115 1.084a4.15 4.15 0 01.628 2.499 4.095 4.095 0 01-.958 2.38z" fill="#232323"/></svg>