<svg width="800" height="800" viewBox="0 0 400 400" xmlns="http://www.w3.org/2000/svg"><defs><style>.cls-1{fill:#101010}</style></defs><g id="xxx-file"><path class="cls-1" d="M325 105h-75a5 5 0 01-5-5V25a5 5 0 0110 0v70h70a5 5 0 010 10z"/><path class="cls-1" d="M300 380H100a30 30 0 01-30-30V50a30 30 0 0130-30h150a5 5 0 013.54 1.46l75 75A5 5 0 01330 100v250a30 30 0 01-30 30zM100 30a20 20 0 00-20 20v300a20 20 0 0020 20h200a20 20 0 0020-20V102.07L247.93 30z"/><path class="cls-1" d="M275 180H125a5 5 0 010-10h150a5 5 0 010 10zm0 50H125a5 5 0 010-10h150a5 5 0 010 10zm0 50H125a5 5 0 010-10h150a5 5 0 010 10zm-75 50h-75a5 5 0 010-10h75a5 5 0 010 10z"/></g></svg>