<svg width="24" height="24" fill="none" xmlns="http://www.w3.org/2000/svg"><g clip-path="url(#clip0_101_412)"><path d="M12 0a12 12 0 1012 12A12.013 12.013 0 0012 0zm8.647 7h-3.221a19.674 19.674 0 00-2.821-4.644A10.031 10.031 0 0120.647 7zM16.5 12a10.21 10.21 0 01-.476 3H7.976a10.211 10.211 0 01-.476-3 10.21 10.21 0 01.476-3h8.048c.307.97.468 1.982.476 3zm-7.722 5h6.444A19.615 19.615 0 0112 21.588 19.572 19.572 0 018.778 17zm0-10A19.615 19.615 0 0112 2.412 19.57 19.57 0 0115.222 7H8.778zM9.4 2.356A19.676 19.676 0 006.574 7H3.353A10.03 10.03 0 019.4 2.356zM2.461 9H5.9c-.26.98-.394 1.987-.4 3 .006 1.013.14 2.02.4 3H2.461a9.992 9.992 0 010-6zm.892 8h3.221A19.676 19.676 0 009.4 21.644 10.031 10.031 0 013.353 17zm11.252 4.644c1.15-1.41 2.1-2.973 2.821-4.644h3.221a10.031 10.031 0 01-6.042 4.644zM21.539 15H18.1c.26-.98.394-1.987.4-3a12.02 12.02 0 00-.4-3h3.437a9.991 9.991 0 010 6h.002z" fill="#374957"/></g><defs><clipPath id="clip0_101_412"><path fill="#fff" d="M0 0h24v24H0z"/></clipPath></defs></svg>