<svg width="150" height="150" fill="none" xmlns="http://www.w3.org/2000/svg"><g clip-path="url(#clip0_379_1929)"><path d="M75 150c41.421 0 75-33.579 75-75S116.421 0 75 0 0 33.579 0 75s33.579 75 75 75z" fill="#00A48A"/><mask id="a" style="mask-type:luminance" maskUnits="userSpaceOnUse" x="37" y="37" width="76" height="76"><path d="M112.5 37.5h-75v75h75v-75z" fill="#fff"/></mask><g mask="url(#a)" fill="#fff"><path d="M105.234 43.985c-.008-1.427-1.743-2.14-2.753-1.134l-3.372 3.372c-12.741-11.026-32.97-11.696-46.367-1.459h5.996c12.377-6.875 28.993-4.858 39.357 4.859.309.281.698.42 1.087.42.414 0 .827-.157 1.141-.472l1.685-1.685v13.575H88.434l2.49-2.491c.659-.631.617-1.783-.087-2.363-7.04-6.193-17.715-7.647-26.152-3.58v3.626c6.966-4.022 16.23-3.477 22.679 1.315-.006.007-3.967 3.965-3.971 3.972-1.01.954-.241 2.793 1.146 2.747h19.082c.891 0 1.613-.722 1.613-1.613V43.985z"/><path d="M103.776 99.109c11.027-12.741 11.696-32.97 1.459-46.367v5.994c6.875 12.378 4.859 28.994-4.858 39.36a1.613 1.613 0 00.051 2.227l1.685 1.685H88.539V88.434l2.49 2.49c.632.658 1.783.617 2.363-.087 6.194-7.04 7.648-17.715 3.58-26.152h-3.63c4.026 6.965 3.482 16.229-1.31 22.679l-3.966-3.965c-1-1.009-2.76-.289-2.754 1.14v19.082c0 .891.723 1.613 1.614 1.613h19.082c1.426.005 2.151-1.749 1.14-2.753l-3.372-3.372z"/><path d="M75.002 109.314a34.19 34.19 0 01-23.097-8.937 1.613 1.613 0 00-2.227.051l-1.686 1.685V88.539h13.575l-2.491 2.49c-.658.631-.616 1.783.087 2.363 7.041 6.194 17.716 7.648 26.152 3.579v-3.625c-6.965 4.022-16.229 3.477-22.678-1.315l3.965-3.965c1.009-1 .288-2.76-1.14-2.754H46.38c-.891 0-1.614.723-1.614 1.614v19.082c-.046 1.394 1.801 2.158 2.754 1.14l3.372-3.372c12.74 11.027 32.97 11.696 46.366 1.459h-5.997c-4.955 2.68-10.487 4.079-16.259 4.079z"/><path d="M40.685 74.998a34.19 34.19 0 018.937-23.097 1.613 1.613 0 00-.05-2.227l-1.686-1.685h13.575v13.574l-2.491-2.491c-.63-.658-1.783-.616-2.363.088-6.193 7.04-7.647 17.714-3.58 26.151h3.63c-4.026-6.965-3.482-16.229 1.311-22.678l3.965 3.965c1 1.009 2.76.288 2.754-1.14V46.375c0-.891-.722-1.613-1.613-1.613H43.992c-1.394-.047-2.16 1.8-1.14 2.753l3.371 3.372c-11.026 12.741-11.696 32.97-1.459 46.366V91.26c-2.68-4.954-4.079-10.488-4.079-16.26zm38.463-.676a5.132 5.132 0 001.035-3.097 5.165 5.165 0 00-5.159-5.159 5.165 5.165 0 00-5.159 5.16c0 1.16.386 2.233 1.035 3.096a7.933 7.933 0 00-3.806 6.77v1.277c0 .89.721 1.611 1.611 1.611h12.638a1.61 1.61 0 001.611-1.611v-1.276a7.933 7.933 0 00-3.806-6.772zm-4.124-5.033c1.068 0 1.936.868 1.936 1.936a1.939 1.939 0 01-1.936 1.937 1.939 1.939 0 01-1.936-1.937c0-1.067.868-1.936 1.936-1.936zm-4.696 11.469a4.714 4.714 0 014.696-4.373 4.714 4.714 0 014.696 4.373h-9.392z"/></g></g><defs><clipPath id="clip0_379_1929"><path fill="#fff" d="M0 0h150v150H0z"/></clipPath></defs></svg>