<svg width="30" height="30" fill="none" xmlns="http://www.w3.org/2000/svg"><path d="M15.455.366a1.125 1.125 0 00-1.66 0l-6 6.562a1.125 1.125 0 001.66 1.519L13.5 4.023v16.602a1.125 1.125 0 002.25 0V4.023l4.045 4.424a1.125 1.125 0 101.66-1.519l-6-6.562z" fill="#005D62"/><path d="M2.25 19.125a1.125 1.125 0 00-2.25 0v.082c0 2.052 0 3.705.175 5.006.181 1.35.57 2.486 1.473 3.39.902.902 2.04 1.29 3.39 1.472 1.3.175 2.953.175 5.005.175h9.164c2.052 0 3.705 0 5.006-.175 1.35-.181 2.486-.57 3.39-1.473.902-.902 1.29-2.04 1.472-3.39.175-1.3.175-2.953.175-5.005v-.082a1.125 1.125 0 00-2.25 0c0 2.153-.002 3.655-.155 4.788-.148 1.1-.418 1.683-.833 2.099-.416.415-.998.685-2.1.833-1.132.153-2.634.155-4.787.155h-9c-2.153 0-3.655-.002-4.788-.155-1.1-.148-1.683-.418-2.098-.833-.416-.416-.686-.998-.834-2.1-.153-1.132-.155-2.634-.155-4.787z" fill="#005D62"/></svg>