<svg width="31" height="21" fill="none" xmlns="http://www.w3.org/2000/svg"><path d="M30.712 18.843c0-.144-.123-.144-.123-.288-.494-1.15-1.604-2.59-3.084-4.171-.74-.72-1.11-1.295-1.357-1.583-.37-.575-.37-1.007-.246-1.582.123-.431.616-1.15 1.48-2.445.493-.72.74-1.15 1.11-1.582 1.85-2.877 2.713-4.747 2.467-5.61l-.124-.144c-.123-.143-.246-.287-.493-.287-.247-.144-.617-.144-.987 0h-5.55l-.123.144c-.124.143-.124.143-.124.287-.493 1.582-1.11 2.877-1.727 4.315-.37.72-.74 1.439-1.11 2.014-.37.575-.616 1.007-.863 1.294-.247.288-.493.432-.617.72-.123.143-.37.287-.37.143-.123 0-.246 0-.246-.143l-.37-.432c-.124-.144-.124-.431-.247-.719V1.582c0-.144-.123-.431-.123-.575l-.37-.432c-.124-.144-.37-.143-.494-.287C16.404.144 15.664 0 14.801 0c-1.973 0-3.33.144-3.824.432-.246.143-.493.287-.616.575-.247.288-.247.431-.124.431.617.144 1.11.432 1.357.863l.123.288c.124.144.124.432.247.863.123.432.123.863.123 1.438v2.302c0 .719-.123 1.15-.123 1.582 0 .431-.123.72-.247.863-.123.288-.123.431-.246.431 0 0 0 .144-.124.144-.123 0-.246.144-.493.144-.123 0-.37-.144-.493-.287a1.632 1.632 0 01-.617-.72c-.247-.287-.493-.719-.74-1.294-.247-.576-.617-1.15-.863-2.014l-.247-.575c-.123-.288-.37-.863-.617-1.582-.247-.72-.493-1.295-.74-2.014a1.985 1.985 0 00-.37-.575h-.123s-.124-.144-.247-.144-.247-.144-.37-.144H.987c-.494 0-.74.144-.864.288L0 1.438v.288c0 .144 0 .288.123.575C.74 4.027 1.48 5.753 2.22 7.48c.74 1.583 1.48 3.021 1.974 4.028.616 1.007 1.11 2.014 1.726 2.877.617.863.987 1.438 1.11 1.726l.494.575.37.431c.247.288.617.72 1.11 1.151.493.432 1.11.863 1.727 1.295.616.431 1.357.719 2.097 1.006.863.288 1.603.432 2.343.288h1.85c.37 0 .617-.144.863-.431l.124-.144c0-.144.123-.144.123-.288v-.575c0-.575 0-1.007.124-1.438.123-.432.123-.72.246-1.007.124-.288.247-.432.37-.576l.247-.287h.123c.247-.144.617 0 .864.287.37.288.74.72.986 1.151.247.432.617.863 1.11 1.438.494.576.864 1.007 1.11 1.151l.37.288c.247.143.494.287.864.431.37.144.617.144.863.144l4.194-.144c.37 0 .74-.144.987-.288.246-.143.37-.287.37-.575v-.575c-.247-.288-.247-.432-.247-.575z" fill="#213030"/></svg>