<svg width="31" height="21" fill="none" xmlns="http://www.w3.org/2000/svg"><path d="M31 8.06c0-.636-.113-1.378-.113-2.227-.113-.848-.226-1.697-.34-2.44-.226-.848-.565-1.484-1.244-2.014-.566-.53-1.358-.849-2.15-.955C24.551.106 20.704 0 15.5 0 10.296 0 6.336.106 3.847.424c-.792.106-1.584.424-2.15.955C1.131 1.909.68 2.545.453 3.394c-.227.742-.34 1.485-.34 2.44C0 6.681 0 7.423 0 8.06v4.879c0 .636.113 1.378.113 2.227.113.848.226 1.697.34 2.439.226.848.565 1.485 1.244 2.015.566.53 1.358.849 2.15.955 2.602.318 6.449.424 11.653.424 5.204 0 9.164-.106 11.653-.424.792-.106 1.584-.425 2.15-.955.566-.53 1.018-1.166 1.244-2.015.227-.742.34-1.485.34-2.44.113-.848.113-1.59.113-2.227V8.06zm-9.504 3.288l-8.938 5.197a.895.895 0 01-.565.213c-.227 0-.34 0-.566-.107-.34-.212-.566-.53-.566-.954v-10.5c0-.424.227-.742.566-.955.34-.212.792-.212 1.131 0l8.938 5.197c.34.213.566.53.566.849 0 .318-.226.848-.566 1.06z" fill="#213030"/></svg>