<svg width="55" height="48" viewBox="0 0 55 48" fill="none" xmlns="http://www.w3.org/2000/svg">
<path d="M37.9363 10.0625H0V47.9986H37.9363V10.0625Z" fill="#3216B5"/>
<path d="M54.3962 0H16.4609V37.9369H54.3962V0Z" fill="#3216B5"/>
<path d="M11.3828 22.7812V35.4266H14.1296V25.9426H14.5423L18.0607 35.4266H20.1445L23.592 25.9426H24.0044V35.4266H26.7751V22.7812H22.773L19.079 31.8509L15.361 22.7812H11.3828Z" fill="white"/>
<path d="M41.1043 25.3744V22.8452H35.0108V22.4328C37.1601 21.4832 40.9105 20.2545 40.9105 16.8865C40.9105 14.2259 38.6854 11.9531 35.5421 11.9531C32.3985 11.9531 30.7933 14.1055 30.0859 16.0463L32.4127 16.951C32.9376 15.332 33.8617 14.3444 35.5636 14.3444C37.05 14.3444 38.2744 15.4466 38.153 16.908C37.9963 18.7932 35.9678 20.1599 34.1011 21.1794C32.6756 21.9579 30.4679 23.0632 30.4679 23.0632V25.3744H41.1043Z" fill="white"/>
</svg>
