<svg width="52" height="52" viewBox="0 0 52 52" fill="none" xmlns="http://www.w3.org/2000/svg">
<path d="M45.953 10.1055C47.1717 11.7023 48.2034 13.4372 49.0272 15.2752L25.6575 32.7342L15.8906 26.5293V19.0646L25.6575 25.2694L45.953 10.1055Z" fill="#21A038"/>
<path d="M5.92705 26.0034C5.92705 25.6684 5.93511 25.3357 5.95123 25.0049L0.0322358 24.7109C0.0120895 25.1397 7.15282e-06 25.5726 7.15282e-06 26.0095C-0.00251121 29.423 0.659995 32.8033 1.94954 35.9566C3.23907 39.11 5.13025 41.9743 7.51458 44.3852L11.7131 40.1322C9.87769 38.2797 8.42168 36.0777 7.42872 33.653C6.43576 31.2283 5.92543 28.6286 5.92705 26.0034Z" fill="url(#paint0_linear_119_654)"/>
<path d="M25.6575 6.00274C25.9878 6.00274 26.3161 6.015 26.6425 6.03133L26.9386 0.0306442C26.5143 0.0102268 26.0872 1.92836e-05 25.6575 1.92836e-05C22.2876 -0.00414537 18.9504 0.666308 15.8371 1.97288C12.7238 3.27945 9.89587 5.19642 7.51562 7.61369L11.7141 11.8687C13.5422 10.008 15.7151 8.53186 18.108 7.52517C20.5009 6.51849 23.0665 6.00109 25.6575 6.00274Z" fill="url(#paint1_linear_119_654)"/>
<path d="M25.6583 45.9908C25.3279 45.9908 24.9995 45.9908 24.6712 45.9642L24.375 51.9629C24.8007 51.9846 25.2285 51.9956 25.6583 51.9956C29.0266 51.9991 32.3623 51.3282 35.4739 50.0213C38.5855 48.7144 41.4116 46.7971 43.7901 44.3799L39.5996 40.127C37.7713 41.9867 35.5985 43.4619 33.2061 44.4683C30.8137 45.4746 28.2486 45.9921 25.6583 45.9908Z" fill="url(#paint2_linear_119_654)"/>
<path d="M36.7696 9.49415L41.7578 5.76796C37.1985 2.02639 31.5073 -0.0103862 25.6406 3.98292e-05V6.0048C29.6133 5.99981 33.4937 7.21652 36.7696 9.49415Z" fill="url(#paint3_linear_119_654)"/>
<path d="M51.3149 25.9972C51.3181 24.4351 51.1833 22.8757 50.9119 21.3379L45.3899 25.4622C45.3899 25.6399 45.3899 25.8175 45.3899 25.9972C45.3913 28.7908 44.8134 31.5537 43.6939 34.1065C42.5743 36.6593 40.9378 38.9453 38.8906 40.8161L42.8736 45.2774C45.535 42.8424 47.6618 39.8678 49.116 36.5465C50.5703 33.225 51.3194 29.6309 51.3149 25.9972Z" fill="#21A038"/>
<path d="M25.657 45.9929C22.9002 45.9939 20.1739 45.4081 17.6546 44.2735C15.1355 43.1388 12.8795 41.4806 11.0328 39.4062L6.63281 43.4407C9.03518 46.1384 11.9702 48.2941 15.2475 49.7683C18.5249 51.2423 22.0713 52.0019 25.657 51.9976V45.9929Z" fill="url(#paint4_linear_119_654)"/>
<path d="M12.4263 11.1839L8.44535 6.72266C5.78316 9.15718 3.65562 12.1316 2.2007 15.4531C0.745806 18.7745 -0.00396656 22.3688 1.57809e-05 26.0028H5.92706C5.92584 23.2093 6.50376 20.4464 7.62335 17.8936C8.74295 15.3408 10.3793 13.0549 12.4263 11.1839Z" fill="url(#paint5_linear_119_654)"/>
<defs>
<linearGradient id="paint0_linear_119_654" x1="8.71329" y1="43.6359" x2="2.08201" y2="24.7208" gradientUnits="userSpaceOnUse">
<stop offset="0.14" stop-color="#F1E813"/>
<stop offset="0.3" stop-color="#E6E418"/>
<stop offset="0.58" stop-color="#C9DA26"/>
<stop offset="0.89" stop-color="#A2CC39"/>
</linearGradient>
<linearGradient id="paint1_linear_119_654" x1="9.20791" y1="8.6754" x2="25.943" y2="2.38258" gradientUnits="userSpaceOnUse">
<stop offset="0.06" stop-color="#0FA7DF"/>
<stop offset="0.54" stop-color="#0098F8"/>
<stop offset="0.92" stop-color="#0290EA"/>
</linearGradient>
<linearGradient id="paint2_linear_119_654" x1="23.9842" y1="48.3714" x2="42.8693" y2="44.1618" gradientUnits="userSpaceOnUse">
<stop offset="0.12" stop-color="#A2CC39"/>
<stop offset="0.28" stop-color="#86C239"/>
<stop offset="0.87" stop-color="#219F38"/>
</linearGradient>
<linearGradient id="paint3_linear_119_654" x1="24.4078" y1="2.01116" x2="40.5699" y2="6.93251" gradientUnits="userSpaceOnUse">
<stop offset="0.06" stop-color="#0290EA"/>
<stop offset="0.79" stop-color="#0C89CA"/>
</linearGradient>
<linearGradient id="paint4_linear_119_654" x1="8.1196" y1="42.7098" x2="25.7281" y2="49.2033" gradientUnits="userSpaceOnUse">
<stop offset="0.13" stop-color="#F1E813"/>
<stop offset="0.3" stop-color="#EAE616"/>
<stop offset="0.53" stop-color="#D8DF1F"/>
<stop offset="0.8" stop-color="#BAD52D"/>
<stop offset="0.98" stop-color="#A2CC39"/>
</linearGradient>
<linearGradient id="paint5_linear_119_654" x1="2.20805" y1="26.7296" x2="9.41897" y2="8.22054" gradientUnits="userSpaceOnUse">
<stop offset="0.07" stop-color="#A2CC39"/>
<stop offset="0.26" stop-color="#81C45E"/>
<stop offset="0.92" stop-color="#0FA7DF"/>
</linearGradient>
</defs>
</svg>
