<svg width="74" height="27" viewBox="0 0 74 27" fill="none" xmlns="http://www.w3.org/2000/svg">
<path d="M5.10949 0L3.83082 3.50743H21.5442L22.8228 0H5.10949ZM3.19222 5.25966L1.91355 8.76635H19.6269L20.9056 5.25966H3.19222ZM1.27867 10.5193L0 14.0253H17.7133L18.9905 10.5186C18.9913 10.5193 1.27867 10.5193 1.27867 10.5193Z" fill="#009FDF"/>
<path d="M37.2411 15.1239V15.1967C38.0366 15.4889 38.7971 16.0003 39.1948 16.3289C40.4244 17.3519 40.9678 18.7027 40.9678 20.4556C40.9678 23.3423 39.4483 25.4231 36.9512 26.0811C36.1907 26.3004 35.3952 26.3732 33.9121 26.3732H26.3516V5.26172H33.0453C34.4206 5.26172 35.3603 5.33457 36.1921 5.55314C38.6164 6.21106 40.2088 7.89118 40.2088 10.5571C40.2088 11.9822 39.7025 13.188 38.8707 13.9909C38.5086 14.3559 38.0024 14.7945 37.2426 15.1231L37.2411 15.1239ZM30.5481 17.3519V22.9037H33.443C34.3106 22.9037 35.1075 22.8308 35.6859 22.2829C36.265 21.735 36.5178 21.0407 36.5178 20.1278C36.5178 19.4349 36.3364 18.777 35.9751 18.302C35.3603 17.5348 34.5997 17.3519 33.298 17.3519H30.5474H30.5481ZM30.511 13.6987H32.8631C33.5865 13.6987 33.9485 13.6987 34.3098 13.5895C35.2874 13.2965 35.9022 12.4215 35.9022 11.2157C35.9022 9.79135 35.251 9.16985 34.3098 8.87843C33.9113 8.76841 33.5144 8.73272 32.7182 8.73272H30.511V13.6995V13.6987ZM47.2631 26.374V8.80483H41.2213V5.26246H58.0099L56.816 8.80483H51.4604V26.374H47.2631ZM59.3123 26.374V5.26246H72.9168L71.7229 8.80483H63.474V13.4809H66.8394C69.5529 13.4809 70.9639 14.1388 71.9415 14.9782C72.702 15.6361 74.0037 17.0961 74.0037 19.9828C74.0037 22.8316 72.6656 24.4017 71.543 25.2061C70.2405 26.1182 68.866 26.3747 66.0789 26.3747H59.3131H59.3123V26.374ZM63.4732 22.8301H66.6209C67.8148 22.8301 68.5381 22.5379 69.0444 21.88C69.2971 21.5522 69.6592 20.9664 69.6592 19.8713C69.6592 18.7763 69.2971 18.0083 68.5738 17.4604C68.1404 17.1326 67.5605 16.9504 66.5837 16.9504H63.4717V22.8301H63.4732Z" fill="#0A2973"/>
</svg>
