<svg width="675" height="674" viewBox="0 0 675 674" fill="none" xmlns="http://www.w3.org/2000/svg">
<path d="M619.169 318.558L674.079 321.21C668.426 208.617 606.008 104.663 507.66 47.1484L484.547 97.0696C562.778 144.847 612.899 228.034 619.172 318.558H619.169Z" fill="#283B3C"/>
<path d="M56.1407 372.02L1.18359 372.321C5.74891 415.787 18.7517 457.599 38.9853 495.579L84.7866 465.255C70.0383 436.273 60.2051 404.745 56.1439 372.02H56.1407Z" fill="#316067"/>
<path d="M259.095 609.023C203.168 593.059 155.993 561.264 121.043 519.914L75.2539 550.207C117.347 601.951 175.086 641.821 244.035 661.509C269.225 668.703 294.578 672.726 319.689 674.009L317.14 619.232C297.846 617.871 278.415 614.548 259.092 609.026L259.095 609.023Z" fill="#273738"/>
<path d="M382.703 616.198L385.252 670.994C482.233 656.831 569.768 600.847 622.668 516.968L573.53 492.449C529.94 558.743 460.125 603.399 382.703 616.201V616.198Z" fill="#00A48A"/>
<path d="M608.895 415.382C607.096 421.637 605.042 427.731 602.855 433.766L652.085 458.316C655.566 449.217 658.777 439.942 661.505 430.403C665.689 415.841 668.73 401.219 670.885 386.629L615.95 383.977C614.195 394.452 611.898 404.931 608.898 415.382H608.895Z" fill="#2B2826"/>
<path d="M64.9829 260.063C87.1227 182.882 139.641 122.472 205.865 87.8736L186.173 36.582C104.47 77.3381 39.431 150.735 12.3731 245.042C6.47501 265.601 2.72256 286.254 0.816406 306.813L55.8428 306.511C57.5789 291.05 60.5468 275.517 64.9829 260.063Z" fill="#005D62"/>
<path d="M414.763 66.4686C418.182 67.4492 421.534 68.5398 424.896 69.6305L447.99 19.7628C442.01 17.6883 435.967 15.7491 429.82 13.9858C368.042 -3.65616 305.277 -2.83897 247.453 13.1246L267.154 64.4256C314.156 52.4065 364.831 52.2054 414.763 66.4686Z" fill="#2B2826"/>
</svg>
