<svg width="831" height="829" viewBox="0 0 831 829" fill="none" xmlns="http://www.w3.org/2000/svg">
<path d="M283.133 749.036C272.556 744.853 262.326 740.17 252.383 735.125L223.078 781.513C235.908 788.221 249.203 794.343 262.969 799.787C282.742 807.604 302.768 813.78 322.882 818.413L330.938 764.132C314.885 760.229 298.915 755.275 283.133 749.039V749.036Z" fill="#2B2826"/>
<path d="M750.999 547.227C748.207 554.261 745.148 561.116 741.969 567.874L789.27 595.605C793.753 586.387 798.029 577.02 801.872 567.343C831.98 491.551 837.91 412.107 823.543 337.406L770.652 351.858C782.099 415.458 776.569 482.864 750.999 547.227Z" fill="#005D62"/>
<path d="M395.884 773.666L387.84 827.9C531.781 837.549 672.588 771.117 756.046 652.09L708.751 624.355C636.84 724.286 517.918 780.342 395.884 773.666Z" fill="#005D62"/>
<path d="M548.756 80.4801C647.105 119.36 718.804 196.874 753.317 288.67L806.198 274.228C767.132 166.462 683.863 75.1778 568.921 29.7323C541.986 19.0711 514.587 11.4649 487.098 6.70312L482 61.3075C504.42 65.4814 526.774 71.7833 548.753 80.4833L548.756 80.4801Z" fill="#00A48A"/>
<path d="M55.895 428.754L0.988281 425.891C4.54854 551.261 65.4132 670.398 167.564 746.539L196.859 700.163C111.435 634.847 60.1894 534.581 55.895 428.754Z" fill="#2B2826"/>
<path d="M416.615 55.2664L421.723 0.693559C362.67 -0.0544884 304.606 11.776 251.344 34.7423L277.075 83.1988C320.907 64.9251 368.331 55.2382 416.615 55.2664Z" fill="#005D62"/>
<path d="M80.8022 282.245C109.303 210.498 158.573 153.052 218.956 113.849L193.253 65.4492C121.783 110.646 63.4231 177.829 29.9252 262.126C17.0862 294.465 8.68021 327.461 4.30078 360.457L59.2106 363.326C63.1521 336.095 70.2033 308.901 80.8022 282.242V282.245Z" fill="#273738"/>
</svg>
