<svg width="986" height="984" viewBox="0 0 986 984" fill="none" xmlns="http://www.w3.org/2000/svg">
<path d="M269.986 867.86C259.983 861.958 250.405 855.621 241.054 849.074L206.16 891.43C217.717 899.677 229.686 907.513 242.138 914.849C327.524 965.21 422.098 986.809 514.485 982.623L508.423 928.147C427.451 931.152 344.764 911.954 269.983 867.86H269.986Z" fill="#283B3C"/>
<path d="M115.938 269.366C124.205 255.417 133.175 242.153 142.697 229.484L101.385 193.414C89.7464 208.645 78.8419 224.687 68.8417 241.581C54.9157 265.073 43.2173 289.262 33.6172 313.913L85.975 330.266C94.2518 309.541 104.214 289.174 115.941 269.366H115.938Z" fill="#00A48A"/>
<path d="M66.3186 392.82L13.9419 376.457C-27.1428 546.726 26.2831 728.822 155.448 849.921L190.338 807.546C78.3479 700.758 31.6613 541.961 66.3186 392.82Z" fill="#005D62"/>
<path d="M551.387 58.7191L562.755 5.19288C410.823 -16.2836 254.711 34.2787 144.566 144.088L185.91 180.176C282.793 85.1994 418.668 41.074 551.387 58.7191Z" fill="#2B2826"/>
<path d="M715.826 115.666C798.938 164.685 859.802 237.057 895.156 319.471L947.095 301.694C907.566 207.409 838.444 124.573 743.668 68.6774C706.226 46.5911 667.003 30.0461 626.974 18.7656L615.594 72.3107C649.968 82.3088 683.623 96.6789 715.826 115.666Z" fill="#273738"/>
<path d="M924.208 567.632L977.452 581.185C990.886 508.263 987.354 433.886 968.333 363.629L916.477 381.393C932.249 441.63 935.188 505.202 924.211 567.632H924.208Z" fill="#273738"/>
<path d="M869.953 714.127C803.24 826.695 693.405 898.376 573.711 920.883L579.767 975.368C715.995 950.909 841.25 869.821 917.052 741.908C935.641 710.556 950.279 677.947 961.206 644.681L908.016 631.141C898.435 659.522 885.823 687.335 869.953 714.127Z" fill="#2B2826"/>
</svg>
