<svg width="1141" height="1138" viewBox="0 0 1141 1138" fill="none" xmlns="http://www.w3.org/2000/svg">
<path d="M935.482 205.097C1017.32 286.731 1065.83 389.226 1081.03 495.581L1135.63 491.266C1119.38 372.389 1065.58 257.686 974.169 166.494C937.287 129.704 896.546 99.0405 853.268 74.4492L828.91 123.459C867.024 145.416 902.916 172.61 935.482 205.094V205.097Z" fill="#283B3C"/>
<path d="M206.375 205.08C221.294 190.198 236.924 176.447 253.138 163.777L222.141 118.621C203.231 133.224 185.03 149.175 167.685 166.49C144.039 190.066 122.93 215.248 104.312 241.65L150.93 270.472C167.304 247.54 185.773 225.645 206.378 205.077L206.375 205.08Z" fill="#00A48A"/>
<path d="M1037.99 786.594L1086.06 812.867C1124.42 732.122 1142.7 644.17 1140.82 556.551L1086.17 560.863C1087.35 637.997 1071.3 715.351 1037.99 786.594H1037.99Z" fill="#005D62"/>
<path d="M770.064 94.3791L794.422 45.3789C627.654 -25.2393 433.821 -13.1574 276.332 81.6183L307.294 126.715C448.267 43.0687 620.911 32.31 770.064 94.3791Z" fill="#005D62"/>
<path d="M116.315 326.098L69.7164 297.285C-28.8712 478.671 -21.4482 702.614 91.9854 877.585L136.24 845.29C35.8971 688.404 29.2555 488.672 116.315 326.101V326.098Z" fill="#283B3C"/>
<path d="M935.496 932.443C824.911 1042.76 676.152 1092.36 531.237 1081.3L523.543 1135.41C684.942 1148.72 850.98 1093.96 974.187 971.033C1005.35 939.958 1032.13 906.154 1054.56 870.374L1006.44 844.082C986.515 875.447 962.888 905.12 935.499 932.443H935.496Z" fill="#283B3C"/>
<path d="M206.36 932.417C195.291 921.366 184.869 909.938 175.026 898.18L130.766 930.475C142.313 944.423 154.582 957.976 167.663 971.004C250.16 1053.3 351.836 1105.03 458.479 1126.27L466.173 1072.14C370.897 1052.56 280.136 1006.01 206.357 932.417H206.36Z" fill="#00A48A"/>
</svg>
