<?xml version="1.0" encoding="UTF-8" standalone="no"?>
<svg width="535px" height="120px" viewBox="0 0 535 120" version="1.1" xmlns="http://www.w3.org/2000/svg" xmlns:xlink="http://www.w3.org/1999/xlink">
    <!-- Generator: Sketch 41 (35326) - http://www.bohemiancoding.com/sketch -->
    <title>Artboard</title>
    <desc>Created with Sketch.</desc>
    <defs>
        <rect id="path-1" x="0.275" y="0.393" width="8177.5" height="2595.28"></rect>
        <rect id="path-3" x="0.275" y="0.393" width="8177.5" height="2595.28"></rect>
        <rect id="path-5" x="0.275" y="0.393" width="8177.5" height="2595.28"></rect>
        <rect id="path-7" x="0.275" y="0.393" width="8177.5" height="2595.28"></rect>
        <rect id="path-9" x="0.275" y="0.393" width="8177.5" height="2595.28"></rect>
        <rect id="path-11" x="0.275" y="0.393" width="8177.5" height="2595.28"></rect>
        <rect id="path-13" x="0.275" y="0.393" width="8177.5" height="2595.28"></rect>
        <path d="M13.985,31.047 L13.985,11.938 L19.844,11.938 C26.185,11.938 30.041,15.228 30.041,21.812 C30.041,28.316 25.864,31.527 19.602,31.527 C17.598,31.527 15.589,31.37 13.985,31.047 L13.985,31.047 Z M0.575,1.016 L0.575,54.891 C0.575,56.418 1.457,57.22 3.466,57.22 L13.986,57.22 L13.986,41.485 C16.313,42.125 19.445,42.526 21.77,42.526 C34.216,42.526 43.53,34.819 43.53,22.134 C43.53,8.887 34.697,1.016 20.405,1.016 L0.575,1.016 L0.575,1.016 Z M125.826,37.949 L125.826,31.689 C127.993,30.965 130.964,30.563 133.534,30.563 C139.798,30.563 143.089,32.812 143.089,38.431 C143.089,44.215 138.751,46.38 132.891,46.38 L130.964,46.38 C127.512,46.38 125.826,43.892 125.826,37.949 L125.826,37.949 Z M112.496,1.016 L112.496,38.753 C112.496,51.199 118.039,57.22 129.921,57.22 L132.49,57.22 C147.587,57.22 156.577,50.636 156.577,37.711 C156.577,26.469 148.306,20.047 137.066,20.047 C132.89,20.047 128.556,21.009 125.826,22.212 L125.826,11.938 L149.992,11.938 L149.992,3.908 C149.992,1.901 149.189,1.016 147.664,1.016 L112.496,1.016 Z M353.56,1.016 L353.56,54.973 C353.56,56.497 354.44,57.22 356.449,57.22 L366.887,57.22 L366.887,11.938 L389.93,11.938 L389.93,3.908 C389.93,1.901 389.127,1.016 387.599,1.016 L353.56,1.016 Z M186.768,16.433 L193.194,36.266 L180.425,36.266 L186.768,16.433 Z M179.46,2.463 L160.591,54.41 C160.029,56.095 161.315,57.22 162.999,57.22 L173.839,57.22 L177.21,46.622 L196.402,46.622 L199.13,55.133 C199.611,56.578 200.496,57.22 202.743,57.22 L213.986,57.22 L194.798,4.228 C193.753,1.338 192.546,0.456 189.096,0.456 C185.805,0.457 182.271,1.26 179.46,2.463 L179.46,2.463 Z M318.859,16.433 L325.283,36.266 L312.52,36.266 L318.859,16.433 Z M311.552,2.463 L292.686,54.41 C292.124,56.095 293.411,57.22 295.093,57.22 L305.935,57.22 L309.305,46.622 L328.495,46.622 L331.223,55.133 C331.702,56.578 332.59,57.22 334.838,57.22 L346.082,57.22 L326.889,4.228 C325.846,1.338 324.642,0.456 321.193,0.456 C317.897,0.457 314.363,1.26 311.552,2.463 L311.552,2.463 Z M227.001,3.425 L221.464,54.73 C221.305,56.578 222.505,57.22 224.354,57.22 L234.954,57.22 L238.326,21.974 L248.438,40.6 L254.946,40.6 C257.116,40.6 258.157,39.958 258.8,38.753 L267.953,21.974 L271.084,54.813 C271.246,56.418 272.207,57.22 274.214,57.22 L285.057,57.22 L279.197,3.185 C279.035,1.821 278.23,1.016 276.304,1.016 L266.83,1.016 L253.098,26.31 L240.333,2.625 C239.368,0.856 238.404,0.374 236.639,0.374 C234.15,0.375 230.055,1.662 227.001,3.425 L227.001,3.425 Z M63.595,28.479 C63.595,16.354 70.097,10.975 77.489,10.975 C85.596,10.975 92.26,18.119 92.26,29.763 C92.26,41.888 85.756,47.267 78.368,47.267 C70.259,47.266 63.595,40.118 63.595,28.479 L63.595,28.479 Z M50.188,29.118 C50.188,47.745 62.553,58.184 77.968,58.184 C93.302,58.184 105.664,47.746 105.664,29.118 C105.664,10.491 93.302,0.054 77.968,0.054 C62.553,0.054 50.188,10.491 50.188,29.118 L50.188,29.118 Z" id="path-15"></path>
        <linearGradient x1="49.9949482%" y1="-0.206599071%" x2="49.9949475%" y2="99.794089%" id="linearGradient-17">
            <stop stop-color="#0C72B5" offset="0%"></stop>
            <stop stop-color="#30398C" offset="68.04%"></stop>
            <stop stop-color="#312782" offset="100%"></stop>
        </linearGradient>
        <rect id="path-18" x="0.275" y="0.393" width="8177.5" height="2595.28"></rect>
        <path d="M0.38,13.709 C0.471,16.606 0.423,19.221 0.423,21.86 C0.498,93.154 56.102,108.571 56.102,108.571 C56.102,108.571 111.704,93.154 111.776,21.86 C111.78,19.221 111.733,16.606 111.823,13.709 C111.823,13.709 88.446,0.66 56.102,0.66 C23.753,0.661 0.38,13.709 0.38,13.709" id="path-20"></path>
        <radialGradient cx="49.9659118%" cy="50.0055295%" fx="49.9659118%" fy="50.0055295%" r="0.898763482%" id="radialGradient-22">
            <stop stop-color="#1D70B7" offset="0%"></stop>
            <stop stop-color="#312782" offset="100%"></stop>
        </radialGradient>
        <rect id="path-23" x="0.275" y="0.393" width="8177.5" height="2595.28"></rect>
        <rect id="path-25" x="0.216" y="0.664" width="111.449" height="105.87"></rect>
        <rect id="path-27" x="0.275" y="0.393" width="8177.5" height="2595.28"></rect>
        <rect id="path-29" x="0.575" y="0.933" width="77.73" height="82.76"></rect>
        <rect id="path-31" x="0.275" y="0.393" width="8177.5" height="2595.28"></rect>
        <rect id="path-33" x="0.275" y="0.393" width="8177.5" height="2595.28"></rect>
        <rect id="path-35" x="0.275" y="0.393" width="8177.5" height="2595.28"></rect>
        <rect id="path-37" x="0.705" y="0.973" width="389.36" height="42.54"></rect>
        <rect id="path-39" x="0.705" y="0.973" width="389.36" height="42.54"></rect>
        <rect id="path-41" x="0.705" y="0.973" width="389.36" height="42.54"></rect>
        <rect id="path-43" x="0.705" y="0.973" width="389.36" height="42.54"></rect>
        <rect id="path-45" x="0.705" y="0.973" width="389.36" height="42.54"></rect>
        <rect id="path-47" x="0.705" y="0.973" width="389.36" height="42.54"></rect>
        <rect id="path-49" x="0.705" y="0.973" width="389.36" height="42.54"></rect>
        <rect id="path-51" x="0.705" y="0.973" width="389.36" height="42.54"></rect>
        <rect id="path-53" x="0.705" y="0.973" width="389.36" height="42.54"></rect>
        <rect id="path-55" x="0.705" y="0.973" width="389.36" height="42.54"></rect>
        <rect id="path-57" x="0.705" y="0.973" width="389.36" height="42.54"></rect>
        <rect id="path-59" x="0.705" y="0.973" width="389.36" height="42.54"></rect>
        <rect id="path-61" x="0.705" y="0.973" width="389.36" height="42.54"></rect>
        <rect id="path-63" x="0.275" y="0.393" width="8177.5" height="2595.28"></rect>
        <rect id="path-65" x="0.575" y="0.053" width="389.351" height="42.54"></rect>
        <rect id="path-67" x="0.575" y="0.053" width="389.351" height="42.54"></rect>
        <rect id="path-69" x="0.575" y="0.053" width="389.351" height="42.54"></rect>
        <rect id="path-71" x="0.575" y="0.053" width="389.351" height="42.54"></rect>
        <rect id="path-73" x="0.575" y="0.053" width="389.351" height="42.54"></rect>
        <rect id="path-75" x="0.575" y="0.053" width="389.351" height="42.54"></rect>
        <rect id="path-77" x="0.575" y="0.053" width="389.351" height="42.54"></rect>
        <rect id="path-79" x="0.575" y="0.053" width="389.351" height="42.54"></rect>
        <rect id="path-81" x="0.575" y="0.053" width="389.351" height="42.54"></rect>
        <rect id="path-83" x="0.575" y="0.053" width="389.351" height="42.54"></rect>
        <rect id="path-85" x="0.575" y="0.053" width="389.351" height="42.54"></rect>
        <rect id="path-87" x="0.575" y="0.053" width="389.351" height="42.54"></rect>
        <rect id="path-89" x="0.575" y="0.053" width="389.351" height="42.54"></rect>
        <rect id="path-91" x="0.275" y="0.393" width="8177.5" height="2595.28"></rect>
    </defs>
    <g id="Page-1" stroke="none" stroke-width="1" fill="none" fill-rule="evenodd">
        <g id="sprite" transform="translate(-3620.000000, -662.000000)">
            <g id="Layer_1">
                <g id="Group">
                    <g id="Clipped">
                        <g>
                            <mask id="mask-2" fill="white">
                                <use xlink:href="#path-1"></use>
                            </mask>
                            <g id="SVGID_19_"></g>
                            <path d="M3765.466,750.791 C3761.441,750.791 3761.007,748.065 3761.007,746.891 L3761.007,691.448 L3782.404,691.448 C3797.637,691.448 3807.1,700.14 3807.1,714.134 C3807.1,727.271 3797.723,736.099 3783.768,736.099 C3781.895,736.099 3779.592,735.853 3777.553,735.46 L3777.553,750.791 L3765.466,750.791 L3765.466,750.791 Z M3777.554,721.713 C3778.768,721.872 3780.163,721.957 3781.603,721.957 C3785.648,721.957 3790.474,720.545 3790.474,713.813 C3790.474,708.302 3787.57,705.508 3781.845,705.508 L3777.554,705.508 L3777.554,721.713 L3777.554,721.713 Z" id="Shape" fill="#005E9C" mask="url(#mask-2)"></path>
                        </g>
                        <g>
                            <mask id="mask-4" fill="white">
                                <use xlink:href="#path-3"></use>
                            </mask>
                            <g id="SVGID_21_"></g>
                            <path d="M3839.967,751.753 C3822.413,751.753 3810.616,739.443 3810.616,721.118 C3810.616,702.797 3822.413,690.486 3839.967,690.486 C3857.476,690.486 3869.238,702.797 3869.238,721.118 C3869.238,739.443 3857.476,751.753 3839.967,751.753 M3839.488,704.543 C3830.403,704.543 3827.167,712.775 3827.167,720.477 C3827.167,730.614 3832.595,737.693 3840.368,737.693 C3849.451,737.693 3852.688,729.464 3852.688,721.761 C3852.688,711.625 3847.261,704.543 3839.488,704.543" id="Shape" fill="#005E9C" mask="url(#mask-4)"></path>
                        </g>
                        <g>
                            <mask id="mask-6" fill="white">
                                <use xlink:href="#path-5"></use>
                            </mask>
                            <g id="SVGID_23_"></g>
                            <path d="M3891.919,750.791 C3879.319,750.791 3872.927,744.05 3872.927,730.754 L3872.927,691.448 L3909.665,691.448 C3910.834,691.448 3913.562,691.883 3913.562,695.909 L3913.562,705.508 L3889.396,705.508 L3889.396,711.957 C3892.314,711.036 3895.882,710.478 3899.066,710.478 C3911.675,710.478 3920.148,718.207 3920.148,729.712 C3920.148,743.108 3910.794,750.792 3894.49,750.792 L3891.919,750.791 L3891.919,750.791 Z M3889.396,729.95 C3889.396,736.812 3891.716,736.812 3892.962,736.812 L3894.89,736.812 C3903.517,736.812 3903.517,732.012 3903.517,730.432 C3903.517,727.162 3902.55,724.135 3895.535,724.135 C3893.454,724.135 3891.204,724.409 3889.396,724.867 L3889.396,729.95 L3889.396,729.95 Z" id="Shape" fill="#005E9C" mask="url(#mask-6)"></path>
                        </g>
                        <g>
                            <mask id="mask-8" fill="white">
                                <use xlink:href="#path-7"></use>
                            </mask>
                            <g id="SVGID_25_"></g>
                            <path d="M3964.744,750.792 C3962.859,750.792 3960.575,750.434 3959.64,747.632 L3957.253,740.194 L3940.357,740.194 L3936.988,750.792 L3925,750.792 C3923.527,750.792 3922.261,750.204 3921.523,749.178 C3920.857,748.255 3920.707,747.095 3921.101,745.914 L3940.215,693.287 L3940.837,693.021 C3944.005,691.664 3947.741,690.885 3951.091,690.885 C3955.159,690.885 3956.972,692.101 3958.271,695.697 L3978.218,750.792 L3964.744,750.792 Z M3953.029,726.694 L3948.775,713.559 L3944.574,726.694 L3953.029,726.694 Z" id="Shape" fill="#005E9C" mask="url(#mask-8)"></path>
                        </g>
                        <g>
                            <mask id="mask-10" fill="white">
                                <use xlink:href="#path-9"></use>
                            </mask>
                            <g id="SVGID_27_"></g>
                            <path d="M4036.212,750.791 C4032.462,750.791 4031.663,748.396 4031.52,746.97 L4028.874,719.228 L4022.181,731.507 C4021.212,733.319 4019.55,734.17 4016.95,734.17 L4009.512,734.17 L4001.401,719.24 L3998.383,750.791 L3986.356,750.791 C3984.752,750.791 3983.545,750.364 3982.772,749.522 C3982.303,749.01 3981.772,748.087 3981.903,746.596 L3987.528,694.467 L3988.223,694.067 C3991.487,692.176 3995.869,690.805 3998.641,690.805 C4001.055,690.805 4002.526,691.693 4003.713,693.871 L4015.106,715.007 L4027.895,691.448 L4038.305,691.448 C4041.813,691.448 4042.602,693.673 4042.754,695.001 L4048.805,750.791 L4036.212,750.791 L4036.212,750.791 Z" id="Shape" fill="#005E9C" mask="url(#mask-10)"></path>
                        </g>
                        <g>
                            <mask id="mask-12" fill="white">
                                <use xlink:href="#path-11"></use>
                            </mask>
                            <g id="SVGID_29_"></g>
                            <path d="M4096.839,750.792 C4094.952,750.792 4092.671,750.434 4091.736,747.632 L4089.35,740.194 L4072.454,740.194 L4069.081,750.792 L4057.093,750.792 C4055.621,750.792 4054.358,750.204 4053.618,749.178 C4052.955,748.255 4052.805,747.096 4053.198,745.914 L4072.308,693.287 L4072.935,693.021 C4076.099,691.664 4079.835,690.885 4083.19,690.885 C4087.256,690.885 4089.067,692.101 4090.367,695.697 L4110.318,750.792 L4096.839,750.792 Z M4085.124,726.694 L4080.87,713.56 L4076.666,726.695 L4085.124,726.694 L4085.124,726.694 Z" id="Shape" fill="#005E9C" mask="url(#mask-12)"></path>
                        </g>
                        <g>
                            <mask id="mask-14" fill="white">
                                <use xlink:href="#path-13"></use>
                            </mask>
                            <g id="SVGID_31_"></g>
                            <path d="M4118.448,750.791 C4114.423,750.791 4113.988,748.122 4113.988,746.973 L4113.988,691.448 L4149.596,691.448 C4150.768,691.448 4153.498,691.882 4153.498,695.909 L4153.498,705.508 L4130.456,705.508 L4130.456,750.791 L4118.448,750.791 Z" id="Shape" fill="#005E9C" mask="url(#mask-14)"></path>
                        </g>
                    </g>
                    <g id="Clipped" transform="translate(3762.000000, 692.000000)">
                        <mask id="mask-16" fill="white">
                            <use xlink:href="#path-15"></use>
                        </mask>
                        <g id="SVGID_33_"></g>
                        <rect id="Rectangle-path" fill="url(#linearGradient-17)" mask="url(#mask-16)" x="0.575" y="0.054" width="389.354" height="58.13"></rect>
                    </g>
                    <g id="Clipped">
                        <mask id="mask-19" fill="white">
                            <use xlink:href="#path-18"></use>
                        </mask>
                        <g id="SVGID_36_"></g>
                        <path d="M3681.01,779.506 C3680.406,779.337 3665.995,775.235 3651.529,761.96 C3638.237,749.759 3622.382,727.173 3622.343,688.863 C3622.343,688.157 3622.347,687.448 3622.349,686.739 C3622.355,684.848 3622.367,682.892 3622.298,680.836 L3622.223,678.355 L3624.39,677.143 C3625.38,676.59 3649.071,663.58 3682.101,663.58 C3715.131,663.58 3738.819,676.59 3739.812,677.143 L3741.982,678.355 L3741.902,680.836 C3741.839,682.887 3741.847,684.839 3741.856,686.726 C3741.857,687.44 3741.859,688.151 3741.859,688.865 C3741.822,727.173 3725.966,749.759 3712.673,761.96 C3698.206,775.235 3683.798,779.337 3683.193,779.506 L3682.101,779.807 L3681.01,779.506 Z" id="Shape" fill="#005E9C" mask="url(#mask-19)"></path>
                    </g>
                    <g id="Clipped" transform="translate(3626.000000, 667.000000)">
                        <mask id="mask-21" fill="white">
                            <use xlink:href="#path-20"></use>
                        </mask>
                        <g id="SVGID_38_"></g>
                        <rect id="Rectangle-path" fill="url(#radialGradient-22)" mask="url(#mask-21)" x="0.38" y="0.661" width="111.442" height="107.911"></rect>
                    </g>
                    <g id="Clipped">
                        <mask id="mask-24" fill="white">
                            <use xlink:href="#path-23"></use>
                        </mask>
                        <g id="SVGID_41_"></g>
                        <g id="Group" mask="url(#mask-24)">
                            <g opacity="0.5" transform="translate(3626.000000, 667.000000)" id="Clipped">
                                <g>
                                    <g>
                                        <mask id="mask-26" fill="white">
                                            <use xlink:href="#path-25"></use>
                                        </mask>
                                        <g id="SVGID_43_"></g>
                                        <path d="M5.993,17.315 C5.993,17.315 26.264,4.122 58.143,4.122 C87.026,4.122 107.737,15.175 111.547,17.157 C111.555,16.609 111.643,14.277 111.662,13.708 C111.662,13.708 88.285,0.661 55.937,0.661 C23.593,0.661 0.217,13.708 0.217,13.708 C0.306,16.607 0.259,19.222 0.261,21.86 C0.32,79.339 36.466,100.494 50.478,106.536 C36.019,99.905 -0.288,70.25 5.993,17.315" id="Shape" fill="#1D1D1B" mask="url(#mask-26)"></path>
                                    </g>
                                </g>
                            </g>
                            <g id="Clipped">
                                <mask id="mask-28" fill="white">
                                    <use xlink:href="#path-27"></use>
                                </mask>
                                <g id="SVGID_45_"></g>
                                <g id="Group" mask="url(#mask-28)">
                                    <g opacity="0.5" transform="translate(3656.000000, 691.000000)" id="Clipped">
                                        <g>
                                            <g>
                                                <mask id="mask-30" fill="white">
                                                    <use xlink:href="#path-29"></use>
                                                </mask>
                                                <g id="SVGID_47_"></g>
                                                <path d="M78.304,26.519 L57.36,0.933 L57.253,0.939 C59.735,5.112 60.52,10.54 59.377,17.028 C56.652,32.47 43.637,41.022 28.511,41.852 C26.818,41.947 25.261,40.305 24.952,38.669 L23.583,31.455 C23.274,29.817 24.186,28.477 25.628,28.469 C26.399,28.465 27.251,28.462 28.233,28.462 C35.856,28.462 41.629,24.556 43.025,16.638 C44.437,8.623 40.454,4.614 32.731,4.614 L29.163,4.614 C27.194,4.614 25.204,6.83 24.725,9.562 L16.403,56.772 C16.111,58.409 14.527,59.739 12.863,59.739 L3.072,59.739 C1.904,59.739 1.097,59.511 0.599,59.074 L0.576,59.131 L26.129,82.057 C27.088,83.042 27.834,83.696 27.834,83.696 C27.834,83.696 66.288,72.241 78.304,26.519" id="Shape" fill="#1D1D1B" mask="url(#mask-30)"></path>
                                            </g>
                                        </g>
                                    </g>
                                    <g id="Clipped">
                                        <mask id="mask-32" fill="white">
                                            <use xlink:href="#path-31"></use>
                                        </mask>
                                        <g id="SVGID_49_"></g>
                                        <path d="M3666.509,687.505 L3655.819,748.141 C3655.491,749.999 3656.393,750.976 3658.837,750.976 L3668.628,750.976 C3670.292,750.976 3671.874,749.646 3672.163,748.006 L3680.487,700.797 C3680.969,698.067 3682.958,695.851 3684.928,695.851 L3688.496,695.851 C3696.217,695.851 3700.201,699.86 3698.787,707.873 C3697.394,715.789 3691.622,719.7 3683.995,719.7 C3683.011,719.7 3682.161,719.7 3681.39,719.704 C3679.954,719.713 3679.036,721.054 3679.347,722.69 L3680.72,729.906 C3681.026,731.542 3682.579,733.182 3684.277,733.089 C3699.402,732.257 3712.417,723.706 3715.142,708.262 C3717.986,692.138 3708.922,682.56 3691.523,682.56 L3672.407,682.56 C3669.634,682.56 3666.991,684.774 3666.509,687.505" id="Shape" fill="#ECB800" mask="url(#mask-32)"></path>
                                    </g>
                                    <g id="Clipped">
                                        <mask id="mask-34" fill="white">
                                            <use xlink:href="#path-33"></use>
                                        </mask>
                                        <g id="SVGID_51_"></g>
                                        <path d="M3658.837,749.565 C3657.879,749.565 3657.386,749.381 3657.255,749.225 C3657.155,749.107 3657.136,748.785 3657.208,748.385 L3667.898,687.751 C3668.258,685.702 3670.323,683.968 3672.407,683.968 L3691.522,683.968 C3700.065,683.968 3706.588,686.36 3710.382,690.883 C3713.836,695 3715.002,700.925 3713.754,708.02 C3711.331,721.746 3700.006,730.812 3684.198,731.68 L3684.194,731.68 C3683.287,731.68 3682.301,730.69 3682.102,729.643 L3680.733,722.427 C3680.647,721.982 3680.719,721.572 3680.917,721.33 C3681.036,721.185 3681.19,721.115 3681.399,721.115 C3682.167,721.111 3683.014,721.107 3683.996,721.107 C3692.694,721.107 3698.745,716.252 3700.179,708.118 C3700.928,703.867 3700.291,700.498 3698.286,698.109 C3696.241,695.674 3692.948,694.44 3688.497,694.44 L3684.929,694.44 C3682.266,694.44 3679.705,697.127 3679.1,700.553 L3670.777,747.764 C3670.606,748.724 3669.604,749.565 3668.629,749.565 L3658.837,749.565 Z" id="Shape" fill="#FFEC00" mask="url(#mask-34)"></path>
                                    </g>
                                    <g id="Clipped">
                                        <mask id="mask-36" fill="white">
                                            <use xlink:href="#path-35"></use>
                                        </mask>
                                        <g id="SVGID_53_"></g>
                                        <g id="Group" mask="url(#mask-36)">
                                            <g opacity="0.1" transform="translate(3762.000000, 691.000000)">
                                                <g>
                                                    <g id="SVGID_63_-Clipped">
                                                        <mask id="mask-38" fill="white">
                                                            <use xlink:href="#path-37"></use>
                                                        </mask>
                                                        <g id="SVGID_55_"></g>
                                                    </g>
                                                    <g id="SVGID_64_-Clipped">
                                                        <mask id="mask-40" fill="white">
                                                            <use xlink:href="#path-39"></use>
                                                        </mask>
                                                        <g id="SVGID_56_"></g>
                                                    </g>
                                                    <g id="SVGID_65_-Clipped">
                                                        <mask id="mask-42" fill="white">
                                                            <use xlink:href="#path-41"></use>
                                                        </mask>
                                                        <g id="SVGID_57_"></g>
                                                    </g>
                                                    <g id="SVGID_66_-Clipped">
                                                        <mask id="mask-44" fill="white">
                                                            <use xlink:href="#path-43"></use>
                                                        </mask>
                                                        <g id="SVGID_58_"></g>
                                                    </g>
                                                    <g id="SVGID_67_-Clipped">
                                                        <mask id="mask-46" fill="white">
                                                            <use xlink:href="#path-45"></use>
                                                        </mask>
                                                        <g id="SVGID_59_"></g>
                                                    </g>
                                                    <g id="SVGID_68_-Clipped">
                                                        <mask id="mask-48" fill="white">
                                                            <use xlink:href="#path-47"></use>
                                                        </mask>
                                                        <g id="SVGID_60_"></g>
                                                    </g>
                                                    <g id="Clipped">
                                                        <mask id="mask-50" fill="white">
                                                            <use xlink:href="#path-49"></use>
                                                        </mask>
                                                        <g id="SVGID_61_"></g>
                                                        <path d="M387.732,1.941 L353.689,1.941 L353.689,33.853 C358.172,34.198 362.627,34.553 367.016,34.928 L367.016,12.862 L390.059,12.862 L390.059,4.833 C390.061,2.825 389.256,1.941 387.732,1.941" id="Shape" fill="#DDF0FC" mask="url(#mask-50)"></path>
                                                    </g>
                                                    <g id="Clipped">
                                                        <mask id="mask-52" fill="white">
                                                            <use xlink:href="#path-51"></use>
                                                        </mask>
                                                        <g id="SVGID_61_"></g>
                                                        <path d="M279.323,4.11 C279.163,2.745 278.357,1.942 276.429,1.942 L266.958,1.942 L253.228,27.235 L240.461,3.549 C239.497,1.781 238.536,1.298 236.765,1.298 C234.277,1.298 230.183,2.585 227.133,4.35 L224.47,29.006 C228.956,29.012 233.42,29.038 237.863,29.077 L238.456,22.898 L241.834,29.115 C249.45,29.198 257.001,29.328 264.48,29.501 L268.084,22.898 L268.723,29.595 C273.221,29.709 277.686,29.844 282.131,29.992 L279.323,4.11 Z" id="Shape" fill="#DDF0FC" mask="url(#mask-52)"></path>
                                                    </g>
                                                    <g id="Clipped">
                                                        <mask id="mask-54" fill="white">
                                                            <use xlink:href="#path-53"></use>
                                                        </mask>
                                                        <g id="SVGID_61_"></g>
                                                        <path d="M327.02,5.153 C325.977,2.263 324.774,1.38 321.323,1.38 C318.032,1.38 314.497,2.184 311.687,3.386 L301.749,30.742 C306.034,30.93 310.294,31.133 314.515,31.351 L318.993,17.357 L323.687,31.852 C328.156,32.107 332.592,32.378 336.985,32.665 L327.02,5.153 Z" id="Shape" fill="#DDF0FC" mask="url(#mask-54)"></path>
                                                    </g>
                                                    <g id="Clipped">
                                                        <mask id="mask-56" fill="white">
                                                            <use xlink:href="#path-55"></use>
                                                        </mask>
                                                        <g id="SVGID_61_"></g>
                                                        <path d="M194.928,5.153 C193.883,2.263 192.677,1.38 189.225,1.38 C185.936,1.38 182.403,2.184 179.596,3.386 L170.04,29.687 C174.352,29.57 178.689,29.466 183.055,29.379 L186.899,17.357 L190.749,29.239 C195.01,29.17 199.29,29.116 203.593,29.075 L194.928,5.153 Z" id="Shape" fill="#DDF0FC" mask="url(#mask-56)"></path>
                                                    </g>
                                                    <g id="Clipped">
                                                        <mask id="mask-58" fill="white">
                                                            <use xlink:href="#path-57"></use>
                                                        </mask>
                                                        <g id="SVGID_61_"></g>
                                                        <path d="M20.54,1.942 L0.706,1.942 L0.706,43.517 C12.1,41.806 24.063,40.227 36.524,38.789 C40.96,35.27 43.661,29.887 43.661,23.059 C43.661,9.812 34.83,1.942 20.54,1.942 M19.733,32.453 C17.727,32.453 15.721,32.294 14.116,31.969 L14.116,12.863 L19.975,12.863 C26.319,12.863 30.17,16.153 30.17,22.738 C30.171,29.241 25.997,32.453 19.733,32.453" id="Shape" fill="#DDF0FC" mask="url(#mask-58)"></path>
                                                    </g>
                                                    <g id="Clipped">
                                                        <mask id="mask-60" fill="white">
                                                            <use xlink:href="#path-59"></use>
                                                        </mask>
                                                        <g id="SVGID_61_"></g>
                                                        <path d="M105.708,32.627 C105.762,31.782 105.8,30.925 105.8,30.043 C105.8,11.416 93.435,0.977 78.1,0.977 C62.685,0.977 50.32,11.416 50.32,30.043 C50.32,32.586 50.558,34.972 50.995,37.203 C55.441,36.743 59.951,36.299 64.514,35.873 C64.011,33.91 63.729,31.752 63.729,29.399 C63.729,17.278 70.231,11.898 77.618,11.898 C85.725,11.898 92.393,19.043 92.393,30.686 C92.393,31.697 92.329,32.644 92.243,33.563 C96.687,33.235 101.177,32.923 105.708,32.627" id="Shape" fill="#DDF0FC" mask="url(#mask-60)"></path>
                                                    </g>
                                                    <g id="Clipped">
                                                        <mask id="mask-62" fill="white">
                                                            <use xlink:href="#path-61"></use>
                                                        </mask>
                                                        <g id="SVGID_61_"></g>
                                                        <path d="M137.199,20.969 C133.019,20.969 128.689,21.935 125.958,23.139 L125.958,12.863 L150.124,12.863 L150.124,4.834 C150.124,2.824 149.323,1.942 147.797,1.942 L112.63,1.942 L112.63,32.193 C126.329,31.361 140.389,30.683 154.757,30.168 C151.677,24.239 145.198,20.969 137.199,20.969" id="Shape" fill="#DDF0FC" mask="url(#mask-62)"></path>
                                                    </g>
                                                </g>
                                            </g>
                                            <g id="Layer_2">
                                                <g id="Clipped">
                                                    <mask id="mask-64" fill="white">
                                                        <use xlink:href="#path-63"></use>
                                                    </mask>
                                                    <g id="SVGID_69_"></g>
                                                    <g id="Group" mask="url(#mask-64)">
                                                        <g opacity="0.1" transform="translate(3762.000000, 692.000000)">
                                                            <g>
                                                                <g id="SVGID_79_-Clipped">
                                                                    <mask id="mask-66" fill="white">
                                                                        <use xlink:href="#path-65"></use>
                                                                    </mask>
                                                                    <g id="SVGID_71_"></g>
                                                                </g>
                                                                <g id="SVGID_80_-Clipped">
                                                                    <mask id="mask-68" fill="white">
                                                                        <use xlink:href="#path-67"></use>
                                                                    </mask>
                                                                    <g id="SVGID_72_"></g>
                                                                </g>
                                                                <g id="SVGID_81_-Clipped">
                                                                    <mask id="mask-70" fill="white">
                                                                        <use xlink:href="#path-69"></use>
                                                                    </mask>
                                                                    <g id="SVGID_73_"></g>
                                                                </g>
                                                                <g id="SVGID_82_-Clipped">
                                                                    <mask id="mask-72" fill="white">
                                                                        <use xlink:href="#path-71"></use>
                                                                    </mask>
                                                                    <g id="SVGID_74_"></g>
                                                                </g>
                                                                <g id="SVGID_83_-Clipped">
                                                                    <mask id="mask-74" fill="white">
                                                                        <use xlink:href="#path-73"></use>
                                                                    </mask>
                                                                    <g id="SVGID_75_"></g>
                                                                </g>
                                                                <g id="SVGID_84_-Clipped">
                                                                    <mask id="mask-76" fill="white">
                                                                        <use xlink:href="#path-75"></use>
                                                                    </mask>
                                                                    <g id="SVGID_76_"></g>
                                                                </g>
                                                                <g id="Clipped">
                                                                    <mask id="mask-78" fill="white">
                                                                        <use xlink:href="#path-77"></use>
                                                                    </mask>
                                                                    <g id="SVGID_77_"></g>
                                                                    <path d="M387.599,1.017 L353.561,1.017 L353.561,32.929 C358.043,33.272 362.496,33.627 366.887,34.004 L366.887,11.938 L389.93,11.938 L389.93,3.909 C389.93,1.901 389.125,1.017 387.599,1.017" id="Shape" fill="#DDF0FC" mask="url(#mask-78)"></path>
                                                                </g>
                                                                <g id="Clipped">
                                                                    <mask id="mask-80" fill="white">
                                                                        <use xlink:href="#path-79"></use>
                                                                    </mask>
                                                                    <g id="SVGID_77_"></g>
                                                                    <path d="M279.191,3.186 C279.029,1.821 278.226,1.018 276.298,1.018 L266.826,1.018 L253.095,26.311 L240.331,2.625 C239.366,0.857 238.403,0.374 236.634,0.374 C234.148,0.374 230.05,1.661 227,3.427 L224.337,28.079 C228.823,28.088 233.286,28.114 237.73,28.155 L238.325,21.974 L241.697,28.192 C249.318,28.274 256.868,28.404 264.345,28.577 L267.949,21.974 L268.588,28.671 C273.086,28.785 277.556,28.92 281.998,29.069 L279.191,3.186 Z" id="Shape" fill="#DDF0FC" mask="url(#mask-80)"></path>
                                                                </g>
                                                                <g id="Clipped">
                                                                    <mask id="mask-82" fill="white">
                                                                        <use xlink:href="#path-81"></use>
                                                                    </mask>
                                                                    <g id="SVGID_77_"></g>
                                                                    <path d="M326.889,4.229 C325.846,1.338 324.642,0.456 321.192,0.456 C317.899,0.456 314.366,1.26 311.552,2.464 L301.618,29.818 C305.902,30.007 310.161,30.209 314.386,30.427 L318.861,16.433 L323.558,30.928 C328.025,31.183 332.459,31.454 336.852,31.741 L326.889,4.229 Z" id="Shape" fill="#DDF0FC" mask="url(#mask-82)"></path>
                                                                </g>
                                                                <g id="Clipped">
                                                                    <mask id="mask-84" fill="white">
                                                                        <use xlink:href="#path-83"></use>
                                                                    </mask>
                                                                    <g id="SVGID_77_"></g>
                                                                    <path d="M194.797,4.229 C193.752,1.338 192.546,0.456 189.094,0.456 C185.805,0.456 182.272,1.26 179.46,2.464 L169.907,28.762 C174.22,28.646 178.558,28.542 182.921,28.455 L186.768,16.433 L190.616,28.315 C194.879,28.247 199.157,28.192 203.46,28.151 L194.797,4.229 Z" id="Shape" fill="#DDF0FC" mask="url(#mask-84)"></path>
                                                                </g>
                                                                <g id="Clipped">
                                                                    <mask id="mask-86" fill="white">
                                                                        <use xlink:href="#path-85"></use>
                                                                    </mask>
                                                                    <g id="SVGID_77_"></g>
                                                                    <path d="M20.404,1.017 L0.575,1.017 L0.575,42.592 C11.968,40.881 23.932,39.302 36.393,37.864 C40.827,34.347 43.53,28.964 43.53,22.134 C43.53,8.887 34.696,1.017 20.404,1.017 M19.605,31.528 C17.596,31.528 15.59,31.369 13.984,31.047 L13.984,11.938 L19.844,11.938 C26.186,11.938 30.04,15.228 30.04,21.812 C30.041,28.316 25.865,31.528 19.605,31.528" id="Shape" fill="#DDF0FC" mask="url(#mask-86)"></path>
                                                                </g>
                                                                <g id="Clipped">
                                                                    <mask id="mask-88" fill="white">
                                                                        <use xlink:href="#path-87"></use>
                                                                    </mask>
                                                                    <g id="SVGID_77_"></g>
                                                                    <path d="M105.574,31.705 C105.63,30.86 105.665,30.001 105.665,29.119 C105.665,10.492 93.303,0.055 77.968,0.055 C62.552,0.055 50.187,10.492 50.187,29.119 C50.187,31.663 50.425,34.048 50.864,36.28 C55.31,35.82 59.818,35.377 64.379,34.95 C63.88,32.988 63.596,30.83 63.596,28.477 C63.596,16.354 70.1,10.974 77.49,10.974 C85.596,10.974 92.261,18.119 92.261,29.762 C92.261,30.774 92.2,31.721 92.112,32.64 C96.556,32.312 101.044,32 105.574,31.705" id="Shape" fill="#DDF0FC" mask="url(#mask-88)"></path>
                                                                </g>
                                                                <g id="Clipped">
                                                                    <mask id="mask-90" fill="white">
                                                                        <use xlink:href="#path-89"></use>
                                                                    </mask>
                                                                    <g id="SVGID_77_"></g>
                                                                    <path d="M137.066,20.046 C132.89,20.046 128.556,21.01 125.827,22.213 L125.827,11.938 L149.992,11.938 L149.992,3.908 C149.992,1.901 149.189,1.017 147.665,1.017 L112.497,1.017 L112.497,31.268 C126.201,30.436 140.257,29.758 154.624,29.244 C151.543,23.316 145.066,20.046 137.066,20.046" id="Shape" fill="#DDF0FC" mask="url(#mask-90)"></path>
                                                                </g>
                                                            </g>
                                                        </g>
                                                        <g id="Clipped">
                                                            <mask id="mask-92" fill="white">
                                                                <use xlink:href="#path-91"></use>
                                                            </mask>
                                                            <g id="SVGID_85_"></g>
                                                        </g>
                                                    </g>
                                                </g>
                                            </g>
                                        </g>
                                    </g>
                                </g>
                            </g>
                        </g>
                    </g>
                </g>
            </g>
        </g>
        <g id="Artboard"></g>
    </g>
</svg>