<svg width="535" height="120" xmlns="http://www.w3.org/2000/svg" xmlns:xlink="http://www.w3.org/1999/xlink"><defs><path id="a" d="M.275.393h8177.5v2595.28H.275z"/><path id="c" d="M.275.393h8177.5v2595.28H.275z"/><path id="e" d="M.275.393h8177.5v2595.28H.275z"/><path id="g" d="M.275.393h8177.5v2595.28H.275z"/><path id="i" d="M.275.393h8177.5v2595.28H.275z"/><path id="k" d="M.275.393h8177.5v2595.28H.275z"/><path id="m" d="M.275.393h8177.5v2595.28H.275z"/><path d="M13.985 31.047V11.938h5.859c6.341 0 10.197 3.29 10.197 9.874 0 6.504-4.177 9.715-10.439 9.715-2.004 0-4.013-.157-5.617-.48zM.575 1.016v53.875c0 1.527.882 2.329 2.891 2.329h10.52V41.485c2.327.64 5.459 1.041 7.784 1.041 12.446 0 21.76-7.707 21.76-20.392 0-13.247-8.833-21.118-23.125-21.118H.575zm125.251 36.933v-6.26c2.167-.724 5.138-1.126 7.708-1.126 6.264 0 9.555 2.249 9.555 7.868 0 5.784-4.338 7.949-10.198 7.949h-1.927c-3.452 0-5.138-2.488-5.138-8.431zm-13.33-36.933v37.737c0 12.446 5.543 18.467 17.425 18.467h2.569c15.097 0 24.087-6.584 24.087-19.509 0-11.242-8.271-17.664-19.511-17.664-4.176 0-8.51.962-11.24 2.165V11.938h24.166v-8.03c0-2.007-.803-2.892-2.328-2.892h-35.168zm241.064 0v53.957c0 1.524.88 2.247 2.889 2.247h10.438V11.938h23.043v-8.03c0-2.007-.803-2.892-2.331-2.892H353.56zM186.768 16.433l6.426 19.833h-12.769l6.343-19.833zm-7.308-13.97L160.591 54.41c-.562 1.685.724 2.81 2.408 2.81h10.84l3.371-10.598h19.192l2.728 8.511c.481 1.445 1.366 2.087 3.613 2.087h11.243L194.798 4.228c-1.045-2.89-2.252-3.772-5.702-3.772-3.291.001-6.825.804-9.636 2.007zm139.399 13.97l6.424 19.833H312.52l6.339-19.833zm-7.307-13.97L292.686 54.41c-.562 1.685.725 2.81 2.407 2.81h10.842l3.37-10.598h19.19l2.728 8.511c.479 1.445 1.367 2.087 3.615 2.087h11.244L326.889 4.228c-1.043-2.89-2.247-3.772-5.696-3.772-3.296.001-6.83.804-9.641 2.007zm-84.551.962l-5.537 51.305c-.159 1.848 1.041 2.49 2.89 2.49h10.6l3.372-35.246L248.438 40.6h6.508c2.17 0 3.211-.642 3.854-1.847l9.153-16.779 3.131 32.839c.162 1.605 1.123 2.407 3.13 2.407h10.843l-5.86-54.035c-.162-1.364-.967-2.169-2.893-2.169h-9.474L253.098 26.31 240.333 2.625c-.965-1.769-1.929-2.251-3.694-2.251-2.489.001-6.584 1.288-9.638 3.051zM63.595 28.479c0-12.125 6.502-17.504 13.894-17.504 8.107 0 14.771 7.144 14.771 18.788 0 12.125-6.504 17.504-13.892 17.504-8.109-.001-14.773-7.149-14.773-18.788zm-13.407.639c0 18.627 12.365 29.066 27.78 29.066 15.334 0 27.696-10.438 27.696-29.066 0-18.627-12.362-29.064-27.696-29.064-15.415 0-27.78 10.437-27.78 29.064z" id="o"/><path id="r" d="M.275.393h8177.5v2595.28H.275z"/><path d="M.38 13.709c.091 2.897.043 5.512.043 8.151.075 71.294 55.679 86.711 55.679 86.711s55.602-15.417 55.674-86.711c.004-2.639-.043-5.254.047-8.151 0 0-23.377-13.049-55.721-13.049C23.753.661.38 13.709.38 13.709" id="t"/><path id="w" d="M.275.393h8177.5v2595.28H.275z"/><path id="y" d="M.216.664h111.449v105.87H.216z"/><path id="A" d="M.275.393h8177.5v2595.28H.275z"/><path id="C" d="M.575.933h77.73v82.76H.575z"/><path id="E" d="M.275.393h8177.5v2595.28H.275z"/><path id="G" d="M.275.393h8177.5v2595.28H.275z"/><path id="I" d="M.275.393h8177.5v2595.28H.275z"/><path id="K" d="M.705.973h389.36v42.54H.705z"/><path id="M" d="M.705.973h389.36v42.54H.705z"/><path id="O" d="M.705.973h389.36v42.54H.705z"/><path id="Q" d="M.705.973h389.36v42.54H.705z"/><path id="S" d="M.705.973h389.36v42.54H.705z"/><path id="U" d="M.705.973h389.36v42.54H.705z"/><path id="W" d="M.705.973h389.36v42.54H.705z"/><path id="Y" d="M.275.393h8177.5v2595.28H.275z"/><path id="aa" d="M.575.053h389.351v42.54H.575z"/><path id="ac" d="M.575.053h389.351v42.54H.575z"/><path id="ae" d="M.575.053h389.351v42.54H.575z"/><path id="ag" d="M.575.053h389.351v42.54H.575z"/><path id="ai" d="M.575.053h389.351v42.54H.575z"/><path id="ak" d="M.575.053h389.351v42.54H.575z"/><path id="am" d="M.575.053h389.351v42.54H.575z"/><radialGradient cx="49.966%" cy="50.006%" fx="49.966%" fy="50.006%" r=".899%" id="u"><stop stop-color="#1D70B7" offset="0%"/><stop stop-color="#312782" offset="100%"/></radialGradient><linearGradient x1="49.995%" y1="-.207%" x2="49.995%" y2="99.794%" id="p"><stop stop-color="#0C72B5" offset="0%"/><stop stop-color="#30398C" offset="68.04%"/><stop stop-color="#312782" offset="100%"/></linearGradient></defs><g fill="none" fill-rule="evenodd"><g transform="translate(-3620 -662)"><mask id="b" fill="#fff"><use xlink:href="#a"/></mask><path d="M3765.466 750.791c-4.025 0-4.459-2.726-4.459-3.9v-55.443h21.397c15.233 0 24.696 8.692 24.696 22.686 0 13.137-9.377 21.965-23.332 21.965-1.873 0-4.176-.246-6.215-.639v15.331h-12.087zm12.088-29.078c1.214.159 2.609.244 4.049.244 4.045 0 8.871-1.412 8.871-8.144 0-5.511-2.904-8.305-8.629-8.305h-4.291v16.205z" fill="#005E9C" mask="url(#b)"/></g><g transform="translate(-3620 -662)"><mask id="d" fill="#fff"><use xlink:href="#c"/></mask><path d="M3839.967 751.753c-17.554 0-29.351-12.31-29.351-30.635 0-18.321 11.797-30.632 29.351-30.632 17.509 0 29.271 12.311 29.271 30.632 0 18.325-11.762 30.635-29.271 30.635m-.479-47.21c-9.085 0-12.321 8.232-12.321 15.934 0 10.137 5.428 17.216 13.201 17.216 9.083 0 12.32-8.229 12.32-15.932 0-10.136-5.427-17.218-13.2-17.218" fill="#005E9C" mask="url(#d)"/></g><g transform="translate(-3620 -662)"><mask id="f" fill="#fff"><use xlink:href="#e"/></mask><path d="M3891.919 750.791c-12.6 0-18.992-6.741-18.992-20.037v-39.306h36.738c1.169 0 3.897.435 3.897 4.461v9.599h-24.166v6.449c2.918-.921 6.486-1.479 9.67-1.479 12.609 0 21.082 7.729 21.082 19.234 0 13.396-9.354 21.08-25.658 21.08l-2.571-.001zm-2.523-20.841c0 6.862 2.32 6.862 3.566 6.862h1.928c8.627 0 8.627-4.8 8.627-6.38 0-3.27-.967-6.297-7.982-6.297-2.081 0-4.331.274-6.139.732v5.083z" fill="#005E9C" mask="url(#f)"/></g><g transform="translate(-3620 -662)"><mask id="h" fill="#fff"><use xlink:href="#g"/></mask><path d="M3964.744 750.792c-1.885 0-4.169-.358-5.104-3.16l-2.387-7.438h-16.896l-3.369 10.598H3925c-1.473 0-2.739-.588-3.477-1.614-.666-.923-.816-2.083-.422-3.264l19.114-52.627.622-.266c3.168-1.357 6.904-2.136 10.254-2.136 4.068 0 5.881 1.216 7.18 4.812l19.947 55.095h-13.474zm-11.715-24.098l-4.254-13.135-4.201 13.135h8.455z" fill="#005E9C" mask="url(#h)"/></g><g transform="translate(-3620 -662)"><mask id="j" fill="#fff"><use xlink:href="#i"/></mask><path d="M4036.212 750.791c-3.75 0-4.549-2.395-4.692-3.821l-2.646-27.742-6.693 12.279c-.969 1.812-2.631 2.663-5.231 2.663h-7.438l-8.111-14.93-3.018 31.551h-12.027c-1.604 0-2.811-.427-3.584-1.269-.469-.512-1-1.435-.869-2.926l5.625-52.129.695-.4c3.264-1.891 7.646-3.262 10.418-3.262 2.414 0 3.885.888 5.072 3.066l11.393 21.136 12.789-23.559h10.41c3.508 0 4.297 2.225 4.449 3.553l6.051 55.79h-12.593z" fill="#005E9C" mask="url(#j)"/></g><g transform="translate(-3620 -662)"><mask id="l" fill="#fff"><use xlink:href="#k"/></mask><path d="M4096.839 750.792c-1.887 0-4.168-.358-5.103-3.16l-2.386-7.438h-16.896l-3.373 10.598h-11.988c-1.472 0-2.735-.588-3.475-1.614-.663-.923-.813-2.082-.42-3.264l19.11-52.627.627-.266c3.164-1.357 6.9-2.136 10.255-2.136 4.066 0 5.877 1.216 7.177 4.812l19.951 55.095h-13.479zm-11.715-24.098l-4.254-13.134-4.204 13.135 8.458-.001z" fill="#005E9C" mask="url(#l)"/></g><g transform="translate(-3620 -662)"><mask id="n" fill="#fff"><use xlink:href="#m"/></mask><path d="M4118.448 750.791c-4.025 0-4.46-2.669-4.46-3.818v-55.525h35.608c1.172 0 3.902.434 3.902 4.461v9.599h-23.042v45.283h-12.008z" fill="#005E9C" mask="url(#n)"/></g><g transform="translate(142 30)"><mask id="q" fill="#fff"><use xlink:href="#o"/></mask><path fill="url(#p)" mask="url(#q)" d="M.575.054h389.354v58.13H.575z"/></g><g transform="translate(-3620 -662)"><mask id="s" fill="#fff"><use xlink:href="#r"/></mask><path d="M3681.01 779.506c-.604-.169-15.015-4.271-29.481-17.546-13.292-12.201-29.147-34.787-29.186-73.097 0-.706.004-1.415.006-2.124.006-1.891.018-3.847-.051-5.903l-.075-2.481 2.167-1.212c.99-.553 24.681-13.563 57.711-13.563s56.718 13.01 57.711 13.563l2.17 1.212-.08 2.481c-.063 2.051-.055 4.003-.046 5.89.001.714.003 1.425.003 2.139-.037 38.308-15.893 60.894-29.186 73.095-14.467 13.275-28.875 17.377-29.48 17.546l-1.092.301-1.091-.301z" fill="#005E9C" mask="url(#s)"/></g><g transform="translate(6 5)"><mask id="v" fill="#fff"><use xlink:href="#t"/></mask><path fill="url(#u)" mask="url(#v)" d="M.38.661h111.442v107.911H.38z"/></g><g transform="translate(-3620 -662)"><mask id="x" fill="#fff"><use xlink:href="#w"/></mask><g mask="url(#x)"><g transform="translate(3626 667)" opacity=".5"><mask id="z" fill="#fff"><use xlink:href="#y"/></mask><path d="M5.993 17.315S26.264 4.122 58.143 4.122c28.883 0 49.594 11.053 53.404 13.035.008-.548.096-2.88.115-3.449 0 0-23.377-13.047-55.725-13.047C23.593.661.217 13.708.217 13.708c.089 2.899.042 5.514.044 8.152.059 57.479 36.205 78.634 50.217 84.676C36.019 99.905-.288 70.25 5.993 17.315" fill="#1D1D1B" mask="url(#z)"/></g><mask id="B" fill="#fff"><use xlink:href="#A"/></mask><g mask="url(#B)"><g transform="translate(3656 691)" opacity=".5"><mask id="D" fill="#fff"><use xlink:href="#C"/></mask><path d="M78.304 26.519L57.36.933l-.107.006c2.482 4.173 3.267 9.601 2.124 16.089-2.725 15.442-15.74 23.994-30.866 24.824-1.693.095-3.25-1.547-3.559-3.183l-1.369-7.214c-.309-1.638.603-2.978 2.045-2.986.771-.004 1.623-.007 2.605-.007 7.623 0 13.396-3.906 14.792-11.824 1.412-8.015-2.571-12.024-10.294-12.024h-3.568c-1.969 0-3.959 2.216-4.438 4.948l-8.322 47.21c-.292 1.637-1.876 2.967-3.54 2.967H3.072c-1.168 0-1.975-.228-2.473-.665l-.023.057 25.553 22.926a33.205 33.205 0 001.705 1.639s38.454-11.455 50.47-57.177" fill="#1D1D1B" mask="url(#D)"/></g><mask id="F" fill="#fff"><use xlink:href="#E"/></mask><path d="M3666.509 687.505l-10.69 60.636c-.328 1.858.574 2.835 3.018 2.835h9.791c1.664 0 3.246-1.33 3.535-2.97l8.324-47.209c.482-2.73 2.471-4.946 4.441-4.946h3.568c7.721 0 11.705 4.009 10.291 12.022-1.393 7.916-7.165 11.827-14.792 11.827-.984 0-1.834 0-2.605.004-1.436.009-2.354 1.35-2.043 2.986l1.373 7.216c.306 1.636 1.859 3.276 3.557 3.183 15.125-.832 28.14-9.383 30.865-24.827 2.844-16.124-6.22-25.702-23.619-25.702h-19.116c-2.773 0-5.416 2.214-5.898 4.945" fill="#ECB800" mask="url(#F)"/><mask id="H" fill="#fff"><use xlink:href="#G"/></mask><path d="M3658.837 749.565c-.958 0-1.451-.184-1.582-.34-.1-.118-.119-.44-.047-.84l10.69-60.634c.36-2.049 2.425-3.783 4.509-3.783h19.115c8.543 0 15.066 2.392 18.86 6.915 3.454 4.117 4.62 10.042 3.372 17.137-2.423 13.726-13.748 22.792-29.556 23.66h-.004c-.907 0-1.893-.99-2.092-2.037l-1.369-7.216c-.086-.445-.014-.855.184-1.097a.58.58 0 01.482-.215c.768-.004 1.615-.008 2.597-.008 8.698 0 14.749-4.855 16.183-12.989.749-4.251.112-7.62-1.893-10.009-2.045-2.435-5.338-3.669-9.789-3.669h-3.568c-2.663 0-5.224 2.687-5.829 6.113l-8.323 47.211c-.171.96-1.173 1.801-2.148 1.801h-9.792z" fill="#FFEC00" mask="url(#H)"/><mask id="J" fill="#fff"><use xlink:href="#I"/></mask><g mask="url(#J)"><g opacity=".1"><g transform="translate(3762 691)"><mask id="L" fill="#fff"><use xlink:href="#K"/></mask><path d="M387.732 1.941h-34.043v31.912c4.483.345 8.938.7 13.327 1.075V12.862h23.043V4.833c.002-2.008-.803-2.892-2.327-2.892" fill="#DDF0FC" mask="url(#L)"/></g><g transform="translate(3762 691)"><mask id="N" fill="#fff"><use xlink:href="#M"/></mask><path d="M279.323 4.11c-.16-1.365-.966-2.168-2.894-2.168h-9.471l-13.73 25.293-12.767-23.686c-.964-1.768-1.925-2.251-3.696-2.251-2.488 0-6.582 1.287-9.632 3.052l-2.663 24.656c4.486.006 8.95.032 13.393.071l.593-6.179 3.378 6.217c7.616.083 15.167.213 22.646.386l3.604-6.603.639 6.697c4.498.114 8.963.249 13.408.397L279.323 4.11z" fill="#DDF0FC" mask="url(#N)"/></g><g transform="translate(3762 691)"><mask id="P" fill="#fff"><use xlink:href="#O"/></mask><path d="M327.02 5.153c-1.043-2.89-2.246-3.773-5.697-3.773-3.291 0-6.826.804-9.636 2.006l-9.938 27.356c4.285.188 8.545.391 12.766.609l4.478-13.994 4.694 14.495c4.469.255 8.905.526 13.298.813L327.02 5.153z" fill="#DDF0FC" mask="url(#P)"/></g><g transform="translate(3762 691)"><mask id="R" fill="#fff"><use xlink:href="#Q"/></mask><path d="M194.928 5.153c-1.045-2.89-2.251-3.773-5.703-3.773-3.289 0-6.822.804-9.629 2.006l-9.556 26.301c4.312-.117 8.649-.221 13.015-.308l3.844-12.022 3.85 11.882c4.261-.069 8.541-.123 12.844-.164l-8.665-23.922z" fill="#DDF0FC" mask="url(#R)"/></g><g transform="translate(3762 691)"><mask id="T" fill="#fff"><use xlink:href="#S"/></mask><path d="M20.54 1.942H.706v41.575a1060.066 1060.066 0 0135.818-4.728c4.436-3.519 7.137-8.902 7.137-15.73 0-13.247-8.831-21.117-23.121-21.117m-.807 30.511c-2.006 0-4.012-.159-5.617-.484V12.863h5.859c6.344 0 10.195 3.29 10.195 9.875.001 6.503-4.173 9.715-10.437 9.715" fill="#DDF0FC" mask="url(#T)"/></g><g transform="translate(3762 691)"><mask id="V" fill="#fff"><use xlink:href="#U"/></mask><path d="M105.708 32.627c.054-.845.092-1.702.092-2.584C105.8 11.416 93.435.977 78.1.977c-15.415 0-27.78 10.439-27.78 29.066 0 2.543.238 4.929.675 7.16 4.446-.46 8.956-.904 13.519-1.33-.503-1.963-.785-4.121-.785-6.474 0-12.121 6.502-17.501 13.889-17.501 8.107 0 14.775 7.145 14.775 18.788 0 1.011-.064 1.958-.15 2.877 4.444-.328 8.934-.64 13.465-.936" fill="#DDF0FC" mask="url(#V)"/></g><g transform="translate(3762 691)"><mask id="X" fill="#fff"><use xlink:href="#W"/></mask><path d="M137.199 20.969c-4.18 0-8.51.966-11.241 2.17V12.863h24.166V4.834c0-2.01-.801-2.892-2.327-2.892H112.63v30.251c13.699-.832 27.759-1.51 42.127-2.025-3.08-5.929-9.559-9.199-17.558-9.199" fill="#DDF0FC" mask="url(#X)"/></g></g><mask id="Z" fill="#fff"><use xlink:href="#Y"/></mask><g opacity=".1" mask="url(#Z)"><g transform="translate(3762 692)"><mask id="ab" fill="#fff"><use xlink:href="#aa"/></mask><path d="M387.599 1.017h-34.038v31.912c4.482.343 8.935.698 13.326 1.075V11.938h23.043V3.909c0-2.008-.805-2.892-2.331-2.892" fill="#DDF0FC" mask="url(#ab)"/></g><g transform="translate(3762 692)"><mask id="ad" fill="#fff"><use xlink:href="#ac"/></mask><path d="M279.191 3.186c-.162-1.365-.965-2.168-2.893-2.168h-9.472l-13.731 25.293-12.764-23.686c-.965-1.768-1.928-2.251-3.697-2.251-2.486 0-6.584 1.287-9.634 3.053l-2.663 24.652c4.486.009 8.949.035 13.393.076l.595-6.181 3.372 6.218c7.621.082 15.171.212 22.648.385l3.604-6.603.639 6.697c4.498.114 8.968.249 13.41.398l-2.807-25.883z" fill="#DDF0FC" mask="url(#ad)"/></g><g transform="translate(3762 692)"><mask id="af" fill="#fff"><use xlink:href="#ae"/></mask><path d="M326.889 4.229c-1.043-2.891-2.247-3.773-5.697-3.773-3.293 0-6.826.804-9.64 2.008l-9.934 27.354c4.284.189 8.543.391 12.768.609l4.475-13.994 4.697 14.495c4.467.255 8.901.526 13.294.813l-9.963-27.512z" fill="#DDF0FC" mask="url(#af)"/></g><g transform="translate(3762 692)"><mask id="ah" fill="#fff"><use xlink:href="#ag"/></mask><path d="M194.797 4.229c-1.045-2.891-2.251-3.773-5.703-3.773-3.289 0-6.822.804-9.634 2.008l-9.553 26.298c4.313-.116 8.651-.22 13.014-.307l3.847-12.022 3.848 11.882c4.263-.068 8.541-.123 12.844-.164l-8.663-23.922z" fill="#DDF0FC" mask="url(#ah)"/></g><g transform="translate(3762 692)"><mask id="aj" fill="#fff"><use xlink:href="#ai"/></mask><path d="M20.404 1.017H.575v41.575c11.393-1.711 23.357-3.29 35.818-4.728 4.434-3.517 7.137-8.9 7.137-15.73 0-13.247-8.834-21.117-23.126-21.117m-.799 30.511c-2.009 0-4.015-.159-5.621-.481V11.938h5.86c6.342 0 10.196 3.29 10.196 9.874.001 6.504-4.175 9.716-10.435 9.716" fill="#DDF0FC" mask="url(#aj)"/></g><g transform="translate(3762 692)"><mask id="al" fill="#fff"><use xlink:href="#ak"/></mask><path d="M105.574 31.705a38.98 38.98 0 00.091-2.586c0-18.627-12.362-29.064-27.697-29.064-15.416 0-27.781 10.437-27.781 29.064 0 2.544.238 4.929.677 7.161 4.446-.46 8.954-.903 13.515-1.33-.499-1.962-.783-4.12-.783-6.473 0-12.123 6.504-17.503 13.894-17.503 8.106 0 14.771 7.145 14.771 18.788 0 1.012-.061 1.959-.149 2.878 4.444-.328 8.932-.64 13.462-.935" fill="#DDF0FC" mask="url(#al)"/></g><g transform="translate(3762 692)"><mask id="an" fill="#fff"><use xlink:href="#am"/></mask><path d="M137.066 20.046c-4.176 0-8.51.964-11.239 2.167V11.938h24.165v-8.03c0-2.007-.803-2.891-2.327-2.891h-35.168v30.251a1696.58 1696.58 0 0142.127-2.024c-3.081-5.928-9.558-9.198-17.558-9.198" fill="#DDF0FC" mask="url(#an)"/></g></g></g></g></g></g></g></svg>