<svg width="19" height="19" viewBox="0 0 19 19" fill="none" xmlns="http://www.w3.org/2000/svg">
<path d="M9.4987 18.0091C4.80411 18.0091 0.988281 14.1933 0.988281 9.4987C0.988281 4.80411 4.80411 0.988281 9.4987 0.988281C14.1933 0.988281 18.0091 4.80411 18.0091 9.4987C18.0091 14.1933 14.1933 18.0091 9.4987 18.0091ZM9.4987 2.17578C5.4612 2.17578 2.17578 5.4612 2.17578 9.4987C2.17578 13.5362 5.4612 16.8216 9.4987 16.8216C13.5362 16.8216 16.8216 13.5362 16.8216 9.4987C16.8216 5.4612 13.5362 2.17578 9.4987 2.17578Z" fill="#00A48A"/>
<path d="M12.4369 12.6111C12.334 12.6111 12.2311 12.5874 12.1361 12.5241L9.68193 11.0595C9.07234 10.6953 8.62109 9.89573 8.62109 9.19115V5.94531C8.62109 5.62073 8.89026 5.35156 9.21484 5.35156C9.53943 5.35156 9.80859 5.62073 9.80859 5.94531V9.19115C9.80859 9.47615 10.0461 9.89573 10.2915 10.0382L12.7457 11.5028C13.0307 11.6691 13.1178 12.0332 12.9515 12.3182C12.8328 12.5082 12.6348 12.6111 12.4369 12.6111Z" fill="#00A48A"/>
</svg>
