<svg width="23" height="23" viewBox="0 0 23 23" fill="none" xmlns="http://www.w3.org/2000/svg">
<path fill-rule="evenodd" clip-rule="evenodd" d="M8.72127 0.01538C8.71849 0.0176927 8.44549 0.0254391 8.11462 0.0326026C7.78374 0.0397662 7.48342 0.0484339 7.44723 0.0518371C7.41104 0.0552402 7.24607 0.0637199 7.08063 0.0706766C6.91519 0.0776334 6.75445 0.0864891 6.72343 0.0903623C6.69241 0.0942167 6.57821 0.102696 6.46964 0.109183C6.36107 0.11567 6.24686 0.124131 6.21584 0.127985C6.18482 0.131839 6.09599 0.140075 6.01844 0.146261C5.38544 0.196782 4.59959 0.3233 4.02836 0.466609C2.69158 0.802017 1.79904 1.35782 1.23396 2.20673C0.565192 3.21143 0.209669 4.69709 0.0779581 7.03756C0.0197727 8.07126 -0.0266627 11.4199 0.0175544 11.3925C0.0292102 11.3853 0.282274 11.3713 0.579912 11.3614C3.55298 11.262 4.82297 11.1601 5.96204 10.9296C7.15327 10.6885 8.02096 10.3152 8.79141 9.71235C9.9246 8.82565 10.6126 7.60824 10.9431 5.90476C11.1734 4.71815 11.2649 3.53161 11.369 0.385121L11.3816 0.00313993L10.054 0.00716355C9.32376 0.00936338 8.72405 0.0130674 8.72127 0.01538ZM11.6291 0.242527C11.6351 0.375927 11.6487 0.75159 11.6591 1.07733C11.7712 4.57505 11.979 6.14624 12.4984 7.423C13.1267 8.96743 14.3408 10.0992 15.9541 10.6444C17.2125 11.0696 18.7848 11.2479 22.1957 11.3522C22.3818 11.3579 22.6389 11.3675 22.767 11.3737L22.9999 11.3849L22.9887 9.7612C22.9825 8.86814 22.9735 8.08671 22.9687 8.02467C22.9639 7.96262 22.9545 7.74687 22.9478 7.54522C22.9411 7.34356 22.9324 7.14473 22.9286 7.10337C22.9247 7.062 22.9164 6.93086 22.9101 6.81194C22.8827 6.2928 22.8171 5.64127 22.7387 5.11036C22.4821 3.37294 21.951 2.17138 21.1385 1.4906C20.4905 0.947639 19.6395 0.583764 18.4827 0.355019C18.1796 0.295078 17.6356 0.212481 17.3641 0.185162C17.3021 0.17892 17.2175 0.169989 17.1761 0.165307C17.0167 0.147257 16.9264 0.13874 16.7813 0.128023C16.6986 0.121912 16.5971 0.11347 16.5557 0.109239C16.5144 0.105028 16.3748 0.0960029 16.2455 0.0891778C16.1163 0.0823715 15.9809 0.0741362 15.9447 0.0708835C15.9085 0.0676307 15.7097 0.0590758 15.5029 0.0518935C15.2961 0.0446923 15.0762 0.0356674 15.0141 0.0318317C14.9521 0.0279961 14.1626 0.0192532 13.2597 0.0124281L11.618 0L11.6291 0.242527ZM0.00869968 13.1147C0.0266723 15.3293 0.0705886 16.31 0.201059 17.4116C0.451867 19.5292 1.02325 20.8737 1.98589 21.6115C2.31385 21.8628 2.81951 22.1381 3.2369 22.2925C4.10182 22.6125 5.21678 22.8111 6.67643 22.9053C7.20557 22.9395 7.27658 22.943 7.66342 22.9545C7.87022 22.9607 8.10287 22.969 8.18042 22.9731C8.25797 22.9772 9.01327 22.9864 9.85884 22.9935C11.1762 23.0045 11.395 23.0026 11.3873 22.9799C11.3824 22.9653 11.3693 22.6658 11.3582 22.3142C11.2584 19.1494 11.124 17.7236 10.8112 16.5138C10.6191 15.7705 10.3509 15.1456 9.98567 14.5897C9.18083 13.3647 8.01443 12.5748 6.41384 12.1707C5.25292 11.8775 3.76884 11.7407 0.698106 11.6438C0.341381 11.6325 0.0375761 11.6193 0.0229687 11.6143C0.000202185 11.6066 -0.00182819 11.8194 0.00869968 13.1147ZM22.44 11.6382C20.6979 11.7002 20.0021 11.7328 19.2911 11.7855C16.6612 11.9804 15.2308 12.425 14.0569 13.4121C13.0649 14.2462 12.425 15.3851 12.1027 16.8899C11.8477 18.0809 11.7434 19.3323 11.6402 22.4412C11.6307 22.7282 11.6169 22.9728 11.6095 22.9847C11.5994 23.001 11.9724 23.0032 13.1265 22.9935C13.9682 22.9864 14.7288 22.9772 14.8167 22.9731C14.9046 22.969 15.15 22.9603 15.3619 22.9538C15.5739 22.9473 15.7896 22.9387 15.8413 22.9345C15.893 22.9304 16.0411 22.9219 16.1703 22.9157C17.7658 22.8389 19.1764 22.5657 20.098 22.155C21.3874 21.5804 22.1027 20.6452 22.5217 18.9862C22.7323 18.152 22.8242 17.4589 22.928 15.9215C22.9329 15.8491 22.9419 15.6376 22.9481 15.4514C22.9543 15.2653 22.9635 15.058 22.9684 14.9908C22.9734 14.9236 22.9825 14.1388 22.9887 13.2469L23 11.6252L22.7952 11.629C22.6826 11.6311 22.5228 11.6352 22.44 11.6382Z" fill="#213030"/>
</svg>
