<svg width="90" height="90" viewBox="0 0 90 90" fill="none" xmlns="http://www.w3.org/2000/svg">
<g filter="url(#filter0_b_360_4979)">
<circle cx="45" cy="45" r="45" fill="#F5F6F8"/>
</g>
<path d="M28.3716 33.9826L24.3051 36.5746C23.9444 36.8063 23.6304 37.0747 23.3675 37.3756L28.3715 41.478L28.3716 33.9826ZM45 37.1824C45.6054 37.1824 46.1537 36.9364 46.5492 36.542C46.9446 36.1476 47.1912 35.6007 47.1912 34.9969C47.1912 34.3931 46.9446 33.8463 46.5492 33.4519C46.1537 33.0555 45.6054 32.8115 45 32.8115C44.3946 32.8115 43.8464 33.0555 43.4509 33.4519C43.0554 33.8463 42.8088 34.3931 42.8088 34.9969C42.8088 35.6007 43.0554 36.1476 43.4509 36.542C43.8463 36.9364 44.3946 37.1824 45 37.1824ZM48.2429 38.2313C47.4113 39.0608 46.2658 39.5731 45 39.5731C43.7343 39.5731 42.5867 39.0608 41.7571 38.2313C40.9275 37.404 40.4139 36.2594 40.4139 34.997C40.4139 33.7346 40.9275 32.59 41.7571 31.7626C42.5867 30.9353 43.7343 30.423 45 30.423C45.9438 30.423 46.8202 30.7076 47.5499 31.1935C47.766 30.982 48.0636 30.8519 48.3897 30.8519C49.0522 30.8519 49.5883 31.3866 49.5883 32.0473V34.9991C49.5883 35.3955 49.7534 35.7574 50.0163 36.0216L50.0122 36.0257C50.2772 36.2859 50.64 36.4486 51.0396 36.4486C51.437 36.4486 51.7998 36.2859 52.0648 36.0216C52.3298 35.7574 52.4929 35.3975 52.4929 34.9991C52.4929 32.9357 51.6531 31.0654 50.2976 29.7136C48.9421 28.3617 47.0689 27.5242 44.9981 27.5242C42.9293 27.5242 41.054 28.3618 39.6987 29.7136C38.3432 31.0656 37.5034 32.9338 37.5034 34.9991C37.5034 37.0625 38.3432 38.9328 39.6987 40.2846C41.0542 41.6365 42.9273 42.474 44.9981 42.474C47.067 42.474 48.9423 41.6385 50.2976 40.2846C50.7379 39.8455 51.1211 39.3535 51.4411 38.8188C51.3086 38.8331 51.1741 38.8392 51.0396 38.8392C50.0877 38.8392 49.2132 38.4895 48.5385 37.9122C48.4448 38.024 48.3469 38.1338 48.243 38.2374L48.2429 38.2313ZM51.9914 41.9699C50.2018 43.7548 47.7293 44.8587 44.9981 44.8587C42.2688 44.8587 39.7943 43.7548 38.0049 41.9699C36.2152 40.185 35.1064 37.719 35.1064 34.9951C35.1064 32.273 36.2132 29.8051 38.0049 28.0204C39.7945 26.2354 42.267 25.1316 44.9981 25.1316C47.7275 25.1316 50.202 26.2354 51.9914 28.0204C53.781 29.8053 54.8899 32.2712 54.8899 34.9951C54.8899 37.7172 53.7831 40.1852 51.9914 41.9699ZM30.7664 43.4417L40.5096 51.4313L40.852 51.1508C42.0709 50.1506 43.5344 49.6525 44.9979 49.6525C46.4614 49.6525 47.927 50.1526 49.1438 51.1508L49.4863 51.4313L59.2294 43.4417V25.2351C59.2294 24.1759 58.7953 23.2164 58.0982 22.5191C57.399 21.8218 56.4369 21.3908 55.375 21.3908H34.619C33.5591 21.3908 32.595 21.8238 31.8958 22.5191C31.1967 23.2163 30.7645 24.1759 30.7645 25.2351V43.4417H30.7664ZM61.6287 41.4759L66.6327 37.3735C66.3697 37.0726 66.0558 36.8042 65.6951 36.5725L61.6286 33.9805L61.6287 41.4759ZM61.6287 31.1548L66.9772 34.564C67.9393 35.1779 68.6955 35.981 69.2091 36.9161C69.2336 36.9608 69.256 37.0055 69.2805 37.0482L69.2825 37.0523L69.2968 37.0787C69.7574 37.9773 70 38.9836 70 40.0528V63.4804C70 65.2755 69.2662 66.9058 68.0819 68.087C66.8977 69.2681 65.265 70 63.4631 70H26.5369C24.7371 70 23.1024 69.2682 21.9181 68.087C20.7338 66.9059 20 65.2775 20 63.4804V40.0528C20 38.9856 20.2426 37.9772 20.7032 37.0787L20.7175 37.0523L20.7195 37.0482C20.744 37.0035 20.7664 36.9588 20.7909 36.9161C21.3066 35.9789 22.0587 35.1759 23.0228 34.564L28.3713 31.1548V25.2349C28.3713 23.5171 29.0725 21.9599 30.2058 20.8296C31.3371 19.7013 32.9025 19 34.6228 19H55.3787C57.1011 19 58.6625 19.6994 59.7957 20.8296C60.927 21.9579 61.6302 23.5172 61.6302 25.2349V31.1548H61.6287ZM28.8915 44.9846C28.8344 44.946 28.7814 44.9013 28.7325 44.8545L22.414 39.6726C22.4038 39.7966 22.3976 39.9247 22.3976 40.0528V63.4803C22.3976 64.3077 22.6443 65.0802 23.0683 65.7287L38.6286 52.972L28.8896 44.9866L28.8915 44.9846ZM61.266 44.8545C61.2171 44.9033 61.1641 44.946 61.107 44.9846L51.368 52.9701L66.9283 65.7268C67.3523 65.0783 67.5989 64.3078 67.5989 63.4784V40.0508C67.5989 39.9227 67.5928 39.7967 67.5826 39.6707L61.2641 44.8526L61.266 44.8545ZM41.2844 53.8766L41.2498 53.9051L24.9329 67.2837C25.4261 67.4911 25.9683 67.607 26.535 67.607H63.4612C64.0299 67.607 64.5721 67.4911 65.0633 67.2837L48.7464 53.9051L48.7117 53.8766L47.6294 52.9883C46.8569 52.3561 45.9295 52.0409 44.9979 52.0409C44.0685 52.0409 43.139 52.3581 42.3664 52.9883L41.2844 53.8766Z" fill="#1D1D1D"/>
<defs>
<filter id="filter0_b_360_4979" x="-10" y="-10" width="110" height="110" filterUnits="userSpaceOnUse" color-interpolation-filters="sRGB">
<feFlood flood-opacity="0" result="BackgroundImageFix"/>
<feGaussianBlur in="BackgroundImageFix" stdDeviation="5"/>
<feComposite in2="SourceAlpha" operator="in" result="effect1_backgroundBlur_360_4979"/>
<feBlend mode="normal" in="SourceGraphic" in2="effect1_backgroundBlur_360_4979" result="shape"/>
</filter>
</defs>
</svg>
