<svg width="21" height="21" viewBox="0 0 21 21" fill="none" xmlns="http://www.w3.org/2000/svg">
<path d="M10.4997 14.2884C8.40844 14.2884 6.71094 12.5909 6.71094 10.4997C6.71094 8.40844 8.40844 6.71094 10.4997 6.71094C12.5909 6.71094 14.2884 8.40844 14.2884 10.4997C14.2884 12.5909 12.5909 14.2884 10.4997 14.2884ZM10.4997 8.02344C9.13469 8.02344 8.02344 9.13469 8.02344 10.4997C8.02344 11.8647 9.13469 12.9759 10.4997 12.9759C11.8647 12.9759 12.9759 11.8647 12.9759 10.4997C12.9759 9.13469 11.8647 8.02344 10.4997 8.02344Z" fill="#00A48A"/>
<path d="M10.5003 18.3944C7.21031 18.3944 4.10406 16.4694 1.96906 13.1269C1.04156 11.6831 1.04156 9.32937 1.96906 7.87687C4.11281 4.53438 7.21906 2.60938 10.5003 2.60938C13.7816 2.60938 16.8878 4.53438 19.0228 7.87687C19.9503 9.32062 19.9503 11.6744 19.0228 13.1269C16.8878 16.4694 13.7816 18.3944 10.5003 18.3944ZM10.5003 3.92188C7.67406 3.92188 4.97031 5.61938 3.08031 8.58563C2.42406 9.60938 2.42406 11.3944 3.08031 12.4181C4.97031 15.3844 7.67406 17.0819 10.5003 17.0819C13.3266 17.0819 16.0303 15.3844 17.9203 12.4181C18.5766 11.3944 18.5766 9.60938 17.9203 8.58563C16.0303 5.61938 13.3266 3.92188 10.5003 3.92188Z" fill="#00A48A"/>
</svg>
