<svg width="24" height="26" viewBox="0 0 24 26" fill="none" xmlns="http://www.w3.org/2000/svg">
<path d="M13.8818 1.74493C13.8324 1.7683 13.787 1.80025 13.7475 1.83948L2.06098 14.1823C0.915642 15.353 0.243118 16.9456 0.18395 18.6275C0.124781 20.3094 0.683547 21.9503 1.74348 23.2074C2.2986 23.8539 2.97324 24.3735 3.72581 24.7342C4.47839 25.0949 5.29296 25.289 6.11931 25.3047H6.26992C7.07098 25.3072 7.86454 25.1418 8.60453 24.8179C9.34453 24.494 10.0162 24.0182 10.5806 23.418L22.3852 10.9548C22.422 10.9162 22.4498 10.8691 22.4666 10.8173C23.4192 9.57992 23.9037 8.01371 23.8264 6.42123C23.7491 4.82876 23.1155 3.32304 22.0481 2.19498C20.9807 1.06692 19.5551 0.396579 18.0469 0.313458C16.5386 0.230337 15.0547 0.74034 13.8818 1.74493ZM20.4598 9.34318L12.1804 18.0846L12.1356 18.1276C11.8144 18.4459 11.3964 18.6331 10.9565 18.656C10.5165 18.6788 10.0832 18.5357 9.73396 18.2522C9.544 18.09 9.38749 17.8884 9.27405 17.66C9.16062 17.4315 9.09266 17.1809 9.07436 16.9237C9.05605 16.6664 9.0878 16.408 9.16763 16.1642C9.24746 15.9204 9.3737 15.6964 9.53857 15.506L16.3852 8.26877C16.6141 8.02656 16.7425 7.69828 16.7421 7.35615C16.7417 7.01401 16.6126 6.68605 16.3832 6.44442C16.1538 6.20278 15.8428 6.06725 15.5188 6.06765C15.1947 6.06806 14.8841 6.20436 14.6552 6.44656L7.73532 13.7526C7.71047 13.779 7.68985 13.8094 7.67426 13.8428C6.96504 14.6958 6.5901 15.8019 6.62563 16.9363C6.66117 18.0706 7.10453 19.1482 7.86558 19.9498C8.30548 20.4146 8.83614 20.7724 9.42052 20.9984L8.95241 21.4926C8.29495 22.2033 7.40845 22.6269 6.46889 22.6794C5.52932 22.732 4.6054 22.4096 3.88051 21.7763C3.49955 21.4297 3.19127 21.003 2.97539 20.5235C2.75951 20.044 2.64078 19.5221 2.62679 18.9914C2.60914 18.462 2.69469 17.9343 2.87815 17.4412C3.0616 16.9481 3.33904 16.5001 3.69327 16.1249L15.2536 3.91955L15.4042 3.78202C16.072 3.17493 16.9246 2.84231 17.8058 2.84513C17.95 2.84516 18.0941 2.85377 18.2373 2.87092C18.7451 2.93183 19.235 3.10536 19.6748 3.38014C20.1147 3.65491 20.4946 4.02473 20.7896 4.46535C21.2566 5.20119 21.4778 6.08051 21.4181 6.96404C21.3583 7.84758 21.0211 8.68482 20.4598 9.34318Z" fill="#232323"/>
</svg>
