<svg width="18" height="18" viewBox="0 0 18 18" fill="none" xmlns="http://www.w3.org/2000/svg">
<circle cx="9" cy="9" r="9" fill="#CC4B4C"/>
<path d="M8.9 9.68L8.66 5H10.14L9.89 9.68H8.9ZM9.4 12.07C9.16667 12.07 8.97333 11.9933 8.82 11.84C8.66667 11.6867 8.59 11.5033 8.59 11.29C8.59 11.0767 8.66667 10.8967 8.82 10.75C8.97333 10.5967 9.16667 10.52 9.4 10.52C9.63333 10.52 9.82333 10.5967 9.97 10.75C10.1167 10.8967 10.19 11.0767 10.19 11.29C10.19 11.5033 10.1167 11.6867 9.97 11.84C9.82333 11.9933 9.63333 12.07 9.4 12.07Z" fill="white"/>
</svg>
