<svg width="18" height="18" viewBox="0 0 18 18" fill="none" xmlns="http://www.w3.org/2000/svg">
<circle cx="9" cy="9" r="9" fill="#1CAB98"/>
<path d="M8.22 10.68C8.22 10.4333 8.26 10.2167 8.34 10.03C8.42 9.84333 8.52333 9.67667 8.65 9.53C8.77667 9.38333 8.91 9.24667 9.05 9.12C9.19667 8.99333 9.33333 8.87 9.46 8.75C9.58667 8.63 9.69 8.50333 9.77 8.37C9.85 8.23667 9.89 8.08667 9.89 7.92C9.89 7.64 9.77667 7.41333 9.55 7.24C9.32333 7.06667 9.02 6.98 8.64 6.98C8.27333 6.98 7.95333 7.04667 7.68 7.18C7.41333 7.31333 7.19 7.50333 7.01 7.75L6.04 7.12C6.32 6.74 6.68667 6.44333 7.14 6.23C7.59333 6.01 8.13 5.9 8.75 5.9C9.23667 5.9 9.66333 5.97333 10.03 6.12C10.3967 6.26 10.6833 6.46667 10.89 6.74C11.0967 7.00667 11.2 7.33333 11.2 7.72C11.2 7.98667 11.1567 8.22 11.07 8.42C10.99 8.62 10.8833 8.79667 10.75 8.95C10.6233 9.09667 10.4867 9.23667 10.34 9.37C10.1933 9.49667 10.0533 9.62333 9.92 9.75C9.79333 9.87667 9.69 10.0133 9.61 10.16C9.53 10.3067 9.49 10.48 9.49 10.68H8.22ZM8.86 13.07C8.62667 13.07 8.43333 12.9933 8.28 12.84C8.13333 12.6867 8.06 12.5033 8.06 12.29C8.06 12.0767 8.13333 11.8967 8.28 11.75C8.43333 11.5967 8.62667 11.52 8.86 11.52C9.09333 11.52 9.28333 11.5967 9.43 11.75C9.57667 11.8967 9.65 12.0767 9.65 12.29C9.65 12.5033 9.57667 12.6867 9.43 12.84C9.28333 12.9933 9.09333 13.07 8.86 13.07Z" fill="white"/>
</svg>
