<svg width="23" height="23" viewBox="0 0 23 23" fill="none" xmlns="http://www.w3.org/2000/svg">
<path fill-rule="evenodd" clip-rule="evenodd" d="M0 8.62587C0 13.3891 3.87368 17.2503 8.71579 17.2503C10.6526 17.2503 12.4511 16.5756 13.9729 15.4423C13.9729 15.5587 14.1113 15.6668 14.1113 15.7637L21.0286 22.6633C21.4436 23.1122 22.2737 23.1122 22.6887 22.6633C23.1038 22.2144 23.1038 21.4857 22.6887 21.0368L15.7714 14.1372C15.6331 14.0402 15.6331 13.9654 15.4947 13.91C16.6015 12.4497 17.2932 10.6168 17.2932 8.62587C17.2932 3.86127 13.4195 0 8.71579 0C3.87368 0 0 3.86127 0 8.62587ZM2.35443 8.62495C2.35443 5.13082 5.12135 2.29894 8.71834 2.29894C12.177 2.29894 14.9439 5.13082 14.9439 8.62495C14.9439 12.1177 12.177 14.9496 8.71834 14.9496C5.12135 14.9496 2.35443 12.1177 2.35443 8.62495Z" fill="#504D50"/>
</svg>
