<svg width="150" height="150" viewBox="0 0 150 150" fill="none" xmlns="http://www.w3.org/2000/svg">
<g clip-path="url(#clip0_379_1929)">
<path d="M75 150C116.421 150 150 116.421 150 75C150 33.5786 116.421 0 75 0C33.5786 0 0 33.5786 0 75C0 116.421 33.5786 150 75 150Z" fill="#00A48A"/>
<mask id="mask0_379_1929" style="mask-type:luminance" maskUnits="userSpaceOnUse" x="37" y="37" width="76" height="76">
<path d="M112.5 37.5H37.5V112.5H112.5V37.5Z" fill="white"/>
</mask>
<g mask="url(#mask0_379_1929)">
<path d="M105.234 43.9854C105.226 42.5583 103.491 41.845 102.481 42.8514L99.1087 46.2231C86.3678 35.1967 66.1396 34.5274 52.7422 44.7642H58.7378C71.1155 37.8892 87.7307 39.9055 98.0951 49.6227C98.4038 49.9041 98.7932 50.0439 99.182 50.0439C99.5957 50.0439 100.009 49.8856 100.323 49.5714L102.008 47.8861V61.4607H88.4336L90.9247 58.9696C91.5826 58.3389 91.5407 57.1873 90.8372 56.6071C83.7965 50.4139 73.1222 48.9597 64.6853 53.0268V56.6529C71.6509 52.6311 80.9147 53.176 87.3637 57.9681C87.3577 57.9748 83.3975 61.9329 83.3927 61.9398C82.3834 62.8935 83.1517 64.7332 84.5393 64.6869H103.621C104.512 64.6869 105.234 63.9646 105.234 63.0738C105.235 63.0672 105.234 43.9914 105.234 43.9854Z" fill="white"/>
<path d="M103.776 99.1087C114.803 86.3678 115.472 66.1396 105.235 52.7422V58.7362C112.11 71.114 110.094 87.7304 100.377 98.0951C99.7959 98.7322 99.8184 99.7132 100.428 100.323L102.113 102.008H88.5386V88.4336L91.0296 90.9247C91.6605 91.5823 92.8119 91.5407 93.3923 90.8372C99.5855 83.7964 101.04 73.1218 96.9711 64.6853H93.3422C97.3682 71.6501 96.824 80.914 92.0312 87.3637L88.0662 83.3987C87.0659 82.39 85.3067 83.1103 85.3125 84.5393V103.621C85.3125 104.512 86.0348 105.234 86.9256 105.234H106.008C107.434 105.239 108.159 103.485 107.148 102.481L103.776 99.1087Z" fill="white"/>
<path d="M75.0021 109.314C66.4257 109.314 58.223 106.14 51.9053 100.377C51.2685 99.7961 50.2872 99.8186 49.6776 100.428L47.9924 102.113V88.5387H61.5669L59.0759 91.0298C58.4181 91.6604 58.4598 92.8121 59.1635 93.3923C66.2042 99.5855 76.8789 101.04 85.3152 96.9708V93.3464C78.3498 97.368 69.086 96.8231 62.637 92.0312L66.602 88.0662C67.6107 87.066 66.8904 85.3067 65.4614 85.3125H46.3796C45.4887 85.3125 44.7665 86.0348 44.7665 86.9256V106.008C44.7201 107.402 46.5672 108.166 47.5202 107.148L50.8919 103.776C63.6329 114.803 83.8611 115.472 97.2585 105.235H91.2608C86.3064 107.915 80.7735 109.314 75.0021 109.314Z" fill="white"/>
<path d="M40.6854 74.9984C40.6854 66.4218 43.8594 58.2192 49.6224 51.9015C50.2035 51.2646 50.181 50.2835 49.5714 49.6739L47.8861 47.9885H61.4607V61.563L58.9696 59.072C58.3395 58.4145 57.187 58.4558 56.6071 59.1596C50.4141 66.2001 48.9597 76.8744 53.0265 85.3113H56.6563C52.6312 78.3464 53.1754 69.0825 57.9682 62.633L61.9332 66.5979C62.9332 67.6068 64.6929 66.8864 64.6869 65.4575V46.3755C64.6869 45.4847 63.9646 44.7626 63.0738 44.7626H43.992C42.5977 44.7161 41.8329 46.5635 42.8514 47.5161L46.2231 50.888C35.1967 63.629 34.5274 83.8572 44.7642 97.2543V91.2594C42.084 86.3046 40.6854 80.7707 40.6854 74.9984Z" fill="white"/>
<path d="M79.1479 74.3215C79.7974 73.4586 80.1831 72.3862 80.1831 71.2254C80.1831 68.3806 77.8687 66.0664 75.024 66.0664C72.1792 66.0664 69.865 68.3806 69.865 71.2254C69.865 72.3864 70.2506 73.4586 70.9001 74.3215C68.6192 75.7158 67.0938 78.2293 67.0938 81.0925V82.3689C67.0938 83.2588 67.8151 83.9802 68.705 83.9802H81.343C82.2328 83.9802 82.9543 83.2588 82.9543 82.3689V81.0925C82.9543 78.2293 81.4286 75.7158 79.1479 74.3215ZM75.024 69.2889C76.0917 69.2889 76.9605 70.1575 76.9605 71.2252C76.9605 72.2929 76.0917 73.1616 75.024 73.1616C73.9563 73.1616 73.0876 72.2929 73.0876 71.2252C73.0876 70.1575 73.9563 69.2889 75.024 69.2889ZM70.3281 80.7576C70.5007 78.3175 72.5407 76.3849 75.0241 76.3849C77.5073 76.3849 79.5475 78.3175 79.72 80.7576H70.3281Z" fill="white"/>
</g>
</g>
<defs>
<clipPath id="clip0_379_1929">
<rect width="150" height="150" fill="white"/>
</clipPath>
</defs>
</svg>
