<svg width="27" height="23" viewBox="0 0 27 23" fill="none" xmlns="http://www.w3.org/2000/svg">
<path d="M0.403306 11.0398L5.69112 13.3002L7.75245 20.9031C7.84208 21.4168 8.37982 21.5195 8.73832 21.2113L11.6959 18.4373C11.9648 18.129 12.4129 18.129 12.7714 18.4373L18.0592 22.8552C18.4177 23.1634 18.9554 22.9579 19.045 22.4442L22.9885 0.868327C23.0781 0.354615 22.63 -0.159092 22.1819 0.0463928L0.403306 9.70417C-0.134435 9.90966 -0.134435 10.8343 0.403306 11.0398ZM7.48359 12.17L17.8799 4.87528C18.0592 4.77254 18.2384 5.08077 18.0592 5.18351L9.54492 14.3276C9.27605 14.6358 9.00718 15.0468 9.00718 15.5605L8.73832 18.0263C8.73832 18.3345 8.29019 18.4373 8.20057 18.0263L7.12508 13.5056C6.85621 12.9919 7.03547 12.3755 7.48359 12.17Z" fill="white"/>
</svg>
