<svg width="30" height="30" viewBox="0 0 30 30" fill="none" xmlns="http://www.w3.org/2000/svg">
<path d="M15.4553 0.36585C15.2421 0.13275 14.9409 0 14.625 0C14.3091 0 14.0079 0.13275 13.7948 0.36585L7.79473 6.92835C7.37548 7.3869 7.40734 8.0985 7.86589 8.51775C8.32445 8.937 9.03604 8.9052 9.45529 8.44665L13.5 4.0227V20.625C13.5 21.2463 14.0037 21.75 14.625 21.75C15.2463 21.75 15.75 21.2463 15.75 20.625V4.0227L19.7948 8.44665C20.214 8.9052 20.9256 8.937 21.3842 8.51775C21.8427 8.0985 21.8745 7.3869 21.4553 6.92835L15.4553 0.36585Z" fill="#005D62"/>
<path d="M2.25 19.125C2.25 18.5037 1.74633 18 1.125 18C0.503686 18 7.85929e-07 18.5037 7.85929e-07 19.125V19.2074C-2.92141e-05 21.2587 -5.93215e-05 22.9122 0.174781 24.2127C0.356311 25.5628 0.744646 26.6995 1.64753 27.6024C2.55041 28.5054 3.68721 28.8937 5.03738 29.0752C6.33783 29.25 7.99131 29.25 10.0427 29.25H19.2074C21.2588 29.25 22.9122 29.25 24.2127 29.0752C25.5628 28.8937 26.6995 28.5054 27.6025 27.6024C28.5054 26.6995 28.8937 25.5628 29.0752 24.2127C29.25 22.9122 29.25 21.2587 29.25 19.2074V19.125C29.25 18.5037 28.7463 18 28.125 18C27.5037 18 27 18.5037 27 19.125C27 21.2781 26.9976 22.7797 26.8454 23.9128C26.6973 25.0135 26.4267 25.5963 26.0115 26.0115C25.5963 26.4267 25.0136 26.6973 23.9129 26.8453C22.7798 26.9976 21.2781 27 19.125 27H10.125C7.97189 27 6.47021 26.9976 5.33718 26.8453C4.23653 26.6973 3.65366 26.4267 3.23852 26.0115C2.82338 25.5963 2.5527 25.0135 2.40473 23.9128C2.25239 22.7797 2.25 21.2781 2.25 19.125Z" fill="#005D62"/>
</svg>
