<svg width="31" height="21" viewBox="0 0 31 21" fill="none" xmlns="http://www.w3.org/2000/svg">
<path d="M30.7121 18.8425C30.7121 18.6986 30.5887 18.6986 30.5887 18.5548C30.0953 17.4041 28.9853 15.9658 27.5052 14.3836C26.7651 13.6644 26.3951 13.089 26.1484 12.8014C25.7784 12.226 25.7784 11.7945 25.9017 11.2192C26.0251 10.7877 26.5184 10.0685 27.3818 8.77396C27.8752 8.05479 28.1219 7.62329 28.4919 7.19179C30.342 4.31507 31.2054 2.44519 30.9587 1.58218L30.8354 1.43836C30.7121 1.29452 30.5887 1.15069 30.342 1.15069C30.0953 1.00685 29.7253 1.00685 29.3553 1.15069H24.6683C24.545 1.15069 24.545 1.15069 24.2983 1.15069C24.1749 1.15069 24.0516 1.15069 24.0516 1.15069H23.9283H23.8049L23.6816 1.29451C23.5582 1.43835 23.5582 1.43834 23.5582 1.58218C23.0649 3.16437 22.4482 4.45889 21.8314 5.89725C21.4614 6.61643 21.0914 7.33562 20.7214 7.91096C20.3514 8.48631 20.1047 8.91781 19.858 9.20548C19.6113 9.49315 19.3646 9.63698 19.2413 9.92465C19.1179 10.0685 18.8713 10.2123 18.8713 10.0685C18.7479 10.0685 18.6246 10.0685 18.6246 9.92465C18.5012 9.78082 18.3779 9.63698 18.2546 9.49314C18.1312 9.34931 18.1312 9.06164 18.0079 8.77396C18.0079 8.48629 18.0079 8.19862 18.0079 8.05479C18.0079 7.91095 18.0079 7.47946 18.0079 7.19179C18.0079 6.76028 18.0079 6.4726 18.0079 6.32876C18.0079 5.89726 18.0079 5.32193 18.0079 4.74658C18.0079 4.17124 18.0079 3.73972 18.0079 3.45205C18.0079 3.16438 18.0079 2.73287 18.0079 2.4452C18.0079 2.0137 18.0079 1.72602 18.0079 1.58218C18.0079 1.43834 17.8845 1.15068 17.8845 1.00685C17.7612 0.86301 17.6378 0.71917 17.5145 0.575334C17.3912 0.431498 17.1445 0.431503 17.0211 0.287667C16.4044 0.143831 15.6644 0 14.801 0C12.8275 0 11.4708 0.14384 10.9774 0.431512C10.7307 0.575347 10.484 0.719174 10.3607 1.00685C10.114 1.29452 10.114 1.43836 10.2374 1.43836C10.8541 1.58219 11.3474 1.86985 11.5941 2.30136L11.7175 2.58905C11.8408 2.73288 11.8408 3.02054 11.9641 3.45205C12.0875 3.88356 12.0875 4.31506 12.0875 4.89041C12.0875 5.75342 12.0875 6.61644 12.0875 7.19179C12.0875 7.91096 11.9641 8.34246 11.9641 8.77396C11.9641 9.20547 11.8408 9.49315 11.7175 9.63699C11.5941 9.92466 11.5941 10.0685 11.4708 10.0685C11.4708 10.0685 11.4708 10.2123 11.3474 10.2123C11.2241 10.2123 11.1007 10.3562 10.8541 10.3562C10.7307 10.3562 10.484 10.2123 10.3607 10.0685C10.114 9.92466 9.86733 9.63699 9.74399 9.34932C9.49731 9.06165 9.25062 8.63013 9.00394 8.05479C8.75725 7.47944 8.38721 6.90411 8.14053 6.0411L7.89387 5.46576C7.77053 5.17809 7.52385 4.60274 7.27716 3.88356C7.03048 3.16438 6.78379 2.58905 6.53711 1.86987C6.41376 1.5822 6.29044 1.43835 6.1671 1.29451H6.04375C6.04375 1.29451 5.92039 1.15069 5.79705 1.15069C5.67371 1.15069 5.55038 1.00685 5.42704 1.00685H0.986736C0.49337 1.00685 0.246691 1.15068 0.123349 1.29451L0 1.43836C0 1.43836 0 1.58219 0 1.72602C0 1.86986 7.52633e-06 2.01369 0.123349 2.30136C0.740057 4.02739 1.4801 5.75342 2.22015 7.47945C2.9602 9.06165 3.70026 10.5 4.19362 11.5069C4.81033 12.5137 5.30369 13.5206 5.9204 14.3836C6.53711 15.2466 6.90712 15.8219 7.03046 16.1096C7.27715 16.3973 7.40048 16.5411 7.52382 16.6849L7.89387 17.1164C8.14055 17.4041 8.51057 17.8356 9.00394 18.2671C9.4973 18.6986 10.114 19.1301 10.7307 19.5616C11.3474 19.9932 12.0875 20.2808 12.8275 20.5685C13.6909 20.8562 14.431 21 15.171 20.8562H17.0211C17.3912 20.8562 17.6379 20.7123 17.8845 20.4247L18.0079 20.2808C18.0079 20.137 18.1312 20.137 18.1312 19.9932C18.1312 19.8493 18.1312 19.7055 18.1312 19.4178C18.1312 18.8425 18.1312 18.411 18.2546 17.9795C18.3779 17.548 18.3779 17.2603 18.5012 16.9726C18.6246 16.6849 18.7479 16.5411 18.8713 16.3973C18.9946 16.2534 19.118 16.1096 19.118 16.1096H19.2413C19.488 15.9658 19.858 16.1096 20.1047 16.3973C20.4747 16.6849 20.8447 17.1164 21.0914 17.548C21.3381 17.9795 21.7081 18.411 22.2015 18.9863C22.6949 19.5617 23.0649 19.9932 23.3116 20.137L23.6816 20.4247C23.9283 20.5685 24.175 20.7123 24.545 20.8562C24.915 21 25.1617 21 25.4083 21L29.602 20.8562C29.972 20.8562 30.342 20.7123 30.5887 20.5685C30.8354 20.4247 30.9587 20.2808 30.9587 19.9932C30.9587 19.8493 30.9587 19.5617 30.9587 19.4178C30.712 19.1301 30.7121 18.9863 30.7121 18.8425Z" fill="#213030"/>
</svg>
