<svg width="23" height="23" fill="none" xmlns="http://www.w3.org/2000/svg"><path fill-rule="evenodd" clip-rule="evenodd" d="M8.721.015c-.003.003-.276.01-.606.018a27.97 27.97 0 00-2.097.113c-.633.05-1.418.177-1.99.32-1.336.336-2.229.892-2.794 1.74C.565 3.212.21 4.698.078 7.039.02 8.07-.027 11.42.018 11.392c.011-.007.264-.02.562-.03 2.973-.1 4.243-.202 5.382-.432 1.191-.242 2.059-.615 2.83-1.218 1.133-.886 1.82-2.104 2.151-3.807.23-1.187.322-2.373.426-5.52l.013-.382-1.328.004c-.73.002-1.33.006-1.333.008zm2.908.228c.006.133.02.509.03.834.112 3.498.32 5.07.84 6.346.628 1.544 1.842 2.676 3.455 3.221 1.258.426 2.83.604 6.242.708.186.006.443.015.571.022l.233.01-.011-1.623c-.006-.893-.015-1.674-.02-1.736a17.487 17.487 0 01-.021-.48 14.867 14.867 0 00-.038-.733c-.027-.52-.093-1.17-.171-1.702-.257-1.737-.788-2.939-1.6-3.62-.648-.542-1.5-.906-2.656-1.135A15.508 15.508 0 0016.78.128a10.017 10.017 0 00-.536-.039l-.3-.018a17.565 17.565 0 00-.442-.02 29.5 29.5 0 01-.489-.02c-.061-.002-.85-.011-1.753-.018L11.618 0l.011.243zM.01 13.115c.017 2.214.06 3.195.19 4.297.25 2.117.822 3.462 1.785 4.2.328.25.834.526 1.25.68.866.32 1.98.52 3.44.613.53.034.6.038.987.05.207.006.44.014.517.018.078.004.833.013 1.679.02 1.317.012 1.536.01 1.528-.013a14.869 14.869 0 01-.029-.666c-.1-3.165-.234-4.59-.547-5.8-.192-.743-.46-1.368-.825-1.924-.805-1.225-1.972-2.015-3.572-2.42-1.161-.293-2.645-.43-5.716-.526a15.08 15.08 0 01-.675-.03c-.023-.007-.025.205-.014 1.5zm22.431-1.477c-1.742.062-2.438.095-3.149.148-2.63.194-4.06.639-5.234 1.626-.992.834-1.632 1.973-1.954 3.478-.255 1.19-.36 2.442-.463 5.551a6.31 6.31 0 01-.03.544c-.01.016.362.018 1.517.009.841-.008 1.602-.017 1.69-.02.088-.005.333-.014.545-.02a17.33 17.33 0 00.808-.038c1.596-.077 3.006-.35 3.928-.761 1.29-.575 2.005-1.51 2.424-3.169.21-.834.302-1.527.406-3.065.005-.072.014-.283.02-.47.006-.186.015-.393.02-.46.005-.067.015-.852.02-1.744L23 11.625l-.205.004c-.112.002-.272.006-.355.01z" fill="#213030"/></svg>