<svg width="90" height="90" fill="none" xmlns="http://www.w3.org/2000/svg"><g filter="url(#filter0_b_360_4979)"><circle cx="45" cy="45" r="45" fill="#F5F6F8"/></g><path d="M28.372 33.983l-4.067 2.592c-.36.231-.675.5-.938.8l5.005 4.103v-7.495zM45 37.183a2.19 2.19 0 002.191-2.186c0-.604-.246-1.15-.642-1.545a2.18 2.18 0 00-1.549-.64 2.18 2.18 0 00-1.55.64 2.177 2.177 0 000 3.09c.396.394.945.64 1.55.64zm3.243 1.048A4.576 4.576 0 0145 39.573a4.573 4.573 0 01-3.243-1.342 4.555 4.555 0 01-1.343-3.234A4.58 4.58 0 0145 30.423c.944 0 1.82.285 2.55.77a1.2 1.2 0 012.038.854V35c0 .396.165.758.428 1.023l-.004.004a1.45 1.45 0 002.053-.004A1.44 1.44 0 0052.493 35c0-2.063-.84-3.934-2.195-5.285a7.48 7.48 0 00-5.3-2.19 7.484 7.484 0 00-5.3 2.19A7.442 7.442 0 0037.503 35c0 2.063.84 3.934 2.196 5.286a7.48 7.48 0 005.3 2.189 7.476 7.476 0 005.299-2.19c.44-.438.823-.93 1.143-1.465a3.838 3.838 0 01-2.903-.907 4.929 4.929 0 01-.295.325v-.006zm3.748 3.739a9.872 9.872 0 01-6.993 2.889 9.875 9.875 0 01-6.993-2.89 9.821 9.821 0 01-2.899-6.974 9.816 9.816 0 012.899-6.975 9.871 9.871 0 016.993-2.888 9.874 9.874 0 016.993 2.888 9.822 9.822 0 012.899 6.975 9.816 9.816 0 01-2.899 6.975zm-21.225 1.472l9.744 7.99.342-.281a6.517 6.517 0 014.146-1.498c1.463 0 2.929.5 4.146 1.498l.342.28 9.743-7.99V25.236c0-1.06-.434-2.019-1.13-2.716a3.845 3.845 0 00-2.724-1.128H34.619c-1.06 0-2.024.433-2.723 1.128a3.824 3.824 0 00-1.131 2.716v18.207h.001zm30.863-1.966l5.004-4.102a4.392 4.392 0 00-.938-.802L61.63 33.98v7.496zm0-10.321l5.348 3.409a6.514 6.514 0 012.232 2.352c.025.045.047.09.072.132l.001.004.015.027c.46.898.703 1.905.703 2.974V63.48a6.492 6.492 0 01-1.918 4.607A6.522 6.522 0 0163.463 70H26.537c-1.8 0-3.435-.732-4.619-1.913A6.488 6.488 0 0120 63.48V40.053c0-1.067.243-2.076.703-2.974l.015-.027.002-.004c.024-.044.046-.09.07-.132a6.483 6.483 0 012.233-2.352l5.348-3.41v-5.92c0-1.717.702-3.274 1.835-4.404A6.246 6.246 0 0134.623 19h20.756c1.722 0 3.284.7 4.417 1.83a6.21 6.21 0 011.834 4.405v5.92h-.001zm-32.737 13.83a1.221 1.221 0 01-.16-.13l-6.318-5.182c-.01.124-.016.252-.016.38V63.48c0 .828.246 1.6.67 2.249l15.56-12.757-9.738-7.985.002-.002zm32.374-.13a1.077 1.077 0 01-.159.13l-9.739 7.985 15.56 12.757c.424-.649.67-1.42.67-2.249V40.051c0-.128-.005-.254-.015-.38l-6.319 5.182.002.002zm-19.982 9.022l-.034.028-16.317 13.379a4.127 4.127 0 001.602.323h36.926c.569 0 1.111-.116 1.602-.323L48.746 53.905l-.034-.028-1.083-.889a4.14 4.14 0 00-2.631-.947c-.93 0-1.859.317-2.632.947l-1.082.889z" fill="#1D1D1D"/><defs><filter id="filter0_b_360_4979" x="-10" y="-10" width="110" height="110" filterUnits="userSpaceOnUse" color-interpolation-filters="sRGB"><feFlood flood-opacity="0" result="BackgroundImageFix"/><feGaussianBlur in="BackgroundImageFix" stdDeviation="5"/><feComposite in2="SourceAlpha" operator="in" result="effect1_backgroundBlur_360_4979"/><feBlend in="SourceGraphic" in2="effect1_backgroundBlur_360_4979" result="shape"/></filter></defs></svg>