<svg xmlns="http://www.w3.org/2000/svg" viewBox="0 0 96 96" fill="#FFF" stroke-miterlimit="10" stroke-width="2"><path stroke="#979593" d="M67.172 7H27a2 2 0 00-2 2v78a2 2 0 002 2h58a2 2 0 002-2V26.828a2 2 0 00-.586-1.414L68.586 7.586A2 2 0 0067.172 7z"/><path fill="none" stroke="#979593" d="M67 7v18a2 2 0 002 2h18"/><path fill="#C8C6C4" d="M51 61H41v-2h10a1 1 0 110 2zm0-6H41v-2h10a1 1 0 110 2zm0-6H41v-2h10a1 1 0 110 2zm0-6H41v-2h10a1 1 0 110 2zm0 24H41v-2h10a1 1 0 110 2zm28-6H69a1 1 0 110-2h10a1 1 0 110 2zm0 6H69a1 1 0 110-2h10a1 1 0 110 2zm0-12H69a1 1 0 110-2h10a1 1 0 110 2zm0-6H69a1 1 0 110-2h10a1 1 0 110 2zm0-6H69a1 1 0 110-2h10a1 1 0 110 2zM65 61H55a1 1 0 110-2h10a1 1 0 110 2zm0 6H55a1 1 0 110-2h10a1 1 0 110 2zm0-12H55a1 1 0 110-2h10a1 1 0 110 2zm0-6H55a1 1 0 110-2h10a1 1 0 110 2zm0-6H55a1 1 0 110-2h10a1 1 0 110 2z"/><path fill="#107C41" d="M12 74h32a4 4 0 004-4V38a4 4 0 00-4-4H12a4 4 0 00-4 4v32a4 4 0 004 4z"/><path d="M16.95 66l7.884-12.034L17.612 42h5.812l3.942 7.649c.362.725.611 1.266.747 1.623h.051c.262-.58.533-1.143.816-1.69L33.194 42h5.335l-7.408 11.9L38.717 66H33.04l-4.554-8.402a6.949 6.949 0 01-.544-1.121h-.067c-.08.268-.255.63-.526 1.088L22.66 66h-5.71z"/></svg>