<svg width="18" height="18" fill="none" xmlns="http://www.w3.org/2000/svg"><circle cx="9" cy="9" r="9" fill="#1CAB98"/><path d="M8.22 10.68c0-.247.04-.463.12-.65a1.91 1.91 0 01.31-.5c.127-.147.26-.283.4-.41.147-.127.283-.25.41-.37s.23-.247.31-.38a.858.858 0 00.12-.45.816.816 0 00-.34-.68c-.227-.173-.53-.26-.91-.26-.367 0-.687.067-.96.2-.267.133-.49.323-.67.57l-.97-.63a2.84 2.84 0 011.1-.89c.453-.22.99-.33 1.61-.33.487 0 .913.073 1.28.22.367.14.653.347.86.62.207.267.31.593.31.98 0 .267-.043.5-.13.7-.08.2-.187.377-.32.53a4.864 4.864 0 01-.41.42c-.147.127-.287.253-.42.38-.127.127-.23.263-.31.41-.08.147-.12.32-.12.52H8.22zm.64 2.39a.768.768 0 01-.8-.78c0-.213.073-.393.22-.54a.786.786 0 01.58-.23c.233 0 .423.077.57.23.147.147.22.327.22.54a.768.768 0 01-.79.78z" fill="#fff"/></svg>