<svg width="49" height="63" fill="none" xmlns="http://www.w3.org/2000/svg"><path d="M34.296 0H1.646C.736 0 0 .737 0 2.167v59.708C0 62.263.737 63 1.646 63h45.083c.91 0 1.646-.737 1.646-1.125V14.6c0-.783-.105-1.035-.29-1.22L34.996.29a.994.994 0 00-.7-.29z" fill="#F9F9F9"/><path d="M34.875.172v13.33h13.33L34.875.172z" fill="#EAEAEA"/><path d="M14.639 37.487c-.391 0-.767-.127-1.088-.366-1.171-.879-1.329-1.857-1.254-2.523.204-1.831 2.47-3.748 6.733-5.701 1.692-3.708 3.302-8.277 4.261-12.094-1.122-2.443-2.214-5.614-1.418-7.473.279-.651.626-1.151 1.275-1.367a5.523 5.523 0 011.143-.193c.567 0 1.066.73 1.42 1.18.331.423 1.084 1.32-.42 7.652 1.516 3.132 3.665 6.322 5.724 8.507 1.474-.267 2.743-.403 3.777-.403 1.762 0 2.83.411 3.265 1.257.36.7.213 1.518-.439 2.43-.626.876-1.49 1.34-2.497 1.34-1.368 0-2.961-.864-4.738-2.57-3.191.666-6.918 1.857-9.931 3.174-.94 1.996-1.842 3.603-2.681 4.782-1.153 1.615-2.148 2.368-3.132 2.368zm2.995-5.766c-2.404 1.35-3.384 2.461-3.455 3.087-.011.103-.042.376.485.778.167-.053 1.146-.5 2.97-3.865zm15.341-4.997c.917.705 1.141 1.061 1.74 1.061.264 0 1.014-.01 1.362-.496.168-.235.233-.386.259-.466-.139-.074-.322-.222-1.322-.222-.568.001-1.283.026-2.039.123zm-8.403-7.405a80.23 80.23 0 01-3.009 8.51 56.199 56.199 0 017.308-2.273c-1.518-1.764-3.036-3.967-4.3-6.237zm-.683-9.52c-.11.037-1.497 1.977.108 3.618 1.067-2.38-.06-3.634-.108-3.618zM46.73 63H1.645A1.646 1.646 0 010 61.354V43.875h48.375v17.48c0 .908-.737 1.645-1.646 1.645z" fill="#CC4B4C"/><path d="M12.245 59.625h-1.847V48.289h3.26a4.6 4.6 0 011.43.23c.472.155.895.385 1.27.693.374.307.677.68.907 1.114.231.436.347.925.347 1.47a4.01 4.01 0 01-.293 1.561c-.194.467-.466.86-.815 1.177a3.68 3.68 0 01-1.261.738 4.852 4.852 0 01-1.63.26h-1.37l.002 4.093zm0-9.936v4.49h1.692c.225 0 .447-.038.669-.115.22-.077.423-.203.607-.377.185-.175.333-.418.446-.73.112-.313.169-.7.169-1.161a3.11 3.11 0 00-.077-.638 1.843 1.843 0 00-.315-.692 1.865 1.865 0 00-.67-.554c-.286-.148-.666-.222-1.138-.222l-1.383-.001zm16.688 3.953c0 .932-.1 1.73-.3 2.392-.2.661-.454 1.215-.762 1.661a3.911 3.911 0 01-1.038 1.054 5.202 5.202 0 01-1.115.577c-.359.129-.688.21-.985.247a6.543 6.543 0 01-.661.052h-4.29V48.289h3.414c.954 0 1.792.152 2.514.453.722.302 1.323.706 1.8 1.208a4.953 4.953 0 011.069 1.714c.236.641.354 1.3.354 1.978zm-5.475 4.63c1.25 0 2.153-.4 2.707-1.2.553-.8.83-1.959.83-3.476 0-.472-.056-.939-.169-1.4a2.995 2.995 0 00-.654-1.253c-.323-.375-.761-.677-1.315-.908-.553-.23-1.271-.346-2.153-.346h-1.077v8.582h1.83zm10.028-8.583v3.568h4.737v1.261h-4.737v5.107h-1.877V48.289h7.09v1.4h-5.213z" fill="#fff"/></svg>