<svg width="23" height="23" fill="none" xmlns="http://www.w3.org/2000/svg"><path fill-rule="evenodd" clip-rule="evenodd" d="M0 8.626c0 4.763 3.874 8.624 8.716 8.624 1.937 0 3.735-.674 5.257-1.808 0 .117.138.225.138.322l6.918 6.9c.415.448 1.245.448 1.66 0a1.218 1.218 0 000-1.627l-6.918-6.9c-.138-.097-.138-.172-.276-.227a8.747 8.747 0 001.798-5.284C17.293 3.86 13.42 0 8.716 0 3.874 0 0 3.861 0 8.626zm2.354-.001c0-3.494 2.767-6.326 6.364-6.326 3.459 0 6.226 2.832 6.226 6.326 0 3.493-2.767 6.325-6.226 6.325-3.597 0-6.364-2.832-6.364-6.325z" fill="#504D50"/></svg>