<svg width="59" height="63" fill="none" xmlns="http://www.w3.org/2000/svg"><path d="M38.25 45.688H58.5v11.204a6.12 6.12 0 01-6.12 6.105H38.25v-17.31z" fill="url(#paint0_linear_360_2159)"/><path d="M42.524 0H19.44a3.465 3.465 0 00-2.46 1.02L1.02 16.995A3.464 3.464 0 000 19.5v36.524a6.975 6.975 0 006.975 6.975h35.55a6.975 6.975 0 006.974-6.975V6.974A6.975 6.975 0 0042.524 0z" fill="url(#paint1_linear_360_2159)"/><path d="M22.5 0h-3a3.465 3.465 0 00-2.46 1.02L9.75 8.25l-8.73 8.745A3.464 3.464 0 000 19.5v36.524a6.975 6.975 0 006.975 6.975H18v-42.39a7.5 7.5 0 011.5-4.41 15.3 15.3 0 003-9.074V0z" fill="url(#paint2_linear_360_2159)"/><path d="M8.473 17.998a9.525 9.525 0 009.525-9.525V.328a3.453 3.453 0 00-1.02.69L1.018 16.993a3.453 3.453 0 00-.69 1.02l8.145-.015z" fill="url(#paint3_linear_360_2159)"/><path d="M18 29.25a1.125 1.125 0 00-1.125-1.125h-6.75a1.125 1.125 0 100 2.25h6.75A1.125 1.125 0 0018 29.25z" fill="url(#paint4_linear_360_2159)"/><path d="M39.375 28.125h-18a1.125 1.125 0 100 2.25h18a1.125 1.125 0 000-2.25z" fill="url(#paint5_linear_360_2159)"/><path d="M39.375 37.125h-4.5a1.125 1.125 0 100 2.25h4.5a1.125 1.125 0 000-2.25z" fill="url(#paint6_linear_360_2159)"/><path d="M31.5 38.25a1.125 1.125 0 00-1.125-1.125h-20.25a1.125 1.125 0 100 2.25h20.25A1.125 1.125 0 0031.5 38.25z" fill="url(#paint7_linear_360_2159)"/><path d="M24.75 47.246a1.125 1.125 0 00-1.125-1.125h-13.5a1.125 1.125 0 100 2.25h13.5a1.125 1.125 0 001.125-1.125z" fill="url(#paint8_linear_360_2159)"/><path d="M39.375 46.121h-11.25a1.125 1.125 0 100 2.25h11.25a1.125 1.125 0 100-2.25z" fill="url(#paint9_linear_360_2159)"/><path d="M18 28.125A1.125 1.125 0 0016.875 27h-6.75a1.125 1.125 0 100 2.25h6.75A1.125 1.125 0 0018 28.125z" fill="url(#paint10_linear_360_2159)"/><path d="M39.375 27h-18a1.125 1.125 0 100 2.25h18a1.125 1.125 0 000-2.25z" fill="url(#paint11_linear_360_2159)"/><path d="M39.375 36h-4.5a1.125 1.125 0 100 2.25h4.5a1.125 1.125 0 000-2.25z" fill="url(#paint12_linear_360_2159)"/><path d="M31.5 37.125A1.125 1.125 0 0030.375 36h-20.25a1.125 1.125 0 100 2.25h20.25a1.125 1.125 0 001.125-1.125z" fill="url(#paint13_linear_360_2159)"/><path d="M24.75 46.125A1.125 1.125 0 0023.625 45h-13.5a1.125 1.125 0 100 2.25h13.5a1.125 1.125 0 001.125-1.125z" fill="url(#paint14_linear_360_2159)"/><path d="M39.375 45h-11.25a1.125 1.125 0 100 2.25h11.25a1.125 1.125 0 100-2.25z" fill="url(#paint15_linear_360_2159)"/><path d="M52.38 22.5H18.074a4.575 4.575 0 00-4.575 4.575v20.1a4.575 4.575 0 004.575 4.574h34.304a6.39 6.39 0 016.12 4.5V28.62a6.12 6.12 0 00-6.12-6.119z" fill="url(#paint16_linear_360_2159)"/><path d="M49.5 22.5H18.074a4.575 4.575 0 00-4.575 4.575v20.1a4.575 4.575 0 004.575 4.574h31.424V22.5z" fill="url(#paint17_linear_360_2159)"/><path d="M27.83 26.702c0 .123-.007.229-.02.317a.819.819 0 01-.044.21.266.266 0 01-.083.114.152.152 0 01-.102.038h-2.056v6.621c0 .042-.015.08-.044.114a.267.267 0 01-.134.083c-.063.02-.15.038-.26.05-.106.013-.24.02-.4.02a3.54 3.54 0 01-.406-.02 1.327 1.327 0 01-.254-.05.312.312 0 01-.14-.083.185.185 0 01-.038-.114v-6.62h-2.056a.16.16 0 01-.108-.039.299.299 0 01-.077-.114 1.01 1.01 0 01-.05-.21 3.429 3.429 0 01-.013-.317c0-.127.004-.235.013-.324a.89.89 0 01.05-.21.244.244 0 01.077-.113.16.16 0 01.108-.038h5.788c.039 0 .073.012.102.038.034.02.061.059.083.114.02.05.036.12.044.21.013.088.02.196.02.323zm6.823 6.9a1.7 1.7 0 01.146.356c.025.088.013.156-.038.203-.051.046-.144.076-.28.088-.13.013-.315.02-.552.02-.199 0-.355-.005-.47-.013a1.693 1.693 0 01-.273-.038.314.314 0 01-.14-.083.462.462 0 01-.075-.127l-1.543-2.964-1.536 2.964a.601.601 0 01-.082.127.317.317 0 01-.146.083 1.56 1.56 0 01-.273.038 6.526 6.526 0 01-.457.013c-.22 0-.392-.007-.515-.02-.118-.012-.198-.042-.24-.088-.043-.047-.052-.115-.026-.203a1.81 1.81 0 01.159-.356l1.967-3.586-1.828-3.371a2.963 2.963 0 01-.159-.362c-.025-.093-.014-.16.032-.203.051-.046.142-.074.273-.082.131-.013.318-.02.559-.02.199 0 .355.005.47.013.118.009.211.024.279.045.067.017.114.042.14.076.03.034.057.076.082.127l1.44 2.717 1.404-2.717a.838.838 0 01.076-.127.272.272 0 01.133-.076c.064-.021.148-.036.254-.045.11-.008.26-.012.45-.012.212 0 .38.006.502.019.123.008.208.035.254.082.047.047.057.114.032.203-.021.09-.068.21-.14.362l-1.828 3.352 1.949 3.605zm6.773-6.9c0 .123-.007.229-.02.317a.815.815 0 01-.044.21.268.268 0 01-.082.114.152.152 0 01-.102.038h-2.056v6.621c0 .042-.015.08-.045.114a.266.266 0 01-.133.083c-.064.02-.15.038-.26.05-.106.013-.24.02-.4.02-.161 0-.297-.007-.407-.02a1.329 1.329 0 01-.254-.05.313.313 0 01-.14-.083.185.185 0 01-.037-.114v-6.62h-2.057a.16.16 0 01-.108-.039.299.299 0 01-.076-.114 1.01 1.01 0 01-.05-.21 3.394 3.394 0 01-.013-.317 3.7 3.7 0 01.012-.324.89.89 0 01.051-.21.244.244 0 01.076-.113.16.16 0 01.108-.038h5.79c.037 0 .071.012.1.038.035.02.062.059.083.114.021.05.036.12.045.21.012.088.019.196.019.323z" fill="#fff"/><defs><linearGradient id="paint0_linear_360_2159" x1="48.375" y1="71.067" x2="48.375" y2="42.163" gradientUnits="userSpaceOnUse"><stop stop-color="#27E9DE"/><stop offset=".52" stop-color="#03A4EC"/><stop offset="1" stop-color="#2547A8"/></linearGradient><linearGradient id="paint1_linear_360_2159" x1="24.75" y1="99.373" x2="24.75" y2="-45.989" gradientUnits="userSpaceOnUse"><stop stop-color="#273A9B"/><stop offset=".56" stop-color="#202F65"/><stop offset="1" stop-color="#021E2F"/></linearGradient><linearGradient id="paint2_linear_360_2159" x1="11.25" y1="115.062" x2="11.25" y2="-41.354" gradientUnits="userSpaceOnUse"><stop stop-color="#273A9B"/><stop offset=".56" stop-color="#202F65"/><stop offset="1" stop-color="#021E2F"/></linearGradient><linearGradient id="paint3_linear_360_2159" x1="-19.126" y1="-19.126" x2="14.443" y2="14.443" gradientUnits="userSpaceOnUse"><stop stop-color="#27E9DE"/><stop offset=".52" stop-color="#03A4EC"/><stop offset="1" stop-color="#2547A8"/></linearGradient><linearGradient id="paint4_linear_360_2159" x1="13.5" y1="93.374" x2="13.5" y2="-6.449" gradientUnits="userSpaceOnUse"><stop stop-color="#273A9B"/><stop offset=".56" stop-color="#202F65"/><stop offset="1" stop-color="#021E2F"/></linearGradient><linearGradient id="paint5_linear_360_2159" x1="30.375" y1="93.374" x2="30.375" y2="-6.449" gradientUnits="userSpaceOnUse"><stop stop-color="#273A9B"/><stop offset=".56" stop-color="#202F65"/><stop offset="1" stop-color="#021E2F"/></linearGradient><linearGradient id="paint6_linear_360_2159" x1="37.125" y1="93.374" x2="37.125" y2="-6.449" gradientUnits="userSpaceOnUse"><stop stop-color="#273A9B"/><stop offset=".56" stop-color="#202F65"/><stop offset="1" stop-color="#021E2F"/></linearGradient><linearGradient id="paint7_linear_360_2159" x1="20.25" y1="93.374" x2="20.25" y2="-6.449" gradientUnits="userSpaceOnUse"><stop stop-color="#273A9B"/><stop offset=".56" stop-color="#202F65"/><stop offset="1" stop-color="#021E2F"/></linearGradient><linearGradient id="paint8_linear_360_2159" x1="16.875" y1="93.37" x2="16.875" y2="-6.453" gradientUnits="userSpaceOnUse"><stop stop-color="#273A9B"/><stop offset=".56" stop-color="#202F65"/><stop offset="1" stop-color="#021E2F"/></linearGradient><linearGradient id="paint9_linear_360_2159" x1="33.75" y1="93.37" x2="33.75" y2="-6.453" gradientUnits="userSpaceOnUse"><stop stop-color="#273A9B"/><stop offset=".56" stop-color="#202F65"/><stop offset="1" stop-color="#021E2F"/></linearGradient><linearGradient id="paint10_linear_360_2159" x1="13.5" y1="88.319" x2="13.5" y2="112.318" gradientUnits="userSpaceOnUse"><stop stop-color="#273A9B"/><stop offset=".56" stop-color="#202F65"/><stop offset="1" stop-color="#021E2F"/></linearGradient><linearGradient id="paint11_linear_360_2159" x1="30.375" y1="88.319" x2="30.375" y2="112.318" gradientUnits="userSpaceOnUse"><stop stop-color="#273A9B"/><stop offset=".56" stop-color="#202F65"/><stop offset="1" stop-color="#021E2F"/></linearGradient><linearGradient id="paint12_linear_360_2159" x1="37.125" y1="88.319" x2="37.125" y2="112.318" gradientUnits="userSpaceOnUse"><stop stop-color="#273A9B"/><stop offset=".56" stop-color="#202F65"/><stop offset="1" stop-color="#021E2F"/></linearGradient><linearGradient id="paint13_linear_360_2159" x1="20.25" y1="88.319" x2="20.25" y2="112.318" gradientUnits="userSpaceOnUse"><stop stop-color="#273A9B"/><stop offset=".56" stop-color="#202F65"/><stop offset="1" stop-color="#021E2F"/></linearGradient><linearGradient id="paint14_linear_360_2159" x1="16.875" y1="88.319" x2="16.875" y2="112.318" gradientUnits="userSpaceOnUse"><stop stop-color="#273A9B"/><stop offset=".56" stop-color="#202F65"/><stop offset="1" stop-color="#021E2F"/></linearGradient><linearGradient id="paint15_linear_360_2159" x1="33.75" y1="88.319" x2="33.75" y2="112.318" gradientUnits="userSpaceOnUse"><stop stop-color="#273A9B"/><stop offset=".56" stop-color="#202F65"/><stop offset="1" stop-color="#021E2F"/></linearGradient><linearGradient id="paint16_linear_360_2159" x1="35.999" y1="65.054" x2="35.999" y2="-6.434" gradientUnits="userSpaceOnUse"><stop stop-color="#27E9DE"/><stop offset=".52" stop-color="#03A4EC"/><stop offset="1" stop-color="#2547A8"/></linearGradient><linearGradient id="paint17_linear_360_2159" x1="23.16" y1="77.294" x2="39.284" y2="3.6" gradientUnits="userSpaceOnUse"><stop stop-color="#27E9DE"/><stop offset=".52" stop-color="#03A4EC"/><stop offset="1" stop-color="#2547A8"/></linearGradient></defs></svg>