<svg width="47" height="47" viewBox="0 0 47 47" fill="none" xmlns="http://www.w3.org/2000/svg">
<path d="M42.8886 22.5508C42.8886 32.8503 34.1591 41.2012 23.3935 41.2012C22.1277 41.2028 20.8655 41.0858 19.622 40.8523C18.727 40.6842 18.2795 40.6001 17.9671 40.6479C17.6547 40.6956 17.212 40.931 16.3265 41.4019C13.8217 42.7339 10.901 43.2044 8.09205 42.6819C9.15965 41.3688 9.88878 39.7932 10.2105 38.1041C10.4055 37.071 9.92242 36.0672 9.19893 35.3325C5.91293 31.9958 3.89844 27.4994 3.89844 22.5508C3.89844 12.2512 12.6279 3.90039 23.3935 3.90039C34.1591 3.90039 42.8886 12.2512 42.8886 22.5508Z" stroke="#316067" stroke-width="3.89902" stroke-linejoin="round"/>
<path d="M23.383 23.3945H23.4005M31.1723 23.3945H31.1898M15.5938 23.3945H15.6112" stroke="#316067" stroke-width="3.89902" stroke-linecap="round" stroke-linejoin="round"/>
</svg>
