<svg width="41" height="41" viewBox="0 0 41 41" fill="none" xmlns="http://www.w3.org/2000/svg">
<path d="M6.31027 19.9555C4.72611 17.1933 3.9612 14.9377 3.49999 12.6513C2.81786 9.26982 4.37889 5.96663 6.96489 3.85893C8.05784 2.96813 9.31074 3.27248 9.95704 4.43196L11.4161 7.04961C12.5726 9.12443 13.1509 10.1618 13.0362 11.2617C12.9215 12.3615 12.1417 13.2573 10.5819 15.0489L6.31027 19.9555ZM6.31027 19.9555C9.51673 25.5466 14.5487 30.5813 20.1462 33.7915M20.1462 33.7915C22.9085 35.3757 25.1641 36.1406 27.4504 36.6018C30.832 37.2839 34.1352 35.7229 36.2429 33.1369C37.1336 32.0439 36.8293 30.791 35.6698 30.1447L33.0522 28.6857C30.9774 27.5291 29.9399 26.9509 28.8401 27.0656C27.7402 27.1803 26.8445 27.9601 25.0529 29.5198L20.1462 33.7915Z" stroke="#316067" stroke-width="3.20833" stroke-linejoin="round"/>
<path d="M23.3906 11.4159C25.7689 12.4258 27.6747 14.3316 28.6847 16.7099M24.4835 3.3418C30.3942 5.04749 35.0528 9.70586 36.7587 15.6164" stroke="#316067" stroke-width="3.20833" stroke-linecap="round"/>
</svg>
