<svg width="19" height="19" viewBox="0 0 19 19" fill="none" xmlns="http://www.w3.org/2000/svg">
<path d="M9.5026 18.0111C4.80802 18.0111 0.992188 14.1952 0.992188 9.50065C0.992188 4.80607 4.80802 0.990234 9.5026 0.990234C14.1972 0.990234 18.013 4.80607 18.013 9.50065C18.013 14.1952 14.1972 18.0111 9.5026 18.0111ZM9.5026 2.17773C5.4651 2.17773 2.17969 5.46315 2.17969 9.50065C2.17969 13.5382 5.4651 16.8236 9.5026 16.8236C13.5401 16.8236 16.8255 13.5382 16.8255 9.50065C16.8255 5.46315 13.5401 2.17773 9.5026 2.17773Z" fill="#00A48A"/>
<path d="M12.4408 12.6131C12.3379 12.6131 12.235 12.5893 12.14 12.526L9.68583 11.0614C9.07625 10.6973 8.625 9.89768 8.625 9.1931V5.94727C8.625 5.62268 8.89417 5.35352 9.21875 5.35352C9.54333 5.35352 9.8125 5.62268 9.8125 5.94727V9.1931C9.8125 9.4781 10.05 9.89768 10.2954 10.0402L12.7496 11.5048C13.0346 11.671 13.1217 12.0352 12.9554 12.3202C12.8367 12.5102 12.6388 12.6131 12.4408 12.6131Z" fill="#00A48A"/>
</svg>
