<svg width="24" height="24" viewBox="0 0 24 24" fill="none" xmlns="http://www.w3.org/2000/svg">
<g clip-path="url(#clip0_630_772)">
<path d="M10.5015 16.9993C10.2386 16.9995 9.97814 16.9479 9.73517 16.8473C9.49219 16.7468 9.27143 16.5993 9.08552 16.4133L5.30152 12.7143C5.11189 12.5287 5.00378 12.2753 5.00096 12.0099C4.99815 11.7446 5.10087 11.4889 5.28652 11.2993C5.47217 11.1097 5.72555 11.0016 5.99091 10.9988C6.25628 10.9959 6.51189 11.0987 6.70152 11.2843L10.4945 14.9913L17.3005 8.29131C17.4924 8.12244 17.7418 8.03348 17.9972 8.04272C18.2527 8.05196 18.495 8.1587 18.6742 8.341C18.8534 8.5233 18.956 8.76731 18.9609 9.02291C18.9658 9.27851 18.8726 9.52628 18.7005 9.71531L11.9075 16.4223C11.7226 16.6062 11.5033 16.7518 11.262 16.8509C11.0207 16.9499 10.7623 17.0003 10.5015 16.9993ZM24.0015 18.9993V12.3393C24.0388 9.25676 22.9086 6.2742 20.8378 3.99048C18.7671 1.70676 15.909 0.290948 12.8375 0.0273102C11.1232 -0.0926321 9.40305 0.15705 7.79355 0.759463C6.18406 1.36188 4.72272 2.30297 3.50843 3.51906C2.29414 4.73515 1.35522 6.19788 0.755193 7.80827C0.155166 9.41866 -0.0919656 11.1391 0.0305181 12.8533C0.472518 19.2073 6.08352 23.9993 13.0845 23.9993H19.0015C20.3271 23.9977 21.598 23.4704 22.5353 22.5331C23.4726 21.5958 23.9999 20.3249 24.0015 18.9993ZM12.7015 2.02331C15.268 2.25035 17.6534 3.44022 19.3786 5.35386C21.1038 7.26751 22.0408 9.76313 22.0015 12.3393V18.9993C22.0015 19.795 21.6855 20.558 21.1228 21.1206C20.5602 21.6832 19.7972 21.9993 19.0015 21.9993H13.0845C7.05052 21.9993 2.40152 18.0993 2.02652 12.7153C1.92807 11.3439 2.11349 9.96691 2.5712 8.67038C3.02891 7.37385 3.74907 6.18564 4.68669 5.17998C5.62431 4.17432 6.75924 3.37282 8.02059 2.82556C9.28193 2.27829 10.6426 1.99702 12.0175 1.99931C12.2445 1.99931 12.4735 2.00831 12.7015 2.02331Z" fill="#C5212C"/>
</g>
<defs>
<clipPath id="clip0_630_772">
<rect width="24" height="24" fill="white"/>
</clipPath>
</defs>
</svg>
