<svg width="24" height="24" viewBox="0 0 24 24" fill="none" xmlns="http://www.w3.org/2000/svg">
<path d="M15 7.5C15 7.5 15.5 7.5 16 8.5C16 8.5 17.5882 6 19 5.5" stroke="#316067" stroke-width="2" stroke-linecap="round" stroke-linejoin="round"/>
<path d="M22 7C22 9.76142 19.7614 12 17 12C14.2386 12 12 9.76142 12 7C12 4.23858 14.2386 2 17 2C19.7614 2 22 4.23858 22 7Z" stroke="#316067" stroke-width="2" stroke-linecap="round"/>
<path d="M2 10H3H2ZM10.4706 3C11.0229 3 11.4706 2.55228 11.4706 2C11.4706 1.44772 11.0229 1 10.4706 1V3ZM10.4706 22V23V22ZM2 14H1H2ZM11.5294 22V21V22ZM18.7595 20.8284L19.4461 21.5554L18.7595 20.8284ZM20.9999 14.419C21.0002 13.8667 20.5527 13.4188 20.0004 13.4185C19.4481 13.4182 19.0002 13.8657 18.9999 14.418L20.9999 14.419ZM11.5294 21H10.4706V23H11.5294V21ZM3 14L3 10H1L1 14H3ZM3 10C3 8.0845 3.00238 6.7543 3.14508 5.75185C3.28282 4.7843 3.53345 4.27038 3.92711 3.89859L2.55387 2.44456C1.70704 3.24434 1.33743 4.25902 1.16504 5.46998C0.997625 6.64604 1 8.14427 1 10H3ZM10.4706 1C8.50079 1 6.92836 0.998102 5.69735 1.15441C4.44316 1.31367 3.39262 1.65241 2.55387 2.44456L3.92711 3.89859C4.32885 3.51917 4.89682 3.27212 5.94929 3.13848C7.02494 3.0019 8.44731 3 10.4706 3V1ZM10.4706 21C8.44731 21 7.02493 20.9981 5.94929 20.8615C4.89682 20.7279 4.32885 20.4808 3.92711 20.1014L2.55387 21.5554C3.39262 22.3476 4.44316 22.6863 5.69735 22.8456C6.92836 23.0019 8.50079 23 10.4706 23V21ZM1 14C1 15.8557 0.997624 17.354 1.16504 18.53C1.33743 19.741 1.70704 20.7557 2.55387 21.5554L3.92711 20.1014C3.53345 19.7296 3.28282 19.2157 3.14508 18.2482C3.00238 17.2457 3 15.9155 3 14H1ZM11.5294 23C13.4992 23 15.0716 23.0019 16.3026 22.8456C17.5568 22.6863 18.6074 22.3476 19.4461 21.5554L18.0729 20.1014C17.6712 20.4808 17.1032 20.7279 16.0507 20.8615C14.9751 20.9981 13.5527 21 11.5294 21V23ZM18.9999 14.418C18.9991 16.1885 18.985 17.4238 18.8388 18.356C18.6981 19.2532 18.4525 19.7429 18.0729 20.1014L19.4461 21.5554C20.2603 20.7865 20.634 19.8182 20.8147 18.6658C20.9899 17.5483 20.9991 16.1424 20.9999 14.419L18.9999 14.418Z" fill="#316067"/>
<path d="M7 13H11" stroke="#316067" stroke-width="2" stroke-linecap="round"/>
<path d="M7 17L15 17" stroke="#316067" stroke-width="2" stroke-linecap="round"/>
</svg>
