<svg width="28" height="28" viewBox="0 0 28 28" fill="none" xmlns="http://www.w3.org/2000/svg">
<path d="M11.9456 3.48684C12.6329 2.67365 12.9765 2.26705 13.3865 2.11192C13.7808 1.96269 14.2192 1.96269 14.6135 2.11192C15.0235 2.26705 15.3671 2.67365 16.0544 3.48684C16.4372 3.9397 16.6285 4.16613 16.8675 4.30903C17.0988 4.44734 17.3616 4.52937 17.6331 4.54803C17.9136 4.56732 18.2102 4.49106 18.8032 4.33855C19.8466 4.07024 20.3682 3.93609 20.7858 4.03489C21.2133 4.13603 21.5825 4.39495 21.8138 4.75589C22.0398 5.10846 22.0674 5.62102 22.1227 6.64616C22.1536 7.21905 22.169 7.5055 22.2707 7.7526C22.3753 8.00684 22.5451 8.23137 22.7642 8.40521C22.9771 8.57418 23.2577 8.67692 23.8188 8.88241C24.8165 9.24779 25.3154 9.43047 25.5932 9.74132C25.8873 10.0704 26.0318 10.4996 25.9941 10.9324C25.9586 11.3413 25.6686 11.7675 25.0887 12.62C24.7654 13.0953 24.6037 13.3329 24.5341 13.5873C24.4601 13.8578 24.4601 14.1422 24.5341 14.4127C24.6037 14.6671 24.7654 14.9047 25.0887 15.38C25.6686 16.2325 25.9586 16.6587 25.9941 17.0676C26.0318 17.5004 25.8873 17.9296 25.5932 18.2587C25.3154 18.5695 24.8165 18.7522 23.8188 19.1176C23.2577 19.3231 22.9771 19.4258 22.7642 19.5948C22.5451 19.7686 22.3753 19.9932 22.2707 20.2474C22.169 20.4945 22.1536 20.781 22.1227 21.3538C22.0674 22.379 22.0398 22.8915 21.8138 23.2441C21.5825 23.605 21.2133 23.864 20.7858 23.9651C20.3682 24.0639 19.8466 23.9298 18.8032 23.6615C18.2102 23.5089 17.9136 23.4327 17.6331 23.452C17.3616 23.4706 17.0988 23.5527 16.8675 23.691C16.6285 23.8339 16.4372 24.0603 16.0544 24.5132C15.3671 25.3264 15.0235 25.733 14.6135 25.8881C14.2192 26.0373 13.7808 26.0373 13.3865 25.8881C12.9765 25.733 12.6329 25.3264 11.9456 24.5132C11.5628 24.0603 11.3715 23.8339 11.1325 23.691C10.9012 23.5527 10.6384 23.4706 10.3669 23.452C10.0864 23.4327 9.78982 23.5089 9.19676 23.6615C8.15345 23.9298 7.6318 24.0639 7.21421 23.9651C6.7867 23.864 6.41752 23.605 6.18617 23.2441C5.96019 22.8915 5.93256 22.379 5.87732 21.3538C5.84645 20.781 5.83101 20.4945 5.72932 20.2474C5.6247 19.9932 5.45492 19.7686 5.23583 19.5948C5.0229 19.4258 4.74233 19.3231 4.18119 19.1176C3.18346 18.7522 2.68459 18.5695 2.40679 18.2587C2.11269 17.9296 1.96822 17.5004 2.00588 17.0676C2.04144 16.6587 2.33141 16.2325 2.91134 15.38C3.23462 14.9047 3.39627 14.6671 3.4659 14.4127C3.53994 14.1422 3.53994 13.8578 3.4659 13.5873C3.39627 13.3329 3.23462 13.0953 2.91134 12.62C2.33141 11.7675 2.04144 11.3413 2.00588 10.9324C1.96822 10.4996 2.11269 10.0704 2.40679 9.74132C2.68459 9.43047 3.18346 9.24779 4.18119 8.88241C4.74233 8.67692 5.0229 8.57418 5.23583 8.40521C5.45492 8.23137 5.6247 8.00684 5.72932 7.7526C5.83101 7.5055 5.84645 7.21905 5.87732 6.64616C5.93256 5.62102 5.96019 5.10845 6.18617 4.75589C6.41752 4.39495 6.7867 4.13603 7.21421 4.03489C7.6318 3.93609 8.15345 4.07024 9.19676 4.33855C9.78982 4.49106 10.0864 4.56732 10.3669 4.54803C10.6384 4.52937 10.9012 4.44734 11.1325 4.30903C11.3715 4.16613 11.5628 3.9397 11.9456 3.48684Z" stroke="#316067" stroke-width="2.2" stroke-linejoin="round"/>
<path d="M10.2109 15.5957C10.2109 15.5957 11.3162 15.5957 12.4215 17.5957C12.4215 17.5957 15.9323 12.5957 19.053 11.5957" stroke="#316067" stroke-width="2.2" stroke-linecap="round" stroke-linejoin="round"/>
</svg>
