<svg width="21" height="21" viewBox="0 0 21 21" fill="none" xmlns="http://www.w3.org/2000/svg">
<path d="M10.4997 14.2904C8.40844 14.2904 6.71094 12.5929 6.71094 10.5016C6.71094 8.41039 8.40844 6.71289 10.4997 6.71289C12.5909 6.71289 14.2884 8.41039 14.2884 10.5016C14.2884 12.5929 12.5909 14.2904 10.4997 14.2904ZM10.4997 8.02539C9.13469 8.02539 8.02344 9.13664 8.02344 10.5016C8.02344 11.8666 9.13469 12.9779 10.4997 12.9779C11.8647 12.9779 12.9759 11.8666 12.9759 10.5016C12.9759 9.13664 11.8647 8.02539 10.4997 8.02539Z" fill="#00A48A"/>
<path d="M10.5003 18.3924C7.21031 18.3924 4.10406 16.4674 1.96906 13.1249C1.04156 11.6812 1.04156 9.32742 1.96906 7.87492C4.11281 4.53242 7.21906 2.60742 10.5003 2.60742C13.7816 2.60742 16.8878 4.53242 19.0228 7.87492C19.9503 9.31867 19.9503 11.6724 19.0228 13.1249C16.8878 16.4674 13.7816 18.3924 10.5003 18.3924ZM10.5003 3.91992C7.67406 3.91992 4.97031 5.61742 3.08031 8.58367C2.42406 9.60742 2.42406 11.3924 3.08031 12.4162C4.97031 15.3824 7.67406 17.0799 10.5003 17.0799C13.3266 17.0799 16.0303 15.3824 17.9203 12.4162C18.5766 11.3924 18.5766 9.60742 17.9203 8.58367C16.0303 5.61742 13.3266 3.91992 10.5003 3.91992Z" fill="#00A48A"/>
</svg>
