<svg width="100" height="100" viewBox="0 0 100 100" fill="none" xmlns="http://www.w3.org/2000/svg">
<g clip-path="url(#clip0_61_273)">
<path d="M90.3142 8.64736C90.3032 6.74471 87.9903 5.79368 86.643 7.13537L82.1473 11.6311C65.1593 -3.07081 38.1883 -3.96318 20.3252 9.68579H28.3194C44.823 0.519214 66.9766 3.20768 80.7958 16.1639C81.2074 16.5391 81.7265 16.7255 82.2451 16.7255C82.7966 16.7255 83.3472 16.5145 83.7662 16.0955L86.0132 13.8485V31.9478H67.9139L71.2353 28.6264C72.1124 27.7855 72.0567 26.25 71.1185 25.4763C61.731 17.2188 47.4986 15.2797 36.2495 20.7026V25.5373C45.5367 20.1751 57.8886 20.9017 66.4872 27.291C66.4791 27.3 61.199 32.5774 61.1925 32.5866C59.8467 33.8583 60.8711 36.3113 62.7214 36.2494H88.164C89.3518 36.2494 90.3147 35.2864 90.3147 34.0986C90.3153 34.0898 90.3145 8.65538 90.3142 8.64736Z" fill="#fff"/>
<path d="M88.3692 82.1473C103.071 65.1593 103.963 38.1883 90.3145 20.3252V28.3173C99.4813 44.8211 96.793 66.9762 83.8364 80.7958C83.0619 81.6452 83.092 82.9532 83.9046 83.7662L86.1516 86.0132H68.0523V67.9139L71.3737 71.2353C72.2148 72.112 73.7501 72.0567 74.5238 71.1185C82.7813 61.7308 84.7211 47.498 79.2955 36.2495H74.4571C79.825 45.5357 79.0994 57.8876 72.7089 66.4872L67.4223 61.2006C66.0886 59.8555 63.7429 60.816 63.7508 62.7214V88.1638C63.7508 89.3516 64.7137 90.3145 65.9015 90.3145H91.3441C93.2456 90.321 94.2135 87.9823 92.8649 86.643L88.3692 82.1473Z" fill="#fff"/>
<path d="M50.0002 95.7528C38.5649 95.7528 27.6281 91.5209 19.2045 83.8368C18.3553 83.0621 17.0471 83.0922 16.2343 83.9048L13.9873 86.1518V68.0523H32.0866L28.7652 71.3737C27.8881 72.2146 27.9438 73.7501 28.882 74.5238C38.2697 82.7813 52.5027 84.7213 63.751 79.2951V74.4626C54.4638 79.8248 42.1119 79.0983 33.5133 72.7089L38.7999 67.4223C40.145 66.0888 39.1845 63.7429 37.2791 63.7508H11.8367C10.6489 63.7508 9.68596 64.7137 9.68596 65.9015V91.3441C9.62417 93.2032 12.087 94.2227 13.3575 92.8649L17.8532 88.3692C34.8412 103.071 61.8122 103.963 79.6755 90.3145H71.6784C65.0726 93.8869 57.6954 95.7528 50.0002 95.7528Z" fill="#fff"/>
<path d="M4.24747 50.0001C4.24747 38.5649 8.47941 27.628 16.1635 19.2044C16.9382 18.3553 16.9083 17.047 16.0955 16.2342L13.8485 13.9871H31.9478V32.0864L28.6264 28.765C27.7863 27.8885 26.2496 27.9434 25.4763 28.8817C17.219 38.2692 15.2797 52.5017 20.7022 63.7508H25.542C20.1753 54.4641 20.9009 42.1125 27.2912 33.5129L32.5778 38.7997C33.9113 40.1447 36.2574 39.1843 36.2494 37.2789V11.8365C36.2494 10.6487 35.2864 9.68572 34.0986 9.68572H8.65616C6.79731 9.62374 5.77745 12.087 7.13537 13.3573L11.6311 17.853C-3.07081 34.8409 -3.96318 61.812 9.68579 79.6749V71.6816C6.11219 65.0753 4.24747 57.6966 4.24747 50.0001Z" fill="#fff"/>
<path d="M55.5254 49.0928C56.3914 47.9422 56.9057 46.5123 56.9057 44.9646C56.9057 41.1717 53.8197 38.0859 50.0268 38.0859C46.2338 38.0859 43.1482 41.1717 43.1482 44.9646C43.1482 46.5125 43.6623 47.9422 44.5283 49.0928C41.4871 50.9518 39.4531 54.3031 39.4531 58.1209V59.8227C39.4531 61.0092 40.415 61.9711 41.6016 61.9711H58.4521C59.6387 61.9711 60.6006 61.0092 60.6006 59.8227V58.1209C60.6006 54.3031 58.5664 50.9518 55.5254 49.0928ZM50.0268 42.3826C51.4504 42.3826 52.6088 43.5408 52.6088 44.9645C52.6088 46.3881 51.4504 47.5463 50.0268 47.5463C48.6031 47.5463 47.4449 46.3881 47.4449 44.9645C47.4449 43.5408 48.6031 42.3826 50.0268 42.3826ZM43.7656 57.6742C43.9957 54.4209 46.7158 51.8439 50.027 51.8439C53.3381 51.8439 56.0582 54.4209 56.2883 57.6742H43.7656Z" fill="#fff"/>
</g>
<defs>
<clipPath id="clip0_61_273">
<rect width="100" height="100" fill="white"/>
</clipPath>
</defs>
</svg>
