<svg width="46" height="46" viewBox="0 0 46 46" fill="none" xmlns="http://www.w3.org/2000/svg">
<g clip-path="url(#clip0_151_6102)">
<path d="M38.0215 17.1875C37.4875 17.1875 37.0547 17.6204 37.0547 18.1543V22.9088H38.9883V18.1543C38.9883 17.6203 38.5554 17.1875 38.0215 17.1875Z" fill="white"/>
<path d="M38.3019 11.6858C38.935 10.859 39.3123 9.82644 39.3123 8.70698C39.3123 5.99959 37.1097 3.79705 34.4024 3.79705C32.1893 3.79705 30.3142 5.26922 29.7031 7.28552L25.9083 2.01551L25.9056 2.01744C25.67 1.67616 25.3716 1.37145 25.0128 1.12404C23.4362 0.036741 21.243 0.416604 20.1239 1.97077L16.2978 7.2842C15.6867 5.2679 13.8117 3.79574 11.5985 3.79574C8.89111 3.79574 6.68857 5.99836 6.68857 8.70566C6.68857 9.82512 7.06589 10.8577 7.69905 11.6844C4.79778 11.7362 2.45312 14.1108 2.45312 17.0242V22.9939H4.38672V17.0242C4.38672 15.1446 5.91584 13.6156 7.79538 13.6156H11.5985C13.2399 13.6156 14.6948 12.8051 15.5867 11.5641L15.5945 11.5697L19.5865 6.02587L22.3113 8.01027L15.969 17.6189C15.8647 17.7769 15.8092 17.9621 15.8092 18.1515V22.9959H17.7428V18.4418L22.9999 10.4772L28.258 18.4432V22.9972H30.1916V18.1528C30.1916 17.9635 30.1359 17.7783 30.0317 17.6202L24.1584 8.72209C24.1584 8.72209 26.0939 5.77574 26.1519 5.6628L30.4063 11.5712L30.4141 11.5655C31.3061 12.8065 32.7609 13.6169 34.4023 13.6169H38.2055C40.085 13.6169 41.6141 15.146 41.6141 17.0256V22.9953H43.5477V17.0256C43.5477 14.1122 41.203 11.7375 38.3019 11.6858ZM11.5984 11.682C9.95723 11.682 8.62208 10.3468 8.62208 8.70566C8.62208 7.06448 9.95723 5.72933 11.5984 5.72933C13.2396 5.72933 14.5747 7.06448 14.5747 8.70566C14.5747 10.3468 13.2395 11.682 11.5984 11.682ZM24.3448 4.92952L23.3776 6.39484L20.7164 4.45676L21.6929 3.10061C22.2015 2.39423 23.1984 2.22153 23.915 2.71574C24.6315 3.20994 24.8244 4.20302 24.3448 4.92952ZM34.4023 11.6833C32.7612 11.6833 31.426 10.3482 31.426 8.70698C31.426 7.06588 32.7612 5.73065 34.4023 5.73065C36.0435 5.73065 37.3787 7.06579 37.3787 8.70698C37.3787 10.3481 36.0435 11.6833 34.4023 11.6833Z" fill="white"/>
<path d="M7.97461 17.1836C7.44067 17.1836 7.00781 17.6165 7.00781 18.1504V22.9049H8.94141V18.1504C8.94141 17.6164 8.50854 17.1836 7.97461 17.1836Z" fill="white"/>
<path d="M44.5332 22.0312H1.4668C0.932861 22.0312 0.5 22.4641 0.5 22.998C0.5 29.008 2.84044 34.6582 7.09004 38.9079C11.3204 43.1383 17.0207 45.4758 23 45.4971C28.9793 45.4759 34.6795 43.1384 38.91 38.9079C43.1596 34.6582 45.5 29.008 45.5 22.998C45.5 22.4641 45.0671 22.0312 44.5332 22.0312ZM29.2035 23.9648C29.1583 27.0136 28.8999 29.9416 28.4498 32.5925H17.5502C17.1001 29.9417 16.8417 27.0137 16.7965 23.9648H29.2035ZM2.45574 23.9648H14.8628C14.9066 26.9958 15.1562 29.9193 15.5914 32.5925H4.79768C3.39986 29.9485 2.59602 27.017 2.45574 23.9648ZM8.45735 37.5407C7.52237 36.6057 6.68926 35.5962 5.96196 34.5261H15.9478C16.2447 35.9605 16.5987 37.3044 17.0074 38.5301C17.7192 40.6655 18.4968 42.1748 19.279 43.2294C15.2022 42.4884 11.4498 40.5331 8.45735 37.5407ZM23 43.5645C21.5746 43.5645 20.0202 41.4538 18.8417 37.9186C18.4935 36.874 18.1868 35.7367 17.9234 34.5261H28.0766C27.8131 35.7367 27.5065 36.874 27.1583 37.9186C25.9798 41.4538 24.4254 43.5645 23 43.5645ZM37.5426 37.5407C34.5502 40.533 30.7978 42.4884 26.721 43.2293C27.5032 42.1747 28.2808 40.6654 28.9926 38.53C29.4013 37.3043 29.7553 35.9604 30.0522 34.526H40.038C39.3107 35.5962 38.4776 36.6057 37.5426 37.5407ZM41.2023 32.5925H30.4086C30.8438 29.9194 31.0934 26.9958 31.1372 23.9648H43.5443C43.404 27.017 42.6001 29.9485 41.2023 32.5925Z" fill="white"/>
</g>
<defs>
<clipPath id="clip0_151_6102">
<rect width="45" height="45" fill="white" transform="translate(0.5 0.5)"/>
</clipPath>
</defs>
</svg>
