<svg width="50" height="50" viewBox="0 0 50 50" fill="none" xmlns="http://www.w3.org/2000/svg">
<g clip-path="url(#clip0_151_6258)">
<path d="M28.3471 13.0078H17.957C17.3638 13.0078 16.8828 13.4888 16.8828 14.082C16.8828 14.6753 17.3638 15.1562 17.957 15.1562H28.3472C28.9404 15.1562 29.4214 14.6753 29.4214 14.082C29.4214 13.4888 28.9404 13.0078 28.3471 13.0078Z" fill="white"/>
<path d="M28.3471 21.7188H17.957C17.3638 21.7188 16.8828 22.1997 16.8828 22.793C16.8828 23.3862 17.3638 23.8672 17.957 23.8672H28.3472C28.9404 23.8672 29.4214 23.3862 29.4214 22.793C29.4214 22.1997 28.9404 21.7188 28.3471 21.7188Z" fill="white"/>
<path d="M28.3471 30.4297H17.957C17.3638 30.4297 16.8828 30.9106 16.8828 31.5039C16.8828 32.0972 17.3638 32.5781 17.957 32.5781H28.3472C28.9404 32.5781 29.4214 32.0972 29.4214 31.5039C29.4214 30.9106 28.9404 30.4297 28.3471 30.4297Z" fill="white"/>
<path d="M28.3471 39.1406H17.957C17.3638 39.1406 16.8828 39.6216 16.8828 40.2148C16.8828 40.8081 17.3638 41.2891 17.957 41.2891H28.3472C28.9404 41.2891 29.4214 40.8081 29.4214 40.2148C29.4214 39.6216 28.9404 39.1406 28.3471 39.1406Z" fill="white"/>
<path d="M39.8118 19.2521V11.6929H39.8112C39.8111 11.4134 39.7025 11.1387 39.4972 10.9333L35.5149 6.95107V1.07422C35.5149 0.480957 35.034 0 34.4407 0H1.07422C0.480957 0 0 0.480957 0 1.07422V44.6289C0 45.2222 0.480957 45.7031 1.07422 45.7031H4.29688V48.9258C4.29688 49.519 4.77783 50 5.37109 50H38.7376C39.3309 50 39.8118 49.519 39.8118 48.9258V35.0448H37.6634V47.8516H6.44531V6.44531H31.3416V11.6928C31.3416 12.286 31.8226 12.767 32.4158 12.767H37.6633V19.252H39.8118V19.2521ZM32.4158 4.29736V4.29688H5.37109C4.77783 4.29688 4.29688 4.77783 4.29688 5.37109V43.5547H2.14844V2.14844H33.3665V4.80254L33.1755 4.61152C32.97 4.40605 32.6953 4.29746 32.4158 4.29736ZM33.49 10.6186V7.96445L36.1441 10.6186H33.49Z" fill="white"/>
<path d="M40.7736 17.9219C35.6859 17.9219 31.5469 22.061 31.5469 27.1487C31.5469 32.2364 35.686 36.3756 40.7736 36.3756C45.8613 36.3756 50.0005 32.2364 50.0005 27.1487C50.0005 22.061 45.8613 17.9219 40.7736 17.9219ZM40.7736 34.2271C36.8706 34.2271 33.6953 31.0518 33.6953 27.1487C33.6953 23.2457 36.8707 20.0703 40.7736 20.0703C44.6767 20.0703 47.8521 23.2457 47.8521 27.1487C47.8521 31.0518 44.6767 34.2271 40.7736 34.2271Z" fill="white"/>
<path d="M43.2514 24.4904L40.2157 27.5261L38.3026 25.613C37.883 25.1935 37.203 25.1935 36.7834 25.613C36.3639 26.0325 36.3639 26.7127 36.7834 27.1322L39.4561 29.8049C39.6658 30.0146 39.9407 30.1195 40.2156 30.1195C40.4905 30.1195 40.7654 30.0146 40.9752 29.8049L44.7704 26.0097C45.1899 25.5901 45.1899 24.91 44.7704 24.4904C44.351 24.0709 43.671 24.0709 43.2514 24.4904Z" fill="white"/>
<path d="M13.9648 10.8594H9.66797C9.07471 10.8594 8.59375 11.3403 8.59375 11.9336V16.2305C8.59375 16.8237 9.07471 17.3047 9.66797 17.3047H13.9648C14.5581 17.3047 15.0391 16.8237 15.0391 16.2305V11.9336C15.0391 11.3403 14.5581 10.8594 13.9648 10.8594ZM12.8906 15.1562H10.7422V13.0078H12.8906V15.1562Z" fill="white"/>
<path d="M13.9648 19.5703H9.66797C9.07471 19.5703 8.59375 20.0513 8.59375 20.6445V24.9414C8.59375 25.5347 9.07471 26.0156 9.66797 26.0156H13.9648C14.5581 26.0156 15.0391 25.5347 15.0391 24.9414V20.6445C15.0391 20.0513 14.5581 19.5703 13.9648 19.5703ZM12.8906 23.8672H10.7422V21.7188H12.8906V23.8672Z" fill="white"/>
<path d="M13.9648 28.2812H9.66797C9.07471 28.2812 8.59375 28.7622 8.59375 29.3555V33.6523C8.59375 34.2456 9.07471 34.7266 9.66797 34.7266H13.9648C14.5581 34.7266 15.0391 34.2456 15.0391 33.6523V29.3555C15.0391 28.7622 14.5581 28.2812 13.9648 28.2812ZM12.8906 32.5781H10.7422V30.4297H12.8906V32.5781Z" fill="white"/>
<path d="M13.9648 36.9922H9.66797C9.07471 36.9922 8.59375 37.4731 8.59375 38.0664V42.3633C8.59375 42.9565 9.07471 43.4375 9.66797 43.4375H13.9648C14.5581 43.4375 15.0391 42.9565 15.0391 42.3633V38.0664C15.0391 37.4731 14.5581 36.9922 13.9648 36.9922ZM12.8906 41.2891H10.7422V39.1406H12.8906V41.2891Z" fill="white"/>
</g>
<defs>
<clipPath id="clip0_151_6258">
<rect width="50" height="50" fill="white"/>
</clipPath>
</defs>
</svg>
