<svg width="46" height="46" viewBox="0 0 46 46" fill="none" xmlns="http://www.w3.org/2000/svg">
<g clip-path="url(#clip0_151_6121)">
<path d="M15.1022 19.6052H14.1411L9.62836 8.27661C9.62677 8.27266 9.62467 8.26897 9.62308 8.26501C9.61631 8.24858 9.60858 8.23267 9.60093 8.21667C9.59461 8.20358 9.58863 8.19022 9.58177 8.17747C9.57421 8.16332 9.56569 8.14979 9.55743 8.13608C9.54925 8.12245 9.54143 8.10865 9.53264 8.09556C9.52438 8.08325 9.51524 8.07156 9.50636 8.05952C9.49652 8.04625 9.48703 8.03272 9.47657 8.01997C9.46672 8.00802 9.456 7.99686 9.44563 7.98534C9.43517 7.97383 9.42498 7.96188 9.41399 7.95089C9.40195 7.93885 9.38885 7.9276 9.37611 7.91608C9.36574 7.90677 9.35572 7.89701 9.345 7.88822C9.33137 7.87697 9.31678 7.86669 9.30246 7.85614C9.29147 7.84806 9.28075 7.83962 9.2695 7.83206C9.25561 7.82274 9.24102 7.8144 9.22661 7.80578C9.2136 7.79805 9.20085 7.79005 9.18758 7.78284C9.17422 7.77572 9.16034 7.7694 9.14654 7.7628C9.13116 7.75542 9.11578 7.74804 9.10004 7.74153C9.09591 7.73986 9.09222 7.73767 9.08809 7.73608C9.07833 7.73222 9.06849 7.72958 9.05873 7.72606C9.04247 7.72018 9.02621 7.71438 9.00969 7.70937C8.99501 7.70488 8.98034 7.70119 8.96557 7.6975C8.94975 7.69354 8.93393 7.68968 8.91793 7.68651C8.90255 7.68344 8.88708 7.68106 8.8717 7.67869C8.85597 7.67632 8.84024 7.67421 8.82433 7.67263C8.80895 7.67113 8.79357 7.67017 8.77819 7.66937C8.76193 7.66858 8.74567 7.66797 8.72941 7.66797C8.71455 7.66797 8.6997 7.6685 8.68493 7.6692C8.66815 7.66999 8.65145 7.67105 8.63466 7.67271C8.62016 7.67421 8.60583 7.67614 8.59142 7.67825C8.57472 7.68071 8.55802 7.68335 8.54132 7.68669C8.52655 7.68968 8.51205 7.69319 8.49746 7.69689C8.48164 7.70084 8.46573 7.70488 8.45 7.70972C8.43445 7.71446 8.41924 7.71991 8.40395 7.72545C8.39358 7.72914 8.38303 7.73195 8.37266 7.73608C8.36826 7.73784 8.36431 7.74013 8.36 7.74188C8.34506 7.74812 8.33056 7.75516 8.31597 7.76201C8.30138 7.76896 8.2867 7.77563 8.27255 7.78319C8.26007 7.78987 8.24812 7.79743 8.2359 7.80473C8.22069 7.81378 8.20531 7.82257 8.19072 7.83241C8.18018 7.83953 8.17016 7.84744 8.15987 7.85491C8.14484 7.8659 8.12955 7.87671 8.11531 7.88849C8.10512 7.89684 8.09562 7.90607 8.08578 7.91485C8.07242 7.92681 8.05889 7.9385 8.04632 7.95107C8.03568 7.9617 8.02584 7.9733 8.01564 7.98446C8.00492 7.99624 7.99385 8.00775 7.98383 8.02006C7.97355 8.03254 7.96414 8.0459 7.95447 8.059C7.94551 8.07112 7.93619 8.08308 7.92775 8.09556C7.91905 8.10857 7.91123 8.12228 7.90314 8.13572C7.89479 8.14952 7.88627 8.16323 7.87862 8.17747C7.87186 8.19022 7.86579 8.20349 7.85955 8.21658C7.8519 8.23258 7.84417 8.24858 7.8374 8.26501C7.83573 8.26897 7.83371 8.27257 7.83213 8.27653L3.31919 19.6052H2.3581C1.81327 19.6052 1.29823 19.8432 0.945079 20.2581C0.589912 20.6753 0.436454 21.2255 0.524169 21.7677C0.836007 23.6957 1.82733 25.4618 3.31541 26.7406C4.82037 28.0339 6.74333 28.7461 8.73011 28.7461C10.7169 28.7461 12.6399 28.0338 14.1448 26.7406C15.6329 25.4618 16.6241 23.6957 16.9361 21.7677C17.0238 21.2256 16.8703 20.6753 16.5151 20.2581C16.1621 19.8432 15.647 19.6052 15.1022 19.6052ZM8.73011 11.247L12.0597 19.6052H5.40054L8.73011 11.247ZM12.8846 25.274C11.7302 26.266 10.2548 26.8124 8.73011 26.8124C7.20547 26.8124 5.73004 26.266 4.57559 25.274C3.45358 24.3099 2.69965 22.986 2.44635 21.5388H15.0139C14.7606 22.986 14.0066 24.3099 12.8846 25.274Z" fill="white"/>
<path d="M45.0541 20.2579C44.701 19.8431 44.1859 19.6051 43.6411 19.6051H42.68L38.1672 8.27653C38.1657 8.27257 38.1636 8.26897 38.162 8.26501C38.1552 8.24858 38.1475 8.23258 38.1397 8.2165C38.1335 8.2034 38.1275 8.19022 38.1207 8.17747C38.1131 8.16323 38.1046 8.14952 38.0962 8.13564C38.0881 8.12219 38.0803 8.10848 38.0717 8.09556C38.0633 8.08299 38.054 8.07104 38.0449 8.05891C38.0352 8.0459 38.0259 8.03254 38.0156 8.02006C38.0056 8.00793 37.9947 7.9965 37.9841 7.98482C37.9738 7.97348 37.9639 7.96179 37.9531 7.95098C37.9408 7.93876 37.9277 7.92742 37.9147 7.91573C37.9045 7.90659 37.8946 7.89701 37.8841 7.88831C37.8703 7.87697 37.8557 7.8666 37.8413 7.85606C37.8304 7.84806 37.8197 7.83971 37.8086 7.83215C37.7947 7.82283 37.78 7.81448 37.7655 7.80578C37.7526 7.79805 37.7398 7.79005 37.7266 7.78293C37.7132 7.77572 37.6992 7.76948 37.6854 7.76289C37.67 7.75551 37.6547 7.74813 37.6389 7.74162C37.6348 7.73995 37.6311 7.73775 37.627 7.73617C37.6173 7.73231 37.6074 7.72976 37.5977 7.72615C37.5814 7.72026 37.5651 7.71446 37.5486 7.70937C37.534 7.70497 37.5193 7.70119 37.5046 7.6975C37.4887 7.69346 37.4728 7.68959 37.4567 7.68643C37.4414 7.68335 37.4261 7.68098 37.4107 7.67869C37.3949 7.67632 37.379 7.67421 37.3631 7.67263C37.3477 7.67113 37.3325 7.67017 37.3172 7.66937C37.3009 7.66858 37.2846 7.66797 37.2683 7.66797C37.2534 7.66797 37.2386 7.6685 37.2237 7.6692C37.207 7.66999 37.1903 7.67105 37.1736 7.67271C37.159 7.67421 37.1445 7.67614 37.1301 7.67825C37.1135 7.68071 37.097 7.68326 37.0804 7.6866C37.0654 7.68959 37.0507 7.69319 37.0359 7.69689C37.0203 7.70084 37.0046 7.7048 36.9891 7.70954C36.9732 7.71438 36.9577 7.71991 36.9421 7.72554C36.9319 7.72923 36.9216 7.73195 36.9115 7.736C36.9072 7.73767 36.9033 7.73995 36.8991 7.74171C36.8838 7.74804 36.8689 7.75524 36.8541 7.76236C36.8398 7.76913 36.8255 7.77564 36.8117 7.78302C36.7988 7.78996 36.7864 7.79778 36.7737 7.80525C36.759 7.81404 36.744 7.82266 36.7299 7.83215C36.7188 7.83962 36.7083 7.84788 36.6975 7.85579C36.683 7.86643 36.6683 7.87689 36.6545 7.88822C36.6437 7.89701 36.6337 7.90677 36.6233 7.91608C36.6106 7.9276 36.5975 7.93876 36.5855 7.95089C36.5744 7.96196 36.5641 7.974 36.5536 7.98569C36.5433 7.99703 36.5326 8.00811 36.5229 8.01997C36.5123 8.0328 36.5028 8.04652 36.4928 8.05987C36.4841 8.07174 36.475 8.08325 36.4668 8.09547C36.4579 8.10865 36.45 8.12263 36.4418 8.13634C36.4336 8.14996 36.4252 8.16341 36.4177 8.17738C36.4108 8.19022 36.4048 8.20358 36.3984 8.21685C36.3908 8.23276 36.3831 8.24866 36.3764 8.26501C36.3747 8.26897 36.3727 8.27257 36.3711 8.27661L31.8583 19.6052H30.8972C30.3523 19.6052 29.8373 19.8432 29.4841 20.2581C29.129 20.6753 28.9755 21.2255 29.0632 21.7677C29.3751 23.6957 30.3664 25.4618 31.8545 26.7406C33.3594 28.0339 35.2824 28.7461 37.2692 28.7461C39.2559 28.7461 41.179 28.0338 42.6839 26.7406C44.172 25.4618 45.1633 23.6957 45.4751 21.7677C45.5627 21.2254 45.4093 20.6752 45.0541 20.2579ZM37.269 11.2469L40.5986 19.6051H33.9394L37.269 11.2469ZM41.4235 25.2739C40.2691 26.266 38.7936 26.8123 37.269 26.8123C35.7444 26.8123 34.2689 26.266 33.1145 25.2739C31.9925 24.3098 31.2385 22.9859 30.9852 21.5387H43.5528C43.2995 22.9859 42.5455 24.3098 41.4235 25.2739Z" fill="white"/>
<path d="M39.976 6.85211H26.0682C25.6454 5.56292 24.4314 4.62891 23.0027 4.62891C21.574 4.62891 20.3599 5.56292 19.9372 6.85211H6.0293C5.49536 6.85211 5.0625 7.28497 5.0625 7.81891C5.0625 8.35285 5.49536 8.78571 6.0293 8.78571H19.7768V31.0218H17.8185C16.0615 31.0218 14.6321 32.4512 14.6321 34.2082V35.2227H13.661C12.7723 35.2227 12.0493 35.9457 12.0493 36.8344V39.7567C12.0493 40.6454 12.7723 41.3684 13.661 41.3684H32.3443C33.233 41.3684 33.956 40.6454 33.956 39.7567V36.8344C33.956 35.9457 33.233 35.2227 32.3443 35.2227H31.3732V34.2082C31.3732 32.4512 29.9437 31.0218 28.1868 31.0218H26.2285V8.78571H39.976C40.5099 8.78571 40.9428 8.35285 40.9428 7.81891C40.9428 7.28497 40.5099 6.85211 39.976 6.85211ZM23.0026 6.56242C23.7152 6.56242 24.2949 7.14215 24.2949 7.85468C24.2949 8.56721 23.7152 9.14694 23.0026 9.14694C22.2901 9.14694 21.7104 8.56721 21.7104 7.85468C21.7104 7.14215 22.2901 6.56242 23.0026 6.56242ZM32.0224 39.4347H13.9829V37.1563H32.0224V39.4347ZM29.4396 34.2082V35.2227H16.5658V34.2082C16.5658 33.5174 17.1277 32.9554 17.8186 32.9554H28.1868C28.8775 32.9554 29.4396 33.5174 29.4396 34.2082ZM21.7104 31.0218V10.8095C22.1063 10.9833 22.5432 11.0805 23.0026 11.0805C23.462 11.0805 23.8989 10.9833 24.2949 10.8096V31.0219H21.7104V31.0218Z" fill="white"/>
</g>
<defs>
<clipPath id="clip0_151_6121">
<rect width="45" height="45" fill="white" transform="translate(0.5 0.5)"/>
</clipPath>
</defs>
</svg>
