<svg width="46" height="46" viewBox="0 0 46 46" fill="none" xmlns="http://www.w3.org/2000/svg">
<g clip-path="url(#clip0_151_6246)">
<path d="M32.7497 43.5157H13.228L12.821 39.4668L10.8984 39.6601L11.3929 44.5784C11.4425 45.0721 11.858 45.4478 12.3542 45.4478H33.6235C34.1197 45.4478 34.5352 45.072 34.5848 44.5784L35.0793 39.6601L33.1567 39.4668L32.7497 43.5157Z" fill="white"/>
<path d="M38.6868 6.45465H37.4613L34.4688 0.984879C34.2993 0.675114 33.9743 0.482422 33.6213 0.482422H12.3519C11.9988 0.482422 11.6738 0.675026 11.5044 0.984879L8.51194 6.45465H7.28641C6.75286 6.45465 6.32031 6.88719 6.32031 7.42074V11.9877C6.32031 12.5213 6.75286 12.9538 7.28641 12.9538H8.21078L8.61786 17.0027L10.5404 16.8094L10.1527 12.9538H35.8205L35.4328 16.8093L37.3553 17.0026L37.7624 12.9538H38.6868C39.2203 12.9538 39.6529 12.5213 39.6529 11.9877V7.42074C39.6529 6.88719 39.2203 6.45465 38.6868 6.45465ZM8.2525 8.38683H37.7206V11.0216H8.2525V8.38683ZM12.9246 2.41461H33.0486L35.2589 6.45465H10.7144L12.9246 2.41461Z" fill="white"/>
<path d="M37.7694 16.2575C37.5863 16.0549 37.3259 15.9395 37.0529 15.9395H8.92705C8.654 15.9395 8.39368 16.0549 8.21056 16.2575C8.02744 16.46 7.93847 16.7305 7.96579 17.0022L10.2441 39.6615C10.2937 40.1551 10.7092 40.5309 11.2054 40.5309H34.7746C35.2707 40.5309 35.6862 40.1551 35.7358 39.6615L38.0142 17.0022C38.0414 16.7305 37.9525 16.46 37.7694 16.2575ZM33.9007 38.5988H12.0792L9.9952 17.8716H35.9847L33.9007 38.5988Z" fill="white"/>
<path d="M19.0936 34.4695H26.8837C27.9186 34.4695 28.8452 33.9344 29.3627 33.0382C29.8801 32.142 29.8802 31.0719 29.3627 30.1757L25.4677 23.4294C24.9502 22.5331 24.0235 21.998 22.9887 21.998C21.9538 21.998 21.0271 22.5331 20.5097 23.4293L16.6146 30.1756C16.0972 31.0719 16.0972 32.142 16.6146 33.0381C17.132 33.9344 18.0588 34.4695 19.0936 34.4695ZM18.288 31.1418L22.183 24.3955C22.4254 23.9756 22.8272 23.9303 22.9887 23.9303C23.1502 23.9303 23.552 23.9756 23.7943 24.3955L27.6893 31.1418C27.9317 31.5616 27.77 31.9322 27.6893 32.0721C27.6086 32.212 27.3684 32.5373 26.8837 32.5373H19.0936C18.6088 32.5373 18.3687 32.212 18.288 32.0721C18.2072 31.9322 18.0455 31.5616 18.288 31.1418Z" fill="white"/>
</g>
<defs>
<clipPath id="clip0_151_6246">
<rect width="44.9673" height="44.9673" fill="white" transform="translate(0.5 0.482422)"/>
</clipPath>
</defs>
</svg>
