<svg width="46" height="46" viewBox="0 0 46 46" fill="none" xmlns="http://www.w3.org/2000/svg">
<g clip-path="url(#clip0_151_6054)">
<path d="M41.6704 22.4012C40.2834 21.0326 38.0326 21.039 36.6536 22.4153L30.3041 28.7511C30.1293 28.3805 29.8923 28.0379 29.5978 27.7373C28.9088 27.034 27.9933 26.6467 27.0193 26.6467C27.0193 26.6467 27.0189 26.6467 27.0188 26.6467L23.9005 26.647C22.8055 26.6471 21.7271 26.3505 20.7822 25.7893C19.493 25.0239 18.0209 24.6193 16.5251 24.6193C14.0851 24.6193 11.7965 25.5695 10.0809 27.2951C9.22799 28.153 8.23114 29.1534 7.24562 30.1413L7.15026 30.046C6.77268 29.6684 6.16052 29.6684 5.78294 30.046L1.70499 34.1239C1.3275 34.5015 1.3275 35.1137 1.70499 35.4912L11.4279 45.2141C11.6167 45.4029 11.8641 45.4973 12.1115 45.4973C12.3589 45.4973 12.6063 45.4029 12.7951 45.2141L16.8731 41.1362C17.2506 40.7586 17.2506 40.1464 16.8731 39.7689L16.7915 39.6873C17.1857 39.3988 17.6594 39.2426 18.1573 39.2426H26.7739C28.7582 39.2426 30.6251 38.4715 32.031 37.0712L41.682 27.4596C42.3603 26.7842 42.7326 25.8851 42.7304 24.9278C42.7282 23.9706 42.3518 23.0734 41.6704 22.4012ZM12.1116 43.1633L3.75592 34.8076L6.46664 32.0969L14.8223 40.4526L12.1116 43.1633ZM40.3177 26.0897L30.6666 35.7013C29.6256 36.738 28.2432 37.309 26.774 37.309H18.1574C17.1423 37.309 16.1821 37.6632 15.4159 38.3116L8.61284 31.5086C9.59968 30.5192 10.598 29.5174 11.4522 28.6584C12.8021 27.3005 14.6037 26.5528 16.5251 26.5528C17.6737 26.5528 18.8044 26.8637 19.795 27.4518C21.0386 28.1902 22.4583 28.5805 23.9007 28.5804L27.0192 28.5801C27.469 28.58 27.8942 28.7613 28.2165 29.0902C28.5427 29.4233 28.7223 29.8636 28.7223 30.3301C28.7223 30.7692 28.5513 31.1852 28.2406 31.5013C27.9324 31.8149 27.5269 31.9876 27.0984 31.9876C27.0984 31.9876 27.0983 31.9876 27.0982 31.9876L20.2317 31.9866H20.2316C19.6978 31.9866 19.2649 32.4194 19.2648 32.9533C19.2647 33.4872 19.6975 33.9201 20.2315 33.9202L27.0979 33.9212H27.0985C28.0499 33.9212 28.9454 33.543 29.6199 32.8565C30.0666 32.402 30.3783 31.8501 30.5364 31.2508L38.0195 23.7839C38.6498 23.1549 39.6785 23.1518 40.3125 23.7774C40.6239 24.0847 40.796 24.4948 40.7971 24.9323C40.798 25.37 40.6277 25.7809 40.3177 26.0897Z" fill="white"/>
<path fill-rule="evenodd" clip-rule="evenodd" d="M18.4766 10.9259C17.8767 11.5275 17.063 11.8656 16.2145 11.8656H14.0107V12.4164H16.0215C16.4032 12.4164 16.7121 12.7267 16.7121 13.1087C16.7121 13.4907 16.4032 13.8009 16.0215 13.8009H14.0107V14.657C14.0107 15.039 13.7018 15.3492 13.3201 15.3492C12.9385 15.3492 12.6296 15.039 12.6296 14.657V13.8009H11.7765C11.3948 13.8009 11.0859 13.4907 11.0859 13.1087C11.0859 12.7267 11.3948 12.4164 11.7765 12.4164H12.6296V11.8656H11.7765C11.3948 11.8656 11.0859 11.5553 11.0859 11.1734C11.0859 10.7914 11.3948 10.4811 11.7765 10.4811H12.6296V6.14147C12.6296 5.75946 12.9385 5.44922 13.3201 5.44922H16.2145C17.063 5.44922 17.8767 5.7873 18.4767 6.389C19.0765 6.99067 19.4135 7.80665 19.4135 8.65741C19.4135 9.50816 19.0765 10.3242 18.4766 10.9259ZM18.0324 8.65741C18.0324 9.1412 17.8408 9.60511 17.4998 9.94705C17.1589 10.289 16.6965 10.4811 16.2145 10.4811H14.0107V6.83373H16.2145C16.6965 6.83373 17.1589 7.02579 17.4998 7.36776C17.8408 7.70974 18.0324 8.17363 18.0324 8.65741Z" fill="white"/>
<path d="M15.1504 20.3633C9.67401 20.3633 5.21875 15.908 5.21875 10.4316C5.21875 4.95526 9.67401 0.5 15.1504 0.5C20.6268 0.5 25.082 4.95526 25.082 10.4316C25.082 15.908 20.6268 20.3633 15.1504 20.3633ZM15.1504 2.43359C10.7402 2.43359 7.15234 6.02146 7.15234 10.4316C7.15234 14.8418 10.7402 18.4297 15.1504 18.4297C19.5606 18.4297 23.1484 14.8418 23.1484 10.4316C23.1484 6.02146 19.5606 2.43359 15.1504 2.43359Z" fill="white"/>
<path d="M43.6112 9.26172H40.8491C40.3151 9.26172 39.8823 9.69458 39.8823 10.2285C39.8823 10.7625 40.3151 11.1953 40.8491 11.1953H41.2771L36.6303 15.8422L33.2354 12.4472C32.8577 12.0696 32.2457 12.0696 31.8681 12.4472L21.9862 22.3291C21.6088 22.7067 21.6088 23.3189 21.9862 23.6964C22.175 23.8852 22.4224 23.9796 22.6699 23.9796C22.9173 23.9796 23.1647 23.8852 23.3535 23.6964L32.5518 14.4982L35.9467 17.8931C36.3244 18.2707 36.9363 18.2707 37.314 17.8931L42.6444 12.5627V12.9907C42.6444 13.5247 43.0773 13.9575 43.6112 13.9575C44.1451 13.9575 44.578 13.5247 44.578 12.9907V10.2286C44.578 9.69458 44.1451 9.26172 43.6112 9.26172Z" fill="white"/>
</g>
<defs>
<clipPath id="clip0_151_6054">
<rect width="45" height="45" fill="white" transform="translate(0.5 0.5)"/>
</clipPath>
</defs>
</svg>
