<svg width="46" height="46" viewBox="0 0 46 46" fill="none" xmlns="http://www.w3.org/2000/svg">
<g clip-path="url(#clip0_151_6113)">
<path d="M42.8257 3.17117C41.1031 1.4486 38.8129 0.5 36.3769 0.5C33.9408 0.5 31.6507 1.4486 29.9281 3.17117L24.2422 8.85708L25.6095 10.2244L31.2954 4.53849C32.6527 3.1811 34.4573 2.43359 36.3769 2.43359C38.2964 2.43359 40.1011 3.1811 41.4584 4.53849C44.2603 7.34044 44.2603 11.8995 41.4584 14.7015L35.7725 20.3874L37.1398 21.7547L42.8257 16.0688C46.3815 12.5129 46.3815 6.72705 42.8257 3.17117Z" fill="white"/>
<path d="M38.1083 21.3534L24.6473 7.89256C24.2697 7.51498 23.6577 7.51498 23.28 7.89256L13.1345 18.0381C12.9532 18.2194 12.8513 18.4654 12.8513 18.7217C12.8513 18.9781 12.9531 19.224 13.1345 19.4054L16.2524 22.5233L1.93587 38.0303C1.58378 38.4116 1.59564 39.0029 1.96259 39.3698L3.61317 41.0204L0.783184 43.8504C0.405605 44.228 0.405605 44.8401 0.783184 45.2177C0.972061 45.4064 1.21938 45.5008 1.46688 45.5008C1.71438 45.5008 1.96171 45.4064 2.1505 45.2176L4.9804 42.3876L6.63099 44.0382C6.81942 44.2266 7.06684 44.3214 7.31469 44.3214C7.54962 44.3214 7.7849 44.2362 7.97044 44.0649L23.4775 29.7483L26.5954 32.8662C26.7842 33.055 27.0316 33.1494 27.279 33.1494C27.5265 33.1494 27.7739 33.055 27.9627 32.8662L38.1082 22.7207C38.2895 22.5394 38.3914 22.2934 38.3914 22.0371C38.3914 21.7807 38.2895 21.5348 38.1083 21.3534ZM7.34141 42.0142L3.98671 38.6595L5.82336 36.6701L9.33081 40.1775L7.34141 42.0142ZM10.7527 38.8648L7.13609 35.2482L17.6207 23.8916L22.1092 28.38L10.7527 38.8648ZM27.2791 30.8154L15.1854 18.7217L18.8909 15.0163L30.9846 27.1099L27.2791 30.8154ZM32.3519 25.7426L20.2582 13.649L23.9636 9.94349L36.0574 22.0372L32.3519 25.7426Z" fill="white"/>
</g>
<defs>
<clipPath id="clip0_151_6113">
<rect width="45" height="45" fill="white" transform="translate(0.5 0.5)"/>
</clipPath>
</defs>
</svg>
