<svg width="46" height="46" viewBox="0 0 46 46" fill="none" xmlns="http://www.w3.org/2000/svg">
<g clip-path="url(#clip0_151_6131)">
<path d="M18.7949 13.8953C18.261 13.8953 17.8281 13.4624 17.8281 12.9285V1.47237C17.8757 0.191017 19.7146 0.191984 19.7617 1.47237V12.9285C19.7617 13.4624 19.3289 13.8953 18.7949 13.8953Z" fill="white"/>
<path d="M27.2012 13.8953C26.6672 13.8953 26.2344 13.4624 26.2344 12.9285V1.47237C26.2819 0.191017 28.1209 0.191984 28.168 1.47237V12.9285C28.168 13.4624 27.7351 13.8953 27.2012 13.8953Z" fill="white"/>
<path d="M18.7949 44.0668C18.261 44.0668 17.8281 43.6339 17.8281 43.1V29.9919C17.8757 28.7105 19.7146 28.7115 19.7617 29.9919V43.1001C19.7617 43.6339 19.3289 44.0668 18.7949 44.0668Z" fill="white"/>
<path d="M27.2012 44.0397C26.6672 44.0397 26.2344 43.6069 26.2344 43.0729V29.9919C26.2819 28.7105 28.1209 28.7115 28.168 29.9919V43.0729C28.168 43.6069 27.7351 44.0397 27.2012 44.0397Z" fill="white"/>
<path d="M22.9981 45.4999C22.914 45.4999 22.8299 45.4889 22.7479 45.467C5.7899 41.1699 2.57275 25.9059 2.77429 11.0952C2.77411 10.5614 3.20689 10.1286 3.74091 10.1286C8.51706 10.1286 12.4027 6.24286 12.4027 1.4668C12.4027 0.932861 12.8356 0.5 13.3695 0.5H32.6267C33.1606 0.5 33.5935 0.932861 33.5935 1.4668C33.5935 6.24295 37.4791 10.1286 42.2553 10.1286C42.7892 10.1286 43.2221 10.5615 43.2221 11.0954C43.4267 25.9072 40.1961 41.1779 23.2483 45.467C23.1663 45.4889 23.0822 45.4999 22.9981 45.4999ZM4.71096 12.0181C4.81036 25.9147 7.27807 39.1873 22.9981 43.5312C38.718 39.1873 41.1857 25.9147 41.2851 12.0181C36.2143 11.5557 32.1646 7.50488 31.7036 2.43351H14.2925C13.8315 7.50488 9.78181 11.5557 4.71096 12.0181Z" fill="white"/>
<path d="M34.9008 13.2784H32.3662V11.6192C32.3662 11.3117 32.2199 11.0225 31.9721 10.8403C31.7244 10.6581 31.4048 10.6047 31.1111 10.6965L22.9963 13.2323L14.8816 10.6965C14.5879 10.6045 14.2683 10.6581 14.0205 10.8403C13.7727 11.0225 13.6264 11.3116 13.6264 11.6192V13.2784H11.0918C10.5579 13.2784 10.125 13.7113 10.125 14.2452V30.0011C10.125 30.5351 10.5579 30.9679 11.0918 30.9679H34.9008C35.4347 30.9679 35.8675 30.5351 35.8675 30.0011V14.2452C35.8675 13.7113 35.4347 13.2784 34.9008 13.2784ZM23.9631 14.956L30.4327 12.9342V25.3513L23.9631 27.3731V14.956ZM22.0295 14.956V27.3731L15.56 25.3513V14.3766C15.5729 14.2909 15.5729 14.1995 15.56 14.1138V12.9342L22.0295 14.956ZM12.0586 15.212H13.6264V26.0621C13.6264 26.485 13.9012 26.8588 14.3048 26.985L20.8629 29.0344H12.0586V15.212ZM33.934 29.0343H25.1297L31.6878 26.9849C32.0914 26.8587 32.3662 26.4849 32.3662 26.062V15.2119H33.934V29.0343Z" fill="white"/>
</g>
<defs>
<clipPath id="clip0_151_6131">
<rect width="45" height="45" fill="white" transform="translate(0.5 0.5)"/>
</clipPath>
</defs>
</svg>
