<svg width="100" height="100" viewBox="0 0 100 100" fill="none" xmlns="http://www.w3.org/2000/svg">
<g clip-path="url(#clip0_47_173)">
<path d="M75.7812 0.000976562H24.2188C23.0322 0.000976562 22.0703 0.962891 22.0703 2.14941V41.4967H26.3672V4.29785H73.6328V41.4967H77.9297V2.14941C77.9297 0.962891 76.9678 0.000976562 75.7812 0.000976562Z" fill="#fff"/>
<path d="M65.625 25.9497H34.375C33.1885 25.9497 32.2266 26.9116 32.2266 28.0981C32.2266 29.2847 33.1885 30.2466 34.375 30.2466H65.625C66.8115 30.2466 67.7734 29.2847 67.7734 28.0981C67.7734 26.9116 66.8115 25.9497 65.625 25.9497Z" fill="#fff"/>
<path d="M43.527 34.5435H34.375C33.1885 34.5435 32.2266 35.5054 32.2266 36.6919C32.2266 37.8784 33.1885 38.8403 34.375 38.8403H43.527C44.7135 38.8403 45.6754 37.8784 45.6754 36.6919C45.6754 35.5054 44.7137 34.5435 43.527 34.5435Z" fill="#fff"/>
<path d="M98.9258 27.2544C98.2609 26.8706 97.4422 26.8706 96.7773 27.2544L70.3937 42.487C69.3662 43.0804 69.0143 44.3942 69.6074 45.4218L69.6406 45.4792L67.0859 46.9216C65.7023 47.7028 64.0221 47.7571 62.591 47.0679L55.0881 43.453C51.8625 41.8993 48.0863 42.0403 44.9857 43.8302L36.0205 49.0063L30.2475 45.6733L30.3926 45.422C30.9857 44.3944 30.6336 43.0804 29.6063 42.4872L3.22266 27.2544C2.55781 26.8706 1.73906 26.8706 1.07422 27.2544C0.40957 27.6382 0 28.3474 0 29.1149V63.0284C0 63.796 0.40957 64.5054 1.07422 64.889L12.7729 71.6433C13.1023 71.8335 13.4732 71.9312 13.8471 71.9312C14.0332 71.9312 14.2201 71.9069 14.4031 71.8579C14.916 71.7206 15.3562 71.397 15.6447 70.9546L18.8693 72.8163C18.1314 74.5825 18.1941 76.6606 19.223 78.4425C20.0277 79.836 21.2848 80.8087 22.7023 81.2835C22.4051 82.7483 22.618 84.3226 23.4223 85.7159C24.5969 87.7501 26.7348 88.8884 28.9303 88.8884C29.2125 88.8884 29.4955 88.8685 29.7777 88.8302C29.8758 89.6815 30.1469 90.5118 30.5881 91.2761C31.4357 92.7444 32.8047 93.7948 34.4422 94.2337C34.9893 94.3802 35.5441 94.4528 36.0955 94.4528C36.3871 94.4528 36.6775 94.4312 36.9654 94.3907C37.0619 95.2253 37.3256 96.0538 37.7717 96.8265C38.9463 98.8606 41.0842 99.9989 43.2797 99.9989C44.3557 99.9989 45.4457 99.7253 46.4426 99.1497L47.8508 98.3366C48.5258 97.947 49.1105 97.4442 49.5898 96.8593L53.557 99.1497C54.5541 99.7253 55.6437 99.9989 56.7199 99.9989C58.9152 99.9987 61.0535 98.8603 62.2279 96.8263C62.674 96.0536 62.9377 95.2253 63.0342 94.3907C63.3221 94.4312 63.6125 94.4528 63.9041 94.4528C64.4553 94.4528 65.0105 94.3802 65.5574 94.2337C67.1951 93.7948 68.5641 92.7444 69.4115 91.2763C69.8529 90.5118 70.1238 89.6815 70.2219 88.8302C70.5041 88.8683 70.7871 88.8882 71.0693 88.8882C73.2646 88.888 75.4029 87.7495 76.5773 85.7155C77.3816 84.3224 77.5945 82.7481 77.2971 81.2833C78.7148 80.8085 79.9721 79.8358 80.7766 78.4423C81.8418 76.597 81.8723 74.4337 81.0492 72.6284L84.2482 70.7815L84.2918 70.8569C84.5768 71.3503 85.0459 71.7104 85.5965 71.8579C85.7795 71.9069 85.9664 71.9312 86.1525 71.9312C86.5264 71.9312 86.8973 71.8335 87.2268 71.6433L98.9254 64.889C99.59 64.5052 99.9996 63.796 99.9996 63.0284V29.1149C100 28.3474 99.5904 27.6382 98.9258 27.2544ZM4.29688 61.788V32.8362L25.5973 45.1339L13.0607 66.8479L4.29688 61.788ZM23.6949 73.4925L26.0396 72.1388C26.3568 71.9556 26.7062 71.8624 27.0604 71.8624C27.2613 71.8624 27.4637 71.8925 27.6627 71.953C28.2119 72.1204 28.6537 72.4966 28.9064 73.012C29.3795 73.9769 29.0211 75.1532 28.0906 75.6907L25.7457 77.0446C24.7662 77.6103 23.5094 77.2731 22.9441 76.294C22.3789 75.3147 22.7158 74.0579 23.6949 73.4925ZM27.1436 83.5673C26.5781 82.588 26.915 81.3312 27.8943 80.7657L31.3494 78.7708C32.3287 78.2054 33.5854 78.5421 34.151 79.5214C34.7162 80.5007 34.3795 81.7571 33.4006 82.3228L29.9451 84.3179C28.9656 84.8833 27.7086 84.5464 27.1436 83.5673ZM35.5545 90.0833C35.0254 89.9415 34.5832 89.6022 34.3094 89.1276C34.0355 88.6532 33.9627 88.1007 34.1043 87.5716C34.2463 87.0425 34.5855 86.6003 35.06 86.3265L37.5561 84.8855C37.8721 84.703 38.2227 84.6099 38.5779 84.6099C38.7561 84.6099 38.9355 84.6333 39.1121 84.6806C39.6412 84.8224 40.0834 85.1616 40.3572 85.6362C40.6311 86.1106 40.7039 86.6632 40.5623 87.1923C40.4203 87.7214 40.0811 88.1636 39.6066 88.4374L37.1105 89.8784C36.6363 90.1524 36.084 90.2251 35.5545 90.0833ZM46.7023 93.1626C46.6045 93.7757 46.24 94.3052 45.7025 94.6155L44.2943 95.4286C43.3156 95.9937 42.0586 95.6573 41.493 94.678C40.9275 93.6985 41.2643 92.4419 42.2436 91.8765L43.6518 91.0634C44.4871 90.5812 45.5605 90.7522 46.2043 91.4706C46.6187 91.9331 46.8 92.5497 46.7023 93.1626ZM77.0557 76.2938C76.49 77.2733 75.2334 77.6099 74.2541 77.0446L63.943 71.0915C62.9154 70.4983 61.6014 70.8505 61.0082 71.8778C60.415 72.9054 60.7672 74.2194 61.7945 74.8126L72.1057 80.7657C73.085 81.3312 73.4217 82.588 72.8564 83.5671C72.2908 84.5466 71.0342 84.8829 70.0549 84.3179L59.7438 78.3647C58.716 77.7718 57.4023 78.1237 56.809 79.1511C56.2158 80.1786 56.568 81.4927 57.5953 82.0858L64.9414 86.327C65.415 86.6011 65.7539 87.0429 65.8955 87.5714C66.0373 88.1005 65.9645 88.6532 65.6904 89.1276C65.4166 89.6021 64.9744 89.9413 64.4453 90.0831C63.9156 90.2251 63.3633 90.1522 62.8891 89.8782L55.5445 85.6378C54.5172 85.0446 53.2031 85.3968 52.6098 86.4241C52.0166 87.4517 52.3688 88.7657 53.3961 89.3589L57.7568 91.8767C58.7355 92.4421 59.0721 93.6985 58.5068 94.6776C57.9416 95.6569 56.6846 95.9939 55.7055 95.4284L51.0236 92.7253C50.9988 91.2118 50.4348 89.7528 49.4043 88.603C48.2324 87.2954 46.6004 86.5743 44.9289 86.505C44.9045 85.4552 44.6182 84.4222 44.0785 83.4874C43.2309 82.019 41.8619 80.9687 40.2244 80.5298C39.7254 80.396 39.2197 80.3249 38.716 80.3132C38.6807 79.3101 38.408 78.3013 37.8721 77.3729C36.883 75.6603 35.2109 74.5829 33.3967 74.2851C33.4613 73.2233 33.2617 72.1341 32.7646 71.1204C31.9936 69.5476 30.5902 68.3528 28.9146 67.8425C27.2389 67.3321 25.4082 67.5417 23.8912 68.4175L21.8678 69.5856L17.7982 67.236L28.099 49.3942L32.3609 51.8548C31.9139 52.4958 31.5772 53.2167 31.3697 53.9944C30.9016 55.7501 31.1459 57.5823 32.058 59.1536C33.9332 62.3851 38.0918 63.4942 41.3275 61.6263L48.5398 57.4622L76.3049 73.4925C77.2842 74.0579 77.6211 75.3147 77.0557 76.2938ZM77.9289 69.4685L49.6141 53.1208C49.2816 52.929 48.9107 52.8329 48.5398 52.8329C48.1689 52.8329 47.7979 52.9288 47.4656 53.1208L39.1791 57.9052C37.9906 58.5915 36.4631 58.1839 35.7742 56.997C35.4391 56.4198 35.3494 55.7468 35.5213 55.102C35.6934 54.4571 36.1063 53.9183 36.6844 53.5845L47.134 47.5513C49.0023 46.4724 51.2789 46.3876 53.2229 47.3239L60.7258 50.9388C63.4234 52.2384 66.5904 52.1353 69.1981 50.6632L71.7889 49.2005L82.1002 67.0601L77.9289 69.4685ZM95.7031 61.788L86.9393 66.8478L74.4027 45.1339L95.7031 32.8362V61.788Z" fill="#fff"/>
<path d="M65.625 21.4854H34.375C33.1885 21.4854 32.2266 20.5234 32.2266 19.3369V10.7432C32.2266 9.55664 33.1885 8.59473 34.375 8.59473H65.625C66.8115 8.59473 67.7734 9.55664 67.7734 10.7432V19.3369C67.7734 20.5234 66.8115 21.4854 65.625 21.4854ZM36.5234 17.1885H63.4766V12.8916H36.5234V17.1885Z" fill="#fff"/>
</g>
<defs>
<clipPath id="clip0_47_173">
<rect width="100" height="100" fill="white"/>
</clipPath>
</defs>
</svg>
