<svg width="46" height="46" viewBox="0 0 46 46" fill="none" xmlns="http://www.w3.org/2000/svg">
<g clip-path="url(#clip0_151_6228)">
<path fill-rule="evenodd" clip-rule="evenodd" d="M27.705 33.5193C26.9172 34.2303 25.8487 34.6299 24.7345 34.6299H21.8405V35.2809H24.4811C24.9823 35.2809 25.3878 35.6475 25.3878 36.099C25.3878 36.5504 24.9823 36.9171 24.4811 36.9171H21.8405V37.9288C21.8405 38.3802 21.435 38.7469 20.9338 38.7469C20.4326 38.7469 20.027 38.3802 20.027 37.9288V36.9171H18.9068C18.4056 36.9171 18 36.5504 18 36.099C18 35.6475 18.4056 35.2809 18.9068 35.2809H20.027V34.6299H18.9068C18.4056 34.6299 18 34.2632 18 33.8118C18 33.3603 18.4056 32.9936 18.9068 32.9936H20.027V27.865C20.027 27.4135 20.4326 27.0469 20.9338 27.0469H24.7345C25.8487 27.0469 26.9172 27.4464 27.705 28.1575C28.4927 28.8686 28.9352 29.8329 28.9352 30.8384C28.9352 31.8438 28.4927 32.8082 27.705 33.5193ZM27.1216 30.8384C27.1216 31.4101 26.87 31.9584 26.4223 32.3625C25.9746 32.7666 25.3675 32.9936 24.7345 32.9936H21.8405V28.6831H24.7345C25.3675 28.6831 25.9746 28.9101 26.4223 29.3142C26.87 29.7184 27.1216 30.2666 27.1216 30.8384Z" fill="white"/>
<path d="M16.0405 26.9341H10.6851C10.1428 26.9341 9.70312 26.4944 9.70312 25.952V20.6305C9.70312 20.0881 10.1428 19.6484 10.6851 19.6484C11.2275 19.6484 11.6672 20.0881 11.6672 20.6305V24.97H15.0586V20.6305C15.0586 20.0881 15.4983 19.6484 16.0406 19.6484C16.583 19.6484 17.0226 20.0881 17.0226 20.6305V25.952C17.0225 26.4944 16.5828 26.9341 16.0405 26.9341Z" fill="white"/>
<path d="M35.2437 26.9341H29.8883C29.3459 26.9341 28.9062 26.4944 28.9062 25.952V20.6305C28.9062 20.0881 29.3459 19.6484 29.8883 19.6484C30.4306 19.6484 30.8703 20.0881 30.8703 20.6305V24.97H34.2618V20.6305C34.2618 20.0881 34.7015 19.6484 35.2438 19.6484C35.7862 19.6484 36.2259 20.0881 36.2259 20.6305V25.952C36.2257 26.4944 35.786 26.9341 35.2437 26.9341Z" fill="white"/>
<path d="M44.5106 9.63373H30.8058V4.36483C30.8058 3.82249 30.3661 3.38281 29.8238 3.38281H16.1686C15.6263 3.38281 15.1866 3.82249 15.1866 4.36483V9.63373H1.48202C0.939682 9.63373 0.5 10.0734 0.5 10.6157V15.2732V41.6307C0.5 42.1731 0.939682 42.6128 1.48202 42.6128H44.5106C45.0529 42.6128 45.4926 42.1731 45.4926 41.6307C45.5159 38.3565 45.4759 13.1564 45.4927 10.6157C45.4925 10.0734 45.0529 9.63373 44.5106 9.63373ZM17.1506 5.34685H28.8419V9.63373H17.1506V5.34685ZM2.46395 11.5977H43.5286V14.9157L39.5581 19.6474H6.40537L2.46395 14.9176V11.5977ZM2.46395 40.6488V17.9856L5.19108 21.2582C5.37769 21.482 5.65403 21.6115 5.94549 21.6115H40.016C40.3064 21.6115 40.5817 21.4831 40.7683 21.2608L43.5286 17.9712V40.6488H2.46395Z" fill="white"/>
</g>
<defs>
<clipPath id="clip0_151_6228">
<rect width="45" height="45" fill="white" transform="translate(0.5 0.5)"/>
</clipPath>
</defs>
</svg>
