<svg width="100" height="100" viewBox="0 0 100 100" fill="none" xmlns="http://www.w3.org/2000/svg">
<g clip-path="url(#clip0_47_477)">
<path fill-rule="evenodd" clip-rule="evenodd" d="M58.4099 73.3831C56.8344 74.9632 54.6974 75.8511 52.4689 75.8511H46.6811V77.2977H51.9622C52.9646 77.2977 53.7757 78.1126 53.7757 79.1158C53.7757 80.119 52.9646 80.9338 51.9622 80.9338H46.6811V83.182C46.6811 84.1852 45.8699 85 44.8676 85C43.8652 85 43.0541 84.1852 43.0541 83.182V80.9338H40.8135C39.8111 80.9338 39 80.119 39 79.1158C39 78.1126 39.8111 77.2977 40.8135 77.2977H43.0541V75.8511H40.8135C39.8111 75.8511 39 75.0363 39 74.0331C39 73.0299 39.8111 72.215 40.8135 72.215H43.0541V60.818C43.0541 59.8148 43.8652 59 44.8676 59H52.4689C54.6974 59 56.8345 59.8879 58.41 61.4681C59.9853 63.0483 60.8703 65.1912 60.8703 67.4256C60.8703 69.6599 59.9853 71.8029 58.4099 73.3831ZM57.2433 67.4256C57.2433 68.6961 56.74 69.9145 55.8446 70.8125C54.9492 71.7106 53.7349 72.215 52.4689 72.215H46.6811V62.6361H52.4689C53.7349 62.6361 54.9492 63.1405 55.8446 64.0386C56.7401 64.9367 57.2433 66.155 57.2433 67.4256Z" fill="#fff"/>
<path d="M34.5345 58.7448H22.6337C21.4285 58.7448 20.4514 57.7678 20.4514 56.5626V44.7368C20.4514 43.5316 21.4285 42.5546 22.6337 42.5546C23.8389 42.5546 24.8159 43.5316 24.8159 44.7368V54.3803H32.3525V44.7368C32.3525 43.5316 33.3296 42.5546 34.5347 42.5546C35.7399 42.5546 36.717 43.5316 36.717 44.7368V56.5626C36.7166 57.7678 35.7395 58.7448 34.5345 58.7448Z" fill="#fff"/>
<path d="M77.2125 58.7448H65.3114C64.1062 58.7448 63.1292 57.7678 63.1292 56.5626V44.7368C63.1292 43.5316 64.1062 42.5546 65.3114 42.5546C66.5166 42.5546 67.4937 43.5316 67.4937 44.7368V54.3803H75.0304V44.7368C75.0304 43.5316 76.0075 42.5546 77.2127 42.5546C78.4179 42.5546 79.3949 43.5316 79.3949 44.7368V56.5626C79.3945 57.7678 78.4175 58.7448 77.2125 58.7448Z" fill="#fff"/>
<path d="M97.8013 20.302H67.3463V8.59339C67.3463 7.3882 66.3692 6.41113 65.164 6.41113H34.8192C33.614 6.41113 32.6369 7.3882 32.6369 8.59339V20.302H2.18226C0.977071 20.302 0 21.2791 0 22.4843V32.8342V91.4065C0 92.6117 0.977071 93.5888 2.18226 93.5888H97.8013C99.0065 93.5888 99.9836 92.6117 99.9836 91.4065C100.035 84.1305 99.9463 28.1303 99.9838 22.4841C99.9834 21.2791 99.0063 20.302 97.8013 20.302ZM37.0013 10.7757H62.9819V20.302H37.0013V10.7757ZM4.36433 24.6664H95.6191V32.0398L86.7958 42.5548H13.123L4.36433 32.0441V24.6664ZM4.36433 89.2245V38.8617L10.4246 46.1342C10.8393 46.6316 11.4534 46.9193 12.1011 46.9193H87.8134C88.4586 46.9193 89.0704 46.634 89.485 46.1399L95.6191 38.8297V89.2245H4.36433Z" fill="#fff"/>
</g>
<defs>
<clipPath id="clip0_47_477">
<rect width="100" height="100" fill="white"/>
</clipPath>
</defs>
</svg>
