<svg width="46" height="46" viewBox="0 0 46 46" fill="none" xmlns="http://www.w3.org/2000/svg">
<g clip-path="url(#clip0_151_6080)">
<path d="M4.19531 38.5817V15.3067C4.19531 14.255 5.04794 13.4023 6.09964 13.4023H8.42672" stroke="white" stroke-width="2.14844" stroke-miterlimit="10" stroke-linecap="round" stroke-linejoin="round"/>
<path d="M37.5312 13.4023H39.9097C40.9614 13.4023 41.8141 14.255 41.8141 15.3067V38.5817" stroke="white" stroke-width="2.14844" stroke-miterlimit="10" stroke-linecap="round" stroke-linejoin="round"/>
<path d="M43.3549 39.0273H2.64903C1.99724 39.0273 1.46875 39.5557 1.46875 40.2076V40.6591C1.46875 42.7999 3.20424 44.5354 5.34499 44.5354H40.6589C42.7997 44.5354 44.5352 42.7999 44.5352 40.6591V40.2076C44.5352 39.5557 44.0068 39.0273 43.3549 39.0273Z" stroke="white" stroke-width="2.14844" stroke-miterlimit="10" stroke-linecap="round" stroke-linejoin="round"/>
<path d="M37.6392 16.1047C37.6392 8.02152 31.0865 1.46875 23.0032 1.46875C14.92 1.46875 8.36719 8.02152 8.36719 16.1047C8.36719 22.7996 12.8624 28.4447 18.9991 30.1862L23.0032 35.4187L27.0072 30.1862C33.144 28.4447 37.6392 22.7996 37.6392 16.1047Z" stroke="white" stroke-width="2.14844" stroke-miterlimit="10" stroke-linecap="round" stroke-linejoin="round"/>
<path d="M8.625 31.082H12.0676" stroke="white" stroke-width="2.14844" stroke-miterlimit="10" stroke-linecap="round" stroke-linejoin="round"/>
<path d="M8.625 34.9492H16.7429" stroke="white" stroke-width="2.14844" stroke-miterlimit="10" stroke-linecap="round" stroke-linejoin="round"/>
<path d="M37.3723 31.082H33.9297" stroke="white" stroke-width="2.14844" stroke-miterlimit="10" stroke-linecap="round" stroke-linejoin="round"/>
<path d="M37.3757 34.9492H29.2578" stroke="white" stroke-width="2.14844" stroke-miterlimit="10" stroke-linecap="round" stroke-linejoin="round"/>
<path d="M15.8395 16.0255L12.368 14.5835C11.9833 14.426 11.9678 13.8868 12.3429 13.7074L22.3127 8.94138C22.7485 8.73308 23.2551 8.73308 23.6909 8.94138L33.6607 13.7074C34.0358 13.8867 34.0203 14.4259 33.6356 14.5835L30.1641 16.0255" stroke="white" stroke-width="2.14844" stroke-miterlimit="10" stroke-linecap="round" stroke-linejoin="round"/>
<path d="M30.1606 21.5361V16.0274L28.907 15.5142C25.1204 13.964 20.8762 13.964 17.0895 15.5142L15.8359 16.0274V21.5361H30.1606Z" stroke="white" stroke-width="2.14844" stroke-miterlimit="10" stroke-linecap="round" stroke-linejoin="round"/>
<path d="M33.9297 14.1484V18.4077" stroke="white" stroke-width="2.14844" stroke-miterlimit="10" stroke-linecap="round" stroke-linejoin="round"/>
</g>
<defs>
<clipPath id="clip0_151_6080">
<rect width="45" height="45" fill="white" transform="translate(0.5 0.5)"/>
</clipPath>
</defs>
</svg>
