<svg width="51" height="50" viewBox="0 0 51 50" fill="none" xmlns="http://www.w3.org/2000/svg">
<path d="M24.2581 44.8312H9.08984C7.42051 44.8312 6.0625 43.473 6.0625 41.8038V38.5273C6.0625 36.8581 7.42061 35.5 9.08984 35.5H24.258C25.9273 35.5 27.2854 36.8581 27.2854 38.5273V41.8038C27.2854 43.4731 25.9273 44.8312 24.2581 44.8312ZM9.08984 37.6485C8.60518 37.6485 8.21094 38.0429 8.21094 38.5274V41.8039C8.21094 42.2885 8.60527 42.6828 9.08984 42.6828H24.258C24.7427 42.6828 25.1369 42.2885 25.1369 41.8039V38.5274C25.1369 38.0429 24.7427 37.6485 24.258 37.6485H9.08984Z" fill="white"/>
<path d="M49.8953 42.298L49.1277 37.3602C48.9608 36.287 48.0515 35.5082 46.9654 35.5082H43.2581V33.5349C43.2581 32.1555 43.6537 30.8689 44.4021 29.8144C45.1101 28.8166 45.4843 27.6409 45.4843 26.4145C45.4843 24.8003 44.8437 23.2946 43.6806 22.1749C42.8364 21.3623 41.7979 20.8347 40.6743 20.6288V3.02734C40.6743 1.35811 39.3163 0 37.647 0H4.10547C2.43623 0 1.07812 1.35811 1.07812 3.02734V46.9727C1.07812 48.6419 2.43623 50 4.10547 50H37.647C39.3163 50 40.6743 48.6419 40.6743 46.9727V44.8224H47.7331C48.373 44.8224 48.9787 44.5437 49.395 44.0576C49.8113 43.5716 49.9937 42.9303 49.8953 42.298ZM43.3358 26.4144C43.3358 27.1929 43.0986 27.9386 42.65 28.5709C41.6424 29.9908 41.1098 31.7073 41.1098 33.5348V35.5081H38.0906V33.5347C38.0906 31.7718 37.5429 30.0335 36.5064 28.5078C36.0568 27.8459 35.8358 27.0698 35.8673 26.2637C35.9428 24.3285 37.518 22.7549 39.4533 22.6813C40.4808 22.6418 41.4526 23.012 42.1906 23.7226C42.9291 24.4336 43.3358 25.3896 43.3358 26.4144ZM38.5259 46.9727C38.5259 47.4572 38.1316 47.8516 37.647 47.8516H4.10547C3.6209 47.8516 3.22656 47.4572 3.22656 46.9727V3.02734C3.22656 2.54277 3.6209 2.14844 4.10547 2.14844H37.647C38.1316 2.14844 38.5259 2.54277 38.5259 3.02734V20.6289C35.8748 21.1231 33.8282 23.4178 33.7205 26.1799C33.6709 27.448 34.0196 28.6704 34.7291 29.715C35.5227 30.8832 35.9421 32.2041 35.9421 33.5348V35.5082H32.2347C31.1485 35.5082 30.2392 36.2872 30.0725 37.3603L29.3048 42.298C29.2064 42.9304 29.3888 43.5717 29.8051 44.0577C30.2214 44.5438 30.8271 44.8225 31.467 44.8225H38.5259V46.9727ZM47.7633 42.6601C47.7514 42.6739 47.74 42.6739 47.7331 42.6739H31.467C31.4602 42.6739 31.4486 42.6739 31.4368 42.6601C31.4249 42.6461 31.4267 42.6349 31.4276 42.628L32.1953 37.69C32.1983 37.6706 32.2148 37.6565 32.2346 37.6565H46.9653C46.9851 37.6565 47.0017 37.6708 47.0047 37.6902L47.7723 42.628C47.7734 42.6349 47.7752 42.6461 47.7633 42.6601Z" fill="white"/>
<path d="M8.41016 8.14453H20.8743C21.4676 8.14453 21.9485 7.66357 21.9485 7.07031C21.9485 6.47705 21.4676 5.99609 20.8743 5.99609H8.41016C7.81689 5.99609 7.33594 6.47705 7.33594 7.07031C7.33594 7.66357 7.81689 8.14453 8.41016 8.14453Z" fill="white"/>
<path d="M8.41016 14.4453H32.0062C32.5995 14.4453 33.0805 13.9644 33.0805 13.3711C33.0805 12.7778 32.5995 12.2969 32.0062 12.2969H8.41016C7.81689 12.2969 7.33594 12.7778 7.33594 13.3711C7.33594 13.9644 7.81689 14.4453 8.41016 14.4453Z" fill="white"/>
<path d="M8.41016 19.2148H32.0062C32.5995 19.2148 33.0805 18.7339 33.0805 18.1406C33.0805 17.5474 32.5995 17.0664 32.0062 17.0664H8.41016C7.81689 17.0664 7.33594 17.5474 7.33594 18.1406C7.33594 18.7339 7.81689 19.2148 8.41016 19.2148Z" fill="white"/>
<path d="M8.41016 25.9414H29.771C30.3643 25.9414 30.8452 25.4604 30.8452 24.8672C30.8452 24.2739 30.3643 23.793 29.771 23.793H8.41016C7.81689 23.793 7.33594 24.2739 7.33594 24.8672C7.33594 25.4604 7.81689 25.9414 8.41016 25.9414Z" fill="white"/>
<path d="M26.8152 28.5625H8.41016C7.81689 28.5625 7.33594 29.0435 7.33594 29.6367C7.33594 30.23 7.81689 30.7109 8.41016 30.7109H26.8151C27.4084 30.7109 27.8894 30.23 27.8894 29.6367C27.8894 29.0435 27.4085 28.5625 26.8152 28.5625Z" fill="white"/>
</svg>
