<svg width="46" height="46" viewBox="0 0 46 46" fill="none" xmlns="http://www.w3.org/2000/svg">
<g clip-path="url(#clip0_151_6211)">
<path d="M37.7496 45.4985H32.3887C31.8547 45.4985 31.4219 45.0656 31.4219 44.5317V36.4902C31.4219 35.9563 31.8547 35.5234 32.3887 35.5234H37.7496C38.2836 35.5234 38.7164 35.9563 38.7164 36.4902V44.5317C38.7164 45.0656 38.2836 45.4985 37.7496 45.4985ZM33.3555 43.5649H36.7829V37.457H33.3555V43.5649Z" fill="white"/>
<path d="M35.0684 18.6956C34.5344 18.6956 34.1016 18.2627 34.1016 17.7288V12.1895C34.1016 11.6555 34.5344 11.2227 35.0684 11.2227C35.6023 11.2227 36.0352 11.6555 36.0352 12.1895V17.7288C36.0352 18.2628 35.6023 18.6956 35.0684 18.6956Z" fill="white"/>
<path d="M44.4481 26.7369H25.6847C24.7951 26.7358 24.3761 25.6206 25.0555 25.036L34.4372 16.9944C34.7993 16.6842 35.3335 16.6841 35.6955 16.9944L45.0773 25.0359C45.7523 25.6169 45.3444 26.7347 44.4481 26.7369ZM28.2982 24.8033H41.8346L35.0664 19.002L28.2982 24.8033Z" fill="white"/>
<path d="M6.91947 44.8491C6.07079 44.854 5.62616 43.8049 6.23585 43.1987L13.3256 36.1089L6.32515 29.1085C5.94915 28.7324 5.9474 28.1232 6.32128 27.745L13.5378 20.4468L6.23568 13.0605C5.8603 12.6809 5.86381 12.0687 6.2435 11.6933C6.62319 11.3179 7.23535 11.3215 7.61073 11.7011L15.5849 19.7671C15.9573 20.1438 15.9572 20.75 15.5848 21.1266L8.37212 28.421L15.3764 35.4253C15.7539 35.8029 15.7539 36.415 15.3764 36.7926L7.60308 44.566C7.41429 44.7548 7.16688 44.8491 6.91947 44.8491Z" fill="white"/>
<path d="M35.7502 11.505L30.3892 6.14407C30.2079 5.96275 29.962 5.86089 29.7056 5.86089H15.9298V1.4668C15.9298 0.932861 15.4969 0.5 14.963 0.5H6.92152C6.38759 0.5 5.95473 0.932861 5.95473 1.4668V5.86098H1.56055C1.02661 5.86098 0.59375 6.29384 0.59375 6.82777V12.1888C0.59375 12.7227 1.02661 13.1555 1.56055 13.1555H5.95473V43.5663H1.91791C1.38397 43.5663 0.951113 43.9992 0.951113 44.5331C0.951113 45.0671 1.38397 45.4999 1.91791 45.4999H14.963H19.9666C20.5005 45.4999 20.9334 45.0671 20.9334 44.5331C20.9334 43.9992 20.5005 43.5663 19.9666 43.5663H15.9298V13.1555H35.0666C35.9201 13.1589 36.3571 12.1073 35.7502 11.505ZM7.88832 2.43359H13.9962V5.86098H7.88832V2.43359ZM13.9962 7.79457V11.222H7.88832V7.79457H13.9962ZM2.52734 11.2219V7.79457H5.95473V11.222L2.52734 11.2219ZM13.9962 43.5663H7.88832V13.1555H13.9962V43.5663ZM15.9298 11.2219V7.79457H29.3051L32.7325 11.222L15.9298 11.2219Z" fill="white"/>
<path d="M43.1045 45.5001H27.0215C26.4875 45.5001 26.0547 45.0672 26.0547 44.5333V31.1309C26.0547 30.5969 26.4875 30.1641 27.0215 30.1641H43.1044C43.6383 30.1641 44.0712 30.5969 44.0712 31.1309V44.5333C44.0713 45.0672 43.6384 45.5001 43.1045 45.5001ZM27.9883 43.5665H42.1376V32.0977H27.9883V43.5665Z" fill="white"/>
</g>
<defs>
<clipPath id="clip0_151_6211">
<rect width="45" height="45" fill="white" transform="translate(0.5 0.5)"/>
</clipPath>
</defs>
</svg>
