<svg width="46" height="46" viewBox="0 0 46 46" fill="none" xmlns="http://www.w3.org/2000/svg">
<g clip-path="url(#clip0_151_6066)">
<path d="M12.1455 29.0039H7.0918C6.55786 29.0039 6.125 29.4368 6.125 29.9707V42.7888H8.05859V30.9375H11.1787V42.7888H13.1123V29.9707C13.1123 29.4368 12.6794 29.0039 12.1455 29.0039Z" fill="white"/>
<path d="M21.0674 24.6094H16.0137C15.4797 24.6094 15.0469 25.0422 15.0469 25.5762V42.7888H16.9805V26.543H20.1006V42.7888H22.0342V25.5762C22.0342 25.0422 21.6013 24.6094 21.0674 24.6094Z" fill="white"/>
<path d="M29.9893 20.2148H24.9355C24.4016 20.2148 23.9688 20.6477 23.9688 21.1816V42.7888H25.9023V22.1484H29.0225V42.7888H30.9561V21.1816C30.9561 20.6477 30.5232 20.2148 29.9893 20.2148Z" fill="white"/>
<path d="M38.9111 15.8203H33.8574C33.3235 15.8203 32.8906 16.2532 32.8906 16.7871V42.7888H34.8242V17.7539H37.9443V42.7888H39.8779V16.7871C39.8779 16.2532 39.4451 15.8203 38.9111 15.8203Z" fill="white"/>
<path d="M45.2168 42.1065L43.4736 40.3633C43.096 39.9857 42.4839 39.9857 42.1063 40.3633C41.7288 40.7409 41.7288 41.3531 42.1063 41.7306L42.199 41.8234H4.17666V3.80091L4.26939 3.89363C4.45818 4.08242 4.70559 4.17682 4.953 4.17682C5.20041 4.17682 5.44782 4.08242 5.63661 3.89363C6.0141 3.51605 6.0141 2.9039 5.63661 2.52632L3.89348 0.783184C3.5159 0.405605 2.90374 0.405605 2.52616 0.783184L0.783118 2.52632C0.405627 2.9039 0.405627 3.51605 0.783118 3.89363C1.1607 4.27121 1.77285 4.27121 2.15043 3.89363L2.24316 3.80091V42.7901C2.24316 43.324 2.67602 43.7569 3.20995 43.7569H42.1991L42.1064 43.8496C41.7289 44.2272 41.7289 44.8393 42.1064 45.2169C42.2952 45.4057 42.5426 45.5001 42.79 45.5001C43.0374 45.5001 43.2848 45.4057 43.4736 45.2169L45.2168 43.4738C45.5943 43.0962 45.5943 42.484 45.2168 42.1065Z" fill="white"/>
<path d="M9.61523 27.2827C10.1492 27.2827 10.582 26.8499 10.582 26.3159V21.0652C10.582 19.1388 12.1493 17.5715 14.0757 17.5715C16.0021 17.5715 17.5693 19.1388 17.5693 21.0652V21.851C17.5693 22.3849 18.0022 22.8178 18.5361 22.8178C19.0701 22.8178 19.5029 22.3849 19.5029 21.851V16.6002C19.5029 14.6739 21.0702 13.1066 22.9966 13.1066C24.923 13.1066 26.4902 14.6739 26.4902 16.6002V17.3861C26.4902 17.92 26.9231 18.3529 27.457 18.3529C27.991 18.3529 28.4238 17.92 28.4238 17.3861V12.1353C28.4238 10.2089 29.9911 8.64166 31.9175 8.64166C33.8439 8.64166 35.4111 10.2089 35.4111 12.1353V12.9211C35.4111 13.4551 35.844 13.8879 36.3779 13.8879C36.9119 13.8879 37.3447 13.4551 37.3447 12.9211V7.67038C37.3447 5.74399 38.912 4.17673 40.8384 4.17673H41.1263L41.0336 4.26945C40.6561 4.64703 40.6561 5.25919 41.0336 5.63677C41.2224 5.82556 41.4698 5.91995 41.7172 5.91995C41.9646 5.91995 42.212 5.82556 42.4008 5.63677L44.1439 3.89363C44.5214 3.51605 44.5214 2.9039 44.1439 2.52632L42.4009 0.783184C42.0233 0.405605 41.4112 0.405605 41.0336 0.783184C40.6561 1.16076 40.6561 1.77292 41.0336 2.1505L41.1263 2.24322H40.8384C37.8458 2.24322 35.4111 4.67788 35.4111 7.67047V7.98521C34.4664 7.18865 33.247 6.70815 31.9175 6.70815C28.9249 6.70815 26.4902 9.14281 26.4902 12.1354V12.4501C25.5455 11.6536 24.3261 11.1731 22.9966 11.1731C20.004 11.1731 17.5693 13.6077 17.5693 16.6003V16.9151C16.6246 16.1185 15.4052 15.638 14.0757 15.638C11.0831 15.638 8.64844 18.0727 8.64844 21.0653V26.316C8.64844 26.8499 9.0813 27.2827 9.61523 27.2827Z" fill="white"/>
</g>
<defs>
<clipPath id="clip0_151_6066">
<rect width="45" height="45" fill="white" transform="translate(0.5 0.5)"/>
</clipPath>
</defs>
</svg>
