<svg width="46" height="46" viewBox="0 0 46 46" fill="none" xmlns="http://www.w3.org/2000/svg">
<g clip-path="url(#clip0_151_6174)">
<path d="M23.0011 33.0311L20.2934 44.5384L17.3795 41.144L13.2578 42.8829L15.9831 31.3008" stroke="white" stroke-width="2.14844" stroke-miterlimit="10" stroke-linejoin="round"/>
<path d="M23 33.0311L25.7078 44.5384L28.6217 41.144L32.7434 42.8829L30.0181 31.3008" stroke="white" stroke-width="2.14844" stroke-miterlimit="10" stroke-linejoin="round"/>
<path d="M27.8057 13.8515C27.0506 13.0964 25.8263 13.0964 25.0712 13.8515L22.0853 16.8374L20.9259 15.6781C20.1708 14.9229 18.9465 14.9229 18.1914 15.6781C17.4362 16.4332 17.4362 17.6575 18.1914 18.4126L20.2209 20.4421C21.2506 21.4718 22.9201 21.4718 23.9497 20.4421L27.8057 16.5861C28.5608 15.8309 28.5608 14.6067 27.8057 13.8515Z" stroke="white" stroke-width="2.14844" stroke-miterlimit="10" stroke-linecap="round" stroke-linejoin="round"/>
<path d="M38.1893 15.051L37.2527 13.4288V11.5557C37.2527 9.9857 36.4151 8.53489 35.0555 7.74994L33.4333 6.81338L32.4968 5.19127C31.7118 3.8316 30.261 2.994 28.691 2.994H26.8179L25.1957 2.05753C23.8361 1.27249 22.1609 1.27249 20.8012 2.05753L19.179 2.99409H17.3059C15.7359 2.99409 14.2851 3.83169 13.5001 5.19136L12.5636 6.81355L10.9414 7.75012C9.58169 8.53516 8.74409 9.98588 8.74409 11.5559V13.429L7.80753 15.0512C7.02249 16.4109 7.02249 18.0861 7.80753 19.4457L8.74409 21.0679V22.941C8.74409 24.511 9.58169 25.9618 10.9414 26.7468L12.5636 27.6834L13.5001 29.3056C14.2852 30.6652 15.7359 31.5028 17.3059 31.5028H19.179L20.8012 32.4391C22.1609 33.2242 23.8361 33.2242 25.1957 32.4391L26.8179 31.5026H28.691C30.261 31.5026 31.7118 30.665 32.4968 29.3053L33.4334 27.6831L35.0556 26.7465C36.4152 25.9615 37.2528 24.5108 37.2528 22.9408V21.0677L38.1894 19.4455C38.9743 18.0859 38.9743 16.4108 38.1893 15.051Z" stroke="white" stroke-width="2.14844" stroke-miterlimit="10" stroke-linecap="round" stroke-linejoin="round"/>
<path d="M23.0015 28.1164C29.0042 28.1164 33.8703 23.2503 33.8703 17.2476C33.8703 11.245 29.0042 6.37891 23.0015 6.37891C16.9989 6.37891 12.1328 11.245 12.1328 17.2476C12.1328 23.2503 16.9989 28.1164 23.0015 28.1164Z" stroke="white" stroke-width="2.14844" stroke-miterlimit="10" stroke-linecap="round" stroke-linejoin="round"/>
</g>
<defs>
<clipPath id="clip0_151_6174">
<rect width="45" height="45" fill="white" transform="translate(0.5 0.5)"/>
</clipPath>
</defs>
</svg>
