<svg width="137" height="35" viewBox="0 0 137 35" fill="none" xmlns="http://www.w3.org/2000/svg">
<path d="M54.5709 11.5197H46.3967L46.4273 25.6099H42.478V8.27534H54.6015L54.5709 11.5197Z" fill="#005D62"/>
<path d="M67.9191 9.01696C69.0519 9.54225 69.9091 10.2529 70.5215 11.2109C71.1337 12.1378 71.4398 13.2811 71.4398 14.548C71.4398 15.8149 71.1337 16.9272 70.5215 17.8851C69.9091 18.843 69.0519 19.5537 67.9191 20.079C66.7864 20.5734 65.4699 20.8205 63.9392 20.8205H60.4798V25.6099H56.4998V8.27537H63.9392C65.4699 8.24446 66.8171 8.49166 67.9191 9.01696ZM66.4803 16.7418C67.0926 16.2165 67.3987 15.475 67.3987 14.5171C67.3987 13.5282 67.0926 12.7867 66.4803 12.2614C65.868 11.7361 64.9495 11.4889 63.7555 11.4889H60.5104V17.5143H63.7555C64.9495 17.5452 65.8373 17.2671 66.4803 16.7418Z" fill="#005D62"/>
<path d="M89.1969 25.579L89.1661 15.1968L84.1146 23.756H82.3389L77.2874 15.4132V25.6099H73.5524V8.27534H76.8588L83.2879 19.0592L89.6255 8.27534H92.9007L92.9315 25.6099H89.1969V25.579Z" fill="#005D62"/>
<path d="M28.4262 6.29779C30.906 8.80065 32.4061 11.9524 32.8654 15.2277L34.5185 15.1041C34.0287 11.458 32.3755 7.90456 29.6201 5.09271C28.4874 3.94943 27.2629 3.02244 25.9464 2.24996L25.2116 3.76403C26.3444 4.44381 27.4466 5.30901 28.4262 6.29779Z" fill="#223334"/>
<path d="M6.26093 6.29781C6.72015 5.83432 7.17938 5.40173 7.66921 5.03094L6.72015 3.64046C6.13847 4.10396 5.5874 4.56745 5.06695 5.12363C4.33219 5.86522 3.71989 6.63771 3.13821 7.44109L4.54649 8.33718C5.06695 7.59559 5.61801 6.91581 6.26093 6.29781Z" fill="#00A48A"/>
<path d="M31.5489 24.1886L33.0183 24.992C34.1818 22.52 34.7328 19.8008 34.6716 17.1127L33.0183 17.2362C33.049 19.6154 32.5591 21.9947 31.5489 24.1886Z" fill="#005D62"/>
<path d="M23.4052 2.8989L24.14 1.38482C19.0578 -0.778139 13.1798 -0.407345 8.37329 2.49721L9.32238 3.88768C13.6084 1.32303 18.8742 0.98314 23.4052 2.8989Z" fill="#005D62"/>
<path d="M3.50536 10.0366L2.09708 9.14054C-0.903177 14.7334 -0.688876 21.6239 2.7706 27.0005L4.11766 26.0116C1.05617 21.1604 0.872483 15.0423 3.50536 10.0366Z" fill="#223334"/>
<path d="M28.426 28.6999C25.0584 32.0988 20.5274 33.6129 16.1188 33.273L15.8739 34.9416C20.7723 35.3433 25.8238 33.6747 29.5893 29.874C30.5384 28.9162 31.365 27.8656 32.0386 26.7841L30.5691 25.9807C29.9874 26.9386 29.2832 27.8347 28.426 28.6999Z" fill="#223334"/>
<path d="M6.261 28.6999C5.92423 28.36 5.61808 28.0201 5.31194 27.6493L3.96488 28.6381C4.30164 29.0707 4.69963 29.4724 5.09763 29.874C7.60805 32.4078 10.7001 34.0146 13.9453 34.6635L14.1903 32.9949C11.2512 32.3769 8.49588 30.9555 6.261 28.6999Z" fill="#00A48A"/>
<path d="M10.5471 29.0707C10.2409 28.8853 9.96544 28.6999 9.65922 28.4836L8.58778 29.7814C8.92454 30.0286 9.29192 30.2758 9.68985 30.4921C12.2922 32.037 15.1699 32.7169 17.9865 32.5932L17.8028 30.9247C15.3536 31.0174 12.8432 30.4302 10.5471 29.0707Z" fill="#223334"/>
<path d="M5.86298 10.6547C6.1079 10.222 6.38344 9.82031 6.68958 9.41868L5.43438 8.30628C5.067 8.76973 4.76085 9.26419 4.4547 9.78948C4.0261 10.5002 3.68933 11.2726 3.38318 12.0142L4.97516 12.5086C5.22007 11.8906 5.52623 11.2417 5.86298 10.6547Z" fill="#00A48A"/>
<path d="M4.36258 14.4552L2.7706 13.9609C1.51539 19.2137 3.13798 24.8066 7.0873 28.5454L8.15882 27.2476C4.72996 23.9105 3.32167 19.0283 4.36258 14.4552Z" fill="#005D62"/>
<path d="M19.1189 4.16578L19.4558 2.5281C14.8329 1.87922 10.0876 3.42418 6.71995 6.79223L7.97516 7.9046C10.9448 4.96915 15.0778 3.60958 19.1189 4.16578Z" fill="#1C3B40"/>
<path d="M24.1399 5.927C26.6809 7.44108 28.5178 9.66582 29.5893 12.1996L31.1813 11.6434C29.9873 8.73882 27.8748 6.2051 24.9971 4.47473C23.8643 3.79494 22.6704 3.30055 21.4458 2.92976L21.109 4.56743C22.1193 4.87643 23.1602 5.33991 24.1399 5.927Z" fill="#213030"/>
<path d="M30.4772 19.8318L32.0998 20.2335C32.4977 17.9778 32.4059 15.6912 31.8242 13.5283L30.2322 14.0844C30.722 15.9384 30.8139 17.916 30.4772 19.8318Z" fill="#213030"/>
<path d="M28.8238 24.343C26.8033 27.8038 23.4663 30.0285 19.8232 30.7084L20.0068 32.3769C24.1398 31.6353 27.9666 29.1324 30.2628 25.1774C30.8138 24.2195 31.273 23.1998 31.6099 22.1801L29.9873 21.7784C29.6811 22.6436 29.2831 23.5088 28.8238 24.343Z" fill="#1C3B40"/>
<path d="M13.3022 27.7729C12.9654 27.6493 12.6593 27.4948 12.3531 27.3404L11.4653 28.7617C11.8633 28.978 12.2613 29.1634 12.6898 29.3179C13.3022 29.5651 13.9145 29.7505 14.5268 29.905L14.7717 28.2364C14.2818 28.1128 13.792 27.9583 13.3022 27.7729Z" fill="#1C3B40"/>
<path d="M27.5383 21.5621C27.4464 21.7784 27.3546 21.9947 27.2627 22.211L28.7016 23.0761C28.8241 22.7981 28.9772 22.4891 29.0996 22.211C30.0181 19.8627 30.2018 17.4216 29.7731 15.135L28.1505 15.5676C28.4873 17.5143 28.3037 19.5845 27.5383 21.5621Z" fill="#005D62"/>
<path d="M16.7311 28.5453L16.4861 30.2139C20.8641 30.5229 25.1502 28.4527 27.6912 24.8066L26.2522 23.9413C24.0786 27.0313 20.4354 28.7307 16.7311 28.5453Z" fill="#005D62"/>
<path d="M21.3845 7.19385C24.3848 8.39892 26.5584 10.7781 27.5993 13.5901L29.2219 13.1574C28.0279 9.85122 25.4868 7.03934 21.9968 5.61797C21.1702 5.27808 20.3436 5.06178 19.5169 4.90728L19.3639 6.57586C20.0374 6.73035 20.711 6.94665 21.3845 7.19385Z" fill="#00A48A"/>
<path d="M6.3834 17.916L4.69958 17.8233C4.82204 21.6857 6.65893 25.3628 9.78165 27.6802L10.6695 26.2589C8.06721 24.2813 6.50586 21.1913 6.3834 17.916Z" fill="#1C3B40"/>
<path d="M17.3741 6.42137L17.5271 4.7528C15.7208 4.72191 13.9758 5.0927 12.3532 5.80339L13.1492 7.28656C14.4656 6.73037 15.9045 6.42137 17.3741 6.42137Z" fill="#005D62"/>
<path d="M7.14858 13.4047C8.00579 11.2109 9.5059 9.41868 11.3428 8.21359L10.5468 6.73042C8.37318 8.12089 6.59752 10.1912 5.58722 12.7867C5.18923 13.7755 4.94431 14.7952 4.82185 15.8149L6.50567 15.9075C6.59752 15.0733 6.81181 14.239 7.14858 13.4047Z" fill="#213030"/>
<path d="M25.9157 16.8964L27.5995 16.989C27.4158 13.5283 25.5177 10.3148 22.548 8.55347L21.8439 10.0985C24.2012 11.5507 25.732 14.1153 25.9157 16.8964Z" fill="#223334"/>
<path d="M8.80193 18.534H7.11813C7.2712 19.8626 7.63858 21.1604 8.2815 22.3345L9.68976 21.4075C9.23058 20.5115 8.92445 19.5536 8.80193 18.534Z" fill="#005D62"/>
<path d="M14.9861 25.8571C13.2716 25.3628 11.8634 24.3739 10.7918 23.1071L9.41418 24.0341C10.7 25.6408 12.4451 26.8459 14.5575 27.4639C15.3229 27.6801 16.0882 27.8038 16.8536 27.8347L16.7617 26.1352C16.1495 26.1043 15.5678 26.0116 14.9861 25.8571Z" fill="#213030"/>
<path d="M18.7517 26.0735L18.8435 27.7729C21.7825 27.3403 24.446 25.61 26.0686 23.0453L24.5685 22.3037C23.2214 24.2813 21.0784 25.6717 18.7517 26.0735Z" fill="#00A48A"/>
<path d="M25.6094 19.8936C25.5481 20.079 25.4869 20.2644 25.4257 20.4498L26.9258 21.1914C27.0176 20.9132 27.1401 20.6352 27.2013 20.3261C27.3238 19.8627 27.4157 19.43 27.4768 18.9666L25.793 18.8739C25.793 19.2446 25.7012 19.5537 25.6094 19.8936Z" fill="#1C3B40"/>
<path d="M9.07751 15.1042C9.75103 12.7249 11.343 10.871 13.3635 9.78948L12.7513 8.21359C10.2715 9.48042 8.2815 11.7361 7.4549 14.6406C7.2712 15.2587 7.14875 15.9075 7.11813 16.5565H8.80193C8.83256 16.062 8.92445 15.5676 9.07751 15.1042Z" fill="#005D62"/>
<path d="M19.7008 9.14054C19.7927 9.17145 19.9151 9.20228 20.0069 9.23319L20.7111 7.68825C20.5275 7.62644 20.3438 7.56465 20.1601 7.50284C18.2925 6.94665 16.3638 6.97756 14.6188 7.47195L15.2311 9.04779C16.6394 8.7079 18.2007 8.7079 19.7008 9.14054Z" fill="#1C3B40"/>
<path d="M99.5664 7.8457V25.8601" stroke="#005D62" stroke-width="0.449802" stroke-miterlimit="10"/>
<path d="M105.949 11.9375V8.15581H108.515L108.51 8.75008H106.473L106.635 8.5826L106.64 11.9375H105.949ZM108.606 11.9375V9.05261H109.281V10.9543L110.875 9.05261H111.491V11.9375H110.816V10.0359L109.227 11.9375H108.606ZM111.978 11.9321L112.01 11.3648C112.036 11.3684 112.059 11.372 112.081 11.3756C112.102 11.3793 112.122 11.3811 112.14 11.3811C112.252 11.3811 112.338 11.3468 112.399 11.2784C112.461 11.21 112.506 11.1181 112.534 11.0029C112.567 10.884 112.588 10.7526 112.599 10.6085C112.614 10.4608 112.624 10.3132 112.632 10.1655L112.68 9.05261H115.014V11.9375H114.339V9.44159L114.495 9.62527H113.123L113.269 9.43618L113.231 10.1979C113.22 10.4536 113.199 10.6913 113.166 10.911C113.138 11.1271 113.091 11.3162 113.026 11.4783C112.965 11.6404 112.878 11.7664 112.767 11.8565C112.659 11.9465 112.52 11.9915 112.351 11.9915C112.297 11.9915 112.237 11.9861 112.172 11.9753C112.111 11.9645 112.046 11.9501 111.978 11.9321ZM117.371 10.0034C117.742 10.0034 118.025 10.0863 118.22 10.2519C118.414 10.4176 118.511 10.6517 118.511 10.9543C118.511 11.2676 118.403 11.5125 118.187 11.689C117.971 11.8619 117.667 11.9465 117.274 11.9429L115.924 11.9375V9.05261H116.599V9.99803L117.371 10.0034ZM117.215 11.4459C117.413 11.4495 117.564 11.4081 117.669 11.3216C117.773 11.2352 117.825 11.1091 117.825 10.9435C117.825 10.7778 117.773 10.6589 117.669 10.5869C117.568 10.5113 117.416 10.4716 117.215 10.468L116.599 10.4626V11.4405L117.215 11.4459ZM121.014 11.6242V9.62527H119.906L119.89 10.0899C119.883 10.2555 119.872 10.4158 119.857 10.5707C119.843 10.722 119.82 10.8624 119.787 10.9921C119.755 11.1181 119.708 11.2226 119.647 11.3054C119.585 11.3883 119.504 11.4423 119.404 11.4675L118.734 11.3648C118.842 11.3648 118.928 11.3306 118.993 11.2622C119.061 11.1902 119.114 11.0929 119.15 10.9705C119.189 10.8444 119.218 10.7021 119.236 10.5437C119.254 10.3816 119.267 10.2141 119.274 10.0413L119.312 9.05261H121.689V11.6242H121.014ZM118.631 12.5804V11.3648H122.116V12.5804H121.484V11.9375H119.258V12.5804H118.631ZM122.719 11.9375V9.05261H123.394V10.9543L124.988 9.05261H125.604V11.9375H124.928V10.0359L123.34 11.9375H122.719ZM128.343 11.9375V10.9543L128.441 11.0677H127.576C127.18 11.0677 126.869 10.9849 126.642 10.8192C126.418 10.6499 126.307 10.4068 126.307 10.0899C126.307 9.75132 126.426 9.49381 126.663 9.31733C126.905 9.14085 127.225 9.05261 127.625 9.05261H128.949V11.9375H128.343ZM126.269 11.9375L127.047 10.8354H127.738L126.993 11.9375H126.269ZM128.343 10.7382V9.44159L128.441 9.61987H127.647C127.438 9.61987 127.276 9.65948 127.16 9.73872C127.049 9.81435 126.993 9.93861 126.993 10.1115C126.993 10.4356 127.204 10.5977 127.625 10.5977H128.441L128.343 10.7382ZM107.467 18.9753C107.233 18.9753 107.019 18.9213 106.824 18.8132C106.633 18.7052 106.48 18.5431 106.365 18.327C106.253 18.1073 106.197 17.83 106.197 17.4951C106.197 17.1565 106.251 16.8792 106.359 16.6631C106.471 16.447 106.622 16.2867 106.813 16.1823C107.004 16.0742 107.222 16.0202 107.467 16.0202C107.752 16.0202 108.002 16.0814 108.218 16.2039C108.438 16.3263 108.61 16.4974 108.737 16.7171C108.866 16.9368 108.931 17.1961 108.931 17.4951C108.931 17.794 108.866 18.0551 108.737 18.2784C108.61 18.4981 108.438 18.6692 108.218 18.7916C108.002 18.9141 107.752 18.9753 107.467 18.9753ZM105.868 19.9856V16.0526H106.511V16.7333L106.489 17.5005L106.543 18.2676V19.9856H105.868ZM107.391 18.3973C107.553 18.3973 107.697 18.3612 107.824 18.2892C107.953 18.2172 108.056 18.1127 108.131 17.9759C108.207 17.839 108.245 17.6787 108.245 17.4951C108.245 17.3078 108.207 17.1475 108.131 17.0142C108.056 16.8774 107.953 16.7729 107.824 16.7009C107.697 16.6289 107.553 16.5929 107.391 16.5929C107.229 16.5929 107.083 16.6289 106.954 16.7009C106.824 16.7729 106.721 16.8774 106.646 17.0142C106.57 17.1475 106.532 17.3078 106.532 17.4951C106.532 17.6787 106.57 17.839 106.646 17.9759C106.721 18.1127 106.824 18.2172 106.954 18.2892C107.083 18.3612 107.229 18.3973 107.391 18.3973ZM109.603 18.9375V16.0526H110.278V17.9543L111.872 16.0526H112.488V18.9375H111.813V17.0359L110.224 18.9375H109.603ZM113.862 17.722V17.2357H115.429V17.722H113.862ZM114.256 16.0094C114.566 16.0094 114.84 16.0742 115.077 16.2039C115.315 16.3299 115.502 16.5046 115.639 16.7279C115.776 16.9476 115.845 17.2033 115.845 17.4951C115.845 17.7832 115.776 18.0407 115.639 18.2676C115.502 18.4909 115.315 18.6674 115.077 18.797C114.84 18.9231 114.566 18.9861 114.256 18.9861C113.997 18.9861 113.759 18.9429 113.543 18.8565C113.327 18.77 113.147 18.6458 113.003 18.4837L113.392 18.1055C113.507 18.2172 113.633 18.3018 113.77 18.3594C113.911 18.4171 114.064 18.4459 114.229 18.4459C114.424 18.4459 114.595 18.4063 114.743 18.327C114.89 18.2442 115.007 18.1307 115.094 17.9867C115.18 17.8426 115.223 17.6787 115.223 17.4951C115.223 17.3078 115.18 17.1439 115.094 17.0034C115.007 16.8594 114.89 16.7477 114.743 16.6685C114.595 16.5857 114.424 16.5442 114.229 16.5442C114.064 16.5442 113.911 16.573 113.77 16.6307C113.633 16.6883 113.507 16.7747 113.392 16.89L113.003 16.5118C113.147 16.3497 113.327 16.2255 113.543 16.1391C113.759 16.0526 113.997 16.0094 114.256 16.0094ZM116.046 18.9321L116.078 18.3648C116.103 18.3684 116.127 18.372 116.148 18.3756C116.17 18.3793 116.19 18.3811 116.208 18.3811C116.319 18.3811 116.406 18.3468 116.467 18.2784C116.528 18.21 116.573 18.1181 116.602 18.0029C116.634 17.884 116.656 17.7526 116.667 17.6085C116.681 17.4608 116.692 17.3132 116.699 17.1655L116.748 16.0526H119.082V18.9375H118.406V16.4416L118.563 16.6253H117.191L117.337 16.4362L117.299 17.1979C117.288 17.4536 117.266 17.6913 117.234 17.911C117.205 18.1271 117.158 18.3162 117.094 18.4783C117.032 18.6404 116.946 18.7664 116.834 18.8565C116.726 18.9465 116.588 18.9915 116.418 18.9915C116.364 18.9915 116.305 18.9861 116.24 18.9753C116.179 18.9645 116.114 18.9501 116.046 18.9321ZM120.591 18.9375V16.4632L120.747 16.6253H119.575V16.0526H122.276V16.6253H121.109L121.266 16.4632V18.9375H120.591ZM123.925 18.9753C123.63 18.9753 123.367 18.9123 123.137 18.7862C122.906 18.6566 122.724 18.4801 122.591 18.2568C122.458 18.0335 122.391 17.7796 122.391 17.4951C122.391 17.2069 122.458 16.953 122.591 16.7333C122.724 16.51 122.906 16.3353 123.137 16.2093C123.367 16.0832 123.63 16.0202 123.925 16.0202C124.224 16.0202 124.489 16.0832 124.72 16.2093C124.954 16.3353 125.136 16.5082 125.265 16.7279C125.398 16.9476 125.465 17.2033 125.465 17.4951C125.465 17.7796 125.398 18.0335 125.265 18.2568C125.136 18.4801 124.954 18.6566 124.72 18.7862C124.489 18.9123 124.224 18.9753 123.925 18.9753ZM123.925 18.3973C124.091 18.3973 124.239 18.3612 124.368 18.2892C124.498 18.2172 124.599 18.1127 124.671 17.9759C124.747 17.839 124.784 17.6787 124.784 17.4951C124.784 17.3078 124.747 17.1475 124.671 17.0142C124.599 16.8774 124.498 16.7729 124.368 16.7009C124.239 16.6289 124.093 16.5929 123.931 16.5929C123.765 16.5929 123.617 16.6289 123.488 16.7009C123.362 16.7729 123.261 16.8774 123.185 17.0142C123.11 17.1475 123.072 17.3078 123.072 17.4951C123.072 17.6787 123.11 17.839 123.185 17.9759C123.261 18.1127 123.362 18.2172 123.488 18.2892C123.617 18.3612 123.763 18.3973 123.925 18.3973ZM127.731 18.9753C127.497 18.9753 127.283 18.9213 127.088 18.8132C126.898 18.7052 126.744 18.5431 126.629 18.327C126.518 18.1073 126.462 17.83 126.462 17.4951C126.462 17.1565 126.516 16.8792 126.624 16.6631C126.735 16.447 126.887 16.2867 127.078 16.1823C127.268 16.0742 127.486 16.0202 127.731 16.0202C128.016 16.0202 128.266 16.0814 128.482 16.2039C128.702 16.3263 128.875 16.4974 129.001 16.7171C129.131 16.9368 129.195 17.1961 129.195 17.4951C129.195 17.794 129.131 18.0551 129.001 18.2784C128.875 18.4981 128.702 18.6692 128.482 18.7916C128.266 18.9141 128.016 18.9753 127.731 18.9753ZM126.132 19.9856V16.0526H126.775V16.7333L126.753 17.5005L126.807 18.2676V19.9856H126.132ZM127.656 18.3973C127.818 18.3973 127.962 18.3612 128.088 18.2892C128.218 18.2172 128.32 18.1127 128.396 17.9759C128.471 17.839 128.509 17.6787 128.509 17.4951C128.509 17.3078 128.471 17.1475 128.396 17.0142C128.32 16.8774 128.218 16.7729 128.088 16.7009C127.962 16.6289 127.818 16.5929 127.656 16.5929C127.494 16.5929 127.348 16.6289 127.218 16.7009C127.088 16.7729 126.986 16.8774 126.91 17.0142C126.834 17.1475 126.797 17.3078 126.797 17.4951C126.797 17.6787 126.834 17.839 126.91 17.9759C126.986 18.1127 127.088 18.2172 127.218 18.2892C127.348 18.3612 127.494 18.3973 127.656 18.3973ZM131.153 18.9753C130.858 18.9753 130.595 18.9123 130.364 18.7862C130.134 18.6566 129.952 18.4801 129.819 18.2568C129.686 18.0335 129.619 17.7796 129.619 17.4951C129.619 17.2069 129.686 16.953 129.819 16.7333C129.952 16.51 130.134 16.3353 130.364 16.2093C130.595 16.0832 130.858 16.0202 131.153 16.0202C131.452 16.0202 131.717 16.0832 131.947 16.2093C132.181 16.3353 132.363 16.5082 132.493 16.7279C132.626 16.9476 132.693 17.2033 132.693 17.4951C132.693 17.7796 132.626 18.0335 132.493 18.2568C132.363 18.4801 132.181 18.6566 131.947 18.7862C131.717 18.9123 131.452 18.9753 131.153 18.9753ZM131.153 18.3973C131.319 18.3973 131.467 18.3612 131.596 18.2892C131.726 18.2172 131.827 18.1127 131.899 17.9759C131.974 17.839 132.012 17.6787 132.012 17.4951C132.012 17.3078 131.974 17.1475 131.899 17.0142C131.827 16.8774 131.726 16.7729 131.596 16.7009C131.467 16.6289 131.321 16.5929 131.159 16.5929C130.993 16.5929 130.845 16.6289 130.716 16.7009C130.59 16.7729 130.489 16.8774 130.413 17.0142C130.337 17.1475 130.3 17.3078 130.3 17.4951C130.3 17.6787 130.337 17.839 130.413 17.9759C130.489 18.1127 130.59 18.2172 130.716 18.2892C130.845 18.3612 130.991 18.3973 131.153 18.3973ZM133.36 18.9375V16.0526H134.77C135.119 16.0526 135.393 16.1174 135.591 16.2471C135.793 16.3768 135.894 16.5604 135.894 16.7981C135.894 17.0322 135.8 17.2159 135.613 17.3492C135.426 17.4788 135.177 17.5437 134.867 17.5437L134.948 17.3762C135.298 17.3762 135.557 17.441 135.726 17.5707C135.899 17.6967 135.986 17.8822 135.986 18.1271C135.986 18.3829 135.89 18.5827 135.699 18.7268C135.508 18.8673 135.218 18.9375 134.829 18.9375H133.36ZM134.003 18.4459H134.775C134.959 18.4459 135.098 18.4171 135.191 18.3594C135.285 18.2982 135.332 18.2064 135.332 18.0839C135.332 17.9543 135.289 17.8588 135.202 17.7976C135.116 17.7364 134.981 17.7058 134.797 17.7058H134.003V18.4459ZM134.003 17.2574H134.711C134.883 17.2574 135.013 17.2267 135.1 17.1655C135.19 17.1007 135.235 17.0106 135.235 16.8954C135.235 16.7765 135.19 16.6883 135.1 16.6307C135.013 16.573 134.883 16.5442 134.711 16.5442H134.003V17.2574ZM105.949 25.9375V22.1558H106.522L108.18 24.9164H107.872L109.504 22.1558H110.076L110.087 25.9375H109.417L109.412 23.1985H109.552L108.169 25.5053H107.856L106.451 23.1985H106.613V25.9375H105.949ZM112.356 25.9753C112.06 25.9753 111.797 25.9123 111.567 25.7862C111.336 25.6566 111.154 25.4801 111.021 25.2568C110.888 25.0335 110.821 24.7796 110.821 24.4951C110.821 24.2069 110.888 23.953 111.021 23.7333C111.154 23.51 111.336 23.3353 111.567 23.2093C111.797 23.0832 112.06 23.0202 112.356 23.0202C112.655 23.0202 112.919 23.0832 113.15 23.2093C113.384 23.3353 113.566 23.5082 113.695 23.7279C113.829 23.9476 113.895 24.2033 113.895 24.4951C113.895 24.7796 113.829 25.0335 113.695 25.2568C113.566 25.4801 113.384 25.6566 113.15 25.7862C112.919 25.9123 112.655 25.9753 112.356 25.9753ZM112.356 25.3973C112.521 25.3973 112.669 25.3612 112.799 25.2892C112.928 25.2172 113.029 25.1127 113.101 24.9759C113.177 24.839 113.215 24.6787 113.215 24.4951C113.215 24.3078 113.177 24.1475 113.101 24.0142C113.029 23.8774 112.928 23.7729 112.799 23.7009C112.669 23.6289 112.523 23.5929 112.361 23.5929C112.195 23.5929 112.048 23.6289 111.918 23.7009C111.792 23.7729 111.691 23.8774 111.615 24.0142C111.54 24.1475 111.502 24.3078 111.502 24.4951C111.502 24.6787 111.54 24.839 111.615 24.9759C111.691 25.1127 111.792 25.2172 111.918 25.2892C112.048 25.3612 112.193 25.3973 112.356 25.3973ZM115.875 25.9753C115.573 25.9753 115.303 25.9123 115.065 25.7862C114.831 25.6566 114.647 25.4801 114.514 25.2568C114.38 25.0335 114.314 24.7796 114.314 24.4951C114.314 24.2069 114.38 23.953 114.514 23.7333C114.647 23.51 114.831 23.3353 115.065 23.2093C115.303 23.0832 115.573 23.0202 115.875 23.0202C116.156 23.0202 116.403 23.0778 116.615 23.1931C116.831 23.3047 116.995 23.4704 117.107 23.6901L116.588 23.9926C116.502 23.8558 116.396 23.7549 116.27 23.6901C116.147 23.6253 116.014 23.5929 115.87 23.5929C115.704 23.5929 115.555 23.6289 115.421 23.7009C115.288 23.7729 115.184 23.8774 115.108 24.0142C115.032 24.1475 114.995 24.3078 114.995 24.4951C114.995 24.6823 115.032 24.8444 115.108 24.9813C115.184 25.1145 115.288 25.2172 115.421 25.2892C115.555 25.3612 115.704 25.3973 115.87 25.3973C116.014 25.3973 116.147 25.3648 116.27 25.3C116.396 25.2352 116.502 25.1343 116.588 24.9975L117.107 25.3C116.995 25.5161 116.831 25.6836 116.615 25.8024C116.403 25.9177 116.156 25.9753 115.875 25.9753ZM119.771 25.9375L118.728 24.5545L119.279 24.2141L120.565 25.9375H119.771ZM117.701 25.9375V23.0526H118.377V25.9375H117.701ZM118.177 24.7814V24.2195H119.155V24.7814H118.177ZM119.344 24.5761L118.712 24.5005L119.771 23.0526H120.495L119.344 24.5761ZM121.041 25.9375V23.0526H122.451C122.8 23.0526 123.074 23.1174 123.272 23.2471C123.474 23.3768 123.575 23.5604 123.575 23.7981C123.575 24.0322 123.481 24.2159 123.294 24.3492C123.107 24.4788 122.858 24.5437 122.548 24.5437L122.629 24.3762C122.979 24.3762 123.238 24.441 123.407 24.5707C123.58 24.6967 123.667 24.8822 123.667 25.1271C123.667 25.3829 123.571 25.5827 123.38 25.7268C123.189 25.8673 122.899 25.9375 122.51 25.9375H121.041ZM121.684 25.4459H122.456C122.64 25.4459 122.779 25.4171 122.872 25.3594C122.966 25.2982 123.013 25.2064 123.013 25.0839C123.013 24.9543 122.97 24.8588 122.883 24.7976C122.797 24.7364 122.662 24.7058 122.478 24.7058H121.684V25.4459ZM121.684 24.2574H122.392C122.565 24.2574 122.694 24.2267 122.781 24.1655C122.871 24.1007 122.916 24.0106 122.916 23.8954C122.916 23.7765 122.871 23.6883 122.781 23.6307C122.694 23.573 122.565 23.5442 122.392 23.5442H121.684V24.2574ZM127.298 25.9375V23.0526H127.973V25.9375H127.298ZM125.791 24.0034C126.161 24.0034 126.442 24.0863 126.633 24.2519C126.828 24.4176 126.925 24.6517 126.925 24.9543C126.925 25.2676 126.817 25.5125 126.601 25.689C126.388 25.8619 126.086 25.9465 125.693 25.9429L124.386 25.9375V23.0526H125.061V23.998L125.791 24.0034ZM125.634 25.4459C125.832 25.4495 125.983 25.4081 126.088 25.3216C126.192 25.2352 126.244 25.1091 126.244 24.9435C126.244 24.7778 126.192 24.6589 126.088 24.5869C125.987 24.5113 125.836 24.4716 125.634 24.468L125.061 24.4626V25.4405L125.634 25.4459Z" fill="#005D62"/>
</svg>
