<svg width="47" height="48" viewBox="0 0 47 48" fill="none" xmlns="http://www.w3.org/2000/svg">
<path d="M14.4146 28.3945V27.1327H15.2709L15.2691 27.331H14.5895L14.6436 27.2751L14.6454 28.3945H14.4146ZM15.3012 28.3945V27.4319H15.5266V28.0665L16.0583 27.4319H16.2638V28.3945H16.0385V27.76L15.5085 28.3945H15.3012ZM16.4264 28.3927L16.4372 28.2035C16.4456 28.2047 16.4534 28.2059 16.4606 28.2071C16.4678 28.2083 16.4744 28.2089 16.4804 28.2089C16.5177 28.2089 16.5465 28.1974 16.567 28.1746C16.5874 28.1518 16.6024 28.1211 16.612 28.0827C16.6228 28.043 16.6301 27.9992 16.6337 27.9511C16.6385 27.9018 16.6421 27.8525 16.6445 27.8033L16.6607 27.4319H17.4394V28.3945H17.2141V27.5617L17.2664 27.623H16.8085L16.8572 27.5599L16.8446 27.8141C16.841 27.8994 16.8337 27.9787 16.8229 28.052C16.8133 28.1241 16.7977 28.1872 16.7761 28.2413C16.7556 28.2954 16.7268 28.3374 16.6895 28.3675C16.6535 28.3975 16.6072 28.4126 16.5507 28.4126C16.5327 28.4126 16.5129 28.4108 16.4912 28.4071C16.4708 28.4035 16.4492 28.3987 16.4264 28.3927ZM18.226 27.7492C18.3498 27.7492 18.4441 27.7768 18.509 27.8321C18.5739 27.8874 18.6064 27.9655 18.6064 28.0665C18.6064 28.171 18.5703 28.2527 18.4982 28.3116C18.4261 28.3693 18.3245 28.3975 18.1936 28.3963L17.7429 28.3945V27.4319H17.9682V27.7474L18.226 27.7492ZM18.1737 28.2305C18.2398 28.2317 18.2903 28.2179 18.3251 28.189C18.36 28.1602 18.3774 28.1181 18.3774 28.0628C18.3774 28.0076 18.36 27.9679 18.3251 27.9439C18.2915 27.9186 18.241 27.9054 18.1737 27.9042L17.9682 27.9024V28.2287L18.1737 28.2305ZM19.4413 28.29V27.623H19.0717L19.0663 27.778C19.0639 27.8333 19.0603 27.8868 19.0555 27.9385C19.0507 27.9889 19.0429 28.0358 19.0321 28.0791C19.0213 28.1211 19.0057 28.156 18.9852 28.1836C18.9648 28.2113 18.9378 28.2293 18.9041 28.2377L18.6806 28.2035C18.7166 28.2035 18.7455 28.192 18.7671 28.1692C18.7899 28.1452 18.8074 28.1127 18.8194 28.0719C18.8326 28.0298 18.8422 27.9823 18.8482 27.9295C18.8542 27.8754 18.8584 27.8195 18.8608 27.7618L18.8735 27.4319H19.6666V28.29H19.4413ZM18.6463 28.609V28.2035H19.809V28.609H19.5981V28.3945H18.8554V28.609H18.6463ZM20.0103 28.3945V27.4319H20.2356V28.0665L20.7674 27.4319H20.9729V28.3945H20.7476V27.76L20.2176 28.3945H20.0103ZM21.8871 28.3945V28.0665L21.9195 28.1043H21.6311C21.4989 28.1043 21.395 28.0767 21.3193 28.0214C21.2447 27.9649 21.2075 27.8838 21.2075 27.778C21.2075 27.6651 21.2471 27.5791 21.3265 27.5203C21.407 27.4614 21.5139 27.4319 21.6473 27.4319H22.089V28.3945H21.8871ZM21.1949 28.3945L21.4545 28.0268H21.6852L21.4364 28.3945H21.1949ZM21.8871 27.9943V27.5617L21.9195 27.6212H21.6545C21.5848 27.6212 21.5308 27.6344 21.4923 27.6609C21.4551 27.6861 21.4364 27.7276 21.4364 27.7852C21.4364 27.8934 21.5067 27.9475 21.6473 27.9475H21.9195L21.8871 27.9943ZM23.4238 28.4071C23.3457 28.4071 23.2742 28.3891 23.2093 28.3531C23.1456 28.317 23.0946 28.2629 23.0561 28.1908C23.0189 28.1175 23.0002 28.025 23.0002 27.9132C23.0002 27.8003 23.0183 27.7077 23.0543 27.6356C23.0916 27.5635 23.142 27.51 23.2057 27.4752C23.2694 27.4391 23.3421 27.4211 23.4238 27.4211C23.5188 27.4211 23.6023 27.4415 23.6744 27.4824C23.7477 27.5233 23.8054 27.5803 23.8475 27.6536C23.8907 27.727 23.9124 27.8135 23.9124 27.9132C23.9124 28.013 23.8907 28.1001 23.8475 28.1746C23.8054 28.2479 23.7477 28.305 23.6744 28.3459C23.6023 28.3867 23.5188 28.4071 23.4238 28.4071ZM22.8903 28.7442V27.4319H23.1048V27.6591L23.0976 27.915L23.1156 28.171V28.7442H22.8903ZM23.3986 28.2143C23.4527 28.2143 23.5008 28.2023 23.5428 28.1782C23.5861 28.1542 23.6203 28.1193 23.6456 28.0737C23.6708 28.028 23.6834 27.9745 23.6834 27.9132C23.6834 27.8507 23.6708 27.7973 23.6456 27.7528C23.6203 27.7071 23.5861 27.6723 23.5428 27.6482C23.5008 27.6242 23.4527 27.6122 23.3986 27.6122C23.3445 27.6122 23.2959 27.6242 23.2526 27.6482C23.2093 27.6723 23.1751 27.7071 23.1498 27.7528C23.1246 27.7973 23.112 27.8507 23.112 27.9132C23.112 27.9745 23.1246 28.028 23.1498 28.0737C23.1751 28.1193 23.2093 28.1542 23.2526 28.1782C23.2959 28.2023 23.3445 28.2143 23.3986 28.2143ZM24.1366 28.3945V27.4319H24.3619V28.0665L24.8937 27.4319H25.0992V28.3945H24.8739V27.76L24.3439 28.3945H24.1366ZM25.5577 27.9889V27.8267H26.0804V27.9889H25.5577ZM25.6892 27.4175C25.7926 27.4175 25.8839 27.4391 25.9632 27.4824C26.0426 27.5245 26.1051 27.5827 26.1507 27.6573C26.1964 27.7306 26.2192 27.8159 26.2192 27.9132C26.2192 28.0094 26.1964 28.0953 26.1507 28.171C26.1051 28.2455 26.0426 28.3044 25.9632 28.3477C25.8839 28.3897 25.7926 28.4108 25.6892 28.4108C25.6027 28.4108 25.5234 28.3963 25.4513 28.3675C25.3792 28.3386 25.3191 28.2972 25.271 28.2431L25.4008 28.1169C25.4393 28.1542 25.4813 28.1824 25.527 28.2016C25.5739 28.2209 25.625 28.2305 25.6802 28.2305C25.7451 28.2305 25.8022 28.2173 25.8515 28.1908C25.9008 28.1632 25.9398 28.1253 25.9687 28.0773C25.9975 28.0292 26.0119 27.9745 26.0119 27.9132C26.0119 27.8507 25.9975 27.7961 25.9687 27.7492C25.9398 27.7011 25.9008 27.6639 25.8515 27.6374C25.8022 27.6098 25.7451 27.596 25.6802 27.596C25.625 27.596 25.5739 27.6056 25.527 27.6248C25.4813 27.644 25.4393 27.6729 25.4008 27.7113L25.271 27.5851C25.3191 27.5311 25.3792 27.4896 25.4513 27.4608C25.5234 27.4319 25.6027 27.4175 25.6892 27.4175ZM26.2863 28.3927L26.2971 28.2035C26.3055 28.2047 26.3133 28.2059 26.3205 28.2071C26.3277 28.2083 26.3343 28.2089 26.3404 28.2089C26.3776 28.2089 26.4064 28.1974 26.4269 28.1746C26.4473 28.1518 26.4623 28.1211 26.4719 28.0827C26.4828 28.043 26.49 27.9992 26.4936 27.9511C26.4984 27.9018 26.502 27.8525 26.5044 27.8033L26.5206 27.4319H27.2994V28.3945H27.074V27.5617L27.1263 27.623H26.6684L26.7171 27.5599L26.7045 27.8141C26.7009 27.8994 26.6937 27.9787 26.6829 28.052C26.6732 28.1241 26.6576 28.1872 26.636 28.2413C26.6156 28.2954 26.5867 28.3374 26.5495 28.3675C26.5134 28.3975 26.4671 28.4126 26.4107 28.4126C26.3926 28.4126 26.3728 28.4108 26.3512 28.4071C26.3307 28.4035 26.3091 28.3987 26.2863 28.3927ZM27.8029 28.3945V27.5689L27.8552 27.623H27.464V27.4319H28.3653V27.623H27.976L28.0282 27.5689V28.3945H27.8029ZM28.9156 28.4071C28.817 28.4071 28.7293 28.3861 28.6524 28.3441C28.5755 28.3008 28.5148 28.2419 28.4703 28.1674C28.4258 28.0929 28.4036 28.0082 28.4036 27.9132C28.4036 27.8171 28.4258 27.7324 28.4703 27.6591C28.5148 27.5845 28.5755 27.5263 28.6524 27.4842C28.7293 27.4421 28.817 27.4211 28.9156 27.4211C29.0153 27.4211 29.1036 27.4421 29.1805 27.4842C29.2587 27.5263 29.3193 27.5839 29.3626 27.6573C29.4071 27.7306 29.4293 27.8159 29.4293 27.9132C29.4293 28.0082 29.4071 28.0929 29.3626 28.1674C29.3193 28.2419 29.2587 28.3008 29.1805 28.3441C29.1036 28.3861 29.0153 28.4071 28.9156 28.4071ZM28.9156 28.2143C28.9708 28.2143 29.0201 28.2023 29.0634 28.1782C29.1066 28.1542 29.1403 28.1193 29.1643 28.0737C29.1896 28.028 29.2022 27.9745 29.2022 27.9132C29.2022 27.8507 29.1896 27.7973 29.1643 27.7528C29.1403 27.7071 29.1066 27.6723 29.0634 27.6482C29.0201 27.6242 28.9714 27.6122 28.9174 27.6122C28.8621 27.6122 28.8128 27.6242 28.7695 27.6482C28.7275 27.6723 28.6938 27.7071 28.6686 27.7528C28.6434 27.7973 28.6307 27.8507 28.6307 27.9132C28.6307 27.9745 28.6434 28.028 28.6686 28.0737C28.6938 28.1193 28.7275 28.1542 28.7695 28.1782C28.8128 28.2023 28.8615 28.2143 28.9156 28.2143ZM30.1855 28.4071C30.1074 28.4071 30.0359 28.3891 29.971 28.3531C29.9073 28.317 29.8562 28.2629 29.8177 28.1908C29.7805 28.1175 29.7619 28.025 29.7619 27.9132C29.7619 27.8003 29.7799 27.7077 29.8159 27.6356C29.8532 27.5635 29.9037 27.51 29.9674 27.4752C30.0311 27.4391 30.1038 27.4211 30.1855 27.4211C30.2804 27.4211 30.3639 27.4415 30.4361 27.4824C30.5094 27.5233 30.567 27.5803 30.6091 27.6536C30.6524 27.727 30.674 27.8135 30.674 27.9132C30.674 28.013 30.6524 28.1001 30.6091 28.1746C30.567 28.2479 30.5094 28.305 30.4361 28.3459C30.3639 28.3867 30.2804 28.4071 30.1855 28.4071ZM29.6519 28.7442V27.4319H29.8664V27.6591L29.8592 27.915L29.8772 28.171V28.7442H29.6519ZM30.1602 28.2143C30.2143 28.2143 30.2624 28.2023 30.3045 28.1782C30.3477 28.1542 30.382 28.1193 30.4072 28.0737C30.4324 28.028 30.4451 27.9745 30.4451 27.9132C30.4451 27.8507 30.4324 27.7973 30.4072 27.7528C30.382 27.7071 30.3477 27.6723 30.3045 27.6482C30.2624 27.6242 30.2143 27.6122 30.1602 27.6122C30.1062 27.6122 30.0575 27.6242 30.0142 27.6482C29.971 27.6723 29.9367 27.7071 29.9115 27.7528C29.8862 27.7973 29.8736 27.8507 29.8736 27.9132C29.8736 27.9745 29.8862 28.028 29.9115 28.0737C29.9367 28.1193 29.971 28.1542 30.0142 28.1782C30.0575 28.2023 30.1062 28.2143 30.1602 28.2143ZM31.3273 28.4071C31.2287 28.4071 31.141 28.3861 31.0641 28.3441C30.9872 28.3008 30.9265 28.2419 30.882 28.1674C30.8376 28.0929 30.8153 28.0082 30.8153 27.9132C30.8153 27.8171 30.8376 27.7324 30.882 27.6591C30.9265 27.5845 30.9872 27.5263 31.0641 27.4842C31.141 27.4421 31.2287 27.4211 31.3273 27.4211C31.427 27.4211 31.5154 27.4421 31.5923 27.4842C31.6704 27.5263 31.7311 27.5839 31.7743 27.6573C31.8188 27.7306 31.841 27.8159 31.841 27.9132C31.841 28.0082 31.8188 28.0929 31.7743 28.1674C31.7311 28.2419 31.6704 28.3008 31.5923 28.3441C31.5154 28.3861 31.427 28.4071 31.3273 28.4071ZM31.3273 28.2143C31.3826 28.2143 31.4318 28.2023 31.4751 28.1782C31.5184 28.1542 31.552 28.1193 31.576 28.0737C31.6013 28.028 31.6139 27.9745 31.6139 27.9132C31.6139 27.8507 31.6013 27.7973 31.576 27.7528C31.552 27.7071 31.5184 27.6723 31.4751 27.6482C31.4318 27.6242 31.3832 27.6122 31.3291 27.6122C31.2738 27.6122 31.2245 27.6242 31.1813 27.6482C31.1392 27.6723 31.1056 27.7071 31.0803 27.7528C31.0551 27.7973 31.0425 27.8507 31.0425 27.9132C31.0425 27.9745 31.0551 28.028 31.0803 28.0737C31.1056 28.1193 31.1392 28.1542 31.1813 28.1782C31.2245 28.2023 31.2732 28.2143 31.3273 28.2143ZM32.0636 28.3945V27.4319H32.5341C32.6507 27.4319 32.742 27.4536 32.8081 27.4968C32.8754 27.5401 32.9091 27.6014 32.9091 27.6807C32.9091 27.7588 32.8778 27.8201 32.8153 27.8646C32.7528 27.9078 32.6699 27.9295 32.5666 27.9295L32.5936 27.8736C32.7102 27.8736 32.7967 27.8952 32.8532 27.9385C32.9109 27.9805 32.9397 28.0424 32.9397 28.1241C32.9397 28.2095 32.9079 28.2762 32.8442 28.3242C32.7805 28.3711 32.6837 28.3945 32.5539 28.3945H32.0636ZM32.2781 28.2305H32.5359C32.5972 28.2305 32.6435 28.2209 32.6747 28.2016C32.706 28.1812 32.7216 28.1506 32.7216 28.1097C32.7216 28.0665 32.7072 28.0346 32.6783 28.0142C32.6495 27.9937 32.6044 27.9835 32.5431 27.9835H32.2781V28.2305ZM32.2781 27.8339H32.5143C32.572 27.8339 32.6152 27.8237 32.6441 27.8033C32.6741 27.7816 32.6891 27.7516 32.6891 27.7131C32.6891 27.6735 32.6741 27.644 32.6441 27.6248C32.6152 27.6056 32.572 27.596 32.5143 27.596H32.2781V27.8339ZM19.9713 30.3945V29.1327H20.1624L20.7158 30.0538H20.613L21.1574 29.1327H21.3485L21.3521 30.3945H21.1286L21.1268 29.4806H21.1737L20.7122 30.2503H20.6076L20.1389 29.4806H20.193V30.3945H19.9713ZM22.109 30.4071C22.0105 30.4071 21.9228 30.3861 21.8458 30.3441C21.7689 30.3008 21.7082 30.2419 21.6638 30.1674C21.6193 30.0929 21.5971 30.0082 21.5971 29.9132C21.5971 29.8171 21.6193 29.7324 21.6638 29.6591C21.7082 29.5845 21.7689 29.5263 21.8458 29.4842C21.9228 29.4421 22.0105 29.4211 22.109 29.4211C22.2088 29.4211 22.2971 29.4421 22.374 29.4842C22.4521 29.5263 22.5128 29.5839 22.5561 29.6573C22.6005 29.7306 22.6228 29.8159 22.6228 29.9132C22.6228 30.0082 22.6005 30.0929 22.5561 30.1674C22.5128 30.2419 22.4521 30.3008 22.374 30.3441C22.2971 30.3861 22.2088 30.4071 22.109 30.4071ZM22.109 30.2143C22.1643 30.2143 22.2136 30.2023 22.2568 30.1782C22.3001 30.1542 22.3338 30.1193 22.3578 30.0737C22.383 30.028 22.3956 29.9745 22.3956 29.9132C22.3956 29.8507 22.383 29.7973 22.3578 29.7528C22.3338 29.7071 22.3001 29.6723 22.2568 29.6482C22.2136 29.6242 22.1649 29.6122 22.1108 29.6122C22.0555 29.6122 22.0063 29.6242 21.963 29.6482C21.921 29.6723 21.8873 29.7071 21.8621 29.7528C21.8368 29.7973 21.8242 29.8507 21.8242 29.9132C21.8242 29.9745 21.8368 30.028 21.8621 30.0737C21.8873 30.1193 21.921 30.1542 21.963 30.1782C22.0063 30.2023 22.0549 30.2143 22.109 30.2143ZM23.2834 30.4071C23.1825 30.4071 23.0923 30.3861 23.013 30.3441C22.9349 30.3008 22.8736 30.2419 22.8292 30.1674C22.7847 30.0929 22.7625 30.0082 22.7625 29.9132C22.7625 29.8171 22.7847 29.7324 22.8292 29.6591C22.8736 29.5845 22.9349 29.5263 23.013 29.4842C23.0923 29.4421 23.1825 29.4211 23.2834 29.4211C23.3772 29.4211 23.4595 29.4403 23.5304 29.4788C23.6025 29.516 23.6572 29.5713 23.6944 29.6446L23.5214 29.7456C23.4925 29.6999 23.4571 29.6663 23.415 29.6446C23.3741 29.623 23.3297 29.6122 23.2816 29.6122C23.2263 29.6122 23.1765 29.6242 23.132 29.6482C23.0875 29.6723 23.0527 29.7071 23.0274 29.7528C23.0022 29.7973 22.9896 29.8507 22.9896 29.9132C22.9896 29.9757 23.0022 30.0298 23.0274 30.0755C23.0527 30.1199 23.0875 30.1542 23.132 30.1782C23.1765 30.2023 23.2263 30.2143 23.2816 30.2143C23.3297 30.2143 23.3741 30.2035 23.415 30.1818C23.4571 30.1602 23.4925 30.1265 23.5214 30.0809L23.6944 30.1818C23.6572 30.2539 23.6025 30.3098 23.5304 30.3495C23.4595 30.3879 23.3772 30.4071 23.2834 30.4071ZM24.5832 30.3945L24.2353 29.9331L24.4192 29.8195L24.8482 30.3945H24.5832ZM23.8928 30.3945V29.4319H24.1181V30.3945H23.8928ZM24.0514 30.0088V29.8213H24.3777V30.0088H24.0514ZM24.4408 29.9403L24.2299 29.915L24.5832 29.4319H24.8248L24.4408 29.9403ZM25.0071 30.3945V29.4319H25.4776C25.5942 29.4319 25.6855 29.4536 25.7516 29.4968C25.8189 29.5401 25.8526 29.6014 25.8526 29.6807C25.8526 29.7588 25.8213 29.8201 25.7588 29.8646C25.6963 29.9078 25.6134 29.9295 25.5101 29.9295L25.5371 29.8736C25.6537 29.8736 25.7402 29.8952 25.7967 29.9385C25.8544 29.9805 25.8832 30.0424 25.8832 30.1241C25.8832 30.2095 25.8514 30.2762 25.7877 30.3242C25.724 30.3711 25.6272 30.3945 25.4974 30.3945H25.0071ZM25.2216 30.2305H25.4794C25.5407 30.2305 25.587 30.2209 25.6182 30.2016C25.6495 30.1812 25.6651 30.1506 25.6651 30.1097C25.6651 30.0665 25.6507 30.0346 25.6218 30.0142C25.593 29.9937 25.5479 29.9835 25.4866 29.9835H25.2216V30.2305ZM25.2216 29.8339H25.4578C25.5155 29.8339 25.5587 29.8237 25.5876 29.8033C25.6176 29.7816 25.6326 29.7516 25.6326 29.7131C25.6326 29.6735 25.6176 29.644 25.5876 29.6248C25.5587 29.6056 25.5155 29.596 25.4578 29.596H25.2216V29.8339ZM27.0948 30.3945V29.4319H27.3202V30.3945H27.0948ZM26.5919 29.7492C26.7157 29.7492 26.8094 29.7768 26.8731 29.8321C26.938 29.8874 26.9704 29.9655 26.9704 30.0665C26.9704 30.171 26.9344 30.2527 26.8623 30.3116C26.7914 30.3693 26.6904 30.3975 26.5594 30.3963L26.1232 30.3945V29.4319H26.3485V29.7474L26.5919 29.7492ZM26.5396 30.2305C26.6057 30.2317 26.6562 30.2179 26.691 30.189C26.7259 30.1602 26.7433 30.1181 26.7433 30.0628C26.7433 30.0076 26.7259 29.9679 26.691 29.9439C26.6574 29.9186 26.6069 29.9054 26.5396 29.9042L26.3485 29.9024V30.2287L26.5396 30.2305Z" fill="#316067"/>
<path d="M18.3812 20.1658H15.3559L15.3651 25.418H13.9023V18.9453H18.3904L18.3812 20.1658Z" fill="#316067"/>
<path d="M22.7891 22.121C23.0192 21.9268 23.1341 21.6514 23.1341 21.2936C23.1341 20.9299 23.0192 20.6506 22.7891 20.4567C22.5587 20.2626 22.2225 20.1655 21.7804 20.1655H20.5811V22.4123H21.7804C22.2225 22.4123 22.5587 22.3152 22.7891 22.121ZM23.3296 19.2317C23.7444 19.4226 24.064 19.6941 24.2881 20.0455C24.512 20.3966 24.6243 20.8127 24.6243 21.2937C24.6243 21.7684 24.5121 22.183 24.2881 22.5375C24.0639 22.8915 23.7444 23.163 23.3296 23.3512C22.9146 23.5391 22.4254 23.6329 21.8621 23.6329H20.581V25.4177H19.1094V18.9453H21.8621C22.4254 18.9453 22.9146 19.041 23.3296 19.2318V19.2317Z" fill="#316067"/>
<path d="M31.2088 25.4177L31.1999 21.5433L29.3284 24.7334H28.6744L26.8025 21.6172V25.4177H25.4219V18.9453H26.6392L29.0194 22.9673L31.3632 18.9453H32.5808L32.59 25.4177H31.2088Z" fill="#316067"/>
<path d="M38.2568 8.55728C41.6065 11.9663 43.5924 16.2464 44.2144 20.6876L46.4493 20.5074C45.7841 15.5432 43.5821 10.7534 39.8403 6.94525C38.3307 5.40896 36.663 4.12847 34.8916 3.10156L33.8945 5.14816C35.4546 6.06508 36.9238 7.20067 38.2568 8.55715V8.55728Z" fill="#283B3C"/>
<path d="M8.41597 8.56163C9.02661 7.94015 9.66641 7.36593 10.3301 6.83686L9.06131 4.95117C8.28726 5.56096 7.54223 6.22706 6.83228 6.95013C5.8644 7.93464 5.00033 8.98622 4.23828 10.0887L6.14644 11.2923C6.81667 10.3347 7.57267 9.4204 8.41609 8.5615L8.41597 8.56163Z" fill="#1CAB98"/>
<path d="M42.4493 32.833L44.4168 33.9301C45.9871 30.5582 46.7352 26.8854 46.6585 23.2266L44.4216 23.4066C44.4697 26.6277 43.8126 29.8579 42.4492 32.833H42.4493Z" fill="#316067"/>
<path d="M31.4792 3.93482L32.4762 1.88862C25.65 -1.06033 17.716 -0.555804 11.2695 3.40194L12.5369 5.28513C18.3073 1.79215 25.374 1.34288 31.4792 3.93482Z" fill="#316067"/>
<path d="M4.72204 13.6094L2.81465 12.4062C-1.22078 19.9808 -0.916942 29.3324 3.72618 36.639L5.53762 35.2904C1.43035 28.739 1.15849 20.3984 4.72204 13.6096V13.6094Z" fill="#283B3C"/>
<path d="M38.249 38.9281C33.7225 43.5351 27.6334 45.6062 21.7017 45.1443L21.3867 47.4037C27.9932 47.9595 34.7895 45.6731 39.8327 40.5396C41.1081 39.242 42.2045 37.8304 43.1224 36.3362L41.1529 35.2383C40.3373 36.548 39.3702 37.7872 38.2491 38.9281H38.249Z" fill="#283B3C"/>
<path d="M8.41847 38.9336C7.96542 38.4721 7.5388 37.9949 7.13592 37.5039L5.32422 38.8525C5.79687 39.435 6.29906 40.001 6.83452 40.545C10.2113 43.9817 14.3732 46.1419 18.7384 47.0288L19.0533 44.7683C15.1534 43.9508 11.4383 42.007 8.41834 38.9336H8.41847Z" fill="#1CAB98"/>
<path d="M14.2063 39.4583C13.7969 39.2118 13.4048 38.9472 13.022 38.6738L11.5938 40.4426C12.0668 40.787 12.5567 41.1142 13.0664 41.4205C16.5615 43.5236 20.4326 44.4255 24.2142 44.2507L23.9661 41.9758C20.6517 42.1013 17.2672 41.2996 14.2062 39.4583H14.2063Z" fill="#283B3C"/>
<path d="M7.90084 14.451C8.23925 13.8685 8.60641 13.3146 8.99614 12.7855L7.30515 11.2793C6.82876 11.9153 6.38241 12.5852 5.97308 13.2907C5.40305 14.2717 4.92421 15.2818 4.53125 16.3112L6.67439 16.9941C7.01318 16.1286 7.42096 15.2781 7.90097 14.451H7.90084Z" fill="#1CAB98"/>
<path d="M5.85661 19.6188L3.7127 18.9355C2.031 26.0458 4.21785 33.65 9.50489 38.707L10.933 36.9374C6.34899 32.478 4.43799 25.8468 5.85661 19.6188Z" fill="#316067"/>
<path d="M25.7147 5.6641L26.18 3.42889C19.9611 2.53206 13.571 4.64349 9.0625 9.22901L10.7548 10.736C14.7204 6.76989 20.2822 4.92726 25.7147 5.6641Z" fill="#2B2826"/>
<path d="M32.4582 8.03671C35.8602 10.0837 38.3515 13.1059 39.7986 16.5474L41.9246 15.8051C40.3066 11.8678 37.4773 8.40867 33.5979 6.0745C32.0653 5.1522 30.4598 4.46129 28.8213 3.99023L28.3555 6.22623C29.7625 6.64374 31.1401 7.24382 32.4582 8.03671Z" fill="#273738"/>
<path d="M40.9844 26.9096L43.1638 27.4756C43.7137 24.4304 43.5692 21.3245 42.7906 18.3906L40.668 19.1325C41.3136 21.6479 41.4339 24.3026 40.9846 26.9096H40.9844Z" fill="#273738"/>
<path d="M38.7626 33.0318C36.0319 37.7326 31.5361 40.7259 26.6367 41.6658L26.8846 43.941C32.4608 42.9196 37.5878 39.5335 40.6905 34.192C41.4514 32.8827 42.0506 31.521 42.4978 30.1318L40.3207 29.5664C39.9285 30.7516 39.4122 31.913 38.7626 33.0318Z" fill="#2B2826"/>
<path d="M17.8957 37.6981C17.4628 37.5234 17.044 37.3278 16.637 37.1172L15.4375 39.0543C15.9626 39.3344 16.5069 39.5901 17.0703 39.8174C17.8797 40.1438 18.6994 40.4017 19.5227 40.5952L19.8525 38.3285C19.1954 38.1655 18.5417 37.9586 17.8957 37.6982V37.6981Z" fill="#2B2826"/>
<path d="M37.0454 29.2736C36.9311 29.5674 36.8059 29.8536 36.6758 30.1358L38.6119 31.2939C38.7954 30.9089 38.9705 30.5178 39.1278 30.1137C40.3602 26.9487 40.6029 23.6312 40.0148 20.5117L37.8499 21.1152C38.3184 23.7711 38.0921 26.5859 37.0454 29.2736Z" fill="#316067"/>
<path d="M22.5167 38.7253L22.1875 40.9901C28.0794 41.393 33.8429 38.6189 37.2591 33.6484L35.3232 32.4902C32.3797 36.6632 27.5119 39.0041 22.5167 38.7253Z" fill="#316067"/>
<path d="M28.7638 9.78594C32.7894 11.4095 35.7242 14.6464 37.1369 18.4797L39.3015 17.8766C37.7024 13.3764 34.294 9.56451 29.5891 7.66675C28.4866 7.22155 27.3651 6.90392 26.2399 6.70508L26.0312 8.9853C26.949 9.15961 27.864 9.42276 28.7636 9.78607L28.7638 9.78594Z" fill="#1CAB98"/>
<path d="M8.59122 24.3286L6.34375 24.209C6.48948 29.4443 8.98082 34.4194 13.1621 37.599L14.3612 35.6623C10.8646 32.9348 8.767 28.7478 8.59122 24.3286Z" fill="#2B2826"/>
<path d="M23.3587 8.73539L23.5678 6.45647C21.1506 6.42524 18.7739 6.91926 16.5938 7.87832L17.647 9.90181C19.4412 9.13872 21.3823 8.7342 23.3587 8.73539Z" fill="#316067"/>
<path d="M9.61967 18.2231C10.7863 15.227 12.803 12.8282 15.2747 11.1911L14.2226 9.16992C11.2971 11.0573 8.90831 13.8628 7.53715 17.383C7.01162 18.7334 6.66754 20.1113 6.48828 21.4892L8.73588 21.609C8.89721 20.4718 9.18584 19.3362 9.61967 18.223V18.2231Z" fill="#273738"/>
<path d="M34.8854 22.9373L37.133 23.0481C36.9016 18.3463 34.3467 14.0053 30.3211 11.6035L29.375 13.6882C32.5772 15.6833 34.6288 19.1571 34.8855 22.9373H34.8854Z" fill="#283B3C"/>
<path d="M11.8433 25.1797L9.59375 25.1923C9.78062 27.0074 10.3129 28.7534 11.1411 30.3394L13.0158 29.0731C12.4121 27.8629 12.0096 26.5463 11.8434 25.1797H11.8433Z" fill="#316067"/>
<path d="M20.1384 35.0727C17.8491 34.406 15.9181 33.0783 14.4875 31.3516L12.6133 32.6166C14.3363 34.7773 16.6997 36.4423 19.5219 37.2644C20.553 37.5649 21.5908 37.7329 22.6186 37.7864L22.5143 35.499C21.7245 35.4421 20.9292 35.3034 20.1382 35.0728L20.1384 35.0727Z" fill="#273738"/>
<path d="M25.1992 35.3707L25.3036 37.659C29.2732 37.0676 32.8562 34.7297 35.0216 31.227L33.0102 30.2031C31.226 32.9715 28.3683 34.8363 25.1992 35.3709V35.3707Z" fill="#1CAB98"/>
<path d="M34.466 26.9814C34.3923 27.2426 34.3083 27.4971 34.2188 27.7491L36.2338 28.7743C36.3763 28.3943 36.5077 28.007 36.6194 27.6086C36.7907 27.0005 36.9151 26.39 37.0034 25.7807L34.7547 25.6699C34.6829 26.1074 34.5889 26.545 34.4661 26.9814H34.466Z" fill="#2B2826"/>
<path d="M12.2007 20.4964C13.107 17.2734 15.2567 14.7508 17.9674 13.3059L17.1613 11.1641C13.817 12.866 11.1548 15.931 10.0473 19.8692C9.80584 20.7277 9.65224 21.5901 9.57422 22.4486L11.8266 22.436C11.8976 21.7904 12.0191 21.1418 12.2007 20.4964Z" fill="#316067"/>
<path d="M26.5164 12.4175C26.6563 12.4585 26.7935 12.504 26.9311 12.5495L27.8764 10.4671C27.6317 10.3805 27.3843 10.2995 27.1327 10.2259C24.604 9.48916 22.0349 9.52329 19.668 10.1899L20.4744 12.3322C22.3983 11.8303 24.4725 11.8219 26.5164 12.4175Z" fill="#2B2826"/>
</svg>
