<svg width="47" height="48" viewBox="0 0 47 48" fill="none" xmlns="http://www.w3.org/2000/svg">
<g clip-path="url(#clip0_2041_257)">
<path d="M14.4146 28.3946V27.1328H15.2709L15.2691 27.3311H14.5895L14.6436 27.2752L14.6454 28.3946H14.4146ZM15.3012 28.3946V27.432H15.5266V28.0666L16.0583 27.432H16.2638V28.3946H16.0385V27.7601L15.5085 28.3946H15.3012ZM16.4264 28.3928L16.4372 28.2036C16.4456 28.2048 16.4534 28.206 16.4606 28.2072C16.4678 28.2084 16.4744 28.209 16.4804 28.209C16.5177 28.209 16.5465 28.1975 16.567 28.1747C16.5874 28.1519 16.6024 28.1212 16.612 28.0828C16.6228 28.0431 16.6301 27.9993 16.6337 27.9512C16.6385 27.9019 16.6421 27.8526 16.6445 27.8034L16.6607 27.432H17.4394V28.3946H17.2141V27.5618L17.2664 27.6231H16.8085L16.8572 27.56L16.8446 27.8142C16.841 27.8995 16.8337 27.9788 16.8229 28.0521C16.8133 28.1242 16.7977 28.1873 16.7761 28.2414C16.7556 28.2955 16.7268 28.3375 16.6895 28.3676C16.6535 28.3976 16.6072 28.4127 16.5507 28.4127C16.5327 28.4127 16.5129 28.4109 16.4912 28.4072C16.4708 28.4036 16.4492 28.3988 16.4264 28.3928ZM18.226 27.7493C18.3498 27.7493 18.4441 27.7769 18.509 27.8322C18.5739 27.8875 18.6064 27.9656 18.6064 28.0666C18.6064 28.1711 18.5703 28.2528 18.4982 28.3117C18.4261 28.3694 18.3245 28.3976 18.1936 28.3964L17.7429 28.3946V27.432H17.9682V27.7475L18.226 27.7493ZM18.1737 28.2306C18.2398 28.2318 18.2903 28.218 18.3251 28.1891C18.36 28.1603 18.3774 28.1182 18.3774 28.0629C18.3774 28.0077 18.36 27.968 18.3251 27.944C18.2915 27.9187 18.241 27.9055 18.1737 27.9043L17.9682 27.9025V28.2288L18.1737 28.2306ZM19.4413 28.2901V27.6231H19.0717L19.0663 27.7781C19.0639 27.8334 19.0603 27.8869 19.0555 27.9386C19.0507 27.989 19.0429 28.0359 19.0321 28.0792C19.0213 28.1212 19.0057 28.1561 18.9852 28.1837C18.9648 28.2114 18.9378 28.2294 18.9041 28.2378L18.6806 28.2036C18.7166 28.2036 18.7455 28.1921 18.7671 28.1693C18.7899 28.1453 18.8074 28.1128 18.8194 28.072C18.8326 28.0299 18.8422 27.9824 18.8482 27.9296C18.8542 27.8755 18.8584 27.8196 18.8608 27.7619L18.8735 27.432H19.6666V28.2901H19.4413ZM18.6463 28.6091V28.2036H19.809V28.6091H19.5981V28.3946H18.8554V28.6091H18.6463ZM20.0103 28.3946V27.432H20.2356V28.0666L20.7674 27.432H20.9729V28.3946H20.7476V27.7601L20.2176 28.3946H20.0103ZM21.8871 28.3946V28.0666L21.9195 28.1044H21.6311C21.4989 28.1044 21.395 28.0768 21.3193 28.0215C21.2447 27.965 21.2075 27.8839 21.2075 27.7781C21.2075 27.6652 21.2471 27.5792 21.3265 27.5204C21.407 27.4615 21.5139 27.432 21.6473 27.432H22.089V28.3946H21.8871ZM21.1949 28.3946L21.4545 28.0269H21.6852L21.4364 28.3946H21.1949ZM21.8871 27.9944V27.5618L21.9195 27.6213H21.6545C21.5848 27.6213 21.5308 27.6345 21.4923 27.661C21.4551 27.6862 21.4364 27.7277 21.4364 27.7853C21.4364 27.8935 21.5067 27.9476 21.6473 27.9476H21.9195L21.8871 27.9944ZM23.4238 28.4072C23.3457 28.4072 23.2742 28.3892 23.2093 28.3532C23.1456 28.3171 23.0946 28.263 23.0561 28.1909C23.0189 28.1176 23.0002 28.0251 23.0002 27.9133C23.0002 27.8004 23.0183 27.7078 23.0543 27.6357C23.0916 27.5636 23.142 27.5101 23.2057 27.4753C23.2694 27.4392 23.3421 27.4212 23.4238 27.4212C23.5188 27.4212 23.6023 27.4416 23.6744 27.4825C23.7477 27.5234 23.8054 27.5804 23.8475 27.6537C23.8907 27.7271 23.9124 27.8136 23.9124 27.9133C23.9124 28.0131 23.8907 28.1002 23.8475 28.1747C23.8054 28.248 23.7477 28.3051 23.6744 28.346C23.6023 28.3868 23.5188 28.4072 23.4238 28.4072ZM22.8903 28.7443V27.432H23.1048V27.6592L23.0976 27.9151L23.1156 28.1711V28.7443H22.8903ZM23.3986 28.2144C23.4527 28.2144 23.5008 28.2024 23.5428 28.1783C23.5861 28.1543 23.6203 28.1194 23.6456 28.0738C23.6708 28.0281 23.6834 27.9746 23.6834 27.9133C23.6834 27.8508 23.6708 27.7974 23.6456 27.7529C23.6203 27.7072 23.5861 27.6724 23.5428 27.6483C23.5008 27.6243 23.4527 27.6123 23.3986 27.6123C23.3445 27.6123 23.2959 27.6243 23.2526 27.6483C23.2093 27.6724 23.1751 27.7072 23.1498 27.7529C23.1246 27.7974 23.112 27.8508 23.112 27.9133C23.112 27.9746 23.1246 28.0281 23.1498 28.0738C23.1751 28.1194 23.2093 28.1543 23.2526 28.1783C23.2959 28.2024 23.3445 28.2144 23.3986 28.2144ZM24.1366 28.3946V27.432H24.3619V28.0666L24.8937 27.432H25.0992V28.3946H24.8739V27.7601L24.3439 28.3946H24.1366ZM25.5577 27.989V27.8268H26.0804V27.989H25.5577ZM25.6892 27.4176C25.7926 27.4176 25.8839 27.4392 25.9632 27.4825C26.0426 27.5246 26.1051 27.5828 26.1507 27.6574C26.1964 27.7307 26.2192 27.816 26.2192 27.9133C26.2192 28.0095 26.1964 28.0954 26.1507 28.1711C26.1051 28.2456 26.0426 28.3045 25.9632 28.3478C25.8839 28.3898 25.7926 28.4109 25.6892 28.4109C25.6027 28.4109 25.5234 28.3964 25.4513 28.3676C25.3792 28.3387 25.3191 28.2973 25.271 28.2432L25.4008 28.117C25.4393 28.1543 25.4813 28.1825 25.527 28.2017C25.5739 28.221 25.625 28.2306 25.6802 28.2306C25.7451 28.2306 25.8022 28.2174 25.8515 28.1909C25.9008 28.1633 25.9398 28.1254 25.9687 28.0774C25.9975 28.0293 26.0119 27.9746 26.0119 27.9133C26.0119 27.8508 25.9975 27.7962 25.9687 27.7493C25.9398 27.7012 25.9008 27.664 25.8515 27.6375C25.8022 27.6099 25.7451 27.5961 25.6802 27.5961C25.625 27.5961 25.5739 27.6057 25.527 27.6249C25.4813 27.6441 25.4393 27.673 25.4008 27.7114L25.271 27.5852C25.3191 27.5312 25.3792 27.4897 25.4513 27.4609C25.5234 27.432 25.6027 27.4176 25.6892 27.4176ZM26.2863 28.3928L26.2971 28.2036C26.3055 28.2048 26.3133 28.206 26.3205 28.2072C26.3277 28.2084 26.3343 28.209 26.3404 28.209C26.3776 28.209 26.4064 28.1975 26.4269 28.1747C26.4473 28.1519 26.4623 28.1212 26.4719 28.0828C26.4828 28.0431 26.49 27.9993 26.4936 27.9512C26.4984 27.9019 26.502 27.8526 26.5044 27.8034L26.5206 27.432H27.2994V28.3946H27.074V27.5618L27.1263 27.6231H26.6684L26.7171 27.56L26.7045 27.8142C26.7009 27.8995 26.6937 27.9788 26.6829 28.0521C26.6732 28.1242 26.6576 28.1873 26.636 28.2414C26.6156 28.2955 26.5867 28.3375 26.5495 28.3676C26.5134 28.3976 26.4671 28.4127 26.4107 28.4127C26.3926 28.4127 26.3728 28.4109 26.3512 28.4072C26.3307 28.4036 26.3091 28.3988 26.2863 28.3928ZM27.8029 28.3946V27.569L27.8552 27.6231H27.464V27.432H28.3653V27.6231H27.976L28.0282 27.569V28.3946H27.8029ZM28.9156 28.4072C28.817 28.4072 28.7293 28.3862 28.6524 28.3442C28.5755 28.3009 28.5148 28.242 28.4703 28.1675C28.4258 28.093 28.4036 28.0083 28.4036 27.9133C28.4036 27.8172 28.4258 27.7325 28.4703 27.6592C28.5148 27.5846 28.5755 27.5264 28.6524 27.4843C28.7293 27.4422 28.817 27.4212 28.9156 27.4212C29.0153 27.4212 29.1036 27.4422 29.1805 27.4843C29.2587 27.5264 29.3193 27.584 29.3626 27.6574C29.4071 27.7307 29.4293 27.816 29.4293 27.9133C29.4293 28.0083 29.4071 28.093 29.3626 28.1675C29.3193 28.242 29.2587 28.3009 29.1805 28.3442C29.1036 28.3862 29.0153 28.4072 28.9156 28.4072ZM28.9156 28.2144C28.9708 28.2144 29.0201 28.2024 29.0634 28.1783C29.1066 28.1543 29.1403 28.1194 29.1643 28.0738C29.1896 28.0281 29.2022 27.9746 29.2022 27.9133C29.2022 27.8508 29.1896 27.7974 29.1643 27.7529C29.1403 27.7072 29.1066 27.6724 29.0634 27.6483C29.0201 27.6243 28.9714 27.6123 28.9174 27.6123C28.8621 27.6123 28.8128 27.6243 28.7695 27.6483C28.7275 27.6724 28.6938 27.7072 28.6686 27.7529C28.6434 27.7974 28.6307 27.8508 28.6307 27.9133C28.6307 27.9746 28.6434 28.0281 28.6686 28.0738C28.6938 28.1194 28.7275 28.1543 28.7695 28.1783C28.8128 28.2024 28.8615 28.2144 28.9156 28.2144ZM30.1855 28.4072C30.1074 28.4072 30.0359 28.3892 29.971 28.3532C29.9073 28.3171 29.8562 28.263 29.8177 28.1909C29.7805 28.1176 29.7619 28.0251 29.7619 27.9133C29.7619 27.8004 29.7799 27.7078 29.8159 27.6357C29.8532 27.5636 29.9037 27.5101 29.9674 27.4753C30.0311 27.4392 30.1038 27.4212 30.1855 27.4212C30.2804 27.4212 30.3639 27.4416 30.4361 27.4825C30.5094 27.5234 30.567 27.5804 30.6091 27.6537C30.6524 27.7271 30.674 27.8136 30.674 27.9133C30.674 28.0131 30.6524 28.1002 30.6091 28.1747C30.567 28.248 30.5094 28.3051 30.4361 28.346C30.3639 28.3868 30.2804 28.4072 30.1855 28.4072ZM29.6519 28.7443V27.432H29.8664V27.6592L29.8592 27.9151L29.8772 28.1711V28.7443H29.6519ZM30.1602 28.2144C30.2143 28.2144 30.2624 28.2024 30.3045 28.1783C30.3477 28.1543 30.382 28.1194 30.4072 28.0738C30.4324 28.0281 30.4451 27.9746 30.4451 27.9133C30.4451 27.8508 30.4324 27.7974 30.4072 27.7529C30.382 27.7072 30.3477 27.6724 30.3045 27.6483C30.2624 27.6243 30.2143 27.6123 30.1602 27.6123C30.1062 27.6123 30.0575 27.6243 30.0142 27.6483C29.971 27.6724 29.9367 27.7072 29.9115 27.7529C29.8862 27.7974 29.8736 27.8508 29.8736 27.9133C29.8736 27.9746 29.8862 28.0281 29.9115 28.0738C29.9367 28.1194 29.971 28.1543 30.0142 28.1783C30.0575 28.2024 30.1062 28.2144 30.1602 28.2144ZM31.3273 28.4072C31.2287 28.4072 31.141 28.3862 31.0641 28.3442C30.9872 28.3009 30.9265 28.242 30.882 28.1675C30.8376 28.093 30.8153 28.0083 30.8153 27.9133C30.8153 27.8172 30.8376 27.7325 30.882 27.6592C30.9265 27.5846 30.9872 27.5264 31.0641 27.4843C31.141 27.4422 31.2287 27.4212 31.3273 27.4212C31.427 27.4212 31.5154 27.4422 31.5923 27.4843C31.6704 27.5264 31.7311 27.584 31.7743 27.6574C31.8188 27.7307 31.841 27.816 31.841 27.9133C31.841 28.0083 31.8188 28.093 31.7743 28.1675C31.7311 28.242 31.6704 28.3009 31.5923 28.3442C31.5154 28.3862 31.427 28.4072 31.3273 28.4072ZM31.3273 28.2144C31.3826 28.2144 31.4318 28.2024 31.4751 28.1783C31.5184 28.1543 31.552 28.1194 31.576 28.0738C31.6013 28.0281 31.6139 27.9746 31.6139 27.9133C31.6139 27.8508 31.6013 27.7974 31.576 27.7529C31.552 27.7072 31.5184 27.6724 31.4751 27.6483C31.4318 27.6243 31.3832 27.6123 31.3291 27.6123C31.2738 27.6123 31.2245 27.6243 31.1813 27.6483C31.1392 27.6724 31.1056 27.7072 31.0803 27.7529C31.0551 27.7974 31.0425 27.8508 31.0425 27.9133C31.0425 27.9746 31.0551 28.0281 31.0803 28.0738C31.1056 28.1194 31.1392 28.1543 31.1813 28.1783C31.2245 28.2024 31.2732 28.2144 31.3273 28.2144ZM32.0636 28.3946V27.432H32.5341C32.6507 27.432 32.742 27.4537 32.8081 27.4969C32.8754 27.5402 32.9091 27.6015 32.9091 27.6808C32.9091 27.7589 32.8778 27.8202 32.8153 27.8647C32.7528 27.9079 32.6699 27.9296 32.5666 27.9296L32.5936 27.8737C32.7102 27.8737 32.7967 27.8953 32.8532 27.9386C32.9109 27.9806 32.9397 28.0425 32.9397 28.1242C32.9397 28.2096 32.9079 28.2763 32.8442 28.3243C32.7805 28.3712 32.6837 28.3946 32.5539 28.3946H32.0636ZM32.2781 28.2306H32.5359C32.5972 28.2306 32.6435 28.221 32.6747 28.2017C32.706 28.1813 32.7216 28.1507 32.7216 28.1098C32.7216 28.0666 32.7072 28.0347 32.6783 28.0143C32.6495 27.9938 32.6044 27.9836 32.5431 27.9836H32.2781V28.2306ZM32.2781 27.834H32.5143C32.572 27.834 32.6152 27.8238 32.6441 27.8034C32.6741 27.7817 32.6891 27.7517 32.6891 27.7132C32.6891 27.6736 32.6741 27.6441 32.6441 27.6249C32.6152 27.6057 32.572 27.5961 32.5143 27.5961H32.2781V27.834ZM19.9713 30.3946V29.1328H20.1624L20.7158 30.0539H20.613L21.1574 29.1328H21.3485L21.3521 30.3946H21.1286L21.1268 29.4807H21.1737L20.7122 30.2504H20.6076L20.1389 29.4807H20.193V30.3946H19.9713ZM22.109 30.4072C22.0105 30.4072 21.9228 30.3862 21.8458 30.3442C21.7689 30.3009 21.7082 30.242 21.6638 30.1675C21.6193 30.093 21.5971 30.0083 21.5971 29.9133C21.5971 29.8172 21.6193 29.7325 21.6638 29.6592C21.7082 29.5846 21.7689 29.5264 21.8458 29.4843C21.9228 29.4422 22.0105 29.4212 22.109 29.4212C22.2088 29.4212 22.2971 29.4422 22.374 29.4843C22.4521 29.5264 22.5128 29.584 22.5561 29.6574C22.6005 29.7307 22.6228 29.816 22.6228 29.9133C22.6228 30.0083 22.6005 30.093 22.5561 30.1675C22.5128 30.242 22.4521 30.3009 22.374 30.3442C22.2971 30.3862 22.2088 30.4072 22.109 30.4072ZM22.109 30.2144C22.1643 30.2144 22.2136 30.2024 22.2568 30.1783C22.3001 30.1543 22.3338 30.1194 22.3578 30.0738C22.383 30.0281 22.3956 29.9746 22.3956 29.9133C22.3956 29.8508 22.383 29.7974 22.3578 29.7529C22.3338 29.7072 22.3001 29.6724 22.2568 29.6483C22.2136 29.6243 22.1649 29.6123 22.1108 29.6123C22.0555 29.6123 22.0063 29.6243 21.963 29.6483C21.921 29.6724 21.8873 29.7072 21.8621 29.7529C21.8368 29.7974 21.8242 29.8508 21.8242 29.9133C21.8242 29.9746 21.8368 30.0281 21.8621 30.0738C21.8873 30.1194 21.921 30.1543 21.963 30.1783C22.0063 30.2024 22.0549 30.2144 22.109 30.2144ZM23.2834 30.4072C23.1825 30.4072 23.0923 30.3862 23.013 30.3442C22.9349 30.3009 22.8736 30.242 22.8292 30.1675C22.7847 30.093 22.7625 30.0083 22.7625 29.9133C22.7625 29.8172 22.7847 29.7325 22.8292 29.6592C22.8736 29.5846 22.9349 29.5264 23.013 29.4843C23.0923 29.4422 23.1825 29.4212 23.2834 29.4212C23.3772 29.4212 23.4595 29.4404 23.5304 29.4789C23.6025 29.5161 23.6572 29.5714 23.6944 29.6447L23.5214 29.7457C23.4925 29.7 23.4571 29.6664 23.415 29.6447C23.3741 29.6231 23.3297 29.6123 23.2816 29.6123C23.2263 29.6123 23.1765 29.6243 23.132 29.6483C23.0875 29.6724 23.0527 29.7072 23.0274 29.7529C23.0022 29.7974 22.9896 29.8508 22.9896 29.9133C22.9896 29.9758 23.0022 30.0299 23.0274 30.0756C23.0527 30.12 23.0875 30.1543 23.132 30.1783C23.1765 30.2024 23.2263 30.2144 23.2816 30.2144C23.3297 30.2144 23.3741 30.2036 23.415 30.1819C23.4571 30.1603 23.4925 30.1266 23.5214 30.081L23.6944 30.1819C23.6572 30.254 23.6025 30.3099 23.5304 30.3496C23.4595 30.388 23.3772 30.4072 23.2834 30.4072ZM24.5832 30.3946L24.2353 29.9332L24.4192 29.8196L24.8482 30.3946H24.5832ZM23.8928 30.3946V29.432H24.1181V30.3946H23.8928ZM24.0514 30.0089V29.8214H24.3777V30.0089H24.0514ZM24.4408 29.9404L24.2299 29.9151L24.5832 29.432H24.8248L24.4408 29.9404ZM25.0071 30.3946V29.432H25.4776C25.5942 29.432 25.6855 29.4537 25.7516 29.4969C25.8189 29.5402 25.8526 29.6015 25.8526 29.6808C25.8526 29.7589 25.8213 29.8202 25.7588 29.8647C25.6963 29.9079 25.6134 29.9296 25.5101 29.9296L25.5371 29.8737C25.6537 29.8737 25.7402 29.8953 25.7967 29.9386C25.8544 29.9806 25.8832 30.0425 25.8832 30.1242C25.8832 30.2096 25.8514 30.2763 25.7877 30.3243C25.724 30.3712 25.6272 30.3946 25.4974 30.3946H25.0071ZM25.2216 30.2306H25.4794C25.5407 30.2306 25.587 30.221 25.6182 30.2017C25.6495 30.1813 25.6651 30.1507 25.6651 30.1098C25.6651 30.0666 25.6507 30.0347 25.6218 30.0143C25.593 29.9938 25.5479 29.9836 25.4866 29.9836H25.2216V30.2306ZM25.2216 29.834H25.4578C25.5155 29.834 25.5587 29.8238 25.5876 29.8034C25.6176 29.7817 25.6326 29.7517 25.6326 29.7132C25.6326 29.6736 25.6176 29.6441 25.5876 29.6249C25.5587 29.6057 25.5155 29.5961 25.4578 29.5961H25.2216V29.834ZM27.0948 30.3946V29.432H27.3202V30.3946H27.0948ZM26.5919 29.7493C26.7157 29.7493 26.8094 29.7769 26.8731 29.8322C26.938 29.8875 26.9704 29.9656 26.9704 30.0666C26.9704 30.1711 26.9344 30.2528 26.8623 30.3117C26.7914 30.3694 26.6904 30.3976 26.5594 30.3964L26.1232 30.3946V29.432H26.3485V29.7475L26.5919 29.7493ZM26.5396 30.2306C26.6057 30.2318 26.6562 30.218 26.691 30.1891C26.7259 30.1603 26.7433 30.1182 26.7433 30.0629C26.7433 30.0077 26.7259 29.968 26.691 29.944C26.6574 29.9187 26.6069 29.9055 26.5396 29.9043L26.3485 29.9025V30.2288L26.5396 30.2306Z" fill="white"/>
<path d="M18.3812 20.1658H15.3559L15.3651 25.418H13.9023V18.9453H18.3904L18.3812 20.1658Z" fill="white"/>
<path d="M22.7891 22.121C23.0192 21.9268 23.1341 21.6514 23.1341 21.2936C23.1341 20.9299 23.0192 20.6506 22.7891 20.4567C22.5587 20.2626 22.2225 20.1655 21.7804 20.1655H20.5811V22.4123H21.7804C22.2225 22.4123 22.5587 22.3152 22.7891 22.121ZM23.3296 19.2317C23.7444 19.4226 24.064 19.6941 24.2881 20.0455C24.512 20.3966 24.6243 20.8127 24.6243 21.2937C24.6243 21.7684 24.5121 22.183 24.2881 22.5375C24.0639 22.8915 23.7444 23.163 23.3296 23.3512C22.9146 23.5391 22.4254 23.6329 21.8621 23.6329H20.581V25.4177H19.1094V18.9453H21.8621C22.4254 18.9453 22.9146 19.0409 23.3296 19.2317Z" fill="white"/>
<path d="M31.2088 25.4177L31.1999 21.5433L29.3284 24.7334H28.6744L26.8025 21.6172V25.4177H25.4219V18.9453H26.6392L29.0194 22.9673L31.3632 18.9453H32.5808L32.59 25.4177H31.2088Z" fill="white"/>
<path d="M38.2568 8.55728C41.6065 11.9663 43.5924 16.2464 44.2144 20.6876L46.4493 20.5074C45.7841 15.5432 43.5821 10.7534 39.8403 6.94525C38.3307 5.40896 36.663 4.12847 34.8916 3.10156L33.8945 5.14816C35.4546 6.06508 36.9238 7.2008 38.2568 8.55728Z" fill="white"/>
<path d="M8.41597 8.56163C9.02661 7.94015 9.66641 7.36593 10.3301 6.83686L9.06131 4.95117C8.28726 5.56096 7.54223 6.22706 6.83228 6.95013C5.8644 7.93464 5.00033 8.98622 4.23828 10.0887L6.14644 11.2923C6.81667 10.3347 7.57255 9.42053 8.41597 8.56163Z" fill="white"/>
<path d="M42.4493 32.833L44.4168 33.9301C45.9871 30.5582 46.7352 26.8854 46.6585 23.2266L44.4216 23.4066C44.4697 26.6277 43.8127 29.8579 42.4493 32.833Z" fill="white"/>
<path d="M31.4792 3.93482L32.4762 1.88862C25.65 -1.06033 17.716 -0.555805 11.2695 3.40194L12.5369 5.28513C18.3073 1.79215 25.374 1.34288 31.4792 3.93482Z" fill="white"/>
<path d="M4.72204 13.6094L2.81465 12.4062C-1.22078 19.9809 -0.916944 29.3324 3.72618 36.639L5.53762 35.2905C1.43035 28.7391 1.15849 20.3982 4.72204 13.6094Z" fill="white"/>
<path d="M38.249 38.9281C33.7225 43.5351 27.6334 45.6062 21.7017 45.1443L21.3867 47.4037C27.9932 47.9595 34.7895 45.6731 39.8327 40.5396C41.1081 39.242 42.2045 37.8304 43.1224 36.3362L41.1529 35.2383C40.3373 36.548 39.3701 37.7872 38.249 38.9281Z" fill="white"/>
<path d="M8.41847 38.9336C7.96542 38.4721 7.5388 37.9949 7.13592 37.5039L5.32422 38.8525C5.79687 39.435 6.29906 40.001 6.83452 40.545C10.2113 43.9817 14.3732 46.1419 18.7384 47.0288L19.0533 44.7683C15.1534 43.9508 11.4384 42.007 8.41847 38.9336Z" fill="white"/>
<path d="M14.2063 39.4583C13.7969 39.2118 13.4048 38.9472 13.022 38.6738L11.5938 40.4426C12.0668 40.787 12.5567 41.1142 13.0664 41.4205C16.5615 43.5236 20.4326 44.4255 24.2142 44.2507L23.9661 41.9758C20.6517 42.1013 17.2673 41.2996 14.2063 39.4583Z" fill="white"/>
<path d="M7.90084 14.451C8.23925 13.8685 8.60641 13.3146 8.99614 12.7855L7.30515 11.2793C6.82876 11.9153 6.38241 12.5852 5.97308 13.2907C5.40305 14.2717 4.92421 15.2818 4.53125 16.3112L6.67439 16.9941C7.01318 16.1286 7.42083 15.2781 7.90084 14.451Z" fill="white"/>
<path d="M5.85661 19.6188L3.7127 18.9355C2.031 26.0458 4.21785 33.65 9.50489 38.707L10.933 36.9374C6.34899 32.478 4.43799 25.8468 5.85661 19.6188Z" fill="white"/>
<path d="M25.7147 5.6641L26.18 3.42889C19.9611 2.53206 13.571 4.64349 9.0625 9.22901L10.7548 10.736C14.7204 6.76989 20.2822 4.92726 25.7147 5.6641Z" fill="white"/>
<path d="M32.4582 8.03671C35.8602 10.0837 38.3515 13.1059 39.7986 16.5474L41.9246 15.8051C40.3066 11.8678 37.4773 8.40867 33.5979 6.0745C32.0653 5.1522 30.4598 4.46129 28.8213 3.99023L28.3555 6.22623C29.7625 6.64374 31.1401 7.24382 32.4582 8.03671Z" fill="white"/>
<path d="M40.9844 26.9096L43.1638 27.4756C43.7137 24.4304 43.5692 21.3245 42.7906 18.3906L40.668 19.1325C41.3136 21.6479 41.4337 24.3026 40.9844 26.9096Z" fill="white"/>
<path d="M38.7626 33.0318C36.0319 37.7326 31.5361 40.7259 26.6367 41.6658L26.8846 43.941C32.4608 42.9196 37.5878 39.5335 40.6905 34.192C41.4514 32.8827 42.0506 31.521 42.4978 30.1318L40.3207 29.5664C39.9285 30.7516 39.4122 31.913 38.7626 33.0318Z" fill="white"/>
<path d="M17.8957 37.6981C17.4628 37.5234 17.044 37.3278 16.637 37.1172L15.4375 39.0543C15.9626 39.3344 16.5069 39.5901 17.0703 39.8174C17.8797 40.1438 18.6994 40.4017 19.5227 40.5952L19.8525 38.3285C19.1954 38.1655 18.5417 37.9585 17.8957 37.6981Z" fill="white"/>
<path d="M37.0454 29.2736C36.9311 29.5674 36.8059 29.8536 36.6758 30.1358L38.6119 31.2939C38.7954 30.9089 38.9705 30.5178 39.1278 30.1137C40.3602 26.9487 40.6029 23.6312 40.0148 20.5117L37.8499 21.1152C38.3184 23.7711 38.0921 26.5859 37.0454 29.2736Z" fill="white"/>
<path d="M22.5167 38.7253L22.1875 40.9901C28.0794 41.393 33.8429 38.6189 37.2591 33.6484L35.3232 32.4902C32.3797 36.6632 27.5119 39.0041 22.5167 38.7253Z" fill="white"/>
<path d="M28.7638 9.78594C32.7894 11.4095 35.7242 14.6464 37.1369 18.4797L39.3015 17.8766C37.7024 13.3764 34.294 9.56451 29.5891 7.66675C28.4866 7.22155 27.3651 6.90392 26.2399 6.70508L26.0312 8.9853C26.949 9.15961 27.8642 9.42263 28.7638 9.78594Z" fill="white"/>
<path d="M8.59122 24.3286L6.34375 24.209C6.48948 29.4443 8.98082 34.4194 13.1621 37.599L14.3612 35.6623C10.8646 32.9348 8.767 28.7478 8.59122 24.3286Z" fill="white"/>
<path d="M23.3587 8.73539L23.5678 6.45647C21.1506 6.42524 18.7739 6.91926 16.5938 7.87832L17.647 9.90181C19.4412 9.13872 21.3823 8.7342 23.3587 8.73539Z" fill="white"/>
<path d="M9.61967 18.2231C10.7863 15.227 12.803 12.8282 15.2747 11.1911L14.2226 9.16992C11.2971 11.0573 8.90831 13.8628 7.53715 17.383C7.01162 18.7334 6.66754 20.1113 6.48828 21.4892L8.73588 21.609C8.89721 20.4718 9.18584 19.3363 9.61967 18.2231Z" fill="white"/>
<path d="M34.8854 22.9373L37.133 23.0481C36.9016 18.3463 34.3467 14.0053 30.3211 11.6035L29.375 13.6882C32.5772 15.6833 34.6287 19.1571 34.8854 22.9373Z" fill="white"/>
<path d="M11.8433 25.1797L9.59375 25.1923C9.78062 27.0074 10.3129 28.7534 11.1411 30.3394L13.0158 29.0731C12.4121 27.8629 12.0095 26.5463 11.8433 25.1797Z" fill="white"/>
<path d="M20.1384 35.0727C17.8491 34.406 15.9181 33.0783 14.4875 31.3516L12.6133 32.6166C14.3363 34.7773 16.6997 36.4423 19.5219 37.2644C20.553 37.5649 21.5908 37.7329 22.6186 37.7864L22.5143 35.499C21.7245 35.4421 20.9294 35.3033 20.1384 35.0727Z" fill="white"/>
<path d="M25.1992 35.3707L25.3036 37.659C29.2732 37.0676 32.8562 34.7297 35.0216 31.227L33.0102 30.2031C31.226 32.9715 28.3683 34.8361 25.1992 35.3707Z" fill="white"/>
<path d="M34.466 26.9814C34.3923 27.2426 34.3083 27.4971 34.2188 27.7491L36.2338 28.7743C36.3763 28.3943 36.5077 28.007 36.6194 27.6086C36.7907 27.0005 36.9151 26.39 37.0034 25.7807L34.7547 25.6699C34.6829 26.1074 34.5888 26.545 34.466 26.9814Z" fill="white"/>
<path d="M12.2007 20.4964C13.107 17.2734 15.2567 14.7508 17.9674 13.3059L17.1613 11.1641C13.817 12.866 11.1548 15.931 10.0473 19.8692C9.80584 20.7277 9.65224 21.5901 9.57422 22.4486L11.8266 22.436C11.8976 21.7904 12.0191 21.1418 12.2007 20.4964Z" fill="white"/>
<path d="M26.5164 12.4175C26.6563 12.4585 26.7935 12.504 26.9311 12.5495L27.8764 10.4671C27.6317 10.3805 27.3843 10.2995 27.1327 10.2259C24.604 9.48916 22.0349 9.52329 19.668 10.1899L20.4744 12.3322C22.3983 11.8303 24.4725 11.8219 26.5164 12.4175Z" fill="white"/>
</g>
<defs>
<clipPath id="clip0_2041_257">
<rect width="47" height="48" fill="white"/>
</clipPath>
</defs>
</svg>
