<svg width="49" height="63" viewBox="0 0 49 63" fill="none" xmlns="http://www.w3.org/2000/svg">
<path d="M34.2956 0H1.64587C0.736875 0 0 0.736875 0 2.16675V61.875C0 62.2631 0.736875 63 1.64587 63H46.7291C47.6381 63 48.375 62.2631 48.375 61.875V14.6002C48.375 13.8172 48.2704 13.5652 48.0859 13.3796L34.9954 0.289125C34.8097 0.104625 34.5578 0 34.2956 0Z" fill="#F9F9F9"/>
<path d="M34.875 0.171875V13.502H48.2051L34.875 0.171875Z" fill="#EAEAEA"/>
<path d="M14.639 37.4875C14.2475 37.4875 13.8717 37.3604 13.5511 37.1208C12.38 36.2422 12.2225 35.2645 12.2967 34.5985C12.5015 32.767 14.7661 30.85 19.0299 28.897C20.7219 25.189 22.3317 20.6204 23.2914 16.8033C22.1686 14.3598 21.0774 11.1895 21.8727 9.32991C22.1517 8.67853 22.4994 8.17903 23.1485 7.96303C23.405 7.87753 24.053 7.76953 24.2915 7.76953C24.8585 7.76953 25.3569 8.49966 25.7101 8.94966C26.042 9.37266 26.7946 10.2693 25.2905 16.6019C26.807 19.7339 28.9557 22.9244 31.0145 25.1092C32.4894 24.8425 33.7584 24.7064 34.7922 24.7064C36.554 24.7064 37.6216 25.117 38.057 25.963C38.417 26.6628 38.2696 27.4807 37.6182 28.393C36.9916 29.2694 36.1276 29.7329 35.1207 29.7329C33.7527 29.7329 32.1597 28.8689 30.3834 27.1623C27.1917 27.8294 23.4646 29.0197 20.4519 30.337C19.5114 32.3328 18.6102 33.9404 17.771 35.1194C16.6179 36.7338 15.6234 37.4875 14.639 37.4875ZM17.6337 31.7208C15.2296 33.0719 14.2497 34.1823 14.1789 34.8078C14.1676 34.9113 14.1372 35.1835 14.6637 35.5863C14.8314 35.5334 15.8101 35.0868 17.6337 31.7208ZM32.9754 26.7235C33.8922 27.4289 34.1161 27.7855 34.7157 27.7855C34.979 27.7855 35.7294 27.7743 36.077 27.2894C36.2446 27.0543 36.3099 26.9035 36.3357 26.8225C36.1974 26.7494 36.014 26.6009 35.0139 26.6009C34.4457 26.602 33.7314 26.6268 32.9754 26.7235ZM24.5716 19.3188C23.7672 22.102 22.7052 25.1069 21.5634 27.8283C23.9146 26.9159 26.4706 26.1194 28.8714 25.5558C27.3526 23.7918 25.835 21.589 24.5716 19.3188ZM23.8887 9.79903C23.7785 9.83616 22.3925 11.7757 23.9967 13.417C25.0644 11.0377 23.9371 9.78328 23.8887 9.79903Z" fill="#CC4B4C"/>
<path d="M46.7291 63H1.64587C0.736875 63 0 62.2631 0 61.3541V43.875H48.375V61.3541C48.375 62.2631 47.6381 63 46.7291 63Z" fill="#CC4B4C"/>
<path d="M12.2446 59.6246H10.3984V48.2891H13.6587C14.1402 48.2891 14.6172 48.3656 15.0886 48.5197C15.5599 48.6738 15.9829 48.9044 16.3576 49.2116C16.7322 49.5187 17.0348 49.8911 17.2654 50.3264C17.4961 50.7618 17.6119 51.2512 17.6119 51.7957C17.6119 52.3706 17.5141 52.8903 17.3194 53.3572C17.1248 53.8241 16.8526 54.2167 16.5038 54.5339C16.1551 54.8512 15.7343 55.0976 15.2427 55.2719C14.7511 55.4463 14.2066 55.5329 13.6126 55.5329H12.2434L12.2446 59.6246ZM12.2446 49.6886V54.1796H13.9366C14.1616 54.1796 14.3843 54.1413 14.6059 54.0637C14.8264 53.9872 15.0289 53.8612 15.2134 53.6868C15.3979 53.5124 15.5464 53.2694 15.6589 52.9567C15.7714 52.6439 15.8277 52.2569 15.8277 51.7957C15.8277 51.6112 15.8018 51.3974 15.7512 51.1578C15.6994 50.9171 15.5948 50.6864 15.4362 50.4659C15.2764 50.2454 15.0537 50.0609 14.7668 49.9124C14.4799 49.7639 14.0997 49.6897 13.6283 49.6897L12.2446 49.6886Z" fill="white"/>
<path d="M28.9331 53.6418C28.9331 54.5744 28.833 55.3721 28.6327 56.0336C28.4325 56.6951 28.1794 57.2486 27.8711 57.6952C27.5629 58.1418 27.2175 58.4928 26.8327 58.7493C26.448 59.0058 26.0768 59.1971 25.7179 59.3264C25.359 59.4547 25.0305 59.5368 24.7335 59.5728C24.4365 59.6066 24.216 59.6246 24.072 59.6246H19.7812V48.2891H23.1956C24.1496 48.2891 24.9878 48.4409 25.71 48.7424C26.4323 49.0439 27.033 49.4478 27.51 49.9496C27.987 50.4513 28.3425 51.0239 28.5787 51.6641C28.815 52.3053 28.9331 52.9646 28.9331 53.6418ZM23.4577 58.2712C24.7087 58.2712 25.611 57.8718 26.1645 57.0719C26.718 56.2721 26.9948 55.1133 26.9948 53.5957C26.9948 53.1243 26.9385 52.6574 26.826 52.1962C26.7124 51.7349 26.4952 51.3176 26.1724 50.9429C25.8495 50.5683 25.4108 50.2657 24.8573 50.0351C24.3038 49.8044 23.586 49.6886 22.704 49.6886H21.6274V58.2712H23.4577Z" fill="white"/>
<path d="M33.4859 49.6886V53.2571H38.2233V54.5182H33.4859V59.6246H31.6094V48.2891H38.6991V49.6886H33.4859Z" fill="white"/>
</svg>
