<svg width="78" height="70" viewBox="0 0 78 70" fill="none" xmlns="http://www.w3.org/2000/svg">
<path d="M5.04082 70L0 59.434C5.48299 59.0818 9.19728 56.5283 11.1429 51.7736C13.2653 47.0189 14.3265 39.7107 14.3265 29.8491H0.265306V0H31.3061C31.3061 4.22642 31.3061 8.54089 31.3061 12.9434C31.3061 17.1698 31.3061 21.3962 31.3061 25.6226C31.3061 39.3585 29.3605 50.1006 25.4694 57.8491C21.5782 65.4214 14.7687 69.4717 5.04082 70ZM51.7347 70L46.6939 59.434C52.1769 59.0818 55.8912 56.5283 57.8367 51.7736C59.9592 47.0189 61.0204 39.7107 61.0204 29.8491H46.9592V0H78C78 4.22642 78 8.54089 78 12.9434C78 17.1698 78 21.3962 78 25.6226C78 39.3585 76.0544 50.1006 72.1633 57.8491C68.2721 65.4214 61.4626 69.4717 51.7347 70Z" fill="#4C75CD"/>
</svg>
