<svg width="59" height="63" viewBox="0 0 59 63"  xmlns="http://www.w3.org/2000/svg">
<path d="M38.25 45.6875H58.4995V56.8923C58.4956 58.5127 57.8491 60.0655 56.7018 61.21C55.5545 62.3544 54.0002 62.9971 52.3797 62.9971H38.25V45.6875Z" fill="url(#paint0_linear_360_2159)"/>
<path d="M42.5244 3.26623e-06H19.4399C18.9829 -0.000624251 18.5302 0.0891743 18.108 0.264227C17.6859 0.439281 17.3025 0.69613 16.98 1.01998L1.02033 16.9946C0.691047 17.3224 0.431061 17.7131 0.255836 18.1435C0.0806109 18.5738 -0.0062733 19.035 0.000352323 19.4996V56.0237C0.000352323 57.8736 0.7352 59.6477 2.04324 60.9557C3.35127 62.2637 5.12535 62.9986 6.9752 62.9986H42.5244C44.3742 62.9986 46.1483 62.2637 47.4564 60.9557C48.7644 59.6477 49.4992 57.8736 49.4992 56.0237V6.97485C49.4992 5.125 48.7644 3.35092 47.4564 2.04289C46.1483 0.73485 44.3742 3.26623e-06 42.5244 3.26623e-06Z" fill="url(#paint1_linear_360_2159)"/>
<path d="M22.4998 3.26623e-06H19.4999C19.0429 -0.000624251 18.5902 0.0891743 18.168 0.264227C17.7459 0.439281 17.3625 0.69613 17.04 1.01998L9.75013 8.24982L1.02033 16.9946C0.691047 17.3224 0.431061 17.7131 0.255836 18.1435C0.0806109 18.5738 -0.0062733 19.035 0.000352323 19.4996V56.0237C0.000352323 57.8736 0.7352 59.6477 2.04324 60.9557C3.35127 62.2637 5.12535 62.9986 6.9752 62.9986H18V20.6095C18.0192 19.0176 18.5445 17.4731 19.4999 16.1996C21.4433 13.5727 22.4946 10.3925 22.4998 7.12484V3.26623e-06Z" fill="url(#paint2_linear_360_2159)"/>
<path d="M8.47294 17.9977C10.9991 17.9977 13.4217 16.9942 15.208 15.208C16.9942 13.4217 17.9977 10.9991 17.9977 8.47294V0.328125C17.6193 0.495374 17.2738 0.729058 16.9778 1.01811L1.01811 16.9928C0.729058 17.2888 0.495374 17.6343 0.328125 18.0127L8.47294 17.9977Z" fill="url(#paint3_linear_360_2159)"/>
<path d="M17.9998 29.25C17.9998 28.9516 17.8813 28.6655 17.6703 28.4545C17.4593 28.2435 17.1732 28.125 16.8748 28.125H10.125C9.82661 28.125 9.54047 28.2435 9.3295 28.4545C9.11852 28.6655 9 28.9516 9 29.25C9 29.5483 9.11852 29.8345 9.3295 30.0455C9.54047 30.2564 9.82661 30.3749 10.125 30.3749H16.8748C17.1732 30.3749 17.4593 30.2564 17.6703 30.0455C17.8813 29.8345 17.9998 29.5483 17.9998 29.25Z" fill="url(#paint4_linear_360_2159)"/>
<path d="M39.3746 28.125H21.375C21.0766 28.125 20.7905 28.2435 20.5795 28.4545C20.3685 28.6655 20.25 28.9516 20.25 29.25C20.25 29.5483 20.3685 29.8345 20.5795 30.0455C20.7905 30.2564 21.0766 30.3749 21.375 30.3749H39.3746C39.6729 30.3749 39.9591 30.2564 40.1701 30.0455C40.381 29.8345 40.4995 29.5483 40.4995 29.25C40.4995 28.9516 40.381 28.6655 40.1701 28.4545C39.9591 28.2435 39.6729 28.125 39.3746 28.125Z" fill="url(#paint5_linear_360_2159)"/>
<path d="M39.3749 37.125H34.875C34.5766 37.125 34.2905 37.2435 34.0795 37.4545C33.8685 37.6655 33.75 37.9516 33.75 38.25C33.75 38.5483 33.8685 38.8345 34.0795 39.0455C34.2905 39.2564 34.5766 39.3749 34.875 39.3749H39.3749C39.6732 39.3749 39.9594 39.2564 40.1704 39.0455C40.3813 38.8345 40.4998 38.5483 40.4998 38.25C40.4998 37.9516 40.3813 37.6655 40.1704 37.4545C39.9594 37.2435 39.6732 37.125 39.3749 37.125Z" fill="url(#paint6_linear_360_2159)"/>
<path d="M31.4995 38.25C31.4995 37.9516 31.381 37.6655 31.17 37.4545C30.959 37.2435 30.6729 37.125 30.3745 37.125H10.125C9.82661 37.125 9.54047 37.2435 9.3295 37.4545C9.11852 37.6655 9 37.9516 9 38.25C9 38.5483 9.11852 38.8345 9.3295 39.0455C9.54047 39.2564 9.82661 39.3749 10.125 39.3749H30.3745C30.6729 39.3749 30.959 39.2564 31.17 39.0455C31.381 38.8345 31.4995 38.5483 31.4995 38.25Z" fill="url(#paint7_linear_360_2159)"/>
<path d="M24.7496 47.2461C24.7496 46.9477 24.6311 46.6616 24.4202 46.4506C24.2092 46.2396 23.923 46.1211 23.6247 46.1211H10.125C9.82661 46.1211 9.54047 46.2396 9.3295 46.4506C9.11852 46.6616 9 46.9477 9 47.2461C9 47.5444 9.11852 47.8306 9.3295 48.0415C9.54047 48.2525 9.82661 48.371 10.125 48.371H23.6247C23.923 48.371 24.2092 48.2525 24.4202 48.0415C24.6311 47.8306 24.7496 47.5444 24.7496 47.2461Z" fill="url(#paint8_linear_360_2159)"/>
<path d="M39.3747 46.1211H28.125C27.8266 46.1211 27.5405 46.2396 27.3295 46.4506C27.1185 46.6616 27 46.9477 27 47.2461C27 47.5444 27.1185 47.8306 27.3295 48.0415C27.5405 48.2525 27.8266 48.371 28.125 48.371H39.3747C39.6731 48.371 39.9592 48.2525 40.1702 48.0415C40.3812 47.8306 40.4997 47.5444 40.4997 47.2461C40.4997 46.9477 40.3812 46.6616 40.1702 46.4506C39.9592 46.2396 39.6731 46.1211 39.3747 46.1211Z" fill="url(#paint9_linear_360_2159)"/>
<path d="M17.9998 28.125C17.9998 27.8266 17.8813 27.5405 17.6703 27.3295C17.4593 27.1185 17.1732 27 16.8748 27H10.125C9.82661 27 9.54047 27.1185 9.3295 27.3295C9.11852 27.5405 9 27.8266 9 28.125C9 28.4233 9.11852 28.7095 9.3295 28.9205C9.54047 29.1314 9.82661 29.2499 10.125 29.2499H16.8748C17.1732 29.2499 17.4593 29.1314 17.6703 28.9205C17.8813 28.7095 17.9998 28.4233 17.9998 28.125Z" fill="url(#paint10_linear_360_2159)"/>
<path d="M39.3746 27H21.375C21.0766 27 20.7905 27.1185 20.5795 27.3295C20.3685 27.5405 20.25 27.8266 20.25 28.125C20.25 28.4233 20.3685 28.7095 20.5795 28.9205C20.7905 29.1314 21.0766 29.2499 21.375 29.2499H39.3746C39.6729 29.2499 39.9591 29.1314 40.1701 28.9205C40.381 28.7095 40.4995 28.4233 40.4995 28.125C40.4995 27.8266 40.381 27.5405 40.1701 27.3295C39.9591 27.1185 39.6729 27 39.3746 27Z" fill="url(#paint11_linear_360_2159)"/>
<path d="M39.3749 36H34.875C34.5766 36 34.2905 36.1185 34.0795 36.3295C33.8685 36.5405 33.75 36.8266 33.75 37.125C33.75 37.4233 33.8685 37.7095 34.0795 37.9205C34.2905 38.1314 34.5766 38.2499 34.875 38.2499H39.3749C39.6732 38.2499 39.9594 38.1314 40.1704 37.9205C40.3813 37.7095 40.4998 37.4233 40.4998 37.125C40.4998 36.8266 40.3813 36.5405 40.1704 36.3295C39.9594 36.1185 39.6732 36 39.3749 36Z" fill="url(#paint12_linear_360_2159)"/>
<path d="M31.4995 37.125C31.4995 36.8266 31.381 36.5405 31.17 36.3295C30.959 36.1185 30.6729 36 30.3745 36H10.125C9.82661 36 9.54047 36.1185 9.3295 36.3295C9.11852 36.5405 9 36.8266 9 37.125C9 37.4233 9.11852 37.7095 9.3295 37.9205C9.54047 38.1314 9.82661 38.2499 10.125 38.2499H30.3745C30.6729 38.2499 30.959 38.1314 31.17 37.9205C31.381 37.7095 31.4995 37.4233 31.4995 37.125Z" fill="url(#paint13_linear_360_2159)"/>
<path d="M24.7496 46.125C24.7496 45.8266 24.6311 45.5405 24.4202 45.3295C24.2092 45.1185 23.923 45 23.6247 45H10.125C9.82661 45 9.54047 45.1185 9.3295 45.3295C9.11852 45.5405 9 45.8266 9 46.125C9 46.4233 9.11852 46.7095 9.3295 46.9205C9.54047 47.1314 9.82661 47.2499 10.125 47.2499H23.6247C23.923 47.2499 24.2092 47.1314 24.4202 46.9205C24.6311 46.7095 24.7496 46.4233 24.7496 46.125Z" fill="url(#paint14_linear_360_2159)"/>
<path d="M39.3747 45H28.125C27.8266 45 27.5405 45.1185 27.3295 45.3295C27.1185 45.5405 27 45.8266 27 46.125C27 46.4233 27.1185 46.7095 27.3295 46.9205C27.5405 47.1314 27.8266 47.2499 28.125 47.2499H39.3747C39.6731 47.2499 39.9592 47.1314 40.1702 46.9205C40.3812 46.7095 40.4997 46.4233 40.4997 46.125C40.4997 45.8266 40.3812 45.5405 40.1702 45.3295C39.9592 45.1185 39.6731 45 39.3747 45Z" fill="url(#paint15_linear_360_2159)"/>
<path d="M52.3791 22.5H18.0749C17.4741 22.5 16.8792 22.6183 16.3242 22.8482C15.7691 23.0782 15.2648 23.4151 14.84 23.84C14.4151 24.2648 14.0782 24.7691 13.8482 25.3242C13.6183 25.8792 13.5 26.4741 13.5 27.0749V47.1744C13.5 47.7752 13.6183 48.3701 13.8482 48.9252C14.0782 49.4802 14.4151 49.9846 14.84 50.4094C15.2648 50.8342 15.7691 51.1712 16.3242 51.4011C16.8792 51.631 17.4741 51.7493 18.0749 51.7493H52.3791C53.7464 51.7459 55.0788 52.1812 56.1803 52.9912C57.2819 53.8012 58.0946 54.9431 58.499 56.2492V28.6199C58.499 26.9968 57.8542 25.4402 56.7065 24.2925C55.5588 23.1448 54.0022 22.5 52.3791 22.5Z" fill="url(#paint16_linear_360_2159)"/>
<path d="M49.4992 22.5H18.0749C17.4741 22.5 16.8792 22.6183 16.3242 22.8482C15.7691 23.0782 15.2648 23.4151 14.84 23.84C14.4151 24.2648 14.0782 24.7691 13.8482 25.3242C13.6183 25.8792 13.5 26.4741 13.5 27.0749V47.1744C13.5 47.7752 13.6183 48.3701 13.8482 48.9252C14.0782 49.4802 14.4151 49.9846 14.84 50.4094C15.2648 50.8342 15.7691 51.1712 16.3242 51.4011C16.8792 51.631 17.4741 51.7493 18.0749 51.7493H49.4992V22.5Z" fill="url(#paint17_linear_360_2159)"/>
<path d="M27.8291 26.7021C27.8291 26.8249 27.8228 26.9307 27.8101 27.0195C27.8016 27.1042 27.7868 27.174 27.7656 27.229C27.7445 27.2798 27.717 27.3179 27.6831 27.3433C27.6535 27.3687 27.6196 27.3813 27.5815 27.3813H25.5249V34.002C25.5249 34.0443 25.5101 34.0824 25.4805 34.1162C25.4551 34.1501 25.4106 34.1776 25.3472 34.1987C25.2837 34.2199 25.1969 34.2368 25.0869 34.2495C24.9811 34.2622 24.8478 34.2686 24.687 34.2686C24.5262 34.2686 24.3908 34.2622 24.2808 34.2495C24.175 34.2368 24.0903 34.2199 24.0269 34.1987C23.9634 34.1776 23.9168 34.1501 23.8872 34.1162C23.8618 34.0824 23.8491 34.0443 23.8491 34.002V27.3813H21.7925C21.7502 27.3813 21.7142 27.3687 21.6846 27.3433C21.6549 27.3179 21.6296 27.2798 21.6084 27.229C21.5872 27.174 21.5703 27.1042 21.5576 27.0195C21.5492 26.9307 21.5449 26.8249 21.5449 26.7021C21.5449 26.5752 21.5492 26.4673 21.5576 26.3784C21.5703 26.2896 21.5872 26.2197 21.6084 26.1689C21.6296 26.1139 21.6549 26.0758 21.6846 26.0547C21.7142 26.0293 21.7502 26.0166 21.7925 26.0166H27.5815C27.6196 26.0166 27.6535 26.0293 27.6831 26.0547C27.717 26.0758 27.7445 26.1139 27.7656 26.1689C27.7868 26.2197 27.8016 26.2896 27.8101 26.3784C27.8228 26.4673 27.8291 26.5752 27.8291 26.7021ZM34.6528 33.6021C34.729 33.7502 34.7777 33.8687 34.7988 33.9575C34.8242 34.0464 34.8115 34.1141 34.7607 34.1606C34.71 34.2072 34.6169 34.2368 34.4814 34.2495C34.3503 34.2622 34.1662 34.2686 33.9292 34.2686C33.7303 34.2686 33.5737 34.2643 33.4595 34.2559C33.3452 34.2474 33.2542 34.2347 33.1865 34.2178C33.123 34.1966 33.0765 34.1691 33.0469 34.1353C33.0173 34.1014 32.9919 34.0591 32.9707 34.0083L31.4282 31.0439L29.8921 34.0083C29.8667 34.0591 29.8392 34.1014 29.8096 34.1353C29.7799 34.1691 29.7313 34.1966 29.6636 34.2178C29.6001 34.2347 29.5091 34.2474 29.3906 34.2559C29.2764 34.2643 29.124 34.2686 28.9336 34.2686C28.7135 34.2686 28.5422 34.2622 28.4194 34.2495C28.3009 34.2368 28.2205 34.2072 28.1782 34.1606C28.1359 34.1141 28.1274 34.0464 28.1528 33.9575C28.1782 33.8687 28.2311 33.7502 28.3115 33.6021L30.2793 30.0156L28.4512 26.645C28.375 26.4927 28.3221 26.3721 28.2925 26.2832C28.2671 26.1901 28.2777 26.1224 28.3242 26.0801C28.375 26.0335 28.466 26.006 28.5972 25.9976C28.7284 25.9849 28.9146 25.9785 29.1558 25.9785C29.3547 25.9785 29.5112 25.9827 29.6255 25.9912C29.744 25.9997 29.8371 26.0145 29.9048 26.0356C29.9725 26.0526 30.019 26.078 30.0444 26.1118C30.0741 26.1457 30.1016 26.188 30.127 26.2388L31.5679 28.9556L32.9707 26.2388C32.9961 26.188 33.0215 26.1457 33.0469 26.1118C33.0765 26.078 33.1209 26.0526 33.1802 26.0356C33.2437 26.0145 33.3283 25.9997 33.4341 25.9912C33.5441 25.9827 33.6943 25.9785 33.8848 25.9785C34.0964 25.9785 34.2635 25.9849 34.3862 25.9976C34.509 26.006 34.5936 26.0335 34.6401 26.0801C34.6867 26.1266 34.6973 26.1943 34.6719 26.2832C34.6507 26.3721 34.6042 26.4927 34.5322 26.645L32.7041 29.9966L34.6528 33.6021ZM41.4258 26.7021C41.4258 26.8249 41.4194 26.9307 41.4067 27.0195C41.3983 27.1042 41.3835 27.174 41.3623 27.229C41.3411 27.2798 41.3136 27.3179 41.2798 27.3433C41.2502 27.3687 41.2163 27.3813 41.1782 27.3813H39.1216V34.002C39.1216 34.0443 39.1068 34.0824 39.0771 34.1162C39.0518 34.1501 39.0073 34.1776 38.9438 34.1987C38.8804 34.2199 38.7936 34.2368 38.6836 34.2495C38.5778 34.2622 38.4445 34.2686 38.2837 34.2686C38.1229 34.2686 37.9875 34.2622 37.8774 34.2495C37.7716 34.2368 37.687 34.2199 37.6235 34.1987C37.5601 34.1776 37.5135 34.1501 37.4839 34.1162C37.4585 34.0824 37.4458 34.0443 37.4458 34.002V27.3813H35.3892C35.3468 27.3813 35.3109 27.3687 35.2812 27.3433C35.2516 27.3179 35.2262 27.2798 35.2051 27.229C35.1839 27.174 35.167 27.1042 35.1543 27.0195C35.1458 26.9307 35.1416 26.8249 35.1416 26.7021C35.1416 26.5752 35.1458 26.4673 35.1543 26.3784C35.167 26.2896 35.1839 26.2197 35.2051 26.1689C35.2262 26.1139 35.2516 26.0758 35.2812 26.0547C35.3109 26.0293 35.3468 26.0166 35.3892 26.0166H41.1782C41.2163 26.0166 41.2502 26.0293 41.2798 26.0547C41.3136 26.0758 41.3411 26.1139 41.3623 26.1689C41.3835 26.2197 41.3983 26.2896 41.4067 26.3784C41.4194 26.4673 41.4258 26.5752 41.4258 26.7021Z" fill="white"/>
<defs>
<linearGradient id="paint0_linear_360_2159" x1="48.3748" y1="71.0669" x2="48.3748" y2="42.1626" gradientUnits="userSpaceOnUse">
<stop stop-color="#27E9DE"/>
<stop offset="0.52" stop-color="#03A4EC"/>
<stop offset="1" stop-color="#2547A8"/>
</linearGradient>
<linearGradient id="paint1_linear_360_2159" x1="24.7498" y1="99.3728" x2="24.7498" y2="-45.989" gradientUnits="userSpaceOnUse">
<stop stop-color="#273A9B"/>
<stop offset="0.56" stop-color="#202F65"/>
<stop offset="1" stop-color="#021E2F"/>
</linearGradient>
<linearGradient id="paint2_linear_360_2159" x1="11.2501" y1="115.062" x2="11.2501" y2="-41.3541" gradientUnits="userSpaceOnUse">
<stop stop-color="#273A9B"/>
<stop offset="0.56" stop-color="#202F65"/>
<stop offset="1" stop-color="#021E2F"/>
</linearGradient>
<linearGradient id="paint3_linear_360_2159" x1="-19.1264" y1="-19.1264" x2="14.4428" y2="14.4428" gradientUnits="userSpaceOnUse">
<stop stop-color="#27E9DE"/>
<stop offset="0.52" stop-color="#03A4EC"/>
<stop offset="1" stop-color="#2547A8"/>
</linearGradient>
<linearGradient id="paint4_linear_360_2159" x1="13.4999" y1="93.3735" x2="13.4999" y2="-6.44922" gradientUnits="userSpaceOnUse">
<stop stop-color="#273A9B"/>
<stop offset="0.56" stop-color="#202F65"/>
<stop offset="1" stop-color="#021E2F"/>
</linearGradient>
<linearGradient id="paint5_linear_360_2159" x1="30.3748" y1="93.3735" x2="30.3748" y2="-6.44922" gradientUnits="userSpaceOnUse">
<stop stop-color="#273A9B"/>
<stop offset="0.56" stop-color="#202F65"/>
<stop offset="1" stop-color="#021E2F"/>
</linearGradient>
<linearGradient id="paint6_linear_360_2159" x1="37.1249" y1="93.3737" x2="37.1249" y2="-6.44903" gradientUnits="userSpaceOnUse">
<stop stop-color="#273A9B"/>
<stop offset="0.56" stop-color="#202F65"/>
<stop offset="1" stop-color="#021E2F"/>
</linearGradient>
<linearGradient id="paint7_linear_360_2159" x1="20.2497" y1="93.3737" x2="20.2497" y2="-6.44903" gradientUnits="userSpaceOnUse">
<stop stop-color="#273A9B"/>
<stop offset="0.56" stop-color="#202F65"/>
<stop offset="1" stop-color="#021E2F"/>
</linearGradient>
<linearGradient id="paint8_linear_360_2159" x1="16.8748" y1="93.37" x2="16.8748" y2="-6.45273" gradientUnits="userSpaceOnUse">
<stop stop-color="#273A9B"/>
<stop offset="0.56" stop-color="#202F65"/>
<stop offset="1" stop-color="#021E2F"/>
</linearGradient>
<linearGradient id="paint9_linear_360_2159" x1="33.7499" y1="93.37" x2="33.7499" y2="-6.45273" gradientUnits="userSpaceOnUse">
<stop stop-color="#273A9B"/>
<stop offset="0.56" stop-color="#202F65"/>
<stop offset="1" stop-color="#021E2F"/>
</linearGradient>
<linearGradient id="paint10_linear_360_2159" x1="13.4999" y1="88.3186" x2="13.4999" y2="112.318" gradientUnits="userSpaceOnUse">
<stop stop-color="#273A9B"/>
<stop offset="0.56" stop-color="#202F65"/>
<stop offset="1" stop-color="#021E2F"/>
</linearGradient>
<linearGradient id="paint11_linear_360_2159" x1="30.3748" y1="88.3186" x2="30.3748" y2="112.318" gradientUnits="userSpaceOnUse">
<stop stop-color="#273A9B"/>
<stop offset="0.56" stop-color="#202F65"/>
<stop offset="1" stop-color="#021E2F"/>
</linearGradient>
<linearGradient id="paint12_linear_360_2159" x1="37.1249" y1="88.3188" x2="37.1249" y2="112.318" gradientUnits="userSpaceOnUse">
<stop stop-color="#273A9B"/>
<stop offset="0.56" stop-color="#202F65"/>
<stop offset="1" stop-color="#021E2F"/>
</linearGradient>
<linearGradient id="paint13_linear_360_2159" x1="20.2497" y1="88.3188" x2="20.2497" y2="112.318" gradientUnits="userSpaceOnUse">
<stop stop-color="#273A9B"/>
<stop offset="0.56" stop-color="#202F65"/>
<stop offset="1" stop-color="#021E2F"/>
</linearGradient>
<linearGradient id="paint14_linear_360_2159" x1="16.8748" y1="88.319" x2="16.8748" y2="112.318" gradientUnits="userSpaceOnUse">
<stop stop-color="#273A9B"/>
<stop offset="0.56" stop-color="#202F65"/>
<stop offset="1" stop-color="#021E2F"/>
</linearGradient>
<linearGradient id="paint15_linear_360_2159" x1="33.7498" y1="88.319" x2="33.7498" y2="112.318" gradientUnits="userSpaceOnUse">
<stop stop-color="#273A9B"/>
<stop offset="0.56" stop-color="#202F65"/>
<stop offset="1" stop-color="#021E2F"/>
</linearGradient>
<linearGradient id="paint16_linear_360_2159" x1="35.9995" y1="65.054" x2="35.9995" y2="-6.43435" gradientUnits="userSpaceOnUse">
<stop stop-color="#27E9DE"/>
<stop offset="0.52" stop-color="#03A4EC"/>
<stop offset="1" stop-color="#2547A8"/>
</linearGradient>
<linearGradient id="paint17_linear_360_2159" x1="23.1598" y1="77.2938" x2="39.2844" y2="3.60042" gradientUnits="userSpaceOnUse">
<stop stop-color="#27E9DE"/>
<stop offset="0.52" stop-color="#03A4EC"/>
<stop offset="1" stop-color="#2547A8"/>
</linearGradient>
</defs>
</svg>
