<svg width="31" height="21" viewBox="0 0 31 21" fill="none" xmlns="http://www.w3.org/2000/svg">
<path d="M31 8.06059C31 7.42423 30.8869 6.68182 30.8869 5.83333C30.7738 4.98485 30.6606 4.13636 30.5475 3.39394C30.3212 2.54545 29.9818 1.90909 29.3029 1.37879C28.7372 0.848488 27.9453 0.530296 27.1533 0.424236C24.5511 0.106054 20.7044 0 15.5 0C10.2956 0 6.33576 0.106054 3.84671 0.424236C3.05474 0.530296 2.26277 0.848488 1.69708 1.37879C1.13139 1.90909 0.678825 2.54545 0.452548 3.39394C0.226271 4.13636 0.113146 4.87879 0.113146 5.83333C6.90375e-06 6.68182 0 7.42423 0 8.06059C0 8.69696 0 9.43939 0 10.5C0 11.5606 0 12.4091 0 12.9394C0 13.5758 0.113146 14.3182 0.113146 15.1667C0.226284 16.0152 0.339409 16.8636 0.452548 17.606C0.678825 18.4545 1.01825 19.0909 1.69708 19.6212C2.26277 20.1515 3.05474 20.4697 3.84671 20.5757C6.4489 20.8939 10.2956 21 15.5 21C20.7044 21 24.6642 20.8939 27.1533 20.5757C27.9453 20.4697 28.7372 20.1515 29.3029 19.6212C29.8686 19.0909 30.3212 18.4545 30.5475 17.606C30.7737 16.8636 30.8869 16.1212 30.8869 15.1667C31 14.3182 31 13.5758 31 12.9394C31 12.303 31 11.5606 31 10.5C31 9.43939 31 8.5909 31 8.06059ZM21.4964 11.3485L12.5584 16.5454C12.4453 16.6515 12.219 16.7576 11.9927 16.7576C11.7664 16.7576 11.6533 16.7576 11.427 16.6515C11.0876 16.4394 10.8613 16.1212 10.8613 15.697V5.19696C10.8613 4.77272 11.0876 4.45454 11.427 4.24242C11.7664 4.0303 12.219 4.0303 12.5584 4.24242L21.4964 9.43939C21.8358 9.65151 22.062 9.96969 22.062 10.2879C22.062 10.6061 21.8358 11.1364 21.4964 11.3485Z" fill="#213030"/>
</svg>
