<svg width="859" height="887" fill="none" xmlns="http://www.w3.org/2000/svg"><g clip-path="url(#clip0_360_5914)"><path d="M102.377 569.099l-30.82.582-15.606.228c-5.217.104-10.453.083-15.69.125h-.915v-.935l-.104-26.247v-1.04h1.04l31.068.125c10.349.021 20.719.229 31.068.333H103v.561c-.041 4.447-.187 8.874-.27 13.258l-.353 13.01zm0 0l-.291-13.259c-.104-4.364-.229-8.707-.27-13.009l.561.561c-10.35.104-20.72.332-31.069.332l-31.068.125 1.039-1.039-.104 26.247-.935-.935c5.133.042 10.245.021 15.378.125l15.44.228 31.319.624zm-34.633 33.109l-30.82.582-15.606.229c-5.216.104-10.453.083-15.69.124h-.915v-.935l-.104-26.247v-1.039h1.04l31.068.125c10.35.02 20.72.228 31.068.332h.582v.561c-.041 4.447-.187 8.874-.27 13.259l-.353 13.009zm0 0l-.291-13.259c-.104-4.364-.229-8.707-.27-13.009l.56.561c-10.348.104-20.718.333-31.068.333l-31.068.124 1.039-1.039-.104 26.248-.935-.936c5.133.042 10.245.021 15.378.104l15.441.229 31.318.644zm-.005-568.086l-30.84.582-15.607.229c-5.216.104-10.454.083-15.69.124h-.915v-.935L4.562 7.875v-1.04h1.04l31.068.126c10.35.02 20.72.228 31.069.332h.581v.561c-.041 4.448-.187 8.874-.27 13.259l-.311 13.01zm0 0l-.291-13.259c-.104-4.364-.229-8.707-.27-13.009l.56.561c-10.349.104-20.719.333-31.068.333l-31.068.166L6.64 7.875l-.125 26.247-.935-.935c5.133.042 10.245.02 15.378.104l15.44.229 31.34.602zm785.494 0l-30.819.582-15.628.229c-5.216.104-10.453.083-15.69.124h-.914v-.935l-.104-26.247v-1.04h1.039l31.069.126c10.349.02 20.719.228 31.068.332h.582v.561c-.042 4.448-.187 8.874-.27 13.259l-.333 13.01zm0 0l-.291-13.259c-.103-4.364-.228-8.707-.27-13.009l.561.561c-10.349.104-20.719.333-31.068.333l-31.069.125 1.039-1.04-.103 26.248-.936-.936c5.133.042 10.246.021 15.379.104l15.44.229 31.318.644zm-34.645 33.107l-30.82.582-15.607.228c-5.216.104-10.453.084-15.69.104h-.914v-.935l-.104-26.247v-1.04h1.039l31.069.126c10.349 0 20.719.228 31.068.332h.582v.561c-.042 4.447-.187 8.874-.27 13.259l-.353 13.03zm0 0l-.291-13.259c-.104-4.364-.229-8.707-.271-13.009l.562.561c-10.35.104-20.72.333-31.069.333l-31.068.124 1.039-1.039-.104 26.247-.935-.935c5.133.042 10.245.02 15.378.125l15.441.228 31.318.624zM659.444 374.362l-30.819.582-15.628.228c-5.216.104-10.453.083-15.69.104h-.914v-.935l-.104-26.247v-1.039h1.039l31.069.124c10.349.021 20.719.229 31.068.333h.582v.561c-.042 4.447-.187 8.874-.27 13.259l-.333 13.03zm0 0l-.291-13.259c-.104-4.364-.228-8.707-.27-13.009l.561.561c-10.349.104-20.719.332-31.068.332l-31.069.125 1.039-1.039-.103 26.247-.936-.935c5.133.042 10.246.021 15.379.104l15.44.228 31.318.645zm-34.653 33.104l-30.819.582-15.607.228c-5.217.104-10.454.084-15.69.125h-.915v-.935l-.104-26.247v-1.039h1.039l31.069.124c10.349.021 20.719.229 31.068.333h.582v.561c-.041 4.447-.187 8.874-.27 13.259l-.353 13.009zm0 0l-.291-13.259c-.104-4.364-.229-8.707-.27-13.009l.561.561c-10.349.104-20.72.333-31.069.333l-31.068.124 1.039-1.039-.104 26.247-.935-.935c5.133.042 10.245.021 15.378.125l15.441.228 31.318.624zm-34.519-33.104l-30.819.582-15.627.228c-5.217.104-10.454.083-15.691.104h-.914v-.935l-.104-26.247v-1.039h1.039l31.069.124c10.349.021 20.719.229 31.068.333h.582v.561c-.041 4.447-.187 8.874-.27 13.259l-.333 13.03zm0 0l-.29-13.259c-.084-4.364-.229-8.707-.271-13.009l.561.561c-10.349.104-20.719.332-31.068.332l-31.069.125 1.04-1.039-.104 26.247-.936-.935c5.134.042 10.246.021 15.379.104l15.441.228 31.317.645zm262.961 227.846l-30.819.582-15.628.229c-5.216.104-10.453.083-15.69.124h-.914v-.935l-.104-26.247v-1.039h1.039l31.069.125c10.349.02 20.719.228 31.068.332h.582v.561c-.042 4.447-.187 8.874-.27 13.259l-.333 13.009zm0 0l-.291-13.259c-.103-4.364-.228-8.707-.27-13.009l.561.561c-10.349.104-20.719.333-31.068.333l-31.069.124 1.039-1.039-.103 26.248-.936-.936c5.133.042 10.246.021 15.379.104l15.44.229 31.318.644zM325.345 112.2l-30.819.582-15.607.229c-5.216.104-10.453.083-15.69.124h-.914v-.935l-.104-26.247v-1.039h1.039l31.068.125c10.35.02 20.72.228 31.069.332h.582v.561c-.042 4.448-.187 8.874-.27 13.259l-.354 13.009zm0 0l-.291-13.258c-.103-4.364-.228-8.708-.27-13.01l.561.561c-10.349.104-20.719.333-31.068.333l-31.069.125 1.04-1.04-.104 26.248-.936-.935c5.134.041 10.246.02 15.379.124l15.441.229 31.317.623zm464.048 173.921l12.241-19.722-6.048-3.74c-1.766-1.102-2.743-3.117-2.556-5.196.104-1.143.145-2.306.104-3.47-.042-2.078 1.039-4.032 2.889-5.009l6.255-3.366-10.973-20.47-6.255 3.367c-1.829.976-4.053.81-5.757-.374a33.068 33.068 0 00-2.951-1.829c-1.828-.998-2.971-2.91-2.909-5.009l.229-7.107-23.193-.727-.208 7.128c-.062 2.099-1.35 3.907-3.241 4.8-.52.25-1.019.499-1.518.769-.498.27-.997.561-1.475.852-1.787 1.081-3.99 1.143-5.757.042l-6.089-3.762-12.24 19.722 6.048 3.762c1.766 1.101 2.743 3.117 2.556 5.195-.104 1.143-.146 2.307-.104 3.45.041 2.078-1.039 4.011-2.889 5.008l-6.255 3.367 10.973 20.47 6.255-3.367c1.829-.977 4.052-.81 5.756.374a28.753 28.753 0 002.951 1.808c1.829.998 2.972 2.91 2.91 5.008l-.229 7.129 23.192.727.229-7.128c.062-2.078 1.351-3.886 3.221-4.78.52-.249 1.018-.499 1.538-.769.499-.27.997-.561 1.475-.852 1.788-1.081 4.011-1.143 5.799-.041l6.026 3.74zm-19.638-14.651c-9.248 4.967-20.761 1.496-25.728-7.772-4.967-9.248-1.496-20.782 7.752-25.749 9.247-4.966 20.781-1.475 25.748 7.773 4.967 9.268 1.475 20.781-7.772 25.748zM120.87 509.606l12.24-19.722-6.047-3.741c-1.767-1.101-2.743-3.117-2.556-5.195.103-1.143.145-2.307.103-3.471-.041-2.078 1.04-4.031 2.889-5.008l6.255-3.367-10.972-20.47-6.256 3.367c-1.828.977-4.052.811-5.756-.374a33.212 33.212 0 00-2.951-1.829c-1.829-.997-2.972-2.909-2.91-5.008l.229-7.108-23.192-.727-.208 7.128c-.062 2.099-1.35 3.907-3.242 4.801a34.28 34.28 0 00-1.517.769c-.499.27-.998.561-1.475.852-1.788 1.08-3.99 1.143-5.757.041l-6.089-3.761-12.24 19.722 6.047 3.761c1.766 1.101 2.743 3.117 2.556 5.195a27.351 27.351 0 00-.104 3.45c.042 2.078-1.039 4.011-2.888 5.009l-6.256 3.366 10.973 20.47 6.255-3.367c1.83-.976 4.053-.81 5.757.374a28.71 28.71 0 002.95 1.808c1.83.998 2.973 2.91 2.91 5.009l-.228 7.128 23.192.727.229-7.128c.062-2.078 1.35-3.886 3.221-4.78a53.712 53.712 0 001.538-.768 35.42 35.42 0 001.475-.853c1.787-1.08 4.011-1.143 5.798-.041l6.027 3.741zm-19.66-14.651c-9.247 4.966-20.76 1.496-25.727-7.773-4.967-9.248-1.496-20.781 7.751-25.748 9.248-4.967 20.782-1.476 25.749 7.772 4.987 9.269 1.496 20.782-7.773 25.749z" fill="#EBEBEB"/><path d="M358.473 131.837l-8.125-14.09-4.302 2.494a3.85 3.85 0 01-4.052-.145 26.248 26.248 0 00-2.099-1.226c-1.31-.665-2.141-1.975-2.141-3.429v-4.988h-16.272v4.988c0 1.454-.831 2.764-2.14 3.429a19.06 19.06 0 00-2.099 1.226c-1.226.789-2.785.873-4.053.145l-4.301-2.494-8.126 14.09 4.323 2.494c1.267.728 1.974 2.12 1.891 3.595-.021.395-.021.79-.021 1.206 0 .395 0 .789.021 1.205.083 1.455-.624 2.847-1.891 3.574l-4.344 2.515 8.126 14.09 4.322-2.494a3.852 3.852 0 014.053.146c.665.436 1.371.852 2.099 1.205 1.309.665 2.14 1.974 2.14 3.429v4.988h16.272v-4.988c0-1.455.831-2.764 2.141-3.429a26.336 26.336 0 002.099-1.205 3.85 3.85 0 014.052-.146l4.323 2.494 8.125-14.09-4.322-2.494c-1.268-.727-1.954-2.119-1.891-3.574.02-.395.02-.811.02-1.205 0-.395 0-.79-.02-1.206-.084-1.455.623-2.847 1.891-3.595l4.301-2.515zm-15.544 7.295c0 7.356-5.964 13.321-13.321 13.321-7.357 0-13.321-5.965-13.321-13.321 0-7.357 5.964-13.321 13.321-13.321 7.377-.021 13.321 5.964 13.321 13.321z" fill="#EBEBEB"/><path d="M94.473 541.464C67.31 568.043 62.76 609.191 68.475 645.205c.146.811 1.413.603 1.413-.166 0-8.208-.25-16.334-.228-24.439.145-.374.27-.727.415-1.081 7.087-5.153 13.612-10.972 17.644-18.952 4.53-8.916 6.318-18.974 9.788-28.305.312-.894-.623-.623-1.247-.166-16.521 12.178-21.779 25.291-26.517 42.81.228-9.102.914-18.184 2.868-27.286 3.574-16.626 10.64-33.105 22.569-45.45.457-.478-.23-1.184-.707-.706z" fill="#213030"/><path d="M99.592 544.56c4.676.166 7.606 7.627 11.243 9.809 1.933 1.164 3.803 1.08 5.154-.811 3.616-5.029-1.351-11.243-6.006-14.734 3.325 1.372 6.089 3.782 9.684 4.447 2.183.395 3.866-.415 4.365-2.618 1.579-6.858-7.025-9.913-12.947-10.058 2.868-1.995 11.076-7.399 6.712-10.059-4.426-2.681-14.048 5.071-17.186 7.627-4.614 3.741-10.12 9.352-10.329 15.212-.27 6.817 5.715 2.619 9.31 1.185z" fill="#00A48A"/><path opacity=".1" d="M99.592 544.56c4.676.166 7.606 7.627 11.243 9.809 1.933 1.164 3.803 1.08 5.154-.811 3.616-5.029-1.351-11.243-6.006-14.734 3.325 1.372 6.089 3.782 9.684 4.447 2.183.395 3.866-.415 4.365-2.618 1.579-6.858-7.025-9.913-12.947-10.058 2.868-1.995 11.076-7.399 6.712-10.059-4.426-2.681-14.048 5.071-17.186 7.627-4.614 3.741-10.12 9.352-10.329 15.212-.27 6.817 5.715 2.619 9.31 1.185z" fill="#000"/><path d="M98.244 545.701c5.965-2.722 17.457 1.185 18.433-1.059 1.975-4.593-7.19-7.752-12.136-8.375 4.551-1.227 13.3-3.201 13.03-7.606-.332-5.362-13.404-.749-20.013 4.322-8.333 6.38-8.27 12.552-6.9 13.799 1.871 1.683 6.589-.623 7.586-1.081z" fill="#00A48A"/><path d="M32.637 538.823c28.159 25.54 34.268 66.459 29.925 102.681-.125.832-1.392.645-1.413-.124-.312-8.188-.374-16.335-.707-24.419-.166-.374-.29-.706-.457-1.08-7.273-4.884-14.007-10.453-18.35-18.267-4.863-8.749-7.045-18.724-10.848-27.91-.353-.873.603-.644 1.247-.208 16.979 11.555 22.735 24.439 28.138 41.771-.56-9.081-1.6-18.142-3.907-27.161-4.198-16.48-11.887-32.669-24.293-44.556-.5-.436.166-1.185.665-.727z" fill="#213030"/><path d="M27.64 542.106c-4.656.333-7.316 7.918-10.87 10.225-1.87 1.226-3.76 1.226-5.174-.624-3.803-4.904.915-11.284 5.424-14.942-3.283 1.497-5.943 4.011-9.497 4.822-2.161.478-3.886-.27-4.468-2.452-1.85-6.796 6.65-10.183 12.552-10.557-2.93-1.892-11.347-6.983-7.087-9.809 4.323-2.847 14.236 4.53 17.478 6.961 4.759 3.575 10.474 8.957 10.91 14.797.52 6.858-5.61 2.889-9.268 1.579z" fill="#00A48A"/><path opacity=".1" d="M27.64 542.106c-4.656.333-7.316 7.918-10.87 10.225-1.87 1.226-3.76 1.226-5.174-.624-3.803-4.904.915-11.284 5.424-14.942-3.283 1.497-5.943 4.011-9.497 4.822-2.161.478-3.886-.27-4.468-2.452-1.85-6.796 6.65-10.183 12.552-10.557-2.93-1.892-11.347-6.983-7.087-9.809 4.323-2.847 14.236 4.53 17.478 6.961 4.759 3.575 10.474 8.957 10.91 14.797.52 6.858-5.61 2.889-9.268 1.579z" fill="#000"/><path d="M29.032 543.208c-6.068-2.494-17.394 1.849-18.454-.375-2.161-4.53 6.9-8.021 11.825-8.832-4.593-1.06-13.404-2.701-13.3-7.107.124-5.383 13.362-1.268 20.158 3.554 8.562 6.068 8.749 12.24 7.419 13.528-1.83 1.788-6.65-.353-7.648-.768z" fill="#00A48A"/><path d="M61.422 606.257c2.079 13.467 4.656 27.369 8.75 40.379.394 1.184 2.14.873 1.974-.395-1.85-12.448-5.216-24.647-7.066-37.095-1.87-12.594-2.889-25.354-2.161-38.093 1.184-20.969 6.878-43.267 20.553-59.685.29-.394-.333-.935-.644-.582-27.39 31.942-23.027 71.094-23.006 74.606-3.886-13.217-7.876-28.387-22.548-41.833-.623-.582-1.122-.312-1.018.686 2.618 24.522 9.435 37.324 23.65 50.437.394 3.886.893 7.751 1.517 11.575z" fill="#213030"/><path d="M83.707 515.049c4.926-2.182 11.721 4.094 16.605 4.509 2.577.229 4.489-.789 4.946-3.429 1.205-7.044-7.045-10.993-13.633-12.261 4.136-.249 8.21.852 12.282-.249 2.452-.686 3.803-2.369 3.221-4.925-1.808-7.918-12.281-6.754-18.495-3.928 1.974-3.512 7.772-13.259 1.89-13.82-5.922-.54-12.032 12.324-14.006 16.563-2.91 6.214-5.798 14.797-3.076 20.99 3.18 7.232 7.274-.146 10.266-3.45z" fill="#00A48A"/><path opacity=".1" d="M83.707 515.049c4.926-2.182 11.721 4.094 16.605 4.509 2.577.229 4.489-.789 4.946-3.429 1.205-7.044-7.045-10.993-13.633-12.261 4.136-.249 8.21.852 12.282-.249 2.452-.686 3.803-2.369 3.221-4.925-1.808-7.918-12.281-6.754-18.495-3.928 1.974-3.512 7.772-13.259 1.89-13.82-5.922-.54-12.032 12.324-14.006 16.563-2.91 6.214-5.798 14.797-3.076 20.99 3.18 7.232 7.274-.146 10.266-3.45z" fill="#000"/><path d="M82.903 516.938c4.822-5.819 18.704-7.544 18.579-10.391-.27-5.777-11.368-4.427-16.812-2.577 4.114-3.575 12.178-10.017 9.684-14.443-3.034-5.404-14.277 5.964-18.6 14.547-5.424 10.827-2.265 17.186-.228 17.789 2.847.81 6.567-3.969 7.377-4.925zm-39.509 96.697L31.32 705.947h73.505c-1.517-8.188-15.192-92.416-15.192-92.416l-46.239.104z" fill="#00A48A"/><path d="M.016 706.262l107.357-.499 107.337-.187 214.716-.353 214.694.353 107.358.166 107.337.52-107.337.498-107.358.188-214.694.353-214.716-.353-107.337-.188-107.357-.498z" fill="#213030"/><path d="M429.419 887.021c171.081 0 309.77-19.613 309.77-43.807 0-24.194-138.689-43.808-309.77-43.808-171.082 0-309.771 19.614-309.771 43.808s138.689 43.807 309.771 43.807z" fill="#EBEBEB"/><path d="M237.339 383.165l-12.905-50.77-101.913 25.894-13.466-52.993 81.443-185.6 40.399-10.266 39.277 154.532 32.607-8.292 13.57 53.367-32.606 8.292 12.905 50.769-59.311 15.067zm-69.826-93.122l50.396-12.802-16.667-65.587-33.729 78.389zm361.698-76.371c0 16.833-2.556 32.315-7.647 46.446-5.112 14.153-12.116 26.393-21.031 36.701-8.915 10.328-19.431 18.35-31.547 24.086-12.115 5.735-25.312 8.603-39.568 8.603-14.277 0-27.535-2.868-39.755-8.603-12.24-5.736-22.818-13.758-31.733-24.086-8.916-10.329-15.878-22.569-20.844-36.701-4.967-14.152-7.461-29.634-7.461-46.446 0-16.833 2.494-32.316 7.461-46.447 4.966-14.153 11.907-26.393 20.844-36.701 8.915-10.328 19.493-18.412 31.733-24.272 12.24-5.861 25.478-8.791 39.755-8.791 14.277 0 27.473 2.93 39.568 8.791 12.095 5.86 22.611 13.965 31.547 24.272 8.915 10.329 15.939 22.569 21.031 36.701 5.091 14.152 7.647 29.634 7.647 46.447zm-61.575 0c0-17.831-3.575-32.316-10.703-43.392-7.149-11.098-16.314-16.626-27.536-16.626-11.72 0-21.093 5.549-28.096 16.626-7.024 11.097-10.516 25.561-10.516 43.392 0 17.851 3.492 32.253 10.516 43.205 7.003 10.972 16.376 16.438 28.096 16.438 11.222 0 20.387-5.487 27.536-16.438 7.149-10.952 10.703-25.354 10.703-43.205zm171.356 159.706l8.375-51.705-103.805-16.812 8.75-53.97 148.609-137.844 41.147 6.671-25.499 157.4 33.209 5.382-8.811 54.344-33.209-5.383-8.375 51.705-60.391-9.788zM612.017 260.16l51.331 8.312 10.827-66.812-62.158 58.5zM472.209 562.246h-73.795v6.048h73.795v-6.048zm0 7.875h-73.795v6.048h73.795v-6.048zm0 7.879h-73.795v6.047h73.795V578zm0 7.875h-73.795v6.047h73.795v-6.047zm0 7.875h-73.795v6.047h73.795v-6.047zm31.968 157.09H363.859v6.047h140.318v-6.047zm0 7.875H363.859v6.047h140.318v-6.047zm0 7.879H363.859v6.047h140.318v-6.047zm0 7.875H363.859v6.047h140.318v-6.047zm0 7.875H363.859v6.047h140.318v-6.047z" fill="#213030"/><path d="M302.309 512.265c.062-.81-30.715-11.118-30.715-11.118l1.808-105.757 40.815-8.749-11.908 125.624z" fill="#00A48A"/><path opacity=".2" d="M302.309 512.265c.062-.81-30.715-11.118-30.715-11.118l1.808-105.757 40.815-8.749-11.908 125.624z" fill="#000"/><path d="M584.242 553.789c.208-.79 32.669.124 32.669.124l34.684-99.918-35.308-22.257-32.045 122.051z" fill="#00A48A"/><path opacity=".2" d="M584.242 553.789c.208-.79 32.669.124 32.669.124l34.684-99.918-35.308-22.257-32.045 122.051z" fill="#000"/><path d="M296.391 551.21s11.409-171.032 21.425-227.288c0 0 206.611 15.628 318.146 58.251 0 0-57.503 199.773-60.475 209.686-.02 0-145.512-28.658-279.096-40.649z" fill="#00A48A"/><path opacity=".1" d="M480.814 346.758c-3.367 20.594-6.754 41.189-10.266 61.742l-10.641 61.68-.582-.873 69.224 16.438 34.581 8.375 34.539 8.541-34.726-7.772-34.685-7.939-69.286-16.188-.706-.167.124-.706 11.035-61.618c3.699-20.49 7.523-41.002 11.389-61.513zm-7.623 11.74c.041 1.891-1.476 3.824-3.637 4.011a4.062 4.062 0 01-3.034-.977 4.112 4.112 0 01-1.372-3.034c0-1.164.52-2.307 1.372-3.034a4.062 4.062 0 013.034-.977c2.182.187 3.678 2.12 3.637 4.011zm0 0c0-.956-.437-1.891-1.143-2.494a3.282 3.282 0 00-2.494-.748c-1.746.208-2.868 1.767-2.847 3.242-.021 1.476 1.101 3.034 2.847 3.242a3.277 3.277 0 002.494-.748c.727-.603 1.143-1.538 1.143-2.494zm-3.617 25.438c.041 1.891-1.476 3.823-3.637 4.011a4.066 4.066 0 01-3.034-.977 4.112 4.112 0 01-1.372-3.034c0-1.164.52-2.307 1.372-3.034a4.058 4.058 0 013.034-.977c2.161.187 3.678 2.14 3.637 4.011zm0 0c0-.956-.437-1.891-1.143-2.494a3.277 3.277 0 00-2.494-.748c-1.746.208-2.868 1.766-2.847 3.242-.021 1.475 1.101 3.034 2.847 3.242a3.278 3.278 0 002.494-.749c.706-.602 1.122-1.537 1.143-2.493zm-4.461 26.89c.041 1.891-1.476 3.824-3.637 4.011a4.058 4.058 0 01-3.034-.977 4.112 4.112 0 01-1.372-3.034c0-1.143.52-2.306 1.372-3.034a4.066 4.066 0 013.034-.977c2.161.187 3.678 2.141 3.637 4.011zm0 0c0-.956-.437-1.891-1.143-2.493a3.278 3.278 0 00-2.494-.749c-1.746.208-2.868 1.767-2.847 3.242-.021 1.476 1.101 3.034 2.847 3.242a3.277 3.277 0 002.494-.748c.706-.603 1.122-1.538 1.143-2.494zm-4.477 26.891c.042 1.891-1.475 3.824-3.637 4.011a4.062 4.062 0 01-3.034-.977 4.11 4.11 0 01-1.371-3.034c0-1.143.519-2.307 1.371-3.034a4.062 4.062 0 013.034-.977c2.162.187 3.679 2.12 3.637 4.011zm0 0c0-.956-.436-1.891-1.143-2.494a3.276 3.276 0 00-2.494-.748c-1.745.208-2.867 1.766-2.847 3.242-.02 1.475 1.102 3.034 2.847 3.242a3.28 3.28 0 002.494-.748c.707-.603 1.122-1.538 1.143-2.494zm15.219 42.894c.042 1.892-1.476 3.824-3.637 4.011a4.06 4.06 0 01-3.034-.976 4.116 4.116 0 01-1.372-3.035c0-1.163.52-2.306 1.372-3.034a4.06 4.06 0 013.034-.976c2.182.166 3.679 2.119 3.637 4.01zm0 0c0-.955-.436-1.891-1.143-2.493a3.277 3.277 0 00-2.494-.748c-1.745.207-2.868 1.766-2.847 3.241-.021 1.476 1.102 3.035 2.847 3.242a3.277 3.277 0 002.494-.748 3.319 3.319 0 001.143-2.494zm25.391 6.196c.041 1.891-1.476 3.824-3.637 4.011a4.062 4.062 0 01-3.034-.977 4.112 4.112 0 01-1.372-3.034c0-1.164.52-2.307 1.372-3.034a4.062 4.062 0 013.034-.977c2.161.166 3.657 2.12 3.637 4.011zm0 0c0-.956-.437-1.891-1.143-2.494a3.277 3.277 0 00-2.494-.748c-1.746.208-2.868 1.766-2.847 3.242-.021 1.475 1.101 3.034 2.847 3.242a3.282 3.282 0 002.494-.748 3.476 3.476 0 001.143-2.494zm25.375 6.191c.041 1.891-1.476 3.824-3.637 4.011a4.062 4.062 0 01-3.034-.977 4.112 4.112 0 01-1.372-3.034c0-1.164.52-2.307 1.372-3.034a4.062 4.062 0 013.034-.977c2.161.167 3.678 2.12 3.637 4.011zm0 0c0-.956-.437-1.891-1.143-2.494a3.282 3.282 0 00-2.494-.748c-1.746.208-2.868 1.767-2.847 3.242-.021 1.476 1.101 3.034 2.847 3.242a3.277 3.277 0 002.494-.748c.706-.623 1.143-1.559 1.143-2.494zm25.375 6.172c.041 1.891-1.476 3.824-3.637 4.011a4.062 4.062 0 01-3.034-.977 4.112 4.112 0 01-1.372-3.034c0-1.164.52-2.307 1.372-3.034a4.062 4.062 0 013.034-.977c2.182.187 3.678 2.141 3.637 4.011zm0 0c0-.956-.437-1.891-1.143-2.494a3.282 3.282 0 00-2.494-.748c-1.746.208-2.868 1.767-2.847 3.242-.021 1.476 1.101 3.034 2.847 3.242a3.282 3.282 0 002.494-.748c.727-.603 1.143-1.538 1.143-2.494zm25.375 6.485c-.104 1.891-1.767 3.699-3.928 3.719a4.045 4.045 0 01-2.951-1.205c-.79-.81-1.205-1.974-1.122-3.138.104-1.143.686-2.244 1.6-2.93.914-.686 2.078-.915 3.117-.748 2.12.374 3.471 2.41 3.284 4.302zm0 0a3.426 3.426 0 00-.935-2.577 3.331 3.331 0 00-2.432-.936c-1.745.063-2.992 1.538-3.096 3.014-.146 1.454.872 3.117 2.597 3.45a3.306 3.306 0 002.536-.562c.769-.54 1.247-1.454 1.33-2.389zm-121.196-41.044c.042 1.892-1.475 3.824-3.636 4.011a4.062 4.062 0 01-3.035-.976 4.115 4.115 0 01-1.371-3.035c0-1.143.519-2.306 1.371-3.034a4.062 4.062 0 013.035-.976c2.161.187 3.678 2.119 3.636 4.01zm0 0c0-.955-.436-1.891-1.143-2.493a3.274 3.274 0 00-2.493-.748c-1.746.207-2.868 1.766-2.848 3.241-.02 1.476 1.102 3.035 2.848 3.242a3.274 3.274 0 002.493-.748c.707-.602 1.122-1.538 1.143-2.494z" fill="#000"/><path opacity=".2" d="M413.425 509.161c24.093-21.663 26.063-58.756 4.4-82.849-21.663-24.093-58.756-26.063-82.849-4.4-24.093 21.663-26.063 58.756-4.4 82.849 21.663 24.093 58.756 26.063 82.849 4.4z" fill="#000"/><path d="M418.18 482.193c9.199-24.301-3.044-51.457-27.345-60.656-24.301-9.199-51.457 3.044-60.656 27.345-9.199 24.301 3.044 51.458 27.345 60.656 24.301 9.199 51.458-3.044 60.656-27.345z" fill="#213030"/><path d="M371.347 448.242l-10.995-1.781-1.782 10.995 10.996 1.781 1.781-10.995zm-9.211-12.777l-10.995-1.781-1.781 10.995 10.995 1.781 1.781-10.995zm43.984 7.129l-10.995-1.782-1.781 10.996 10.995 1.781 1.781-10.995zm-51.054 36.617l-10.996-1.781-1.781 10.995 10.995 1.781 1.782-10.995zm43.992 7.125l-10.996-1.781-1.781 10.995 10.996 1.781 1.781-10.995z" fill="#00A48A"/><path d="M367.831 470l-10.995-1.781-1.781 10.995 10.995 1.781L367.831 470zm12.766-9.102l-10.995-1.781-1.782 10.995 10.996 1.782 1.781-10.996z" fill="#00A48A"/><path d="M393.347 451.82l-10.995-1.781-1.782 10.995 10.996 1.781 1.781-10.995zm-3.524 21.727l-10.995-1.781-1.781 10.995 10.995 1.781 1.781-10.995zm187.211 53.745c20.535-25.062 16.866-62.026-8.196-82.561-25.062-20.536-62.026-16.867-82.561 8.195-20.536 25.062-16.867 62.026 8.195 82.561 25.062 20.536 62.026 16.867 82.562-8.195z" fill="#00A48A"/><path opacity=".2" d="M577.034 527.292c20.535-25.062 16.866-62.026-8.196-82.561-25.062-20.536-62.026-16.867-82.561 8.195-20.536 25.062-16.867 62.026 8.195 82.561 25.062 20.536 62.026 16.867 82.562-8.195z" fill="#000"/><path opacity=".2" d="M588.736 503.704a57.175 57.175 0 01-.914 3.387l-114.361-24.397a66.11 66.11 0 011.122-6.152c7.482-31.526 39.111-50.998 70.658-43.516 31.484 7.502 50.977 39.131 43.495 70.678z" fill="#000"/><path d="M549.782 533.555c23.976-10.017 35.292-37.574 25.275-61.55-10.018-23.977-37.575-35.293-61.551-25.275-23.976 10.017-35.292 37.574-25.275 61.55 10.017 23.976 37.574 35.292 61.551 25.275z" fill="#213030"/><path d="M543.478 464.419l-10.837-2.575-12.824 53.963 10.837 2.575 12.824-53.963z" fill="#00A48A"/><path d="M592.141 502.606l-120.118-28.553c7.877-33.168 41.169-53.659 74.336-45.782 33.168 7.897 53.679 41.168 45.782 74.335z" fill="#00A48A"/><path opacity=".2" d="M592.141 502.606l-120.118-28.553c7.877-33.168 41.169-53.659 74.336-45.782 33.168 7.897 53.679 41.168 45.782 74.335z" fill="#000"/><path opacity=".1" d="M429.586 525.005c.312-4.697 2.037-9.456 5.424-13.217 1.683-1.892 3.907-3.388 6.38-4.281 2.473-.915 5.154-1.081 7.689-.852 2.577.311 5.216 1.205 7.378 2.847a15.14 15.14 0 014.675 6.172c1.954 4.655 2.182 9.622 1.227 14.235-.79-4.613-1.975-9.081-4.136-12.76-2.141-3.699-5.549-6.006-9.58-6.359-4.136-.52-8.147.603-11.389 3.325-3.262 2.722-5.735 6.629-7.668 10.89z" fill="#000"/><path d="M312.438 405.343c.477-6.276 1.184-12.51 1.787-18.765.665-6.235 1.351-12.49 2.119-18.704.728-6.234 1.538-12.448 2.328-18.682.79-6.235 1.683-12.428 2.515-18.662l.228-1.663 1.683.104c13.529.852 27.037 1.954 40.525 3.325a727.005 727.005 0 0120.199 2.348c6.713.956 13.446 1.85 20.117 3.076l-40.566-2.514-40.524-2.619 1.912-1.559c-.914 6.214-1.766 12.428-2.743 18.621-.956 6.193-1.912 12.406-2.93 18.599a1124.352 1124.352 0 01-3.159 18.558c-1.164 6.172-2.224 12.365-3.491 18.537zm9.773 47.4c1.372-7.543 4.78-14.713 9.393-20.968 1.143-1.58 2.452-3.034 3.699-4.531 1.351-1.392 2.764-2.764 4.157-4.135a199.772 199.772 0 014.613-3.637c1.663-1.06 3.284-2.141 4.967-3.159 1.766-.852 3.533-1.725 5.32-2.535l5.57-1.933 5.777-1.184c1.933-.291 3.907-.354 5.839-.499 7.814-.208 15.524 1.475 22.59 4.322-7.523-1.413-15.025-2.182-22.403-1.475-7.377.686-14.526 2.889-20.927 6.504-6.463 3.513-12.157 8.375-16.999 14.028-4.8 5.673-8.791 12.095-11.596 19.202zm161.82 15.861c2.39-7.274 6.775-13.924 12.199-19.472 1.351-1.393 2.847-2.66 4.281-3.97 1.538-1.205 3.117-2.348 4.697-3.512a179.594 179.594 0 015.07-2.972c1.788-.81 3.554-1.662 5.362-2.431 1.87-.603 3.741-1.226 5.632-1.787l5.777-1.143 5.881-.374c1.954-.021 3.907.208 5.861.332 7.772.873 15.17 3.595 21.779 7.398-7.253-2.431-14.568-4.239-21.987-4.571-7.398-.333-14.797.852-21.634 3.553-6.878 2.598-13.217 6.63-18.765 11.534-5.549 4.946-10.37 10.765-14.153 17.415z" fill="#fff"/><path d="M302.947 656.609c-15.025 0-47.923-3.387-69.099-30.611-27.079-34.83-17.29-101.643-16.875-104.49l11.763 1.787c-.104.644-9.435 64.61 14.505 95.388 23.4 30.091 65.857 25.769 66.293 25.727l1.33 11.825c-.478.062-3.387.374-7.917.374z" fill="#00A48A"/><path opacity=".4" d="M302.947 656.609c-15.025 0-47.923-3.387-69.099-30.611-27.079-34.83-17.29-101.643-16.875-104.49l11.763 1.787c-.104.644-9.435 64.61 14.505 95.388 23.4 30.091 65.857 25.769 66.293 25.727l1.33 11.825c-.478.062-3.387.374-7.917.374z" fill="#fff"/><path d="M232.192 531.406c-2.14 0-4.343-.188-6.567-.541-19.846-3.221-28.616-15.087-32.502-24.481-3.886-9.414-4.78-20.802-2.66-33.853l25.167 4.073c-1.31 8.084-.936 15.192 1.08 20.055 1.434 3.449 4.198 7.606 13.009 9.04 4.032.644 8.375.311 12.947-6.567 3.512-5.3 5.632-12.532 6.38-17.104l25.167 4.074c-.582 3.595-3.055 16.188-10.287 27.12-7.918 11.887-18.994 18.184-31.734 18.184zm95.622 159.251c-.041-.541-21.321-3.949-21.321-3.949l-10.329-69.431 25.769-10.183 5.881 83.563z" fill="#00A48A"/><path opacity=".2" d="M327.814 690.657c-.041-.541-21.321-3.949-21.321-3.949l-10.329-69.431 25.769-10.183 5.881 83.563z" fill="#000"/><path d="M538.094 690.779c.062-.54 21.405-3.47 21.405-3.47l11.866-69.182-25.54-10.744-7.731 83.396z" fill="#00A48A"/><path opacity=".2" d="M538.094 690.779c.062-.54 21.405-3.47 21.405-3.47l11.866-69.182-25.54-10.744-7.731 83.396z" fill="#000"/><path d="M318.956 591.57s172.051-7.357 230.156 2.328c0 0-17.062 166.481-17.997 169.702 0 0-171.136-.457-197.882 0 0 0-14.506-110.703-14.277-172.03z" fill="#00A48A"/><path opacity=".2" d="M371.203 637.182s93.912-3.699 125.646 1.185c0 0-9.311 83.936-9.83 85.578 0 0-93.434-.228-108.023 0 0-.021-6.401-57.461-7.793-86.763z" fill="#000"/><path opacity=".2" d="M384.046 723.902c-2.14 0-3.865.021-5.05.042 0 0-6.401-57.462-7.793-86.764 0 0 2.141-.083 5.861-.207l6.982 86.929z" fill="#000"/><path d="M411.754 657.908c-5.258-1.662-10.869 1.268-12.531 6.526-1.663 5.278 1.267 10.868 6.525 12.531 5.258 1.662 10.869-1.268 12.51-6.526 1.684-5.257-1.246-10.868-6.504-12.531zm5.361 12.157a8.756 8.756 0 01-10.993 5.736c-4.613-1.455-7.19-6.38-5.736-11.014 1.455-4.614 6.38-7.191 11.015-5.736 4.613 1.476 7.169 6.401 5.714 11.014zm-5.361-12.157c-5.258-1.662-10.869 1.268-12.531 6.526-1.663 5.278 1.267 10.868 6.525 12.531 5.258 1.662 10.869-1.268 12.51-6.526 1.684-5.257-1.246-10.868-6.504-12.531zm5.361 12.157a8.756 8.756 0 01-10.993 5.736c-4.613-1.455-7.19-6.38-5.736-11.014 1.455-4.614 6.38-7.191 11.015-5.736 4.613 1.476 7.169 6.401 5.714 11.014zm-5.361-12.157c-5.258-1.662-10.869 1.268-12.531 6.526-1.663 5.278 1.267 10.868 6.525 12.531 5.258 1.662 10.869-1.268 12.51-6.526 1.684-5.257-1.246-10.868-6.504-12.531zm5.361 12.157a8.756 8.756 0 01-10.993 5.736c-4.613-1.455-7.19-6.38-5.736-11.014 1.455-4.614 6.38-7.191 11.015-5.736 4.613 1.476 7.169 6.401 5.714 11.014zm-2.036-22.714c-11.097-3.491-22.922 2.681-26.414 13.758-3.491 11.097 2.661 22.922 13.758 26.413 11.076 3.491 22.922-2.66 26.413-13.757 3.492-11.098-2.66-22.923-13.757-26.414zm4.676 23.546c-1.912 6.068-8.396 9.455-14.485 7.543-6.068-1.912-9.456-8.395-7.544-14.484 1.912-6.069 8.417-9.456 14.485-7.544 6.068 1.933 9.456 8.416 7.544 14.485zm-1.476-.458c1.663-5.257-1.267-10.868-6.525-12.531-5.258-1.662-10.869 1.268-12.531 6.526-1.663 5.278 1.267 10.868 6.525 12.531 5.258 1.662 10.869-1.268 12.531-6.526zm-1.164-.374a8.756 8.756 0 01-10.993 5.736c-4.613-1.455-7.19-6.38-5.736-11.014 1.455-4.614 6.38-7.191 11.015-5.736 4.613 1.476 7.169 6.401 5.714 11.014zm-5.361-12.157c-5.258-1.662-10.869 1.268-12.531 6.526-1.663 5.278 1.267 10.868 6.525 12.531 5.258 1.662 10.869-1.268 12.51-6.526 1.684-5.257-1.246-10.868-6.504-12.531zm5.361 12.157a8.756 8.756 0 01-10.993 5.736c-4.613-1.455-7.19-6.38-5.736-11.014 1.455-4.614 6.38-7.191 11.015-5.736 4.613 1.476 7.169 6.401 5.714 11.014zm-5.361-12.157c-5.258-1.662-10.869 1.268-12.531 6.526-1.663 5.278 1.267 10.868 6.525 12.531 5.258 1.662 10.869-1.268 12.51-6.526 1.684-5.257-1.246-10.868-6.504-12.531zm5.361 12.157a8.756 8.756 0 01-10.993 5.736c-4.613-1.455-7.19-6.38-5.736-11.014 1.455-4.614 6.38-7.191 11.015-5.736 4.613 1.476 7.169 6.401 5.714 11.014z" fill="#00A48A"/><path d="M406.537 687.9l-7.709-2.431-1.289 5.59 6.858 2.182 2.14-5.341zm-13.858-7.23l-3.741-7.17-4.883 3.034 3.325 6.38 5.299-2.244zm-4.698-14.924l2.432-7.731-5.611-1.288-2.161 6.857 5.34 2.162zm7.237-13.879l7.17-3.741-3.034-4.884-6.401 3.346 2.265 5.279zm14.923-4.698l7.71 2.431 1.309-5.59-6.879-2.182-2.14 5.341zm13.882 7.232l3.741 7.19 4.863-3.055-3.325-6.38-5.279 2.245zm4.69 14.919l-2.432 7.731 5.591 1.289 2.161-6.858-5.32-2.162zm-7.226 13.883l-7.19 3.741 3.055 4.883 6.38-3.325-2.245-5.299z" fill="#00A48A"/><path d="M445.711 687.291c-3.117-2.037-7.273-1.143-9.31 1.974-2.036 3.117-1.143 7.273 1.974 9.31 3.118 2.037 7.274 1.143 9.311-1.974 2.015-3.117 1.143-7.295-1.975-9.31zm1.289 8.853c-1.787 2.743-5.445 3.512-8.167 1.724-2.743-1.787-3.512-5.444-1.725-8.167 1.787-2.743 5.445-3.512 8.167-1.725a5.923 5.923 0 011.725 8.168zm-1.289-8.853c-3.117-2.037-7.273-1.143-9.31 1.974-2.036 3.117-1.143 7.273 1.974 9.31 3.118 2.037 7.274 1.143 9.311-1.974 2.015-3.117 1.143-7.295-1.975-9.31zm1.289 8.853c-1.787 2.743-5.445 3.512-8.167 1.724-2.743-1.787-3.512-5.444-1.725-8.167 1.787-2.743 5.445-3.512 8.167-1.725a5.923 5.923 0 011.725 8.168zm-1.289-8.853c-3.117-2.037-7.273-1.143-9.31 1.974-2.036 3.117-1.143 7.273 1.974 9.31 3.118 2.037 7.274 1.143 9.311-1.974 2.015-3.117 1.143-7.295-1.975-9.31zm1.289 8.853c-1.787 2.743-5.445 3.512-8.167 1.724-2.743-1.787-3.512-5.444-1.725-8.167 1.787-2.743 5.445-3.512 8.167-1.725a5.923 5.923 0 011.725 8.168zm2.785-15.109c-6.567-4.281-15.337-2.41-19.618 4.136-4.26 6.567-2.411 15.337 4.135 19.618 6.547 4.26 15.337 2.41 19.618-4.157 4.26-6.525 2.411-15.316-4.135-19.597zm-1.227 16.127c-2.348 3.595-7.169 4.613-10.744 2.286-3.595-2.328-4.613-7.17-2.265-10.744 2.349-3.596 7.17-4.614 10.744-2.265 3.575 2.306 4.593 7.128 2.265 10.723zm-.872-.561c2.036-3.117 1.143-7.274-1.954-9.31-3.117-2.037-7.273-1.143-9.31 1.974-2.037 3.117-1.143 7.273 1.974 9.31 3.097 2.016 7.253 1.122 9.29-1.974zm-.686-.457c-1.787 2.743-5.445 3.512-8.167 1.724-2.743-1.787-3.512-5.444-1.725-8.167 1.787-2.743 5.445-3.512 8.167-1.725a5.923 5.923 0 011.725 8.168zm-1.289-8.853c-3.117-2.037-7.273-1.143-9.31 1.974-2.036 3.117-1.143 7.273 1.974 9.31 3.118 2.037 7.274 1.143 9.311-1.974 2.015-3.117 1.143-7.295-1.975-9.31zm1.289 8.853c-1.787 2.743-5.445 3.512-8.167 1.724-2.743-1.787-3.512-5.444-1.725-8.167 1.787-2.743 5.445-3.512 8.167-1.725a5.923 5.923 0 011.725 8.168zm-1.289-8.853c-3.117-2.037-7.273-1.143-9.31 1.974-2.036 3.117-1.143 7.273 1.974 9.31 3.118 2.037 7.274 1.143 9.311-1.974 2.015-3.117 1.143-7.295-1.975-9.31zm1.289 8.853c-1.787 2.743-5.445 3.512-8.167 1.724-2.743-1.787-3.512-5.444-1.725-8.167 1.787-2.743 5.445-3.512 8.167-1.725a5.923 5.923 0 011.725 8.168z" fill="#DBDBDB"/><path d="M436.922 705.784l-4.572-2.972-1.85 3.409 4.052 2.639 2.37-3.076zm-7.71-7.189l-1.122-5.341-3.699 1.101.997 4.739 3.824-.499zm-.332-10.537l2.972-4.572-3.408-1.849-2.639 4.073 3.075 2.348zm7.181-7.689l5.341-1.122-1.101-3.72-4.739 1.019.499 3.823zm10.548-.353l4.572 2.992 1.85-3.408-4.073-2.639-2.349 3.055zm7.688 7.209l1.122 5.32 3.72-1.08-.998-4.738-3.844.498zm.354 10.541l-2.971 4.551 3.387 1.849 2.639-4.052-3.055-2.348zm-7.214 7.687l-5.32 1.122 1.081 3.72 4.738-1.018-.499-3.824z" fill="#DBDBDB"/><path d="M544.945 744.234l6.609 1.226 18.911-128.077-7.523-1.371-17.997 128.222z" fill="#00A48A"/><path d="M487.031 723.932l9.83-85.579 66.085-22.361S544.95 745.607 544.95 744.215l-57.919-20.283z" fill="#00A48A"/><path opacity=".4" d="M487.031 723.932l9.83-85.579 66.085-22.361S544.95 745.607 544.95 744.215l-57.919-20.283z" fill="#fff"/><path d="M326.854 641.819c-1.081-7.087-1.662-14.236-2.099-21.384-.208-3.575-.291-7.17-.374-10.744-.062-3.575-.125-7.17-.021-10.745l.021-.935.914-.041c13.134-.707 26.248-1.559 39.382-2.141 13.134-.644 26.267-1.247 39.401-1.641-13.092 1.184-26.205 2.202-39.318 3.137-13.114 1.019-26.227 1.767-39.34 2.661l.935-.998-.062 10.703.125 10.702c.02 3.574.083 7.149.187 10.723l.249 10.703zm179.216-2.204a195.473 195.473 0 0112.469-5.424c4.198-1.704 8.438-3.325 12.719-4.801 4.281-1.454 8.582-2.888 12.967-4.114 4.364-1.226 8.77-2.369 13.28-3.097l1.101-.187-.208 1.06c-1.039 5.549-2.119 11.077-3.408 16.584.478-5.632 1.164-11.222 1.891-16.812l.915.872c-4.364 1.039-8.687 2.266-13.01 3.533a463.67 463.67 0 00-12.905 4.053l-25.811 8.333z" fill="#fff"/><path opacity=".1" d="M355.445 591.922l1.102 21.405.956 21.405 1.662 42.831 1.289 42.831.519 21.426.354 21.425-1.123-21.405-.956-21.405-1.641-42.831-1.289-42.83-.519-21.426-.354-21.426zm-6.122 12.91c.415 1.849-.686 4.031-2.764 4.655-.998.312-2.182.208-3.18-.353-.976-.562-1.704-1.58-1.932-2.702-.229-1.122.041-2.348.748-3.242a4.096 4.096 0 012.784-1.559c2.141-.27 4.011 1.331 4.344 3.201zm0 0a3.335 3.335 0 00-1.6-2.224c-.811-.457-1.788-.499-2.577-.249-1.663.54-2.473 2.307-2.162 3.74.271 1.455 1.684 2.764 3.429 2.619a3.235 3.235 0 002.286-1.226c.582-.727.811-1.725.624-2.66zm1.468 25.664c.416 1.849-.685 4.032-2.763 4.655-.998.312-2.183.208-3.18-.353-.977-.561-1.704-1.58-1.933-2.702-.228-1.122.042-2.348.748-3.242a4.1 4.1 0 012.785-1.558c2.141-.271 4.011 1.33 4.343 3.2zm0 0a3.332 3.332 0 00-1.6-2.224c-.81-.457-1.787-.498-2.577-.249-1.662.54-2.473 2.307-2.161 3.741.27 1.454 1.683 2.764 3.429 2.618.852-.083 1.725-.499 2.286-1.226.561-.727.79-1.746.623-2.66zm.946 27.222c.415 1.85-.686 4.032-2.764 4.655-.998.312-2.182.208-3.18-.353-.976-.561-1.704-1.579-1.932-2.702-.229-1.122.041-2.348.748-3.241a4.098 4.098 0 012.784-1.559c2.141-.249 4.011 1.351 4.344 3.2zm0 0a3.333 3.333 0 00-1.6-2.223c-.811-.458-1.788-.499-2.577-.25-1.663.541-2.473 2.307-2.162 3.741.271 1.455 1.684 2.764 3.429 2.618.852-.083 1.725-.498 2.286-1.226.561-.727.79-1.725.624-2.66zm.93 27.242c.415 1.85-.686 4.032-2.764 4.655-.998.312-2.182.208-3.18-.353-.976-.561-1.704-1.579-1.932-2.701-.229-1.123.041-2.349.727-3.242a4.1 4.1 0 012.785-1.559c2.161-.27 4.031 1.351 4.364 3.2zm0 0a3.333 3.333 0 00-1.6-2.223c-.811-.457-1.788-.499-2.577-.25-1.663.541-2.473 2.307-2.162 3.741.271 1.455 1.684 2.764 3.429 2.619a3.236 3.236 0 002.286-1.227c.561-.727.79-1.724.624-2.66zm.937 27.246c.416 1.85-.686 4.032-2.764 4.656-.997.311-2.182.207-3.18-.354-.976-.561-1.704-1.579-1.932-2.701-.229-1.123.041-2.349.748-3.242a4.1 4.1 0 012.785-1.559c2.14-.27 4.01 1.351 4.343 3.2zm0 0a3.333 3.333 0 00-1.6-2.223c-.811-.457-1.787-.499-2.577-.25-1.663.541-2.473 2.307-2.161 3.741.27 1.455 1.683 2.764 3.429 2.619a3.24 3.24 0 002.286-1.226c.561-.728.789-1.725.623-2.661zm.93 27.247c.416 1.849-.686 4.031-2.764 4.655a4.094 4.094 0 01-3.18-.354c-.976-.561-1.704-1.579-1.932-2.701-.229-1.122.041-2.349.727-3.242a4.1 4.1 0 012.785-1.559c2.161-.27 4.031 1.351 4.364 3.201zm0 0a3.333 3.333 0 00-1.6-2.224c-.811-.457-1.787-.499-2.577-.249-1.663.54-2.473 2.306-2.161 3.74.27 1.455 1.683 2.764 3.429 2.619.852-.083 1.724-.499 2.285-1.226.562-.728.79-1.725.624-2.66z" fill="#000"/><path d="M362.943 781.103l-97.412 29.518 3.448 11.376 97.411-29.519-3.447-11.375z" fill="#00A48A"/><path opacity=".4" d="M362.943 781.103l-97.412 29.518 3.448 11.376 97.411-29.519-3.447-11.375z" fill="#fff"/><path d="M316.321 791.358l-11.329 3.603 5.354 16.834 11.329-3.603-5.354-16.834zm-48.119 47.332l-25.125-108.854-75.874 17.997 37.345 106.069 63.654-15.212zm16.842-5.528l-16.833 5.528-25.125-108.854 24.21 5.756 17.748 97.57z" fill="#00A48A"/><path opacity=".2" d="M285.044 833.162l-16.833 5.528-25.125-108.854 24.21 5.756 17.748 97.57z" fill="#000"/><path d="M364.71 799.701c7.128 0 12.905-5.778 12.905-12.905s-5.777-12.905-12.905-12.905c-7.127 0-12.905 5.778-12.905 12.905s5.778 12.905 12.905 12.905zm132.902-18.906l-3.471 11.369 97.35 29.722 3.471-11.369-97.35-29.722z" fill="#00A48A"/><path opacity=".4" d="M497.612 780.795l-3.471 11.369 97.35 29.722 3.471-11.369-97.35-29.722z" fill="#fff"/><path d="M544.282 791.1l-5.391 16.822 11.32 3.628 5.391-16.822-11.32-3.628zm47.999 47.481l25.375-108.792 75.832 18.142-37.574 106.007-63.633-15.357zm-16.812-5.574l16.812 5.57 25.374-108.792-24.231 5.715-17.955 97.507z" fill="#00A48A"/><path opacity=".2" d="M575.469 833.007l16.812 5.57 25.374-108.792-24.231 5.715-17.955 97.507z" fill="#000"/><path d="M482.969 786.459c-.021 7.128 5.756 12.926 12.884 12.947 7.128.021 12.927-5.757 12.947-12.885.021-7.128-5.756-12.926-12.884-12.947-7.128-.021-12.926 5.757-12.947 12.885zm97.471-134.246c.312-.291 31.589-29.302 68.393-19.39 37.635 10.163 68.724 66.855 69.015 67.416l10.454-5.653c-1.351-2.514-33.771-61.763-76.394-73.255-43.35-11.679-78.222 20.844-79.697 22.236l8.229 8.646z" fill="#00A48A"/><path opacity=".4" d="M580.44 652.213c.312-.291 31.589-29.302 68.393-19.39 37.635 10.163 68.724 66.855 69.015 67.416l10.454-5.653c-1.351-2.514-33.771-61.763-76.394-73.255-43.35-11.679-78.222 20.844-79.697 22.236l8.229 8.646z" fill="#fff"/><path d="M703.985 757.325l22.548-11.908c-2.161-4.094-4.821-11.139-5.216-17.498-.499-8.23 2.764-11.139 6.38-13.03 7.897-4.177 12.614-2.515 15.836-.624 4.509 2.661 9.102 8.126 12.926 15.358l22.548-11.908c-6.172-11.679-13.737-20.241-22.507-25.416-8.749-5.154-22.901-9.351-40.69.042-13.861 7.315-20.927 20.491-19.909 37.116.769 13.092 6.38 24.647 8.084 27.868z" fill="#00A48A"/><path d="M585.18 612.499c4.883-3.367 9.892-6.546 14.9-9.705 5.008-3.18 10.1-6.193 15.191-9.227 5.113-2.993 10.225-5.965 15.441-8.812l7.793-4.26c2.64-1.351 5.237-2.764 7.918-4.073-2.431 1.704-4.925 3.304-7.398 4.946l-7.502 4.759c-5.009 3.159-10.1 6.193-15.192 9.227-5.112 2.992-10.224 5.964-15.44 8.811-5.196 2.868-10.391 5.694-15.711 8.334zm-12.946 48.626c7.004 3.99 13.633 8.479 20.158 13.113 6.505 4.676 12.927 9.477 18.953 14.797-7.003-3.99-13.632-8.479-20.158-13.114-6.504-4.675-12.905-9.476-18.953-14.796zm11.493-5.984c5.403 1.641 10.723 3.491 16.022 5.382 5.32 1.87 10.557 3.886 15.815 5.902 5.237 2.057 10.474 4.136 15.649 6.338l7.751 3.325c2.556 1.185 5.154 2.286 7.689 3.533-2.701-.81-5.361-1.725-8.042-2.577l-7.96-2.784c-5.32-1.871-10.557-3.886-15.814-5.902-5.237-2.058-10.474-4.136-15.649-6.339-5.216-2.203-10.391-4.447-15.461-6.878zm15.335-38.092c5.175-1.351 10.391-2.473 15.607-3.553 5.217-1.102 10.454-2.058 15.711-3.014 5.258-.893 10.516-1.787 15.794-2.535l7.918-1.101c2.66-.291 5.299-.645 7.96-.873-2.577.685-5.196 1.247-7.794 1.891l-7.813 1.662c-5.217 1.102-10.454 2.058-15.711 3.014-5.258.893-10.516 1.787-15.794 2.535-5.279.748-10.557 1.476-15.878 1.974zm-124.718 32.356c.873-4.198 2.286-8.312 4.114-12.198 1.829-3.907 4.053-7.648 6.858-10.973 2.806-3.284 6.276-6.193 10.454-7.793 4.156-1.559 8.936-1.538 13.113.124 4.218 1.642 7.564 5.196 9.351 9.29a20.99 20.99 0 011.767 6.463c.208 2.244.125 4.551-.769 6.796-.457 1.101-1.164 2.202-2.286 2.951-.54.374-1.226.602-1.87.706a4.586 4.586 0 01-2.078-.187c-1.393-.582-2.079-1.704-2.681-2.722a14.657 14.657 0 01-1.226-3.201c-1.164-4.343-1.289-8.749-1.081-13.113.623-8.687 2.909-17.373 7.585-24.855 2.369-3.699 5.32-7.086 9.019-9.58 3.637-2.494 7.897-4.219 12.241-4.717 2.14-.52 4.343-.478 6.525-.582 1.102-.125 2.182.145 3.263.207 1.081.146 2.182.125 3.242.437 4.322.769 8.375 2.515 12.157 4.613 3.762 2.183 7.128 4.967 10.183 7.981 3.034 3.054 5.798 6.4 8.022 10.079-4.905-7.004-11.243-13.093-18.704-17.187-3.761-1.953-7.73-3.553-11.908-4.198-1.018-.291-2.098-.228-3.138-.353-1.059-.021-2.099-.27-3.138-.125-2.099.146-4.218.146-6.255.686-4.198.582-8.084 2.265-11.492 4.614-3.429 2.348-6.214 5.59-8.437 9.123-4.406 7.149-6.567 15.586-7.108 23.982-.228 4.198-.124 8.479.915 12.448.498 1.912 1.392 4.052 2.701 4.655.167.021.27.104.478.104.208-.021.416.021.624-.021.395-.062.769-.166 1.101-.415.686-.437 1.226-1.185 1.58-2.058.727-1.766.872-3.865.685-5.881a19.485 19.485 0 00-1.558-5.923c-1.642-3.74-4.551-6.962-8.334-8.541-3.761-1.6-8.167-1.725-12.053-.374-3.928 1.413-7.294 4.115-10.121 7.232-5.652 6.338-9.476 14.256-11.741 22.506zm-192.032 53.864c2.016-3.783 4.947-7.045 8.396-9.643 3.429-2.577 7.399-4.593 11.638-5.57 4.219-1.018 8.77-1.039 12.988.25 4.24 1.267 8.043 3.74 11.098 6.899 3.076 3.159 5.361 7.004 6.941 11.077 1.538 4.094 2.473 8.458 2.14 12.947-.228 2.203-.665 4.572-2.41 6.484-.873.935-2.203 1.558-3.492 1.579-1.246-.021-2.431-.208-3.574-.81-1.143-.582-2.057-1.621-2.577-2.744-.519-1.143-.727-2.327-.79-3.491-.083-2.327.416-4.53 1.102-6.65 1.392-4.219 3.678-8.001 6.359-11.451a45.704 45.704 0 019.414-9.04c7.045-5.112 16.002-7.959 24.751-6.816 4.322.582 8.603 1.829 12.386 4.032 3.824 2.119 7.128 5.091 9.809 8.458 2.701 3.387 4.8 7.211 6.4 11.18 1.621 3.969 2.806 8.126 3.388 12.365-1.746-8.333-5.175-16.417-10.62-22.86-2.701-3.221-5.964-5.985-9.663-7.938-3.658-2.016-7.772-3.117-11.908-3.574-8.313-.915-16.75 1.745-23.442 6.712-6.691 4.925-12.178 11.804-14.942 19.576-.644 1.933-1.101 3.97-1.039 5.923.042 1.933.728 3.803 2.286 4.593.728.415 1.725.582 2.598.602.852-.02 1.6-.353 2.182-.976 1.205-1.268 1.725-3.346 1.912-5.32.333-4.053-.519-8.251-1.974-12.137-1.476-3.886-3.658-7.523-6.484-10.557-2.826-3.034-6.38-5.403-10.308-6.692-3.927-1.309-8.229-1.413-12.323-.54-8.147 1.746-15.711 6.879-20.242 14.132zm-96.14-501.878c-.229-8.542-2.058-17.166-6.027-24.668-1.995-3.72-4.634-7.149-8.105-9.456-3.47-2.244-7.772-3.179-11.804-2.514-4.052.644-7.648 3.075-10.141 6.317a19.264 19.264 0 00-2.931 5.362c-.665 1.912-1.039 3.99-.748 5.881.146.935.478 1.808 1.039 2.39.271.312.603.499.977.665.166.104.395.104.603.166.208.042.332-.021.499 0 1.413-.27 2.805-2.14 3.74-3.865 1.975-3.616 3.097-7.752 3.866-11.887 1.475-8.271 1.392-16.979-1.185-24.98-1.309-3.969-3.242-7.751-6.027-10.868-2.764-3.097-6.13-5.653-10.058-7.232-1.849-1.019-3.907-1.518-5.902-2.162-.997-.395-2.057-.395-3.096-.623-1.039-.146-2.078-.437-3.118-.416-4.218-.374-8.458.25-12.552 1.247-8.208 2.182-15.814 6.588-22.257 12.22 3.034-3.055 6.505-5.632 10.183-7.877 3.699-2.202 7.627-4.114 11.804-5.32 4.177-1.122 8.541-1.849 12.906-1.558 1.101-.063 2.161.228 3.262.353 1.081.208 2.182.208 3.221.582 2.099.623 4.261 1.101 6.214 2.12 4.094 1.517 7.835 4.218 10.765 7.502 2.993 3.283 5.05 7.294 6.463 11.45 2.764 8.375 2.91 17.374 1.434 25.957-.831 4.281-2.016 8.541-4.177 12.469a16.785 16.785 0 01-1.954 2.826c-.81.831-1.766 1.746-3.262 1.995a4.1 4.1 0 01-2.058-.312 4.523 4.523 0 01-1.662-1.122c-.935-.977-1.351-2.224-1.538-3.408-.332-2.369.145-4.655.873-6.775a20.974 20.974 0 013.242-5.86c2.722-3.533 6.816-6.193 11.305-6.775 4.447-.624 9.102.499 12.76 3.013 3.657 2.556 6.338 6.193 8.271 10.058 1.933 3.907 3.2 8.064 4.052 12.303.873 4.198 1.268 8.521 1.123 12.802zM645.051 309.81c-8.375-1.767-17.165-2.016-25.395.104-4.073 1.08-8.042 2.847-11.076 5.673-2.993 2.847-4.905 6.817-5.196 10.89-.332 4.073 1.205 8.146 3.782 11.326a18.906 18.906 0 004.531 4.094c1.704 1.08 3.637 1.932 5.528 2.099.935.083 1.87-.063 2.556-.458.353-.187.623-.478.873-.789.124-.146.187-.354.291-.541.083-.187.062-.332.124-.478.063-1.434-1.434-3.221-2.888-4.551-3.055-2.764-6.817-4.821-10.641-6.525-7.71-3.367-16.188-5.32-24.563-4.676-4.157.353-8.292 1.351-11.971 3.325-3.657 1.953-6.941 4.634-9.372 8.105-1.434 1.558-2.39 3.45-3.491 5.237-.603.873-.873 1.912-1.33 2.847-.375.977-.915 1.912-1.123 2.951-1.33 4.011-1.745 8.271-1.725 12.51.208 8.5 2.702 16.917 6.692 24.502-2.244-3.658-3.948-7.648-5.278-11.742-1.289-4.115-2.224-8.375-2.432-12.718-.125-4.323.187-8.728 1.496-12.926.208-1.081.728-2.058 1.102-3.076.457-.997.706-2.078 1.309-2.992 1.102-1.892 2.057-3.887 3.512-5.549 2.432-3.637 5.923-6.629 9.809-8.708 3.907-2.14 8.271-3.2 12.656-3.616 8.791-.727 17.561 1.226 25.561 4.655 3.97 1.808 7.835 3.949 11.16 6.983.831.748 1.6 1.6 2.286 2.556.624.998 1.289 2.12 1.185 3.637a4.51 4.51 0 01-.769 1.933c-.395.54-.894 1.039-1.496 1.35-1.185.665-2.494.79-3.658.686-2.39-.228-4.489-1.226-6.38-2.431-1.87-1.247-3.554-2.764-4.946-4.531-2.806-3.47-4.426-8.063-3.948-12.572.436-4.489 2.618-8.729 5.901-11.721 3.346-2.972 7.503-4.718 11.721-5.694 4.24-.977 8.604-1.227 12.906-1.06 4.26.104 8.541.727 12.697 1.891zM516.408 175.351c-1.413-4.925-1.621-10.183-.81-15.275.789-5.091 2.514-10.079 5.34-14.464 2.764-4.385 6.651-8.188 11.326-10.598 4.656-2.432 9.976-3.492 15.213-3.325 5.257.145 10.411 1.496 15.149 3.657 4.739 2.203 9.165 5.175 12.615 9.248 1.642 2.057 3.221 4.447 3.325 7.461.041 1.475-.561 3.075-1.621 4.156-1.06 1.018-2.203 1.829-3.658 2.244-1.434.437-3.013.333-4.385-.187-1.371-.519-2.514-1.371-3.532-2.306-1.996-1.891-3.409-4.198-4.572-6.567-2.307-4.759-3.533-9.892-4.115-15.067a55.02 55.02 0 01.478-15.565c1.745-10.246 7.024-20.138 15.42-26.455 4.177-3.118 8.853-5.632 13.923-6.92 5.03-1.372 10.329-1.622 15.441-.998 5.133.644 10.121 2.12 14.838 4.156 4.718 2.037 9.227 4.572 13.28 7.69-8.438-5.716-18.143-9.81-28.243-10.807-5.029-.52-10.141-.166-14.962 1.247-4.863 1.33-9.31 3.844-13.259 6.92-3.907 3.138-7.232 6.983-9.663 11.347-2.453 4.364-4.053 9.185-4.905 14.131-1.621 9.872-.582 20.366 3.595 29.406 1.081 2.224 2.39 4.364 4.115 6.006 1.683 1.642 3.907 2.723 5.985 2.058 1.019-.271 2.037-.977 2.806-1.705a3.853 3.853 0 001.101-2.805c-.021-2.182-1.351-4.406-2.868-6.276-3.138-3.782-7.398-6.692-11.908-8.791-4.53-2.099-9.476-3.387-14.464-3.616-4.987-.228-10.037.728-14.484 2.951-4.468 2.182-8.271 5.715-11.035 9.913-5.57 8.375-7.731 19.14-5.466 29.136z" fill="#213030"/><path d="M275.323 703.719c-4.655-1.476-9.622 1.122-11.077 5.777-1.475 4.655 1.122 9.622 5.778 11.076 4.655 1.476 9.601-1.122 11.076-5.777 1.455-4.655-1.122-9.622-5.777-11.076zm4.738 10.744c-1.288 4.094-5.653 6.359-9.726 5.07-4.094-1.288-6.359-5.652-5.07-9.725 1.288-4.094 5.652-6.36 9.725-5.071 4.094 1.288 6.36 5.652 5.071 9.726zm-4.738-10.744c-4.655-1.476-9.622 1.122-11.077 5.777-1.475 4.655 1.122 9.622 5.778 11.076 4.655 1.476 9.601-1.122 11.076-5.777 1.455-4.655-1.122-9.622-5.777-11.076zm4.738 10.744c-1.288 4.094-5.653 6.359-9.726 5.07-4.094-1.288-6.359-5.652-5.07-9.725 1.288-4.094 5.652-6.36 9.725-5.071 4.094 1.288 6.36 5.652 5.071 9.726zm-4.738-10.744c-4.655-1.476-9.622 1.122-11.077 5.777-1.475 4.655 1.122 9.622 5.778 11.076 4.655 1.476 9.601-1.122 11.076-5.777 1.455-4.655-1.122-9.622-5.777-11.076zm4.738 10.744c-1.288 4.094-5.653 6.359-9.726 5.07-4.094-1.288-6.359-5.652-5.07-9.725 1.288-4.094 5.652-6.36 9.725-5.071 4.094 1.288 6.36 5.652 5.071 9.726zm-1.787-20.096c-9.809-3.097-20.283 2.369-23.359 12.157-3.096 9.809 2.349 20.262 12.178 23.359 9.809 3.096 20.262-2.37 23.359-12.179 3.076-9.767-2.369-20.241-12.178-23.337zm4.135 20.844c-1.683 5.382-7.439 8.375-12.801 6.671-5.362-1.684-8.354-7.44-6.671-12.802 1.683-5.382 7.44-8.354 12.802-6.671 5.361 1.684 8.354 7.44 6.67 12.802zm-1.309-.416c1.476-4.655-1.122-9.622-5.756-11.076-4.655-1.476-9.622 1.122-11.077 5.777-1.475 4.655 1.122 9.622 5.777 11.076 4.614 1.455 9.581-1.122 11.056-5.777zm-1.039-.332c-1.288 4.094-5.653 6.359-9.726 5.07-4.094-1.288-6.359-5.652-5.07-9.725 1.288-4.094 5.652-6.36 9.725-5.071 4.094 1.288 6.36 5.652 5.071 9.726zm-4.738-10.744c-4.655-1.476-9.622 1.122-11.077 5.777-1.475 4.655 1.122 9.622 5.778 11.076 4.655 1.476 9.601-1.122 11.076-5.777 1.455-4.655-1.122-9.622-5.777-11.076zm4.738 10.744c-1.288 4.094-5.653 6.359-9.726 5.07-4.094-1.288-6.359-5.652-5.07-9.725 1.288-4.094 5.652-6.36 9.725-5.071 4.094 1.288 6.36 5.652 5.071 9.726zm-4.738-10.744c-4.655-1.476-9.622 1.122-11.077 5.777-1.475 4.655 1.122 9.622 5.778 11.076 4.655 1.476 9.601-1.122 11.076-5.777 1.455-4.655-1.122-9.622-5.777-11.076zm4.738 10.744c-1.288 4.094-5.653 6.359-9.726 5.07-4.094-1.288-6.359-5.652-5.07-9.725 1.288-4.094 5.652-6.36 9.725-5.071 4.094 1.288 6.36 5.652 5.071 9.726z" fill="#005D62"/><path d="M270.707 730.234l-6.817-2.14-1.163 4.946 6.089 1.912 1.891-4.718zm-12.26-6.383l-3.325-6.359-4.302 2.681 2.931 5.653 4.696-1.975zm-4.159-13.215l2.14-6.837-4.946-1.143-1.912 6.089 4.718 1.891zm6.374-12.28l6.359-3.304-2.681-4.302-5.652 2.93 1.974 4.676zm13.221-4.159l6.837 2.161 1.143-4.946-6.089-1.912-1.891 4.697zm12.289 6.402l3.304 6.359 4.302-2.701-2.93-5.632-4.676 1.974zm4.161 13.217l-2.161 6.817 4.946 1.164 1.912-6.089-4.697-1.892zm-6.411 12.258l-6.36 3.325 2.702 4.302 5.632-2.93-1.974-4.697z" fill="#005D62"/><path d="M619.908 644.328c9.373-12.614 6.734-30.445-5.901-39.817-12.636-9.373-30.466-6.734-39.818 5.881-9.373 12.635-6.733 30.466 5.902 39.838 12.614 9.373 30.445 6.733 39.817-5.902zm-12.178-9.04c-4.384 5.902-12.697 7.128-18.599 2.764a13.28 13.28 0 01-2.743-18.599 13.281 13.281 0 0118.599-2.744c5.881 4.365 7.108 12.698 2.743 18.579z" fill="#213030"/><path d="M585.176 652.557l-8.79-6.526-4.136 6.567 7.814 5.819 5.112-5.86zm-14.522-15.402l-1.621-10.827-7.564 1.746 1.413 9.622 7.772-.541zm.581-21.131l6.526-8.791-6.588-4.135-5.798 7.814 5.86 5.112zm15.378-14.547l10.827-1.6-1.724-7.565-9.622 1.414.519 7.751zm21.16.602l8.791 6.526 4.136-6.588-7.814-5.798-5.113 5.86zm14.555 15.383l1.6 10.827 7.565-1.724-1.413-9.643-7.752.54zm-.615 21.151l-6.525 8.791 6.587 4.135 5.798-7.813-5.86-5.113zm-15.378 14.528l-10.827 1.6 1.725 7.585 9.622-1.434-.52-7.751zm-19.491-24.401l6.047 7.626 9.622-1.434 3.574-9.04-6.047-7.626-9.622 1.413-3.574 9.061zm11.471-3.907a3.087 3.087 0 01.644 4.322 3.087 3.087 0 01-4.322.644 3.087 3.087 0 01-.644-4.322 3.087 3.087 0 014.322-.644zm42.978-534.831c-4.073-1.288-8.416.977-9.705 5.05-1.288 4.073.977 8.417 5.05 9.705 4.073 1.289 8.417-.977 9.684-5.05 1.309-4.094-.956-8.437-5.029-9.705zm4.156 9.414c-1.122 3.575-4.946 5.57-8.52 4.447-3.574-1.122-5.569-4.945-4.427-8.52 1.123-3.574 4.947-5.57 8.521-4.426 3.554 1.101 5.549 4.925 4.426 8.5zm-4.156-9.414c-4.073-1.288-8.416.977-9.705 5.05-1.288 4.073.977 8.417 5.05 9.705 4.073 1.289 8.417-.977 9.684-5.05 1.309-4.094-.956-8.437-5.029-9.705zm4.156 9.414c-1.122 3.575-4.946 5.57-8.52 4.447-3.574-1.122-5.569-4.945-4.427-8.52 1.123-3.574 4.947-5.57 8.521-4.426 3.554 1.101 5.549 4.925 4.426 8.5zm-4.156-9.414c-4.073-1.288-8.416.977-9.705 5.05-1.288 4.073.977 8.417 5.05 9.705 4.073 1.289 8.417-.977 9.684-5.05 1.309-4.094-.956-8.437-5.029-9.705zm4.156 9.414c-1.122 3.575-4.946 5.57-8.52 4.447-3.574-1.122-5.569-4.945-4.427-8.52 1.123-3.574 4.947-5.57 8.521-4.426 3.554 1.101 5.549 4.925 4.426 8.5zm-1.579-17.581c-8.583-2.702-17.747 2.057-20.449 10.64-2.702 8.583 2.057 17.748 10.64 20.449 8.583 2.702 17.727-2.057 20.449-10.64 2.702-8.604-2.057-17.747-10.64-20.449zm3.616 18.225c-1.475 4.697-6.505 7.316-11.201 5.84-4.697-1.475-7.315-6.505-5.84-11.201 1.476-4.697 6.505-7.315 11.201-5.84 4.697 1.476 7.315 6.505 5.84 11.201zm-1.143-.374c1.289-4.073-.977-8.416-5.05-9.705-4.073-1.288-8.416.977-9.705 5.05-1.288 4.073.977 8.417 5.05 9.705 4.073 1.289 8.417-.976 9.705-5.05zm-.894-.27c-1.122 3.575-4.946 5.57-8.52 4.447-3.574-1.122-5.569-4.945-4.427-8.52 1.123-3.574 4.947-5.57 8.521-4.426 3.554 1.101 5.549 4.925 4.426 8.5zm-4.156-9.414c-4.073-1.288-8.416.977-9.705 5.05-1.288 4.073.977 8.417 5.05 9.705 4.073 1.289 8.417-.977 9.684-5.05 1.309-4.094-.956-8.437-5.029-9.705zm4.156 9.414c-1.122 3.575-4.946 5.57-8.52 4.447-3.574-1.122-5.569-4.945-4.427-8.52 1.123-3.574 4.947-5.57 8.521-4.426 3.554 1.101 5.549 4.925 4.426 8.5zm-4.156-9.414c-4.073-1.288-8.416.977-9.705 5.05-1.288 4.073.977 8.417 5.05 9.705 4.073 1.289 8.417-.977 9.684-5.05 1.309-4.094-.956-8.437-5.029-9.705zm4.156 9.414c-1.122 3.575-4.946 5.57-8.52 4.447-3.574-1.122-5.569-4.945-4.427-8.52 1.123-3.574 4.947-5.57 8.521-4.426 3.554 1.101 5.549 4.925 4.426 8.5z" fill="#213030"/><path d="M637.272 113.219l-5.985-1.891-.998 4.343 5.32 1.663 1.663-4.115zm-10.734-5.612l-2.889-5.548-3.782 2.348 2.577 4.946 4.094-1.746zm-3.645-11.555l1.891-5.965-4.343-.997-1.683 5.3 4.135 1.662zm5.59-10.746l5.569-2.888-2.369-3.762-4.925 2.556 1.725 4.094zm11.564-3.636l5.985 1.89.998-4.343-5.321-1.662-1.662 4.114zm10.726 5.61l2.91 5.55 3.761-2.349-2.577-4.946-4.094 1.746zm3.644 11.556l-1.87 5.964 4.322 1.019 1.684-5.321-4.136-1.662zm-5.59 10.742l-5.569 2.889 2.369 3.782 4.946-2.577-1.746-4.094zm-87.01 277.307c-4.074-1.288-8.417.977-9.705 5.05-1.289 4.073.976 8.416 5.049 9.705 4.074 1.288 8.417-.977 9.685-5.05 1.309-4.073-.956-8.417-5.029-9.705zm4.156 9.414c-1.122 3.574-4.946 5.569-8.521 4.447-3.574-1.122-5.569-4.946-4.426-8.52 1.122-3.575 4.946-5.57 8.52-4.427 3.575 1.123 5.549 4.926 4.427 8.5zm-4.156-9.414c-4.074-1.288-8.417.977-9.705 5.05-1.289 4.073.976 8.416 5.049 9.705 4.074 1.288 8.417-.977 9.685-5.05 1.309-4.073-.956-8.417-5.029-9.705zm4.156 9.414c-1.122 3.574-4.946 5.569-8.521 4.447-3.574-1.122-5.569-4.946-4.426-8.52 1.122-3.575 4.946-5.57 8.52-4.427 3.575 1.123 5.549 4.926 4.427 8.5zm-4.156-9.414c-4.074-1.288-8.417.977-9.705 5.05-1.289 4.073.976 8.416 5.049 9.705 4.074 1.288 8.417-.977 9.685-5.05 1.309-4.073-.956-8.417-5.029-9.705zm4.156 9.414c-1.122 3.574-4.946 5.569-8.521 4.447-3.574-1.122-5.569-4.946-4.426-8.52 1.122-3.575 4.946-5.57 8.52-4.427 3.575 1.123 5.549 4.926 4.427 8.5zm-1.58-17.581c-8.582-2.702-17.747 2.057-20.449 10.64-2.701 8.583 2.058 17.747 10.641 20.449 8.582 2.702 17.726-2.057 20.449-10.64 2.722-8.583-2.058-17.748-10.641-20.449zm3.616 18.225c-1.475 4.697-6.504 7.315-11.201 5.84-4.696-1.476-7.315-6.505-5.839-11.201 1.475-4.697 6.504-7.316 11.201-5.84 4.717 1.475 7.336 6.505 5.839 11.201zm-1.143-.353c1.289-4.073-.976-8.417-5.049-9.705-4.074-1.288-8.417.977-9.705 5.05-1.289 4.073.976 8.416 5.049 9.705a7.728 7.728 0 009.705-5.05zm-.893-.291c-1.122 3.574-4.946 5.569-8.521 4.447-3.574-1.122-5.569-4.946-4.426-8.52 1.122-3.575 4.946-5.57 8.52-4.427 3.575 1.123 5.549 4.926 4.427 8.5zm-4.156-9.414c-4.074-1.288-8.417.977-9.705 5.05-1.289 4.073.976 8.416 5.049 9.705 4.074 1.288 8.417-.977 9.685-5.05 1.309-4.073-.956-8.417-5.029-9.705zm4.156 9.414c-1.122 3.574-4.946 5.569-8.521 4.447-3.574-1.122-5.569-4.946-4.426-8.52 1.122-3.575 4.946-5.57 8.52-4.427 3.575 1.123 5.549 4.926 4.427 8.5zm-4.156-9.414c-4.074-1.288-8.417.977-9.705 5.05-1.289 4.073.976 8.416 5.049 9.705 4.074 1.288 8.417-.977 9.685-5.05 1.309-4.073-.956-8.417-5.029-9.705zm4.156 9.414c-1.122 3.574-4.946 5.569-8.521 4.447-3.574-1.122-5.569-4.946-4.426-8.52 1.122-3.575 4.946-5.57 8.52-4.427 3.575 1.123 5.549 4.926 4.427 8.5z" fill="#213030"/><path d="M557.795 410.097l-5.964-1.87-1.019 4.322 5.321 1.683 1.662-4.135zm-10.739-5.586l-2.888-5.57-3.762 2.37 2.556 4.946 4.094-1.746zm-3.644-11.556l1.891-5.985-4.344-.997-1.662 5.32 4.115 1.662zm5.615-10.745l5.549-2.889-2.349-3.782-4.946 2.577 1.746 4.094zm11.559-3.637l5.964 1.891 1.019-4.343-5.321-1.683-1.662 4.135zm10.726 5.589l2.889 5.57 3.782-2.369-2.577-4.925-4.094 1.724zm3.649 11.557l-1.891 5.985 4.344.997 1.662-5.32-4.115-1.662zm-5.615 10.742l-5.549 2.909 2.348 3.762 4.946-2.577-1.745-4.094zM107.332 153.154c3.201-13.154-4.863-26.413-18.017-29.613C76.16 120.34 62.9 128.404 59.7 141.558c-3.2 13.155 4.863 26.414 18.018 29.614 13.133 3.2 26.413-4.863 29.613-18.018zm-12.697-3.096c-1.497 6.151-7.69 9.913-13.82 8.417-6.151-1.497-9.913-7.69-8.417-13.841 1.497-6.151 7.69-9.913 13.84-8.417 6.132 1.517 9.893 7.69 8.397 13.841z" fill="#213030"/><path d="M82.53 171.294l-9.145-2.224-1.08 6.588 8.146 1.995 2.078-6.359zm-16.678-7.33l-4.905-8.042-5.424 3.907 4.344 7.149 5.985-3.014zm-6.602-16.982l2.223-9.164-6.608-1.06-1.974 8.146 6.359 2.078zm7.331-16.685l8.043-4.883-3.907-5.445-7.17 4.364 3.034 5.964zm16.982-6.61l9.143 2.245 1.081-6.609-8.146-1.995-2.079 6.359zm16.656 7.334l4.904 8.063 5.424-3.927-4.343-7.149-5.985 3.013zM106.841 148l-2.224 9.165 6.609 1.08 1.974-8.146-6.359-2.099zm-7.338 16.688l-8.042 4.904 3.907 5.424 7.17-4.364-3.035-5.964zm-23.626-12.84l7.357 4.032 7.17-4.364-.188-8.375-7.335-4.032-7.17 4.344.166 8.395zm7.793-6.941c1.434.354 2.307 1.788 1.954 3.201s-1.787 2.307-3.2 1.953c-1.414-.353-2.307-1.787-1.954-3.2.332-1.413 1.787-2.286 3.2-1.954z" fill="#213030"/></g><defs><clipPath id="clip0_360_5914"><path fill="#fff" d="M0 0h858.799v887H0z"/></clipPath></defs></svg>