<svg width="424" height="404" fill="none" xmlns="http://www.w3.org/2000/svg"><path d="M226.866 4.413c-1.369 2.485-3.702 6.492-5.173 9.028a409.23 409.23 0 00-3.956 6.847c-.71 1.268-2.688 4.666-4.464 7.607-1.724 2.942-4.108 7.05-5.325 9.13-1.217 2.08-3.601 6.188-5.326 9.13-1.724 2.941-3.753 6.44-4.514 7.86-1.318 2.537-3.601 6.442-7.962 13.796-4.007 6.797-8.065 13.897-8.065 14.15 0 .153-.405.863-.963 1.624-.508.76-2.232 3.652-3.804 6.441-1.623 2.79-3.297 5.731-3.804 6.594-.507.811-2.13 3.702-3.601 6.34-1.471 2.637-4.717 8.165-7.202 12.324-2.435 4.109-5.072 8.673-5.782 10.144-.71 1.42-1.623 2.993-2.029 3.449-.406.406-2.232 3.5-4.058 6.847-4.26 7.557-6.644 11.767-8.977 15.672a187.703 187.703 0 00-3.5 6.087 899.341 899.341 0 01-5.477 9.383c-2.029 3.499-5.072 8.723-6.746 11.665-4.362 7.659-6.441 11.26-9.738 16.991a589.945 589.945 0 00-4.767 8.368c-.964 1.826-2.181 3.754-2.689 4.261-.507.558-.912 1.166-.912 1.369 0 .457-5.478 10.144-6.29 11.108-.355.406-1.471 2.231-2.434 4.057-.964 1.826-2.638 4.768-3.703 6.594a369.534 369.534 0 01-2.89 5.072 905.148 905.148 0 01-5.123 8.875c-.507.812-1.674 2.993-2.688 4.819-.964 1.826-2.79 4.869-4.007 6.847-1.268 1.927-2.993 4.818-3.804 6.34-.862 1.521-2.536 4.514-3.804 6.593a749.985 749.985 0 00-4.159 7.253c-2.79 5.021-3.246 5.833-5.376 9.282-1.015 1.724-1.877 3.296-1.877 3.499 0 .203-.913 1.826-2.029 3.601-1.115 1.775-2.028 3.297-2.028 3.449 0 .203-7.405 12.68-9.079 15.267-.558.811-1.623 2.637-2.333 4.057-.71 1.37-2.232 4.007-3.348 5.833-1.065 1.826-2.79 4.767-3.803 6.593-2.79 5.072-3.804 6.847-20.643 35.757-1.978 3.348-5.427 9.383-7.71 13.441-2.282 4.057-5.68 9.991-7.557 13.136C.66 395.71 0 397.231 0 399.007v2.181l36.365-.102 36.366-.152 1.674-2.79c.913-1.521 2.029-3.55 2.434-4.463.457-.964 1.978-3.601 3.398-5.833a159.501 159.501 0 004.464-7.455c.963-1.826 2.282-4.058 2.79-4.971 1.825-2.992 8.57-14.708 10.853-18.715 3.703-6.644 5.731-10.144 12.021-20.795 3.347-5.63 7.405-12.68 9.078-15.621 6.695-11.767 7.608-13.39 10.651-18.513 1.725-2.941 3.652-6.238 4.261-7.354.608-1.116 2.231-3.855 3.601-6.086a241.515 241.515 0 004.311-7.355c2.282-4.26 3.195-5.832 5.122-8.875.863-1.421 2.689-4.616 4.007-7.101 1.37-2.536 3.906-7.101 5.732-10.144 1.775-3.094 4.158-7.202 5.325-9.129a529.574 529.574 0 014.413-7.608c7.506-12.832 9.028-15.419 10.093-17.498.659-1.268 1.42-2.536 1.623-2.84.253-.305 1.115-1.776 1.927-3.297.811-1.522 2.13-3.906 2.992-5.275.863-1.42 2.283-3.804 3.196-5.326.862-1.521 1.876-2.941 2.181-3.144.304-.203 35.554-.304 78.31-.254 70.804.102 77.853.051 78.259-.71.457-.862-1.268-4.717-4.209-9.332-1.573-2.536-3.957-6.644-7.456-12.933-1.015-1.826-2.333-4.058-2.84-5.022-.558-.913-1.877-3.195-2.993-5.071-1.065-1.826-2.434-4.159-3.094-5.123-.963-1.522-8.419-14.506-13.846-24.092a186.878 186.878 0 00-3.5-6.086c-.963-1.674-2.738-4.768-3.956-6.847a246.156 246.156 0 00-4.717-7.963c-1.42-2.333-2.992-5.072-3.448-6.086-.508-1.065-1.37-2.638-1.978-3.449-.609-.862-1.826-2.891-2.739-4.565-.913-1.674-2.181-3.956-2.841-5.072a305.66 305.66 0 00-3.144-5.579c-1.065-1.978-2.536-4.463-3.246-5.579-.71-1.116-1.572-2.739-1.927-3.652-.356-.913-.964-1.876-1.37-2.231-.355-.305-1.268-1.826-1.927-3.348-.71-1.521-1.775-3.347-2.384-4.108-.964-1.268-3.246-5.123-7.557-12.73-.964-1.725-3.297-5.732-5.173-8.927-1.928-3.195-3.449-5.934-3.449-6.086 0-.152-.761-1.471-1.674-2.942-.913-1.47-1.826-3.094-2.029-3.601-.304-.812-6.238-11.006-10.347-17.802-.71-1.116-2.282-3.855-3.55-6.087a1836.37 1836.37 0 01-5.325-9.078c-1.623-2.74-2.942-5.326-2.942-5.68 0-.407-.507-.711-1.217-.711-.964 0-1.674.811-3.703 4.413zm5.021 121.421c.203.406 1.573 2.637 2.993 5.021 1.471 2.384 3.043 4.971 3.499 5.833.508.811 2.536 4.159 4.514 7.354 1.978 3.195 4.159 6.898 4.819 8.166.659 1.268 1.623 2.586 2.028 2.942.457.405.812 1.014.812 1.369 0 .609-3.297.71-19.527.71-13.542 0-19.527-.152-19.527-.558 0-.304.71-1.521 1.522-2.739.862-1.217 1.521-2.333 1.521-2.536 0-.152 1.218-2.181 2.689-4.463 3.905-5.934 5.629-8.774 10.498-17.092 1.421-2.384 2.536-4.514 2.536-4.717 0-.66 1.116-.152 1.623.71z" fill="#03006D"/><path d="M278.803 214.387c-.254.203-2.739.558-5.579.761-4.818.355-7.05.659-14.049 1.877-1.522.253-3.804.608-5.072.811-1.268.203-3.5.812-4.971 1.319-1.47.507-3.347.963-4.158.963-.812 0-1.624.203-1.776.508-.152.253-.71.507-1.166.507-1.319 0-13.644 4.007-16.585 5.325-1.37.66-3.804 1.674-5.326 2.283-4.615 1.826-14.658 7.252-20.034 10.904-2.789 1.877-5.173 3.551-5.325 3.753-.152.203-2.08 1.674-4.311 3.348-4.616 3.398-15.165 13.491-16.231 15.571-.405.71-1.014 1.623-1.42 2.028-.355.355-1.775 2.435-3.144 4.616-1.42 2.181-3.5 5.477-4.616 7.253-1.166 1.826-2.383 4.006-2.739 4.919-.304.913-.912 2.384-1.318 3.297-.406.913-.71 1.978-.71 2.435 0 .405-.355 1.318-.812 1.978-.456.659-.71 1.876-.659 2.688.101.811-.051 1.826-.406 2.181-1.014 1.318-1.319 4.717-1.319 15.418-.05 10.093.153 12.325 1.167 14.709.254.558.558 1.826.659 2.789.305 2.131 2.993 9.586 4.464 12.427 1.166 2.13 5.274 9.129 6.542 11.107 3.551 5.478 14.303 16.788 20.136 21.201a453.747 453.747 0 004.666 3.55c6.746 5.122 22.215 13.694 29.468 16.382 11.31 4.159 20.287 7.05 24.091 7.659.862.152 1.978.456 2.536.71.558.253 1.826.558 2.79.71.963.152 3.144.507 4.818.862 1.674.355 4.311.659 5.883.659 1.573.051 3.196.355 3.652.71.457.406 2.232.66 4.514.711 2.029.05 10.347.152 18.411.253 14.404.152 25.613-.304 32.207-1.369 1.826-.254 4.514-.66 5.985-.812 1.47-.203 2.789-.507 2.941-.761.153-.253 1.015-.456 1.877-.456.913 0 2.942-.457 4.565-1.014 1.572-.558 3.398-1.015 4.057-1.015.66 0 1.623-.355 2.181-.761.507-.405 1.471-.76 2.029-.76.608 0 2.891-.609 5.072-1.319 2.231-.71 4.362-1.369 4.767-1.471.406-.101 2.486-.862 4.565-1.775 2.08-.862 4.616-1.877 5.579-2.232 2.942-1.116 13.846-6.847 18.766-9.89 8.825-5.427 20.947-15.926 26.831-23.128 3.499-4.311 9.18-12.527 10.651-15.368 1.268-2.485 1.42-6.948.304-8.165-.406-.457-2.232-3.906-4.058-7.659-1.876-3.753-3.804-7.304-4.311-7.861-.456-.558-1.116-1.725-1.369-2.536-.913-2.891-3.703-2.029-3.703 1.217 0 3.144-3.55 11.767-6.847 16.534-2.789 4.058-11.462 13.136-15.215 15.926-4.413 3.297-13.035 8.217-17.499 10.042-8.875 3.601-19.374 6.695-24.091 7.101-1.369.101-2.992.406-3.55.659-2.587 1.167-24.599 1.573-32.207.609-8.267-1.065-13.998-2.13-15.064-2.79-.253-.152-1.267-.456-2.231-.608-3.855-.659-10.245-3.145-17.955-6.949-9.231-4.564-12.02-6.187-14.201-8.115-.812-.71-2.942-2.485-4.717-3.956-1.724-1.42-4.108-3.753-5.224-5.224-1.116-1.471-2.485-3.144-3.043-3.753-2.891-3.449-7.405-12.426-7.912-15.774-.152-.913-.457-1.775-.71-1.927-.254-.152-.457-1.826-.457-3.804 0-1.927-.253-3.956-.608-4.463-.457-.761-.457-1.268 0-2.333.355-.71.608-2.435.608-3.804 0-1.37.203-2.993.457-3.652.253-.659.71-2.282 1.014-3.652.71-2.891 4.616-10.904 6.543-13.39 3.297-4.209 11.361-12.172 15.317-15.114 2.536-1.927 7.405-4.767 11.919-6.948 6.593-3.246 10.448-4.666 22.874-8.521.862-.254 2.587-.457 3.804-.457 1.268 0 2.485-.202 2.79-.456.811-.812 6.238-1.167 18.969-1.217 12.984 0 13.795.05 24.091 2.637 1.116.304 2.739.659 3.55.812.863.202 1.979.507 2.536.76.558.254 2.841.913 5.072 1.522 4.311 1.166 7.811 2.333 16.738 5.68 6.441 2.384 8.875 2.891 8.875 1.877 0-.406-.811-2.079-1.825-3.753-3.246-5.275-7.101-12.071-9.028-15.723-1.015-1.978-2.993-5.478-4.362-7.861-1.42-2.384-3.145-5.478-3.804-6.898-1.217-2.486-1.37-2.587-5.326-3.956-2.231-.812-4.209-1.623-4.362-1.877-.152-.254-.862-.456-1.623-.456-.76 0-2.637-.457-4.159-1.066-1.521-.557-5.071-1.623-7.861-2.333-4.92-1.268-7.05-1.724-13.035-2.688-1.623-.304-4.362-.761-6.086-1.065-1.775-.253-5.478-.761-8.267-1.014-6.34-.66-34.388-1.116-34.895-.609z" fill="#03006D"/></svg>