<svg width="793" height="695" fill="none" xmlns="http://www.w3.org/2000/svg"><path d="M369.023 15.602c12.01-20.802 42.035-20.802 54.044 0l364.796 631.845c12.01 20.802-3.002 46.803-27.021 46.803H31.249c-24.02 0-39.031-26.001-27.021-46.803L369.023 15.602zm21.408 528.323c-13.105 0-23.964 4.306-32.576 12.918-8.611 8.237-12.917 18.346-12.917 30.328s4.306 22.279 12.917 30.891c8.612 8.611 19.471 12.917 32.576 12.917s23.776-4.306 32.013-12.917c8.238-8.612 12.357-18.909 12.357-30.891s-4.119-22.091-12.357-30.328c-8.237-8.612-18.908-12.918-32.013-12.918zm-41.562-310.026l13.48 262.848h55.602l14.041-262.848h-83.123z" fill="#fff"/></svg>