<svg width="370" height="307" fill="none" xmlns="http://www.w3.org/2000/svg"><mask id="a" fill="#fff"><path fill-rule="evenodd" clip-rule="evenodd" d="M0 10C0 4.477 4.477 0 10 0h350c5.523 0 10 4.477 10 10v217.791a15.268 15.268 0 00-.214-.002c-6.297 0-11.401 5.105-11.401 11.401 0 6.297 5.104 11.401 11.401 11.401.071 0 .143 0 .214-.002V297c0 5.523-4.477 10-10 10H10c-5.523 0-10-4.477-10-10v-46.411c6.198-.114 11.187-5.174 11.187-11.399 0-6.225-4.99-11.285-11.187-11.399V10z"/></mask><path fill-rule="evenodd" clip-rule="evenodd" d="M0 10C0 4.477 4.477 0 10 0h350c5.523 0 10 4.477 10 10v217.791a15.268 15.268 0 00-.214-.002c-6.297 0-11.401 5.105-11.401 11.401 0 6.297 5.104 11.401 11.401 11.401.071 0 .143 0 .214-.002V297c0 5.523-4.477 10-10 10H10c-5.523 0-10-4.477-10-10v-46.411c6.198-.114 11.187-5.174 11.187-11.399 0-6.225-4.99-11.285-11.187-11.399V10z" fill="#fff"/><path d="M370 227.791l-.037 2 2.037.037v-2.037h-2zm0 22.798h2v-2.037l-2.037.038.037 1.999zm-370 0l-.037-1.999-1.963.036v1.963h2zm0-22.798h-2v1.964l1.963.036.037-2zM10-2C3.373-2-2 3.373-2 10h4a8 8 0 018-8v-4zm350 0H10v4h350v-4zm12 12c0-6.627-5.373-12-12-12v4a8 8 0 018 8h4zm0 217.791V10h-4v217.791h4zm-2.214 1.998l.177.002.074-4-.251-.002v4zm-9.401 9.401a9.401 9.401 0 019.401-9.401v-4c-7.401 0-13.401 6-13.401 13.401h4zm9.401 9.401a9.401 9.401 0 01-9.401-9.401h-4c0 7.401 6 13.401 13.401 13.401v-4zm.177-.001l-.177.001v4c.084 0 .167 0 .251-.002l-.074-3.999zM372 297v-46.411h-4V297h4zm-12 12c6.627 0 12-5.373 12-12h-4a8 8 0 01-8 8v4zm-350 0h350v-4H10v4zm-12-12c0 6.627 5.373 12 12 12v-4a8 8 0 01-8-8h-4zm0-46.411V297h4v-46.411h-4zM9.187 239.19c0 5.133-4.114 9.306-9.224 9.4l.074 3.999c7.286-.134 13.15-6.081 13.15-13.399h-4zm-9.224-9.399a9.4 9.4 0 019.224 9.399h4c0-7.317-5.864-13.264-13.15-13.399l-.074 4zM-2 10v217.791h4V10h-4z" fill="url(#paint0_linear_581_7855)" mask="url(#a)"/><defs><linearGradient id="paint0_linear_581_7855" x1="185" y1=".361" x2="185" y2="360.896" gradientUnits="userSpaceOnUse"><stop stop-color="#2B2826"/><stop offset="1" stop-color="#1CAB98"/></linearGradient></defs></svg>