<svg width="639" height="665" fill="none" xmlns="http://www.w3.org/2000/svg"><mask id="a" fill="#fff"><path fill-rule="evenodd" clip-rule="evenodd" d="M0 26C0 11.64 11.64 0 26 0h587c14.359 0 26 11.64 26 26v404.572a26.573 26.573 0 00-5.5-.572c-14.636 0-26.5 11.864-26.5 26.5s11.864 26.5 26.5 26.5c1.886 0 3.726-.197 5.5-.572V639c0 14.359-11.641 26-26 26H26c-14.36 0-26-11.641-26-26V482.995c14.405-.266 26-12.026 26-26.495 0-14.469-11.595-26.229-26-26.495V26z"/></mask><path fill-rule="evenodd" clip-rule="evenodd" d="M0 26C0 11.64 11.64 0 26 0h587c14.359 0 26 11.64 26 26v404.572a26.573 26.573 0 00-5.5-.572c-14.636 0-26.5 11.864-26.5 26.5s11.864 26.5 26.5 26.5c1.886 0 3.726-.197 5.5-.572V639c0 14.359-11.641 26-26 26H26c-14.36 0-26-11.641-26-26V482.995c14.405-.266 26-12.026 26-26.495 0-14.469-11.595-26.229-26-26.495V26z" fill="#fff"/><path d="M639 430.572l-.62 2.935 3.62.764v-3.699h-3zm0 51.856h3v-3.699l-3.62.764.62 2.935zm-639 .567l-.056-2.999-2.944.054v2.945h3zm0-52.99h-3v2.945l2.944.054.056-2.999zM26-3C9.984-3-3 9.984-3 26h6C3 13.297 13.297 3 26 3v-6zm587 0H26v6h587v-6zm29 29c0-16.016-12.984-29-29-29v6c12.703 0 23 10.297 23 23h6zm0 404.572V26h-6v404.572h6zM633.5 433c1.676 0 3.309.175 4.88.507l1.24-5.871a29.634 29.634 0 00-6.12-.636v6zM610 456.5c0-12.979 10.521-23.5 23.5-23.5v-6c-16.292 0-29.5 13.208-29.5 29.5h6zm23.5 23.5c-12.979 0-23.5-10.521-23.5-23.5h-6c0 16.292 13.208 29.5 29.5 29.5v-6zm4.88-.507a23.586 23.586 0 01-4.88.507v6c2.095 0 4.143-.219 6.12-.636l-1.24-5.871zM642 639V482.428h-6V639h6zm-29 29c16.016 0 29-12.984 29-29h-6c0 12.703-10.297 23-23 23v6zm-587 0h587v-6H26v6zm-29-29c0 16.016 12.984 29 29 29v-6c-12.703 0-23-10.297-23-23h-6zm0-156.005V639h6V482.995h-6zM23 456.5c0 12.83-10.283 23.26-23.056 23.496l.112 5.999C16.092 485.698 29 472.607 29 456.5h-6zM-.056 433.004C12.717 433.24 23 443.67 23 456.5h6c0-16.107-12.908-29.198-28.944-29.495l-.112 5.999zM-3 26v404.005h6V26h-6z" fill="url(#paint0_linear_385_7424)" mask="url(#a)"/><defs><linearGradient id="paint0_linear_385_7424" x1="430" y1="-173" x2="430" y2="665" gradientUnits="userSpaceOnUse"><stop stop-color="#2B2826"/><stop offset="1" stop-color="#1CAB98"/></linearGradient></defs></svg>