<svg width="618" height="600" fill="none" xmlns="http://www.w3.org/2000/svg"><path d="M506.613 107.962c44.195 42.906 70.93 96.936 79.115 153.085l29.462-2.12c-8.729-62.504-38.193-123.42-87.299-171.623-20.187-19.6-42.011-35.49-65.474-48.733l-13.095 25.955c20.189 11.654 39.831 26.486 57.291 43.436zm-395.031 0c8.185-7.945 16.369-15.36 25.099-21.717l-16.914-23.837C109.4 70.353 99.579 78.299 90.303 87.834c-13.095 12.713-24.007 25.955-34.374 39.728l25.099 15.361c9.275-12.713 19.096-24.366 30.554-34.961zm450.683 306.7l26.189 13.772c20.735-42.376 30.556-88.991 29.464-135.074l-29.464 2.118c.546 40.787-8.184 81.575-26.189 119.184zM417.129 49.695l13.095-25.955C339.65-13.34 234.892-6.983 149.229 42.81l16.915 23.836c76.385-43.966 170.232-49.792 250.985-16.95zM62.473 172.056l-25.099-15.361c-53.47 95.877-49.651 214.001 12.004 306.17l24.007-16.951C18.823 362.75 15.55 257.869 62.473 172.056zm444.136 319.942c-60.018 58.268-140.769 84.223-219.338 78.396l-4.366 28.605c87.3 6.886 177.327-21.718 244.437-86.873 16.915-16.42 31.646-34.429 43.651-52.969l-26.19-13.773c-10.367 16.421-22.916 31.783-38.194 46.614zm-395.025 0c-6.002-5.826-11.458-11.653-16.914-18.01l-24.008 16.95c6.002 7.417 13.095 14.303 20.188 21.188 44.741 43.437 99.848 70.981 157.684 82.105l4.366-28.603c-52.381-10.595-101.486-34.962-141.316-73.63z" fill="#1C3B40" fill-opacity=".2"/><path d="M187.97 498.355c-5.456-3.178-10.366-6.357-15.823-10.065l-19.095 22.248c6.001 4.238 12.549 8.475 19.641 12.183 46.379 26.485 97.666 38.14 147.863 36.02l-3.274-28.603c-43.649 1.588-88.39-8.477-129.312-31.783zm-83.48-315.704c4.365-7.416 9.276-14.303 14.732-21.188l-22.37-19.07c-6.548 7.945-12.004 16.422-17.46 25.427-7.639 12.183-13.64 25.425-19.097 38.138l28.372 8.475c4.365-10.594 9.822-21.718 15.823-31.782zm-26.74 65.153l-28.372-8.475c-22.37 90.049 6.547 185.927 76.932 250.021l19.097-22.248C84.297 409.894 59.199 326.2 77.75 247.804zM340.738 71.413l6.003-28.074C264.353 32.215 179.782 58.7 119.763 116.438l22.371 19.07c52.925-50.323 126.583-73.63 198.604-64.095zm89.484 30.193c45.286 25.955 78.023 64.094 97.12 107.53l28.373-9.535c-21.281-49.793-58.929-93.228-110.216-122.891-20.188-11.654-41.467-20.13-63.292-26.486L376.206 78.3c18.005 5.297 36.555 13.242 54.016 23.307zm112.943 238.367l28.918 6.887c7.092-38.668 5.456-77.868-4.911-114.946l-28.372 9.533c8.729 31.783 10.367 65.685 4.365 98.526zM513.7 417.309c-36.01 59.328-95.483 97.466-160.411 109.12l3.272 28.604c73.66-12.714 141.862-55.62 182.783-123.421 9.821-16.421 18.005-33.901 24.008-51.381l-28.918-6.887c-5.456 14.832-12.549 29.663-20.734 43.965zm-276.628 58.798c-6.002-2.119-11.457-4.767-16.915-7.415l-15.823 24.366c7.094 3.708 14.187 6.887 21.825 9.535 10.913 4.237 21.826 7.415 32.738 10.063l4.365-28.603a246.722 246.722 0 01-26.19-7.946z" fill="#1C3B40" fill-opacity=".2"/><path d="M490.788 369.636l-4.911 11.123 25.644 14.832c2.184-4.767 4.911-10.063 7.093-14.832 16.369-40.256 19.643-82.104 12.004-121.302l-28.918 7.417c6.001 33.371 2.729 68.861-10.912 102.762zM298.182 489.348l-4.365 28.605c78.023 5.297 154.41-30.193 199.696-92.697l-25.645-14.834c-38.738 52.972-103.667 82.105-169.686 78.926zm82.933-366.025c53.471 20.659 92.209 61.445 110.76 109.649l28.918-7.416c-21.279-56.678-66.566-104.882-128.766-129.248-14.731-5.827-29.462-9.535-44.195-12.183l-2.728 28.604c12.003 2.648 24.008 6.356 36.011 10.594zm-267.35 183.809l-30.009-1.59c2.183 66.212 34.92 129.248 90.573 168.976l15.823-24.366c-46.378-33.901-74.204-86.872-76.387-143.02zm195.876-197.051l2.728-28.604c-32.192-.53-63.292 5.826-92.21 18.01l14.187 25.426c23.461-9.535 49.105-14.832 75.295-14.832zM127.402 229.794c15.278-37.608 42.012-68.331 74.75-88.99l-14.187-25.425c-38.738 23.836-70.384 59.327-88.39 103.822-7.092 16.95-11.457 34.431-13.64 51.911l30.009 1.588c1.637-14.301 5.456-28.603 11.458-42.906z" fill="#1C3B40" fill-opacity=".2"/><path d="M461.87 289.652l30.01 1.588c-3.274-59.326-37.102-114.415-90.029-144.609l-12.549 26.485c42.014 24.897 69.294 68.861 72.568 116.536zm-305.002 28.073H126.86c2.728 22.776 9.275 45.025 20.733 65.153l25.098-15.892c-8.183-15.36-13.639-31.781-15.823-49.261zm110.216 125.54c-30.556-8.475-55.655-25.426-74.752-47.144l-24.552 15.891c22.916 27.545 54.017 48.203 91.664 58.798 13.641 3.707 27.281 5.827 40.922 6.357l-1.638-29.135a157.216 157.216 0 01-31.644-4.767zm67.11 3.709l1.636 29.133c52.379-7.415 99.848-37.078 128.766-81.045l-26.734-12.713c-24.009 33.902-62.202 57.738-103.668 64.625zm122.217-105.941l-3.274 9.535 26.735 12.713c1.637-4.768 3.819-9.535 4.911-14.833 2.182-7.945 3.82-15.362 4.91-23.306l-30.008-1.589c0 6.355-1.638 11.653-3.274 17.48zM161.78 258.929c12.003-40.788 40.375-72.57 76.385-91.109l-10.911-27.016c-44.195 21.718-79.661 60.387-94.393 110.178-3.273 10.595-5.456 21.718-6.001 32.843h30.008c.546-8.476 2.184-16.951 4.912-24.896zm189.329-102.234c1.637.53 3.819 1.058 5.455 1.588l12.55-26.485-9.82-3.178c-33.284-9.535-67.658-9.005-98.758-.529l10.913 27.014c25.099-5.827 52.925-5.827 79.66 1.59z" fill="#1C3B40" fill-opacity=".2"/></svg>