<svg width="465" height="452" fill="none" xmlns="http://www.w3.org/2000/svg"><path d="M381.189 81.331c33.254 32.323 53.37 73.025 59.528 115.325l22.169-1.597c-6.569-47.087-28.738-92.977-65.686-129.29-15.189-14.765-31.611-26.736-49.265-36.712l-9.853 19.553c15.191 8.779 29.97 19.952 43.107 32.721zm-297.231.001c6.158-5.986 12.316-11.572 18.884-16.361L90.116 47.014c-7.8 5.986-15.19 11.971-22.17 19.154-9.852 9.577-18.063 19.553-25.863 29.928l18.885 11.573c6.979-9.577 14.368-18.356 22.99-26.337zm339.106 231.047l19.705 10.374c15.601-31.923 22.991-67.039 22.169-101.755l-22.169 1.596c.411 30.725-6.158 61.452-19.705 89.785zM313.859 37.437l9.853-19.553C255.562-10.049 176.739-5.261 112.284 32.25l12.727 17.957c57.475-33.121 128.087-37.51 188.848-12.77zM47.006 129.616l-18.885-11.573c-40.232 72.228-37.359 161.215 9.032 230.649l18.064-12.77c-41.054-62.651-43.517-141.661-8.21-206.306zm334.181 241.023c-45.16 43.895-105.919 63.447-165.037 59.058l-3.285 21.549c65.688 5.188 133.426-16.361 183.922-65.444 12.727-12.37 23.811-25.937 32.844-39.904l-19.706-10.376c-7.801 12.371-17.243 23.944-28.738 35.117zm-297.228 0a201.643 201.643 0 01-12.727-13.568L53.168 369.84c4.516 5.587 9.853 10.775 15.19 15.962 33.664 32.722 75.128 53.472 118.646 61.852l3.285-21.548c-39.413-7.981-76.361-26.337-106.33-55.467z" fill="#54A7A1" fill-opacity=".1"/><path d="M141.434 375.427c-4.105-2.394-7.8-4.788-11.906-7.582l-14.368 16.76c4.516 3.193 9.443 6.385 14.779 9.178 34.897 19.952 73.486 28.732 111.256 27.135l-2.463-21.548c-32.843 1.197-66.508-6.385-97.298-23.943zm-62.813-237.83c3.285-5.587 6.98-10.775 11.085-15.961L72.874 107.27c-4.927 5.985-9.032 12.37-13.137 19.154-5.748 9.178-10.264 19.154-14.37 28.731l21.349 6.384c3.284-7.98 7.39-16.361 11.905-23.942zm-20.12 49.082l-21.348-6.384C20.321 248.132 42.08 320.359 95.04 368.644l14.369-16.761c-45.98-43.096-64.865-106.146-50.907-165.204zm197.88-132.881l4.517-21.15c-61.992-8.38-125.625 11.573-170.785 55.069l16.832 14.365c39.823-37.909 95.245-55.467 149.436-48.284zm67.33 22.745c34.074 19.553 58.707 48.284 73.076 81.006l21.348-7.183c-16.012-37.51-44.339-70.232-82.929-92.578-15.191-8.78-31.201-15.164-47.623-19.952l-4.516 21.15c13.548 3.99 27.506 9.975 40.644 17.557zm84.981 179.57l21.759 5.188c5.336-29.13 4.105-58.66-3.695-86.592l-21.348 7.181c6.568 23.944 7.8 49.482 3.284 74.223zm-22.17 58.26c-27.095 44.693-71.844 73.424-120.698 82.204l2.462 21.548c55.424-9.578 106.741-41.9 137.531-92.977 7.39-12.371 13.548-25.539 18.065-38.707l-21.759-5.188c-4.105 11.173-9.443 22.346-15.601 33.12zm-208.143 44.294c-4.515-1.596-8.62-3.591-12.727-5.586l-11.905 18.356c5.337 2.794 10.674 5.188 16.421 7.183 8.211 3.192 16.423 5.586 24.633 7.581l3.285-21.548a185.478 185.478 0 01-19.707-5.986z" fill="#54A7A1" fill-opacity=".1"/><path d="M369.282 278.459l-3.695 8.38 19.295 11.173c1.643-3.591 3.696-7.581 5.338-11.173 12.316-30.327 14.779-61.852 9.031-91.381l-21.759 5.587c4.516 25.14 2.054 51.875-8.21 77.414zM224.36 368.642l-3.284 21.549c58.707 3.99 116.182-22.745 150.256-69.832l-19.295-11.174c-29.148 39.905-78.003 61.852-127.677 59.457zm62.402-275.739c40.232 15.563 69.38 46.289 83.338 82.603l21.759-5.587c-16.011-42.698-50.086-79.01-96.887-97.367-11.084-4.39-22.169-7.183-33.254-9.178l-2.053 21.548c9.032 1.996 18.065 4.789 27.097 7.981zM85.6 231.373l-22.58-1.198c1.642 49.88 26.275 97.367 68.15 127.295l11.906-18.356C108.18 313.575 87.242 273.671 85.6 231.373zM232.982 82.927l2.053-21.548c-24.222-.399-47.623 4.39-69.382 13.568L176.328 94.1c17.653-7.183 36.948-11.174 56.654-11.174zM95.86 173.112c11.496-28.332 31.612-51.476 56.245-67.039L141.43 86.919c-29.147 17.957-52.959 44.693-66.507 78.212-5.337 12.769-8.62 25.939-10.263 39.107l22.58 1.196c1.231-10.774 4.105-21.547 8.62-32.322z" fill="#54A7A1" fill-opacity=".1"/><path d="M347.523 218.204l22.581 1.197c-2.464-44.692-27.917-86.193-67.74-108.939l-9.442 19.952c31.612 18.756 52.138 51.876 54.601 87.79zm-229.491 21.149h-22.58c2.053 17.158 6.98 33.918 15.601 49.082l18.885-11.972c-6.158-11.571-10.263-23.942-11.906-37.11zm82.929 94.574c-22.991-6.385-41.876-19.155-56.245-35.516l-18.474 11.972c17.243 20.75 40.644 36.312 68.971 44.294 10.264 2.792 20.526 4.389 30.79 4.789l-1.232-21.949a118.19 118.19 0 01-23.81-3.59zm50.496 2.793l1.231 21.947c39.411-5.586 75.128-27.932 96.887-61.053l-20.116-9.578c-18.065 25.539-46.802 43.496-78.002 48.684zm91.959-79.809l-2.463 7.183 20.116 9.578c1.232-3.592 2.874-7.183 3.695-11.175 1.642-5.985 2.874-11.572 3.694-17.557l-22.579-1.197c0 4.788-1.232 8.779-2.463 13.168zM121.728 195.06c9.031-30.727 30.379-54.669 57.474-68.636l-8.21-20.351c-33.254 16.36-59.939 45.491-71.023 83-2.464 7.982-4.106 16.361-4.516 24.742h22.579c.411-6.386 1.643-12.77 3.696-18.755zm142.456-77.017c1.232.4 2.874.798 4.105 1.197l9.442-19.952-7.389-2.394c-25.043-7.183-50.907-6.784-74.308-.4l8.212 20.352c18.885-4.39 39.822-4.39 59.938 1.197z" fill="#54A7A1" fill-opacity=".1"/></svg>