<svg width="860" height="694" fill="none" xmlns="http://www.w3.org/2000/svg"><mask id="a" fill="#fff"><path fill-rule="evenodd" clip-rule="evenodd" d="M0 26C0 11.64 11.64 0 26 0h808c14.359 0 26 11.64 26 26v471.496a27.707 27.707 0 00-.5-.004c-14.636 0-26.5 9.838-26.5 21.973s11.864 21.972 26.5 21.972c.167 0 .334-.001.5-.004V668c0 14.359-11.641 26-26 26H26c-14.36 0-26-11.641-26-26V541.433c14.405-.221 26-9.972 26-21.968 0-11.997-11.595-21.748-26-21.969V26z"/></mask><path fill-rule="evenodd" clip-rule="evenodd" d="M0 26C0 11.64 11.64 0 26 0h808c14.359 0 26 11.64 26 26v471.496a27.707 27.707 0 00-.5-.004c-14.636 0-26.5 9.838-26.5 21.973s11.864 21.972 26.5 21.972c.167 0 .334-.001.5-.004V668c0 14.359-11.641 26-26 26H26c-14.36 0-26-11.641-26-26V541.433c14.405-.221 26-9.972 26-21.968 0-11.997-11.595-21.748-26-21.969V26z" fill="#fff"/><path d="M860 497.496l-.046 3 3.046.047v-3.047h-3zm0 43.937h3v-3.046l-3.046.047.046 2.999zm-860 0l-.046-2.999-2.954.045v2.954h3zm0-43.937h-3v2.954l2.954.046.046-3zM26-3C9.984-3-3 9.984-3 26h6C3 13.297 13.297 3 26 3v-6zm808 0H26v6h808v-6zm29 29c0-16.016-12.984-29-29-29v6c12.703 0 23 10.297 23 23h6zm0 471.496V26h-6v471.496h6zm-3.5 2.996c.152 0 .303.001.454.004l.092-6c-.182-.002-.364-.004-.546-.004v6zM836 519.465c0-9.977 9.971-18.973 23.5-18.973v-6c-15.742 0-29.5 10.679-29.5 24.973h6zm23.5 18.972c-13.529 0-23.5-8.996-23.5-18.972h-6c0 14.293 13.758 24.972 29.5 24.972v-6zm.454-.003c-.151.002-.302.003-.454.003v6c.182 0 .364-.001.546-.004l-.092-5.999zM863 668V541.433h-6V668h6zm-29 29c16.016 0 29-12.984 29-29h-6c0 12.703-10.297 23-23 23v6zm-808 0h808v-6H26v6zm-29-29c0 16.016 12.984 29 29 29v-6c-12.703 0-23-10.297-23-23h-6zm0-126.567V668h6V541.433h-6zm26-21.968c0 9.865-9.739 18.765-23.046 18.969l.092 5.999C15.548 544.195 29 533.593 29 519.465h-6zM-.046 500.496C13.261 500.7 23 509.6 23 519.465h6c0-14.129-13.452-24.731-28.954-24.969l-.092 6zM-3 26v471.496h6V26h-6z" fill="url(#paint0_linear_792_36102)" mask="url(#a)"/><defs><linearGradient id="paint0_linear_792_36102" x1="430" y1="159.197" x2="430" y2="854.026" gradientUnits="userSpaceOnUse"><stop stop-color="#2B2826"/><stop offset="1" stop-color="#1CAB98"/></linearGradient></defs></svg>