<svg width="266" height="61" fill="none" xmlns="http://www.w3.org/2000/svg"><path d="M35.85 1.344c.96 0 1.622.777 1.988 2.33a12.07 12.07 0 01.137 4.797c-.273 1.646-.686 2.632-1.233 2.955-.23.14-.676.21-1.337.21-.664 0-1.405-.036-2.228-.105a82.088 82.088 0 01-2.947-.314 65.473 65.473 0 01-3.153-.451c-.96-.161-2.08-.335-3.36-.521a109.437 109.437 0 01-3.109-.488c.198 6.816.253 10.616.163 11.405-.458 4.372.829 6.305 3.86 5.794 1.004-.2 1.77-.277 2.295-.232.524.047 1.313-.022 2.363-.208.914 0 1.234.557.96 1.67-.275 1.115-.86 1.842-1.757 2.182a.737.737 0 00-.374-.098c-.303.14-1.11.298-2.418.475l-3.15.427c-.794.107-1.475.391-2.048.85-.572.46-.876 1.084-.913 1.87-.087.516-.22 1.993-.396 4.429-.176 2.437-.353 4.285-.528 5.546-.035.319-.01.865.077 1.64.085.777.185 1.573.3 2.388.113.814.217 1.619.308 2.415.092.795.113 1.46.069 1.997-.037.438-2.082 3.642-2.336 3.833-.4.302-.834.533-1.305.696-.47.162-.87.267-1.2.312-3.671.649-6.27.115-7.8-1.602-1.529-1.716-2.387-4.598-2.576-8.643-.207-3.72-.104-7.65.307-11.796l1.338-13.468c.48-4.834.867-8.748 1.166-11.743-.458 0-1.075.06-1.85.174-.779.117-1.384.175-1.818.175-.435 0-1.109-.07-2.022-.21C.866 9.897.49 9.319.193 8.299a4.493 4.493 0 01.136-2.99c.389-.974 1.2-1.413 2.434-1.322 1.05.094 3.895-.08 8.533-.521 4.637-.44 9.502-.905 14.591-1.391 5.088-.487 8.409-.73 9.963-.73zm20.252 23.724c2.088-.449 4.008.371 5.762 2.466 1.755 2.095 2.365 4.18 1.832 6.25-.179.722-.344 1.375-.5 1.96-.156.586-.41 1.295-.765 2.13-.356.833-.733 1.509-1.133 2.026-.4.518-.911.923-1.531 1.216-.623.294-1.29.35-1.999.17-.666-.18-1.378-.959-2.132-2.332a155.422 155.422 0 01-1.198-2.197c-.266-.449-.3-1.058-.1-1.824.2-.764.4-1.542.599-2.33.2-.789.21-1.228.033-1.32-.623-.269-1.664.655-3.13 2.771-1.466 2.119-2.443 3.74-2.931 4.866-.355.856-.61 1.746-.765 2.669-.157.924-.178 1.95-.067 3.074.11 1.127.221 2.027.332 2.703.11.675.333 1.735.667 3.175.332 1.443.543 2.39.632 2.839.267 1.487-.311 2.5-1.73 3.041-1.424.54-2.799.675-4.131.405-2.753-.585-4.662-1.836-5.728-3.75-1.066-1.914-1.532-4.854-1.399-8.818a50.369 50.369 0 01.367-7.872c.333-2.725.787-5.709 1.365-8.952.577-3.244.976-5.812 1.198-7.704.134-.855.944-.731 2.432.372 1.487 1.104 2.653 2.084 3.496 2.939 2.442 2.478 3.486 4.415 3.132 5.812-.046.09-.124.81-.234 2.161-.111 1.352-.145 2.027-.1 2.027.4.046.92-.314 1.566-1.08a25.483 25.483 0 001.898-2.602 20.881 20.881 0 012.13-2.77c.8-.879 1.51-1.386 2.132-1.521zm22.648 13.45c-.667 2.095-.866 3.2-.6 3.318.576.232 1.299-.086 2.165-.954.866-.868 1.641-1.932 2.33-3.195a41.846 41.846 0 001.8-3.7c.51-1.204.765-2.01.765-2.414.043-1.354-1.488-.42-4.595 2.802l-.267.221c-.4.522-.933 1.83-1.599 3.922zm43.138 3.833c.044.268.022.63-.066 1.086-.09.456-.256.973-.5 1.552-.244.58-.455 1.077-.633 1.495-.177.417-.41.928-.7 1.533-.289.603-.454.953-.499 1.046-1.332 2.79-3.02 5.064-5.062 6.82-1.111 1.064-2.376 1.732-3.796 2.006a203.7 203.7 0 00-1.166.382c-.599.197-1.055.328-1.365.395a2.994 2.994 0 01-1.067.002c-1.509-.576-2.686-1.22-3.529-1.93-.844-.71-1.488-1.726-1.932-3.048-.178-.62-.355-1.554-.532-2.803-.09-.76.154-1.34.731-1.737.356-.294.555-.172.601.365v.203c.043.852.555 1.944 1.531 3.278.976 1.331 1.865 1.724 2.664 1.176.934-.602 1.633-1.493 2.099-2.673.466-1.18.609-2.304.432-3.374-.621-3.11-1.332-4.84-2.308-8.246-.045-.176-.245-1.064-.6-2.662a47.164 47.164 0 00-1.133-4.249c-.399-1.235-.798-1.93-1.197-2.084.266.388-.169 1.745-1.301 4.073-1.132 2.326-2.542 4.852-4.228 7.575-.316.676-.64 1.3-.973 1.87-1.047 1.798-3.131 4.48-5.256 6.495-1.278 1.212-2.807 2.266-4.336 3.13-1.638.925-3.956 1.848-6.953 2.768-1.11.343-2.664.254-4.663-.267-1.997-.522-3.552-1.152-4.662-1.888-1.555-1.025-2.709-2.096-3.463-3.218-.756-1.122-1.265-2.596-1.532-4.426-.4-3.262.133-6.97 1.597-11.12 1.466-4.15 3.42-7.342 5.862-9.576 2-1.797 5.085-3.15 9.258-4.055 1.066-.25 1.921-.104 2.565.438a3.79 3.79 0 011.265 2.08c.2.842.3 1.85.3 3.02 0 .811.1 1.774.3 2.885.2 1.114.322 1.962.367 2.545.043.582-.112 1.562-.466 2.935-.667 1.802-1.49 3.264-2.466 4.386-.977 1.124-2.263 2.03-3.863 2.72-.399.208-.71.364-.931.467-.224.107-.512.27-.867.498a4.226 4.226 0 00-.833.662c-.2.215-.377.487-.532.811a2.436 2.436 0 00-.234 1.064c0 .383.089.817.267 1.3.133.487.19 1.08.167 1.78-.024.7-.067 1.368-.134 2.001a2.51 2.51 0 00.434 1.73c.355.516.954.837 1.798.962 1.997.318 4.263-.575 6.793-2.677.044-.003.134-.078.267-.22 1.643-1.37 3.818-3.742 6.528-7.12 1.032-1.141 1.838-2.786 2.798-4.037 4.218-6.765 6.17-10.992 5.861-12.684-.09-.443-.4-1.335-.933-2.674s-.823-2.368-.866-3.086c-.045-.897.243-1.84.866-2.826.355-.61.633-.989.833-1.137.199-.148.499-.246.899-.295a3.539 3.539 0 001.198-.384c1.288-.669 2.364-.73 3.23-.179.867.551.988 1.546.368 2.984-.267.603-.412 1.119-.434 1.547-.023.43.089.83.333 1.195.244.367.455.646.633.837.177.191.555.494 1.132.905.577.413.999.723 1.266.93 4.173 3.6 7.149 7.457 8.926 11.574.887 2.014 1.442 2.718 1.842 5.169zm18.738-32.082c-.267.81-.445 1.756-.534 2.838-.079.969-.034 1.848.137 2.636.025.12.04.316.13.404.976-.854 1.765-2.433 2.364-4.73.6-2.298.633-4.03.1-5.202-.089-.225-.445.27-1.065 1.486-.711 1.397-1.089 2.253-1.132 2.568zm25.427 32.698c.535.316.27 1.897-.791 4.743l-2.159 5.788a21.257 21.257 0 01-1.929 3.124 17.238 17.238 0 01-2.561 2.702c-.999.855-2.018 1.295-3.06 1.317-1.042.023-2.182-.303-3.423-.979-1.286-.856-2.317-2.165-3.092-3.926-.777-1.762-1.264-3.24-1.463-4.433-.2-1.194-.433-2.916-.698-5.17-.045-.36-.045-1.757 0-4.189.044-2.432.087-4.583.132-6.452.044-1.87 0-3.03-.132-3.48-.797-.315-1.974 1.78-3.525 6.283-1.552 4.506-2.327 7.365-2.327 8.582v1.148c0 .631-.023 1.093-.067 1.386-.044.293-.1.676-.166 1.148a4.412 4.412 0 01-.333 1.217 4.278 4.278 0 01-.566.911c-2.265 2.263-4.529 3.62-6.794 4.07-1.289.27-2.388-.274-3.297-1.63a11.515 11.515 0 01-1.798-4.366c-.289-1.553-.433-2.961-.433-4.222.043-4.234.476-9.133 1.298-14.697.822-5.562 1.488-9.526 1.999-11.892.509-2.365.921-4.223 1.232-5.574.266-1.08.566-2.095.899-3.04a33.04 33.04 0 011.298-3.11c.533-1.124 1.121-2.07 1.766-2.837a9.101 9.101 0 012.165-1.892c.799-.494 1.708-.686 2.73-.574 1.021.112 2.109.552 3.264 1.317 1.021.722 1.731 1.566 2.132 2.534.399.969.466 2.06.199 3.278-.266 1.215-.566 2.274-.899 3.174-.333.903-.856 2.061-1.565 3.48-.711 1.42-1.156 2.355-1.332 2.805-.178.361-.578 1.003-1.199 1.926-.623.924-.999 1.722-1.132 2.398-.134.587-.2 1.453-.2 2.601 0 1.149-.023 1.95-.067 2.4 0 .09-.067.54-.2 1.351-.133.811-.256 1.611-.366 2.398a61.973 61.973 0 00-.301 2.534c-.089.901-.098 1.668-.031 2.298.065.63.232.99.499 1.08 2.397-4.502 3.796-6.958 4.195-7.363.8-.901 1.399-1.544 1.799-1.927.4-.382.999-.732 1.799-1.047.798-.314 1.664-.361 2.598-.135 1.864.405 3.484 1.814 4.861 4.223 1.377 2.41 1.865 4.606 1.466 6.588-.178.181-.211.699-.1 1.554.109.856.187 1.43.233 1.722.043.295.166.87.366 1.724.2.856.321 1.375.366 1.555.222.991.401 2.443.533 4.358.133 1.913.288 3.279.466 4.094.443 2.032 1.066 2.17 1.865.413.131-.304.327-.785.59-1.441.273-.714.477-1.215.613-1.502l.488-1.191c.306-.752.623-1.525.948-2.318l1.012-2.475c.35-.856.724-1.508 1.125-1.958.401-.449.757-.583 1.07-.404zm51.695-39.116c.577.361.988.687 1.232.98.243.294.367.62.367.98 0 .362-.057.71-.167 1.048-.111.337-.256.89-.433 1.656a13.714 13.714 0 00-.333 2.364 387.123 387.123 0 01-.333 4.866c-.133 1.801-.244 3.39-.333 4.765a283.604 283.604 0 01-.266 3.75c.133 7.794.067 12.297-.2 13.514-.4 1.755-1.243 4.111-2.531 7.061-1.289 2.95-2.51 5.483-3.664 7.6-1.422 2.749-3.108 4.596-5.061 5.542-4.174 1.936-8.616 1.396-13.322-1.622-1.822-1.171-3.23-2.556-4.229-4.156a12.822 12.822 0 01-1.864-5.235 42.486 42.486 0 01-.368-5.474v-5.846c0-2.139-.152-3.929-.454-5.37-.176-.767-.251-1.758-.229-2.974a34.42 34.42 0 01.189-3.203l.359-3.167.202-1.791c.71-6.273 1.054-10.411 1.032-12.416-.022-2.004-.411-3.32-1.165-3.953-.488-.406.133-1.035 1.864-1.891C189.285.293 190.107 0 190.506 0c2.133.113 3.664.392 4.596.841a11.577 11.577 0 014.03 3.233c1.087 1.373 1.408 2.899.966 4.579.487 1.12.742 2.66.766 4.62.021 1.96-.039 3.707-.184 5.239-.143 1.533-.293 2.587-.45 3.165.074.65.036 2.016-.109 4.095-.144 2.078-.239 3.68-.29 4.806l.067-1.013c.044 1.442.542 5.011 1.499 10.71.954 5.698 1.874 9.088 2.763 10.169.488.54.933.935 1.332 1.182.399.248.789.293 1.166.136.377-.159.699-.34.966-.541.266-.203.587-.642.966-1.318.377-.675.676-1.25.899-1.723a49.23 49.23 0 00.932-2.195l.068-.068c1.02-2.387 1.752-8.943 2.197-19.667-.356-4.51-.445-8.276-.267-11.299.133-2.299.334-5.096.601-8.39a3.8 3.8 0 00-.301-1.793c-.244-.565-.422-.97-.532-1.218-.112-.247-.013-.777.299-1.59.134-.27.833-.157 2.098.338s2.319 1.013 3.164 1.553zm20.155 32.147c.669-.252 1.336-.796 2.005-1.632a12.148 12.148 0 001.678-2.837 17.322 17.322 0 001.027-3.263c.232-1.12.303-2.074.209-2.862-.156-1.104-.606-1.988-1.351-2.65-.747-.661-1.585-.985-2.519-.968-.931.016-1.88.259-2.843.732-.53.314-.973.753-1.328 1.316-.359.564-.615 1.265-.77 2.104a23.31 23.31 0 00-.314 2.18c-.055.614-.082 1.669-.082 3.165 0 1.498-.015 2.423-.046 2.777.031 1.104.253 1.79.663 2.056.411.27 1.114.371 2.109.309.374-.032.894-.173 1.562-.427zm7.986-17.689c.745.6 1.392 1.403 1.935 2.412.544 1.01.894 2.026 1.049 3.05a9.45 9.45 0 010 2.956c-.311 1.294-.824 2.831-1.538 4.613-.716 1.781-1.446 3.035-2.192 3.76-1.648 1.577-3.217 2.538-4.709 2.884-3.232.695-5.598.932-7.097.71.061.884.109 4.273.14 10.17.03 1.45-.156 2.334-.56 2.649-.248.22-.389.803-.42 1.75-.031.945-.077 1.513-.139 1.702-.28.756-.77 1.308-1.469 1.656a3.82 3.82 0 01-2.261.354 4.254 4.254 0 01-2.145-.922c-.684-.567-1.15-1.308-1.398-2.222-.25-.916-.343-1.79-.281-2.626a26.43 26.43 0 00.045-2.79c-.029-1.026-.201-1.868-.512-2.531-.216-.473-.325-1.087-.325-1.845 0-.757.038-1.584.117-2.483.077-.9.115-1.537.115-1.916-.093-2.206-.063-4.745.093-7.614l.556-6.688c.042-.282.074-.611.096-.989.021-.376.044-.705.067-.989.024-.282.052-.612.081-.99l.087-1.035v-.732c0-.362-.008-.726-.024-1.088-.015-.362-.015-.71 0-1.04.016-.332.055-.528.115-.592.216-.346.807-.496 1.775-.449.967.046 1.982.173 3.042.379 1.059.205 2.004.52 2.834.945.337.173.602.345.797.515.178.156.279.319.357.464.12.225.153.598.199.773.776-.598 1.678-1.184 2.317-1.61a15.256 15.256 0 012.214-1.206c.838-.379 1.623-.615 2.354-.71.729-.094 1.507-.039 2.331.165.823.206 1.608.592 2.354 1.16zm10.468 21.153c0-7.162-.378-16.463-1.132-27.906a255.915 255.915 0 01-.1-3.176 4.5 4.5 0 01.698-2.534c.489-.787 1.266-1.475 2.332-2.06.399-.18.899-.383 1.499-.608a30.73 30.73 0 012.031-.676c.754-.225 1.433-.281 2.031-.17.599.113.944.418 1.033.913.177.405.21 1.25.1 2.534-.111 1.284-.167 2.151-.167 2.601.221 2.432.377 4.505.466 6.217.089 1.982-.211 5.169-.898 9.56-.69 4.392-1.056 6.904-1.1 7.535a116.87 116.87 0 01-.232 3.142c-.067.698-.267 1.611-.601 2.737-.331 1.126-.787 2.05-1.364 2.77-.845.946-1.711 1.148-2.598.608-.09-.045-.423-.304-.999-.777-.578-.474-.911-.71-.999-.71zm6.127 10.677c1.642.54 2.731 1.746 3.265 3.614.531 1.87.22 3.435-.933 4.696-.889.9-1.711 1.43-2.465 1.589-.756.156-1.777.032-3.064-.373a19.88 19.88 0 01-1.264-.337 68.01 68.01 0 01-1.467-.44c-.356-.113-.755-.315-1.199-.608-.444-.294-.776-.642-.999-1.047-.266-.496-.478-1.429-.633-2.804-.156-1.374-.499-2.33-1.033-2.872.311-.946.867-1.622 1.666-2.028.799-.404 1.743-.561 2.832-.472 1.087.091 2.03.225 2.829.406.8.18 1.621.405 2.465.676z" fill="#005D62"/></svg>