<svg width="52" height="50" fill="none" xmlns="http://www.w3.org/2000/svg"><path d="M42.443 8.997c3.703 3.575 5.943 8.078 6.628 12.757l2.468-.177c-.73-5.208-3.2-10.285-7.313-14.302a26.471 26.471 0 00-5.486-4.06l-1.097 2.162a24.666 24.666 0 014.8 3.62z" fill="#223334"/><path d="M9.348 8.997c.686-.662 1.371-1.28 2.103-1.81l-1.417-1.986c-.869.662-1.691 1.324-2.469 2.118-1.097 1.06-2.01 2.163-2.88 3.311l2.103 1.28c.777-1.06 1.6-2.03 2.56-2.913z" fill="#00A48A"/><path d="M47.106 34.555l2.194 1.148a24.244 24.244 0 002.468-11.256l-2.468.176a22.196 22.196 0 01-2.194 9.932zM34.946 4.141l1.097-2.163c-7.588-3.09-16.364-2.56-23.54 1.59l1.416 1.986c6.4-3.664 14.262-4.15 21.027-1.413z" fill="#005D62"/><path d="M5.234 14.338l-2.103-1.28c-4.48 7.99-4.16 17.833 1.006 25.514l2.011-1.413c-4.571-6.93-4.845-15.67-.914-22.821zM42.443 41c-5.028 4.855-11.794 7.018-18.376 6.533l-.366 2.384c7.314.573 14.856-1.81 20.479-7.24a25.581 25.581 0 003.657-4.414l-2.194-1.148c-.869 1.369-1.92 2.649-3.2 3.885z" fill="#223334"/><path d="M9.348 41a22.35 22.35 0 01-1.417-1.501L5.92 40.911c.503.619 1.097 1.192 1.691 1.766a26.017 26.017 0 0013.21 6.842l.366-2.383C16.8 46.253 12.685 44.222 9.348 41z" fill="#00A48A"/><path d="M15.748 41.53a21.61 21.61 0 01-1.326-.84l-1.6 1.855c.503.353 1.052.706 1.646 1.015a23.083 23.083 0 0012.388 3.002l-.275-2.384a20.415 20.415 0 01-10.833-2.648z" fill="#223334"/><path d="M8.754 15.22a15.44 15.44 0 011.234-1.765l-1.874-1.589c-.548.662-1.006 1.369-1.463 2.119-.64 1.015-1.142 2.119-1.6 3.178l2.377.706a20.56 20.56 0 011.326-2.648z" fill="#00A48A"/><path d="M6.514 20.65l-2.377-.706c-1.874 7.504.548 15.494 6.445 20.835l1.6-1.854C7.062 34.158 4.96 27.183 6.514 20.65z" fill="#005D62"/><path d="M28.546 5.951l.503-2.34c-6.902-.926-13.987 1.28-19.015 6.092l1.874 1.59c4.434-4.194 10.605-6.136 16.638-5.342z" fill="#1C3B40"/><path d="M36.043 8.467c3.794 2.163 6.537 5.341 8.137 8.961l2.377-.795c-1.783-4.149-4.937-7.769-9.234-10.24-1.691-.972-3.474-1.678-5.302-2.208l-.503 2.34a21.17 21.17 0 014.525 1.942zm9.462 19.864l2.423.574c.594-3.222.457-6.489-.411-9.579l-2.377.795c.731 2.648.868 5.473.365 8.21z" fill="#213030"/><path d="M43.037 34.776c-3.017 4.944-8 8.122-13.44 9.093l.275 2.384c6.171-1.06 11.885-4.635 15.313-10.285a22.869 22.869 0 002.012-4.282l-2.423-.574a24.328 24.328 0 01-1.737 3.664zm-23.176 4.9c-.502-.177-.96-.398-1.417-.618l-1.325 2.03c.594.31 1.188.574 1.828.795.915.353 1.829.618 2.743.838l.366-2.383a20.766 20.766 0 01-2.195-.662z" fill="#1C3B40"/><path d="M41.117 30.803l-.411.927 2.148 1.236c.183-.397.412-.839.595-1.236a17.628 17.628 0 001.005-10.109l-2.422.619c.502 2.78.228 5.738-.915 8.563zm-16.136 9.976l-.366 2.384c6.537.441 12.937-2.516 16.73-7.725l-2.148-1.236c-3.245 4.414-8.685 6.842-14.216 6.577z" fill="#005D62"/><path d="M31.93 10.277c4.479 1.722 7.724 5.12 9.278 9.137l2.423-.618c-1.783-4.723-5.577-8.74-10.788-10.77-1.234-.486-2.468-.795-3.702-1.016l-.229 2.384c1.006.22 2.012.53 3.017.883z" fill="#00A48A"/><path d="M9.531 25.594l-2.514-.132a18.025 18.025 0 007.588 14.081l1.326-2.03c-3.886-2.825-6.217-7.24-6.4-11.919z" fill="#1C3B40"/><path d="M25.941 9.173l.229-2.383a19.104 19.104 0 00-7.726 1.5l1.19 2.12a16.874 16.874 0 016.307-1.237z" fill="#005D62"/><path d="M10.674 19.15a15.859 15.859 0 016.262-7.416l-1.189-2.12c-3.245 1.987-5.896 4.945-7.405 8.653A16.39 16.39 0 007.2 22.593l2.515.132a12.99 12.99 0 01.96-3.576z" fill="#213030"/><path d="M38.695 24.138l2.514.132c-.275-4.944-3.109-9.535-7.543-12.05l-1.051 2.206c3.52 2.075 5.805 5.739 6.08 9.712z" fill="#223334"/><path d="M13.142 26.477h-2.514c.229 1.898.777 3.752 1.737 5.43l2.103-1.325a11.748 11.748 0 01-1.326-4.105z" fill="#005D62"/><path d="M22.376 36.939c-2.56-.706-4.663-2.12-6.263-3.929l-2.057 1.324c1.92 2.296 4.526 4.017 7.68 4.9 1.143.31 2.285.486 3.428.53l-.137-2.428a13.243 13.243 0 01-2.651-.397z" fill="#213030"/><path d="M27.998 37.248l.137 2.428c4.388-.618 8.365-3.09 10.788-6.754l-2.24-1.06c-2.011 2.826-5.21 4.812-8.685 5.386z" fill="#00A48A"/><path d="M38.237 28.42l-.274.794 2.24 1.06c.137-.398.32-.795.411-1.237.183-.662.32-1.28.412-1.942l-2.515-.132c0 .53-.137.97-.274 1.456z" fill="#1C3B40"/><path d="M13.554 21.577c1.005-3.399 3.382-6.047 6.4-7.592l-.915-2.251c-3.703 1.81-6.674 5.032-7.908 9.181a11.13 11.13 0 00-.503 2.737h2.514a7.975 7.975 0 01.412-2.075z" fill="#005D62"/><path d="M29.415 13.058c.137.044.32.088.457.132l1.052-2.207-.823-.265a15.492 15.492 0 00-8.274-.044l.914 2.251a13.697 13.697 0 016.674.133z" fill="#1C3B40"/></svg>