<svg width="1130" height="626" fill="none" xmlns="http://www.w3.org/2000/svg"><mask id="a" style="mask-type:alpha" maskUnits="userSpaceOnUse" x="25" y="0" width="543" height="531"><path fill="#D9D9D9" d="M25 0h543v531H25z"/></mask><g filter="url(#filter0_d_2030_1423)" mask="url(#a)"><path d="M70.474 1272.05a89.986 89.986 0 01-89.948 0l-475.082-274.074a90.002 90.002 0 01-45.026-77.957V371.981a90.002 90.002 0 0145.026-77.957L-19.474 19.946a90 90 0 0189.948 0l475.082 274.078a90.002 90.002 0 0145.026 77.957v548.038a90.002 90.002 0 01-45.026 77.957L70.474 1272.05z" fill="#005D62"/></g><mask id="b" style="mask-type:alpha" maskUnits="userSpaceOnUse" x="588" y="0" width="515" height="531"><path transform="matrix(-1 0 0 1 1102.71 0)" fill="#D9D9D9" d="M0 0h513.78v531H0z"/></mask><g filter="url(#filter1_d_2030_1423)" mask="url(#b)"><path d="M1056.33 1269.43c28.77 17.55 64.94 17.55 93.71 0l444.67-271.122a89.997 89.997 0 0043.15-76.843v-550.93a89.997 89.997 0 00-43.15-76.843L1150.04 22.567c-28.77-17.543-64.94-17.543-93.71 0L611.659 293.692a90 90 0 00-43.148 76.843v550.93a90 90 0 0043.148 76.843l444.671 271.122z" fill="#005D62"/></g><g filter="url(#filter2_d_2030_1423)"><path d="M564.802 589H96.092c-36.43 0-65.963-29.532-65.963-65.963a65.963 65.963 0 0131.623-56.319l440.581-268.629c38.362-23.391 86.577-23.391 124.94 0l440.577 268.629a65.97 65.97 0 0131.63 56.32c0 36.43-29.54 65.962-65.97 65.962H564.802z" fill="#005D62"/></g><defs><filter id="filter0_d_2030_1423" x="-569.578" y="-15.098" width="1190.16" height="1336.2" filterUnits="userSpaceOnUse" color-interpolation-filters="sRGB"><feFlood flood-opacity="0" result="BackgroundImageFix"/><feColorMatrix in="SourceAlpha" values="0 0 0 0 0 0 0 0 0 0 0 0 0 0 0 0 0 0 127 0" result="hardAlpha"/><feOffset dy="7"/><feGaussianBlur stdDeviation="15"/><feComposite in2="hardAlpha" operator="out"/><feColorMatrix values="0 0 0 0 0.0258131 0 0 0 0 0.0914149 0 0 0 0 0.189818 0 0 0 0.6 0"/><feBlend in2="BackgroundImageFix" result="effect1_dropShadow_2030_1423"/><feBlend in="SourceGraphic" in2="effect1_dropShadow_2030_1423" result="shape"/></filter><filter id="filter1_d_2030_1423" x="538.508" y="-13.59" width="1129.35" height="1333.18" filterUnits="userSpaceOnUse" color-interpolation-filters="sRGB"><feFlood flood-opacity="0" result="BackgroundImageFix"/><feColorMatrix in="SourceAlpha" values="0 0 0 0 0 0 0 0 0 0 0 0 0 0 0 0 0 0 127 0" result="hardAlpha"/><feOffset dy="7"/><feGaussianBlur stdDeviation="15"/><feComposite in2="hardAlpha" operator="out"/><feColorMatrix values="0 0 0 0 0.0258131 0 0 0 0 0.0914149 0 0 0 0 0.189818 0 0 0 0.6 0"/><feBlend in2="BackgroundImageFix" result="effect1_dropShadow_2030_1423"/><feBlend in="SourceGraphic" in2="effect1_dropShadow_2030_1423" result="shape"/></filter><filter id="filter2_d_2030_1423" x=".125" y="157.547" width="1129.35" height="468.453" filterUnits="userSpaceOnUse" color-interpolation-filters="sRGB"><feFlood flood-opacity="0" result="BackgroundImageFix"/><feColorMatrix in="SourceAlpha" values="0 0 0 0 0 0 0 0 0 0 0 0 0 0 0 0 0 0 127 0" result="hardAlpha"/><feOffset dy="7"/><feGaussianBlur stdDeviation="15"/><feComposite in2="hardAlpha" operator="out"/><feColorMatrix values="0 0 0 0 0.0258131 0 0 0 0 0.0914149 0 0 0 0 0.189818 0 0 0 0.6 0"/><feBlend in2="BackgroundImageFix" result="effect1_dropShadow_2030_1423"/><feBlend in="SourceGraphic" in2="effect1_dropShadow_2030_1423" result="shape"/></filter></defs></svg>