<svg width="2289" height="2241" fill="none" xmlns="http://www.w3.org/2000/svg"><path d="M2090.41 729.478c93.5 208.921 111.44 432.232 62.44 637.352l104.6 33.2c55.86-227.81 37.98-478.653-65.18-712.614-42.7-95.432-96.16-180.313-158.92-258.301l-80.9 71.606c53.64 67.999 101.03 146.222 137.96 228.757zM727.046 186.211c39.178-16.177 77.627-30.526 116.502-40.467L817.967 40.183c-46.711 13.176-91.538 27.103-136.668 47.266-62.685 25.885-118.566 56.6-173.293 89.894l65.488 87.555c49.504-31.138 99.432-57.866 153.552-78.687zM1860.53 1864.94l71.44 83.57c129.86-117.8 227.89-265.23 287.52-425.84l-104.6-33.21c-54.23 141.57-140.48 270.39-254.36 375.48zm1.21-1459.7l80.91-71.606c-261.59-252.585-631.89-374.707-996.036-320.6l25.583 105.562c324.113-46.748 656.023 62.198 889.543 286.644zM469.373 339.966l-65.487-87.554C87.435 509.907-61.898 922.999 24.086 1326.02l106.177-25.51c-73.892-362.176 59.104-728.795 339.11-960.544zM1562.05 2055.42c-287.31 118.63-601.714 97.19-864.864-30.98l-54.421 92.76c291.825 143.84 641.885 168.89 963.145 36.23 80.97-33.43 156.59-75.36 223.53-122.86L1758 1947c-58.38 42.44-122.82 78.22-195.95 108.42zM198.695 1512.15c-12.698-28.37-23.513-55.99-33.598-85.44l-106.176 25.51c10.51 33.86 25.516 67.39 40.524 100.92 94.654 211.5 246.949 382.38 431.256 500.33l54.419-92.75c-166.204-108.62-302.158-260.28-386.425-448.57z" fill="#54A7A1" fill-opacity=".1"/><path d="M453.582 1639.15c-14.457-18.47-27.03-36.2-40.763-56.51l-96.512 50.55c14.882 22.89 31.651 46.52 51.026 69.08 123.629 155.23 284.602 266 460.763 327.71l28.053-103.26c-152.832-54.54-293.4-150.82-402.567-287.57zm146.23-1204.818c25.269-19.604 51.692-36.627 79.995-52.895l-50.971-96.607c-33.527 18.427-64.021 40.19-95.241 63.777-43.124 31.559-82.056 69.024-118.378 105.414l86.261 68.28c29.639-30.572 63.776-61.478 98.334-87.969zM417.887 622.507l-86.261-68.28c-201.097 280.143-233.2 650.943-78.462 969.033l96.517-50.55c-132.2-281.56-103.676-605.042 68.206-850.203zM1568.22 375.168l59.34-88.675c-269.05-151.712-597.36-176.575-883.941-59.767l50.972 96.604c251.889-100.958 538.179-80.13 773.629 51.838zm267.29 227.308c120.59 151.895 181.1 328.596 187.25 504.834l111.04 6.09c-4.94-201.179-75.11-402.921-211.31-575.872-53.64-68-115.42-126.526-182-178.487l-59.34 88.677c54.85 43.051 107.95 95.996 154.36 154.758zm61.86 978.324l90.33 63.55c77.67-123.76 125.96-261.35 141.19-403.62l-111.04-6.11c-13.6 121.74-54.59 241.04-120.48 346.18zm-208.1 226.49c-205.9 155.32-463.63 205.2-703.748 156.15l-28.059 103.26c271.707 57.4 566.127 3.06 800.637-174.76 56.49-43.19 108.78-92.28 153.55-144.38l-90.33-63.55c-39.23 43.71-84.12 85.16-132.05 123.28zM653.656 1629.87c-17.799-15.57-32.985-32.22-48.176-48.87l-88.133 62.37c19.379 22.56 39.488 43.29 62.205 62.93 31.836 29.64 65.128 55.62 99.143 79.77l54.419-92.75c-27.217-19.33-53.702-40.48-79.458-63.45z" fill="#54A7A1" fill-opacity=".1"/><path d="M1675.79 1611.18c-10.76 10.56-21.5 21.11-32.26 31.65l68.1 86.48c14.1-13.45 30.8-27.99 44.89-41.45 111.88-116.48 180.75-256.47 208.32-402.31l-110.01-14.16c-25.2 123.47-85.32 241.51-179.04 339.79zm-829.442 148.45l-54.421 92.75c261.993 125.59 574.453 108.11 816.743-45.41l-68.1-86.49c-206.57 129.62-470.75 140.91-694.222 39.15zM1636.15 609.924c156.12 144.862 233.71 338.958 231.41 530.906l110.01 14.16c4.54-224.952-85.44-453.663-266.59-623.334-42.83-40.376-88.57-73.438-135.77-102.844l-48.77 95.009c37.78 25.652 74.11 54.964 109.71 86.103zM460.563 876.875l-101.383-46.76c-83.563 231.615-57.302 494.275 80.117 707.975l88.133-62.36c-113.423-180.84-136.583-402-66.867-598.855zm947.127-410.968l48.77-95.008c-110.38-46.101-226.46-66.926-343.02-64.631l13.98 107.297c94.09-.655 189.88 16.323 280.27 52.342zM614.029 628.61c104.468-108.837 239.007-178.146 380.417-204.45l-13.983-107.297c-166.492 29.025-324.539 108.041-447.897 236.903-47.8 48.767-86.916 103.121-118.497 160.472l101.385 46.754c25.326-47.127 58.183-91.253 98.575-132.382z" fill="#54A7A1" fill-opacity=".1"/><path d="M1686.02 1295.26l101.39 46.75c70.32-209.33 29.37-446.059-111.76-623.095l-79.75 74.186c110.75 143.738 144.42 333.049 90.12 502.159zM594.75 972.728l-103.568-41.27c-21.921 82.392-29.933 168.212-18.08 253.462l108.485-20.35c-7.112-64.29-3.349-128.49 13.163-191.842zm207.668 585.022c-93.797-71.28-157.098-164.33-193.127-265.58l-106.602 21.11c41.196 126.61 120.11 240.71 235.467 329.07 41.98 31.55 86.137 57.63 132.487 78.22l34.432-102.84c-36.93-16.84-70.525-36.58-102.657-59.98zm226.512 105.1l-34.431 102.83c190.981 46.44 395.621 9.3 555.911-102.73l-74.78-80.66c-129.5 84.03-294.11 113.81-446.7 80.56zm567.56-197.7c-8.14 9.47-16.27 18.95-24.41 28.42l74.78 80.66c12.21-14.21 26.3-27.67 37.35-44.46 18.46-24.43 34.32-47.78 49.01-73.72l-101.38-46.75c-8.74 21.94-21.68 37.98-35.35 55.85zM692.593 776.48c97.543-124.319 239.189-195.03 388.977-209.518l-.49-108.281c-182.41 14.202-358.014 98.94-477.36 250.592-25.875 32.078-48.711 67.481-65.899 105.141l103.569 41.269c13.546-28.515 30.858-55.524 51.203-79.203zm794.087-92.602c4.92 4.082 11.72 8.907 16.64 12.987l79.75-74.184c-9.84-8.158-19.68-16.318-29.52-24.479-101.75-78.693-221.12-124.137-340.11-137.646l.5 108.28c94.63 14.4 190.67 52.668 272.74 115.042z" fill="#54A7A1" fill-opacity=".1"/></svg>