<svg width="144" height="25" fill="none" xmlns="http://www.w3.org/2000/svg"><path d="M11.215 3.105a1.5 1.5 0 012.57 0L15.75 6.37c.305.508.78.888 1.335 1.077l.243.07 3.711.859a1.5 1.5 0 01.794 2.444l-2.497 2.876a2.501 2.501 0 00-.603 1.856l.33 3.794a1.5 1.5 0 01-2.08 1.51l-3.506-1.485a2.502 2.502 0 00-1.952 0l-3.506 1.485a1.5 1.5 0 01-2.08-1.51l.33-3.794a2.5 2.5 0 00-.448-1.656l-.155-.2-2.497-2.876a1.5 1.5 0 01.794-2.444l3.71-.86A2.501 2.501 0 009.252 6.37l1.964-3.264zm60 0a1.5 1.5 0 012.57 0L75.75 6.37c.305.508.78.888 1.335 1.077l.243.07 3.711.859a1.5 1.5 0 01.794 2.444l-2.497 2.876a2.501 2.501 0 00-.603 1.856l.33 3.794a1.5 1.5 0 01-2.08 1.51l-3.506-1.485a2.502 2.502 0 00-1.952 0l-3.506 1.485a1.5 1.5 0 01-2.08-1.51l.33-3.794a2.5 2.5 0 00-.448-1.656l-.155-.2-2.497-2.876a1.5 1.5 0 01.794-2.444l3.71-.86a2.501 2.501 0 001.579-1.146l1.964-3.264zm-30 0a1.5 1.5 0 012.57 0L45.75 6.37c.305.508.78.888 1.335 1.077l.243.07 3.711.859a1.5 1.5 0 01.794 2.444l-2.497 2.876a2.501 2.501 0 00-.603 1.856l.33 3.794a1.5 1.5 0 01-2.08 1.51l-3.506-1.485a2.502 2.502 0 00-1.952 0l-3.506 1.485a1.5 1.5 0 01-2.08-1.51l.33-3.794a2.5 2.5 0 00-.448-1.656l-.155-.2-2.497-2.876a1.5 1.5 0 01.794-2.444l3.71-.86a2.501 2.501 0 001.579-1.146l1.964-3.264zm59 0a1.5 1.5 0 012.57 0l1.964 3.264c.305.508.78.888 1.335 1.077l.243.07 3.711.859a1.5 1.5 0 01.794 2.444l-2.497 2.876a2.503 2.503 0 00-.603 1.856l.33 3.794a1.5 1.5 0 01-2.08 1.51l-3.506-1.485a2.504 2.504 0 00-1.952 0l-3.506 1.485a1.5 1.5 0 01-2.08-1.51l.33-3.794a2.5 2.5 0 00-.448-1.656l-.155-.2-2.497-2.876a1.5 1.5 0 01.794-2.444l3.71-.86a2.501 2.501 0 001.579-1.146l1.964-3.264zm30 0a1.5 1.5 0 012.57 0l1.964 3.264c.305.508.78.888 1.335 1.077l.243.07 3.711.859a1.5 1.5 0 01.794 2.444l-2.497 2.876a2.503 2.503 0 00-.603 1.856l.33 3.794a1.5 1.5 0 01-2.08 1.51l-3.506-1.485a2.504 2.504 0 00-1.952 0l-3.506 1.485a1.5 1.5 0 01-2.08-1.51l.33-3.794a2.503 2.503 0 00-.448-1.656l-.155-.2-2.497-2.876a1.5 1.5 0 01.794-2.444l3.711-.86a2.502 2.502 0 001.578-1.146l1.964-3.264z" stroke="#00A48A"/></svg>