<svg width="860" height="823" fill="none" xmlns="http://www.w3.org/2000/svg"><mask id="a" fill="#fff"><path fill-rule="evenodd" clip-rule="evenodd" d="M0 26C0 11.64 11.64 0 26 0h808c14.359 0 26 11.64 26 26v622.005a27.69 27.69 0 00-.5-.005c-14.636 0-26.5 11.864-26.5 26.5s11.864 26.5 26.5 26.5c.167 0 .334-.002.5-.005V797c0 14.359-11.641 26-26 26H26c-14.36 0-26-11.641-26-26v-96.005c14.405-.266 26-12.026 26-26.495 0-14.469-11.595-26.229-26-26.495V26z"/></mask><path fill-rule="evenodd" clip-rule="evenodd" d="M0 26C0 11.64 11.64 0 26 0h808c14.359 0 26 11.64 26 26v622.005a27.69 27.69 0 00-.5-.005c-14.636 0-26.5 11.864-26.5 26.5s11.864 26.5 26.5 26.5c.167 0 .334-.002.5-.005V797c0 14.359-11.641 26-26 26H26c-14.36 0-26-11.641-26-26v-96.005c14.405-.266 26-12.026 26-26.495 0-14.469-11.595-26.229-26-26.495V26z" fill="#fff"/><path d="M860 648.005l-.055 2.999 3.055.056v-3.055h-3zm0 52.99h3v-3.055l-3.055.056.055 2.999zm-860 0l-.056-2.999-2.944.054v2.945h3zm0-52.99h-3v2.945l2.944.054.056-2.999zM26-3C9.984-3-3 9.984-3 26h6C3 13.297 13.297 3 26 3v-6zm808 0H26v6h808v-6zm29 29c0-16.016-12.984-29-29-29v6c12.703 0 23 10.297 23 23h6zm0 622.005V26h-6v622.005h6zM859.5 651c.148 0 .296.001.445.004l.11-5.999a34.025 34.025 0 00-.555-.005v6zM836 674.5c0-12.979 10.521-23.5 23.5-23.5v-6c-16.292 0-29.5 13.208-29.5 29.5h6zm23.5 23.5c-12.979 0-23.5-10.521-23.5-23.5h-6c0 16.292 13.208 29.5 29.5 29.5v-6zm.445-.004c-.149.003-.297.004-.445.004v6c.186 0 .371-.002.555-.005l-.11-5.999zM863 797v-96.005h-6V797h6zm-29 29c16.016 0 29-12.984 29-29h-6c0 12.703-10.297 23-23 23v6zm-808 0h808v-6H26v6zm-29-29c0 16.016 12.984 29 29 29v-6c-12.703 0-23-10.297-23-23h-6zm0-96.005V797h6v-96.005h-6zM23 674.5c0 12.83-10.283 23.26-23.056 23.496l.112 5.999C16.092 703.698 29 690.607 29 674.5h-6zM-.056 651.004C12.717 651.24 23 661.67 23 674.5h6c0-16.107-12.908-29.198-28.944-29.495l-.112 5.999zM-3 26v622.005h6V26h-6z" fill="url(#paint0_linear_274_915)" mask="url(#a)"/><defs><linearGradient id="paint0_linear_274_915" x1="430" y1="-15" x2="430" y2="823" gradientUnits="userSpaceOnUse"><stop stop-color="#2B2826"/><stop offset="1" stop-color="#1CAB98"/></linearGradient></defs></svg>