<svg width="46" height="46" fill="none" xmlns="http://www.w3.org/2000/svg"><g clip-path="url(#clip0_1000_2363)" fill="#fff"><path d="M41.144 4.391c-.005-.856-1.046-1.284-1.653-.68l-2.023 2.023c-7.644-6.616-19.781-7.018-27.82-.875h3.598C20.672.734 30.64 1.943 36.86 7.774a.965.965 0 001.337-.031l1.011-1.011v8.144h-8.145l1.495-1.494c.395-.379.37-1.07-.053-1.418-4.224-3.716-10.629-4.588-15.69-2.148v2.176c4.179-2.413 9.737-2.086 13.606.789-.003.004-2.38 2.379-2.382 2.383-.606.572-.145 1.676.688 1.648h11.449a.968.968 0 00.968-.968V4.391z"/><path d="M40.266 37.468c6.616-7.644 7.017-19.781.875-27.82v3.597c4.125 7.427 2.916 17.396-2.915 23.615a.968.968 0 00.03 1.337l1.012 1.011h-8.145v-8.145l1.495 1.495c.378.395 1.07.37 1.417-.053 3.716-4.224 4.59-10.629 2.148-15.69h-2.178c2.416 4.178 2.09 9.736-.786 13.606l-2.38-2.379c-.6-.605-1.655-.173-1.651.685v11.449c0 .534.433.968.967.968h11.45c.855.003 1.29-1.05.684-1.653l-2.023-2.023z"/><path d="M23.001 43.588a20.513 20.513 0 01-13.858-5.362.968.968 0 00-1.336.03l-1.012 1.012v-8.145h8.145l-1.494 1.495c-.395.378-.37 1.07.052 1.417 4.225 3.716 10.63 4.59 15.691 2.148v-2.175c-4.18 2.413-9.737 2.086-13.607-.79l2.38-2.378c.604-.6.172-1.656-.685-1.652H5.827a.968.968 0 00-.967.967v11.45c-.028.836 1.08 1.295 1.652.684l2.023-2.023c7.645 6.616 19.782 7.017 27.82.875h-3.598c-2.973 1.608-6.293 2.447-9.756 2.447z"/><path d="M2.411 23.001A20.514 20.514 0 017.773 9.143a.968.968 0 00-.03-1.336L6.732 6.795h8.144v8.145l-1.494-1.494c-.378-.395-1.07-.37-1.418.052-3.716 4.225-4.588 10.63-2.148 15.691h2.178c-2.415-4.179-2.089-9.737.787-13.607l2.379 2.38c.6.604 1.656.172 1.652-.685V5.827a.968.968 0 00-.968-.967H4.395C3.56 4.832 3.1 5.94 3.711 6.512l2.023 2.023c-6.616 7.645-7.018 19.782-.875 27.82v-3.597C3.25 29.785 2.41 26.465 2.41 23.001zm23.075-.407a3.08 3.08 0 00.622-1.858 3.099 3.099 0 00-3.096-3.095 3.099 3.099 0 00-3.095 3.095c0 .697.231 1.34.62 1.858a4.76 4.76 0 00-2.283 4.062v.766c0 .534.433.967.967.967h7.582a.967.967 0 00.967-.967v-.766a4.76 4.76 0 00-2.284-4.062zm-2.474-3.02c.64 0 1.162.521 1.162 1.162a1.163 1.163 0 01-2.324 0c0-.64.521-1.162 1.162-1.162zm-2.817 6.881a2.829 2.829 0 012.817-2.623 2.83 2.83 0 012.818 2.623h-5.635z"/></g><defs><clipPath id="clip0_1000_2363"><path fill="#fff" transform="translate(.5 .5)" d="M0 0h45v45H0z"/></clipPath></defs></svg>