<svg width="46" height="46" fill="none" xmlns="http://www.w3.org/2000/svg"><g clip-path="url(#clip0_1000_2471)" fill="#fff"><path d="M44.751 10.381l-1.334-.553c-.214-.713-.5-1.402-.854-2.058l.553-1.333a.967.967 0 00-.21-1.054L40.463 2.94a.967.967 0 00-1.053-.21l-1.336.554a10.974 10.974 0 00-2.058-.853l-.552-1.333A.967.967 0 0034.571.5h-3.456a.967.967 0 00-.893.597l-.553 1.334c-.713.214-1.402.5-2.058.854l-1.333-.553a.967.967 0 00-1.054.21l-2.076 2.075 1.367 1.367 1.62-1.618 1.172.486a.967.967 0 00.867-.064 9.043 9.043 0 012.443-1.013.967.967 0 00.658-.568l.486-1.173h2.164l.485 1.172a.967.967 0 00.658.568c.859.215 1.68.556 2.443 1.012a.97.97 0 00.866.064l1.175-.487 1.53 1.53-.486 1.173a.967.967 0 00.064.867 9.042 9.042 0 011.013 2.443.97.97 0 00.568.658l1.173.486v2.164l-1.172.485a.966.966 0 00-.568.658 9.042 9.042 0 01-1.012 2.443.967.967 0 00-.064.866l.487 1.175-1.623 1.623 1.367 1.368 2.08-2.08a.967.967 0 00.21-1.054l-.553-1.335c.353-.656.639-1.345.852-2.058l1.333-.552a.967.967 0 00.597-.893v-3.456a.967.967 0 00-.597-.893z"/><path d="M32.846 7.387a5.622 5.622 0 00-5.615 5.615 5.62 5.62 0 004.551 5.514l.365-1.898a3.684 3.684 0 01-2.983-3.616 3.686 3.686 0 013.682-3.682 3.686 3.686 0 013.681 3.682 3.68 3.68 0 01-3.005 3.62l.352 1.901a5.613 5.613 0 004.587-5.521 5.622 5.622 0 00-5.615-5.615z"/><path d="M44.533 21.348h-7.628l-2.36-4.249a.967.967 0 00-.846-.497h-8.422V6.858a.966.966 0 00-.283-.683L19.603.783a.966.966 0 00-.684-.282V.5H1.467a.967.967 0 00-.967.967v28.75c0 .535.433.968.967.968H12.51v13.348c0 .534.433.967.967.967h31.056a.967.967 0 00.967-.967V22.315a.967.967 0 00-.967-.967zm-.967 6.57l-11.66 1.643V27.88a.967.967 0 00-.967-.967H27.07a.967.967 0 00-.966.967v1.698l-11.66-1.658v-4.64h29.122v4.637zm-13.594.928v3.691h-1.934v-3.691h1.934zm4.721-7.498H23.317l1.562-2.813h8.252l1.562 2.813zM19.886 3.8l2.09 2.09h-2.09V3.8zM2.434 29.25V2.434h15.518v4.424c0 .534.433.967.967.967h4.425v9.493l-2.24 4.03h-7.627a.967.967 0 00-.967.967v6.936H2.434zm12.01 14.315V29.872l11.66 1.659v1.973c0 .534.433.967.967.967h3.867a.967.967 0 00.967-.967v-1.99l11.661-1.644v13.696H14.444z"/><path d="M8.033 11.688h9.711a.967.967 0 000-1.934h-9.71a.967.967 0 000 1.934zm10.677 6.767a.967.967 0 00-.966-.967h-9.71a.967.967 0 100 1.934h9.71a.967.967 0 00.967-.967zm2.093-3.867a.967.967 0 00-.967-.967H5.943a.967.967 0 000 1.934h13.893a.967.967 0 00.967-.967z"/></g><defs><clipPath id="clip0_1000_2471"><path fill="#fff" transform="translate(.5 .5)" d="M0 0h45v45H0z"/></clipPath></defs></svg>