<svg width="46" height="46" fill="none" xmlns="http://www.w3.org/2000/svg"><g clip-path="url(#clip0_1000_2484)" stroke="#fff" stroke-width="1.934" stroke-miterlimit="10" stroke-linejoin="round"><path d="M23.001 33.027l-2.708 11.508-2.913-3.395-4.122 1.739 2.725-11.582m7.021 1.73l2.708 11.508 2.914-3.395 4.121 1.739-2.725-11.582"/><path d="M27.81 13.848a1.934 1.934 0 00-2.735 0l-2.986 2.986-1.16-1.16a1.933 1.933 0 10-2.734 2.735l2.03 2.03a2.637 2.637 0 003.729 0l3.856-3.857a1.934 1.934 0 000-2.734z" stroke-linecap="round"/><path d="M38.19 15.043l-.937-1.622v-1.873c0-1.57-.838-3.02-2.197-3.806l-1.623-.936-.936-1.623a4.395 4.395 0 00-3.806-2.197h-1.873l-1.622-.936a4.394 4.394 0 00-4.395 0l-1.622.936h-1.873c-1.57 0-3.02.838-3.806 2.198l-.936 1.622-1.623.936a4.395 4.395 0 00-2.197 3.806v1.873l-.936 1.622a4.394 4.394 0 000 4.395l.936 1.622v1.873c0 1.57.838 3.021 2.197 3.806l1.623.936.936 1.623a4.395 4.395 0 003.806 2.197h1.873l1.622.936a4.395 4.395 0 004.395 0l1.622-.936h1.873c1.57 0 3.02-.838 3.806-2.198l.936-1.622 1.623-.936a4.395 4.395 0 002.197-3.806V21.06l.936-1.622a4.395 4.395 0 000-4.395z" stroke-linecap="round"/><path d="M22.998 28.109c6.002 0 10.868-4.867 10.868-10.87 0-6.002-4.866-10.868-10.868-10.868-6.003 0-10.87 4.866-10.87 10.869s4.867 10.869 10.87 10.869z" stroke-linecap="round"/></g><defs><clipPath id="clip0_1000_2484"><path fill="#fff" transform="translate(.5 .5)" d="M0 0h45v45H0z"/></clipPath></defs></svg>