<svg width="46" height="46" fill="none" xmlns="http://www.w3.org/2000/svg"><g clip-path="url(#clip0_1000_2496)" fill="#fff"><path d="M21.892 40.847H8.24a2.728 2.728 0 01-2.724-2.724v-2.95A2.728 2.728 0 018.24 32.45h13.652a2.728 2.728 0 012.724 2.725v2.949a2.728 2.728 0 01-2.724 2.724zM8.24 34.383a.792.792 0 00-.79.79v2.95c0 .436.354.79.79.79h13.652a.792.792 0 00.79-.79v-2.95a.792.792 0 00-.79-.79H8.24z"/><path d="M44.959 38.568l-.69-4.444a1.96 1.96 0 00-1.947-1.667h-3.337v-1.776c0-1.241.357-2.399 1.03-3.348a5.259 5.259 0 00.974-3.06 5.252 5.252 0 00-1.623-3.816 5.25 5.25 0 00-2.706-1.391V3.225A2.728 2.728 0 0033.935.5H3.748a2.728 2.728 0 00-2.725 2.725v39.55A2.728 2.728 0 003.748 45.5h30.187a2.728 2.728 0 002.725-2.725V40.84h6.353a1.967 1.967 0 001.946-2.272zm-5.904-14.295c0 .7-.213 1.372-.617 1.94-.907 1.279-1.386 2.824-1.386 4.468v1.776h-2.717v-1.776c0-1.586-.493-3.15-1.426-4.524a3.338 3.338 0 01-.575-2.02 3.373 3.373 0 013.227-3.224 3.34 3.34 0 012.464.937c.664.64 1.03 1.5 1.03 2.423zm-4.329 18.502a.792.792 0 01-.79.791H3.747a.792.792 0 01-.791-.79V3.224c0-.437.355-.791.791-.791h30.187a.79.79 0 01.791.79v15.842c-2.386.445-4.227 2.51-4.324 4.996a5.257 5.257 0 00.907 3.181c.714 1.052 1.092 2.24 1.092 3.438v1.776h-3.337a1.96 1.96 0 00-1.946 1.667l-.69 4.444a1.967 1.967 0 001.945 2.272h6.353v1.935zm8.314-3.88c-.01.011-.02.011-.027.011h-14.64c-.006 0-.016 0-.027-.012a.034.034 0 01-.008-.029l.69-4.444a.035.035 0 01.036-.03h13.258c.018 0 .033.013.035.03l.691 4.444a.032.032 0 01-.008.03z"/><path d="M7.623 7.832h11.218a.967.967 0 000-1.934H7.623a.967.967 0 000 1.934zm0 5.668H28.86a.967.967 0 100-1.934H7.623a.967.967 0 000 1.934zm0 4.293H28.86a.967.967 0 100-1.934H7.623a.967.967 0 100 1.934zm0 6.055h19.225a.967.967 0 000-1.934H7.623a.967.967 0 100 1.934zm16.565 2.359H7.623a.967.967 0 000 1.934h16.565a.967.967 0 100-1.934z"/></g><defs><clipPath id="clip0_1000_2496"><path fill="#fff" transform="translate(.5 .5)" d="M0 0h45v45H0z"/></clipPath></defs></svg>