<svg width="44" height="46" fill="none" xmlns="http://www.w3.org/2000/svg"><path d="M40.666 22.405a3.57 3.57 0 00-5.016.014l-6.35 6.336a3.705 3.705 0 00-.706-1.014 3.586 3.586 0 00-2.579-1.09h-3.118a6.11 6.11 0 01-3.119-.858 8.344 8.344 0 00-4.257-1.17c-2.44 0-4.728.95-6.444 2.676-.853.858-1.85 1.858-2.835 2.846l-.096-.095a.967.967 0 00-1.367 0L.701 34.128a.967.967 0 000 1.367l9.723 9.723a.964.964 0 001.367 0l4.078-4.078a.967.967 0 000-1.367l-.081-.082a2.302 2.302 0 011.365-.445h8.617a7.402 7.402 0 005.257-2.17l9.651-9.613a3.536 3.536 0 001.049-2.531 3.535 3.535 0 00-1.06-2.527zM11.108 43.167l-8.356-8.355 2.71-2.711 8.356 8.355-2.71 2.711zm28.206-17.073l-9.651 9.611a5.481 5.481 0 01-3.893 1.608h-8.616a4.22 4.22 0 00-2.742 1.002l-6.803-6.802 2.84-2.85a7.102 7.102 0 015.072-2.106c1.149 0 2.28.31 3.27.899a8.045 8.045 0 004.106 1.128h3.118c.45 0 .875.181 1.198.51.326.333.505.773.505 1.24 0 .44-.17.855-.481 1.171a1.594 1.594 0 01-1.142.486h-6.867a.967.967 0 000 1.933l6.866.001a3.51 3.51 0 002.522-1.065 3.595 3.595 0 00.916-1.605l7.484-7.467a1.632 1.632 0 012.293-.007c.311.308.483.718.484 1.155.001.438-.17.849-.48 1.158z" fill="#fff"/><path fill-rule="evenodd" clip-rule="evenodd" d="M17.469 10.93c-.6.601-1.414.94-2.262.94h-2.204v.55h2.01a.691.691 0 010 1.385h-2.01v.856a.691.691 0 11-1.381 0v-.856h-.853a.691.691 0 010-1.385h.853v-.55h-.853a.691.691 0 010-1.385h.853v-4.34c0-.382.309-.692.69-.692h2.895c.848 0 1.662.338 2.262.94a3.213 3.213 0 010 4.537zm-.444-2.269c0 .484-.192.948-.533 1.29-.34.342-.803.534-1.285.534h-2.204V6.838h2.204c.482 0 .944.192 1.285.534.341.342.533.806.533 1.29z" fill="#fff"/><path d="M14.143 20.363c-5.477 0-9.932-4.455-9.932-9.931C4.21 4.955 8.666.5 14.143.5c5.476 0 9.931 4.455 9.931 9.932 0 5.476-4.455 9.931-9.931 9.931zm0-17.93c-4.41 0-7.998 3.588-7.998 7.999 0 4.41 3.587 7.998 7.998 7.998 4.41 0 7.998-3.588 7.998-7.998s-3.588-7.998-7.998-7.998zm28.46 6.829h-2.762a.967.967 0 100 1.933h.428l-4.646 4.647-3.395-3.395a.967.967 0 00-1.368 0l-9.882 9.882a.967.967 0 001.368 1.367l9.198-9.198 3.395 3.395a.967.967 0 001.367 0l5.33-5.33v.428a.967.967 0 101.934 0v-2.762a.967.967 0 00-.967-.967z" fill="#fff"/></svg>