<svg width="47" height="47" fill="none" xmlns="http://www.w3.org/2000/svg"><g clip-path="url(#clip0_1000_2410)" stroke="#fff" stroke-width="1.955" stroke-miterlimit="10" stroke-linecap="round" stroke-linejoin="round"><path d="M4.484 39.252V15.718c0-1.063.862-1.925 1.926-1.925h2.353m29.428 0h2.405c1.064 0 1.926.862 1.926 1.926v23.533m1.56.451H2.924c-.66 0-1.194.534-1.194 1.194v.456a3.92 3.92 0 003.92 3.92h35.706a3.92 3.92 0 003.92-3.92v-.456c0-.66-.535-1.194-1.194-1.194z"/><path d="M38.296 16.53c0-8.174-6.625-14.8-14.798-14.8S8.699 8.356 8.699 16.53c0 6.768 4.545 12.476 10.75 14.237l4.049 5.29 4.048-5.29c6.205-1.76 10.75-7.469 10.75-14.238zM8.969 31.672h3.48m-3.48 3.91h8.208m20.855-3.91H34.55m3.478 3.91H29.82"/><path d="M16.26 16.446l-3.51-1.458a.485.485 0 01-.025-.886l10.08-4.819c.441-.21.953-.21 1.394 0l10.08 4.819a.485.485 0 01-.025.886l-3.51 1.458"/><path d="M30.746 22.018v-5.57l-1.268-.519a15.77 15.77 0 00-11.949 0l-1.267.52v5.57h14.484zm3.809-7.468v4.307"/></g><defs><clipPath id="clip0_1000_2410"><path fill="#fff" transform="translate(.75 .75)" d="M0 0h45.5v45.5H0z"/></clipPath></defs></svg>