<svg width="46" height="46" fill="none" xmlns="http://www.w3.org/2000/svg"><g clip-path="url(#clip0_1000_2441)" fill="#fff"><path d="M42.834 3.171A9.06 9.06 0 0036.383.5a9.06 9.06 0 00-6.448 2.671L24.25 8.857l1.367 1.367 5.686-5.686a7.139 7.139 0 015.082-2.104 7.14 7.14 0 015.081 2.104c2.802 2.802 2.802 7.361 0 10.163l-5.686 5.686 1.368 1.368 5.685-5.686c3.556-3.556 3.556-9.342 0-12.898z"/><path d="M38.112 21.353l-13.46-13.46a.967.967 0 00-1.368 0L13.138 18.038a.967.967 0 000 1.367l3.118 3.118L1.94 38.03a.967.967 0 00.026 1.34l1.651 1.65-2.83 2.83a.967.967 0 101.367 1.368l2.83-2.83 1.65 1.65a.964.964 0 001.34.027l15.507-14.317 3.118 3.118a.964.964 0 001.368 0l10.145-10.145a.967.967 0 000-1.368zM7.345 42.014L3.991 38.66l1.836-1.989 3.508 3.508-1.99 1.836zm3.412-3.15L7.14 35.249l10.485-11.356 4.488 4.488-11.356 10.485zm16.526-8.049L15.189 18.722l3.706-3.706L30.988 27.11l-3.705 3.705zm5.073-5.072L20.262 13.649l3.706-3.706L36.06 22.037l-3.705 3.706z"/></g><defs><clipPath id="clip0_1000_2441"><path fill="#fff" transform="translate(.5 .5)" d="M0 0h45v45H0z"/></clipPath></defs></svg>