<svg width="46" height="46" fill="none" xmlns="http://www.w3.org/2000/svg"><g clip-path="url(#clip0_1000_2448)" fill="#fff"><path d="M18.803 13.891a.967.967 0 01-.967-.966V1.468c.048-1.28 1.886-1.28 1.934 0v11.457a.967.967 0 01-.967.966zm8.402 0a.967.967 0 01-.967-.966V1.468c.048-1.28 1.887-1.28 1.934 0v11.457a.967.967 0 01-.967.966zm-8.402 30.172a.967.967 0 01-.967-.967V29.988c.048-1.281 1.886-1.28 1.934 0v13.108a.967.967 0 01-.967.967zm8.402-.027a.967.967 0 01-.967-.967V29.988c.048-1.281 1.887-1.28 1.934 0v13.081a.967.967 0 01-.967.967z"/><path d="M23.002 45.5a.97.97 0 01-.25-.033C5.794 41.17 2.577 25.906 2.778 11.095c0-.534.433-.966.967-.966 4.776 0 8.662-3.886 8.662-8.662 0-.534.432-.967.966-.967h19.258c.533 0 .966.433.966.967 0 4.776 3.886 8.662 8.662 8.662.534 0 .967.433.967.966.205 14.812-3.026 30.083-19.974 34.372a.97.97 0 01-.25.033zM4.715 12.018c.1 13.897 2.567 27.17 18.287 31.513 15.72-4.344 18.188-17.616 18.287-31.513-5.07-.462-9.12-4.513-9.582-9.584h-17.41c-.462 5.07-4.511 9.122-9.582 9.584z"/><path d="M34.909 13.278h-2.535V11.62a.967.967 0 00-1.255-.922l-8.115 2.535-8.115-2.535a.966.966 0 00-1.255.922v1.66H11.1a.967.967 0 00-.967.966v15.756c0 .534.433.967.967.967h23.809a.967.967 0 00.966-.967V14.245a.967.967 0 00-.966-.967zM23.97 14.956l6.47-2.022v12.417l-6.47 2.022V14.956zm-1.934 0v12.417l-6.47-2.022V14.377a.897.897 0 000-.263v-1.18l6.47 2.022zm-9.97.256h1.567v10.85c0 .423.275.797.679.923l6.558 2.05h-8.805V15.211zm21.875 13.822h-8.805l6.559-2.05a.967.967 0 00.678-.922v-10.85h1.568v13.822z"/></g><defs><clipPath id="clip0_1000_2448"><path fill="#fff" transform="translate(.5 .5)" d="M0 0h45v45H0z"/></clipPath></defs></svg>