<svg width="46" height="46" fill="none" xmlns="http://www.w3.org/2000/svg"><g clip-path="url(#clip0_1000_2460)" fill="#fff"><path d="M15.102 19.605h-.96L9.627 8.277l-.005-.012-.022-.048c-.006-.013-.012-.027-.02-.04a.326.326 0 00-.024-.04l-.024-.041-.027-.036-.03-.04-.03-.035-.032-.034-.038-.035-.031-.028-.043-.032-.032-.024c-.014-.01-.029-.018-.043-.026l-.04-.023-.04-.02a.484.484 0 00-.047-.021l-.012-.006-.03-.01a.986.986 0 00-.14-.04l-.046-.007a.943.943 0 00-.468.046l-.031.011-.013.006-.044.02-.043.021-.037.022-.045.027-.031.023-.045.033-.03.027-.039.036-.03.033-.032.036-.03.039-.026.037-.025.04c-.008.014-.017.027-.024.041l-.02.04-.022.048-.005.012L3.32 19.605h-.96c-.546 0-1.06.238-1.414.653a1.865 1.865 0 00-.42 1.51 8.311 8.311 0 0013.62 4.973 8.322 8.322 0 002.791-4.973 1.865 1.865 0 00-.42-1.51 1.852 1.852 0 00-1.414-.653zM8.73 11.247l3.33 8.358H5.4l3.33-8.358zm4.155 14.027a6.377 6.377 0 01-8.31 0 6.386 6.386 0 01-2.129-3.735h12.568a6.386 6.386 0 01-2.13 3.735zm32.169-5.016a1.853 1.853 0 00-1.413-.653h-.961L38.167 8.277l-.005-.012a.901.901 0 00-.022-.049l-.02-.039a.436.436 0 00-.024-.041l-.024-.04-.027-.037-.03-.039-.03-.035-.032-.034-.038-.035-.03-.028-.044-.032-.032-.024c-.014-.01-.029-.018-.043-.026l-.04-.023-.04-.02c-.016-.007-.031-.015-.047-.021l-.012-.006-.03-.01a1.092 1.092 0 00-.14-.04.912.912 0 00-.233-.017.969.969 0 00-.188.028l-.047.013a.973.973 0 00-.047.016l-.03.01-.013.006-.045.02-.042.021-.038.022-.044.027-.032.024a.448.448 0 00-.044.032l-.03.028c-.013.012-.027.023-.038.035-.012.011-.022.023-.032.035l-.031.034-.03.04-.026.035c-.01.014-.017.028-.025.041-.008.014-.017.027-.024.041l-.02.04-.022.048-.005.012-4.513 11.328h-.96c-.546 0-1.06.238-1.414.653a1.866 1.866 0 00-.42 1.51 8.311 8.311 0 0013.62 4.973 8.32 8.32 0 002.791-4.973 1.866 1.866 0 00-.42-1.51zm-7.785-9.011l3.33 8.358h-6.66l3.33-8.358zm4.154 14.027a6.377 6.377 0 01-8.309 0 6.386 6.386 0 01-2.129-3.735h12.568a6.386 6.386 0 01-2.13 3.735z"/><path d="M39.972 6.852H26.064A3.231 3.231 0 0023 4.63a3.231 3.231 0 00-3.066 2.223H6.025a.967.967 0 000 1.934h13.748v22.236h-1.958a3.19 3.19 0 00-3.187 3.186v1.015h-.97c-.89 0-1.613.723-1.613 1.611v2.923c0 .888.723 1.611 1.612 1.611H32.34c.89 0 1.612-.723 1.612-1.611v-2.923c0-.888-.723-1.611-1.612-1.611h-.97v-1.015a3.19 3.19 0 00-3.187-3.186h-1.958V8.786h13.747a.967.967 0 000-1.934zM23 6.562a1.294 1.294 0 010 2.585c-.713 0-1.293-.58-1.293-1.292 0-.713.58-1.293 1.293-1.293zm9.02 32.873H13.98v-2.279h18.04v2.279zm-2.583-5.227v1.015H16.562v-1.015c0-.69.562-1.253 1.253-1.253h10.368c.69 0 1.253.562 1.253 1.253zm-7.73-3.186V10.81a3.207 3.207 0 002.585 0v20.212h-2.585z"/></g><defs><clipPath id="clip0_1000_2460"><path fill="#fff" transform="translate(.5 .5)" d="M0 0h45v45H0z"/></clipPath></defs></svg>