<svg width="32" height="32" fill="none" xmlns="http://www.w3.org/2000/svg"><path d="M14.84 28.69H5.133a1.94 1.94 0 01-1.938-1.937v-2.097a1.94 1.94 0 011.938-1.937h9.707a1.94 1.94 0 011.938 1.937v2.097a1.94 1.94 0 01-1.937 1.938zm-9.707-4.596a.563.563 0 00-.563.562v2.097c0 .31.253.563.563.563h9.707c.31 0 .563-.253.563-.563v-2.097a.563.563 0 00-.563-.562H5.133z" fill="#fff"/><path d="M31.243 27.07l-.491-3.16a1.393 1.393 0 00-1.384-1.185h-2.373v-1.263c0-.883.253-1.706.732-2.38a3.74 3.74 0 00.693-2.177c0-1.033-.41-1.996-1.154-2.713a3.734 3.734 0 00-1.924-.99V1.938A1.94 1.94 0 0023.404 0H1.938A1.94 1.94 0 000 1.938v28.125A1.94 1.94 0 001.938 32h21.466a1.94 1.94 0 001.938-1.938v-1.376h4.517a1.399 1.399 0 001.384-1.615zm-4.198-10.165c0 .498-.152.976-.439 1.38-.645.91-.986 2.008-.986 3.177v1.263h-1.932v-1.263c0-1.128-.35-2.24-1.014-3.217a2.373 2.373 0 01-.409-1.436 2.399 2.399 0 012.295-2.293 2.372 2.372 0 011.752.666 2.37 2.37 0 01.733 1.723zm-3.078 13.157c0 .31-.253.563-.563.563H1.938a.563.563 0 01-.563-.563V1.938c0-.31.252-.562.563-.562h21.466c.31 0 .563.252.563.563v11.264a3.784 3.784 0 00-3.076 3.553 3.74 3.74 0 00.646 2.263 4.35 4.35 0 01.776 2.444v1.263H19.94c-.695 0-1.277.499-1.384 1.186l-.49 3.16a1.398 1.398 0 001.383 1.615h4.518v1.377zm5.912-2.76c-.008.01-.015.01-.02.01H19.45c-.005 0-.012 0-.02-.01a.021.021 0 01-.005-.02l.491-3.16a.025.025 0 01.025-.022h9.428c.012 0 .023.01.025.022l.491 3.16a.02.02 0 01-.006.02z" fill="#fff"/><path d="M4.695 5.21h7.977a.688.688 0 000-1.374H4.695a.688.688 0 000 1.375zm0 4.032h15.102a.688.688 0 000-1.375H4.695a.688.688 0 000 1.375zm0 3.055h15.102a.687.687 0 100-1.375H4.695a.688.688 0 000 1.375zm0 4.305h13.671a.688.688 0 000-1.375H4.696a.688.688 0 000 1.375zm11.78 1.679H4.695a.688.688 0 000 1.375h11.78a.687.687 0 000-1.375z" fill="#fff"/></svg>