<svg width="25" height="33" fill="none" xmlns="http://www.w3.org/2000/svg"><path d="M12.225 23.45L10.3 31.631l-2.072-2.414-2.931 1.237 1.938-8.236m4.992 1.232l1.925 8.182 2.072-2.414 2.931 1.237-1.938-8.236" stroke="#fff" stroke-width="1.375" stroke-miterlimit="10" stroke-linejoin="round"/><path d="M15.646 9.809a1.375 1.375 0 00-1.945 0l-2.123 2.123-.824-.824a1.375 1.375 0 00-1.945 1.944l1.443 1.444c.732.732 1.92.732 2.652 0l2.742-2.742a1.375 1.375 0 000-1.945z" stroke="#fff" stroke-width="1.375" stroke-miterlimit="10" stroke-linecap="round" stroke-linejoin="round"/><path d="M23.023 10.658l-.666-1.153V8.173a3.125 3.125 0 00-1.562-2.706L19.64 4.8l-.666-1.154a3.125 3.125 0 00-2.706-1.562h-1.332l-1.154-.666a3.125 3.125 0 00-3.124 0l-1.154.666H8.173a3.125 3.125 0 00-2.706 1.562L4.8 4.801l-1.154.666a3.125 3.125 0 00-1.562 2.706v1.332l-.666 1.153a3.125 3.125 0 000 3.125l.666 1.154v1.332c0 1.116.595 2.148 1.562 2.706l1.154.666.666 1.154a3.125 3.125 0 002.706 1.562h1.332l1.153.666a3.124 3.124 0 003.125 0l1.154-.666h1.332a3.125 3.125 0 002.706-1.562l.666-1.154 1.154-.666a3.125 3.125 0 001.562-2.706v-1.332l.666-1.154a3.125 3.125 0 000-3.125z" stroke="#fff" stroke-width="1.375" stroke-miterlimit="10" stroke-linecap="round" stroke-linejoin="round"/><path d="M12.22 19.95a7.729 7.729 0 100-15.458 7.729 7.729 0 000 15.458z" stroke="#fff" stroke-width="1.375" stroke-miterlimit="10" stroke-linecap="round" stroke-linejoin="round"/></svg>