<svg width="32" height="32" fill="none" xmlns="http://www.w3.org/2000/svg"><path d="M26.68 11.863a.687.687 0 00-.688.688v3.38h1.375v-3.38a.687.687 0 00-.687-.688z" fill="#fff"/><path d="M26.875 7.952c.45-.588.719-1.323.719-2.119a3.495 3.495 0 00-3.492-3.491 3.497 3.497 0 00-3.341 2.48l-2.699-3.747-.002.001a2.483 2.483 0 00-.635-.635 2.534 2.534 0 00-3.476.602l-2.721 3.779A3.497 3.497 0 007.886 2.34a3.495 3.495 0 00-3.491 3.491c0 .796.268 1.53.718 2.119a3.803 3.803 0 00-3.73 3.797v4.245h1.375v-4.245a2.427 2.427 0 012.424-2.424h2.704a3.488 3.488 0 002.836-1.459l.006.004 2.839-3.942 1.937 1.41-4.51 6.834a.687.687 0 00-.114.378v3.445h1.375v-3.238l3.739-5.664 3.739 5.665v3.238h1.375V12.55a.688.688 0 00-.114-.378l-4.176-6.328s1.376-2.095 1.417-2.175l3.026 4.201.005-.004a3.489 3.489 0 002.836 1.459h2.705a2.427 2.427 0 012.424 2.424v4.245h1.375v-4.245a3.803 3.803 0 00-3.73-3.797zM7.886 7.949A2.119 2.119 0 015.77 5.832c0-1.167.95-2.116 2.116-2.116a2.12 2.12 0 012.117 2.116 2.12 2.12 0 01-2.117 2.117zm9.064-4.802l-.688 1.042-1.892-1.378.694-.964a1.152 1.152 0 011.58-.274c.51.351.647 1.057.306 1.574zm7.152 4.803a2.119 2.119 0 01-2.116-2.117c0-1.167.95-2.116 2.116-2.116a2.12 2.12 0 012.117 2.116 2.12 2.12 0 01-2.117 2.117z" fill="#fff"/><path d="M5.313 11.86a.688.688 0 00-.688.687v3.38H6v-3.38a.687.687 0 00-.688-.688z" fill="#fff"/><path d="M31.313 15.309H.688a.688.688 0 00-.688.687c0 4.274 1.664 8.292 4.686 11.314 3.008 3.008 7.062 4.67 11.314 4.685 4.252-.015 8.305-1.677 11.314-4.685A15.895 15.895 0 0032 15.996a.687.687 0 00-.688-.687zM20.41 16.684c-.032 2.168-.216 4.25-.536 6.135h-7.75c-.32-1.885-.504-3.967-.536-6.135h8.822zm-19.02 0h8.823a42.31 42.31 0 00.518 6.135H3.056a14.521 14.521 0 01-1.665-6.135zm4.268 9.653a14.775 14.775 0 01-1.775-2.143h7.101a25.18 25.18 0 00.754 2.847c.506 1.519 1.059 2.592 1.615 3.342a14.519 14.519 0 01-7.695-4.046zM16 30.621c-1.014 0-2.119-1.5-2.957-4.015a23.376 23.376 0 01-.653-2.412h7.22a23.4 23.4 0 01-.653 2.412c-.838 2.514-1.943 4.015-2.957 4.015zm10.341-4.284a14.519 14.519 0 01-7.695 4.046c.556-.75 1.11-1.823 1.615-3.342a25.09 25.09 0 00.754-2.847h7.1a14.767 14.767 0 01-1.774 2.143zm2.603-3.518h-7.676c.31-1.901.487-3.98.518-6.135h8.823a14.52 14.52 0 01-1.665 6.135z" fill="#fff"/></svg>