<svg width="32" height="32" fill="none" xmlns="http://www.w3.org/2000/svg"><path d="M31.464 7.027l-.95-.394a7.804 7.804 0 00-.606-1.463l.393-.948a.688.688 0 00-.15-.75l-1.737-1.737a.687.687 0 00-.749-.15l-.95.394a7.806 7.806 0 00-1.463-.607l-.393-.947A.688.688 0 0024.224 0h-2.457a.688.688 0 00-.635.424l-.394.95a7.804 7.804 0 00-1.463.606l-.948-.393a.687.687 0 00-.75.15l-1.475 1.475.972.972 1.15-1.15.835.345a.69.69 0 00.617-.045 6.43 6.43 0 011.737-.72.688.688 0 00.467-.404l.346-.835h1.539l.345.834c.083.2.257.35.468.403a6.43 6.43 0 011.737.72.688.688 0 00.616.046l.836-.346 1.087 1.088-.345.834a.687.687 0 00.045.616 6.43 6.43 0 01.72 1.737.69.69 0 00.404.468l.835.346v1.538l-.834.346a.687.687 0 00-.403.467 6.426 6.426 0 01-.72 1.738.687.687 0 00-.046.616l.346.835-1.154 1.154.972.973 1.48-1.479a.688.688 0 00.148-.75l-.393-.949c.252-.466.455-.957.607-1.464l.947-.392a.687.687 0 00.425-.635V7.662a.687.687 0 00-.424-.635z" fill="#fff"/><path d="M23 4.898a3.998 3.998 0 00-3.992 3.994 3.996 3.996 0 003.237 3.92l.259-1.35A2.62 2.62 0 0123 6.274a2.621 2.621 0 012.618 2.619 2.616 2.616 0 01-2.137 2.574l.25 1.352a3.992 3.992 0 003.262-3.926A3.998 3.998 0 0023 4.898z" fill="#fff"/><path d="M31.313 14.825h-5.425l-1.678-3.021a.688.688 0 00-.601-.354h-5.99V4.521a.687.687 0 00-.201-.486L13.584.201a.686.686 0 00-.486-.2V0H.688A.688.688 0 000 .688v20.445c0 .38.308.687.688.687H8.54v9.492c0 .38.308.688.688.688h22.084c.38 0 .688-.308.688-.688v-15.8a.687.687 0 00-.688-.687zm-.688 4.672l-8.292 1.169v-1.197a.687.687 0 00-.688-.687h-2.75a.687.687 0 00-.687.687v1.208l-8.293-1.18V16.2h20.71v3.297zm-9.667.66v2.625h-1.375v-2.625h1.375zm3.357-5.332h-8.09l1.111-2h5.868l1.111 2zM13.785 2.347l1.487 1.487h-1.487V2.347zM1.375 20.445V1.375H12.41v3.146c0 .38.308.688.688.688h3.146v6.75l-1.592 2.866H9.228a.688.688 0 00-.688.688v4.932H1.375zm8.54 10.18v-9.738l8.293 1.18v1.402c0 .38.308.688.687.688h2.75c.38 0 .688-.308.688-.688v-1.415l8.292-1.168v9.739H9.915z" fill="#fff"/><path d="M5.36 7.953h6.905a.688.688 0 000-1.375H5.359a.688.688 0 000 1.375zm7.592 4.813a.687.687 0 00-.687-.688H5.359a.688.688 0 000 1.375h6.906c.38 0 .687-.308.687-.687zm1.49-2.75a.688.688 0 00-.688-.688H3.875a.688.688 0 000 1.375h9.88a.688.688 0 00.687-.687z" fill="#fff"/></svg>