<svg width="859" height="887" viewBox="0 0 859 887" fill="none" xmlns="http://www.w3.org/2000/svg">
<g clip-path="url(#clip0_360_5914)">
<path d="M102.377 569.099L71.5576 569.681L55.9506 569.909C50.7344 570.013 45.4975 569.992 40.2605 570.034H39.3461V569.099L39.2422 542.852V541.812H40.2813L71.3498 541.937C81.699 541.958 92.069 542.166 102.418 542.27H103V542.831C102.959 547.278 102.813 551.705 102.73 556.089L102.377 569.099ZM102.377 569.099L102.086 555.84C101.982 551.476 101.857 547.133 101.816 542.831L102.377 543.392C92.0274 543.496 81.6574 543.724 71.3082 543.724L40.2397 543.849L41.2788 542.81L41.1749 569.057L40.2397 568.122C45.3728 568.164 50.485 568.143 55.6181 568.247L71.0588 568.475L102.377 569.099Z" fill="#EBEBEB"/>
<path d="M67.7439 602.208L36.9248 602.79L21.3178 603.019C16.1016 603.123 10.8646 603.102 5.62767 603.143H4.71328V602.208L4.60938 575.961V574.922H5.64845L36.7169 575.047C47.0662 575.067 57.4362 575.275 67.7854 575.379H68.3673V575.94C68.3257 580.387 68.1803 584.814 68.0971 589.199L67.7439 602.208ZM67.7439 602.208L67.4529 588.949C67.349 584.585 67.2243 580.242 67.1828 575.94L67.7439 576.501C57.3946 576.605 47.0246 576.834 36.6754 576.834L5.60689 576.958L6.64597 575.919L6.54206 602.167L5.60689 601.231C10.7399 601.273 15.8522 601.252 20.9853 601.335L36.426 601.564L67.7439 602.208Z" fill="#EBEBEB"/>
<path d="M67.7385 34.1222L36.8987 34.7041L21.2917 34.9327C16.0755 35.0366 10.8385 35.0158 5.60158 35.0573H4.68719V34.1222L4.5625 7.87502V6.83594H5.60158L36.6701 6.96063C47.0193 6.98141 57.3893 7.18922 67.7385 7.29313H68.3204V7.85424C68.2789 12.3015 68.1334 16.728 68.0503 21.1129L67.7385 34.1222ZM67.7385 34.1222L67.4476 20.8635C67.3437 16.4994 67.219 12.156 67.1774 7.85424L67.7385 8.41534C57.3893 8.51925 47.0193 8.74784 36.6701 8.74784L5.60158 8.9141L6.64066 7.87502L6.51597 34.1222L5.5808 33.187C10.7139 33.2286 15.8261 33.2078 20.9592 33.2909L36.3999 33.5195L67.7385 34.1222Z" fill="#EBEBEB"/>
<path d="M853.233 34.1222L822.414 34.7041L806.786 34.9327C801.57 35.0366 796.333 35.0158 791.096 35.0573H790.182V34.1222L790.078 7.87502V6.83594H791.117L822.186 6.96063C832.535 6.98141 842.905 7.18922 853.254 7.29313H853.836V7.85424C853.794 12.3015 853.649 16.728 853.566 21.1129L853.233 34.1222ZM853.233 34.1222L852.942 20.8635C852.839 16.4994 852.714 12.156 852.672 7.85424L853.233 8.41534C842.884 8.51925 832.514 8.74784 822.165 8.74784L791.096 8.87253L792.135 7.83345L792.032 34.0806L791.096 33.1454C796.229 33.187 801.342 33.1662 806.475 33.2493L821.915 33.4779L853.233 34.1222Z" fill="#EBEBEB"/>
<path d="M818.588 67.2289L787.768 67.8108L772.161 68.0394C766.945 68.1433 761.708 68.1225 756.471 68.1433H755.557V67.2081L755.453 40.961V39.9219H756.492L787.561 40.0466C797.91 40.0466 808.28 40.2752 818.629 40.3791H819.211V40.9402C819.169 45.3874 819.024 49.8139 818.941 54.1988L818.588 67.2289ZM818.588 67.2289L818.297 53.9702C818.193 49.6061 818.068 45.2627 818.026 40.961L818.588 41.5221C808.238 41.626 797.868 41.8546 787.519 41.8546L756.451 41.9793L757.49 40.9402L757.386 67.1873L756.451 66.2522C761.584 66.2937 766.696 66.2729 771.829 66.3768L787.27 66.6054L818.588 67.2289Z" fill="#EBEBEB"/>
<path d="M659.444 374.362L628.625 374.944L612.997 375.172C607.781 375.276 602.544 375.255 597.307 375.276H596.393V374.341L596.289 348.094V347.055H597.328L628.397 347.179C638.746 347.2 649.116 347.408 659.465 347.512H660.047V348.073C660.005 352.52 659.86 356.947 659.777 361.332L659.444 374.362ZM659.444 374.362L659.153 361.103C659.049 356.739 658.925 352.396 658.883 348.094L659.444 348.655C649.095 348.759 638.725 348.987 628.376 348.987L597.307 349.112L598.346 348.073L598.243 374.32L597.307 373.385C602.44 373.427 607.553 373.406 612.686 373.489L628.126 373.717L659.444 374.362Z" fill="#EBEBEB"/>
<path d="M624.791 407.466L593.972 408.048L578.365 408.276C573.148 408.38 567.911 408.36 562.675 408.401H561.76V407.466L561.656 381.219V380.18H562.695L593.764 380.304C604.113 380.325 614.483 380.533 624.832 380.637H625.414V381.198C625.373 385.645 625.227 390.072 625.144 394.457L624.791 407.466ZM624.791 407.466L624.5 394.207C624.396 389.843 624.271 385.5 624.23 381.198L624.791 381.759C614.442 381.863 604.071 382.092 593.722 382.092L562.654 382.216L563.693 381.177L563.589 407.424L562.654 406.489C567.787 406.531 572.899 406.51 578.032 406.614L593.473 406.842L624.791 407.466Z" fill="#EBEBEB"/>
<path d="M590.272 374.362L559.453 374.944L543.826 375.172C538.609 375.276 533.372 375.255 528.135 375.276H527.221V374.341L527.117 348.094V347.055H528.156L559.225 347.179C569.574 347.2 579.944 347.408 590.293 347.512H590.875V348.073C590.834 352.52 590.688 356.947 590.605 361.332L590.272 374.362ZM590.272 374.362L589.982 361.103C589.898 356.739 589.753 352.396 589.711 348.094L590.272 348.655C579.923 348.759 569.553 348.987 559.204 348.987L528.135 349.112L529.175 348.073L529.071 374.32L528.135 373.385C533.269 373.427 538.381 373.406 543.514 373.489L558.955 373.717L590.272 374.362Z" fill="#EBEBEB"/>
<path d="M853.233 602.208L822.414 602.79L806.786 603.019C801.57 603.123 796.333 603.102 791.096 603.143H790.182V602.208L790.078 575.961V574.922H791.117L822.186 575.047C832.535 575.067 842.905 575.275 853.254 575.379H853.836V575.94C853.794 580.387 853.649 584.814 853.566 589.199L853.233 602.208ZM853.233 602.208L852.942 588.949C852.839 584.585 852.714 580.242 852.672 575.94L853.233 576.501C842.884 576.605 832.514 576.834 822.165 576.834L791.096 576.958L792.135 575.919L792.032 602.167L791.096 601.231C796.229 601.273 801.342 601.252 806.475 601.335L821.915 601.564L853.233 602.208Z" fill="#EBEBEB"/>
<path d="M325.345 112.2L294.526 112.782L278.919 113.011C273.703 113.115 268.466 113.094 263.229 113.135H262.315V112.2L262.211 85.9531V84.9141H263.25L294.318 85.0387C304.668 85.0595 315.038 85.2674 325.387 85.3713H325.969V85.9324C325.927 90.3796 325.782 94.8061 325.699 99.191L325.345 112.2ZM325.345 112.2L325.054 98.9416C324.951 94.5775 324.826 90.2341 324.784 85.9324L325.345 86.4935C314.996 86.5974 304.626 86.826 294.277 86.826L263.208 86.9507L264.248 85.9116L264.144 112.159L263.208 111.224C268.342 111.265 273.454 111.244 278.587 111.348L294.028 111.577L325.345 112.2Z" fill="#EBEBEB"/>
<path d="M789.393 286.121L801.634 266.399L795.586 262.659C793.82 261.557 792.843 259.542 793.03 257.463C793.134 256.32 793.175 255.157 793.134 253.993C793.092 251.915 794.173 249.961 796.023 248.984L802.278 245.618L791.305 225.148L785.05 228.515C783.221 229.491 780.997 229.325 779.293 228.141C778.337 227.476 777.361 226.873 776.342 226.312C774.514 225.314 773.371 223.402 773.433 221.303L773.662 214.196L750.469 213.469L750.261 220.597C750.199 222.696 748.911 224.504 747.02 225.397C746.5 225.647 746.001 225.896 745.502 226.166C745.004 226.436 744.505 226.727 744.027 227.018C742.24 228.099 740.037 228.161 738.27 227.06L732.181 223.298L719.941 243.02L725.989 246.782C727.755 247.883 728.732 249.899 728.545 251.977C728.441 253.12 728.399 254.284 728.441 255.427C728.482 257.505 727.402 259.438 725.552 260.435L719.297 263.802L730.27 284.272L736.525 280.905C738.354 279.928 740.577 280.095 742.281 281.279C743.237 281.944 744.214 282.547 745.232 283.087C747.061 284.085 748.204 285.997 748.142 288.095L747.913 295.224L771.105 295.951L771.334 288.823C771.396 286.745 772.685 284.937 774.555 284.043C775.075 283.794 775.573 283.544 776.093 283.274C776.592 283.004 777.09 282.713 777.568 282.422C779.356 281.341 781.579 281.279 783.367 282.381L789.393 286.121ZM769.755 271.47C760.507 276.437 748.994 272.966 744.027 263.698C739.06 254.45 742.531 242.916 751.779 237.949C761.026 232.983 772.56 236.474 777.527 245.722C782.494 254.99 779.002 266.503 769.755 271.47Z" fill="#EBEBEB"/>
<path d="M120.87 509.606L133.11 489.884L127.063 486.143C125.296 485.042 124.32 483.026 124.507 480.948C124.61 479.805 124.652 478.641 124.61 477.477C124.569 475.399 125.65 473.446 127.499 472.469L133.754 469.102L122.782 448.632L116.526 451.999C114.698 452.976 112.474 452.81 110.77 451.625C109.814 450.96 108.837 450.357 107.819 449.796C105.99 448.799 104.847 446.887 104.909 444.788L105.138 437.68L81.9458 436.953L81.738 444.081C81.6757 446.18 80.3872 447.988 78.4961 448.882C77.9765 449.131 77.4778 449.381 76.979 449.651C76.4803 449.921 75.9815 450.212 75.5035 450.503C73.7163 451.583 71.5135 451.646 69.747 450.544L63.658 446.783L51.4177 466.505L57.4651 470.266C59.2315 471.367 60.2083 473.383 60.0212 475.461C59.9173 476.604 59.8758 477.768 59.9173 478.911C59.9589 480.989 58.8783 482.922 57.0287 483.92L50.7734 487.286L61.7461 507.756L68.0014 504.389C69.8302 503.413 72.0538 503.579 73.7579 504.763C74.7138 505.428 75.6906 506.031 76.7089 506.571C78.5376 507.569 79.6806 509.481 79.6183 511.58L79.3897 518.708L102.582 519.435L102.811 512.307C102.873 510.229 104.161 508.421 106.032 507.527C106.551 507.278 107.05 507.029 107.57 506.759C108.068 506.488 108.567 506.197 109.045 505.906C110.832 504.826 113.056 504.763 114.843 505.865L120.87 509.606ZM101.21 494.955C91.9626 499.921 80.4496 496.451 75.4828 487.182C70.516 477.934 73.9865 466.401 83.2343 461.434C92.4821 456.467 104.016 459.958 108.983 469.206C113.97 478.475 110.479 489.988 101.21 494.955Z" fill="#EBEBEB"/>
<path d="M358.473 131.837L350.348 117.747L346.046 120.241C344.778 120.969 343.22 120.906 341.994 120.096C341.308 119.659 340.622 119.244 339.895 118.87C338.585 118.205 337.754 116.895 337.754 115.441V110.453H321.482V115.441C321.482 116.895 320.651 118.205 319.342 118.87C318.614 119.244 317.908 119.639 317.243 120.096C316.017 120.885 314.458 120.969 313.19 120.241L308.889 117.747L300.763 131.837L305.086 134.331C306.353 135.059 307.06 136.451 306.977 137.926C306.956 138.321 306.956 138.716 306.956 139.132C306.956 139.527 306.956 139.921 306.977 140.337C307.06 141.792 306.353 143.184 305.086 143.911L300.742 146.426L308.868 160.516L313.19 158.022C314.458 157.295 316.017 157.357 317.243 158.168C317.908 158.604 318.614 159.02 319.342 159.373C320.651 160.038 321.482 161.347 321.482 162.802V167.79H337.754V162.802C337.754 161.347 338.585 160.038 339.895 159.373C340.622 158.999 341.308 158.604 341.994 158.168C343.22 157.357 344.778 157.295 346.046 158.022L350.369 160.516L358.494 146.426L354.172 143.932C352.904 143.205 352.218 141.813 352.281 140.358C352.301 139.963 352.301 139.547 352.301 139.153C352.301 138.758 352.301 138.363 352.281 137.947C352.197 136.492 352.904 135.1 354.172 134.352L358.473 131.837ZM342.929 139.132C342.929 146.488 336.965 152.453 329.608 152.453C322.251 152.453 316.287 146.488 316.287 139.132C316.287 131.775 322.251 125.811 329.608 125.811C336.985 125.79 342.929 131.775 342.929 139.132Z" fill="#EBEBEB"/>
<path d="M94.4729 541.464C67.3114 568.043 62.7602 609.191 68.4751 645.205C68.6206 646.016 69.8883 645.808 69.8883 645.039C69.8883 636.831 69.6389 628.705 69.6597 620.6C69.8052 620.226 69.9299 619.873 70.0753 619.519C77.1618 614.366 83.6873 608.547 87.7189 600.567C92.2493 591.651 94.0365 581.593 97.507 572.262C97.8187 571.368 96.8836 571.639 96.2601 572.096C79.7388 584.274 74.481 597.387 69.7428 614.906C69.9714 605.804 70.6572 596.722 72.6107 587.62C76.1851 570.994 83.2509 554.515 95.1795 542.17C95.6367 541.692 94.9509 540.986 94.4729 541.464Z" fill="#213030"/>
<path d="M99.5924 544.56C104.268 544.726 107.198 552.187 110.835 554.369C112.768 555.533 114.638 555.449 115.989 553.558C119.605 548.529 114.638 542.315 109.983 538.824C113.308 540.196 116.072 542.606 119.667 543.271C121.85 543.666 123.533 542.856 124.032 540.653C125.611 533.795 117.007 530.74 111.085 530.595C113.953 528.6 122.161 523.196 117.797 520.536C113.371 517.855 103.749 525.607 100.611 528.163C95.9972 531.904 90.4901 537.515 90.2823 543.375C90.0121 550.192 95.9972 545.994 99.5924 544.56Z" fill="#00A48A"/>
<path opacity="0.1" d="M99.5924 544.56C104.268 544.726 107.198 552.187 110.835 554.369C112.768 555.533 114.638 555.449 115.989 553.558C119.605 548.529 114.638 542.315 109.983 538.824C113.308 540.196 116.072 542.606 119.667 543.271C121.85 543.666 123.533 542.856 124.032 540.653C125.611 533.795 117.007 530.74 111.085 530.595C113.953 528.6 122.161 523.196 117.797 520.536C113.371 517.855 103.749 525.607 100.611 528.163C95.9972 531.904 90.4901 537.515 90.2823 543.375C90.0121 550.192 95.9972 545.994 99.5924 544.56Z" fill="black"/>
<path d="M98.2442 545.701C104.209 542.979 115.701 546.886 116.677 544.642C118.652 540.049 109.487 536.89 104.541 536.267C109.092 535.04 117.841 533.066 117.571 528.661C117.239 523.299 104.167 527.912 97.5584 532.983C89.225 539.363 89.2873 545.535 90.6589 546.782C92.5293 548.465 97.2467 546.159 98.2442 545.701Z" fill="#00A48A"/>
<path d="M32.6366 538.823C60.7956 564.363 66.9054 605.282 62.5621 641.504C62.4374 642.336 61.1697 642.149 61.1489 641.38C60.8372 633.192 60.7749 625.045 60.4424 616.961C60.2761 616.587 60.1514 616.255 59.9852 615.881C52.7116 610.997 45.9784 605.428 41.635 597.614C36.7721 588.865 34.5901 578.89 30.787 569.704C30.4337 568.831 31.3897 569.06 32.0339 569.496C49.0125 581.051 54.769 593.935 60.1722 611.267C59.6111 602.186 58.572 593.125 56.2653 584.106C52.0674 567.626 44.3782 551.437 31.9716 539.55C31.4728 539.114 32.1378 538.365 32.6366 538.823Z" fill="#213030"/>
<path d="M27.6395 542.106C22.9844 542.439 20.3244 550.024 16.7707 552.331C14.9004 553.557 13.0093 553.557 11.5961 551.707C7.7931 546.803 12.5105 540.423 17.0201 536.765C13.7366 538.262 11.0766 540.776 7.52294 541.587C5.36165 542.065 3.63678 541.317 3.0549 539.135C1.20533 532.339 9.70501 528.952 15.607 528.578C12.6768 526.686 4.26023 521.595 8.52045 518.769C12.843 515.922 22.7558 523.299 25.9978 525.73C30.7568 529.305 36.4717 534.687 36.9081 540.527C37.4277 547.385 31.2971 543.416 27.6395 542.106Z" fill="#00A48A"/>
<path opacity="0.1" d="M27.6395 542.106C22.9844 542.439 20.3244 550.024 16.7707 552.331C14.9004 553.557 13.0093 553.557 11.5961 551.707C7.7931 546.803 12.5105 540.423 17.0201 536.765C13.7366 538.262 11.0766 540.776 7.52294 541.587C5.36165 542.065 3.63678 541.317 3.0549 539.135C1.20533 532.339 9.70501 528.952 15.607 528.578C12.6768 526.686 4.26023 521.595 8.52045 518.769C12.843 515.922 22.7558 523.299 25.9978 525.73C30.7568 529.305 36.4717 534.687 36.9081 540.527C37.4277 547.385 31.2971 543.416 27.6395 542.106Z" fill="black"/>
<path d="M29.032 543.208C22.9638 540.714 11.6378 545.057 10.578 542.833C8.41668 538.303 17.4775 534.812 22.4027 534.001C17.81 532.941 8.99857 531.3 9.10247 526.894C9.22716 521.511 22.465 525.626 29.2606 530.448C37.8226 536.516 38.0097 542.688 36.6796 543.976C34.8509 545.764 30.0295 543.623 29.032 543.208Z" fill="#00A48A"/>
<path d="M61.4225 606.257C63.5006 619.724 66.0775 633.626 70.1715 646.636C70.5664 647.82 72.312 647.509 72.1458 646.241C70.2962 633.793 66.9296 621.594 65.08 609.146C63.2097 596.552 62.1914 583.792 62.9187 571.053C64.1033 550.084 69.7974 527.786 83.4717 511.368C83.7627 510.974 83.1392 510.433 82.8275 510.786C55.4374 542.728 59.8015 581.88 59.8223 585.392C55.9361 572.175 51.946 557.005 37.2742 543.559C36.6508 542.977 36.152 543.247 36.2559 544.245C38.8744 568.767 45.6908 581.569 59.9054 594.682C60.3002 598.568 60.799 602.433 61.4225 606.257Z" fill="#213030"/>
<path d="M83.7075 515.049C88.6328 512.867 95.4284 519.143 100.312 519.558C102.889 519.787 104.801 518.769 105.258 516.129C106.463 509.085 98.2131 505.136 91.6253 503.868C95.7609 503.619 99.8341 504.72 103.907 503.619C106.359 502.933 107.71 501.25 107.128 498.694C105.32 490.776 94.8465 491.94 88.6328 494.766C90.607 491.254 96.4051 481.507 90.5239 480.946C84.6011 480.406 78.4914 493.27 76.5171 497.509C73.6077 503.723 70.719 512.306 73.4414 518.499C76.621 525.731 80.715 518.353 83.7075 515.049Z" fill="#00A48A"/>
<path opacity="0.1" d="M83.7075 515.049C88.6328 512.867 95.4284 519.143 100.312 519.558C102.889 519.787 104.801 518.769 105.258 516.129C106.463 509.085 98.2131 505.136 91.6253 503.868C95.7609 503.619 99.8341 504.72 103.907 503.619C106.359 502.933 107.71 501.25 107.128 498.694C105.32 490.776 94.8465 491.94 88.6328 494.766C90.607 491.254 96.4051 481.507 90.5239 480.946C84.6011 480.406 78.4914 493.27 76.5171 497.509C73.6077 503.723 70.719 512.306 73.4414 518.499C76.621 525.731 80.715 518.353 83.7075 515.049Z" fill="black"/>
<path d="M82.9032 516.938C87.7245 511.119 101.607 509.394 101.482 506.547C101.212 500.77 90.1144 502.12 84.6696 503.97C88.7844 500.395 96.8476 493.953 94.3539 489.527C91.3197 484.123 80.0769 495.491 75.7543 504.074C70.3303 514.901 73.4891 521.26 75.5257 521.863C78.3728 522.673 82.0927 517.894 82.9032 516.938Z" fill="#00A48A"/>
<path d="M43.3944 613.635L31.3203 705.947H104.825C103.308 697.759 89.6335 613.531 89.6335 613.531L43.3944 613.635Z" fill="#00A48A"/>
<path d="M0.015625 706.262L107.373 705.763L214.71 705.576L429.426 705.223L644.12 705.576L751.478 705.742L858.815 706.262L751.478 706.76L644.12 706.948L429.426 707.301L214.71 706.948L107.373 706.76L0.015625 706.262Z" fill="#213030"/>
<path d="M429.419 887.021C600.5 887.021 739.189 867.408 739.189 843.214C739.189 819.02 600.5 799.406 429.419 799.406C258.337 799.406 119.648 819.02 119.648 843.214C119.648 867.408 258.337 887.021 429.419 887.021Z" fill="#EBEBEB"/>
<path d="M237.339 383.165L224.434 332.395L122.521 358.289L109.055 305.296L190.498 119.696L230.897 109.43L270.174 263.962L302.781 255.67L316.351 309.037L283.745 317.329L296.65 368.098L237.339 383.165ZM167.513 290.043L217.909 277.241L201.242 211.654L167.513 290.043Z" fill="#213030"/>
<path d="M529.211 213.672C529.211 230.505 526.655 245.987 521.564 260.118C516.452 274.271 509.448 286.511 500.533 296.819C491.618 307.147 481.102 315.169 468.986 320.905C456.871 326.64 443.674 329.508 429.418 329.508C415.141 329.508 401.883 326.64 389.663 320.905C377.423 315.169 366.845 307.147 357.93 296.819C349.014 286.49 342.052 274.25 337.086 260.118C332.119 245.966 329.625 230.484 329.625 213.672C329.625 196.839 332.119 181.356 337.086 167.225C342.052 153.072 348.993 140.832 357.93 130.524C366.845 120.196 377.423 112.112 389.663 106.252C401.903 100.391 415.141 97.4609 429.418 97.4609C443.695 97.4609 456.891 100.391 468.986 106.252C481.081 112.112 491.597 120.217 500.533 130.524C509.448 140.853 516.472 153.093 521.564 167.225C526.655 181.377 529.211 196.859 529.211 213.672ZM467.636 213.672C467.636 195.841 464.061 181.356 456.933 170.28C449.784 159.182 440.619 153.654 429.397 153.654C417.677 153.654 408.304 159.203 401.301 170.28C394.277 181.377 390.785 195.841 390.785 213.672C390.785 231.523 394.277 245.925 401.301 256.877C408.304 267.849 417.677 273.315 429.397 273.315C440.619 273.315 449.784 267.828 456.933 256.877C464.082 245.925 467.636 231.523 467.636 213.672Z" fill="#213030"/>
<path d="M638.992 373.378L647.367 321.673L543.562 304.861L552.312 250.891L700.921 113.047L742.068 119.718L716.569 277.118L749.778 282.5L740.967 336.844L707.758 331.461L699.383 383.166L638.992 373.378ZM612.017 260.16L663.348 268.472L674.175 201.66L612.017 260.16Z" fill="#213030"/>
<path d="M472.209 562.246H398.414V568.294H472.209V562.246Z" fill="#213030"/>
<path d="M472.209 570.121H398.414V576.169H472.209V570.121Z" fill="#213030"/>
<path d="M472.209 578H398.414V584.047H472.209V578Z" fill="#213030"/>
<path d="M472.209 585.875H398.414V591.922H472.209V585.875Z" fill="#213030"/>
<path d="M472.209 593.75H398.414V599.797H472.209V593.75Z" fill="#213030"/>
<path d="M504.177 750.84H363.859V756.887H504.177V750.84Z" fill="#213030"/>
<path d="M504.177 758.715H363.859V764.762H504.177V758.715Z" fill="#213030"/>
<path d="M504.177 766.594H363.859V772.641H504.177V766.594Z" fill="#213030"/>
<path d="M504.177 774.469H363.859V780.516H504.177V774.469Z" fill="#213030"/>
<path d="M504.177 782.344H363.859V788.391H504.177V782.344Z" fill="#213030"/>
<path d="M302.309 512.265C302.371 511.455 271.594 501.147 271.594 501.147L273.402 395.39L314.217 386.641L302.309 512.265Z" fill="#00A48A"/>
<path opacity="0.2" d="M302.309 512.265C302.371 511.455 271.594 501.147 271.594 501.147L273.402 395.39L314.217 386.641L302.309 512.265Z" fill="black"/>
<path d="M584.242 553.789C584.45 552.999 616.911 553.913 616.911 553.913L651.595 453.995L616.287 431.738L584.242 553.789Z" fill="#00A48A"/>
<path opacity="0.2" d="M584.242 553.789C584.45 552.999 616.911 553.913 616.911 553.913L651.595 453.995L616.287 431.738L584.242 553.789Z" fill="black"/>
<path d="M296.391 551.21C296.391 551.21 307.8 380.178 317.816 323.922C317.816 323.922 524.427 339.55 635.962 382.173C635.962 382.173 578.459 581.946 575.487 591.859C575.467 591.859 429.975 563.201 296.391 551.21Z" fill="#00A48A"/>
<path opacity="0.1" d="M480.814 346.758C477.447 367.352 474.06 387.947 470.548 408.5L459.907 470.18L459.325 469.307L528.549 485.745L563.13 494.12L597.669 502.661L562.943 494.889L528.258 486.95L458.972 470.762L458.266 470.595L458.39 469.889L469.425 408.271C473.124 387.781 476.948 367.269 480.814 346.758Z" fill="black"/>
<path opacity="0.1" d="M473.191 358.498C473.232 360.389 471.715 362.322 469.554 362.509C468.515 362.613 467.372 362.28 466.52 361.532C465.668 360.784 465.148 359.641 465.148 358.498C465.148 357.334 465.668 356.191 466.52 355.464C467.372 354.716 468.515 354.383 469.554 354.487C471.736 354.674 473.232 356.607 473.191 358.498ZM473.191 358.498C473.191 357.542 472.754 356.607 472.048 356.004C471.341 355.402 470.406 355.152 469.554 355.256C467.808 355.464 466.686 357.023 466.707 358.498C466.686 359.974 467.808 361.532 469.554 361.74C470.406 361.844 471.341 361.595 472.048 360.992C472.775 360.389 473.191 359.454 473.191 358.498Z" fill="black"/>
<path opacity="0.1" d="M469.574 383.936C469.615 385.827 468.098 387.759 465.937 387.947C464.898 388.05 463.755 387.718 462.903 386.97C462.051 386.222 461.531 385.079 461.531 383.936C461.531 382.772 462.051 381.629 462.903 380.902C463.755 380.153 464.898 379.821 465.937 379.925C468.098 380.112 469.615 382.065 469.574 383.936ZM469.574 383.936C469.574 382.98 469.137 382.045 468.431 381.442C467.724 380.839 466.789 380.59 465.937 380.694C464.191 380.902 463.069 382.46 463.09 383.936C463.069 385.411 464.191 386.97 465.937 387.178C466.789 387.282 467.724 387.032 468.431 386.429C469.137 385.827 469.553 384.892 469.574 383.936Z" fill="black"/>
<path opacity="0.1" d="M465.113 410.826C465.154 412.717 463.637 414.65 461.476 414.837C460.437 414.941 459.294 414.609 458.442 413.86C457.59 413.112 457.07 411.969 457.07 410.826C457.07 409.683 457.59 408.52 458.442 407.792C459.294 407.044 460.437 406.712 461.476 406.815C463.637 407.002 465.154 408.956 465.113 410.826ZM465.113 410.826C465.113 409.87 464.676 408.935 463.97 408.333C463.263 407.73 462.328 407.48 461.476 407.584C459.73 407.792 458.608 409.351 458.629 410.826C458.608 412.302 459.73 413.86 461.476 414.068C462.328 414.172 463.263 413.923 463.97 413.32C464.676 412.717 465.092 411.782 465.113 410.826Z" fill="black"/>
<path opacity="0.1" d="M460.636 437.717C460.678 439.608 459.161 441.541 456.999 441.728C455.96 441.832 454.817 441.499 453.965 440.751C453.113 440.003 452.594 438.86 452.594 437.717C452.594 436.574 453.113 435.41 453.965 434.683C454.817 433.935 455.96 433.602 456.999 433.706C459.161 433.893 460.678 435.826 460.636 437.717ZM460.636 437.717C460.636 436.761 460.2 435.826 459.493 435.223C458.787 434.62 457.851 434.371 456.999 434.475C455.254 434.683 454.132 436.241 454.152 437.717C454.132 439.192 455.254 440.751 456.999 440.959C457.851 441.063 458.787 440.813 459.493 440.211C460.2 439.608 460.615 438.673 460.636 437.717Z" fill="black"/>
<path opacity="0.1" d="M475.855 480.611C475.897 482.503 474.379 484.435 472.218 484.622C471.179 484.726 470.036 484.394 469.184 483.646C468.332 482.897 467.812 481.754 467.812 480.611C467.812 479.448 468.332 478.305 469.184 477.577C470.036 476.829 471.179 476.497 472.218 476.601C474.4 476.767 475.897 478.72 475.855 480.611ZM475.855 480.611C475.855 479.656 475.419 478.72 474.712 478.118C474.005 477.515 473.07 477.266 472.218 477.37C470.473 477.577 469.35 479.136 469.371 480.611C469.35 482.087 470.473 483.646 472.218 483.853C473.07 483.957 474.005 483.708 474.712 483.105C475.439 482.482 475.855 481.547 475.855 480.611Z" fill="black"/>
<path opacity="0.1" d="M501.246 486.807C501.287 488.698 499.77 490.631 497.609 490.818C496.57 490.922 495.427 490.589 494.575 489.841C493.723 489.093 493.203 487.95 493.203 486.807C493.203 485.643 493.723 484.5 494.575 483.773C495.427 483.025 496.57 482.692 497.609 482.796C499.77 482.962 501.266 484.916 501.246 486.807ZM501.246 486.807C501.246 485.851 500.809 484.916 500.103 484.313C499.396 483.71 498.461 483.461 497.609 483.565C495.863 483.773 494.741 485.331 494.762 486.807C494.741 488.282 495.863 489.841 497.609 490.049C498.461 490.153 499.396 489.903 500.103 489.301C500.809 488.677 501.225 487.742 501.246 486.807Z" fill="black"/>
<path opacity="0.1" d="M526.621 492.998C526.662 494.889 525.145 496.822 522.984 497.009C521.945 497.113 520.802 496.78 519.95 496.032C519.098 495.284 518.578 494.141 518.578 492.998C518.578 491.834 519.098 490.691 519.95 489.964C520.802 489.216 521.945 488.883 522.984 488.987C525.145 489.154 526.662 491.107 526.621 492.998ZM526.621 492.998C526.621 492.042 526.184 491.107 525.478 490.504C524.771 489.902 523.836 489.652 522.984 489.756C521.238 489.964 520.116 491.523 520.137 492.998C520.116 494.474 521.238 496.032 522.984 496.24C523.836 496.344 524.771 496.095 525.478 495.492C526.184 494.869 526.621 493.933 526.621 492.998Z" fill="black"/>
<path opacity="0.1" d="M551.996 499.17C552.037 501.061 550.52 502.994 548.359 503.181C547.32 503.285 546.177 502.952 545.325 502.204C544.473 501.456 543.953 500.313 543.953 499.17C543.953 498.006 544.473 496.863 545.325 496.136C546.177 495.388 547.32 495.055 548.359 495.159C550.541 495.346 552.037 497.3 551.996 499.17ZM551.996 499.17C551.996 498.214 551.559 497.279 550.853 496.676C550.146 496.074 549.211 495.824 548.359 495.928C546.613 496.136 545.491 497.695 545.512 499.17C545.491 500.646 546.613 502.204 548.359 502.412C549.211 502.516 550.146 502.266 550.853 501.664C551.58 501.061 551.996 500.126 551.996 499.17Z" fill="black"/>
<path opacity="0.1" d="M577.371 505.655C577.267 507.546 575.604 509.354 573.443 509.374C572.383 509.395 571.282 508.98 570.492 508.169C569.702 507.359 569.287 506.195 569.37 505.031C569.474 503.888 570.056 502.787 570.97 502.101C571.884 501.415 573.048 501.186 574.087 501.353C576.207 501.727 577.558 503.763 577.371 505.655ZM577.371 505.655C577.433 504.699 577.08 503.743 576.436 503.078C575.771 502.433 574.856 502.101 574.004 502.142C572.259 502.205 571.012 503.68 570.908 505.156C570.762 506.61 571.78 508.273 573.505 508.606C574.337 508.772 575.293 508.585 576.041 508.044C576.81 507.504 577.288 506.59 577.371 505.655Z" fill="black"/>
<path opacity="0.1" d="M456.175 464.611C456.217 466.503 454.7 468.435 452.539 468.622C451.499 468.726 450.356 468.394 449.504 467.646C448.652 466.897 448.133 465.754 448.133 464.611C448.133 463.468 448.652 462.305 449.504 461.577C450.356 460.829 451.499 460.497 452.539 460.601C454.7 460.788 456.217 462.72 456.175 464.611ZM456.175 464.611C456.175 463.656 455.739 462.72 455.032 462.118C454.326 461.515 453.391 461.266 452.539 461.37C450.793 461.577 449.671 463.136 449.691 464.611C449.671 466.087 450.793 467.646 452.539 467.853C453.391 467.957 454.326 467.708 455.032 467.105C455.739 466.503 456.154 465.567 456.175 464.611Z" fill="black"/>
<path opacity="0.2" d="M413.425 509.161C437.518 487.498 439.488 450.405 417.825 426.312C396.162 402.219 359.069 400.249 334.976 421.912C310.883 443.575 308.913 480.668 330.576 504.761C352.239 528.854 389.332 530.824 413.425 509.161Z" fill="black"/>
<path d="M418.18 482.193C427.379 457.892 415.136 430.736 390.835 421.537C366.534 412.338 339.378 424.581 330.179 448.882C320.98 473.183 333.223 500.34 357.524 509.538C381.825 518.737 408.982 506.494 418.18 482.193Z" fill="#213030"/>
<path d="M371.347 448.242L360.352 446.461L358.57 457.456L369.566 459.237L371.347 448.242Z" fill="#00A48A"/>
<path d="M362.136 435.465L351.141 433.684L349.36 444.679L360.355 446.46L362.136 435.465Z" fill="#00A48A"/>
<path d="M406.12 442.594L395.125 440.812L393.344 451.808L404.339 453.589L406.12 442.594Z" fill="#00A48A"/>
<path d="M355.066 479.211L344.07 477.43L342.289 488.425L353.284 490.206L355.066 479.211Z" fill="#00A48A"/>
<path d="M399.058 486.336L388.062 484.555L386.281 495.55L397.277 497.331L399.058 486.336Z" fill="#00A48A"/>
<path d="M367.831 470L356.836 468.219L355.055 479.214L366.05 480.995L367.831 470Z" fill="#00A48A"/>
<path d="M380.597 460.898L369.602 459.117L367.82 470.112L378.816 471.894L380.597 460.898Z" fill="#00A48A"/>
<path d="M393.347 451.82L382.352 450.039L380.57 461.034L391.566 462.815L393.347 451.82Z" fill="#00A48A"/>
<path d="M389.823 473.547L378.828 471.766L377.047 482.761L388.042 484.542L389.823 473.547Z" fill="#00A48A"/>
<path d="M577.034 527.292C597.569 502.23 593.9 465.266 568.838 444.731C543.776 424.195 506.812 427.864 486.277 452.926C465.741 477.988 469.41 514.952 494.472 535.487C519.534 556.023 556.498 552.354 577.034 527.292Z" fill="#00A48A"/>
<path opacity="0.2" d="M577.034 527.292C597.569 502.23 593.9 465.266 568.838 444.731C543.776 424.195 506.812 427.864 486.277 452.926C465.741 477.988 469.41 514.952 494.472 535.487C519.534 556.023 556.498 552.354 577.034 527.292Z" fill="black"/>
<path opacity="0.2" d="M588.736 503.704C588.466 504.868 588.155 505.969 587.822 507.091L473.461 482.694C473.731 480.657 474.105 478.62 474.583 476.542C482.065 445.016 513.694 425.544 545.241 433.026C576.725 440.528 596.218 472.157 588.736 503.704Z" fill="black"/>
<path d="M549.782 533.555C573.758 523.538 585.074 495.981 575.057 472.005C565.039 448.028 537.482 436.712 513.506 446.73C489.53 456.747 478.214 484.304 488.231 508.28C498.248 532.256 525.805 543.572 549.782 533.555Z" fill="#213030"/>
<path d="M543.478 464.419L532.641 461.844L519.817 515.807L530.654 518.382L543.478 464.419Z" fill="#00A48A"/>
<path d="M592.141 502.606L472.023 474.053C479.9 440.885 513.192 420.394 546.359 428.271C579.527 436.168 600.038 469.439 592.141 502.606Z" fill="#00A48A"/>
<path opacity="0.2" d="M592.141 502.606L472.023 474.053C479.9 440.885 513.192 420.394 546.359 428.271C579.527 436.168 600.038 469.439 592.141 502.606Z" fill="black"/>
<path opacity="0.1" d="M429.586 525.005C429.898 520.308 431.623 515.549 435.01 511.788C436.693 509.896 438.917 508.4 441.39 507.507C443.863 506.592 446.544 506.426 449.079 506.655C451.656 506.966 454.295 507.86 456.457 509.502C458.576 511.164 460.176 513.325 461.132 515.674C463.086 520.329 463.314 525.296 462.359 529.909C461.569 525.296 460.384 520.828 458.223 517.149C456.082 513.45 452.674 511.143 448.643 510.79C444.507 510.27 440.496 511.393 437.254 514.115C433.992 516.837 431.519 520.744 429.586 525.005Z" fill="black"/>
<path d="M312.438 405.343C312.915 399.067 313.622 392.833 314.225 386.578C314.89 380.343 315.576 374.088 316.344 367.874C317.072 361.64 317.882 355.426 318.672 349.192C319.462 342.957 320.355 336.764 321.187 330.53L321.415 328.867L323.098 328.971C336.627 329.823 350.135 330.925 363.623 332.296C370.377 332.982 377.11 333.772 383.822 334.644C390.535 335.6 397.268 336.494 403.939 337.72L363.373 335.206L322.849 332.587L324.761 331.028C323.847 337.242 322.995 343.456 322.018 349.649C321.062 355.842 320.106 362.055 319.088 368.248C318.09 374.441 317.03 380.634 315.929 386.806C314.765 392.978 313.705 399.171 312.438 405.343Z" fill="white"/>
<path d="M322.211 452.743C323.583 445.2 326.991 438.03 331.604 431.775C332.747 430.195 334.056 428.741 335.303 427.244C336.654 425.852 338.067 424.48 339.46 423.109C340.977 421.883 342.515 420.657 344.073 419.472C345.736 418.412 347.357 417.331 349.04 416.313C350.806 415.461 352.573 414.588 354.36 413.778L359.93 411.845L365.707 410.661C367.64 410.37 369.614 410.307 371.546 410.162C379.36 409.954 387.07 411.637 394.136 414.484C386.613 413.071 379.111 412.302 371.733 413.009C364.356 413.695 357.207 415.898 350.806 419.513C344.343 423.026 338.649 427.888 333.807 433.541C329.007 439.214 325.016 445.636 322.211 452.743Z" fill="white"/>
<path d="M484.031 468.604C486.421 461.33 490.806 454.68 496.23 449.132C497.581 447.739 499.077 446.472 500.511 445.162C502.049 443.957 503.628 442.814 505.208 441.65C506.891 440.632 508.574 439.634 510.278 438.678C512.066 437.868 513.832 437.016 515.64 436.247C517.51 435.644 519.381 435.021 521.272 434.46L527.049 433.317L532.93 432.943C534.884 432.922 536.837 433.151 538.791 433.275C546.563 434.148 553.961 436.87 560.57 440.673C553.317 438.242 546.002 436.434 538.583 436.102C531.185 435.769 523.786 436.954 516.949 439.655C510.071 442.253 503.732 446.285 498.184 451.189C492.635 456.135 487.814 461.954 484.031 468.604Z" fill="white"/>
<path d="M302.947 656.609C287.922 656.609 255.024 653.222 233.848 625.998C206.769 591.168 216.558 524.355 216.973 521.508L228.736 523.295C228.632 523.939 219.301 587.905 243.241 618.683C266.641 648.774 309.098 644.452 309.534 644.41L310.864 656.235C310.386 656.297 307.477 656.609 302.947 656.609Z" fill="#00A48A"/>
<path opacity="0.4" d="M302.947 656.609C287.922 656.609 255.024 653.222 233.848 625.998C206.769 591.168 216.558 524.355 216.973 521.508L228.736 523.295C228.632 523.939 219.301 587.905 243.241 618.683C266.641 648.774 309.098 644.452 309.534 644.41L310.864 656.235C310.386 656.297 307.477 656.609 302.947 656.609Z" fill="white"/>
<path d="M232.192 531.406C230.052 531.406 227.849 531.218 225.625 530.865C205.779 527.644 197.009 515.778 193.123 506.384C189.237 496.97 188.343 485.582 190.463 472.531L215.63 476.604C214.32 484.688 214.694 491.796 216.71 496.659C218.144 500.108 220.908 504.265 229.719 505.699C233.751 506.343 238.094 506.01 242.666 499.132C246.178 493.832 248.298 486.6 249.046 482.028L274.213 486.102C273.631 489.697 271.158 502.29 263.926 513.222C256.008 525.109 244.932 531.406 232.192 531.406Z" fill="#00A48A"/>
<path d="M327.814 690.657C327.773 690.116 306.493 686.708 306.493 686.708L296.164 617.277L321.933 607.094L327.814 690.657Z" fill="#00A48A"/>
<path opacity="0.2" d="M327.814 690.657C327.773 690.116 306.493 686.708 306.493 686.708L296.164 617.277L321.933 607.094L327.814 690.657Z" fill="black"/>
<path d="M538.094 690.779C538.156 690.239 559.499 687.309 559.499 687.309L571.365 618.127L545.825 607.383L538.094 690.779Z" fill="#00A48A"/>
<path opacity="0.2" d="M538.094 690.779C538.156 690.239 559.499 687.309 559.499 687.309L571.365 618.127L545.825 607.383L538.094 690.779Z" fill="black"/>
<path d="M318.956 591.57C318.956 591.57 491.007 584.213 549.112 593.898C549.112 593.898 532.05 760.379 531.115 763.6C531.115 763.6 359.979 763.143 333.233 763.6C333.233 763.6 318.727 652.897 318.956 591.57Z" fill="#00A48A"/>
<path opacity="0.2" d="M371.203 637.182C371.203 637.182 465.115 633.483 496.849 638.367C496.849 638.367 487.538 722.303 487.019 723.945C487.019 723.945 393.585 723.717 378.996 723.945C378.996 723.924 372.595 666.484 371.203 637.182Z" fill="black"/>
<path opacity="0.2" d="M384.046 723.902C381.906 723.902 380.181 723.923 378.996 723.944C378.996 723.944 372.595 666.482 371.203 637.18C371.203 637.18 373.344 637.097 377.064 636.973L384.046 723.902Z" fill="black"/>
<path d="M411.754 657.908C406.496 656.246 400.885 659.176 399.223 664.434C397.56 669.712 400.49 675.302 405.748 676.965C411.006 678.627 416.617 675.697 418.258 670.439C419.942 665.182 417.012 659.571 411.754 657.908ZM417.115 670.065C415.661 674.7 410.736 677.256 406.122 675.801C401.509 674.346 398.932 669.421 400.386 664.787C401.841 660.173 406.766 657.596 411.401 659.051C416.014 660.527 418.57 665.452 417.115 670.065ZM411.754 657.908C406.496 656.246 400.885 659.176 399.223 664.434C397.56 669.712 400.49 675.302 405.748 676.965C411.006 678.627 416.617 675.697 418.258 670.439C419.942 665.182 417.012 659.571 411.754 657.908ZM417.115 670.065C415.661 674.7 410.736 677.256 406.122 675.801C401.509 674.346 398.932 669.421 400.386 664.787C401.841 660.173 406.766 657.596 411.401 659.051C416.014 660.527 418.57 665.452 417.115 670.065ZM411.754 657.908C406.496 656.246 400.885 659.176 399.223 664.434C397.56 669.712 400.49 675.302 405.748 676.965C411.006 678.627 416.617 675.697 418.258 670.439C419.942 665.182 417.012 659.571 411.754 657.908ZM417.115 670.065C415.661 674.7 410.736 677.256 406.122 675.801C401.509 674.346 398.932 669.421 400.386 664.787C401.841 660.173 406.766 657.596 411.401 659.051C416.014 660.527 418.57 665.452 417.115 670.065ZM415.079 647.351C403.982 643.86 392.157 650.032 388.665 661.109C385.174 672.206 391.326 684.031 402.423 687.522C413.499 691.013 425.345 684.862 428.836 673.765C432.328 662.667 426.176 650.842 415.079 647.351ZM419.755 670.897C417.843 676.965 411.359 680.352 405.27 678.44C399.202 676.528 395.814 670.045 397.726 663.956C399.638 657.887 406.143 654.5 412.211 656.412C418.279 658.345 421.667 664.828 419.755 670.897ZM418.279 670.439C419.942 665.182 417.012 659.571 411.754 657.908C406.496 656.246 400.885 659.176 399.223 664.434C397.56 669.712 400.49 675.302 405.748 676.965C411.006 678.627 416.617 675.697 418.279 670.439ZM417.115 670.065C415.661 674.7 410.736 677.256 406.122 675.801C401.509 674.346 398.932 669.421 400.386 664.787C401.841 660.173 406.766 657.596 411.401 659.051C416.014 660.527 418.57 665.452 417.115 670.065ZM411.754 657.908C406.496 656.246 400.885 659.176 399.223 664.434C397.56 669.712 400.49 675.302 405.748 676.965C411.006 678.627 416.617 675.697 418.258 670.439C419.942 665.182 417.012 659.571 411.754 657.908ZM417.115 670.065C415.661 674.7 410.736 677.256 406.122 675.801C401.509 674.346 398.932 669.421 400.386 664.787C401.841 660.173 406.766 657.596 411.401 659.051C416.014 660.527 418.57 665.452 417.115 670.065ZM411.754 657.908C406.496 656.246 400.885 659.176 399.223 664.434C397.56 669.712 400.49 675.302 405.748 676.965C411.006 678.627 416.617 675.697 418.258 670.439C419.942 665.182 417.012 659.571 411.754 657.908ZM417.115 670.065C415.661 674.7 410.736 677.256 406.122 675.801C401.509 674.346 398.932 669.421 400.386 664.787C401.841 660.173 406.766 657.596 411.401 659.051C416.014 660.527 418.57 665.452 417.115 670.065Z" fill="#00A48A"/>
<path d="M406.537 687.9L398.828 685.469L397.539 691.059L404.397 693.241L406.537 687.9Z" fill="#00A48A"/>
<path d="M392.679 680.67L388.938 673.5L384.055 676.534L387.38 682.914L392.679 680.67Z" fill="#00A48A"/>
<path d="M387.981 665.746L390.413 658.015L384.802 656.727L382.641 663.584L387.981 665.746Z" fill="#00A48A"/>
<path d="M395.218 651.867L402.388 648.126L399.354 643.242L392.953 646.588L395.218 651.867Z" fill="#00A48A"/>
<path d="M410.141 647.169L417.851 649.6L419.16 644.01L412.281 641.828L410.141 647.169Z" fill="#00A48A"/>
<path d="M424.023 654.401L427.764 661.591L432.627 658.536L429.302 652.156L424.023 654.401Z" fill="#00A48A"/>
<path d="M428.713 669.32L426.281 677.051L431.872 678.34L434.033 671.482L428.713 669.32Z" fill="#00A48A"/>
<path d="M421.487 683.203L414.297 686.944L417.352 691.827L423.732 688.502L421.487 683.203Z" fill="#00A48A"/>
<path d="M445.711 687.291C442.594 685.254 438.438 686.148 436.401 689.265C434.365 692.382 435.258 696.538 438.375 698.575C441.493 700.612 445.649 699.718 447.686 696.601C449.701 693.484 448.829 689.306 445.711 687.291ZM447 696.144C445.213 698.887 441.555 699.656 438.833 697.868C436.09 696.081 435.321 692.424 437.108 689.701C438.895 686.958 442.553 686.189 445.275 687.976C447.997 689.764 448.766 693.4 447 696.144ZM445.711 687.291C442.594 685.254 438.438 686.148 436.401 689.265C434.365 692.382 435.258 696.538 438.375 698.575C441.493 700.612 445.649 699.718 447.686 696.601C449.701 693.484 448.829 689.306 445.711 687.291ZM447 696.144C445.213 698.887 441.555 699.656 438.833 697.868C436.09 696.081 435.321 692.424 437.108 689.701C438.895 686.958 442.553 686.189 445.275 687.976C447.997 689.764 448.766 693.4 447 696.144ZM445.711 687.291C442.594 685.254 438.438 686.148 436.401 689.265C434.365 692.382 435.258 696.538 438.375 698.575C441.493 700.612 445.649 699.718 447.686 696.601C449.701 693.484 448.829 689.306 445.711 687.291ZM447 696.144C445.213 698.887 441.555 699.656 438.833 697.868C436.09 696.081 435.321 692.424 437.108 689.701C438.895 686.958 442.553 686.189 445.275 687.976C447.997 689.764 448.766 693.4 447 696.144ZM449.785 681.035C443.218 676.754 434.448 678.625 430.167 685.171C425.907 691.738 427.756 700.508 434.302 704.789C440.849 709.049 449.639 707.199 453.92 700.632C458.18 694.107 456.331 685.316 449.785 681.035ZM448.558 697.162C446.21 700.757 441.389 701.775 437.814 699.448C434.219 697.12 433.201 692.278 435.549 688.704C437.898 685.108 442.719 684.09 446.293 686.439C449.868 688.745 450.886 693.567 448.558 697.162ZM447.686 696.601C449.722 693.484 448.829 689.327 445.732 687.291C442.615 685.254 438.459 686.148 436.422 689.265C434.385 692.382 435.279 696.538 438.396 698.575C441.493 700.591 445.649 699.697 447.686 696.601ZM447 696.144C445.213 698.887 441.555 699.656 438.833 697.868C436.09 696.081 435.321 692.424 437.108 689.701C438.895 686.958 442.553 686.189 445.275 687.976C447.997 689.764 448.766 693.4 447 696.144ZM445.711 687.291C442.594 685.254 438.438 686.148 436.401 689.265C434.365 692.382 435.258 696.538 438.375 698.575C441.493 700.612 445.649 699.718 447.686 696.601C449.701 693.484 448.829 689.306 445.711 687.291ZM447 696.144C445.213 698.887 441.555 699.656 438.833 697.868C436.09 696.081 435.321 692.424 437.108 689.701C438.895 686.958 442.553 686.189 445.275 687.976C447.997 689.764 448.766 693.4 447 696.144ZM445.711 687.291C442.594 685.254 438.438 686.148 436.401 689.265C434.365 692.382 435.258 696.538 438.375 698.575C441.493 700.612 445.649 699.718 447.686 696.601C449.701 693.484 448.829 689.306 445.711 687.291ZM447 696.144C445.213 698.887 441.555 699.656 438.833 697.868C436.09 696.081 435.321 692.424 437.108 689.701C438.895 686.958 442.553 686.189 445.275 687.976C447.997 689.764 448.766 693.4 447 696.144Z" fill="#DBDBDB"/>
<path d="M436.922 705.784L432.35 702.812L430.5 706.221L434.552 708.86L436.922 705.784Z" fill="#DBDBDB"/>
<path d="M429.212 698.595L428.09 693.254L424.391 694.355L425.388 699.094L429.212 698.595Z" fill="#DBDBDB"/>
<path d="M428.88 688.058L431.852 683.486L428.444 681.637L425.805 685.71L428.88 688.058Z" fill="#DBDBDB"/>
<path d="M436.061 680.369L441.402 679.247L440.301 675.527L435.562 676.546L436.061 680.369Z" fill="#DBDBDB"/>
<path d="M446.609 680.016L451.181 683.008L453.031 679.6L448.958 676.961L446.609 680.016Z" fill="#DBDBDB"/>
<path d="M454.297 687.225L455.419 692.545L459.139 691.465L458.141 686.727L454.297 687.225Z" fill="#DBDBDB"/>
<path d="M454.651 697.766L451.68 702.317L455.067 704.166L457.706 700.114L454.651 697.766Z" fill="#DBDBDB"/>
<path d="M447.437 705.453L442.117 706.575L443.198 710.295L447.936 709.277L447.437 705.453Z" fill="#DBDBDB"/>
<path d="M544.945 744.234L551.554 745.46L570.465 617.383L562.942 616.012L544.945 744.234Z" fill="#00A48A"/>
<path d="M487.031 723.932L496.861 638.353L562.946 615.992C562.946 615.992 544.95 745.607 544.95 744.215L487.031 723.932Z" fill="#00A48A"/>
<path opacity="0.4" d="M487.031 723.932L496.861 638.353L562.946 615.992C562.946 615.992 544.95 745.607 544.95 744.215L487.031 723.932Z" fill="white"/>
<path d="M326.854 641.819C325.773 634.732 325.192 627.583 324.755 620.435C324.547 616.86 324.464 613.265 324.381 609.691C324.319 606.116 324.256 602.521 324.36 598.946L324.381 598.011L325.295 597.97C338.429 597.263 351.543 596.411 364.677 595.829C377.811 595.185 390.944 594.582 404.078 594.188C390.986 595.372 377.873 596.39 364.76 597.325C351.646 598.344 338.533 599.092 325.42 599.986L326.355 598.988L326.293 609.691L326.418 620.393C326.438 623.967 326.501 627.542 326.605 631.116L326.854 641.819Z" fill="white"/>
<path d="M506.07 639.615C510.164 637.662 514.321 635.854 518.539 634.191C522.737 632.487 526.977 630.866 531.258 629.39C535.539 627.936 539.84 626.502 544.225 625.276C548.589 624.05 552.995 622.907 557.505 622.179L558.606 621.992L558.398 623.052C557.359 628.601 556.279 634.129 554.99 639.636C555.468 634.004 556.154 628.414 556.881 622.824L557.796 623.696C553.432 624.735 549.109 625.962 544.786 627.229C540.464 628.518 536.162 629.868 531.881 631.282L506.07 639.615Z" fill="white"/>
<path opacity="0.1" d="M355.445 591.922L356.547 613.327L357.503 634.732L359.165 677.563L360.454 720.394L360.973 741.82L361.327 763.245L360.204 741.84L359.248 720.435L357.607 677.604L356.318 634.774L355.799 613.348L355.445 591.922Z" fill="black"/>
<path opacity="0.1" d="M349.323 604.832C349.738 606.681 348.637 608.863 346.559 609.487C345.561 609.799 344.377 609.695 343.379 609.134C342.403 608.572 341.675 607.554 341.447 606.432C341.218 605.31 341.488 604.084 342.195 603.19C342.88 602.296 343.94 601.735 344.979 601.631C347.12 601.361 348.99 602.962 349.323 604.832ZM349.323 604.832C349.136 603.897 348.533 603.065 347.723 602.608C346.912 602.151 345.935 602.109 345.146 602.359C343.483 602.899 342.673 604.666 342.984 606.099C343.255 607.554 344.668 608.863 346.413 608.718C347.265 608.656 348.138 608.219 348.699 607.492C349.281 606.765 349.51 605.767 349.323 604.832Z" fill="black"/>
<path opacity="0.1" d="M350.791 630.496C351.207 632.345 350.106 634.528 348.028 635.151C347.03 635.463 345.845 635.359 344.848 634.798C343.871 634.237 343.144 633.218 342.915 632.096C342.687 630.974 342.957 629.748 343.663 628.854C344.349 627.961 345.409 627.399 346.448 627.296C348.589 627.025 350.459 628.626 350.791 630.496ZM350.791 630.496C350.604 629.561 350.002 628.729 349.191 628.272C348.381 627.815 347.404 627.774 346.614 628.023C344.952 628.563 344.141 630.33 344.453 631.764C344.723 633.218 346.136 634.528 347.882 634.382C348.734 634.299 349.607 633.883 350.168 633.156C350.729 632.429 350.958 631.41 350.791 630.496Z" fill="black"/>
<path opacity="0.1" d="M351.737 657.718C352.152 659.568 351.051 661.75 348.973 662.373C347.975 662.685 346.791 662.581 345.793 662.02C344.817 661.459 344.089 660.441 343.861 659.318C343.632 658.196 343.902 656.97 344.609 656.077C345.295 655.183 346.354 654.622 347.393 654.518C349.534 654.269 351.404 655.869 351.737 657.718ZM351.737 657.718C351.55 656.783 350.947 655.952 350.137 655.495C349.326 655.037 348.349 654.996 347.56 655.245C345.897 655.786 345.087 657.552 345.398 658.986C345.669 660.441 347.082 661.75 348.827 661.604C349.679 661.521 350.552 661.106 351.113 660.378C351.674 659.651 351.903 658.653 351.737 657.718Z" fill="black"/>
<path opacity="0.1" d="M352.667 684.96C353.082 686.81 351.981 688.992 349.903 689.615C348.905 689.927 347.721 689.823 346.723 689.262C345.747 688.701 345.019 687.683 344.791 686.561C344.562 685.438 344.832 684.212 345.518 683.319C346.204 682.425 347.264 681.864 348.303 681.76C350.464 681.49 352.334 683.111 352.667 684.96ZM352.667 684.96C352.48 684.025 351.877 683.194 351.067 682.737C350.256 682.28 349.279 682.238 348.49 682.487C346.827 683.028 346.017 684.794 346.328 686.228C346.599 687.683 348.012 688.992 349.757 688.847C350.609 688.784 351.482 688.348 352.043 687.62C352.604 686.893 352.833 685.896 352.667 684.96Z" fill="black"/>
<path opacity="0.1" d="M353.604 712.206C354.02 714.056 352.918 716.238 350.84 716.862C349.843 717.173 348.658 717.069 347.66 716.508C346.684 715.947 345.956 714.929 345.728 713.807C345.499 712.684 345.769 711.458 346.476 710.565C347.162 709.671 348.222 709.11 349.261 709.006C351.401 708.736 353.271 710.357 353.604 712.206ZM353.604 712.206C353.417 711.271 352.814 710.44 352.004 709.983C351.193 709.526 350.217 709.484 349.427 709.733C347.764 710.274 346.954 712.04 347.266 713.474C347.536 714.929 348.949 716.238 350.695 716.093C351.547 716.03 352.419 715.594 352.981 714.867C353.542 714.139 353.77 713.142 353.604 712.206Z" fill="black"/>
<path opacity="0.1" d="M354.534 739.453C354.95 741.302 353.848 743.484 351.77 744.108C350.772 744.419 349.588 744.316 348.59 743.754C347.614 743.193 346.886 742.175 346.658 741.053C346.429 739.931 346.699 738.704 347.385 737.811C348.071 736.917 349.131 736.356 350.17 736.252C352.331 735.982 354.201 737.603 354.534 739.453ZM354.534 739.453C354.347 738.517 353.744 737.686 352.934 737.229C352.123 736.772 351.147 736.73 350.357 736.98C348.694 737.52 347.884 739.286 348.196 740.72C348.466 742.175 349.879 743.484 351.625 743.339C352.477 743.256 353.349 742.84 353.91 742.113C354.472 741.385 354.7 740.388 354.534 739.453Z" fill="black"/>
<path d="M362.943 781.103L265.531 810.621L268.979 821.997L366.39 792.478L362.943 781.103Z" fill="#00A48A"/>
<path opacity="0.4" d="M362.943 781.103L265.531 810.621L268.979 821.997L366.39 792.478L362.943 781.103Z" fill="white"/>
<path d="M316.321 791.358L304.992 794.961L310.346 811.795L321.675 808.192L316.321 791.358Z" fill="#00A48A"/>
<path d="M268.202 838.69L243.077 729.836L167.203 747.833L204.548 853.902L268.202 838.69Z" fill="#00A48A"/>
<path d="M285.044 833.162L268.211 838.69L243.086 729.836L267.296 735.592L285.044 833.162Z" fill="#00A48A"/>
<path opacity="0.2" d="M285.044 833.162L268.211 838.69L243.086 729.836L267.296 735.592L285.044 833.162Z" fill="black"/>
<path d="M364.71 799.701C371.838 799.701 377.615 793.923 377.615 786.796C377.615 779.669 371.838 773.891 364.71 773.891C357.583 773.891 351.805 779.669 351.805 786.796C351.805 793.923 357.583 799.701 364.71 799.701Z" fill="#00A48A"/>
<path d="M497.612 780.795L494.141 792.164L591.491 821.886L594.962 810.517L497.612 780.795Z" fill="#00A48A"/>
<path opacity="0.4" d="M497.612 780.795L494.141 792.164L591.491 821.886L594.962 810.517L497.612 780.795Z" fill="white"/>
<path d="M544.282 791.1L538.891 807.922L550.211 811.55L555.602 794.728L544.282 791.1Z" fill="#00A48A"/>
<path d="M592.281 838.581L617.656 729.789L693.488 747.931L655.914 853.938L592.281 838.581Z" fill="#00A48A"/>
<path d="M575.469 833.007L592.281 838.577L617.655 729.785L593.424 735.5L575.469 833.007Z" fill="#00A48A"/>
<path opacity="0.2" d="M575.469 833.007L592.281 838.577L617.655 729.785L593.424 735.5L575.469 833.007Z" fill="black"/>
<path d="M482.969 786.459C482.948 793.587 488.725 799.385 495.853 799.406C502.981 799.427 508.78 793.649 508.8 786.521C508.821 779.393 503.044 773.595 495.916 773.574C488.788 773.553 482.99 779.331 482.969 786.459Z" fill="#00A48A"/>
<path d="M580.44 652.213C580.752 651.922 612.029 622.911 648.833 632.823C686.468 642.986 717.557 699.678 717.848 700.239L728.302 694.586C726.951 692.072 694.531 632.823 651.908 621.331C608.558 609.652 573.686 642.175 572.211 643.567L580.44 652.213Z" fill="#00A48A"/>
<path opacity="0.4" d="M580.44 652.213C580.752 651.922 612.029 622.911 648.833 632.823C686.468 642.986 717.557 699.678 717.848 700.239L728.302 694.586C726.951 692.072 694.531 632.823 651.908 621.331C608.558 609.652 573.686 642.175 572.211 643.567L580.44 652.213Z" fill="white"/>
<path d="M703.985 757.325L726.533 745.417C724.372 741.323 721.712 734.278 721.317 727.919C720.818 719.689 724.081 716.78 727.697 714.889C735.594 710.712 740.311 712.374 743.533 714.265C748.042 716.926 752.635 722.391 756.459 729.623L779.007 717.715C772.835 706.036 765.27 697.474 756.5 692.299C747.751 687.145 733.599 682.948 715.81 692.341C701.949 699.656 694.883 712.832 695.901 729.457C696.67 742.549 702.281 754.104 703.985 757.325Z" fill="#00A48A"/>
<path d="M585.18 612.499C590.063 609.132 595.072 605.953 600.08 602.794C605.088 599.614 610.18 596.601 615.271 593.567C620.384 590.574 625.496 587.602 630.712 584.755L638.505 580.495C641.145 579.144 643.742 577.731 646.423 576.422C643.992 578.126 641.498 579.726 639.025 581.368L631.523 586.127C626.514 589.286 621.423 592.32 616.331 595.354C611.219 598.346 606.107 601.318 600.891 604.165C595.695 607.033 590.5 609.859 585.18 612.499Z" fill="#213030"/>
<path d="M572.234 661.125C579.238 665.115 585.867 669.604 592.392 674.238C598.897 678.914 605.319 683.715 611.345 689.035C604.342 685.045 597.713 680.556 591.187 675.921C584.683 671.246 578.282 666.445 572.234 661.125Z" fill="#213030"/>
<path d="M583.727 655.141C589.13 656.782 594.45 658.632 599.749 660.523C605.069 662.393 610.306 664.409 615.564 666.425C620.801 668.482 626.038 670.561 631.213 672.763L638.964 676.088C641.52 677.273 644.118 678.374 646.653 679.621C643.952 678.811 641.292 677.896 638.611 677.044L630.651 674.26C625.331 672.389 620.094 670.374 614.837 668.358C609.6 666.3 604.363 664.222 599.188 662.019C593.972 659.816 588.797 657.572 583.727 655.141Z" fill="#213030"/>
<path d="M599.062 617.049C604.237 615.698 609.453 614.576 614.669 613.496C619.886 612.394 625.123 611.438 630.38 610.482C635.638 609.589 640.896 608.695 646.174 607.947L654.092 606.846C656.752 606.555 659.391 606.201 662.052 605.973C659.475 606.658 656.856 607.22 654.258 607.864L646.445 609.526C641.228 610.628 635.991 611.584 630.734 612.54C625.476 613.433 620.218 614.327 614.94 615.075C609.661 615.823 604.383 616.551 599.062 617.049Z" fill="#213030"/>
<path d="M474.344 649.405C475.217 645.207 476.63 641.093 478.458 637.207C480.287 633.3 482.511 629.559 485.316 626.234C488.122 622.95 491.592 620.041 495.77 618.441C499.926 616.882 504.706 616.903 508.883 618.565C513.101 620.207 516.447 623.761 518.234 627.855C519.17 629.891 519.752 632.074 520.001 634.318C520.209 636.562 520.126 638.869 519.232 641.114C518.775 642.215 518.068 643.316 516.946 644.065C516.406 644.439 515.72 644.667 515.076 644.771C514.431 644.854 513.766 644.833 512.998 644.584C511.605 644.002 510.919 642.88 510.317 641.862C509.776 640.823 509.361 639.742 509.091 638.661C507.927 634.318 507.802 629.912 508.01 625.548C508.633 616.861 510.919 608.175 515.595 600.693C517.964 596.994 520.915 593.607 524.614 591.113C528.251 588.619 532.511 586.894 536.855 586.396C538.995 585.876 541.198 585.918 543.38 585.814C544.482 585.689 545.562 585.959 546.643 586.021C547.724 586.167 548.825 586.146 549.885 586.458C554.207 587.227 558.26 588.973 562.042 591.071C565.804 593.254 569.17 596.038 572.225 599.052C575.259 602.106 578.023 605.452 580.247 609.131C575.342 602.127 569.004 596.038 561.543 591.944C557.782 589.991 553.813 588.391 549.635 587.746C548.617 587.455 547.537 587.518 546.497 587.393C545.438 587.372 544.398 587.123 543.359 587.268C541.26 587.414 539.141 587.414 537.104 587.954C532.906 588.536 529.02 590.219 525.612 592.568C522.183 594.916 519.398 598.158 517.175 601.691C512.769 608.84 510.608 617.277 510.067 625.673C509.839 629.871 509.943 634.152 510.982 638.121C511.48 640.033 512.374 642.173 513.683 642.776C513.85 642.797 513.953 642.88 514.161 642.88C514.369 642.859 514.577 642.901 514.785 642.859C515.18 642.797 515.554 642.693 515.886 642.444C516.572 642.007 517.112 641.259 517.466 640.386C518.193 638.62 518.338 636.521 518.151 634.505C517.944 632.468 517.424 630.453 516.593 628.582C514.951 624.842 512.042 621.62 508.259 620.041C504.498 618.441 500.092 618.316 496.206 619.667C492.278 621.08 488.912 623.782 486.085 626.899C480.433 633.237 476.609 641.155 474.344 649.405Z" fill="#213030"/>
<path d="M282.312 703.269C284.328 699.486 287.259 696.224 290.708 693.626C294.137 691.049 298.107 689.033 302.346 688.056C306.565 687.038 311.116 687.017 315.334 688.306C319.574 689.573 323.377 692.046 326.432 695.205C329.508 698.364 331.793 702.209 333.373 706.282C334.911 710.376 335.846 714.74 335.513 719.229C335.285 721.432 334.848 723.801 333.103 725.713C332.23 726.648 330.9 727.271 329.611 727.292C328.365 727.271 327.18 727.084 326.037 726.482C324.894 725.9 323.98 724.861 323.46 723.738C322.941 722.595 322.733 721.411 322.67 720.247C322.587 717.92 323.086 715.717 323.772 713.597C325.164 709.378 327.45 705.596 330.131 702.146C332.812 698.717 335.991 695.642 339.545 693.106C346.59 687.994 355.547 685.147 364.296 686.29C368.618 686.872 372.899 688.119 376.682 690.322C380.506 692.441 383.81 695.413 386.491 698.78C389.192 702.167 391.291 705.991 392.891 709.96C394.512 713.929 395.697 718.086 396.279 722.325C394.533 713.992 391.104 705.908 385.659 699.465C382.958 696.244 379.695 693.48 375.996 691.527C372.338 689.511 368.224 688.41 364.088 687.953C355.775 687.038 347.338 689.698 340.646 694.665C333.955 699.59 328.468 706.469 325.704 714.241C325.06 716.174 324.603 718.211 324.665 720.164C324.707 722.097 325.393 723.967 326.951 724.757C327.679 725.172 328.676 725.339 329.549 725.359C330.401 725.339 331.149 725.006 331.731 724.383C332.936 723.115 333.456 721.037 333.643 719.063C333.976 715.01 333.124 710.812 331.669 706.926C330.193 703.04 328.011 699.403 325.185 696.369C322.359 693.335 318.805 690.966 314.877 689.677C310.95 688.368 306.648 688.264 302.554 689.137C294.407 690.883 286.843 696.016 282.312 703.269Z" fill="#213030"/>
<path d="M186.172 201.391C185.943 192.849 184.114 184.225 180.145 176.723C178.15 173.003 175.511 169.574 172.04 167.267C168.57 165.023 164.268 164.088 160.236 164.753C156.184 165.397 152.588 167.828 150.095 171.07C148.827 172.691 147.85 174.52 147.164 176.432C146.499 178.344 146.125 180.422 146.416 182.313C146.562 183.248 146.894 184.121 147.455 184.703C147.726 185.015 148.058 185.202 148.432 185.368C148.598 185.472 148.827 185.472 149.035 185.534C149.243 185.576 149.367 185.513 149.534 185.534C150.947 185.264 152.339 183.394 153.274 181.669C155.249 178.053 156.371 173.917 157.14 169.782C158.615 161.511 158.532 152.803 155.955 144.802C154.646 140.833 152.713 137.051 149.928 133.934C147.164 130.837 143.798 128.281 139.87 126.702C138.021 125.683 135.963 125.184 133.968 124.54C132.971 124.145 131.911 124.145 130.872 123.917C129.833 123.771 128.794 123.48 127.754 123.501C123.536 123.127 119.296 123.751 115.202 124.748C106.994 126.93 99.3876 131.336 92.9453 136.968C95.9794 133.913 99.4499 131.336 103.128 129.091C106.827 126.889 110.755 124.977 114.932 123.771C119.109 122.649 123.473 121.922 127.838 122.213C128.939 122.15 129.999 122.441 131.1 122.566C132.181 122.774 133.282 122.774 134.321 123.148C136.42 123.771 138.582 124.249 140.535 125.268C144.629 126.785 148.37 129.486 151.3 132.77C154.293 136.053 156.35 140.064 157.763 144.22C160.527 152.595 160.673 161.594 159.197 170.177C158.366 174.458 157.181 178.718 155.02 182.646C154.48 183.622 153.835 184.578 153.066 185.472C152.256 186.303 151.3 187.218 149.804 187.467C149.014 187.55 148.349 187.405 147.746 187.155C147.123 186.906 146.541 186.532 146.084 186.033C145.149 185.056 144.733 183.809 144.546 182.625C144.214 180.256 144.691 177.97 145.419 175.85C146.188 173.73 147.268 171.756 148.661 169.99C151.383 166.457 155.477 163.797 159.966 163.215C164.413 162.591 169.068 163.714 172.726 166.228C176.383 168.784 179.064 172.421 180.997 176.286C182.93 180.193 184.197 184.35 185.049 188.589C185.922 192.787 186.317 197.11 186.172 201.391Z" fill="#213030"/>
<path d="M645.051 309.81C636.676 308.043 627.886 307.794 619.656 309.914C615.583 310.994 611.614 312.761 608.58 315.587C605.587 318.434 603.675 322.404 603.384 326.477C603.052 330.55 604.589 334.623 607.166 337.803C608.434 339.403 609.993 340.795 611.697 341.897C613.401 342.977 615.334 343.829 617.225 343.996C618.16 344.079 619.095 343.933 619.781 343.538C620.134 343.351 620.404 343.06 620.654 342.749C620.778 342.603 620.841 342.395 620.945 342.208C621.028 342.021 621.007 341.876 621.069 341.73C621.132 340.296 619.635 338.509 618.181 337.179C615.126 334.415 611.364 332.358 607.54 330.654C599.83 327.287 591.352 325.334 582.977 325.978C578.82 326.331 574.685 327.329 571.006 329.303C567.349 331.256 564.065 333.937 561.634 337.408C560.2 338.966 559.244 340.858 558.143 342.645C557.54 343.518 557.27 344.557 556.813 345.492C556.438 346.469 555.898 347.404 555.69 348.443C554.36 352.454 553.945 356.714 553.965 360.953C554.173 369.453 556.667 377.87 560.657 385.455C558.413 381.797 556.709 377.807 555.379 373.713C554.09 369.598 553.155 365.338 552.947 360.995C552.822 356.672 553.134 352.267 554.443 348.069C554.651 346.988 555.171 346.011 555.545 344.993C556.002 343.996 556.251 342.915 556.854 342.001C557.956 340.109 558.911 338.114 560.366 336.452C562.798 332.815 566.289 329.823 570.175 327.744C574.082 325.604 578.446 324.544 582.831 324.128C591.622 323.401 600.392 325.354 608.392 328.783C612.362 330.591 616.227 332.732 619.552 335.766C620.383 336.514 621.152 337.366 621.838 338.322C622.462 339.32 623.127 340.442 623.023 341.959C622.898 342.749 622.628 343.351 622.254 343.892C621.859 344.432 621.36 344.931 620.758 345.242C619.573 345.907 618.264 346.032 617.1 345.928C614.71 345.7 612.611 344.702 610.72 343.497C608.85 342.25 607.166 340.733 605.774 338.966C602.968 335.496 601.348 330.903 601.826 326.394C602.262 321.905 604.444 317.665 607.727 314.673C611.073 311.701 615.23 309.955 619.448 308.979C623.688 308.002 628.052 307.752 632.354 307.919C636.614 308.023 640.895 308.646 645.051 309.81Z" fill="#213030"/>
<path d="M516.408 175.351C514.995 170.426 514.787 165.168 515.598 160.076C516.387 154.985 518.112 149.997 520.938 145.612C523.702 141.227 527.589 137.424 532.264 135.014C536.92 132.582 542.24 131.522 547.477 131.689C552.734 131.834 557.888 133.185 562.626 135.346C567.365 137.549 571.791 140.521 575.241 144.594C576.883 146.651 578.462 149.041 578.566 152.055C578.607 153.53 578.005 155.13 576.945 156.211C575.885 157.229 574.742 158.04 573.287 158.455C571.853 158.892 570.274 158.788 568.902 158.268C567.531 157.749 566.388 156.897 565.37 155.962C563.374 154.071 561.961 151.764 560.798 149.395C558.491 144.636 557.265 139.503 556.683 134.328C556.101 129.153 556.267 123.896 557.161 118.763C558.906 108.517 564.185 98.6252 572.581 92.3076C576.758 89.1904 581.434 86.6758 586.504 85.3873C591.534 84.0158 596.833 83.7664 601.945 84.3898C607.078 85.0341 612.066 86.5095 616.783 88.5461C621.501 90.5827 626.01 93.1181 630.063 96.2353C621.625 90.5204 611.92 86.4264 601.82 85.4289C596.791 84.9094 591.679 85.2626 586.858 86.6758C581.995 88.0058 577.548 90.5204 573.599 93.5961C569.692 96.7341 566.367 100.579 563.936 104.943C561.483 109.307 559.883 114.128 559.031 119.074C557.41 128.946 558.449 139.44 562.626 148.48C563.707 150.704 565.016 152.844 566.741 154.486C568.424 156.128 570.648 157.209 572.726 156.544C573.745 156.273 574.763 155.567 575.532 154.839C576.259 154.091 576.654 153.115 576.633 152.034C576.612 149.852 575.282 147.628 573.765 145.758C570.627 141.976 566.367 139.066 561.857 136.967C557.327 134.868 552.381 133.58 547.393 133.351C542.406 133.123 537.356 134.079 532.909 136.302C528.441 138.484 524.638 142.017 521.874 146.215C516.304 154.59 514.143 165.355 516.408 175.351Z" fill="#213030"/>
<path d="M275.323 703.719C270.668 702.243 265.701 704.841 264.246 709.496C262.771 714.151 265.368 719.118 270.024 720.572C274.679 722.048 279.625 719.45 281.1 714.795C282.555 710.14 279.978 705.173 275.323 703.719ZM280.061 714.463C278.773 718.557 274.408 720.822 270.335 719.533C266.241 718.245 263.976 713.881 265.265 709.808C266.553 705.714 270.917 703.448 274.99 704.737C279.084 706.025 281.35 710.389 280.061 714.463ZM275.323 703.719C270.668 702.243 265.701 704.841 264.246 709.496C262.771 714.151 265.368 719.118 270.024 720.572C274.679 722.048 279.625 719.45 281.1 714.795C282.555 710.14 279.978 705.173 275.323 703.719ZM280.061 714.463C278.773 718.557 274.408 720.822 270.335 719.533C266.241 718.245 263.976 713.881 265.265 709.808C266.553 705.714 270.917 703.448 274.99 704.737C279.084 706.025 281.35 710.389 280.061 714.463ZM275.323 703.719C270.668 702.243 265.701 704.841 264.246 709.496C262.771 714.151 265.368 719.118 270.024 720.572C274.679 722.048 279.625 719.45 281.1 714.795C282.555 710.14 279.978 705.173 275.323 703.719ZM280.061 714.463C278.773 718.557 274.408 720.822 270.335 719.533C266.241 718.245 263.976 713.881 265.265 709.808C266.553 705.714 270.917 703.448 274.99 704.737C279.084 706.025 281.35 710.389 280.061 714.463ZM278.274 694.367C268.465 691.27 257.991 696.736 254.915 706.524C251.819 716.333 257.264 726.786 267.093 729.883C276.902 732.979 287.355 727.513 290.452 717.704C293.528 707.937 288.083 697.463 278.274 694.367ZM282.409 715.211C280.726 720.593 274.97 723.586 269.608 721.882C264.246 720.198 261.254 714.442 262.937 709.08C264.62 703.698 270.377 700.726 275.739 702.409C281.1 704.093 284.093 709.849 282.409 715.211ZM281.1 714.795C282.576 710.14 279.978 705.173 275.344 703.719C270.689 702.243 265.722 704.841 264.267 709.496C262.792 714.151 265.389 719.118 270.044 720.572C274.658 722.027 279.625 719.45 281.1 714.795ZM280.061 714.463C278.773 718.557 274.408 720.822 270.335 719.533C266.241 718.245 263.976 713.881 265.265 709.808C266.553 705.714 270.917 703.448 274.99 704.737C279.084 706.025 281.35 710.389 280.061 714.463ZM275.323 703.719C270.668 702.243 265.701 704.841 264.246 709.496C262.771 714.151 265.368 719.118 270.024 720.572C274.679 722.048 279.625 719.45 281.1 714.795C282.555 710.14 279.978 705.173 275.323 703.719ZM280.061 714.463C278.773 718.557 274.408 720.822 270.335 719.533C266.241 718.245 263.976 713.881 265.265 709.808C266.553 705.714 270.917 703.448 274.99 704.737C279.084 706.025 281.35 710.389 280.061 714.463ZM275.323 703.719C270.668 702.243 265.701 704.841 264.246 709.496C262.771 714.151 265.368 719.118 270.024 720.572C274.679 722.048 279.625 719.45 281.1 714.795C282.555 710.14 279.978 705.173 275.323 703.719ZM280.061 714.463C278.773 718.557 274.408 720.822 270.335 719.533C266.241 718.245 263.976 713.881 265.265 709.808C266.553 705.714 270.917 703.448 274.99 704.737C279.084 706.025 281.35 710.389 280.061 714.463Z" fill="#005D62"/>
<path d="M270.707 730.234L263.89 728.094L262.727 733.04L268.816 734.952L270.707 730.234Z" fill="#005D62"/>
<path d="M258.447 723.851L255.122 717.492L250.82 720.173L253.751 725.826L258.447 723.851Z" fill="#005D62"/>
<path d="M254.288 710.636L256.428 703.799L251.482 702.656L249.57 708.745L254.288 710.636Z" fill="#005D62"/>
<path d="M260.662 698.356L267.021 695.052L264.34 690.75L258.688 693.68L260.662 698.356Z" fill="#005D62"/>
<path d="M273.883 694.197L280.72 696.358L281.863 691.412L275.774 689.5L273.883 694.197Z" fill="#005D62"/>
<path d="M286.172 700.599L289.476 706.958L293.778 704.257L290.848 698.625L286.172 700.599Z" fill="#005D62"/>
<path d="M290.333 713.816L288.172 720.633L293.118 721.797L295.03 715.708L290.333 713.816Z" fill="#005D62"/>
<path d="M283.922 726.074L277.562 729.399L280.264 733.701L285.896 730.771L283.922 726.074Z" fill="#005D62"/>
<path d="M619.908 644.328C629.281 631.714 626.642 613.883 614.007 604.511C601.371 595.138 583.541 597.777 574.189 610.392C564.816 623.027 567.456 640.858 580.091 650.23C592.705 659.603 610.536 656.963 619.908 644.328ZM607.73 635.288C603.346 641.19 595.033 642.416 589.131 638.052C583.229 633.667 582.003 625.355 586.388 619.453C590.773 613.551 599.085 612.325 604.987 616.709C610.868 621.074 612.095 629.407 607.73 635.288Z" fill="#213030"/>
<path d="M585.176 652.557L576.386 646.031L572.25 652.598L580.064 658.417L585.176 652.557Z" fill="#213030"/>
<path d="M570.654 637.155L569.033 626.328L561.469 628.074L562.882 637.696L570.654 637.155Z" fill="#213030"/>
<path d="M571.235 616.024L577.761 607.233L571.173 603.098L565.375 610.912L571.235 616.024Z" fill="#213030"/>
<path d="M586.613 601.477L597.44 599.877L595.716 592.312L586.094 593.726L586.613 601.477Z" fill="#213030"/>
<path d="M607.773 602.079L616.564 608.605L620.7 602.017L612.886 596.219L607.773 602.079Z" fill="#213030"/>
<path d="M622.328 617.462L623.928 628.289L631.493 626.565L630.08 616.922L622.328 617.462Z" fill="#213030"/>
<path d="M621.713 638.613L615.188 647.404L621.775 651.539L627.573 643.726L621.713 638.613Z" fill="#213030"/>
<path d="M606.335 653.141L595.508 654.741L597.233 662.326L606.855 660.892L606.335 653.141Z" fill="#213030"/>
<path d="M586.844 628.74L592.891 636.366L602.513 634.932L606.087 625.892L600.04 618.266L590.418 619.679L586.844 628.74ZM598.315 624.833C599.687 625.851 599.978 627.784 598.959 629.155C597.941 630.527 596.008 630.818 594.637 629.799C593.265 628.781 592.974 626.848 593.993 625.477C595.011 624.105 596.944 623.814 598.315 624.833Z" fill="#213030"/>
<path d="M641.293 90.0022C637.22 88.7137 632.877 90.9789 631.588 95.0521C630.3 99.1253 632.565 103.469 636.638 104.757C640.711 106.046 645.055 103.78 646.322 99.7072C647.631 95.6132 645.366 91.2698 641.293 90.0022ZM645.449 99.4162C644.327 102.991 640.503 104.986 636.929 103.863C633.355 102.741 631.36 98.9175 632.502 95.343C633.625 91.7686 637.449 89.7736 641.023 90.9166C644.577 92.018 646.572 95.8418 645.449 99.4162ZM641.293 90.0022C637.22 88.7137 632.877 90.9789 631.588 95.0521C630.3 99.1253 632.565 103.469 636.638 104.757C640.711 106.046 645.055 103.78 646.322 99.7072C647.631 95.6132 645.366 91.2698 641.293 90.0022ZM645.449 99.4162C644.327 102.991 640.503 104.986 636.929 103.863C633.355 102.741 631.36 98.9175 632.502 95.343C633.625 91.7686 637.449 89.7736 641.023 90.9166C644.577 92.018 646.572 95.8418 645.449 99.4162ZM641.293 90.0022C637.22 88.7137 632.877 90.9789 631.588 95.0521C630.3 99.1253 632.565 103.469 636.638 104.757C640.711 106.046 645.055 103.78 646.322 99.7072C647.631 95.6132 645.366 91.2698 641.293 90.0022ZM645.449 99.4162C644.327 102.991 640.503 104.986 636.929 103.863C633.355 102.741 631.36 98.9175 632.502 95.343C633.625 91.7686 637.449 89.7736 641.023 90.9166C644.577 92.018 646.572 95.8418 645.449 99.4162ZM643.87 81.835C635.287 79.1334 626.123 83.8924 623.421 92.4752C620.719 101.058 625.478 110.223 634.061 112.924C642.644 115.626 651.788 110.867 654.51 102.284C657.212 93.6805 652.453 84.5366 643.87 81.835ZM647.486 100.06C646.011 104.757 640.981 107.376 636.285 105.9C631.588 104.425 628.97 99.3954 630.445 94.6988C631.921 90.0022 636.95 87.3837 641.646 88.8592C646.343 90.3347 648.961 95.3638 647.486 100.06ZM646.343 99.6864C647.632 95.6132 645.366 91.2698 641.293 89.9814C637.22 88.6929 632.877 90.9581 631.588 95.0313C630.3 99.1045 632.565 103.448 636.638 104.736C640.711 106.025 645.055 103.76 646.343 99.6864ZM645.449 99.4162C644.327 102.991 640.503 104.986 636.929 103.863C633.355 102.741 631.36 98.9175 632.502 95.343C633.625 91.7686 637.449 89.7736 641.023 90.9166C644.577 92.018 646.572 95.8418 645.449 99.4162ZM641.293 90.0022C637.22 88.7137 632.877 90.9789 631.588 95.0521C630.3 99.1253 632.565 103.469 636.638 104.757C640.711 106.046 645.055 103.78 646.322 99.7072C647.631 95.6132 645.366 91.2698 641.293 90.0022ZM645.449 99.4162C644.327 102.991 640.503 104.986 636.929 103.863C633.355 102.741 631.36 98.9175 632.502 95.343C633.625 91.7686 637.449 89.7736 641.023 90.9166C644.577 92.018 646.572 95.8418 645.449 99.4162ZM641.293 90.0022C637.22 88.7137 632.877 90.9789 631.588 95.0521C630.3 99.1253 632.565 103.469 636.638 104.757C640.711 106.046 645.055 103.78 646.322 99.7072C647.631 95.6132 645.366 91.2698 641.293 90.0022ZM645.449 99.4162C644.327 102.991 640.503 104.986 636.929 103.863C633.355 102.741 631.36 98.9175 632.502 95.343C633.625 91.7686 637.449 89.7736 641.023 90.9166C644.577 92.018 646.572 95.8418 645.449 99.4162Z" fill="#213030"/>
<path d="M637.272 113.219L631.287 111.328L630.289 115.671L635.609 117.334L637.272 113.219Z" fill="#213030"/>
<path d="M626.538 107.607L623.649 102.059L619.867 104.407L622.444 109.353L626.538 107.607Z" fill="#213030"/>
<path d="M622.893 96.0517L624.784 90.0874L620.441 89.0898L618.758 94.3891L622.893 96.0517Z" fill="#213030"/>
<path d="M628.483 85.3064L634.052 82.4177L631.683 78.6562L626.758 81.2124L628.483 85.3064Z" fill="#213030"/>
<path d="M640.047 81.6694L646.032 83.5606L647.03 79.2172L641.709 77.5547L640.047 81.6694Z" fill="#213030"/>
<path d="M650.773 87.2808L653.683 92.8295L657.444 90.4812L654.867 85.5352L650.773 87.2808Z" fill="#213030"/>
<path d="M654.417 98.8359L652.547 104.8L656.869 105.819L658.553 100.498L654.417 98.8359Z" fill="#213030"/>
<path d="M648.827 109.578L643.258 112.467L645.627 116.249L650.573 113.672L648.827 109.578Z" fill="#213030"/>
<path d="M561.817 386.885C557.743 385.597 553.4 387.862 552.112 391.935C550.823 396.008 553.088 400.351 557.161 401.64C561.235 402.928 565.578 400.663 566.846 396.59C568.155 392.517 565.89 388.173 561.817 386.885ZM565.973 396.299C564.851 399.873 561.027 401.868 557.452 400.746C553.878 399.624 551.883 395.8 553.026 392.226C554.148 388.651 557.972 386.656 561.546 387.799C565.121 388.922 567.095 392.725 565.973 396.299ZM561.817 386.885C557.743 385.597 553.4 387.862 552.112 391.935C550.823 396.008 553.088 400.351 557.161 401.64C561.235 402.928 565.578 400.663 566.846 396.59C568.155 392.517 565.89 388.173 561.817 386.885ZM565.973 396.299C564.851 399.873 561.027 401.868 557.452 400.746C553.878 399.624 551.883 395.8 553.026 392.226C554.148 388.651 557.972 386.656 561.546 387.799C565.121 388.922 567.095 392.725 565.973 396.299ZM561.817 386.885C557.743 385.597 553.4 387.862 552.112 391.935C550.823 396.008 553.088 400.351 557.161 401.64C561.235 402.928 565.578 400.663 566.846 396.59C568.155 392.517 565.89 388.173 561.817 386.885ZM565.973 396.299C564.851 399.873 561.027 401.868 557.452 400.746C553.878 399.624 551.883 395.8 553.026 392.226C554.148 388.651 557.972 386.656 561.546 387.799C565.121 388.922 567.095 392.725 565.973 396.299ZM564.393 378.718C555.811 376.016 546.646 380.775 543.944 389.358C541.243 397.941 546.002 407.105 554.585 409.807C563.167 412.509 572.311 407.75 575.034 399.167C577.756 390.584 572.976 381.419 564.393 378.718ZM568.009 396.943C566.534 401.64 561.505 404.258 556.808 402.783C552.112 401.307 549.493 396.278 550.969 391.582C552.444 386.885 557.473 384.266 562.17 385.742C566.887 387.217 569.506 392.247 568.009 396.943ZM566.866 396.59C568.155 392.517 565.89 388.173 561.817 386.885C557.743 385.597 553.4 387.862 552.112 391.935C550.823 396.008 553.088 400.351 557.161 401.64C561.255 402.928 565.578 400.663 566.866 396.59ZM565.973 396.299C564.851 399.873 561.027 401.868 557.452 400.746C553.878 399.624 551.883 395.8 553.026 392.226C554.148 388.651 557.972 386.656 561.546 387.799C565.121 388.922 567.095 392.725 565.973 396.299ZM561.817 386.885C557.743 385.597 553.4 387.862 552.112 391.935C550.823 396.008 553.088 400.351 557.161 401.64C561.235 402.928 565.578 400.663 566.846 396.59C568.155 392.517 565.89 388.173 561.817 386.885ZM565.973 396.299C564.851 399.873 561.027 401.868 557.452 400.746C553.878 399.624 551.883 395.8 553.026 392.226C554.148 388.651 557.972 386.656 561.546 387.799C565.121 388.922 567.095 392.725 565.973 396.299ZM561.817 386.885C557.743 385.597 553.4 387.862 552.112 391.935C550.823 396.008 553.088 400.351 557.161 401.64C561.235 402.928 565.578 400.663 566.846 396.59C568.155 392.517 565.89 388.173 561.817 386.885ZM565.973 396.299C564.851 399.873 561.027 401.868 557.452 400.746C553.878 399.624 551.883 395.8 553.026 392.226C554.148 388.651 557.972 386.656 561.546 387.799C565.121 388.922 567.095 392.725 565.973 396.299Z" fill="#213030"/>
<path d="M557.795 410.097L551.831 408.227L550.812 412.549L556.133 414.232L557.795 410.097Z" fill="#213030"/>
<path d="M547.056 404.511L544.168 398.941L540.406 401.311L542.962 406.257L547.056 404.511Z" fill="#213030"/>
<path d="M543.412 392.955L545.303 386.97L540.959 385.973L539.297 391.293L543.412 392.955Z" fill="#213030"/>
<path d="M549.027 382.21L554.576 379.321L552.227 375.539L547.281 378.116L549.027 382.21Z" fill="#213030"/>
<path d="M560.586 378.573L566.55 380.464L567.569 376.121L562.248 374.438L560.586 378.573Z" fill="#213030"/>
<path d="M571.312 384.162L574.201 389.732L577.983 387.363L575.406 382.438L571.312 384.162Z" fill="#213030"/>
<path d="M574.961 395.719L573.07 401.704L577.414 402.701L579.076 397.381L574.961 395.719Z" fill="#213030"/>
<path d="M569.346 406.461L563.797 409.37L566.145 413.132L571.091 410.555L569.346 406.461Z" fill="#213030"/>
<path d="M107.332 153.154C110.533 140 102.469 126.741 89.3146 123.541C76.1598 120.34 62.9012 128.404 59.7008 141.558C56.5005 154.713 64.5637 167.972 77.7185 171.172C90.8524 174.372 104.132 166.309 107.332 153.154ZM94.6347 150.058C93.1384 156.209 86.9455 159.971 80.8149 158.475C74.6636 156.978 70.9021 150.785 72.3984 144.634C73.8946 138.483 80.0876 134.721 86.2389 136.217C92.3695 137.734 96.131 143.907 94.6347 150.058Z" fill="#213030"/>
<path d="M82.5292 171.294L73.3853 169.07L72.3047 175.658L80.4511 177.653L82.5292 171.294Z" fill="#213030"/>
<path d="M65.8519 163.964L60.9474 155.922L55.5234 159.829L59.8668 166.978L65.8519 163.964Z" fill="#213030"/>
<path d="M59.2498 146.982L61.4734 137.818L54.8649 136.758L52.8906 144.904L59.2498 146.982Z" fill="#213030"/>
<path d="M66.581 130.297L74.6235 125.414L70.7165 119.969L63.5469 124.333L66.581 130.297Z" fill="#213030"/>
<path d="M83.5625 123.687L92.7064 125.932L93.787 119.323L85.6407 117.328L83.5625 123.687Z" fill="#213030"/>
<path d="M100.219 131.021L105.123 139.084L110.547 135.157L106.204 128.008L100.219 131.021Z" fill="#213030"/>
<path d="M106.841 148L104.617 157.165L111.226 158.245L113.2 150.099L106.841 148Z" fill="#213030"/>
<path d="M99.5034 164.688L91.4609 169.592L95.3679 175.016L102.538 170.652L99.5034 164.688Z" fill="#213030"/>
<path d="M75.8772 151.848L83.2339 155.88L90.4035 151.516L90.2165 143.141L82.8806 139.109L75.7109 143.453L75.8772 151.848ZM83.6703 144.907C85.1042 145.261 85.977 146.695 85.6238 148.108C85.2705 149.521 83.8365 150.415 82.4234 150.061C81.0102 149.708 80.1166 148.274 80.4699 146.861C80.8024 145.448 82.2571 144.575 83.6703 144.907Z" fill="#213030"/>
</g>
<defs>
<clipPath id="clip0_360_5914">
<rect width="858.799" height="887" fill="white"/>
</clipPath>
</defs>
</svg>
