<svg width="424" height="404" viewBox="0 0 424 404" fill="none" xmlns="http://www.w3.org/2000/svg">
<path d="M226.866 4.41257C225.497 6.8978 223.164 10.9046 221.693 13.4406C220.222 15.9258 218.447 19.0196 217.737 20.2876C217.027 21.5556 215.049 24.9538 213.273 27.8955C211.549 30.8372 209.165 34.9454 207.948 37.0249C206.731 39.1044 204.347 43.2126 202.622 46.1543C200.898 49.096 198.869 52.5956 198.108 54.0158C196.79 56.5517 194.507 60.4571 190.146 67.8113C186.139 74.6077 182.081 81.7083 182.081 81.9619C182.081 82.1141 181.676 82.8242 181.118 83.585C180.61 84.3457 178.886 87.2367 177.314 90.0263C175.691 92.8158 174.017 95.7575 173.51 96.6198C173.003 97.4312 171.38 100.322 169.909 102.96C168.438 105.597 165.192 111.125 162.707 115.284C160.272 119.393 157.635 123.957 156.925 125.428C156.215 126.848 155.302 128.421 154.896 128.877C154.49 129.283 152.664 132.377 150.838 135.724C146.578 143.281 144.194 147.491 141.861 151.396C140.847 153.07 139.274 155.809 138.361 157.483C137.398 159.156 134.963 163.366 132.884 166.866C130.855 170.365 127.812 175.589 126.138 178.531C121.776 186.19 119.697 189.791 116.4 195.522C114.777 198.311 112.647 202.065 111.633 203.89C110.669 205.716 109.452 207.644 108.944 208.151C108.437 208.709 108.032 209.317 108.032 209.52C108.032 209.977 102.554 219.664 101.742 220.628C101.387 221.034 100.271 222.859 99.3078 224.685C98.3442 226.511 96.6704 229.453 95.6054 231.279C94.591 233.105 93.2723 235.387 92.7144 236.351C91.4464 238.582 88.7583 243.248 87.5917 245.226C87.0846 246.038 85.918 248.219 84.9036 250.045C83.94 251.871 82.1141 254.914 80.8968 256.892C79.6289 258.819 77.9044 261.71 77.0929 263.232C76.2307 264.753 74.557 267.746 73.289 269.825C72.0717 271.905 70.1951 275.201 69.13 277.078C66.3405 282.099 65.884 282.911 63.7538 286.36C62.7394 288.084 61.8772 289.656 61.8772 289.859C61.8772 290.062 60.9643 291.685 59.8484 293.46C58.7326 295.235 57.8197 296.757 57.8197 296.909C57.8197 297.112 50.4147 309.589 48.741 312.176C48.1831 312.987 47.118 314.813 46.4079 316.233C45.6978 317.603 44.1763 320.24 43.0604 322.066C41.9953 323.892 40.2709 326.833 39.2565 328.659C36.467 333.731 35.4526 335.506 18.6139 364.416C16.6358 367.764 13.1869 373.799 10.9046 377.857C8.62223 381.914 5.22406 387.848 3.34746 390.993C0.659347 395.71 0 397.231 0 399.007V401.188L36.3655 401.086L72.7311 400.934L74.4048 398.144C75.3177 396.623 76.4336 394.594 76.8393 393.681C77.2958 392.717 78.8174 390.08 80.2375 387.848C81.7083 385.566 83.6864 382.219 84.7008 380.393C85.6644 378.567 86.9831 376.335 87.4903 375.422C89.3162 372.43 96.0618 360.714 98.3442 356.707C102.047 350.063 104.075 346.563 110.365 335.912C113.712 330.282 117.77 323.232 119.443 320.291C126.138 308.524 127.051 306.901 130.094 301.778C131.819 298.837 133.746 295.54 134.355 294.424C134.963 293.308 136.586 290.569 137.956 288.338C139.325 286.106 141.252 282.809 142.267 280.983C144.549 276.723 145.462 275.151 147.389 272.108C148.252 270.687 150.078 267.492 151.396 265.007C152.766 262.471 155.302 257.906 157.128 254.863C158.903 251.769 161.286 247.661 162.453 245.734C163.569 243.756 165.547 240.357 166.866 238.126C174.372 225.294 175.894 222.707 176.959 220.628C177.618 219.36 178.379 218.092 178.582 217.788C178.835 217.483 179.697 216.012 180.509 214.491C181.32 212.969 182.639 210.585 183.501 209.216C184.364 207.796 185.784 205.412 186.697 203.89C187.559 202.369 188.573 200.949 188.878 200.746C189.182 200.543 224.432 200.442 267.188 200.492C337.992 200.594 345.041 200.543 345.447 199.782C345.904 198.92 344.179 195.065 341.238 190.45C339.665 187.914 337.281 183.806 333.782 177.517C332.767 175.691 331.449 173.459 330.942 172.495C330.384 171.582 329.065 169.3 327.949 167.424C326.884 165.598 325.515 163.265 324.855 162.301C323.892 160.779 316.436 147.795 311.009 138.209C310.096 136.536 308.524 133.797 307.509 132.123C306.546 130.449 304.771 127.355 303.553 125.276C302.387 123.197 300.257 119.595 298.836 117.313C297.416 114.98 295.844 112.241 295.388 111.227C294.88 110.162 294.018 108.589 293.41 107.778C292.801 106.916 291.584 104.887 290.671 103.213C289.758 101.539 288.49 99.2571 287.83 98.1413C287.222 97.0255 285.802 94.4895 284.686 92.5622C283.621 90.5842 282.15 88.0989 281.44 86.9831C280.73 85.8673 279.868 84.2443 279.513 83.3314C279.157 82.4184 278.549 81.4547 278.143 81.0997C277.788 80.7954 276.875 79.2738 276.216 77.7523C275.506 76.2307 274.441 74.4048 273.832 73.644C272.868 72.376 270.586 68.5214 266.275 60.9135C265.311 59.1891 262.978 55.1823 261.102 51.987C259.174 48.7917 257.653 46.0529 257.653 45.9007C257.653 45.7486 256.892 44.4299 255.979 42.959C255.066 41.4882 254.153 39.8651 253.95 39.358C253.646 38.5464 247.712 28.3519 243.603 21.5556C242.893 20.4398 241.321 17.7009 240.053 15.4693C238.734 13.2377 236.351 9.18015 234.728 6.39059C233.105 3.65176 231.786 1.06509 231.786 0.710052C231.786 0.304321 231.279 0 230.569 0C229.605 0 228.895 0.811493 226.866 4.41257ZM231.887 125.834C232.09 126.24 233.46 128.471 234.88 130.855C236.351 133.239 237.923 135.826 238.379 136.688C238.887 137.499 240.915 140.847 242.893 144.042C244.871 147.237 247.052 150.94 247.712 152.208C248.371 153.476 249.335 154.794 249.74 155.15C250.197 155.555 250.552 156.164 250.552 156.519C250.552 157.128 247.255 157.229 231.025 157.229C217.483 157.229 211.498 157.077 211.498 156.671C211.498 156.367 212.208 155.15 213.02 153.932C213.882 152.715 214.541 151.599 214.541 151.396C214.541 151.244 215.759 149.215 217.23 146.933C221.135 140.999 222.859 138.159 227.728 129.841C229.149 127.457 230.264 125.327 230.264 125.124C230.264 124.464 231.38 124.972 231.887 125.834Z" fill="#03006D"/>
<path d="M278.803 214.387C278.549 214.59 276.064 214.945 273.224 215.148C268.406 215.503 266.174 215.807 259.175 217.025C257.653 217.278 255.371 217.633 254.103 217.836C252.835 218.039 250.603 218.648 249.132 219.155C247.662 219.662 245.785 220.118 244.974 220.118C244.162 220.118 243.35 220.321 243.198 220.626C243.046 220.879 242.488 221.133 242.032 221.133C240.713 221.133 228.388 225.14 225.447 226.458C224.077 227.118 221.643 228.132 220.121 228.741C215.506 230.567 205.463 235.993 200.087 239.645C197.298 241.522 194.914 243.196 194.762 243.398C194.61 243.601 192.682 245.072 190.451 246.746C185.835 250.144 175.286 260.237 174.22 262.317C173.815 263.027 173.206 263.94 172.8 264.345C172.445 264.7 171.025 266.78 169.656 268.961C168.236 271.142 166.156 274.438 165.04 276.214C163.874 278.04 162.657 280.22 162.301 281.133C161.997 282.046 161.389 283.517 160.983 284.43C160.577 285.343 160.273 286.408 160.273 286.865C160.273 287.27 159.918 288.183 159.461 288.843C159.005 289.502 158.751 290.719 158.802 291.531C158.903 292.342 158.751 293.357 158.396 293.712C157.382 295.03 157.077 298.429 157.077 309.13C157.027 319.223 157.23 321.455 158.244 323.839C158.498 324.397 158.802 325.665 158.903 326.628C159.208 328.759 161.896 336.214 163.367 339.055C164.533 341.185 168.641 348.184 169.909 350.162C173.46 355.64 184.212 366.95 190.045 371.363C191.617 372.58 193.697 374.152 194.711 374.913C201.457 380.035 216.926 388.607 224.179 391.295C235.489 395.454 244.466 398.345 248.27 398.954C249.132 399.106 250.248 399.41 250.806 399.664C251.364 399.917 252.632 400.222 253.596 400.374C254.559 400.526 256.74 400.881 258.414 401.236C260.088 401.591 262.725 401.895 264.297 401.895C265.87 401.946 267.493 402.25 267.949 402.605C268.406 403.011 270.181 403.265 272.463 403.316C274.492 403.366 282.81 403.468 290.874 403.569C305.278 403.721 316.487 403.265 323.081 402.2C324.907 401.946 327.595 401.54 329.066 401.388C330.536 401.185 331.855 400.881 332.007 400.627C332.16 400.374 333.022 400.171 333.884 400.171C334.797 400.171 336.826 399.714 338.449 399.157C340.021 398.599 341.847 398.142 342.506 398.142C343.166 398.142 344.129 397.787 344.687 397.381C345.194 396.976 346.158 396.621 346.716 396.621C347.324 396.621 349.607 396.012 351.788 395.302C354.019 394.592 356.15 393.933 356.555 393.831C356.961 393.73 359.041 392.969 361.12 392.056C363.2 391.194 365.736 390.179 366.699 389.824C369.641 388.708 380.545 382.977 385.465 379.934C394.29 374.507 406.412 364.008 412.296 356.806C415.795 352.495 421.476 344.279 422.947 341.438C424.215 338.953 424.367 334.49 423.251 333.273C422.845 332.816 421.019 329.367 419.193 325.614C417.317 321.861 415.389 318.31 414.882 317.753C414.426 317.195 413.766 316.028 413.513 315.217C412.6 312.326 409.81 313.188 409.81 316.434C409.81 319.578 406.26 328.201 402.963 332.968C400.174 337.026 391.501 346.104 387.748 348.894C383.335 352.191 374.713 357.111 370.249 358.936C361.374 362.537 350.875 365.631 346.158 366.037C344.789 366.138 343.166 366.443 342.608 366.696C340.021 367.863 318.009 368.269 310.401 367.305C302.134 366.24 296.403 365.175 295.337 364.515C295.084 364.363 294.07 364.059 293.106 363.907C289.251 363.248 282.861 360.762 275.151 356.958C265.92 352.394 263.131 350.771 260.95 348.843C260.138 348.133 258.008 346.358 256.233 344.887C254.509 343.467 252.125 341.134 251.009 339.663C249.893 338.192 248.524 336.519 247.966 335.91C245.075 332.461 240.561 323.484 240.054 320.136C239.902 319.223 239.597 318.361 239.344 318.209C239.09 318.057 238.887 316.383 238.887 314.405C238.887 312.478 238.634 310.449 238.279 309.942C237.822 309.181 237.822 308.674 238.279 307.609C238.634 306.899 238.887 305.174 238.887 303.805C238.887 302.435 239.09 300.812 239.344 300.153C239.597 299.494 240.054 297.871 240.358 296.501C241.068 293.61 244.974 285.597 246.901 283.111C250.198 278.902 258.262 270.939 262.218 267.997C264.754 266.07 269.623 263.23 274.137 261.049C280.73 257.803 284.585 256.383 297.011 252.528C297.873 252.274 299.598 252.071 300.815 252.071C302.083 252.071 303.3 251.869 303.605 251.615C304.416 250.803 309.843 250.448 322.574 250.398C335.558 250.398 336.369 250.448 346.665 253.035C347.781 253.339 349.404 253.694 350.215 253.847C351.078 254.049 352.194 254.354 352.751 254.607C353.309 254.861 355.592 255.52 357.823 256.129C362.134 257.295 365.634 258.462 374.561 261.809C381.002 264.193 383.436 264.7 383.436 263.686C383.436 263.28 382.625 261.607 381.611 259.933C378.365 254.658 374.51 247.862 372.583 244.21C371.568 242.232 369.59 238.732 368.221 236.349C366.801 233.965 365.076 230.871 364.417 229.451C363.2 226.965 363.047 226.864 359.091 225.495C356.86 224.683 354.882 223.872 354.729 223.618C354.577 223.364 353.867 223.162 353.106 223.162C352.346 223.162 350.469 222.705 348.947 222.096C347.426 221.539 343.876 220.473 341.086 219.763C336.166 218.495 334.036 218.039 328.051 217.075C326.428 216.771 323.689 216.314 321.965 216.01C320.19 215.757 316.487 215.249 313.698 214.996C307.358 214.336 279.31 213.88 278.803 214.387Z" fill="#03006D"/>
</svg>
