<svg width="1299" height="283" viewBox="0 0 1299 283" fill="none" xmlns="http://www.w3.org/2000/svg">
<path fill-rule="evenodd" clip-rule="evenodd" d="M185.473 0C70.7376 30.0281 0 71.1464 0 116.5C0 208.455 290.791 283 649.5 283C1008.21 283 1299 208.455 1299 116.5C1299 71.1464 1228.26 30.0281 1113.53 0H185.473Z" fill="#1C3B40"/>
<path fill-rule="evenodd" clip-rule="evenodd" d="M70.4582 0C25.4044 22.6621 0 48.3205 0 75.5C0 167.455 290.791 242 649.5 242C1008.21 242 1299 167.455 1299 75.5C1299 48.3205 1273.6 22.6621 1228.54 0H70.4582Z" fill="#005D62"/>
<path fill-rule="evenodd" clip-rule="evenodd" d="M178.954 0C157.662 14.2882 146 29.7952 146 46C146 117.245 371.425 175 649.5 175C927.575 175 1153 117.245 1153 46C1153 29.7952 1141.34 14.2882 1120.05 0H178.954Z" fill="white"/>
<path fill-rule="evenodd" clip-rule="evenodd" d="M294.549 0C282.512 9.43858 276 19.5233 276 30C276 83.0193 442.774 126 648.5 126C854.226 126 1021 83.0193 1021 30C1021 19.5233 1014.49 9.43858 1002.45 0H294.549Z" fill="#005D62"/>
<path fill-rule="evenodd" clip-rule="evenodd" d="M389.139 0C382.534 5.58466 379 11.4775 379 17.5677C379 53.1527 499.659 82 648.5 82C797.341 82 918 53.1527 918 17.5677C918 11.4775 914.466 5.58466 907.861 0H389.139Z" fill="white"/>
<path fill-rule="evenodd" clip-rule="evenodd" d="M488.722 0C487.588 1.95843 487 3.96184 487 6C487 28.6437 559.53 47 649 47C738.47 47 811 28.6437 811 6C811 3.96184 810.412 1.95843 809.278 0H488.722Z" fill="#005D62"/>
</svg>
