<svg width="860" height="838" viewBox="0 0 860 838" fill="none" xmlns="http://www.w3.org/2000/svg">
<mask id="path-1-inside-1_219_500" fill="white">
<path fill-rule="evenodd" clip-rule="evenodd" d="M0 26C0 11.6406 11.6406 0 26 0H834C848.359 0 860 11.6406 860 26V603.005C859.834 603.002 859.667 603 859.5 603C844.864 603 833 614.864 833 629.5C833 644.136 844.864 656 859.5 656C859.667 656 859.834 655.998 860 655.995V812C860 826.359 848.359 838 834 838H26C11.6406 838 0 826.359 0 812V655.995C14.4048 655.729 26 643.969 26 629.5C26 615.031 14.4048 603.271 0 603.005V26Z"/>
</mask>
<path fill-rule="evenodd" clip-rule="evenodd" d="M0 26C0 11.6406 11.6406 0 26 0H834C848.359 0 860 11.6406 860 26V603.005C859.834 603.002 859.667 603 859.5 603C844.864 603 833 614.864 833 629.5C833 644.136 844.864 656 859.5 656C859.667 656 859.834 655.998 860 655.995V812C860 826.359 848.359 838 834 838H26C11.6406 838 0 826.359 0 812V655.995C14.4048 655.729 26 643.969 26 629.5C26 615.031 14.4048 603.271 0 603.005V26Z" fill="white"/>
<path d="M860 603.005L859.945 606.004L863 606.06V603.005H860ZM860 655.995H863V652.94L859.945 652.996L860 655.995ZM0 655.995L-0.0555012 652.996L-3 653.05V655.995H0ZM0 603.005H-3V605.95L-0.0555012 606.004L0 603.005ZM26 -3C9.98374 -3 -3 9.98373 -3 26H3C3 13.2974 13.2974 3 26 3V-3ZM834 -3H26V3H834V-3ZM863 26C863 9.98375 850.016 -3 834 -3V3C846.703 3 857 13.2974 857 26H863ZM863 603.005V26H857V603.005H863ZM859.5 606C859.648 606 859.796 606.001 859.945 606.004L860.055 600.005C859.871 600.002 859.686 600 859.5 600V606ZM836 629.5C836 616.521 846.521 606 859.5 606V600C843.208 600 830 613.208 830 629.5H836ZM859.5 653C846.521 653 836 642.479 836 629.5H830C830 645.792 843.208 659 859.5 659V653ZM859.945 652.996C859.796 652.999 859.648 653 859.5 653V659C859.686 659 859.871 658.998 860.055 658.995L859.945 652.996ZM863 812V655.995H857V812H863ZM834 841C850.016 841 863 828.016 863 812H857C857 824.703 846.703 835 834 835V841ZM26 841H834V835H26V841ZM-3 812C-3 828.016 9.98373 841 26 841V835C13.2974 835 3 824.703 3 812H-3ZM-3 655.995V812H3V655.995H-3ZM23 629.5C23 642.33 12.7174 652.76 -0.0555012 652.996L0.0555012 658.995C16.0922 658.698 29 645.607 29 629.5H23ZM-0.0555012 606.004C12.7174 606.24 23 616.67 23 629.5H29C29 613.393 16.0922 600.302 0.0555012 600.005L-0.0555012 606.004ZM-3 26V603.005H3V26H-3Z" fill="url(#paint0_linear_219_500)" mask="url(#path-1-inside-1_219_500)"/>
<defs>
<linearGradient id="paint0_linear_219_500" x1="430" y1="0" x2="430" y2="838" gradientUnits="userSpaceOnUse">
<stop stop-color="#2B2826"/>
<stop offset="1" stop-color="#1CAB98"/>
</linearGradient>
</defs>
</svg>
