<svg width="639" height="665" viewBox="0 0 639 665" fill="none" xmlns="http://www.w3.org/2000/svg">
<mask id="path-1-inside-1_385_7424" fill="white">
<path fill-rule="evenodd" clip-rule="evenodd" d="M0 26C0 11.6406 11.6406 0 26 0H613C627.359 0 639 11.6406 639 26V430.572C637.226 430.197 635.386 430 633.5 430C618.864 430 607 441.864 607 456.5C607 471.136 618.864 483 633.5 483C635.386 483 637.226 482.803 639 482.428V639C639 653.359 627.359 665 613 665H26C11.6406 665 0 653.359 0 639V482.995C14.4048 482.729 26 470.969 26 456.5C26 442.031 14.4048 430.271 0 430.005V26Z"/>
</mask>
<path fill-rule="evenodd" clip-rule="evenodd" d="M0 26C0 11.6406 11.6406 0 26 0H613C627.359 0 639 11.6406 639 26V430.572C637.226 430.197 635.386 430 633.5 430C618.864 430 607 441.864 607 456.5C607 471.136 618.864 483 633.5 483C635.386 483 637.226 482.803 639 482.428V639C639 653.359 627.359 665 613 665H26C11.6406 665 0 653.359 0 639V482.995C14.4048 482.729 26 470.969 26 456.5C26 442.031 14.4048 430.271 0 430.005V26Z" fill="white"/>
<path d="M639 430.572L638.38 433.507L642 434.271V430.572H639ZM639 482.428H642V478.729L638.38 479.493L639 482.428ZM0 482.995L-0.0555012 479.996L-3 480.05V482.995H0ZM0 430.005H-3V432.95L-0.0555012 433.004L0 430.005ZM26 -3C9.98374 -3 -3 9.98373 -3 26H3C3 13.2974 13.2974 3 26 3V-3ZM613 -3H26V3H613V-3ZM642 26C642 9.98374 629.016 -3 613 -3V3C625.703 3 636 13.2975 636 26H642ZM642 430.572V26H636V430.572H642ZM633.5 433C635.176 433 636.809 433.175 638.38 433.507L639.62 427.636C637.643 427.219 635.595 427 633.5 427V433ZM610 456.5C610 443.521 620.521 433 633.5 433V427C617.208 427 604 440.208 604 456.5H610ZM633.5 480C620.521 480 610 469.479 610 456.5H604C604 472.792 617.208 486 633.5 486V480ZM638.38 479.493C636.809 479.825 635.176 480 633.5 480V486C635.595 486 637.643 485.781 639.62 485.364L638.38 479.493ZM642 639V482.428H636V639H642ZM613 668C629.016 668 642 655.016 642 639H636C636 651.703 625.703 662 613 662V668ZM26 668H613V662H26V668ZM-3 639C-3 655.016 9.98374 668 26 668V662C13.2975 662 3 651.703 3 639H-3ZM-3 482.995V639H3V482.995H-3ZM23 456.5C23 469.33 12.7174 479.76 -0.0555012 479.996L0.0555012 485.995C16.0922 485.698 29 472.607 29 456.5H23ZM-0.0555012 433.004C12.7174 433.24 23 443.67 23 456.5H29C29 440.393 16.0922 427.302 0.0555012 427.005L-0.0555012 433.004ZM-3 26V430.005H3V26H-3Z" fill="url(#paint0_linear_385_7424)" mask="url(#path-1-inside-1_385_7424)"/>
<defs>
<linearGradient id="paint0_linear_385_7424" x1="430" y1="-173" x2="430" y2="665" gradientUnits="userSpaceOnUse">
<stop stop-color="#2B2826"/>
<stop offset="1" stop-color="#1CAB98"/>
</linearGradient>
</defs>
</svg>
