<svg width="370" height="307" viewBox="0 0 370 307" fill="none" xmlns="http://www.w3.org/2000/svg">
<mask id="path-1-inside-1_581_7855" fill="white">
<path fill-rule="evenodd" clip-rule="evenodd" d="M0 10C0 4.47715 4.47715 0 10 0H360C365.523 0 370 4.47715 370 10V227.791C369.929 227.79 369.857 227.789 369.786 227.789C363.489 227.789 358.385 232.894 358.385 239.19C358.385 245.487 363.489 250.591 369.786 250.591C369.857 250.591 369.929 250.591 370 250.589V297C370 302.523 365.523 307 360 307H9.99999C4.47715 307 0 302.523 0 297V250.589C6.1979 250.475 11.1871 245.415 11.1871 239.19C11.1871 232.965 6.1979 227.905 0 227.791V10Z"/>
</mask>
<path fill-rule="evenodd" clip-rule="evenodd" d="M0 10C0 4.47715 4.47715 0 10 0H360C365.523 0 370 4.47715 370 10V227.791C369.929 227.79 369.857 227.789 369.786 227.789C363.489 227.789 358.385 232.894 358.385 239.19C358.385 245.487 363.489 250.591 369.786 250.591C369.857 250.591 369.929 250.591 370 250.589V297C370 302.523 365.523 307 360 307H9.99999C4.47715 307 0 302.523 0 297V250.589C6.1979 250.475 11.1871 245.415 11.1871 239.19C11.1871 232.965 6.1979 227.905 0 227.791V10Z" fill="white"/>
<path d="M370 227.791L369.963 229.791L372 229.828V227.791H370ZM370 250.589H372V248.552L369.963 248.59L370 250.589ZM0 250.589L-0.0368242 248.59L-2 248.626V250.589H0ZM0 227.791H-2V229.755L-0.0368242 229.791L0 227.791ZM10 -2C3.37258 -2 -2 3.37258 -2 10H2C2 5.58172 5.58172 2 10 2V-2ZM360 -2H10V2H360V-2ZM372 10C372 3.37258 366.627 -2 360 -2V2C364.418 2 368 5.58172 368 10H372ZM372 227.791V10H368V227.791H372ZM369.786 229.789C369.845 229.789 369.904 229.79 369.963 229.791L370.037 225.791C369.953 225.79 369.87 225.789 369.786 225.789V229.789ZM360.385 239.19C360.385 233.998 364.594 229.789 369.786 229.789V225.789C362.385 225.789 356.385 231.789 356.385 239.19H360.385ZM369.786 248.591C364.594 248.591 360.385 244.382 360.385 239.19H356.385C356.385 246.591 362.385 252.591 369.786 252.591V248.591ZM369.963 248.59C369.904 248.591 369.845 248.591 369.786 248.591V252.591C369.87 252.591 369.953 252.591 370.037 252.589L369.963 248.59ZM372 297V250.589H368V297H372ZM360 309C366.627 309 372 303.627 372 297H368C368 301.418 364.418 305 360 305V309ZM9.99999 309H360V305H9.99999V309ZM-2 297C-2 303.627 3.37258 309 9.99999 309V305C5.58172 305 2 301.418 2 297H-2ZM-2 250.589V297H2V250.589H-2ZM9.18709 239.19C9.18709 244.323 5.07307 248.496 -0.0368242 248.59L0.0368242 252.589C7.32273 252.455 13.1871 246.508 13.1871 239.19H9.18709ZM-0.0368242 229.791C5.07307 229.885 9.18709 234.057 9.18709 239.19H13.1871C13.1871 231.873 7.32274 225.926 0.0368242 225.791L-0.0368242 229.791ZM-2 10V227.791H2V10H-2Z" fill="url(#paint0_linear_581_7855)" mask="url(#path-1-inside-1_581_7855)"/>
<defs>
<linearGradient id="paint0_linear_581_7855" x1="185" y1="0.361328" x2="185" y2="360.896" gradientUnits="userSpaceOnUse">
<stop stop-color="#2B2826"/>
<stop offset="1" stop-color="#1CAB98"/>
</linearGradient>
</defs>
</svg>
