<svg width="618" height="600" viewBox="0 0 618 600" fill="none" xmlns="http://www.w3.org/2000/svg">
<path d="M506.613 107.962C550.808 150.868 577.543 204.898 585.728 261.047L615.19 258.927C606.461 196.423 576.997 135.507 527.891 87.3036C507.704 67.7044 485.88 51.8133 462.417 38.5707L449.322 64.5263C469.511 76.1797 489.153 91.0115 506.613 107.962Z" fill="#1C3B40" fill-opacity="0.2"/>
<path d="M111.582 107.962C119.767 100.017 127.951 92.6011 136.681 86.2447L119.767 62.4079C109.4 70.3535 99.5788 78.2991 90.3034 87.8337C77.2084 100.547 66.296 113.789 55.9293 127.562L81.0277 142.923C90.3034 130.21 100.124 118.557 111.582 107.962Z" fill="#1C3B40" fill-opacity="0.2"/>
<path d="M562.265 414.662L588.454 428.434C609.189 386.058 619.01 339.443 617.918 293.36L588.454 295.478C589 336.265 580.27 377.053 562.265 414.662Z" fill="#1C3B40" fill-opacity="0.2"/>
<path d="M417.129 49.6954L430.224 23.7398C339.65 -13.3395 234.892 -6.98305 149.229 42.8093L166.144 66.646C242.529 22.6805 336.376 16.8538 417.129 49.6954Z" fill="#1C3B40" fill-opacity="0.2"/>
<path d="M62.4726 172.056L37.3743 156.695C-16.0965 252.572 -12.2772 370.696 49.3778 462.865L73.3851 445.914C18.8232 362.75 15.5494 257.869 62.4726 172.056Z" fill="#1C3B40" fill-opacity="0.2"/>
<path d="M506.609 491.998C446.591 550.266 365.84 576.221 287.271 570.394L282.905 598.999C370.205 605.885 460.232 577.281 527.342 512.126C544.257 495.706 558.988 477.697 570.993 459.157L544.803 445.384C534.436 461.805 521.887 477.167 506.609 491.998Z" fill="#1C3B40" fill-opacity="0.2"/>
<path d="M111.584 491.998C105.582 486.172 100.126 480.345 94.6696 473.988L70.6622 490.938C76.6641 498.355 83.7571 505.241 90.8502 512.126C135.591 555.563 190.698 583.107 248.534 594.231L252.9 565.628C200.519 555.033 151.414 530.666 111.584 491.998Z" fill="#1C3B40" fill-opacity="0.2"/>
<path d="M187.97 498.355C182.514 495.177 177.604 491.998 172.147 488.29L153.052 510.538C159.053 514.776 165.601 519.013 172.693 522.721C219.072 549.206 270.359 560.861 320.556 558.741L317.282 530.138C273.633 531.726 228.892 521.661 187.97 498.355Z" fill="#1C3B40" fill-opacity="0.2"/>
<path d="M104.49 182.651C108.855 175.235 113.766 168.348 119.222 161.463L96.8517 142.393C90.3043 150.338 84.8481 158.815 79.3918 167.82C71.7532 180.003 65.7514 193.245 60.2951 205.958L88.6674 214.433C93.0324 203.839 98.4886 192.715 104.49 182.651Z" fill="#1C3B40" fill-opacity="0.2"/>
<path d="M77.75 247.804L49.3778 239.329C27.0073 329.378 55.9252 425.256 126.31 489.35L145.407 467.102C84.2975 409.894 59.199 326.2 77.75 247.804Z" fill="#1C3B40" fill-opacity="0.2"/>
<path d="M340.738 71.4133L346.741 43.3389C264.353 32.2152 179.782 58.7003 119.763 116.438L142.134 135.508C195.059 85.1855 268.717 61.8786 340.738 71.4133Z" fill="#1C3B40" fill-opacity="0.2"/>
<path d="M430.222 101.606C475.508 127.561 508.245 165.7 527.342 209.136L555.715 199.601C534.434 149.808 496.786 106.373 445.499 76.7097C425.311 65.0561 404.032 56.5808 382.207 50.2244L376.206 78.2988C394.211 83.5959 412.761 91.5414 430.222 101.606Z" fill="#1C3B40" fill-opacity="0.2"/>
<path d="M543.165 339.973L572.083 346.86C579.175 308.192 577.539 268.992 567.172 231.914L538.8 241.447C547.529 273.23 549.167 307.132 543.165 339.973Z" fill="#1C3B40" fill-opacity="0.2"/>
<path d="M513.7 417.309C477.69 476.637 418.217 514.775 353.289 526.429L356.561 555.033C430.221 542.319 498.423 499.413 539.344 431.612C549.165 415.191 557.349 397.711 563.352 380.231L534.434 373.344C528.978 388.176 521.885 403.007 513.7 417.309Z" fill="#1C3B40" fill-opacity="0.2"/>
<path d="M237.072 476.107C231.07 473.988 225.615 471.34 220.157 468.692L204.334 493.058C211.428 496.766 218.521 499.945 226.159 502.593C237.072 506.83 247.985 510.008 258.897 512.656L263.262 484.053C254.531 481.933 245.802 479.285 237.072 476.107Z" fill="#1C3B40" fill-opacity="0.2"/>
<path d="M490.788 369.636C489.15 373.344 487.514 377.053 485.877 380.759L511.521 395.591C513.705 390.824 516.432 385.528 518.614 380.759C534.983 340.503 538.257 298.655 530.618 259.457L501.7 266.874C507.701 300.245 504.429 335.735 490.788 369.636Z" fill="#1C3B40" fill-opacity="0.2"/>
<path d="M298.182 489.348L293.817 517.953C371.84 523.25 448.227 487.76 493.513 425.256L467.868 410.422C429.13 463.394 364.201 492.527 298.182 489.348Z" fill="#1C3B40" fill-opacity="0.2"/>
<path d="M381.115 123.323C434.586 143.982 473.324 184.768 491.875 232.972L520.793 225.556C499.514 168.878 454.227 120.674 392.027 96.308C377.296 90.4814 362.565 86.7734 347.832 84.1248L345.104 112.729C357.107 115.377 369.112 119.085 381.115 123.323Z" fill="#1C3B40" fill-opacity="0.2"/>
<path d="M113.765 307.132L83.7561 305.542C85.9386 371.754 118.676 434.79 174.329 474.518L190.152 450.152C143.774 416.251 115.948 363.28 113.765 307.132Z" fill="#1C3B40" fill-opacity="0.2"/>
<path d="M309.641 110.081L312.369 81.4766C280.177 80.947 249.077 87.3034 220.159 99.4866L234.346 124.913C257.807 115.378 283.451 110.081 309.641 110.081Z" fill="#1C3B40" fill-opacity="0.2"/>
<path d="M127.402 229.794C142.68 192.186 169.414 161.463 202.152 140.804L187.965 115.379C149.227 139.215 117.581 174.706 99.5757 219.201C92.4827 236.151 88.1176 253.632 85.9351 271.112L115.944 272.7C117.581 258.399 121.4 244.097 127.402 229.794Z" fill="#1C3B40" fill-opacity="0.2"/>
<path d="M461.87 289.652L491.88 291.24C488.606 231.914 454.778 176.825 401.851 146.631L389.302 173.116C431.316 198.013 458.596 241.977 461.87 289.652Z" fill="#1C3B40" fill-opacity="0.2"/>
<path d="M156.868 317.725H126.86C129.588 340.501 136.135 362.75 147.593 382.878L172.691 366.986C164.508 351.626 159.052 335.205 156.868 317.725Z" fill="#1C3B40" fill-opacity="0.2"/>
<path d="M267.084 443.265C236.528 434.79 211.429 417.839 192.332 396.121L167.78 412.012C190.696 439.557 221.797 460.215 259.444 470.81C273.085 474.517 286.725 476.637 300.366 477.167L298.728 448.032C287.816 447.502 277.449 445.914 267.084 443.265Z" fill="#1C3B40" fill-opacity="0.2"/>
<path d="M334.194 446.974L335.83 476.107C388.209 468.692 435.678 439.029 464.596 395.062L437.862 382.349C413.853 416.251 375.66 440.087 334.194 446.974Z" fill="#1C3B40" fill-opacity="0.2"/>
<path d="M456.411 341.033C455.319 344.211 454.229 347.39 453.137 350.568L479.872 363.281C481.509 358.513 483.691 353.746 484.783 348.448C486.965 340.503 488.603 333.086 489.693 325.142L459.685 323.553C459.685 329.908 458.047 335.206 456.411 341.033Z" fill="#1C3B40" fill-opacity="0.2"/>
<path d="M161.78 258.929C173.783 218.141 202.155 186.359 238.165 167.82L227.254 140.804C183.059 162.522 147.593 201.191 132.861 250.982C129.588 261.577 127.405 272.7 126.86 283.825H156.868C157.414 275.349 159.052 266.874 161.78 258.929Z" fill="#1C3B40" fill-opacity="0.2"/>
<path d="M351.109 156.695C352.746 157.225 354.928 157.753 356.564 158.283L369.114 131.798C365.841 130.739 362.568 129.68 359.294 128.62C326.01 119.085 291.636 119.615 260.536 128.091L271.449 155.105C296.548 149.278 324.374 149.278 351.109 156.695Z" fill="#1C3B40" fill-opacity="0.2"/>
</svg>
