<svg width="465" height="452" viewBox="0 0 465 452" fill="none" xmlns="http://www.w3.org/2000/svg">
<path d="M381.189 81.3314C414.443 113.654 434.559 154.356 440.717 196.656L462.886 195.059C456.317 147.972 434.148 102.082 397.2 65.7687C382.011 51.004 365.589 39.0327 347.935 29.0566L338.082 48.6098C353.273 57.3887 368.052 68.562 381.189 81.3314Z" fill="#54A7A1" fill-opacity="0.1"/>
<path d="M83.9577 81.3317C90.1158 75.3461 96.2739 69.7595 102.842 64.971L90.1158 47.014C82.3155 52.9996 74.9258 58.9853 67.9467 66.168C58.0937 75.7452 49.8829 85.7212 42.0827 96.0964L60.9675 107.669C67.9467 98.0916 75.3363 89.3127 83.9577 81.3317Z" fill="#54A7A1" fill-opacity="0.1"/>
<path d="M423.064 312.379L442.769 322.753C458.37 290.83 465.76 255.714 464.938 220.998L442.769 222.594C443.18 253.319 436.611 284.046 423.064 312.379Z" fill="#54A7A1" fill-opacity="0.1"/>
<path d="M313.859 37.4372L323.712 17.884C255.562 -10.0491 176.739 -5.26057 112.284 32.2496L125.011 50.2067C182.486 17.0859 253.098 12.6966 313.859 37.4372Z" fill="#54A7A1" fill-opacity="0.1"/>
<path d="M47.0061 129.616L28.1214 118.043C-12.1114 190.271 -9.23767 279.258 37.1532 348.692L55.2169 335.922C14.1631 273.271 11.6998 194.261 47.0061 129.616Z" fill="#54A7A1" fill-opacity="0.1"/>
<path d="M381.187 370.639C336.027 414.534 275.268 434.086 216.15 429.697L212.865 451.246C278.553 456.434 346.291 434.885 396.787 385.802C409.514 373.432 420.598 359.865 429.631 345.898L409.925 335.522C402.124 347.893 392.682 359.466 381.187 370.639Z" fill="#54A7A1" fill-opacity="0.1"/>
<path d="M83.9586 370.639C79.4427 366.249 75.3373 361.86 71.2319 357.071L53.1682 369.84C57.6841 375.427 63.0211 380.615 68.3582 385.802C102.022 418.524 143.486 439.274 187.004 447.654L190.289 426.106C150.876 418.125 113.928 399.769 83.9586 370.639Z" fill="#54A7A1" fill-opacity="0.1"/>
<path d="M141.434 375.427C137.329 373.033 133.634 370.639 129.528 367.845L115.16 384.605C119.676 387.798 124.603 390.99 129.939 393.783C164.836 413.735 203.425 422.515 241.195 420.918L238.732 399.37C205.889 400.567 172.224 392.985 141.434 375.427Z" fill="#54A7A1" fill-opacity="0.1"/>
<path d="M78.6213 137.597C81.9056 132.01 85.6006 126.822 89.7059 121.636L72.8739 107.27C67.9474 113.255 63.842 119.64 59.7365 126.424C53.9891 135.602 49.4731 145.578 45.3677 155.155L66.7158 161.539C70.0001 153.559 74.1055 145.178 78.6213 137.597Z" fill="#54A7A1" fill-opacity="0.1"/>
<path d="M58.5012 186.679L37.1532 180.295C20.3211 248.132 42.0796 320.359 95.0392 368.644L109.408 351.883C63.4277 308.787 44.5429 245.737 58.5012 186.679Z" fill="#54A7A1" fill-opacity="0.1"/>
<path d="M256.381 53.798L260.898 32.6487C198.906 24.2688 135.273 44.2209 90.1131 87.7168L106.945 102.082C146.768 64.1731 202.19 46.6152 256.381 53.798Z" fill="#54A7A1" fill-opacity="0.1"/>
<path d="M323.711 76.543C357.785 96.0962 382.418 124.827 396.787 157.549L418.135 150.366C402.123 112.856 373.796 80.1345 335.206 57.7879C320.015 49.0089 304.005 42.6242 287.583 37.8357L283.067 58.9851C296.615 62.9756 310.573 68.9612 323.711 76.543Z" fill="#54A7A1" fill-opacity="0.1"/>
<path d="M408.692 256.113L430.451 261.301C435.787 232.171 434.556 202.641 426.756 174.709L405.408 181.89C411.976 205.834 413.208 231.372 408.692 256.113Z" fill="#54A7A1" fill-opacity="0.1"/>
<path d="M386.522 314.373C359.427 359.066 314.678 387.797 265.824 396.577L268.286 418.125C323.71 408.547 375.027 376.225 405.817 325.148C413.207 312.777 419.365 299.609 423.882 286.441L402.123 281.253C398.018 292.426 392.68 303.599 386.522 314.373Z" fill="#54A7A1" fill-opacity="0.1"/>
<path d="M178.379 358.667C173.864 357.071 169.759 355.076 165.652 353.081L153.747 371.437C159.084 374.231 164.421 376.625 170.168 378.62C178.379 381.812 186.591 384.206 194.801 386.201L198.086 364.653C191.516 363.056 184.948 361.061 178.379 358.667Z" fill="#54A7A1" fill-opacity="0.1"/>
<path d="M369.282 278.459C368.05 281.253 366.819 284.046 365.587 286.839L384.882 298.012C386.525 294.421 388.578 290.431 390.22 286.839C402.536 256.512 404.999 224.987 399.251 195.458L377.492 201.045C382.008 226.185 379.546 252.92 369.282 278.459Z" fill="#54A7A1" fill-opacity="0.1"/>
<path d="M224.36 368.642L221.076 390.191C279.783 394.181 337.258 367.446 371.332 320.359L352.037 309.185C322.889 349.09 274.034 371.037 224.36 368.642Z" fill="#54A7A1" fill-opacity="0.1"/>
<path d="M286.762 92.9034C326.994 108.466 356.142 139.192 370.1 175.506L391.859 169.919C375.848 127.221 341.773 90.9081 294.972 72.552C283.888 68.1627 272.803 65.3693 261.718 63.374L259.665 84.9225C268.697 86.9177 277.73 89.711 286.762 92.9034Z" fill="#54A7A1" fill-opacity="0.1"/>
<path d="M85.6 231.373L63.0204 230.175C64.6625 280.055 89.2949 327.542 131.17 357.47L143.076 339.114C108.18 313.575 87.2421 273.671 85.6 231.373Z" fill="#54A7A1" fill-opacity="0.1"/>
<path d="M232.982 82.9275L235.035 61.3791C210.813 60.98 187.412 65.7686 165.653 74.9466L176.328 94.1008C193.981 86.9179 213.276 82.9275 232.982 82.9275Z" fill="#54A7A1" fill-opacity="0.1"/>
<path d="M95.8609 173.112C107.356 144.78 127.472 121.636 152.105 106.073L141.43 86.9185C112.283 104.876 88.4713 131.612 74.9235 165.131C69.5865 177.9 66.3021 191.07 64.6599 204.238L87.2396 205.434C88.4713 194.66 91.3449 183.887 95.8609 173.112Z" fill="#54A7A1" fill-opacity="0.1"/>
<path d="M347.523 218.204L370.104 219.401C367.64 174.709 342.187 133.208 302.364 110.462L292.922 130.414C324.534 149.17 345.06 182.29 347.523 218.204Z" fill="#54A7A1" fill-opacity="0.1"/>
<path d="M118.032 239.353H95.4526C97.5053 256.511 102.432 273.271 111.053 288.435L129.938 276.463C123.78 264.892 119.675 252.521 118.032 239.353Z" fill="#54A7A1" fill-opacity="0.1"/>
<path d="M200.961 333.927C177.97 327.542 159.085 314.772 144.716 298.411L126.242 310.383C143.485 331.133 166.886 346.695 195.213 354.677C205.477 357.469 215.739 359.066 226.003 359.466L224.771 337.517C216.561 337.118 208.76 335.922 200.961 333.927Z" fill="#54A7A1" fill-opacity="0.1"/>
<path d="M251.457 336.72L252.688 358.667C292.099 353.081 327.816 330.735 349.575 297.614L329.459 288.036C311.394 313.575 282.657 331.532 251.457 336.72Z" fill="#54A7A1" fill-opacity="0.1"/>
<path d="M343.416 256.911C342.594 259.306 341.774 261.7 340.953 264.094L361.069 273.672C362.301 270.08 363.943 266.489 364.764 262.497C366.406 256.512 367.638 250.925 368.458 244.94L345.879 243.743C345.879 248.531 344.647 252.522 343.416 256.911Z" fill="#54A7A1" fill-opacity="0.1"/>
<path d="M121.728 195.06C130.759 164.333 152.107 140.391 179.202 126.424L170.992 106.073C137.738 122.433 111.053 151.564 99.9686 189.073C97.5053 197.055 95.8631 205.434 95.4526 213.815H118.032C118.443 207.429 119.675 201.045 121.728 195.06Z" fill="#54A7A1" fill-opacity="0.1"/>
<path d="M264.184 118.043C265.416 118.443 267.058 118.841 268.289 119.24L277.731 99.2882C275.269 98.49 272.806 97.692 270.342 96.8939C245.299 89.711 219.435 90.1102 196.034 96.4949L204.246 116.846C223.131 112.456 244.068 112.456 264.184 118.043Z" fill="#54A7A1" fill-opacity="0.1"/>
</svg>
