<svg width="860" height="694" viewBox="0 0 860 694" fill="none" xmlns="http://www.w3.org/2000/svg">
<mask id="path-1-inside-1_792_36102" fill="white">
<path fill-rule="evenodd" clip-rule="evenodd" d="M0 26C0 11.6406 11.6406 0 26 0H834C848.359 0 860 11.6406 860 26V497.496C859.834 497.493 859.667 497.492 859.5 497.492C844.864 497.492 833 507.33 833 519.465C833 531.6 844.864 541.437 859.5 541.437C859.667 541.437 859.834 541.436 860 541.433V668C860 682.359 848.359 694 834 694H26C11.6406 694 0 682.359 0 668V541.433C14.4048 541.212 26 531.461 26 519.465C26 507.468 14.4048 497.717 0 497.496V26Z"/>
</mask>
<path fill-rule="evenodd" clip-rule="evenodd" d="M0 26C0 11.6406 11.6406 0 26 0H834C848.359 0 860 11.6406 860 26V497.496C859.834 497.493 859.667 497.492 859.5 497.492C844.864 497.492 833 507.33 833 519.465C833 531.6 844.864 541.437 859.5 541.437C859.667 541.437 859.834 541.436 860 541.433V668C860 682.359 848.359 694 834 694H26C11.6406 694 0 682.359 0 668V541.433C14.4048 541.212 26 531.461 26 519.465C26 507.468 14.4048 497.717 0 497.496V26Z" fill="white"/>
<path d="M860 497.496L859.954 500.496L863 500.543V497.496H860ZM860 541.433H863V538.387L859.954 538.434L860 541.433ZM0 541.433L-0.0460226 538.434L-3 538.479V541.433H0ZM0 497.496H-3V500.45L-0.0460226 500.496L0 497.496ZM26 -3C9.98374 -3 -3 9.98373 -3 26H3C3 13.2974 13.2974 3 26 3V-3ZM834 -3H26V3H834V-3ZM863 26C863 9.98375 850.016 -3 834 -3V3C846.703 3 857 13.2974 857 26H863ZM863 497.496V26H857V497.496H863ZM859.5 500.492C859.652 500.492 859.803 500.493 859.954 500.496L860.046 494.496C859.864 494.494 859.682 494.492 859.5 494.492V500.492ZM836 519.465C836 509.488 845.971 500.492 859.5 500.492V494.492C843.758 494.492 830 505.171 830 519.465H836ZM859.5 538.437C845.971 538.437 836 529.441 836 519.465H830C830 533.758 843.758 544.437 859.5 544.437V538.437ZM859.954 538.434C859.803 538.436 859.652 538.437 859.5 538.437V544.437C859.682 544.437 859.864 544.436 860.046 544.433L859.954 538.434ZM863 668V541.433H857V668H863ZM834 697C850.016 697 863 684.016 863 668H857C857 680.703 846.703 691 834 691V697ZM26 697H834V691H26V697ZM-3 668C-3 684.016 9.98373 697 26 697V691C13.2974 691 3 680.703 3 668H-3ZM-3 541.433V668H3V541.433H-3ZM23 519.465C23 529.33 13.2613 538.23 -0.0460226 538.434L0.0460226 544.433C15.5483 544.195 29 533.593 29 519.465H23ZM-0.0460226 500.496C13.2613 500.7 23 509.6 23 519.465H29C29 505.336 15.5483 494.734 0.0460226 494.496L-0.0460226 500.496ZM-3 26V497.496H3V26H-3Z" fill="url(#paint0_linear_792_36102)" mask="url(#path-1-inside-1_792_36102)"/>
<defs>
<linearGradient id="paint0_linear_792_36102" x1="430" y1="159.197" x2="430" y2="854.026" gradientUnits="userSpaceOnUse">
<stop stop-color="#2B2826"/>
<stop offset="1" stop-color="#1CAB98"/>
</linearGradient>
</defs>
</svg>
