<svg width="266" height="61" viewBox="0 0 266 61" fill="none" xmlns="http://www.w3.org/2000/svg">
<path d="M35.85 1.34417C36.8101 1.34417 37.4716 2.12058 37.8379 3.67413C38.2027 5.22724 38.2499 6.8272 37.9752 8.47065C37.7016 10.1168 37.2895 11.1027 36.7415 11.4264C36.5127 11.5657 36.066 11.6355 35.4048 11.6355C34.7409 11.6355 33.9997 11.6004 33.1766 11.5309C32.354 11.4611 31.372 11.3569 30.2299 11.2175C29.0869 11.0792 28.0363 10.9298 27.0774 10.7658C26.1174 10.6046 24.997 10.4305 23.7176 10.2448C22.4382 10.06 21.4018 9.8962 20.608 9.75686C20.8065 16.5727 20.8611 20.3734 20.7708 21.1619C20.313 25.5339 21.6 27.4668 24.6317 26.9559C25.6351 26.7558 26.4007 26.6786 26.9259 26.7236C27.4501 26.7715 28.2385 26.7017 29.289 26.5159C30.2033 26.5159 30.5226 27.0733 30.249 28.1865C29.9743 29.3011 29.3882 30.0278 28.4916 30.3683C28.3795 30.3039 28.2551 30.2703 28.1178 30.2703C27.8149 30.4096 27.0074 30.5683 25.6999 30.745C24.3913 30.9216 23.3424 31.0635 22.55 31.1721C21.7565 31.2793 21.0748 31.5631 20.5023 32.0224C19.9303 32.4814 19.6262 33.1061 19.5891 33.8915C19.5016 34.4076 19.3693 35.8851 19.1926 38.3207C19.017 40.7578 18.8405 42.6065 18.6649 43.8671C18.6303 44.1856 18.6558 44.7316 18.7423 45.5069C18.8274 46.2836 18.9266 47.0795 19.0423 47.895C19.1555 48.7091 19.2586 49.514 19.3502 50.3101C19.4417 51.1048 19.4634 51.7704 19.419 52.3073C19.3819 52.7451 17.3368 55.9491 17.0827 56.1404C16.6832 56.442 16.2485 56.6732 15.7779 56.8355C15.3072 56.9982 14.908 57.1028 14.5786 57.1478C10.9069 57.797 8.30885 57.2626 6.77893 55.5456C5.249 53.8297 4.39058 50.9476 4.20245 46.9029C3.99511 43.1832 4.09832 39.2522 4.50884 35.1068C4.92085 30.963 5.36713 26.4746 5.84662 21.6393C6.32761 16.8048 6.71398 12.8906 7.01295 9.8962C6.55505 9.8962 5.93823 9.95543 5.16247 10.0703C4.38416 10.1866 3.77881 10.2448 3.34522 10.2448C2.91042 10.2448 2.23624 10.1748 1.32313 10.0355C0.866421 9.89621 0.490026 9.31836 0.192709 8.29776C-0.103705 7.27851 -0.0579801 6.28121 0.328544 5.3073C0.717904 4.33447 1.52897 3.89458 2.76262 3.986C3.81306 4.08029 6.65813 3.90622 11.2963 3.46482C15.933 3.02493 20.7976 2.56041 25.887 2.07401C30.9754 1.58653 34.296 1.34417 35.85 1.34417Z" fill="#005D62"/>
<path d="M56.1024 25.068C58.1895 24.6191 60.1099 25.4393 61.8635 27.5343C63.6186 29.6288 64.2292 31.7137 63.6963 33.7848C63.5173 34.5056 63.3517 35.1587 63.1957 35.7444C63.0402 36.3296 62.7855 37.0394 62.431 37.8731C62.0751 38.7067 61.6981 39.3827 61.2977 39.9004C60.8983 40.4179 60.387 40.823 59.7666 41.1162C59.1437 41.4096 58.4774 41.4662 57.7681 41.2856C57.1022 41.1052 56.3904 40.3275 55.6365 38.9537C54.8813 37.5799 54.4809 36.8489 54.4377 36.7571C54.1718 36.3083 54.1375 35.6992 54.3376 34.9331C54.5379 34.1686 54.738 33.3912 54.9368 32.6025C55.1373 31.814 55.1472 31.3755 54.9702 31.2838C54.3474 31.0143 53.3055 31.9384 51.8402 34.0542C50.3745 36.1729 49.3969 37.7942 48.9089 38.9199C48.554 39.776 48.2983 40.6662 48.1439 41.5888C47.9869 42.5127 47.9659 43.5383 48.0768 44.663C48.1869 45.79 48.2983 46.6902 48.4093 47.3656C48.5194 48.0415 48.7418 49.101 49.0756 50.5413C49.4081 51.9844 49.6193 52.9308 49.7082 53.3796C49.9751 54.8666 49.3969 55.8807 47.9771 56.4212C46.5545 56.9614 45.1792 57.0957 43.8469 56.826C41.0936 56.2408 39.1855 54.9905 38.1191 53.0761C37.0525 51.1621 36.5865 48.2221 36.72 44.2579C36.6324 41.7356 36.7534 39.1129 37.0872 36.3861C37.4196 33.6609 37.8742 30.677 38.4516 27.4336C39.0285 24.1905 39.4278 21.6219 39.6502 19.7299C39.7837 18.8749 40.5943 18.999 42.0821 20.1024C43.5688 21.2055 44.7353 22.1859 45.5781 23.0409C48.0201 25.5192 49.0644 27.4564 48.7099 28.853C48.664 28.9432 48.5862 29.6629 48.4762 31.0143C48.3649 32.3659 48.3315 33.0415 48.3761 33.0415C48.7764 33.0865 49.2966 32.7268 49.9419 31.9607C50.5843 31.1949 51.2174 30.3284 51.8402 29.3594C52.4616 28.3903 53.172 27.4678 53.9704 26.5889C54.7701 25.7101 55.4806 25.2034 56.1024 25.068Z" fill="#005D62"/>
<path d="M78.7494 38.5179C78.0831 40.6129 77.8841 41.7178 78.1499 41.8357C78.7258 42.0675 79.4486 41.7501 80.3149 40.882C81.1811 40.0136 81.9561 38.9497 82.6457 37.6871C83.334 36.4258 83.9335 35.1939 84.445 33.9879C84.9543 32.7834 85.21 31.9779 85.21 31.5732C85.253 30.2188 83.7219 31.1534 80.6153 34.3746L80.3484 34.5965C79.948 35.1179 79.4152 36.4256 78.7494 38.5179ZM121.888 42.3506C121.932 42.6186 121.91 42.9811 121.822 43.4368C121.732 43.893 121.566 44.4103 121.322 44.9893C121.078 45.5693 120.867 46.0661 120.689 46.4841C120.512 46.9006 120.279 47.4124 119.989 48.0168C119.7 48.62 119.535 48.9696 119.49 49.0628C118.158 51.8535 116.47 54.1273 114.428 55.883C113.317 56.9467 112.052 57.6153 110.632 57.8894C110.454 57.9462 110.066 58.0735 109.466 58.2707C108.867 58.4683 108.411 58.5986 108.101 58.6657C107.79 58.7299 107.434 58.731 107.034 58.6681C105.525 58.0919 104.348 57.4474 103.505 56.7381C102.661 56.0276 102.017 55.0121 101.573 53.6899C101.395 53.0698 101.218 52.1362 101.041 50.8867C100.951 50.1265 101.195 49.5474 101.772 49.1497C102.128 48.8555 102.327 48.9777 102.373 49.5149V49.7182C102.416 50.5703 102.928 51.6625 103.904 52.9957C104.88 54.327 105.769 54.7197 106.568 54.1717C107.502 53.57 108.201 52.6789 108.667 51.4985C109.133 50.3196 109.276 49.1953 109.099 48.1253C108.478 45.0144 107.767 43.2851 106.791 39.8792C106.746 39.7031 106.546 38.8147 106.191 37.2173C105.835 35.6184 105.458 34.203 105.058 32.9681C104.659 31.7332 104.26 31.0384 103.861 30.8843C104.127 31.2719 103.692 32.6291 102.56 34.9568C101.428 37.283 100.018 39.8093 98.3316 42.5317C98.0157 43.2082 97.6913 43.8318 97.3593 44.4021C96.3118 46.2003 94.2279 48.8828 92.1029 50.8974C90.825 52.1089 89.2955 53.1631 87.7671 54.0264C86.1287 54.9521 83.8105 55.8746 80.8143 56.7946C79.7032 57.1385 78.1499 57.0491 76.1514 56.5276C74.1543 56.006 72.5986 55.3764 71.4889 54.6396C69.9343 53.6149 68.78 52.5439 68.0262 51.4215C67.2698 50.3004 66.7608 48.8257 66.4939 46.9955C66.0945 43.7345 66.6273 40.0263 68.0915 35.8754C69.5573 31.7258 71.511 28.5342 73.9529 26.3001C75.9524 24.5034 79.0383 23.1503 83.2114 22.2446C84.2768 21.9952 85.1322 22.1408 85.776 22.6835C86.42 23.2268 86.8424 23.9211 87.0414 24.7629C87.2414 25.6048 87.3415 26.6124 87.3415 27.783C87.3415 28.5943 87.4403 29.5569 87.6419 30.668C87.8407 31.7822 87.9633 32.6302 88.0078 33.2129C88.0509 33.7954 87.8964 34.7746 87.5419 36.1483C86.8746 37.95 86.0528 39.4119 85.0765 40.5345C84.0988 41.6583 82.8125 42.5639 81.2133 43.2549C80.8143 43.4618 80.503 43.6177 80.2815 43.7211C80.058 43.8276 79.7701 43.9918 79.4151 44.2185C79.0593 44.4449 78.7825 44.665 78.5822 44.8814C78.3822 45.0962 78.2052 45.3676 78.0497 45.6923C77.8939 46.0185 77.8161 46.3733 77.8161 46.7556C77.8161 47.1395 77.905 47.5726 78.083 48.0558C78.2165 48.5434 78.2722 49.1366 78.2497 49.8353C78.2263 50.5361 78.1831 51.2036 78.1163 51.8373C78.0497 52.4735 78.1945 53.0482 78.5503 53.5663C78.9048 54.0831 79.5042 54.4036 80.3484 54.5286C82.3451 54.8469 84.6106 53.9541 87.1415 51.8517C87.1847 51.8488 87.275 51.7739 87.4084 51.6311C89.0507 50.2617 91.2257 47.8895 93.9357 44.5115C94.9681 43.371 95.7741 41.7258 96.7337 40.4755C100.952 33.71 102.904 29.4832 102.595 27.7911C102.505 27.3482 102.195 26.456 101.662 25.1169C101.129 23.778 100.839 22.7493 100.796 22.031C100.751 21.1338 101.039 20.1908 101.662 19.2045C102.017 18.5959 102.295 18.2164 102.495 18.0679C102.694 17.9204 102.994 17.8217 103.394 17.7731C103.792 17.724 104.193 17.596 104.592 17.3892C105.88 16.7201 106.956 16.6594 107.822 17.2103C108.689 17.7613 108.81 18.7562 108.19 20.1937C107.923 20.7966 107.778 21.3125 107.756 21.7415C107.733 22.1719 107.845 22.5708 108.089 22.9356C108.333 23.3034 108.544 23.5816 108.722 23.7728C108.899 23.9644 109.277 24.2667 109.854 24.6776C110.431 25.0909 110.853 25.4014 111.12 25.608C115.293 29.2083 118.269 33.0653 120.046 37.1816C120.933 39.1958 121.488 39.8998 121.888 42.3506Z" fill="#005D62"/>
<path d="M140.626 10.2689C140.359 11.0787 140.181 12.0255 140.092 13.1073C140.013 14.076 140.058 14.9552 140.229 15.7431C140.254 15.8621 140.269 16.0593 140.359 16.1474C141.335 15.2925 142.124 13.7143 142.723 11.4174C143.323 9.1193 143.356 7.38685 142.823 6.21454C142.734 5.99029 142.378 6.48428 141.758 7.7013C141.047 9.09802 140.669 9.95434 140.626 10.2689ZM166.053 42.9673C166.588 43.2831 166.323 44.8639 165.262 47.7097C164.2 50.5555 163.48 52.4862 163.103 53.498C162.526 54.6351 161.882 55.6757 161.174 56.622C160.464 57.5672 159.609 58.4674 158.613 59.3239C157.614 60.1789 156.595 60.6189 155.553 60.6413C154.511 60.6641 153.371 60.3381 152.13 59.6622C150.844 58.8062 149.813 57.4973 149.038 55.7358C148.261 53.9744 147.774 52.4961 147.575 51.3028C147.375 50.1095 147.142 48.3867 146.877 46.1326C146.832 45.773 146.832 44.3763 146.877 41.9441C146.921 39.512 146.964 37.361 147.009 35.4918C147.053 33.6224 147.009 32.4629 146.877 32.0115C146.08 31.6966 144.903 33.7916 143.352 38.2948C141.8 42.8006 141.025 45.6599 141.025 46.8774V48.0255C141.025 48.6564 141.002 49.1176 140.958 49.4112C140.914 49.7044 140.858 50.0867 140.792 50.5593C140.725 51.032 140.614 51.4368 140.459 51.7755C140.302 52.1128 140.114 52.4173 139.893 52.687C137.628 54.9497 135.364 56.3061 133.099 56.7564C131.81 57.0272 130.711 56.483 129.802 55.1277C128.891 53.7712 128.291 52.3157 128.004 50.7612C127.715 49.208 127.571 47.7999 127.571 46.5388C127.614 42.3051 128.047 37.406 128.869 31.842C129.691 26.2798 130.357 22.3156 130.868 19.9499C131.377 17.5852 131.789 15.7273 132.1 14.3759C132.366 13.2952 132.666 12.281 132.999 11.3356C133.332 10.3894 133.765 9.35275 134.297 8.22685C134.83 7.10215 135.418 6.15589 136.063 5.38855C136.706 4.62378 137.429 3.99306 138.228 3.49651C139.027 3.00269 139.936 2.81107 140.958 2.92259C141.979 3.03532 143.067 3.4752 144.222 4.23998C145.243 4.96213 145.953 5.80577 146.354 6.77379C146.753 7.74285 146.82 8.83492 146.553 10.0521C146.287 11.2667 145.987 12.3262 145.654 13.2263C145.321 14.1289 144.798 15.2875 144.089 16.7064C143.378 18.1258 142.933 19.0611 142.757 19.511C142.579 19.8721 142.179 20.5139 141.558 21.4367C140.935 22.3608 140.559 23.1592 140.426 23.8348C140.292 24.4216 140.226 25.2879 140.226 26.4365C140.226 27.5846 140.203 28.3856 140.159 28.8359C140.159 28.9262 140.092 29.376 139.959 30.1873C139.826 30.9983 139.703 31.7983 139.593 32.5854C139.482 33.3741 139.381 34.2191 139.292 35.1192C139.203 36.0204 139.194 36.7866 139.261 37.417C139.326 38.0479 139.493 38.4075 139.76 38.4977C142.157 33.9948 143.556 31.5388 143.955 31.1337C144.755 30.2325 145.354 29.5904 145.754 29.2069C146.154 28.8246 146.753 28.4748 147.553 28.16C148.351 27.8456 149.217 27.7989 150.151 28.0246C152.015 28.4298 153.635 29.8387 155.012 32.2481C156.389 34.6579 156.877 36.8541 156.478 38.8364C156.3 39.017 156.267 39.5347 156.378 40.3898C156.487 41.2458 156.565 41.8201 156.611 42.1122C156.654 42.4068 156.777 42.9811 156.977 43.8362C157.177 44.6922 157.298 45.2114 157.343 45.3905C157.565 46.3821 157.744 47.8341 157.876 49.7485C158.009 51.6624 158.164 53.0277 158.342 53.8427C158.785 55.8751 159.408 56.0129 160.207 54.2562C160.338 53.9517 160.534 53.4706 160.797 52.8149C161.07 52.1013 161.274 51.5999 161.41 51.3128C161.427 51.2715 161.59 50.8742 161.898 50.1219C162.204 49.3696 162.521 48.5973 162.846 47.8038C163.171 47.0102 163.508 46.1854 163.858 45.329C164.208 44.4729 164.582 43.8209 164.983 43.3709C165.384 42.9221 165.74 42.7878 166.053 42.9673Z" fill="#005D62"/>
<path d="M217.748 3.85122C218.325 4.21222 218.736 4.53818 218.98 4.83161C219.223 5.12475 219.347 5.45071 219.347 5.81064C219.347 6.17284 219.29 6.5204 219.18 6.85859C219.069 7.19587 218.924 7.74893 218.747 8.51475C218.569 9.28193 218.458 10.068 218.414 10.8793C218.325 12.3221 218.215 13.9434 218.081 15.7447C217.948 17.5461 217.837 19.1346 217.748 20.5098C217.659 21.884 217.57 23.1339 217.482 24.2598C217.615 32.0537 217.549 36.5569 217.282 37.7741C216.882 39.5293 216.039 41.8851 214.751 44.835C213.462 47.7845 212.241 50.3184 211.087 52.4357C209.665 55.1838 207.979 57.0307 206.026 57.9769C201.852 59.9126 197.41 59.3726 192.704 56.3548C190.882 55.1838 189.474 53.7986 188.475 52.1989C187.475 50.6016 186.853 48.8543 186.611 46.9637C186.365 45.0706 186.243 43.2464 186.243 41.4899V35.6441C186.243 33.5054 186.091 31.7151 185.789 30.2734C185.613 29.5075 185.538 28.5156 185.56 27.3C185.582 26.0838 185.645 25.0167 185.749 24.0966C185.854 23.1777 185.973 22.1222 186.108 20.9299C186.242 19.7377 186.31 19.1409 186.31 19.1385C187.02 12.8662 187.364 8.72796 187.342 6.72317C187.32 4.71854 186.931 3.40223 186.177 2.77045C185.689 2.36427 186.31 1.73489 188.041 0.878857C189.285 0.293144 190.107 0 190.506 0C192.639 0.112567 194.17 0.392271 195.102 0.84123C196.701 1.62473 198.044 2.70291 199.132 4.07436C200.219 5.44705 200.54 6.97265 200.098 8.65255C200.585 9.77228 200.84 11.3128 200.864 13.2724C200.885 15.2334 200.825 16.9796 200.68 18.5116C200.537 20.0447 200.387 21.099 200.23 21.6769C200.304 22.3276 200.266 23.693 200.121 25.7715C199.977 27.85 199.882 29.4524 199.831 30.5783L199.898 29.5651C199.942 31.0069 200.44 34.5762 201.397 40.2741C202.351 45.9732 203.271 49.3632 204.16 50.4438C204.648 50.984 205.093 51.3792 205.492 51.6261C205.891 51.8742 206.281 51.9194 206.658 51.7615C207.035 51.6034 207.357 51.4228 207.624 51.221C207.89 51.0182 208.211 50.5792 208.59 49.9033C208.967 49.2277 209.266 48.6535 209.489 48.1797C209.71 47.707 210.021 46.9746 210.421 45.9847L210.489 45.9167C211.509 43.5298 212.241 36.9742 212.686 26.2505C212.33 21.7409 212.241 17.9736 212.419 14.9511C212.552 12.652 212.753 9.85509 213.02 6.56043C213.063 5.92969 212.963 5.33161 212.719 4.76765C212.475 4.20325 212.297 3.79858 212.187 3.55015C212.075 3.30308 212.174 2.77298 212.486 1.96046C212.62 1.68968 213.319 1.80271 214.584 2.29775C215.849 2.79322 216.903 3.31098 217.748 3.85122Z" fill="#005D62"/>
<path d="M237.903 35.9984C238.572 35.7465 239.239 35.2023 239.908 34.3662C240.576 33.531 241.135 32.5857 241.586 31.5293C242.037 30.4724 242.379 29.3854 242.613 28.2659C242.845 27.1461 242.916 26.1923 242.822 25.4038C242.666 24.3003 242.216 23.4165 241.471 22.7548C240.724 22.0928 239.886 21.7694 238.952 21.7857C238.021 21.8018 237.072 22.045 236.109 22.5177C235.579 22.8323 235.136 23.2711 234.781 23.834C234.422 24.3984 234.166 25.0991 234.011 25.9378C233.855 26.7764 233.751 27.5036 233.697 28.1177C233.642 28.7321 233.615 29.7865 233.615 31.2833C233.615 32.7815 233.6 33.7056 233.569 34.0602C233.6 35.1636 233.822 35.8491 234.232 36.1164C234.643 36.3858 235.346 36.4874 236.341 36.4245C236.715 36.3932 237.235 36.2518 237.903 35.9984ZM245.889 18.3091C246.634 18.9083 247.281 19.712 247.824 20.7213C248.368 21.7303 248.718 22.7469 248.873 23.7715C249.028 24.7967 249.028 25.7821 248.873 26.7275C248.562 28.0214 248.049 29.5584 247.335 31.3398C246.619 33.1212 245.889 34.375 245.143 35.0997C243.495 36.6768 241.926 37.638 240.434 37.9842C237.202 38.6786 234.836 38.9157 233.337 38.6938C233.398 39.5777 233.446 42.9675 233.477 48.8635C233.507 50.3142 233.321 51.1979 232.917 51.5125C232.669 51.7331 232.528 52.3163 232.497 53.2627C232.466 54.208 232.42 54.7759 232.358 54.9652C232.078 55.7211 231.588 56.2726 230.889 56.6212C230.19 56.9674 229.435 57.085 228.628 56.9748C227.819 56.8644 227.105 56.5573 226.483 56.0534C225.799 55.4855 225.333 54.7446 225.085 53.8305C224.835 52.9154 224.742 52.0402 224.804 51.2054C224.866 50.3692 224.882 49.4388 224.849 48.4146C224.82 47.389 224.648 46.5469 224.337 45.8837C224.121 45.4111 224.012 44.7966 224.012 44.0394C224.012 43.282 224.05 42.4547 224.129 41.556C224.206 40.6569 224.244 40.0191 224.244 39.6402C224.151 37.4337 224.181 34.8952 224.337 32.0257L224.893 25.3383C224.935 25.0565 224.967 24.7267 224.989 24.3493C225.01 23.9733 225.033 23.6436 225.056 23.3603C225.08 23.0781 225.108 22.7484 225.137 22.3709C225.169 21.995 225.198 21.6488 225.224 21.3354V20.6033C225.224 20.2409 225.216 19.8773 225.2 19.5151C225.185 19.1528 225.185 18.8055 225.2 18.4747C225.216 18.1435 225.255 17.9469 225.315 17.883C225.531 17.5368 226.122 17.3866 227.09 17.4342C228.057 17.4803 229.072 17.6072 230.132 17.8126C231.191 18.0184 232.136 18.3328 232.966 18.7579C233.303 18.9309 233.568 19.1029 233.763 19.2732C233.941 19.4288 234.042 19.5919 234.12 19.737C234.24 19.9623 234.273 20.3354 234.319 20.5099C235.095 19.9118 235.997 19.3258 236.636 18.8997C237.271 18.4748 238.01 18.072 238.85 17.6935C239.688 17.3151 240.473 17.0791 241.204 16.9839C241.933 16.8901 242.711 16.9453 243.535 17.1495C244.358 17.3549 245.143 17.7413 245.889 18.3091Z" fill="#005D62"/>
<path d="M256.357 39.4624C256.357 32.3003 255.979 22.9991 255.225 11.5559C255.18 10.3397 255.147 9.28153 255.125 8.38029C255.101 7.48013 255.335 6.63497 255.823 5.84648C256.312 5.05935 257.089 4.37104 258.155 3.78564C258.554 3.60626 259.054 3.40333 259.654 3.17757C260.253 2.95196 260.929 2.72741 261.685 2.50164C262.439 2.2774 263.118 2.22102 263.716 2.33255C264.315 2.44511 264.66 2.75008 264.749 3.24511C264.926 3.65024 264.959 4.49492 264.849 5.77892C264.738 7.06259 264.682 7.92997 264.682 8.38027C264.903 10.8124 265.059 12.8846 265.148 14.5971C265.237 16.5794 264.937 19.7659 264.25 24.1576C263.56 28.5493 263.194 31.0614 263.15 31.6923C263.061 33.0889 262.983 34.1357 262.918 34.8337C262.851 35.532 262.651 36.445 262.317 37.5708C261.986 38.6966 261.53 39.6206 260.953 40.3412C260.108 41.2866 259.242 41.4895 258.355 40.9493C258.265 40.9041 257.932 40.6448 257.356 40.1721C256.778 39.6981 256.445 39.4624 256.357 39.4624ZM262.484 50.1389C264.126 50.679 265.215 51.8852 265.749 53.753C266.28 55.6236 265.969 57.188 264.816 58.4492C263.927 59.3494 263.105 59.8785 262.351 60.0377C261.595 60.1944 260.574 60.0704 259.287 59.6653C259.064 59.6201 258.644 59.5074 258.023 59.328C257.4 59.1474 256.91 58.9997 256.556 58.888C256.2 58.7751 255.801 58.5732 255.357 58.2801C254.913 57.9865 254.581 57.6382 254.358 57.233C254.092 56.7366 253.88 55.8041 253.725 54.4289C253.569 53.0547 253.226 52.0983 252.692 51.5567C253.003 50.6114 253.559 49.9355 254.358 49.5293C255.157 49.1246 256.101 48.9679 257.19 49.0568C258.277 49.1484 259.22 49.2824 260.019 49.463C260.819 49.6434 261.64 49.8681 262.484 50.1389Z" fill="#005D62"/>
</svg>
