<svg width="52" height="50" viewBox="0 0 52 50" fill="none" xmlns="http://www.w3.org/2000/svg">
<path d="M42.4431 8.99684C46.1457 12.5724 48.3855 17.0748 49.0712 21.7539L51.5395 21.5773C50.8082 16.3686 48.3397 11.2922 44.2258 7.2753C42.5345 5.64204 40.7061 4.31777 38.7405 3.21423L37.6434 5.37719C39.3348 6.34831 40.9804 7.58429 42.4431 8.99684Z" fill="#223334"/>
<path d="M9.34818 8.99687C10.0338 8.33474 10.7195 7.71676 11.4509 7.18706L10.0338 5.20066C9.16533 5.86279 8.34253 6.52492 7.56545 7.31947C6.46838 8.37889 5.55416 9.48244 4.68565 10.6301L6.78836 11.9103C7.56545 10.8508 8.38824 9.87973 9.34818 8.99687Z" fill="#00A48A"/>
<path d="M47.1056 34.5552L49.2996 35.7028C51.0367 32.1715 51.8595 28.2869 51.7681 24.4467L49.2996 24.6232C49.3453 28.0221 48.614 31.4211 47.1056 34.5552Z" fill="#005D62"/>
<path d="M34.9463 4.14128L36.0434 1.97832C28.4552 -1.11163 19.6788 -0.581921 12.5021 3.56744L13.9192 5.55383C20.3187 1.89004 28.181 1.40449 34.9463 4.14128Z" fill="#005D62"/>
<path d="M5.23384 14.338L3.13115 13.0579C-1.34853 21.0477 -1.02856 30.8913 4.13678 38.5721L6.14807 37.1595C1.57697 30.2291 1.3027 21.4891 5.23384 14.338Z" fill="#223334"/>
<path d="M42.4428 40.9998C37.4146 45.8555 30.6494 48.0184 24.067 47.5328L23.7013 49.9166C31.0151 50.4904 38.5574 48.1067 44.1798 42.6772C45.5969 41.3089 46.831 39.808 47.8368 38.2631L45.6426 37.1153C44.7741 38.4838 43.7227 39.7639 42.4428 40.9998Z" fill="#223334"/>
<path d="M9.34828 40.9999C8.84546 40.5143 8.38835 40.0288 7.93124 39.499L5.91995 40.9115C6.42278 41.5296 7.01701 42.1034 7.61126 42.6772C11.3596 46.2969 15.9763 48.5923 20.8217 49.5192L21.1875 47.1356C16.7991 46.2527 12.6852 44.2222 9.34828 40.9999Z" fill="#00A48A"/>
<path d="M15.7478 41.5296C15.2907 41.2647 14.8794 40.9999 14.4222 40.6908L12.8224 42.5448C13.3252 42.898 13.8738 43.2511 14.4679 43.5601C18.3534 45.7672 22.6502 46.7384 26.8556 46.5617L26.5813 44.1781C22.9245 44.3105 19.1761 43.4718 15.7478 41.5296Z" fill="#223334"/>
<path d="M8.75401 15.2209C9.11969 14.6029 9.5311 14.029 9.9882 13.4553L8.11406 11.8661C7.56553 12.5282 7.10842 13.2346 6.6513 13.985C6.01136 15.0002 5.50853 16.1037 5.05142 17.1631L7.42839 17.8694C7.79408 16.9866 8.2512 16.0595 8.75401 15.2209Z" fill="#00A48A"/>
<path d="M6.51376 20.6503L4.13678 19.9441C2.26263 27.4482 4.68531 35.438 10.582 40.7792L12.1819 38.9252C7.06229 34.1578 4.95958 27.1833 6.51376 20.6503Z" fill="#005D62"/>
<path d="M28.5464 5.95111L29.0494 3.61158C22.147 2.6846 15.0618 4.89169 10.0335 9.70318L11.9077 11.2923C16.3417 7.09879 22.5126 5.15655 28.5464 5.95111Z" fill="#1C3B40"/>
<path d="M36.0432 8.46715C39.8372 10.6301 42.5799 13.8083 44.1798 17.428L46.5568 16.6334C44.7739 12.484 41.6199 8.86443 37.3231 6.39247C35.6318 5.42134 33.8491 4.71507 32.0206 4.18537L31.5178 6.5249C33.0262 6.96633 34.5804 7.62845 36.0432 8.46715Z" fill="#213030"/>
<path d="M45.5054 28.3311L47.9281 28.905C48.5223 25.6826 48.3852 22.416 47.5166 19.3262L45.1397 20.1206C45.871 22.7692 46.0082 25.5943 45.5054 28.3311Z" fill="#213030"/>
<path d="M43.0368 34.7757C40.02 39.7197 35.0375 42.8979 29.5979 43.8691L29.8721 46.2527C36.0431 45.1933 41.7569 41.6178 45.1853 35.9677C46.0081 34.5992 46.6937 33.1426 47.1966 31.6859L44.7739 31.112C44.3168 32.348 43.7226 33.584 43.0368 34.7757Z" fill="#1C3B40"/>
<path d="M19.8615 39.6756C19.3587 39.499 18.9016 39.2783 18.4444 39.0576L17.1188 41.0882C17.713 41.3972 18.3073 41.6621 18.9472 41.8828C19.8615 42.2358 20.7758 42.5007 21.6899 42.7214L22.0556 40.3378C21.3242 40.1611 20.5928 39.9404 19.8615 39.6756Z" fill="#1C3B40"/>
<path d="M41.1173 30.803C40.9801 31.112 40.8431 31.4211 40.7059 31.7299L42.8543 32.9659C43.0372 32.5687 43.2658 32.1273 43.4486 31.7299C44.8199 28.3752 45.0942 24.8879 44.4542 21.6214L42.0315 22.2395C42.5343 25.0204 42.2601 27.9779 41.1173 30.803Z" fill="#005D62"/>
<path d="M24.9812 40.779L24.6154 43.1628C31.1521 43.6041 37.5517 40.6467 41.3456 35.438L39.1972 34.2019C35.9518 38.6161 30.5121 41.0439 24.9812 40.779Z" fill="#005D62"/>
<path d="M31.9292 10.2769C36.4088 11.9985 39.6542 15.3973 41.2084 19.4144L43.6311 18.7963C41.8484 14.0732 38.0543 10.0562 32.8433 8.02567C31.6091 7.54012 30.375 7.23112 29.1407 7.0104L28.9122 9.39408C29.9178 9.61479 30.9235 9.92379 31.9292 10.2769Z" fill="#00A48A"/>
<path d="M9.53103 25.5943L7.01693 25.4618C7.19978 30.9795 9.94244 36.2325 14.605 39.5432L15.9306 37.5127C12.0451 34.6876 9.71388 30.2733 9.53103 25.5943Z" fill="#1C3B40"/>
<path d="M25.9412 9.17339L26.1697 6.78972C23.4727 6.74558 20.8672 7.27528 18.4445 8.29055L19.6331 10.4094C21.5986 9.61482 23.747 9.17339 25.9412 9.17339Z" fill="#005D62"/>
<path d="M10.6735 19.1495C11.9534 16.0155 14.1932 13.4553 16.9359 11.7337L15.7474 9.61488C12.502 11.6013 9.85074 14.5589 8.34227 18.2667C7.74803 19.6792 7.38233 21.136 7.19949 22.5927L9.7136 22.725C9.85074 21.5332 10.1707 20.3414 10.6735 19.1495Z" fill="#213030"/>
<path d="M38.6946 24.1376L41.2088 24.27C40.9345 19.3262 38.1005 14.7354 33.6664 12.2192L32.615 14.4264C36.1348 16.5011 38.4203 20.1648 38.6946 24.1376Z" fill="#223334"/>
<path d="M13.1421 26.4771H10.6281C10.8566 28.3751 11.4051 30.2291 12.3651 31.9065L14.4678 30.5822C13.7822 29.3022 13.3251 27.9337 13.1421 26.4771Z" fill="#005D62"/>
<path d="M22.3758 36.9388C19.8159 36.2325 17.7132 34.8199 16.1133 33.0101L14.0563 34.3344C15.9762 36.6298 18.5817 38.3513 21.7358 39.2342C22.8786 39.5431 24.0213 39.7197 25.1641 39.7639L25.0269 37.336C24.1127 37.2918 23.2442 37.1595 22.3758 36.9388Z" fill="#213030"/>
<path d="M27.9982 37.2478L28.1352 39.6756C32.5234 39.0576 36.5003 36.5857 38.923 32.9219L36.6832 31.8624C34.6719 34.6875 31.4721 36.6739 27.9982 37.2478Z" fill="#00A48A"/>
<path d="M38.2373 28.4194C38.1458 28.6843 38.0545 28.9491 37.963 29.214L40.2028 30.2734C40.34 29.8761 40.5228 29.4788 40.6143 29.0373C40.7971 28.3753 40.9343 27.7572 41.0256 27.0951L38.5115 26.9628C38.5115 27.4923 38.3743 27.9339 38.2373 28.4194Z" fill="#1C3B40"/>
<path d="M13.5536 21.5774C14.5592 18.1784 16.9362 15.53 19.9531 13.985L19.0389 11.7337C15.3363 13.5435 12.3651 16.7659 11.1309 20.9152C10.8566 21.7981 10.6738 22.725 10.6281 23.6521H13.1421C13.1879 22.9457 13.3251 22.2395 13.5536 21.5774Z" fill="#005D62"/>
<path d="M29.4152 13.0579C29.5524 13.1021 29.7352 13.1461 29.8723 13.1903L30.9237 10.9832C30.6495 10.8949 30.3753 10.8066 30.101 10.7183C27.3125 9.92379 24.4327 9.96794 21.8272 10.6742L22.7415 12.9254C24.8442 12.4399 27.1755 12.4399 29.4152 13.0579Z" fill="#1C3B40"/>
</svg>
