<svg width="2289" height="2241" viewBox="0 0 2289 2241" fill="none" xmlns="http://www.w3.org/2000/svg">
<path d="M2090.41 729.478C2183.91 938.399 2201.85 1161.71 2152.85 1366.83L2257.45 1400.03C2313.31 1172.22 2295.43 921.377 2192.27 687.416C2149.57 591.984 2096.11 507.103 2033.35 429.115L1952.45 500.721C2006.09 568.72 2053.48 646.943 2090.41 729.478Z" fill="#54A7A1" fill-opacity="0.1"/>
<path d="M727.046 186.211C766.224 170.034 804.673 155.685 843.548 145.744L817.967 40.183C771.256 53.3594 726.429 67.286 681.299 87.4494C618.614 113.334 562.733 144.049 508.006 177.343L573.494 264.898C622.998 233.76 672.926 207.032 727.046 186.211Z" fill="#54A7A1" fill-opacity="0.1"/>
<path d="M1860.53 1864.94L1931.97 1948.51C2061.83 1830.71 2159.86 1683.28 2219.49 1522.67L2114.89 1489.46C2060.66 1631.03 1974.41 1759.85 1860.53 1864.94Z" fill="#54A7A1" fill-opacity="0.1"/>
<path d="M1861.74 405.24L1942.65 333.634C1681.06 81.0493 1310.76 -41.0733 946.614 13.034L972.197 118.596C1296.31 71.8484 1628.22 180.794 1861.74 405.24Z" fill="#54A7A1" fill-opacity="0.1"/>
<path d="M469.373 339.966L403.886 252.412C87.4347 509.907 -61.8983 922.999 24.0853 1326.02L130.263 1300.51C56.371 938.334 189.367 571.715 469.373 339.966Z" fill="#54A7A1" fill-opacity="0.1"/>
<path d="M1562.05 2055.42C1274.74 2174.05 960.336 2152.61 697.186 2024.44L642.765 2117.2C934.59 2261.04 1284.65 2286.09 1605.91 2153.43C1686.88 2120 1762.5 2078.07 1829.44 2030.57L1758 1947C1699.62 1989.44 1635.18 2025.22 1562.05 2055.42Z" fill="#54A7A1" fill-opacity="0.1"/>
<path d="M198.695 1512.15C185.997 1483.78 175.182 1456.16 165.097 1426.71L58.9212 1452.22C69.4317 1486.08 84.4372 1519.61 99.4454 1553.14C194.099 1764.64 346.394 1935.52 530.701 2053.47L585.12 1960.72C418.916 1852.1 282.962 1700.44 198.695 1512.15Z" fill="#54A7A1" fill-opacity="0.1"/>
<path d="M453.582 1639.15C439.125 1620.68 426.552 1602.95 412.819 1582.64L316.307 1633.19C331.189 1656.08 347.958 1679.71 367.333 1702.27C490.962 1857.5 651.935 1968.27 828.096 2029.98L856.149 1926.72C703.317 1872.18 562.749 1775.9 453.582 1639.15Z" fill="#54A7A1" fill-opacity="0.1"/>
<path d="M599.812 434.332C625.081 414.728 651.504 397.705 679.807 381.437L628.836 284.83C595.309 303.257 564.815 325.02 533.595 348.607C490.471 380.166 451.539 417.631 415.217 454.021L501.478 522.301C531.117 491.729 565.254 460.823 599.812 434.332Z" fill="#54A7A1" fill-opacity="0.1"/>
<path d="M417.887 622.507L331.626 554.227C130.529 834.37 98.4255 1205.17 253.164 1523.26L349.681 1472.71C217.481 1191.15 246.005 867.668 417.887 622.507Z" fill="#54A7A1" fill-opacity="0.1"/>
<path d="M1568.22 375.168L1627.56 286.493C1358.51 134.781 1030.2 109.918 743.619 226.726L794.591 323.33C1046.48 222.372 1332.77 243.2 1568.22 375.168Z" fill="#54A7A1" fill-opacity="0.1"/>
<path d="M1835.51 602.476C1956.1 754.371 2016.61 931.072 2022.76 1107.31L2133.8 1113.4C2128.86 912.221 2058.69 710.479 1922.49 537.528C1868.85 469.528 1807.07 411.002 1740.49 359.041L1681.15 447.718C1736 490.769 1789.1 543.714 1835.51 602.476Z" fill="#54A7A1" fill-opacity="0.1"/>
<path d="M1897.37 1580.8L1987.7 1644.35C2065.37 1520.59 2113.66 1383 2128.89 1240.73L2017.85 1234.62C2004.25 1356.36 1963.26 1475.66 1897.37 1580.8Z" fill="#54A7A1" fill-opacity="0.1"/>
<path d="M1689.27 1807.29C1483.37 1962.61 1225.64 2012.49 985.522 1963.44L957.463 2066.7C1229.17 2124.1 1523.59 2069.76 1758.1 1891.94C1814.59 1848.75 1866.88 1799.66 1911.65 1747.56L1821.32 1684.01C1782.09 1727.72 1737.2 1769.17 1689.27 1807.29Z" fill="#54A7A1" fill-opacity="0.1"/>
<path d="M653.656 1629.87C635.857 1614.3 620.671 1597.65 605.48 1581L517.347 1643.37C536.726 1665.93 556.835 1686.66 579.552 1706.3C611.388 1735.94 644.68 1761.92 678.695 1786.07L733.114 1693.32C705.897 1673.99 679.412 1652.84 653.656 1629.87Z" fill="#54A7A1" fill-opacity="0.1"/>
<path d="M1675.79 1611.18C1665.03 1621.74 1654.29 1632.29 1643.53 1642.83L1711.63 1729.31C1725.73 1715.86 1742.43 1701.32 1756.52 1687.86C1868.4 1571.38 1937.27 1431.39 1964.84 1285.55L1854.83 1271.39C1829.63 1394.86 1769.51 1512.9 1675.79 1611.18Z" fill="#54A7A1" fill-opacity="0.1"/>
<path d="M846.348 1759.63L791.927 1852.38C1053.92 1977.97 1366.38 1960.49 1608.67 1806.97L1540.57 1720.48C1334 1850.1 1069.82 1861.39 846.348 1759.63Z" fill="#54A7A1" fill-opacity="0.1"/>
<path d="M1636.15 609.924C1792.27 754.786 1869.86 948.882 1867.56 1140.83L1977.57 1154.99C1982.11 930.038 1892.13 701.327 1710.98 531.656C1668.15 491.28 1622.41 458.218 1575.21 428.812L1526.44 523.821C1564.22 549.473 1600.55 578.785 1636.15 609.924Z" fill="#54A7A1" fill-opacity="0.1"/>
<path d="M460.563 876.875L359.18 830.115C275.617 1061.73 301.878 1324.39 439.297 1538.09L527.43 1475.73C414.007 1294.89 390.847 1073.73 460.563 876.875Z" fill="#54A7A1" fill-opacity="0.1"/>
<path d="M1407.69 465.907L1456.46 370.899C1346.08 324.798 1230 303.973 1113.44 306.268L1127.42 413.565C1221.51 412.91 1317.3 429.888 1407.69 465.907Z" fill="#54A7A1" fill-opacity="0.1"/>
<path d="M614.029 628.61C718.497 519.773 853.036 450.464 994.446 424.16L980.463 316.863C813.971 345.888 655.924 424.904 532.566 553.766C484.766 602.533 445.65 656.887 414.069 714.238L515.454 760.992C540.78 713.865 573.637 669.739 614.029 628.61Z" fill="#54A7A1" fill-opacity="0.1"/>
<path d="M1686.02 1295.26L1787.41 1342.01C1857.73 1132.68 1816.78 895.951 1675.65 718.915L1595.9 793.101C1706.65 936.839 1740.32 1126.15 1686.02 1295.26Z" fill="#54A7A1" fill-opacity="0.1"/>
<path d="M594.75 972.728L491.182 931.458C469.261 1013.85 461.249 1099.67 473.102 1184.92L581.587 1164.57C574.475 1100.28 578.238 1036.08 594.75 972.728Z" fill="#54A7A1" fill-opacity="0.1"/>
<path d="M802.418 1557.75C708.621 1486.47 645.32 1393.42 609.291 1292.17L502.689 1313.28C543.885 1439.89 622.799 1553.99 738.156 1642.35C780.136 1673.9 824.293 1699.98 870.643 1720.57L905.075 1617.73C868.145 1600.89 834.55 1581.15 802.418 1557.75Z" fill="#54A7A1" fill-opacity="0.1"/>
<path d="M1028.93 1662.85L994.499 1765.68C1185.48 1812.12 1390.12 1774.98 1550.41 1662.95L1475.63 1582.29C1346.13 1666.32 1181.52 1696.1 1028.93 1662.85Z" fill="#54A7A1" fill-opacity="0.1"/>
<path d="M1596.49 1465.15C1588.35 1474.62 1580.22 1484.1 1572.08 1493.57L1646.86 1574.23C1659.07 1560.02 1673.16 1546.56 1684.21 1529.77C1702.67 1505.34 1718.53 1481.99 1733.22 1456.05L1631.84 1409.3C1623.1 1431.24 1610.16 1447.28 1596.49 1465.15Z" fill="#54A7A1" fill-opacity="0.1"/>
<path d="M692.593 776.48C790.136 652.161 931.782 581.45 1081.57 566.962L1081.08 458.681C898.67 472.883 723.066 557.621 603.72 709.273C577.845 741.351 555.009 776.754 537.821 814.414L641.39 855.683C654.936 827.168 672.248 800.159 692.593 776.48Z" fill="#54A7A1" fill-opacity="0.1"/>
<path d="M1486.68 683.878C1491.6 687.96 1498.4 692.785 1503.32 696.865L1583.07 622.681C1573.23 614.523 1563.39 606.363 1553.55 598.202C1451.8 519.509 1332.43 474.065 1213.44 460.556L1213.94 568.836C1308.57 583.236 1404.61 621.504 1486.68 683.878Z" fill="#54A7A1" fill-opacity="0.1"/>
</svg>
