<svg width="762" height="4" viewBox="0 0 762 4" fill="none" xmlns="http://www.w3.org/2000/svg">
<path d="M760 3.5C760.828 3.5 761.5 2.82843 761.5 2C761.5 1.17157 760.828 0.5 760 0.5V3.5ZM0 3.5H3.01587V0.5H0V3.5ZM9.04762 3.5H15.0794V0.5H9.04762V3.5ZM21.1111 3.5H27.1429V0.5H21.1111V3.5ZM33.1746 3.5H39.2063V0.5H33.1746V3.5ZM45.2381 3.5H51.2698V0.5H45.2381V3.5ZM57.3016 3.5H63.3333V0.5H57.3016V3.5ZM69.3651 3.5H75.3968V0.5H69.3651V3.5ZM81.4286 3.5H87.4603V0.5H81.4286V3.5ZM93.4921 3.5H99.5238V0.5H93.4921V3.5ZM105.556 3.5H111.587V0.5H105.556V3.5ZM117.619 3.5H123.651V0.5H117.619V3.5ZM129.683 3.5H135.714V0.5H129.683V3.5ZM141.746 3.5H147.778V0.5H141.746V3.5ZM153.809 3.5H159.841V0.5H153.809V3.5ZM165.873 3.5H171.905V0.5H165.873V3.5ZM177.936 3.5H183.968V0.5H177.936V3.5ZM190 3.5H196.032V0.5H190V3.5ZM202.063 3.5H208.095V0.5H202.063V3.5ZM214.127 3.5H220.159V0.5H214.127V3.5ZM226.19 3.5H232.222V0.5H226.19V3.5ZM238.254 3.5H244.286V0.5H238.254V3.5ZM250.317 3.5H256.349V0.5H250.317V3.5ZM262.381 3.5H268.413V0.5H262.381V3.5ZM274.444 3.5H280.476V0.5H274.444V3.5ZM286.508 3.5H292.539V0.5H286.508V3.5ZM298.571 3.5H304.603V0.5H298.571V3.5ZM310.635 3.5H316.666V0.5H310.635V3.5ZM322.698 3.5H328.73V0.5H322.698V3.5ZM334.762 3.5H340.793V0.5H334.762V3.5ZM346.825 3.5H352.857V0.5H346.825V3.5ZM358.889 3.5H364.92V0.5H358.889V3.5ZM370.952 3.5H376.984V0.5H370.952V3.5ZM383.016 3.5H389.047V0.5H383.016V3.5ZM395.079 3.5H401.111V0.5H395.079V3.5ZM407.143 3.5H413.174V0.5H407.143V3.5ZM419.206 3.5H425.238V0.5H419.206V3.5ZM431.269 3.5H437.301V0.5H431.269V3.5ZM443.333 3.5H449.365V0.5H443.333V3.5ZM455.396 3.5H461.428V0.5H455.396V3.5ZM467.46 3.5H473.492V0.5H467.46V3.5ZM479.523 3.5H485.555V0.5H479.523V3.5ZM491.587 3.5H497.619V0.5H491.587V3.5ZM503.65 3.5H509.682V0.5H503.65V3.5ZM515.714 3.5H521.746V0.5H515.714V3.5ZM527.777 3.5H533.809V0.5H527.777V3.5ZM539.841 3.5H545.872V0.5H539.841V3.5ZM551.904 3.5H557.936V0.5H551.904V3.5ZM563.968 3.5H569.999V0.5H563.968V3.5ZM576.031 3.5H582.063V0.5H576.031V3.5ZM588.095 3.5H594.126V0.5H588.095V3.5ZM600.158 3.5H606.19V0.5H600.158V3.5ZM612.222 3.5H618.253V0.5H612.222V3.5ZM624.285 3.5H630.317V0.5H624.285V3.5ZM636.349 3.5H642.38V0.5H636.349V3.5ZM648.412 3.5H654.444V0.5H648.412V3.5ZM660.476 3.5H666.507V0.5H660.476V3.5ZM672.539 3.5H678.571V0.5H672.539V3.5ZM684.602 3.5H690.634V0.5H684.602V3.5ZM696.666 3.5H702.698V0.5H696.666V3.5ZM708.729 3.5H714.761V0.5H708.729V3.5ZM720.793 3.5H726.825V0.5H720.793V3.5ZM732.856 3.5H738.888V0.5H732.856V3.5ZM744.92 3.5H750.952V0.5H744.92V3.5ZM756.983 3.5H760V0.5H756.983V3.5Z" fill="#E4E4E4"/>
</svg>
