<svg width="216" height="50" viewBox="0 0 216 50" fill="none" xmlns="http://www.w3.org/2000/svg">
<path d="M81.4797 16.4568H69.2748L69.3205 36.5856H63.4239V11.8219H81.5254L81.4797 16.4568Z" fill="#005D62"/>
<path d="M101.41 12.8814C103.101 13.6318 104.381 14.6471 105.295 16.0155C106.21 17.3397 106.667 18.973 106.667 20.7828C106.667 22.5927 106.21 24.1817 105.295 25.5501C104.381 26.9186 103.101 27.9339 101.41 28.6843C99.7187 29.3905 97.753 29.7436 95.4675 29.7436H90.3022V36.5856H84.3597V11.822H95.4675C97.753 11.7778 99.7644 12.1309 101.41 12.8814ZM99.2616 23.9168C100.176 23.1664 100.633 22.1071 100.633 20.7387C100.633 19.326 100.176 18.2667 99.2616 17.5163C98.3473 16.7659 96.976 16.4127 95.1933 16.4127H90.348V25.0204H95.1933C96.976 25.0646 98.3016 24.6672 99.2616 23.9168Z" fill="#005D62"/>
<path d="M133.18 36.5414L133.134 21.7098L125.591 33.9371H122.94L115.398 22.0188V36.5856H109.821V11.8219H114.758L124.357 27.2275L133.82 11.8219H138.71L138.756 36.5856H133.18V36.5414Z" fill="#005D62"/>
<path d="M42.4431 8.99684C46.1457 12.5724 48.3855 17.0748 49.0712 21.7539L51.5395 21.5773C50.8082 16.3686 48.3397 11.2922 44.2258 7.2753C42.5345 5.64204 40.7061 4.31777 38.7405 3.21423L37.6434 5.37719C39.3348 6.34831 40.9804 7.58429 42.4431 8.99684Z" fill="#223334"/>
<path d="M9.34818 8.99687C10.0338 8.33474 10.7195 7.71676 11.4509 7.18706L10.0338 5.20066C9.16533 5.86279 8.34253 6.52492 7.56545 7.31947C6.46838 8.37889 5.55416 9.48244 4.68565 10.6301L6.78836 11.9103C7.56545 10.8508 8.38824 9.87973 9.34818 8.99687Z" fill="#00A48A"/>
<path d="M47.1056 34.5552L49.2996 35.7028C51.0367 32.1715 51.8595 28.2869 51.7681 24.4467L49.2996 24.6232C49.3453 28.0221 48.614 31.4211 47.1056 34.5552Z" fill="#005D62"/>
<path d="M34.9463 4.14128L36.0434 1.97832C28.4552 -1.11163 19.6788 -0.581921 12.5021 3.56744L13.9192 5.55383C20.3187 1.89004 28.181 1.40449 34.9463 4.14128Z" fill="#005D62"/>
<path d="M5.23384 14.338L3.13115 13.0579C-1.34853 21.0477 -1.02856 30.8913 4.13678 38.5721L6.14807 37.1595C1.57697 30.2291 1.3027 21.4891 5.23384 14.338Z" fill="#223334"/>
<path d="M42.4428 40.9998C37.4146 45.8555 30.6494 48.0184 24.067 47.5328L23.7013 49.9166C31.0151 50.4904 38.5574 48.1067 44.1798 42.6772C45.5969 41.3089 46.831 39.808 47.8368 38.2631L45.6426 37.1153C44.7741 38.4838 43.7227 39.7639 42.4428 40.9998Z" fill="#223334"/>
<path d="M9.34828 40.9999C8.84546 40.5143 8.38835 40.0288 7.93124 39.499L5.91995 40.9115C6.42278 41.5296 7.01701 42.1035 7.61126 42.6772C11.3596 46.2969 15.9763 48.5923 20.8217 49.5192L21.1875 47.1356C16.7991 46.2527 12.6852 44.2222 9.34828 40.9999Z" fill="#00A48A"/>
<path d="M15.7478 41.5296C15.2907 41.2647 14.8794 40.9999 14.4222 40.6908L12.8224 42.5448C13.3252 42.898 13.8738 43.2511 14.4679 43.5601C18.3534 45.7672 22.6502 46.7384 26.8556 46.5617L26.5813 44.1781C22.9245 44.3105 19.1761 43.4718 15.7478 41.5296Z" fill="#223334"/>
<path d="M8.75401 15.2209C9.11969 14.6029 9.5311 14.029 9.9882 13.4553L8.11406 11.8661C7.56553 12.5282 7.10842 13.2346 6.6513 13.985C6.01136 15.0002 5.50853 16.1037 5.05142 17.1631L7.42839 17.8694C7.79408 16.9866 8.2512 16.0595 8.75401 15.2209Z" fill="#00A48A"/>
<path d="M6.51376 20.6503L4.13678 19.9441C2.26263 27.4482 4.68531 35.438 10.582 40.7792L12.1819 38.9252C7.06229 34.1578 4.95958 27.1833 6.51376 20.6503Z" fill="#005D62"/>
<path d="M28.5464 5.95111L29.0494 3.61158C22.147 2.6846 15.0618 4.89169 10.0335 9.70318L11.9077 11.2923C16.3417 7.09879 22.5126 5.15655 28.5464 5.95111Z" fill="#1C3B40"/>
<path d="M36.0432 8.46714C39.8372 10.6301 42.5799 13.8083 44.1798 17.428L46.5568 16.6334C44.7739 12.484 41.6199 8.86443 37.3231 6.39247C35.6318 5.42134 33.8491 4.71507 32.0206 4.18537L31.5178 6.5249C33.0262 6.96633 34.5804 7.62845 36.0432 8.46714Z" fill="#213030"/>
<path d="M45.5054 28.3311L47.9281 28.905C48.5223 25.6826 48.3852 22.416 47.5166 19.3262L45.1397 20.1206C45.871 22.7692 46.0082 25.5943 45.5054 28.3311Z" fill="#213030"/>
<path d="M43.0368 34.7757C40.02 39.7197 35.0375 42.8979 29.5979 43.8691L29.8721 46.2527C36.0431 45.1933 41.7569 41.6178 45.1853 35.9677C46.0081 34.5992 46.6937 33.1426 47.1966 31.6859L44.7739 31.112C44.3168 32.348 43.7226 33.584 43.0368 34.7757Z" fill="#1C3B40"/>
<path d="M19.8615 39.6756C19.3587 39.499 18.9016 39.2783 18.4444 39.0576L17.1188 41.0882C17.713 41.3972 18.3073 41.6621 18.9472 41.8828C19.8615 42.2358 20.7757 42.5007 21.6899 42.7214L22.0556 40.3378C21.3242 40.1611 20.5928 39.9404 19.8615 39.6756Z" fill="#1C3B40"/>
<path d="M41.1173 30.803C40.9801 31.112 40.8431 31.4211 40.7059 31.7299L42.8543 32.9659C43.0372 32.5687 43.2658 32.1273 43.4486 31.7299C44.8199 28.3752 45.0942 24.8879 44.4542 21.6214L42.0315 22.2395C42.5343 25.0204 42.2601 27.9779 41.1173 30.803Z" fill="#005D62"/>
<path d="M24.9812 40.779L24.6154 43.1628C31.1521 43.6041 37.5517 40.6467 41.3456 35.438L39.1972 34.2019C35.9518 38.6161 30.5121 41.0439 24.9812 40.779Z" fill="#005D62"/>
<path d="M31.9292 10.2769C36.4088 11.9985 39.6542 15.3973 41.2084 19.4144L43.6311 18.7963C41.8484 14.0732 38.0543 10.0562 32.8433 8.02567C31.6092 7.54012 30.375 7.23112 29.1407 7.0104L28.9122 9.39408C29.9178 9.61479 30.9235 9.92379 31.9292 10.2769Z" fill="#00A48A"/>
<path d="M9.53103 25.5943L7.01693 25.4618C7.19978 30.9795 9.94244 36.2325 14.605 39.5432L15.9306 37.5127C12.0451 34.6875 9.71388 30.2733 9.53103 25.5943Z" fill="#1C3B40"/>
<path d="M25.9412 9.17339L26.1697 6.78972C23.4727 6.74558 20.8672 7.27528 18.4445 8.29055L19.6331 10.4094C21.5986 9.61482 23.747 9.17339 25.9412 9.17339Z" fill="#005D62"/>
<path d="M10.6735 19.1495C11.9534 16.0155 14.1932 13.4553 16.9359 11.7337L15.7474 9.61488C12.502 11.6013 9.85074 14.5589 8.34227 18.2667C7.74803 19.6792 7.38233 21.136 7.19949 22.5927L9.7136 22.725C9.85074 21.5332 10.1707 20.3414 10.6735 19.1495Z" fill="#213030"/>
<path d="M38.6946 24.1376L41.2088 24.27C40.9345 19.3262 38.1005 14.7354 33.6664 12.2192L32.615 14.4264C36.1348 16.5011 38.4203 20.1648 38.6946 24.1376Z" fill="#223334"/>
<path d="M13.1421 26.4771H10.6281C10.8566 28.3751 11.4051 30.2291 12.3651 31.9065L14.4678 30.5822C13.7822 29.3022 13.3251 27.9337 13.1421 26.4771Z" fill="#005D62"/>
<path d="M22.3758 36.9388C19.8159 36.2325 17.7132 34.8199 16.1133 33.0101L14.0563 34.3344C15.9762 36.6298 18.5817 38.3513 21.7358 39.2342C22.8786 39.5431 24.0213 39.7197 25.1641 39.7639L25.0269 37.336C24.1127 37.2918 23.2442 37.1595 22.3758 36.9388Z" fill="#213030"/>
<path d="M27.9982 37.2478L28.1352 39.6756C32.5234 39.0576 36.5003 36.5857 38.923 32.9219L36.6832 31.8624C34.6719 34.6875 31.4721 36.6739 27.9982 37.2478Z" fill="#00A48A"/>
<path d="M38.2373 28.4194C38.1458 28.6843 38.0545 28.9491 37.963 29.214L40.2028 30.2734C40.34 29.8761 40.5228 29.4788 40.6143 29.0373C40.7971 28.3753 40.9343 27.7572 41.0256 27.0951L38.5115 26.9628C38.5115 27.4923 38.3743 27.9339 38.2373 28.4194Z" fill="#1C3B40"/>
<path d="M13.5536 21.5774C14.5592 18.1784 16.9362 15.53 19.9531 13.985L19.0389 11.7337C15.3363 13.5435 12.3651 16.7659 11.1309 20.9152C10.8566 21.7981 10.6738 22.725 10.6281 23.6521H13.1421C13.1879 22.9457 13.3251 22.2395 13.5536 21.5774Z" fill="#005D62"/>
<path d="M29.4152 13.0579C29.5524 13.1021 29.7352 13.1461 29.8723 13.1903L30.9237 10.9832C30.6495 10.8949 30.3753 10.8066 30.101 10.7183C27.3125 9.92379 24.4327 9.96794 21.8272 10.6742L22.7415 12.9254C24.8442 12.4399 27.1755 12.4399 29.4152 13.0579Z" fill="#1C3B40"/>
<path d="M152 12V37.6544" stroke="#005D62" stroke-width="0.751106" stroke-miterlimit="10"/>
<path d="M164.917 19.043V12.7281H169.202L169.193 13.7204H165.792L166.062 13.4408L166.071 19.043H164.917ZM169.354 19.043V14.2256H170.481V17.4011L173.142 14.2256H174.171V19.043H173.043V15.8675L170.391 19.043H169.354ZM174.984 19.0339L175.038 18.0867C175.08 18.0927 175.119 18.0987 175.156 18.1048C175.192 18.1108 175.225 18.1138 175.255 18.1138C175.441 18.1138 175.586 18.0566 175.688 17.9424C175.79 17.8281 175.865 17.6747 175.913 17.4823C175.967 17.2838 176.004 17.0643 176.022 16.8237C176.046 16.5772 176.064 16.3306 176.076 16.084L176.157 14.2256H180.054V19.043H178.926V14.8751L179.188 15.1819H176.897L177.14 14.8661L177.077 16.1381C177.059 16.5651 177.023 16.9621 176.969 17.3289C176.921 17.6898 176.843 18.0055 176.734 18.2762C176.632 18.5468 176.488 18.7573 176.301 18.9076C176.121 19.058 175.889 19.1332 175.607 19.1332C175.516 19.1332 175.417 19.1242 175.309 19.1061C175.207 19.0881 175.098 19.064 174.984 19.0339ZM183.99 15.8134C184.61 15.8134 185.082 15.9517 185.407 16.2283C185.732 16.505 185.894 16.8959 185.894 17.4011C185.894 17.9243 185.714 18.3333 185.353 18.628C184.992 18.9167 184.484 19.058 183.828 19.052L181.573 19.043V14.2256H182.7V15.8043L183.99 15.8134ZM183.729 18.222C184.06 18.228 184.312 18.1589 184.487 18.0145C184.661 17.8702 184.748 17.6597 184.748 17.3831C184.748 17.1064 184.661 16.9079 184.487 16.7877C184.318 16.6614 184.066 16.5952 183.729 16.5892L182.7 16.5802V18.213L183.729 18.222ZM190.072 18.5197V15.1819H188.223L188.196 15.9577C188.184 16.2343 188.166 16.502 188.142 16.7606C188.118 17.0132 188.079 17.2477 188.025 17.4642C187.97 17.6747 187.892 17.8492 187.79 17.9875C187.688 18.1258 187.552 18.216 187.384 18.2581L186.265 18.0867C186.446 18.0867 186.59 18.0296 186.698 17.9153C186.813 17.795 186.9 17.6326 186.96 17.4282C187.026 17.2177 187.074 16.9801 187.104 16.7155C187.134 16.4448 187.155 16.1652 187.167 15.8765L187.231 14.2256H191.2V18.5197H190.072ZM186.094 20.1165V18.0867H191.913V20.1165H190.857V19.043H187.14V20.1165H186.094ZM192.92 19.043V14.2256H194.047V17.4011L196.709 14.2256H197.737V19.043H196.61V15.8675L193.957 19.043H192.92ZM202.312 19.043V17.4011L202.475 17.5905H201.031C200.37 17.5905 199.849 17.4522 199.471 17.1756C199.098 16.8929 198.911 16.4869 198.911 15.9577C198.911 15.3924 199.11 14.9624 199.507 14.6677C199.91 14.373 200.445 14.2256 201.112 14.2256H203.323V19.043H202.312ZM198.848 19.043L200.147 17.2026H201.302L200.057 19.043H198.848ZM202.312 17.0402V14.8751L202.475 15.1728H201.149C200.8 15.1728 200.529 15.239 200.337 15.3713C200.15 15.4976 200.057 15.7051 200.057 15.9938C200.057 16.5351 200.409 16.8057 201.112 16.8057H202.475L202.312 17.0402ZM167.452 30.1061C167.061 30.1061 166.703 30.0159 166.378 29.8355C166.059 29.6551 165.804 29.3844 165.611 29.0236C165.425 28.6567 165.332 28.1936 165.332 27.6343C165.332 27.069 165.422 26.6059 165.602 26.245C165.789 25.8842 166.041 25.6165 166.36 25.4421C166.679 25.2617 167.043 25.1715 167.452 25.1715C167.927 25.1715 168.345 25.2737 168.705 25.4782C169.072 25.6827 169.361 25.9684 169.572 26.3352C169.788 26.7021 169.896 27.1351 169.896 27.6343C169.896 28.1335 169.788 28.5695 169.572 28.9424C169.361 29.3092 169.072 29.5949 168.705 29.7994C168.345 30.0039 167.927 30.1061 167.452 30.1061ZM164.781 31.7931V25.2256H165.855V26.3623L165.819 27.6433L165.909 28.9243V31.7931H164.781ZM167.325 29.1408C167.596 29.1408 167.836 29.0807 168.047 28.9604C168.263 28.8401 168.435 28.6657 168.561 28.4372C168.687 28.2086 168.751 27.941 168.751 27.6343C168.751 27.3216 168.687 27.0539 168.561 26.8314C168.435 26.6029 168.263 26.4284 168.047 26.3082C167.836 26.1879 167.596 26.1277 167.325 26.1277C167.055 26.1277 166.811 26.1879 166.594 26.3082C166.378 26.4284 166.207 26.6029 166.08 26.8314C165.954 27.0539 165.891 27.3216 165.891 27.6343C165.891 27.941 165.954 28.2086 166.08 28.4372C166.207 28.6657 166.378 28.8401 166.594 28.9604C166.811 29.0807 167.055 29.1408 167.325 29.1408ZM171.019 30.043V25.2256H172.146V28.4011L174.808 25.2256H175.836V30.043H174.708V26.8675L172.056 30.043H171.019ZM178.13 28.0132V27.2013H180.746V28.0132H178.13ZM178.789 25.1534C179.306 25.1534 179.763 25.2617 180.16 25.4782C180.557 25.6887 180.87 25.9804 181.098 26.3533C181.327 26.7201 181.441 27.1471 181.441 27.6343C181.441 28.1154 181.327 28.5454 181.098 28.9243C180.87 29.2972 180.557 29.5919 180.16 29.8084C179.763 30.0189 179.306 30.1242 178.789 30.1242C178.356 30.1242 177.959 30.052 177.598 29.9076C177.237 29.7633 176.936 29.5558 176.696 29.2852L177.345 28.6537C177.538 28.8401 177.748 28.9815 177.977 29.0777C178.211 29.1739 178.467 29.222 178.744 29.222C179.068 29.222 179.354 29.1559 179.601 29.0236C179.847 28.8852 180.043 28.6958 180.187 28.4552C180.331 28.2147 180.404 27.941 180.404 27.6343C180.404 27.3216 180.331 27.0479 180.187 26.8134C180.043 26.5728 179.847 26.3863 179.601 26.254C179.354 26.1157 179.068 26.0465 178.744 26.0465C178.467 26.0465 178.211 26.0947 177.977 26.1909C177.748 26.2871 177.538 26.4315 177.345 26.6239L176.696 25.9924C176.936 25.7218 177.237 25.5143 177.598 25.37C177.959 25.2256 178.356 25.1534 178.789 25.1534ZM181.777 30.0339L181.831 29.0867C181.873 29.0927 181.912 29.0987 181.948 29.1048C181.984 29.1108 182.017 29.1138 182.047 29.1138C182.234 29.1138 182.378 29.0566 182.48 28.9424C182.582 28.8281 182.658 28.6747 182.706 28.4823C182.76 28.2838 182.796 28.0643 182.814 27.8237C182.838 27.5772 182.856 27.3306 182.868 27.084L182.949 25.2256H186.846V30.043H185.719V25.8751L185.98 26.1819H183.689L183.933 25.8661L183.869 27.1381C183.851 27.5651 183.815 27.9621 183.761 28.3289C183.713 28.6898 183.635 29.0055 183.527 29.2762C183.424 29.5468 183.28 29.7573 183.094 29.9076C182.913 30.058 182.682 30.1332 182.399 30.1332C182.309 30.1332 182.21 30.1242 182.101 30.1061C181.999 30.0881 181.891 30.064 181.777 30.0339ZM189.366 30.043V25.9112L189.628 26.1819H187.67V25.2256H192.181V26.1819H190.233L190.494 25.9112V30.043H189.366ZM194.935 30.1061C194.442 30.1061 194.003 30.0009 193.618 29.7904C193.233 29.5739 192.929 29.2792 192.706 28.9063C192.484 28.5334 192.373 28.1094 192.373 27.6343C192.373 27.1532 192.484 26.7292 192.706 26.3623C192.929 25.9894 193.233 25.6977 193.618 25.4872C194.003 25.2767 194.442 25.1715 194.935 25.1715C195.434 25.1715 195.876 25.2767 196.261 25.4872C196.652 25.6977 196.955 25.9864 197.172 26.3533C197.395 26.7201 197.506 27.1471 197.506 27.6343C197.506 28.1094 197.395 28.5334 197.172 28.9063C196.955 29.2792 196.652 29.5739 196.261 29.7904C195.876 30.0009 195.434 30.1061 194.935 30.1061ZM194.935 29.1408C195.211 29.1408 195.458 29.0807 195.674 28.9604C195.891 28.8401 196.059 28.6657 196.18 28.4372C196.306 28.2086 196.369 27.941 196.369 27.6343C196.369 27.3216 196.306 27.0539 196.18 26.8314C196.059 26.6029 195.891 26.4284 195.674 26.3082C195.458 26.1879 195.214 26.1277 194.944 26.1277C194.667 26.1277 194.421 26.1879 194.204 26.3082C193.994 26.4284 193.825 26.6029 193.699 26.8314C193.573 27.0539 193.509 27.3216 193.509 27.6343C193.509 27.941 193.573 28.2086 193.699 28.4372C193.825 28.6657 193.994 28.8401 194.204 28.9604C194.421 29.0807 194.664 29.1408 194.935 29.1408ZM201.29 30.1061C200.899 30.1061 200.541 30.0159 200.217 29.8355C199.898 29.6551 199.642 29.3844 199.45 29.0236C199.263 28.6567 199.17 28.1936 199.17 27.6343C199.17 27.069 199.26 26.6059 199.441 26.245C199.627 25.8842 199.88 25.6165 200.198 25.4421C200.517 25.2617 200.881 25.1715 201.29 25.1715C201.765 25.1715 202.183 25.2737 202.544 25.4782C202.911 25.6827 203.2 25.9684 203.41 26.3352C203.627 26.7021 203.735 27.1351 203.735 27.6343C203.735 28.1335 203.627 28.5695 203.41 28.9424C203.2 29.3092 202.911 29.5949 202.544 29.7994C202.183 30.0039 201.765 30.1061 201.29 30.1061ZM198.62 31.7931V25.2256H199.693V26.3623L199.657 27.6433L199.747 28.9243V31.7931H198.62ZM201.164 29.1408C201.434 29.1408 201.675 29.0807 201.885 28.9604C202.102 28.8401 202.273 28.6657 202.4 28.4372C202.526 28.2086 202.589 27.941 202.589 27.6343C202.589 27.3216 202.526 27.0539 202.4 26.8314C202.273 26.6029 202.102 26.4284 201.885 26.3082C201.675 26.1879 201.434 26.1277 201.164 26.1277C200.893 26.1277 200.65 26.1879 200.433 26.3082C200.217 26.4284 200.045 26.6029 199.919 26.8314C199.793 27.0539 199.729 27.3216 199.729 27.6343C199.729 27.941 199.793 28.2086 199.919 28.4372C200.045 28.6657 200.217 28.8401 200.433 28.9604C200.65 29.0807 200.893 29.1408 201.164 29.1408ZM207.004 30.1061C206.511 30.1061 206.072 30.0009 205.687 29.7904C205.302 29.5739 204.998 29.2792 204.776 28.9063C204.553 28.5334 204.442 28.1094 204.442 27.6343C204.442 27.1532 204.553 26.7292 204.776 26.3623C204.998 25.9894 205.302 25.6977 205.687 25.4872C206.072 25.2767 206.511 25.1715 207.004 25.1715C207.503 25.1715 207.945 25.2767 208.33 25.4872C208.721 25.6977 209.025 25.9864 209.241 26.3533C209.464 26.7201 209.575 27.1471 209.575 27.6343C209.575 28.1094 209.464 28.5334 209.241 28.9063C209.025 29.2792 208.721 29.5739 208.33 29.7904C207.945 30.0009 207.503 30.1061 207.004 30.1061ZM207.004 29.1408C207.281 29.1408 207.527 29.0807 207.744 28.9604C207.96 28.8401 208.129 28.6657 208.249 28.4372C208.375 28.2086 208.439 27.941 208.439 27.6343C208.439 27.3216 208.375 27.0539 208.249 26.8314C208.129 26.6029 207.96 26.4284 207.744 26.3082C207.527 26.1879 207.284 26.1277 207.013 26.1277C206.737 26.1277 206.49 26.1879 206.273 26.3082C206.063 26.4284 205.895 26.6029 205.768 26.8314C205.642 27.0539 205.579 27.3216 205.579 27.6343C205.579 27.941 205.642 28.2086 205.768 28.4372C205.895 28.6657 206.063 28.8401 206.273 28.9604C206.49 29.0807 206.734 29.1408 207.004 29.1408ZM210.689 30.043V25.2256H213.044C213.627 25.2256 214.084 25.3339 214.415 25.5504C214.752 25.7669 214.92 26.0736 214.92 26.4705C214.92 26.8615 214.764 27.1682 214.451 27.3907C214.138 27.6072 213.723 27.7155 213.206 27.7155L213.341 27.4358C213.925 27.4358 214.358 27.5441 214.641 27.7606C214.929 27.9711 215.074 28.2808 215.074 28.6898C215.074 29.1168 214.914 29.4506 214.595 29.6911C214.277 29.9257 213.793 30.043 213.143 30.043H210.689ZM211.763 29.222H213.053C213.36 29.222 213.591 29.1739 213.747 29.0777C213.904 28.9755 213.982 28.8221 213.982 28.6176C213.982 28.4011 213.91 28.2417 213.765 28.1395C213.621 28.0372 213.396 27.9861 213.089 27.9861H211.763V29.222ZM211.763 27.2374H212.945C213.233 27.2374 213.45 27.1862 213.594 27.084C213.744 26.9757 213.82 26.8254 213.82 26.6329C213.82 26.4345 213.744 26.2871 213.594 26.1909C213.45 26.0947 213.233 26.0465 212.945 26.0465H211.763V27.2374ZM164.917 41.043V34.7281H165.873L168.642 39.3379H168.128L170.853 34.7281H171.809L171.827 41.043H170.708L170.699 36.4692H170.934L168.624 40.3213H168.101L165.756 36.4692H166.026V41.043H164.917ZM175.615 41.1061C175.122 41.1061 174.683 41.0009 174.298 40.7904C173.913 40.5739 173.609 40.2792 173.387 39.9063C173.164 39.5334 173.053 39.1094 173.053 38.6343C173.053 38.1532 173.164 37.7292 173.387 37.3623C173.609 36.9894 173.913 36.6977 174.298 36.4872C174.683 36.2767 175.122 36.1715 175.615 36.1715C176.114 36.1715 176.556 36.2767 176.941 36.4872C177.332 36.6977 177.636 36.9864 177.852 37.3533C178.075 37.7201 178.186 38.1471 178.186 38.6343C178.186 39.1094 178.075 39.5334 177.852 39.9063C177.636 40.2792 177.332 40.5739 176.941 40.7904C176.556 41.0009 176.114 41.1061 175.615 41.1061ZM175.615 40.1408C175.891 40.1408 176.138 40.0807 176.355 39.9604C176.571 39.8401 176.739 39.6657 176.86 39.4372C176.986 39.2086 177.049 38.941 177.049 38.6343C177.049 38.3216 176.986 38.0539 176.86 37.8314C176.739 37.6029 176.571 37.4284 176.355 37.3082C176.138 37.1879 175.894 37.1277 175.624 37.1277C175.347 37.1277 175.101 37.1879 174.884 37.3082C174.674 37.4284 174.505 37.6029 174.379 37.8314C174.253 38.0539 174.189 38.3216 174.189 38.6343C174.189 38.941 174.253 39.2086 174.379 39.4372C174.505 39.6657 174.674 39.8401 174.884 39.9604C175.101 40.0807 175.344 40.1408 175.615 40.1408ZM181.492 41.1061C180.987 41.1061 180.536 41.0009 180.139 40.7904C179.748 40.5739 179.441 40.2792 179.219 39.9063C178.996 39.5334 178.885 39.1094 178.885 38.6343C178.885 38.1532 178.996 37.7292 179.219 37.3623C179.441 36.9894 179.748 36.6977 180.139 36.4872C180.536 36.2767 180.987 36.1715 181.492 36.1715C181.961 36.1715 182.373 36.2677 182.728 36.4602C183.089 36.6466 183.362 36.9233 183.549 37.2901L182.683 37.7953C182.538 37.5668 182.361 37.3984 182.151 37.2901C181.946 37.1819 181.724 37.1277 181.483 37.1277C181.206 37.1277 180.957 37.1879 180.734 37.3082C180.512 37.4284 180.337 37.6029 180.211 37.8314C180.085 38.0539 180.022 38.3216 180.022 38.6343C180.022 38.947 180.085 39.2177 180.211 39.4462C180.337 39.6687 180.512 39.8401 180.734 39.9604C180.957 40.0807 181.206 40.1408 181.483 40.1408C181.724 40.1408 181.946 40.0867 182.151 39.9785C182.361 39.8702 182.538 39.7018 182.683 39.4733L183.549 39.9785C183.362 40.3393 183.089 40.619 182.728 40.8174C182.373 41.0099 181.961 41.1061 181.492 41.1061ZM187.997 41.043L186.256 38.7335L187.176 38.1652L189.323 41.043H187.997ZM184.542 41.043V36.2256H185.669V41.043H184.542ZM185.336 39.1124V38.1742H186.968V39.1124H185.336ZM187.284 38.7696L186.229 38.6433L187.997 36.2256H189.206L187.284 38.7696ZM190.118 41.043V36.2256H192.473C193.056 36.2256 193.513 36.3339 193.844 36.5504C194.181 36.7669 194.349 37.0736 194.349 37.4705C194.349 37.8615 194.193 38.1682 193.88 38.3907C193.567 38.6072 193.152 38.7155 192.635 38.7155L192.771 38.4358C193.354 38.4358 193.787 38.5441 194.07 38.7606C194.358 38.9711 194.503 39.2808 194.503 39.6898C194.503 40.1168 194.343 40.4506 194.024 40.6911C193.706 40.9257 193.222 41.043 192.572 41.043H190.118ZM191.192 40.222H192.482C192.789 40.222 193.02 40.1739 193.176 40.0777C193.333 39.9755 193.411 39.8221 193.411 39.6176C193.411 39.4011 193.339 39.2417 193.195 39.1395C193.05 39.0372 192.825 38.9861 192.518 38.9861H191.192V40.222ZM191.192 38.2374H192.374C192.662 38.2374 192.879 38.1862 193.023 38.084C193.173 37.9757 193.249 37.8254 193.249 37.6329C193.249 37.4345 193.173 37.2871 193.023 37.1909C192.879 37.0947 192.662 37.0465 192.374 37.0465H191.192V38.2374ZM200.566 41.043V36.2256H201.694V41.043H200.566ZM198.049 37.8134C198.669 37.8134 199.138 37.9517 199.457 38.2283C199.781 38.505 199.944 38.8959 199.944 39.4011C199.944 39.9243 199.763 40.3333 199.402 40.628C199.048 40.9167 198.542 41.058 197.887 41.052L195.704 41.043V36.2256H196.831V37.8043L198.049 37.8134ZM197.788 40.222C198.118 40.228 198.371 40.1589 198.545 40.0145C198.72 39.8702 198.807 39.6597 198.807 39.3831C198.807 39.1064 198.72 38.9079 198.545 38.7877C198.377 38.6614 198.124 38.5952 197.788 38.5892L196.831 38.5802V40.213L197.788 40.222Z" fill="#005D62"/>
</svg>
