<svg width="129" height="129" viewBox="0 0 129 129" fill="none" xmlns="http://www.w3.org/2000/svg">
<path d="M105.749 23.2118C114.974 32.4367 120.555 44.053 122.264 56.1251L128.413 55.6694C126.591 42.2309 120.441 29.134 110.191 18.7703C105.977 14.5565 101.421 11.1398 96.524 8.2927L93.7906 13.8731C98.0047 16.3786 102.105 19.5675 105.749 23.2118Z" fill="#223334"/>
<path d="M23.2915 23.2119C24.9999 21.5036 26.7082 19.9092 28.5305 18.5426L24.9999 13.4177C22.8359 15.126 20.7859 16.8343 18.8497 18.8842C16.1163 21.6175 13.8385 24.4647 11.6746 27.4257L16.9136 30.7285C18.8497 27.9952 20.8998 25.4897 23.2915 23.2119Z" fill="#00A48A"/>
<path d="M117.366 89.1524L122.833 92.1133C127.161 83.0024 129.211 72.9803 128.983 63.0724L122.833 63.5279C122.947 72.2969 121.124 81.0663 117.366 89.1524Z" fill="#005D62"/>
<path d="M87.0705 10.6845L89.804 5.10405C70.8977 -2.868 49.0308 -1.50136 31.1498 9.20399L34.6805 14.3289C50.6251 4.8763 70.2144 3.62357 87.0705 10.6845Z" fill="#005D62"/>
<path d="M13.0404 36.9921L7.80143 33.6894C-3.35994 54.303 -2.56271 79.6997 10.307 99.516L15.3182 95.8714C3.92911 77.9911 3.24575 55.4418 13.0404 36.9921Z" fill="#223334"/>
<path d="M105.749 105.78C93.2205 118.307 76.3646 123.887 59.9643 122.635L59.053 128.785C77.2759 130.265 96.0679 124.115 110.076 110.107C113.607 106.577 116.682 102.705 119.188 98.7187L113.721 95.7575C111.557 99.2881 108.937 102.591 105.749 105.78Z" fill="#223334"/>
<path d="M23.2918 105.78C22.0389 104.527 20.9 103.274 19.7611 101.908L14.7499 105.552C16.0027 107.146 17.4833 108.627 18.9639 110.107C28.303 119.446 39.8059 125.368 51.8785 127.76L52.7898 121.61C41.856 119.332 31.6058 114.093 23.2918 105.78Z" fill="#00A48A"/>
<path d="M39.2365 107.146C38.0976 106.463 37.0728 105.78 35.9336 104.982L31.9477 109.766C33.2005 110.677 34.5672 111.588 36.0475 112.385C45.7286 118.079 56.4342 120.585 66.9122 120.129L66.2288 113.98C57.1175 114.321 47.7783 112.157 39.2365 107.146Z" fill="#223334"/>
<path d="M21.8111 39.27C22.7222 37.6755 23.7473 36.1948 24.8861 34.7146L20.2166 30.6146C18.8499 32.3227 17.711 34.1452 16.5721 36.0812C14.9776 38.7006 13.7248 41.5476 12.5859 44.2809L18.5082 46.103C19.4194 43.8255 20.5583 41.4336 21.8111 39.27Z" fill="#00A48A"/>
<path d="M16.2294 53.2779L10.307 51.4557C5.63745 70.8163 11.6737 91.4299 26.3657 105.21L30.3519 100.427C17.5961 88.1272 12.3571 70.133 16.2294 53.2779Z" fill="#005D62"/>
<path d="M71.125 15.3539L72.3781 9.31787C55.1804 6.92626 37.5272 12.6206 24.9991 25.0342L29.6687 29.1341C40.7162 18.3149 56.0913 13.3039 71.125 15.3539Z" fill="#1C3B40"/>
<path d="M89.8037 21.8452C99.2565 27.4257 106.09 35.6255 110.076 44.9642L115.999 42.9142C111.557 32.2088 103.698 22.8702 92.9926 16.4926C88.7784 13.9871 84.3368 12.1649 79.7811 10.7982L78.5283 16.8342C82.2867 17.9731 86.159 19.6814 89.8037 21.8452Z" fill="#213030"/>
<path d="M113.379 73.0942L119.415 74.5748C120.896 66.2612 120.554 57.8333 118.39 49.8615L112.468 51.9112C114.29 58.7445 114.632 66.0333 113.379 73.0942Z" fill="#213030"/>
<path d="M107.229 89.7214C99.7119 102.477 87.2978 110.677 73.7448 113.182L74.4278 119.332C89.8033 116.599 104.04 107.374 112.582 92.7966C114.632 89.266 116.34 85.5078 117.593 81.7496L111.557 80.269C110.418 83.4578 108.937 86.6466 107.229 89.7214Z" fill="#1C3B40"/>
<path d="M49.4859 102.363C48.2331 101.908 47.0943 101.338 45.9552 100.769L42.6523 106.007C44.133 106.805 45.6136 107.488 47.2079 108.058C49.4859 108.968 51.7639 109.652 54.0416 110.221L54.9528 104.071C53.1303 103.616 51.3081 103.046 49.4859 102.363Z" fill="#1C3B40"/>
<path d="M102.446 79.4718C102.104 80.269 101.763 81.0663 101.421 81.8633L106.774 85.052C107.23 84.0272 107.799 82.8884 108.254 81.8633C111.671 73.2081 112.355 64.2109 110.76 55.7833L104.724 57.3779C105.976 64.5527 105.293 72.183 102.446 79.4718Z" fill="#005D62"/>
<path d="M62.2419 105.21L61.3307 111.36C77.6171 112.499 93.562 104.868 103.015 91.4299L97.6618 88.2408C89.5758 99.6296 76.0225 105.893 62.2419 105.21Z" fill="#005D62"/>
<path d="M79.5532 26.5145C90.7146 30.956 98.8007 39.7251 102.673 50.0891L108.709 48.4945C104.268 36.3088 94.8144 25.945 81.8309 20.7062C78.7559 19.4535 75.6809 18.6563 72.6056 18.0868L72.0362 24.2367C74.5418 24.8062 77.0477 25.6034 79.5532 26.5145Z" fill="#00A48A"/>
<path d="M23.7471 66.0333L17.4831 65.6915C17.9386 79.9272 24.7721 93.4799 36.3891 102.021L39.6919 96.7827C30.0111 89.4939 24.2027 78.1051 23.7471 66.0333Z" fill="#1C3B40"/>
<path d="M64.6338 23.6673L65.2033 17.5175C58.4836 17.4036 51.9918 18.7702 45.9555 21.3896L48.9168 26.8562C53.814 24.8062 59.1669 23.6673 64.6338 23.6673Z" fill="#005D62"/>
<path d="M26.5937 49.4057C29.7826 41.32 35.3632 34.7146 42.1968 30.273L39.2355 24.8064C31.1493 29.9313 24.5436 37.5618 20.7852 47.1282C19.3046 50.7724 18.3935 54.5309 17.9379 58.2891L24.202 58.6306C24.5436 55.5557 25.3409 52.4809 26.5937 49.4057Z" fill="#213030"/>
<path d="M96.4097 62.2751L102.674 62.6166C101.991 49.8615 94.9294 38.0173 83.8816 31.5257L81.2621 37.22C90.0319 42.5727 95.7264 52.0251 96.4097 62.2751Z" fill="#223334"/>
<path d="M32.7444 68.3109H26.4804C27.0499 73.2078 28.4165 77.9911 30.8083 82.3187L36.0472 78.902C34.339 75.5996 33.2001 72.069 32.7444 68.3109Z" fill="#005D62"/>
<path d="M55.7505 95.302C49.3723 93.4799 44.1333 89.8354 40.1471 85.166L35.022 88.5826C39.8056 94.5048 46.2973 98.9463 54.1558 101.224C57.0032 102.021 59.8503 102.477 62.6977 102.591L62.3559 96.3269C60.0782 96.213 57.9142 95.8714 55.7505 95.302Z" fill="#213030"/>
<path d="M69.7589 96.0993L70.1004 102.363C81.0339 100.769 90.9425 94.3912 96.9788 84.9384L91.3983 82.2051C86.3868 89.4939 78.4144 94.6187 69.7589 96.0993Z" fill="#00A48A"/>
<path d="M95.2702 73.3221C95.0423 74.0054 94.8148 74.6887 94.5869 75.3721L100.167 78.1054C100.509 77.0803 100.965 76.0554 101.193 74.9163C101.648 73.2081 101.99 71.6136 102.217 69.9054L95.9536 69.5639C95.9536 70.9303 95.6118 72.0694 95.2702 73.3221Z" fill="#1C3B40"/>
<path d="M33.7696 55.6697C36.2751 46.9003 42.1975 40.0673 49.7141 36.0812L47.4365 30.2729C38.2113 34.9421 30.8083 43.2561 27.7332 53.9612C27.0499 56.2391 26.5943 58.6306 26.4804 61.0224H32.7444C32.8583 59.2 33.2001 57.3779 33.7696 55.6697Z" fill="#005D62"/>
<path d="M73.2897 33.6894C73.6315 33.8033 74.087 33.917 74.4285 34.0309L77.048 28.3367C76.365 28.1089 75.6816 27.8811 74.9982 27.6533C68.0507 25.6034 60.8755 25.7173 54.3837 27.5395L56.6617 33.3476C61.9007 32.0948 67.7091 32.0948 73.2897 33.6894Z" fill="#1C3B40"/>
</svg>
