<?xml version="1.0" encoding="utf-8"?><svg viewBox="0 0 137 50" xmlns="http://www.w3.org/2000/svg" xmlns:xlink="http://www.w3.org/1999/xlink"><style>:root>svg{display:none}:root>svg:target{display:block}</style><svg fill="none" viewBox="0 0 47 47" id="sprite--bubble-chat" xmlns="http://www.w3.org/2000/svg"><path d="M42.889 22.55c0 10.3-8.73 18.651-19.496 18.651a20.294 20.294 0 0 1-3.771-.349c-.895-.168-1.343-.252-1.655-.204-.312.048-.755.283-1.64.754a12.67 12.67 0 0 1-8.235 1.28 10.316 10.316 0 0 0 2.118-4.578c.195-1.033-.288-2.037-1.011-2.771-3.286-3.337-5.3-7.834-5.3-12.782 0-10.3 8.729-18.65 19.494-18.65 10.766 0 19.496 8.35 19.496 18.65Z" stroke="#316067" stroke-width="3.899" stroke-linejoin="round"/><path d="M23.383 23.395h.018m7.771 0h.018m-15.596 0h.017" stroke="#316067" stroke-width="3.899" stroke-linecap="round" stroke-linejoin="round"/></svg><svg fill="none" viewBox="0 0 41 41" id="sprite--calling" xmlns="http://www.w3.org/2000/svg"><path d="M6.31 19.956c-1.584-2.763-2.349-5.018-2.81-7.305-.682-3.381.879-6.684 3.465-8.792 1.093-.89 2.346-.587 2.992.573l1.46 2.618c1.156 2.074 1.734 3.112 1.62 4.212-.116 1.1-.895 1.995-2.455 3.787L6.31 19.956Zm0 0c3.207 5.59 8.239 10.625 13.836 13.835m0 0c2.762 1.585 5.018 2.35 7.304 2.81 3.382.683 6.685-.878 8.793-3.464.89-1.093.586-2.346-.573-2.992l-2.618-1.46c-2.075-1.156-3.112-1.734-4.212-1.62-1.1.115-1.995.895-3.787 2.455l-4.907 4.271Z" stroke="#316067" stroke-width="3.208" stroke-linejoin="round"/><path d="M23.39 11.416a10.018 10.018 0 0 1 5.295 5.294M24.484 3.342a18.007 18.007 0 0 1 12.275 12.274" stroke="#316067" stroke-width="3.208" stroke-linecap="round"/></svg><svg fill="none" viewBox="0 0 19 19" id="sprite--clock" xmlns="http://www.w3.org/2000/svg"><path d="M9.503 18.011c-4.695 0-8.51-3.816-8.51-8.51 0-4.695 3.815-8.51 8.51-8.51 4.694 0 8.51 3.815 8.51 8.51 0 4.694-3.816 8.51-8.51 8.51Zm0-15.833C5.465 2.178 2.18 5.463 2.18 9.5s3.285 7.323 7.323 7.323c4.037 0 7.323-3.286 7.323-7.323 0-4.038-3.286-7.323-7.323-7.323Z" fill="#00A48A"/><path d="M12.44 12.613a.53.53 0 0 1-.3-.087l-2.454-1.465c-.61-.364-1.061-1.163-1.061-1.868V5.947c0-.324.27-.593.594-.593.324 0 .594.269.594.593v3.246c0 .285.237.705.482.847l2.455 1.465c.285.166.372.53.205.815a.61.61 0 0 1-.514.293Z" fill="#00A48A"/></svg><svg fill="none" viewBox="0 0 23 23" id="sprite--dzen" xmlns="http://www.w3.org/2000/svg"><path fill-rule="evenodd" clip-rule="evenodd" d="M8.721.015c-.003.003-.276.01-.606.018a27.97 27.97 0 0 0-2.097.113c-.633.05-1.418.177-1.99.32-1.336.336-2.229.892-2.794 1.74C.565 3.212.21 4.698.078 7.039.02 8.07-.027 11.42.018 11.392c.011-.007.264-.02.562-.03 2.973-.1 4.243-.202 5.382-.432 1.191-.242 2.059-.615 2.83-1.218 1.133-.886 1.82-2.104 2.151-3.807.23-1.187.322-2.373.426-5.52l.013-.382-1.328.004c-.73.002-1.33.006-1.333.008Zm2.908.228c.006.133.02.509.03.834.112 3.498.32 5.07.84 6.346.628 1.544 1.842 2.676 3.455 3.221 1.258.426 2.83.604 6.242.708.186.006.443.015.571.022l.233.01-.011-1.623c-.006-.893-.015-1.674-.02-1.736a17.487 17.487 0 0 1-.021-.48 14.867 14.867 0 0 0-.038-.733c-.027-.52-.093-1.17-.171-1.702-.257-1.737-.788-2.939-1.6-3.62-.648-.542-1.5-.906-2.656-1.135A15.508 15.508 0 0 0 16.78.128a10.017 10.017 0 0 0-.536-.039l-.3-.018a17.565 17.565 0 0 0-.442-.02 29.5 29.5 0 0 1-.489-.02c-.061-.002-.85-.011-1.753-.018L11.618 0l.011.243ZM.01 13.115c.017 2.214.06 3.195.19 4.297.25 2.117.822 3.462 1.785 4.2.328.25.834.526 1.25.68.866.32 1.98.52 3.44.613.53.034.6.038.987.05.207.006.44.014.517.018.078.004.833.013 1.679.02 1.317.012 1.536.01 1.528-.013a14.869 14.869 0 0 1-.029-.666c-.1-3.165-.234-4.59-.547-5.8-.192-.743-.46-1.368-.825-1.924-.805-1.225-1.972-2.015-3.572-2.42-1.161-.293-2.645-.43-5.716-.526a15.08 15.08 0 0 1-.675-.03c-.023-.007-.025.205-.014 1.5Zm22.431-1.477c-1.742.062-2.438.095-3.149.148-2.63.194-4.06.639-5.234 1.626-.992.834-1.632 1.973-1.954 3.478-.255 1.19-.36 2.442-.463 5.551a6.31 6.31 0 0 1-.03.544c-.01.016.362.018 1.517.009.841-.008 1.602-.017 1.69-.02.088-.005.333-.014.545-.02a17.33 17.33 0 0 0 .808-.038c1.596-.077 3.006-.35 3.928-.761 1.29-.575 2.005-1.51 2.424-3.169.21-.834.302-1.527.406-3.065.005-.072.014-.283.02-.47.006-.186.015-.393.02-.46.005-.067.015-.852.02-1.744L23 11.625l-.205.004c-.112.002-.272.006-.355.01Z" fill="#213030"/></svg><svg fill="none" viewBox="0 0 21 21" id="sprite--eye" xmlns="http://www.w3.org/2000/svg"><path d="M10.5 14.29a3.79 3.79 0 0 1-3.79-3.788 3.79 3.79 0 0 1 3.79-3.79 3.79 3.79 0 0 1 3.788 3.79A3.79 3.79 0 0 1 10.5 14.29Zm0-6.265a2.48 2.48 0 0 0-2.477 2.477 2.48 2.48 0 0 0 2.477 2.476 2.48 2.48 0 0 0 2.476-2.476A2.48 2.48 0 0 0 10.5 8.025Z" fill="#00A48A"/><path d="M10.5 18.392c-3.29 0-6.396-1.925-8.53-5.267-.928-1.444-.928-3.798 0-5.25 2.143-3.343 5.25-5.268 8.53-5.268 3.282 0 6.388 1.925 8.523 5.268.927 1.444.927 3.797 0 5.25-2.135 3.342-5.241 5.267-8.523 5.267Zm0-14.472c-2.826 0-5.53 1.697-7.42 4.664-.656 1.023-.656 2.808 0 3.832 1.89 2.966 4.594 4.664 7.42 4.664 2.827 0 5.53-1.698 7.42-4.664.657-1.024.657-2.809 0-3.832-1.89-2.967-4.593-4.664-7.42-4.664Z" fill="#00A48A"/></svg><svg fill="none" viewBox="0 0 46 46" id="sprite--footer-icon-1" xmlns="http://www.w3.org/2000/svg"><g clip-path="url(#afa)" fill="#fff"><path d="M34.6.5H11.396a.967.967 0 0 0-.966.967v17.706h1.933V2.433h21.27v16.74h1.933V1.467A.967.967 0 0 0 34.6.5Z"/><path d="M30.03 12.178H15.966a.967.967 0 0 0 0 1.933h14.062a.967.967 0 1 0 0-1.933Zm-9.945 3.867h-4.118a.967.967 0 0 0 0 1.933h4.118a.967.967 0 1 0 0-1.933Z"/><path d="M45.017 12.764a.967.967 0 0 0-.967 0L32.177 19.62a.967.967 0 0 0-.354 1.32l.015.026-1.15.65a2.186 2.186 0 0 1-2.022.065l-3.376-1.626a4.864 4.864 0 0 0-4.546.17l-4.035 2.329-2.598-1.5.066-.113a.967.967 0 0 0-.354-1.32L1.95 12.763a.967.967 0 0 0-1.45.838v15.26c0 .346.184.665.483.838l5.265 3.04a.967.967 0 0 0 1.292-.31l1.451.837a2.853 2.853 0 0 0 1.725 3.81 2.845 2.845 0 0 0 .324 1.995 2.858 2.858 0 0 0 2.86 1.401c.044.383.166.757.365 1.101.381.66.997 1.134 1.734 1.331a2.875 2.875 0 0 0 1.135.07 2.858 2.858 0 0 0 4.265 2.142l.634-.366c.304-.175.567-.401.782-.664l1.786 1.03a2.859 2.859 0 0 0 4.265-2.142 2.812 2.812 0 0 0 1.135-.07 2.838 2.838 0 0 0 1.734-1.33 2.87 2.87 0 0 0 .365-1.102 2.859 2.859 0 0 0 2.86-1.401 2.844 2.844 0 0 0 .324-1.995 2.855 2.855 0 0 0 1.688-3.895l1.44-.83.02.033a.967.967 0 0 0 1.32.354l5.264-3.04a.967.967 0 0 0 .484-.836v-15.26a.966.966 0 0 0-.483-.838ZM2.434 28.304V15.276l9.585 5.534-5.642 9.771-3.943-2.277Zm8.729 5.267 1.055-.609a.915.915 0 0 1 .73-.083.914.914 0 0 1 .56.476.925.925 0 0 1-.367 1.206l-1.055.609a.924.924 0 0 1-.923-1.599Zm1.552 4.534a.924.924 0 0 1 .338-1.26l1.554-.898a.924.924 0 0 1 .923 1.598l-1.555.898a.924.924 0 0 1-1.26-.338Zm3.785 2.932a.917.917 0 0 1-.56-.43.918.918 0 0 1-.093-.7.917.917 0 0 1 .43-.56l1.123-.649a.917.917 0 0 1 .7-.092.916.916 0 0 1 .56.43.916.916 0 0 1 .093.7.917.917 0 0 1-.43.56l-1.123.65a.916.916 0 0 1-.7.091Zm5.016 1.386a.92.92 0 0 1-.45.654l-.634.366a.924.924 0 0 1-.922-1.599l.633-.366a.927.927 0 0 1 1.149.184.92.92 0 0 1 .224.761Zm13.659-7.591a.924.924 0 0 1-1.26.338l-4.64-2.679a.967.967 0 0 0-.967 1.675l4.64 2.678a.924.924 0 0 1-.923 1.599l-4.64-2.679a.967.967 0 0 0-.967 1.674l3.306 1.909a.917.917 0 0 1 .429.56.917.917 0 0 1-.092.7.917.917 0 0 1-.56.43.916.916 0 0 1-.7-.092l-3.306-1.908a.967.967 0 0 0-.967 1.674l1.963 1.133a.924.924 0 0 1-.924 1.599l-2.106-1.217a2.842 2.842 0 0 0-.73-1.855 2.86 2.86 0 0 0-2.013-.944 2.841 2.841 0 0 0-.383-1.358 2.838 2.838 0 0 0-1.734-1.33 2.874 2.874 0 0 0-.679-.098 2.852 2.852 0 0 0-2.394-2.713 2.82 2.82 0 0 0-.284-1.424 2.866 2.866 0 0 0-1.732-1.475 2.867 2.867 0 0 0-2.261.259l-.91.525-1.832-1.057 4.636-8.029 1.917 1.107a3.055 3.055 0 0 0-.446.963c-.21.79-.1 1.615.31 2.322a3.061 3.061 0 0 0 4.171 1.113l3.246-1.874 12.494 7.213c.44.255.592.82.338 1.261Zm.393-3.071-12.742-7.357a.967.967 0 0 0-.966 0l-3.73 2.153a1.124 1.124 0 0 1-1.645-1.261c.077-.29.263-.533.523-.683l4.702-2.715a2.932 2.932 0 0 1 2.74-.102l3.377 1.626a4.12 4.12 0 0 0 3.812-.124l1.166-.658 4.64 8.037-1.877 1.084Zm7.998-3.457-3.943 2.277-5.642-9.77 9.585-5.535v13.028ZM30.03 10.168H15.966A.967.967 0 0 1 15 9.201V5.334c0-.534.433-.967.967-.967h14.062c.534 0 .967.433.967.967v3.867a.967.967 0 0 1-.967.967ZM16.933 8.234h12.128V6.301H16.934v1.933Z"/></g><defs><clipPath id="afa"><path fill="#fff" transform="translate(.5 .5)" d="M0 0h45v45H0z"/></clipPath></defs></svg><svg fill="none" viewBox="0 0 46 46" id="sprite--footer-icon-10" xmlns="http://www.w3.org/2000/svg"><g clip-path="url(#aga)" stroke="#fff" stroke-width="2.148" stroke-miterlimit="10" stroke-linejoin="round"><path d="m23.001 33.031-2.708 11.507-2.913-3.394-4.122 1.739L15.983 31.3"/><path d="m23 33.031 2.708 11.507 2.914-3.394 4.121 1.739L30.018 31.3"/><path d="M27.806 13.851a1.934 1.934 0 0 0-2.735 0l-2.986 2.986-1.16-1.159a1.933 1.933 0 1 0-2.734 2.735l2.03 2.03a2.637 2.637 0 0 0 3.729 0l3.856-3.857a1.934 1.934 0 0 0 0-2.734Z" stroke-linecap="round"/><path d="m38.19 15.051-.937-1.622v-1.873c0-1.57-.838-3.021-2.197-3.806l-1.623-.937-.936-1.622a4.395 4.395 0 0 0-3.806-2.197h-1.873l-1.622-.936a4.394 4.394 0 0 0-4.395 0l-1.622.936h-1.873c-1.57 0-3.02.838-3.806 2.197l-.936 1.623-1.623.936a4.395 4.395 0 0 0-2.197 3.806v1.873l-.936 1.622a4.394 4.394 0 0 0 0 4.395l.936 1.622v1.873c0 1.57.838 3.02 2.197 3.806l1.623.936.936 1.623a4.395 4.395 0 0 0 3.806 2.197h1.873l1.622.936a4.394 4.394 0 0 0 4.395 0l1.622-.936h1.873c1.57 0 3.02-.838 3.806-2.198l.936-1.622 1.623-.936a4.395 4.395 0 0 0 2.197-3.806v-1.873l.936-1.623a4.395 4.395 0 0 0 0-4.394Z" stroke-linecap="round"/><path d="M23.002 28.116c6.002 0 10.868-4.866 10.868-10.868 0-6.003-4.866-10.87-10.868-10.87-6.003 0-10.87 4.867-10.87 10.87 0 6.002 4.867 10.868 10.87 10.868Z" stroke-linecap="round"/></g><defs><clipPath id="aga"><path fill="#fff" transform="translate(.5 .5)" d="M0 0h45v45H0z"/></clipPath></defs></svg><svg fill="none" viewBox="0 0 51 50" id="sprite--footer-icon-11" xmlns="http://www.w3.org/2000/svg"><path d="M24.258 44.831H9.09a3.03 3.03 0 0 1-3.027-3.027v-3.277A3.03 3.03 0 0 1 9.09 35.5h15.168a3.03 3.03 0 0 1 3.027 3.027v3.277a3.03 3.03 0 0 1-3.027 3.027ZM9.09 37.648a.88.88 0 0 0-.88.88v3.276a.88.88 0 0 0 .88.879h15.168a.88.88 0 0 0 .879-.88v-3.276a.88.88 0 0 0-.879-.879H9.09Z" fill="#fff"/><path d="m49.895 42.298-.767-4.938a2.177 2.177 0 0 0-2.163-1.852h-3.707v-1.973c0-1.38.396-2.666 1.144-3.72a5.843 5.843 0 0 0 1.082-3.4c0-1.615-.64-3.12-1.803-4.24a5.833 5.833 0 0 0-3.007-1.546V3.027A3.03 3.03 0 0 0 37.647 0H4.105a3.03 3.03 0 0 0-3.027 3.027v43.946A3.03 3.03 0 0 0 4.105 50h33.542a3.03 3.03 0 0 0 3.027-3.027v-2.15h7.06a2.185 2.185 0 0 0 2.161-2.525Zm-6.56-15.884c0 .779-.236 1.525-.685 2.157-1.008 1.42-1.54 3.136-1.54 4.964v1.973h-3.02v-1.973c0-1.763-.547-3.501-1.584-5.027a3.708 3.708 0 0 1-.639-2.244 3.748 3.748 0 0 1 3.586-3.583c1.028-.04 2 .331 2.738 1.042a3.705 3.705 0 0 1 1.145 2.691Zm-4.81 20.559a.88.88 0 0 1-.878.879H4.105a.88.88 0 0 1-.878-.88V3.028a.88.88 0 0 1 .878-.879h33.542a.88.88 0 0 1 .879.88v17.6c-2.651.495-4.698 2.79-4.806 5.552-.05 1.268.3 2.49 1.01 3.535.793 1.168 1.212 2.49 1.212 3.82v1.973h-3.707a2.177 2.177 0 0 0-2.162 1.852l-.768 4.938a2.185 2.185 0 0 0 2.162 2.524h7.059v2.15Zm9.238-4.313c-.012.014-.023.014-.03.014H31.467c-.007 0-.018 0-.03-.014s-.01-.025-.01-.032l.768-4.938a.04.04 0 0 1 .04-.033h14.73a.04.04 0 0 1 .04.033l.767 4.938c.001.007.003.018-.009.032Z" fill="#fff"/><path d="M8.41 8.145h12.464a1.074 1.074 0 1 0 0-2.149H8.41a1.074 1.074 0 0 0 0 2.149Zm0 6.3h23.596a1.074 1.074 0 1 0 0-2.148H8.41a1.074 1.074 0 1 0 0 2.148Zm0 4.77h23.596a1.074 1.074 0 1 0 0-2.149H8.41a1.074 1.074 0 0 0 0 2.149Zm0 6.726h21.361a1.074 1.074 0 0 0 0-2.148H8.411a1.074 1.074 0 1 0 0 2.148Zm18.405 2.622H8.41a1.074 1.074 0 0 0 0 2.148h18.405a1.074 1.074 0 1 0 0-2.148Z" fill="#fff"/></svg><svg fill="none" viewBox="0 0 46 46" id="sprite--footer-icon-12" xmlns="http://www.w3.org/2000/svg"><g clip-path="url(#aia)" fill="#fff"><path d="M37.75 45.498h-5.361a.967.967 0 0 1-.967-.966V36.49c0-.534.433-.967.967-.967h5.36c.535 0 .967.433.967.967v8.042a.967.967 0 0 1-.966.967Zm-4.395-1.933h3.428v-6.108h-3.428v6.108Zm1.713-24.869a.967.967 0 0 1-.966-.967v-5.54a.967.967 0 1 1 1.933 0v5.54a.967.967 0 0 1-.967.967Z"/><path d="M44.448 26.737H25.685c-.89-.001-1.309-1.116-.63-1.701l9.382-8.042a.967.967 0 0 1 1.259 0l9.381 8.042c.675.58.267 1.699-.629 1.7Zm-16.15-1.934h13.537l-6.769-5.801-6.768 5.801ZM6.92 44.85c-.85.004-1.294-1.045-.684-1.651l7.09-7.09-7-7a.967.967 0 0 1-.005-1.364l7.217-7.298-7.302-7.386A.967.967 0 0 1 7.61 11.7l7.974 8.066a.967.967 0 0 1 0 1.36L8.372 28.42l7.004 7.004a.967.967 0 0 1 0 1.368l-7.773 7.773a.964.964 0 0 1-.684.283Z"/><path d="m35.75 11.505-5.36-5.36a.967.967 0 0 0-.684-.284H15.93V1.467A.967.967 0 0 0 14.963.5H6.922a.967.967 0 0 0-.967.967V5.86H1.56a.967.967 0 0 0-.967.967v5.36c0 .535.433.967.967.967h4.394v30.411H1.918a.967.967 0 0 0 0 1.934h18.049a.967.967 0 1 0 0-1.934H15.93v-30.41h19.137c.853.003 1.29-1.049.683-1.651ZM7.888 2.434h6.108V5.86H7.888V2.434Zm6.108 5.36v3.428H7.888V7.795h6.108ZM2.527 11.223V7.795h3.428v3.427H2.527Zm11.47 32.344h-6.11v-30.41h6.108v30.41Zm1.933-32.344V7.795h13.375l3.428 3.427H15.93Z"/><path d="M43.105 45.5H27.022a.967.967 0 0 1-.967-.967V31.131c0-.534.433-.967.966-.967h16.083c.534 0 .967.433.967.967v13.402a.967.967 0 0 1-.966.967Zm-15.117-1.934h14.15V32.099h-14.15v11.468Z"/></g><defs><clipPath id="aia"><path fill="#fff" transform="translate(.5 .5)" d="M0 0h45v45H0z"/></clipPath></defs></svg><svg fill="none" viewBox="0 0 46 46" id="sprite--footer-icon-13" xmlns="http://www.w3.org/2000/svg"><g clip-path="url(#aja)" fill="#fff"><path fill-rule="evenodd" clip-rule="evenodd" d="M27.705 33.52c-.788.71-1.856 1.11-2.97 1.11H21.84v.65h2.641c.501 0 .907.367.907.819 0 .451-.406.818-.907.818h-2.64v1.012c0 .451-.406.818-.907.818s-.907-.367-.907-.818v-1.012h-1.12c-.501 0-.907-.367-.907-.818 0-.451.406-.818.907-.818h1.12v-.651h-1.12c-.501 0-.907-.367-.907-.818 0-.452.406-.818.907-.818h1.12v-5.129c0-.451.406-.818.907-.818h3.8c1.115 0 2.183.4 2.971 1.11.788.712 1.23 1.676 1.23 2.681 0 1.006-.442 1.97-1.23 2.681Zm-.583-2.682c0 .572-.252 1.12-.7 1.524a2.524 2.524 0 0 1-1.688.632H21.84v-4.31h2.895c.633 0 1.24.226 1.687.63.448.404.7.953.7 1.524Z"/><path d="M16.04 26.934h-5.355a.982.982 0 0 1-.982-.982V20.63a.982.982 0 1 1 1.964 0v4.34h3.392v-4.34a.982.982 0 1 1 1.964 0v5.322c0 .542-.44.982-.982.982Zm19.204 0h-5.356a.982.982 0 0 1-.982-.982V20.63a.982.982 0 1 1 1.964 0v4.34h3.392v-4.34a.982.982 0 1 1 1.964 0v5.322c0 .542-.44.982-.982.982Z"/><path d="M44.51 9.634H30.807v-5.27a.982.982 0 0 0-.982-.981H16.169a.982.982 0 0 0-.982.982v5.269H1.482a.982.982 0 0 0-.982.982V41.63c0 .542.44.982.982.982h43.029c.542 0 .982-.44.982-.982.023-3.275-.017-28.475 0-31.015a.982.982 0 0 0-.982-.982ZM17.15 5.347h11.692v4.287H17.15V5.347Zm-14.686 6.25h41.065v3.319l-3.97 4.731H6.404l-3.941-4.73v-3.32Zm0 29.052V17.986l2.727 3.272a.982.982 0 0 0 .754.354h34.071c.29 0 .566-.129.752-.351l2.76-3.29V40.65H2.465Z"/></g><defs><clipPath id="aja"><path fill="#fff" transform="translate(.5 .5)" d="M0 0h45v45H0z"/></clipPath></defs></svg><svg fill="none" viewBox="0 0 46 46" id="sprite--footer-icon-14" xmlns="http://www.w3.org/2000/svg"><g clip-path="url(#aka)" fill="#fff"><path d="M32.75 43.516H13.228l-.407-4.05-1.923.194.495 4.918c.05.494.465.87.961.87h21.27a.966.966 0 0 0 .96-.87l.495-4.918-1.922-.193-.407 4.049Zm5.937-37.061H37.46L34.47.985a.966.966 0 0 0-.848-.503h-21.27a.966.966 0 0 0-.847.503l-2.992 5.47H7.286a.966.966 0 0 0-.966.966v4.567c0 .533.433.966.966.966h.925l.407 4.049 1.922-.194-.387-3.855H35.82l-.388 3.855 1.922.194.407-4.05h.925a.966.966 0 0 0 .966-.965V7.42a.966.966 0 0 0-.966-.966ZM8.253 8.387H37.72v2.635H8.253V8.387Zm4.672-5.972h20.124l2.21 4.04H10.714l2.21-4.04Z"/><path d="M37.77 16.258a.966.966 0 0 0-.717-.318H8.927a.966.966 0 0 0-.961 1.062l2.278 22.66c.05.493.465.869.961.869h23.57a.966.966 0 0 0 .96-.87l2.28-22.659a.967.967 0 0 0-.246-.744Zm-3.87 22.34H12.08L9.994 17.873h25.99L33.9 38.599Z"/><path d="M19.094 34.47h7.79a2.833 2.833 0 0 0 2.479-1.432 2.833 2.833 0 0 0 0-2.862l-3.895-6.747a2.833 2.833 0 0 0-2.48-1.431 2.833 2.833 0 0 0-2.478 1.431l-3.895 6.747a2.833 2.833 0 0 0 0 2.862 2.833 2.833 0 0 0 2.479 1.431Zm-.806-3.328 3.895-6.747a.914.914 0 0 1 .806-.465c.161 0 .563.046.805.465l3.895 6.747c.243.42.081.79 0 .93a.914.914 0 0 1-.805.465h-7.79a.914.914 0 0 1-.806-.465.914.914 0 0 1 0-.93Z"/></g><defs><clipPath id="aka"><path fill="#fff" transform="translate(.5 .482)" d="M0 0h44.967v44.967H0z"/></clipPath></defs></svg><svg fill="none" viewBox="0 0 50 50" id="sprite--footer-icon-15" xmlns="http://www.w3.org/2000/svg"><g clip-path="url(#ala)" fill="#fff"><path d="M28.347 13.008h-10.39a1.074 1.074 0 0 0 0 2.148h10.39a1.074 1.074 0 1 0 0-2.148Zm0 8.711h-10.39a1.074 1.074 0 0 0 0 2.148h10.39a1.074 1.074 0 0 0 0-2.148Zm0 8.711h-10.39a1.074 1.074 0 0 0 0 2.148h10.39a1.074 1.074 0 1 0 0-2.148Zm0 8.71h-10.39a1.074 1.074 0 0 0 0 2.15h10.39a1.074 1.074 0 0 0 0-2.15Z"/><path d="M39.812 19.252v-7.56c0-.279-.11-.553-.315-.759l-3.982-3.982V1.074C35.515.481 35.034 0 34.44 0H1.074C.481 0 0 .481 0 1.074V44.63c0 .593.481 1.074 1.074 1.074h3.223v3.223c0 .593.48 1.074 1.074 1.074h33.367c.593 0 1.074-.481 1.074-1.074V35.045h-2.149v12.807H6.445V6.445h24.897v5.248c0 .593.48 1.074 1.074 1.074h5.247v6.485h2.149ZM32.416 4.297H5.37c-.593 0-1.074.48-1.074 1.074v38.184H2.148V2.148h31.219v2.655l-.191-.191a1.074 1.074 0 0 0-.76-.315Zm1.074 6.322V7.964l2.654 2.655H33.49Z"/><path d="M40.774 17.922c-5.088 0-9.227 4.139-9.227 9.227 0 5.087 4.139 9.227 9.227 9.227 5.087 0 9.227-4.14 9.227-9.227 0-5.088-4.14-9.227-9.227-9.227Zm0 16.305a7.086 7.086 0 0 1-7.079-7.078 7.086 7.086 0 0 1 7.079-7.079 7.086 7.086 0 0 1 7.078 7.079 7.086 7.086 0 0 1-7.078 7.078Z"/><path d="m43.251 24.49-3.035 3.036-1.913-1.913a1.074 1.074 0 0 0-1.52 1.52l2.673 2.672a1.07 1.07 0 0 0 1.52 0l3.794-3.795a1.074 1.074 0 0 0-1.519-1.52ZM13.965 10.86H9.668c-.593 0-1.074.48-1.074 1.074v4.296c0 .594.48 1.075 1.074 1.075h4.297c.593 0 1.074-.481 1.074-1.075v-4.296c0-.594-.48-1.075-1.074-1.075Zm-1.074 4.296h-2.149v-2.148h2.149v2.148Zm1.074 4.414H9.668c-.593 0-1.074.481-1.074 1.075v4.296c0 .594.48 1.075 1.074 1.075h4.297c.593 0 1.074-.481 1.074-1.075v-4.296c0-.594-.48-1.075-1.074-1.075Zm-1.074 4.297h-2.149V21.72h2.149v2.148Zm1.074 4.414H9.668c-.593 0-1.074.481-1.074 1.075v4.296c0 .594.48 1.075 1.074 1.075h4.297c.593 0 1.074-.481 1.074-1.075v-4.297c0-.593-.48-1.074-1.074-1.074Zm-1.074 4.297h-2.149V30.43h2.149v2.148Zm1.074 4.414H9.668c-.593 0-1.074.481-1.074 1.074v4.297c0 .593.48 1.075 1.074 1.075h4.297c.593 0 1.074-.482 1.074-1.075v-4.297c0-.593-.48-1.074-1.074-1.074ZM12.89 41.29h-2.149v-2.148h2.149v2.148Z"/></g><defs><clipPath id="ala"><path fill="#fff" d="M0 0h50v50H0z"/></clipPath></defs></svg><svg fill="none" viewBox="0 0 46 46" id="sprite--footer-icon-2" xmlns="http://www.w3.org/2000/svg"><g clip-path="url(#ama)" fill="#fff"><path d="M41.67 22.401a3.571 3.571 0 0 0-5.016.014l-6.35 6.336a3.707 3.707 0 0 0-.706-1.014 3.586 3.586 0 0 0-2.579-1.09H23.9a6.11 6.11 0 0 1-3.119-.858 8.344 8.344 0 0 0-4.257-1.17c-2.44 0-4.728.95-6.444 2.676-.853.858-1.85 1.858-2.835 2.846l-.096-.095a.967.967 0 0 0-1.367 0l-4.078 4.078a.967.967 0 0 0 0 1.367l9.723 9.723a.964.964 0 0 0 1.367 0l4.078-4.078a.967.967 0 0 0 0-1.367l-.082-.082a2.302 2.302 0 0 1 1.366-.444h8.617a7.402 7.402 0 0 0 5.257-2.172l9.651-9.611a3.536 3.536 0 0 0 1.048-2.532 3.536 3.536 0 0 0-1.06-2.527ZM12.112 43.163l-8.356-8.355 2.71-2.711 8.356 8.356-2.71 2.71ZM40.318 26.09l-9.651 9.61a5.481 5.481 0 0 1-3.893 1.608h-8.617a4.22 4.22 0 0 0-2.741 1.003l-6.803-6.803 2.84-2.85a7.102 7.102 0 0 1 5.072-2.106c1.149 0 2.28.31 3.27.899a8.046 8.046 0 0 0 4.106 1.128h3.118c.45 0 .875.181 1.198.51.326.333.505.774.505 1.24 0 .44-.17.855-.481 1.171a1.593 1.593 0 0 1-1.143.487l-6.866-.001a.967.967 0 0 0 0 1.933l6.866.001c.952 0 1.847-.378 2.522-1.065a3.594 3.594 0 0 0 .916-1.605l7.483-7.467a1.632 1.632 0 0 1 2.294-.007c.31.308.483.718.484 1.155.001.438-.17.849-.48 1.158Z"/><path fill-rule="evenodd" clip-rule="evenodd" d="M18.477 10.926c-.6.601-1.414.94-2.262.94H14.01v.55h2.01a.691.691 0 0 1 0 1.385h-2.01v.856a.691.691 0 1 1-1.381 0v-.856h-.854a.691.691 0 0 1 0-1.385h.854v-.55h-.854a.691.691 0 0 1 0-1.385h.854v-4.34a.69.69 0 0 1 .69-.692h2.895c.848 0 1.662.338 2.262.94a3.213 3.213 0 0 1 0 4.537Zm-.445-2.269c0 .484-.191.948-.532 1.29a1.814 1.814 0 0 1-1.285.534H14.01V6.834h2.204c.482 0 .944.192 1.285.534.34.342.532.806.532 1.29Z"/><path d="M15.15 20.363c-5.476 0-9.931-4.455-9.931-9.931C5.219 4.955 9.674.5 15.15.5c5.477 0 9.932 4.455 9.932 9.932 0 5.476-4.455 9.931-9.932 9.931Zm0-17.93c-4.41 0-7.998 3.588-7.998 7.999 0 4.41 3.588 7.998 7.998 7.998s7.998-3.588 7.998-7.998-3.587-7.998-7.998-7.998Zm28.461 6.829H40.85a.967.967 0 1 0 0 1.933h.428l-4.647 4.647-3.395-3.395a.967.967 0 0 0-1.367 0l-9.882 9.882a.967.967 0 0 0 1.367 1.367l9.199-9.198 3.395 3.395a.967.967 0 0 0 1.367 0l5.33-5.33v.428a.967.967 0 1 0 1.934 0v-2.762a.967.967 0 0 0-.967-.967Z"/></g><defs><clipPath id="ama"><path fill="#fff" transform="translate(.5 .5)" d="M0 0h45v45H0z"/></clipPath></defs></svg><svg fill="none" viewBox="0 0 46 46" id="sprite--footer-icon-3" xmlns="http://www.w3.org/2000/svg"><g clip-path="url(#ana)" fill="#fff"><path d="M12.146 29.004H7.091a.967.967 0 0 0-.967.967v12.818h1.934V30.937h3.12V42.79h1.933V29.97a.967.967 0 0 0-.966-.967Zm8.921-4.394h-5.053a.967.967 0 0 0-.967.966V42.79h1.933V26.543h3.12v16.246h1.934V25.576a.967.967 0 0 0-.967-.967Zm8.923-4.395h-5.054a.967.967 0 0 0-.967.967v21.607h1.933v-20.64h3.12v20.64h1.934V21.182a.967.967 0 0 0-.967-.967Zm8.921-4.395h-5.054a.967.967 0 0 0-.966.967V42.79h1.933V17.754h3.12v25.035h1.934V16.787a.967.967 0 0 0-.967-.967Z"/><path d="m45.217 42.106-1.743-1.743a.967.967 0 1 0-1.368 1.368l.093.092H4.177V3.801l.092.093a.964.964 0 0 0 1.368 0 .967.967 0 0 0 0-1.368L3.893.783a.967.967 0 0 0-1.367 0L.783 2.526A.967.967 0 0 0 2.15 3.894l.093-.093v38.99c0 .533.433.966.967.966H42.2l-.094.093a.967.967 0 0 0 1.368 1.367l1.743-1.743a.967.967 0 0 0 0-1.367Z"/><path d="M9.615 27.283a.967.967 0 0 0 .967-.967v-5.25a3.498 3.498 0 0 1 3.494-3.494 3.498 3.498 0 0 1 3.493 3.493v.786a.967.967 0 0 0 1.934 0v-5.25a3.498 3.498 0 0 1 3.494-3.494A3.498 3.498 0 0 1 26.49 16.6v.786a.967.967 0 0 0 1.934 0v-5.25a3.498 3.498 0 0 1 3.494-3.494 3.498 3.498 0 0 1 3.493 3.493v.786a.967.967 0 1 0 1.934 0v-5.25a3.498 3.498 0 0 1 3.493-3.494h.288l-.092.092A.967.967 0 0 0 42.4 5.637l1.743-1.743a.967.967 0 0 0 0-1.368L42.4.783a.967.967 0 1 0-1.367 1.368l.092.092h-.288A5.433 5.433 0 0 0 35.41 7.67v.315a5.403 5.403 0 0 0-3.494-1.277 5.433 5.433 0 0 0-5.427 5.427v.315a5.403 5.403 0 0 0-3.493-1.277 5.433 5.433 0 0 0-5.428 5.427v.315a5.403 5.403 0 0 0-3.493-1.277 5.433 5.433 0 0 0-5.428 5.427v5.251c0 .534.433.967.967.967Z"/></g><defs><clipPath id="ana"><path fill="#fff" transform="translate(.5 .5)" d="M0 0h45v45H0z"/></clipPath></defs></svg><svg fill="none" viewBox="0 0 46 46" id="sprite--footer-icon-4" xmlns="http://www.w3.org/2000/svg"><g clip-path="url(#aoa)" stroke="#fff" stroke-width="2.148" stroke-miterlimit="10" stroke-linecap="round" stroke-linejoin="round"><path d="M4.195 38.582V15.307c0-1.052.853-1.905 1.905-1.905h2.327m29.104 0h2.379c1.051 0 1.904.853 1.904 1.905v23.275m1.541.445H2.649a1.18 1.18 0 0 0-1.18 1.18v.452a3.876 3.876 0 0 0 3.876 3.876h35.314a3.876 3.876 0 0 0 3.876-3.876v-.451a1.18 1.18 0 0 0-1.18-1.18Z"/><path d="M37.64 16.105c0-8.083-6.553-14.636-14.637-14.636-8.083 0-14.636 6.553-14.636 14.636 0 6.695 4.495 12.34 10.632 14.081l4.004 5.233 4.004-5.233C33.144 28.445 37.64 22.8 37.64 16.105ZM8.625 31.082h3.443M8.625 34.95h8.118m20.629-3.868H33.93m3.446 3.868h-8.118"/><path d="m15.84 16.026-3.472-1.442a.48.48 0 0 1-.025-.877l9.97-4.766a1.598 1.598 0 0 1 1.378 0l9.97 4.766a.48.48 0 0 1-.025.877l-3.472 1.442"/><path d="M30.16 21.536v-5.509l-1.253-.513a15.596 15.596 0 0 0-11.817 0l-1.254.513v5.51H30.16Zm3.77-7.388v4.26"/></g><defs><clipPath id="aoa"><path fill="#fff" transform="translate(.5 .5)" d="M0 0h45v45H0z"/></clipPath></defs></svg><svg fill="none" viewBox="0 0 46 46" id="sprite--footer-icon-5" xmlns="http://www.w3.org/2000/svg"><g clip-path="url(#apa)" fill="#fff"><path d="M38.022 17.188a.967.967 0 0 0-.967.966v4.755h1.933v-4.755a.967.967 0 0 0-.966-.966Z"/><path d="M38.302 11.686a4.884 4.884 0 0 0 1.01-2.979 4.915 4.915 0 0 0-4.91-4.91 4.918 4.918 0 0 0-4.699 3.489l-3.795-5.27-.002.001a3.492 3.492 0 0 0-.893-.893 3.564 3.564 0 0 0-4.89.847l-3.825 5.313a4.918 4.918 0 0 0-4.7-3.488 4.915 4.915 0 0 0-4.91 4.91 4.88 4.88 0 0 0 1.011 2.978 5.348 5.348 0 0 0-5.246 5.34v5.97h1.934v-5.97a3.411 3.411 0 0 1 3.408-3.408h3.803c1.642 0 3.097-.81 3.989-2.052l.008.006 3.992-5.544L22.31 8.01l-6.34 9.61a.967.967 0 0 0-.16.532v4.845h1.934v-4.554L23 10.477l5.258 7.966v4.554h1.934v-4.844a.968.968 0 0 0-.16-.533l-5.874-8.898s1.936-2.946 1.994-3.06l4.254 5.91.008-.006a4.906 4.906 0 0 0 3.988 2.05h3.803c1.88 0 3.41 1.53 3.41 3.41v5.97h1.933v-5.97a5.347 5.347 0 0 0-5.246-5.34Zm-26.704-.004a2.98 2.98 0 0 1-2.976-2.976 2.98 2.98 0 0 1 2.976-2.977 2.98 2.98 0 0 1 2.977 2.977 2.98 2.98 0 0 1-2.977 2.976ZM24.345 4.93l-.967 1.465-2.662-1.938.977-1.356a1.62 1.62 0 0 1 2.222-.385 1.62 1.62 0 0 1 .43 2.214Zm10.057 6.753a2.98 2.98 0 0 1-2.976-2.976 2.98 2.98 0 0 1 2.976-2.976 2.98 2.98 0 0 1 2.977 2.976 2.98 2.98 0 0 1-2.977 2.976Z"/><path d="M7.975 17.184a.967.967 0 0 0-.967.966v4.755H8.94V18.15a.967.967 0 0 0-.966-.966Z"/><path d="M44.533 22.031H1.467a.967.967 0 0 0-.967.967c0 6.01 2.34 11.66 6.59 15.91 4.23 4.23 9.93 6.568 15.91 6.59 5.98-.022 11.68-2.36 15.91-6.59 4.25-4.25 6.59-9.9 6.59-15.91a.967.967 0 0 0-.967-.967Zm-15.33 1.934c-.045 3.049-.303 5.977-.753 8.628h-10.9c-.45-2.651-.708-5.58-.753-8.628h12.406Zm-26.747 0h12.407c.044 3.03.293 5.954.728 8.628H4.798a20.42 20.42 0 0 1-2.342-8.628ZM8.457 37.54a20.787 20.787 0 0 1-2.495-3.015h9.986c.297 1.434.65 2.778 1.06 4.004.711 2.136 1.489 3.645 2.271 4.7a20.418 20.418 0 0 1-10.822-5.69ZM23 43.565c-1.425 0-2.98-2.111-4.158-5.646a32.875 32.875 0 0 1-.919-3.393h10.154a32.9 32.9 0 0 1-.919 3.393c-1.178 3.535-2.733 5.646-4.158 5.646Zm14.543-6.024a20.417 20.417 0 0 1-10.822 5.688c.782-1.054 1.56-2.564 2.272-4.699.408-1.226.762-2.57 1.06-4.004h9.985a20.78 20.78 0 0 1-2.495 3.015Zm3.66-4.948H30.408c.435-2.674.684-5.597.728-8.628h12.407a20.421 20.421 0 0 1-2.342 8.628Z"/></g><defs><clipPath id="apa"><path fill="#fff" transform="translate(.5 .5)" d="M0 0h45v45H0z"/></clipPath></defs></svg><svg fill="none" viewBox="0 0 46 46" id="sprite--footer-icon-6" xmlns="http://www.w3.org/2000/svg"><g clip-path="url(#aqa)" fill="#fff"><path d="M42.826 3.171A9.06 9.06 0 0 0 36.376.5a9.06 9.06 0 0 0-6.448 2.671l-5.686 5.686 1.367 1.367 5.686-5.686a7.139 7.139 0 0 1 5.082-2.104 7.14 7.14 0 0 1 5.081 2.104c2.802 2.802 2.802 7.361 0 10.163l-5.685 5.686 1.367 1.368 5.686-5.686c3.556-3.556 3.556-9.342 0-12.898Z"/><path d="m38.108 21.353-13.46-13.46a.967.967 0 0 0-1.368 0L13.134 18.038a.967.967 0 0 0 0 1.367l3.118 3.118L1.936 38.03a.967.967 0 0 0 .027 1.34l1.65 1.65-2.83 2.83a.967.967 0 1 0 1.368 1.368l2.83-2.83 1.65 1.65a.964.964 0 0 0 1.34.027l15.506-14.317 3.118 3.118a.964.964 0 0 0 1.368 0l10.145-10.145a.967.967 0 0 0 0-1.368ZM7.341 42.014 3.987 38.66l1.836-1.989 3.508 3.508-1.99 1.836Zm3.412-3.15-3.617-3.616 10.485-11.356 4.488 4.488-11.356 10.485Zm16.526-8.049L15.185 18.722l3.706-3.706L30.985 27.11l-3.706 3.705Zm5.073-5.072L20.258 13.649l3.706-3.706 12.093 12.094-3.705 3.706Z"/></g><defs><clipPath id="aqa"><path fill="#fff" transform="translate(.5 .5)" d="M0 0h45v45H0z"/></clipPath></defs></svg><svg fill="none" viewBox="0 0 46 46" id="sprite--footer-icon-7" xmlns="http://www.w3.org/2000/svg"><g clip-path="url(#ara)" fill="#fff"><path d="M15.102 19.605h-.96L9.627 8.277l-.005-.012-.022-.048c-.006-.013-.012-.027-.02-.04a.326.326 0 0 0-.024-.04l-.024-.041-.027-.036-.03-.04-.03-.035-.032-.034-.038-.035-.031-.028-.043-.032-.032-.024c-.014-.01-.029-.018-.043-.026l-.04-.023-.04-.02a.484.484 0 0 0-.047-.021l-.012-.006-.03-.01a.986.986 0 0 0-.14-.04l-.046-.007a.943.943 0 0 0-.468.046l-.031.011-.013.006-.044.02-.043.021-.037.022-.045.027-.031.023-.045.033-.03.027-.039.036-.03.033-.032.036-.03.039-.026.037-.025.04c-.008.014-.017.027-.024.041l-.02.04-.022.048-.005.012L3.32 19.605h-.96c-.546 0-1.06.238-1.414.653a1.865 1.865 0 0 0-.42 1.51 8.311 8.311 0 0 0 13.62 4.973 8.322 8.322 0 0 0 2.791-4.973 1.865 1.865 0 0 0-.42-1.51 1.852 1.852 0 0 0-1.414-.653ZM8.73 11.247l3.33 8.358H5.4l3.33-8.358Zm4.155 14.027a6.377 6.377 0 0 1-8.31 0 6.386 6.386 0 0 1-2.129-3.735h12.568a6.386 6.386 0 0 1-2.13 3.735Zm32.169-5.016a1.853 1.853 0 0 0-1.413-.653h-.961L38.167 8.277l-.005-.012a.901.901 0 0 0-.022-.049l-.02-.039a.436.436 0 0 0-.024-.041l-.024-.04-.027-.037-.03-.039-.03-.035-.032-.034-.038-.035-.03-.028-.044-.032-.032-.024c-.014-.01-.029-.018-.043-.026l-.04-.023-.04-.02c-.016-.007-.031-.015-.047-.021l-.012-.006-.03-.01a1.092 1.092 0 0 0-.14-.04.912.912 0 0 0-.233-.017.969.969 0 0 0-.188.028l-.047.013a.973.973 0 0 0-.047.016l-.03.01-.013.006-.045.02-.042.021-.038.022-.044.027-.032.024a.448.448 0 0 0-.044.032l-.03.028c-.013.012-.027.023-.038.035-.012.011-.022.023-.032.035l-.031.034-.03.04-.026.035c-.01.014-.017.028-.025.041-.008.014-.017.027-.024.041l-.02.04-.022.048-.005.012-4.513 11.328h-.96c-.546 0-1.06.238-1.414.653a1.866 1.866 0 0 0-.42 1.51 8.311 8.311 0 0 0 13.62 4.973 8.32 8.32 0 0 0 2.791-4.973 1.866 1.866 0 0 0-.42-1.51Zm-7.785-9.011 3.33 8.358h-6.66l3.33-8.358Zm4.154 14.027a6.377 6.377 0 0 1-8.309 0 6.386 6.386 0 0 1-2.129-3.735h12.568a6.386 6.386 0 0 1-2.13 3.735Z"/><path d="M39.976 6.852H26.068a3.231 3.231 0 0 0-3.065-2.223 3.231 3.231 0 0 0-3.066 2.223H6.03a.967.967 0 0 0 0 1.934h13.748v22.236h-1.959a3.19 3.19 0 0 0-3.186 3.186v1.015h-.971c-.889 0-1.612.723-1.612 1.611v2.923c0 .888.723 1.611 1.612 1.611h18.683c.889 0 1.612-.723 1.612-1.611v-2.923c0-.888-.723-1.611-1.612-1.611h-.97v-1.015a3.19 3.19 0 0 0-3.187-3.186h-1.959V8.786h13.748a.967.967 0 0 0 0-1.934Zm-16.973-.29a1.294 1.294 0 0 1 0 2.585c-.713 0-1.293-.58-1.293-1.292 0-.713.58-1.293 1.293-1.293Zm9.02 32.873h-18.04v-2.279h18.04v2.279Zm-2.583-5.227v1.015H16.566v-1.015c0-.69.562-1.253 1.253-1.253h10.368c.69 0 1.253.562 1.253 1.253Zm-7.73-3.186V10.81a3.207 3.207 0 0 0 2.585 0v20.212H21.71Z"/></g><defs><clipPath id="ara"><path fill="#fff" transform="translate(.5 .5)" d="M0 0h45v45H0z"/></clipPath></defs></svg><svg fill="none" viewBox="0 0 46 46" id="sprite--footer-icon-8" xmlns="http://www.w3.org/2000/svg"><g clip-path="url(#asa)" fill="#fff"><path d="M18.795 13.895a.967.967 0 0 1-.967-.966V1.471c.048-1.281 1.887-1.28 1.934 0V12.93a.967.967 0 0 1-.967.966Zm8.406 0a.967.967 0 0 1-.967-.966V1.471c.048-1.281 1.887-1.28 1.934 0V12.93a.967.967 0 0 1-.967.966Zm-8.406 30.172a.967.967 0 0 1-.967-.967V29.992c.048-1.282 1.887-1.28 1.934 0V43.1a.967.967 0 0 1-.967.967Zm8.406-.027a.967.967 0 0 1-.967-.967V29.992c.048-1.282 1.887-1.28 1.934 0v13.08a.967.967 0 0 1-.967.968Z"/><path d="M22.998 45.5a.97.97 0 0 1-.25-.033C5.79 41.17 2.573 25.906 2.774 11.095c0-.534.433-.966.967-.966 4.776 0 8.662-3.886 8.662-8.662 0-.534.433-.967.966-.967h19.258c.534 0 .966.433.966.967 0 4.776 3.886 8.662 8.662 8.662.534 0 .967.433.967.966.205 14.812-3.026 30.083-19.974 34.372a.97.97 0 0 1-.25.033ZM4.711 12.018c.1 13.897 2.567 27.17 18.287 31.513 15.72-4.344 18.188-17.616 18.287-31.513-5.07-.462-9.12-4.513-9.581-9.584H14.292c-.46 5.07-4.51 9.122-9.581 9.584Z"/><path d="M34.9 13.278h-2.534V11.62a.967.967 0 0 0-1.255-.922l-8.115 2.535-8.114-2.535a.966.966 0 0 0-1.256.922v1.66h-2.534a.967.967 0 0 0-.967.966v15.756c0 .534.433.967.967.967H34.9a.967.967 0 0 0 .966-.967V14.245a.967.967 0 0 0-.966-.967Zm-10.937 1.678 6.47-2.022v12.417l-6.47 2.022V14.956Zm-1.934 0v12.417l-6.469-2.022V14.377a.897.897 0 0 0 0-.263v-1.18l6.47 2.022Zm-9.97.256h1.567v10.85c0 .423.275.797.679.923l6.558 2.05h-8.804V15.211Zm21.875 13.822H25.13l6.558-2.05a.967.967 0 0 0 .678-.922v-10.85h1.568v13.822Z"/></g><defs><clipPath id="asa"><path fill="#fff" transform="translate(.5 .5)" d="M0 0h45v45H0z"/></clipPath></defs></svg><svg fill="none" viewBox="0 0 46 46" id="sprite--footer-icon-9" xmlns="http://www.w3.org/2000/svg"><g clip-path="url(#ata)" fill="#fff"><path d="m44.751 10.381-1.334-.553c-.214-.713-.5-1.402-.854-2.058l.553-1.333a.967.967 0 0 0-.21-1.054L40.463 2.94a.967.967 0 0 0-1.053-.21l-1.336.554a10.974 10.974 0 0 0-2.058-.853l-.552-1.333A.967.967 0 0 0 34.571.5h-3.456a.967.967 0 0 0-.893.597l-.553 1.334c-.713.214-1.402.5-2.058.854l-1.333-.553a.967.967 0 0 0-1.054.21l-2.076 2.075 1.367 1.367 1.62-1.618 1.172.486a.967.967 0 0 0 .867-.064 9.043 9.043 0 0 1 2.443-1.013.967.967 0 0 0 .658-.568l.486-1.173h2.164l.485 1.172a.967.967 0 0 0 .658.568c.859.215 1.68.556 2.443 1.012a.97.97 0 0 0 .866.064l1.175-.487 1.53 1.53-.486 1.173a.967.967 0 0 0 .064.867 9.042 9.042 0 0 1 1.013 2.443.97.97 0 0 0 .568.658l1.173.486v2.164l-1.172.485a.966.966 0 0 0-.568.658 9.042 9.042 0 0 1-1.012 2.443.967.967 0 0 0-.064.866l.487 1.175-1.623 1.623 1.367 1.368 2.08-2.08a.967.967 0 0 0 .21-1.054l-.553-1.335c.353-.656.639-1.345.852-2.058l1.333-.552a.967.967 0 0 0 .597-.893v-3.456a.967.967 0 0 0-.597-.893Z"/><path d="M32.842 7.387a5.622 5.622 0 0 0-5.615 5.615 5.62 5.62 0 0 0 4.551 5.514l.365-1.898a3.684 3.684 0 0 1-2.983-3.616 3.686 3.686 0 0 1 3.682-3.682 3.686 3.686 0 0 1 3.681 3.682 3.68 3.68 0 0 1-3.005 3.62l.352 1.901a5.613 5.613 0 0 0 4.587-5.521 5.622 5.622 0 0 0-5.615-5.615Z"/><path d="M44.533 21.348h-7.628l-2.36-4.249a.967.967 0 0 0-.846-.497h-8.422V6.858a.966.966 0 0 0-.283-.683L19.603.783a.966.966 0 0 0-.684-.282V.5H1.467a.967.967 0 0 0-.967.967v28.75c0 .535.433.968.967.968H12.51v13.348c0 .534.433.967.967.967h31.056a.967.967 0 0 0 .967-.967V22.315a.967.967 0 0 0-.967-.967Zm-.967 6.57-11.66 1.643V27.88a.967.967 0 0 0-.967-.967H27.07a.967.967 0 0 0-.966.967v1.698l-11.66-1.658v-4.64h29.122v4.637Zm-13.594.928v3.691h-1.934v-3.691h1.934Zm4.721-7.498H23.317l1.562-2.813h8.252l1.562 2.813ZM19.886 3.8l2.09 2.09h-2.09V3.8ZM2.434 29.25V2.434h15.518v4.424c0 .534.433.967.967.967h4.425v9.493l-2.24 4.03h-7.627a.967.967 0 0 0-.967.967v6.936H2.434Zm12.01 14.315V29.872l11.66 1.659v1.973c0 .534.433.967.967.967h3.867a.967.967 0 0 0 .967-.967v-1.99l11.661-1.644v13.696H14.444Z"/><path d="M8.03 11.688h9.71a.967.967 0 0 0 0-1.934H8.03a.967.967 0 0 0 0 1.934Zm10.677 6.767a.967.967 0 0 0-.967-.967H8.03a.967.967 0 1 0 0 1.934h9.71a.967.967 0 0 0 .967-.967Zm2.096-3.867a.967.967 0 0 0-.967-.967H5.943a.967.967 0 0 0 0 1.934h13.893a.967.967 0 0 0 .967-.967Z"/></g><defs><clipPath id="ata"><path fill="#fff" transform="translate(.5 .5)" d="M0 0h45v45H0z"/></clipPath></defs></svg><svg fill="none" viewBox="0 0 47 48" id="sprite--grm" xmlns="http://www.w3.org/2000/svg"><path d="M14.415 28.395v-1.262h.856l-.002.198h-.68l.055-.056.001 1.12h-.23Zm.886 0v-.963h.226v.635l.531-.635h.206v.963h-.226v-.635l-.53.634h-.207Zm1.125-.002.011-.19a1.023 1.023 0 0 1 .043.006.11.11 0 0 0 .087-.034.213.213 0 0 0 .045-.092.7.7 0 0 0 .022-.132c.005-.05.008-.099.01-.148l.017-.371h.778v.963h-.225v-.833l.052.061h-.457l.048-.063-.012.254a2.357 2.357 0 0 1-.022.238.794.794 0 0 1-.047.19.29.29 0 0 1-.087.125.21.21 0 0 1-.138.046.356.356 0 0 1-.06-.006.806.806 0 0 1-.065-.014Zm1.8-.644c.124 0 .218.028.283.083a.291.291 0 0 1 .097.235.3.3 0 0 1-.108.245.47.47 0 0 1-.304.084l-.451-.002v-.962h.225v.315l.258.002Zm-.052.482c.066 0 .116-.013.151-.042.035-.029.052-.07.052-.126 0-.055-.017-.095-.052-.12a.258.258 0 0 0-.151-.039l-.206-.002v.327l.206.002Zm1.267.059v-.667h-.37l-.005.155a3.272 3.272 0 0 1-.01.16.956.956 0 0 1-.024.141.298.298 0 0 1-.047.105.14.14 0 0 1-.08.054l-.224-.035a.114.114 0 0 0 .086-.034.235.235 0 0 0 .052-.097.767.767 0 0 0 .03-.142c.005-.055.01-.11.012-.168l.012-.33h.794v.858h-.226Zm-.795.319v-.406h1.163v.406h-.21v-.215h-.744v.215h-.209Zm1.364-.215v-.962h.226v.635l.531-.635h.206v.963h-.225v-.635l-.53.634h-.208Zm1.877 0v-.327l.032.037h-.288a.519.519 0 0 1-.312-.083.287.287 0 0 1-.111-.243.3.3 0 0 1 .119-.258.531.531 0 0 1 .32-.088h.442v.963h-.202Zm-.692 0 .26-.367h.23l-.249.367h-.241Zm.692-.4v-.432l.032.06h-.265a.283.283 0 0 0-.162.039c-.037.025-.056.067-.056.124 0 .108.07.163.211.163h.273l-.033.046Zm1.537.413a.394.394 0 0 1-.368-.216.611.611 0 0 1-.056-.278c0-.113.018-.205.054-.277a.37.37 0 0 1 .152-.16.435.435 0 0 1 .218-.055c.095 0 .178.02.25.061a.45.45 0 0 1 .174.172c.043.073.064.16.064.26a.509.509 0 0 1-.064.26.448.448 0 0 1-.174.172.5.5 0 0 1-.25.061Zm-.534.337v-1.312h.215v.227l-.007.256.018.256v.573h-.226Zm.509-.53a.285.285 0 0 0 .144-.036.261.261 0 0 0 .103-.104.327.327 0 0 0 .037-.16.32.32 0 0 0-.037-.161.261.261 0 0 0-.103-.105.286.286 0 0 0-.144-.036.296.296 0 0 0-.146.036.261.261 0 0 0-.103.105.32.32 0 0 0-.038.16c0 .061.013.115.038.16a.26.26 0 0 0 .103.105.295.295 0 0 0 .146.036Zm.738.18v-.962h.225v.635l.532-.635h.205v.963h-.225v-.635l-.53.634h-.207Zm1.42-.405v-.162h.523v.162h-.522Zm.132-.572c.104 0 .195.022.274.065a.477.477 0 0 1 .256.431.489.489 0 0 1-.068.258.49.49 0 0 1-.188.177.577.577 0 0 1-.274.063.636.636 0 0 1-.238-.044.472.472 0 0 1-.18-.124l.13-.126c.038.037.08.065.126.085a.399.399 0 0 0 .325-.011.313.313 0 0 0 .16-.278.307.307 0 0 0-.16-.276.4.4 0 0 0-.325-.013.395.395 0 0 0-.126.087l-.13-.126a.471.471 0 0 1 .18-.124.634.634 0 0 1 .238-.043Zm.597.976.011-.19a1.023 1.023 0 0 1 .043.006.11.11 0 0 0 .087-.034.213.213 0 0 0 .045-.092.692.692 0 0 0 .022-.132c.004-.05.008-.099.01-.148l.017-.371h.778v.963h-.225v-.833l.052.061h-.458l.05-.063-.014.254c-.003.085-.01.165-.021.238a.799.799 0 0 1-.047.19.289.289 0 0 1-.087.125.21.21 0 0 1-.138.046.354.354 0 0 1-.06-.006.798.798 0 0 1-.065-.014Zm1.517.002v-.826l.052.054h-.391v-.191h.901v.191h-.389l.052-.054v.826h-.225Zm1.113.012a.54.54 0 0 1-.264-.063.486.486 0 0 1-.248-.43.48.48 0 0 1 .248-.43.539.539 0 0 1 .264-.063c.1 0 .188.021.264.063.079.042.14.1.183.173a.483.483 0 0 1 .066.256.486.486 0 0 1-.248.431.544.544 0 0 1-.265.063Zm0-.193a.299.299 0 0 0 .147-.036.25.25 0 0 0 .101-.104.326.326 0 0 0 .038-.16.32.32 0 0 0-.038-.161.25.25 0 0 0-.1-.105.296.296 0 0 0-.147-.036.265.265 0 0 0-.249.14.32.32 0 0 0-.037.161c0 .061.012.115.038.16a.265.265 0 0 0 .247.141Zm1.27.193a.394.394 0 0 1-.368-.216.611.611 0 0 1-.056-.278c0-.113.018-.205.054-.277a.37.37 0 0 1 .151-.16.435.435 0 0 1 .219-.055.5.5 0 0 1 .25.061.447.447 0 0 1 .173.172c.043.073.065.16.065.26a.51.51 0 0 1-.065.26.448.448 0 0 1-.173.172.5.5 0 0 1-.25.061Zm-.534.337v-1.312h.214v.227l-.007.256.018.256v.573h-.225Zm.508-.53a.285.285 0 0 0 .145-.036.261.261 0 0 0 .102-.104.327.327 0 0 0 .038-.16.32.32 0 0 0-.038-.161.261.261 0 0 0-.102-.105.286.286 0 0 0-.145-.036.296.296 0 0 0-.146.036.261.261 0 0 0-.102.105.32.32 0 0 0-.038.16c0 .061.012.115.038.16a.258.258 0 0 0 .102.105.295.295 0 0 0 .146.036Zm1.167.193a.54.54 0 0 1-.263-.063.486.486 0 0 1-.249-.43.48.48 0 0 1 .25-.43.539.539 0 0 1 .262-.063c.1 0 .188.021.265.063.078.042.14.1.182.173a.483.483 0 0 1 .067.256.486.486 0 0 1-.249.431.544.544 0 0 1-.265.063Zm0-.193a.299.299 0 0 0 .148-.036.249.249 0 0 0 .101-.104.326.326 0 0 0 .038-.16.32.32 0 0 0-.038-.161.25.25 0 0 0-.1-.105.296.296 0 0 0-.147-.036.265.265 0 0 0-.249.14.32.32 0 0 0-.038.161c0 .061.013.115.038.16a.265.265 0 0 0 .247.141Zm.737.18v-.962h.47c.117 0 .208.022.274.065a.207.207 0 0 1 .101.184c0 .078-.031.14-.094.184a.43.43 0 0 1-.248.065l.027-.056c.116 0 .203.021.26.065.057.041.086.103.086.185a.236.236 0 0 1-.096.2c-.063.047-.16.07-.29.07h-.49Zm.214-.163h.258a.26.26 0 0 0 .139-.03.102.102 0 0 0 .047-.091c0-.043-.015-.075-.044-.096-.028-.02-.074-.03-.135-.03h-.265v.246Zm0-.397h.236a.23.23 0 0 0 .13-.03.105.105 0 0 0 .045-.09c0-.04-.015-.07-.045-.09a.236.236 0 0 0-.13-.028h-.236v.238Zm-12.307 2.56v-1.261h.191l.554.92h-.103l.544-.92h.192l.003 1.262h-.223l-.002-.914h.047l-.462.77h-.104l-.47-.77h.055v.913h-.222Zm2.138.013a.54.54 0 0 1-.263-.063.485.485 0 0 1-.249-.43.48.48 0 0 1 .249-.43.54.54 0 0 1 .263-.063c.1 0 .188.021.265.063a.46.46 0 0 1 .182.173.484.484 0 0 1 .067.256.487.487 0 0 1-.249.431.544.544 0 0 1-.265.063Zm0-.193a.298.298 0 0 0 .148-.036.25.25 0 0 0 .1-.104.327.327 0 0 0 .039-.16.32.32 0 0 0-.038-.161.25.25 0 0 0-.101-.105.296.296 0 0 0-.146-.036.265.265 0 0 0-.249.14.32.32 0 0 0-.038.161c0 .061.013.115.038.16a.265.265 0 0 0 .247.141Zm1.174.193a.569.569 0 0 1-.27-.063.481.481 0 0 1-.25-.43.48.48 0 0 1 .25-.43.568.568 0 0 1 .27-.063.51.51 0 0 1 .247.058.37.37 0 0 1 .164.166l-.173.1a.275.275 0 0 0-.24-.133.31.31 0 0 0-.149.036.258.258 0 0 0-.105.105.32.32 0 0 0-.037.16c0 .063.012.117.037.163.026.044.06.078.105.102a.309.309 0 0 0 .283.004.275.275 0 0 0 .106-.101l.173.1a.394.394 0 0 1-.164.168.51.51 0 0 1-.247.058Zm1.3-.012-.348-.462.184-.113.43.575h-.266Zm-.69 0v-.963h.225v.963h-.225Zm.158-.386v-.188h.327v.188h-.327Zm.39-.069-.211-.025.353-.483h.242l-.384.508Zm.566.454v-.962h.47c.117 0 .209.022.275.065a.207.207 0 0 1 .1.184c0 .078-.03.14-.093.184a.43.43 0 0 1-.249.065l.027-.056c.117 0 .203.021.26.065.057.041.086.103.086.185a.236.236 0 0 1-.095.2c-.064.047-.16.07-.29.07h-.49Zm.215-.163h.257c.062 0 .108-.01.14-.03a.102.102 0 0 0 .046-.091c0-.043-.014-.075-.043-.096a.24.24 0 0 0-.135-.03h-.265v.246Zm0-.397h.236c.058 0 .1-.01.13-.03a.105.105 0 0 0 .045-.09c0-.04-.015-.07-.045-.09a.236.236 0 0 0-.13-.028h-.236v.238Zm1.873.56v-.962h.225v.963h-.225Zm-.503-.645c.124 0 .217.028.281.083a.291.291 0 0 1 .097.235.299.299 0 0 1-.108.245.462.462 0 0 1-.303.084l-.436-.002v-.962h.226v.315l.243.002Zm-.052.482c.066 0 .116-.013.151-.042.035-.029.052-.07.052-.126 0-.055-.017-.095-.052-.12a.258.258 0 0 0-.151-.039l-.191-.002v.327l.19.002Zm-8.159-10.065h-3.025l.01 5.252h-1.464v-6.473h4.488l-.009 1.22Zm4.409 1.955c.23-.194.344-.47.344-.827 0-.364-.115-.643-.345-.837-.23-.194-.567-.291-1.009-.291h-1.199v2.246h1.2c.442 0 .778-.097 1.008-.291Zm.54-2.89c.414.192.734.463.958.814.224.352.336.768.336 1.249 0 .474-.112.889-.336 1.244a2.156 2.156 0 0 1-.958.813c-.415.188-.905.282-1.468.282h-1.281v1.785h-1.472v-6.473h2.753c.563 0 1.053.096 1.468.287Zm7.879 6.187-.01-3.875-1.87 3.19h-.655l-1.872-3.116v3.8h-1.38v-6.472h1.217l2.38 4.022 2.344-4.022h1.218l.009 6.473h-1.381Z" fill="#316067"/><path d="M38.257 8.557c3.35 3.41 5.335 7.69 5.957 12.13l2.235-.18c-.665-4.964-2.867-9.754-6.609-13.562a23.353 23.353 0 0 0-4.948-3.843l-.998 2.046a21.1 21.1 0 0 1 4.363 3.41Z" fill="#283B3C"/><path d="M8.416 8.562c.61-.622 1.25-1.196 1.914-1.725L9.061 4.95a23.68 23.68 0 0 0-4.823 5.138l1.908 1.203a21.448 21.448 0 0 1 2.27-2.73Z" fill="#1CAB98"/><path d="m42.45 32.833 1.967 1.097a24.171 24.171 0 0 0 2.241-10.703l-2.236.18a21.858 21.858 0 0 1-1.973 9.426ZM31.48 3.935l.996-2.046A23.082 23.082 0 0 0 11.27 3.402l1.267 1.883a20.87 20.87 0 0 1 18.942-1.35Z" fill="#316067"/><path d="m4.722 13.61-1.907-1.204c-4.036 7.575-3.732 16.926.911 24.233l1.812-1.349c-4.108-6.551-4.38-14.892-.816-21.68Zm33.527 25.318a20.854 20.854 0 0 1-16.547 6.216l-.315 2.26a23.064 23.064 0 0 0 18.446-6.864 23.657 23.657 0 0 0 3.29-4.204l-1.97-1.098a21.397 21.397 0 0 1-2.904 3.69Z" fill="#283B3C"/><path d="M8.418 38.934c-.453-.462-.88-.94-1.282-1.43l-1.812 1.349a23.97 23.97 0 0 0 1.51 1.692 23.084 23.084 0 0 0 11.904 6.484l.315-2.26a20.87 20.87 0 0 1-10.635-5.835Z" fill="#1CAB98"/><path d="M14.206 39.458a18.13 18.13 0 0 1-1.184-.784l-1.428 1.769c.473.344.963.671 1.472.977a19.775 19.775 0 0 0 11.148 2.83l-.248-2.274a17.573 17.573 0 0 1-9.76-2.518Z" fill="#283B3C"/><path d="M7.9 14.451c.34-.583.706-1.136 1.096-1.665l-1.69-1.507a20.593 20.593 0 0 0-2.775 5.032l2.143.683c.34-.865.747-1.716 1.227-2.543Z" fill="#1CAB98"/><path d="m5.857 19.619-2.144-.683c-1.682 7.11.505 14.714 5.792 19.771l1.428-1.77c-4.584-4.459-6.495-11.09-5.076-17.318Z" fill="#316067"/><path d="m25.715 5.664.465-2.235c-6.219-.897-12.609 1.214-17.117 5.8l1.692 1.507c3.965-3.966 9.527-5.809 14.96-5.072Z" fill="#2B2826"/><path d="M32.458 8.037c3.402 2.047 5.894 5.069 7.34 8.51l2.127-.742c-1.618-3.937-4.448-7.396-8.327-9.73A19.94 19.94 0 0 0 28.82 3.99l-.466 2.236a17.74 17.74 0 0 1 4.103 1.81Zm8.526 18.873 2.18.566a20.94 20.94 0 0 0-.373-9.085l-2.123.742a18.6 18.6 0 0 1 .317 7.777Z" fill="#273738"/><path d="M38.763 33.032a17.895 17.895 0 0 1-12.126 8.634l.248 2.275c5.576-1.021 10.703-4.408 13.805-9.749a20.758 20.758 0 0 0 1.808-4.06l-2.177-.566a18.416 18.416 0 0 1-1.558 3.466Zm-20.867 4.666c-.433-.175-.852-.37-1.259-.58l-1.2 1.936a16.917 16.917 0 0 0 4.086 1.541l.33-2.267a14.692 14.692 0 0 1-1.957-.63Z" fill="#2B2826"/><path d="M37.045 29.274c-.114.293-.24.58-.37.862l1.937 1.158c.183-.385.358-.776.516-1.18a17.472 17.472 0 0 0 .887-9.602l-2.165.603c.468 2.656.242 5.47-.805 8.159Zm-14.528 9.451-.33 2.265c5.892.403 11.656-2.371 15.072-7.342l-1.936-1.158c-2.943 4.173-7.811 6.514-12.806 6.235Z" fill="#316067"/><path d="M28.764 9.786c4.025 1.623 6.96 4.86 8.373 8.694l2.164-.603c-1.599-4.5-5.007-8.312-9.712-10.21a16.696 16.696 0 0 0-3.35-.962l-.208 2.28a14.61 14.61 0 0 1 2.733.801Z" fill="#1CAB98"/><path d="m8.591 24.329-2.247-.12c.145 5.235 2.637 10.21 6.818 13.39l1.2-1.937c-3.497-2.727-5.595-6.914-5.77-11.333Z" fill="#2B2826"/><path d="m23.359 8.735.209-2.279a16.783 16.783 0 0 0-6.974 1.422l1.053 2.024a14.573 14.573 0 0 1 5.712-1.167Z" fill="#316067"/><path d="M9.62 18.223a14.87 14.87 0 0 1 5.655-7.032L14.223 9.17a17.13 17.13 0 0 0-6.686 8.213 17.553 17.553 0 0 0-1.049 4.106l2.248.12c.161-1.137.45-2.273.884-3.386Z" fill="#273738"/><path d="m34.885 22.937 2.248.111c-.231-4.702-2.786-9.043-6.812-11.444l-.946 2.084c3.202 1.995 5.254 5.47 5.51 9.25Z" fill="#283B3C"/><path d="m11.843 25.18-2.25.012c.188 1.815.72 3.561 1.548 5.147l1.875-1.266a11.964 11.964 0 0 1-1.173-3.893Z" fill="#316067"/><path d="M20.138 35.073a11.493 11.493 0 0 1-5.65-3.721l-1.875 1.265a13.724 13.724 0 0 0 6.909 4.647c1.031.3 2.069.469 3.097.522l-.105-2.287a11.407 11.407 0 0 1-2.376-.426Z" fill="#273738"/><path d="m25.2 35.37.104 2.289c3.97-.591 7.552-2.93 9.718-6.432l-2.012-1.024a11.622 11.622 0 0 1-7.81 5.168Z" fill="#1CAB98"/><path d="M34.466 26.981c-.074.262-.158.516-.247.768l2.015 1.025c.142-.38.274-.767.385-1.165.172-.609.296-1.219.384-1.828l-2.248-.111a12.02 12.02 0 0 1-.289 1.311Z" fill="#2B2826"/><path d="M12.2 20.496a11.705 11.705 0 0 1 5.767-7.19l-.806-2.142a13.971 13.971 0 0 0-7.114 8.705 14.333 14.333 0 0 0-.473 2.58l2.253-.013c.07-.646.192-1.294.374-1.94Z" fill="#316067"/><path d="M26.516 12.418c.14.04.278.086.415.132l.945-2.083a13.503 13.503 0 0 0-8.208-.277l.806 2.142a11.31 11.31 0 0 1 6.042.085Z" fill="#2B2826"/></svg><svg fill="none" viewBox="0 0 137 35" id="sprite--grm-logo" xmlns="http://www.w3.org/2000/svg"><path d="M54.57 11.52h-8.173l.03 14.09h-3.949V8.275h12.123l-.03 3.245Zm13.35-2.503c1.132.525 1.99 1.236 2.602 2.194.612.927.918 2.07.918 3.337 0 1.267-.306 2.38-.918 3.337-.613.958-1.47 1.669-2.603 2.194-1.133.494-2.45.741-3.98.741h-3.46v4.79H56.5V8.275h7.44c1.53-.03 2.878.217 3.98.742Zm-1.44 7.725c.613-.526.919-1.267.919-2.225 0-.989-.306-1.73-.919-2.256-.612-.525-1.53-.772-2.725-.772H60.51v6.025h3.245c1.194.031 2.082-.247 2.725-.772Zm22.717 8.837-.03-10.382-5.052 8.559h-1.776l-5.052-8.343V25.61h-3.735V8.275h3.307l6.429 10.784 6.338-10.784H92.9l.03 17.335h-3.734v-.031Z" fill="#005D62"/><path d="M28.426 6.298a15.796 15.796 0 0 1 4.44 8.93l1.653-.124A17.687 17.687 0 0 0 29.62 5.093a17.8 17.8 0 0 0-3.674-2.843l-.734 1.514a16.607 16.607 0 0 1 3.214 2.534Z" fill="#223334"/><path d="M6.26 6.298c.46-.464.92-.896 1.41-1.267l-.95-1.39c-.582.463-1.133.926-1.653 1.483-.735.741-1.347 1.514-1.929 2.317l1.408.896c.521-.741 1.072-1.421 1.715-2.04Z" fill="#00A48A"/><path d="m31.549 24.189 1.47.803a17.615 17.615 0 0 0 1.653-7.88l-1.654.124a16.111 16.111 0 0 1-1.47 6.953Zm-8.144-21.29.735-1.514A17.362 17.362 0 0 0 8.373 2.497l.95 1.39A15.648 15.648 0 0 1 23.404 2.9Z" fill="#005D62"/><path d="M3.505 10.037 2.097 9.14c-3 5.592-2.786 12.483.674 17.86l1.347-.99C1.056 21.16.872 15.041 3.505 10.036ZM28.426 28.7c-3.368 3.399-7.899 4.913-12.307 4.573l-.245 1.669c4.898.401 9.95-1.267 13.715-5.068a17.754 17.754 0 0 0 2.45-3.09l-1.47-.803a14.64 14.64 0 0 1-2.143 2.719Z" fill="#223334"/><path d="M6.261 28.7a15.78 15.78 0 0 1-.95-1.05l-1.346.988c.337.433.735.834 1.133 1.236 2.51 2.534 5.602 4.14 8.847 4.79l.245-1.67c-2.939-.617-5.694-2.038-7.929-4.294Z" fill="#00A48A"/><path d="M10.547 29.07c-.306-.185-.582-.37-.888-.586L8.588 29.78a9.57 9.57 0 0 0 1.102.711 14.928 14.928 0 0 0 8.296 2.101l-.183-1.668c-2.45.092-4.96-.495-7.256-1.854Z" fill="#223334"/><path d="M5.863 10.655c.245-.433.52-.835.827-1.236L5.434 8.306c-.367.464-.673.958-.98 1.483-.428.711-.765 1.484-1.07 2.225l1.591.495c.245-.618.551-1.267.888-1.854Z" fill="#00A48A"/><path d="m4.363 14.455-1.592-.494c-1.256 5.253.367 10.846 4.316 14.584l1.072-1.297a13.67 13.67 0 0 1-3.796-12.793Z" fill="#005D62"/><path d="m19.119 4.166.337-1.638A15.079 15.079 0 0 0 6.72 6.792l1.255 1.113c2.97-2.936 7.103-4.295 11.144-3.74Z" fill="#1C3B40"/><path d="M24.14 5.927a13.273 13.273 0 0 1 5.45 6.273l1.591-.557a15.012 15.012 0 0 0-6.184-7.168c-1.133-.68-2.327-1.174-3.551-1.545l-.337 1.637a13.86 13.86 0 0 1 3.03 1.36Zm6.337 13.905 1.623.401a15.462 15.462 0 0 0-.276-6.705l-1.592.556c.49 1.854.582 3.832.245 5.748Z" fill="#213030"/><path d="M28.824 24.343a13.227 13.227 0 0 1-9 6.365l.183 1.669a14.887 14.887 0 0 0 10.256-7.2 16.356 16.356 0 0 0 1.347-2.997l-1.623-.402c-.306.866-.704 1.73-1.163 2.565Zm-15.522 3.43a8.838 8.838 0 0 1-.949-.433l-.888 1.422c.398.216.796.401 1.225.556a14.06 14.06 0 0 0 1.837.587l.245-1.669c-.49-.123-.98-.278-1.47-.463Z" fill="#1C3B40"/><path d="m27.538 21.562-.275.649 1.439.865c.122-.278.275-.587.398-.865a12.858 12.858 0 0 0 .673-7.076l-1.622.433a11.271 11.271 0 0 1-.613 5.994Zm-10.807 6.983-.245 1.669c4.378.309 8.664-1.761 11.205-5.407l-1.439-.866c-2.173 3.09-5.817 4.79-9.52 4.604Z" fill="#005D62"/><path d="M21.384 7.194A10.97 10.97 0 0 1 27.6 13.59l1.623-.433a12.825 12.825 0 0 0-7.225-7.539 12.476 12.476 0 0 0-2.48-.71l-.153 1.668c.673.154 1.347.37 2.02.618Z" fill="#00A48A"/><path d="M6.383 17.916 4.7 17.823c.122 3.863 1.959 7.54 5.082 9.857l.887-1.421c-2.602-1.978-4.163-5.068-4.286-8.343Z" fill="#1C3B40"/><path d="m17.374 6.421.153-1.668a12.326 12.326 0 0 0-5.174 1.05l.796 1.484a10.878 10.878 0 0 1 4.225-.866Z" fill="#005D62"/><path d="M7.149 13.405a10.988 10.988 0 0 1 4.194-5.191l-.796-1.484a12.586 12.586 0 0 0-4.96 6.057 11.889 11.889 0 0 0-.765 3.028l1.684.093a9.425 9.425 0 0 1 .643-2.503Z" fill="#213030"/><path d="m25.916 16.896 1.683.093c-.183-3.46-2.081-6.674-5.051-8.436l-.704 1.545c2.357 1.453 3.888 4.017 4.072 6.798Z" fill="#223334"/><path d="M8.802 18.534H7.118c.153 1.329.52 2.626 1.163 3.8l1.409-.927a8.486 8.486 0 0 1-.888-2.873Z" fill="#005D62"/><path d="M14.986 25.857c-1.714-.494-3.123-1.483-4.194-2.75l-1.378.927a10.18 10.18 0 0 0 5.143 3.43 9.89 9.89 0 0 0 2.297.37l-.092-1.699a8.513 8.513 0 0 1-1.776-.278Z" fill="#213030"/><path d="m18.752 26.073.091 1.7c2.94-.433 5.603-2.163 7.226-4.728l-1.5-.741c-1.348 1.977-3.49 3.368-5.817 3.77Z" fill="#00A48A"/><path d="m25.61 19.894-.184.556 1.5.741c.092-.278.214-.556.275-.865.123-.463.215-.896.276-1.36l-1.684-.092c0 .37-.092.68-.184 1.02Z" fill="#1C3B40"/><path d="M9.078 15.104a8.687 8.687 0 0 1 4.286-5.315l-.613-1.575a10.408 10.408 0 0 0-5.296 6.427 8.109 8.109 0 0 0-.337 1.915h1.684a5.8 5.8 0 0 1 .276-1.452Z" fill="#005D62"/><path d="M19.7 9.14c.093.031.215.062.307.093l.704-1.545-.55-.185a9.943 9.943 0 0 0-5.542-.031l.612 1.576a8.789 8.789 0 0 1 4.47.093Z" fill="#1C3B40"/><path d="M99.566 7.846V25.86" stroke="#005D62" stroke-width=".45" stroke-miterlimit="10"/><path d="M105.949 11.938V8.155h2.566l-.005.594h-2.037l.162-.167.005 3.354h-.691Zm2.657 0V9.053h.675v1.901l1.594-1.901h.616v2.884h-.675v-1.901l-1.589 1.902h-.621Zm3.372-.006.032-.567.071.01a.344.344 0 0 0 .059.006.329.329 0 0 0 .259-.103.62.62 0 0 0 .135-.275c.033-.119.054-.25.065-.395.015-.147.025-.295.033-.443l.048-1.112h2.334v2.884h-.675V9.442l.156.183h-1.372l.146-.189-.038.762a6.785 6.785 0 0 1-.065.713 2.331 2.331 0 0 1-.14.567.868.868 0 0 1-.259.379.629.629 0 0 1-.416.135c-.054 0-.114-.006-.179-.017a2.39 2.39 0 0 1-.194-.043Zm5.393-1.929c.371 0 .654.083.849.249.194.166.291.4.291.702 0 .314-.108.558-.324.735-.216.173-.52.258-.913.254l-1.35-.005V9.053h.675v.945l.772.005Zm-.156 1.443c.198.004.349-.038.454-.124.104-.087.156-.213.156-.378 0-.166-.052-.285-.156-.357-.101-.076-.253-.115-.454-.119l-.616-.005v.978l.616.005Zm3.799.178V9.625h-1.108l-.016.465a8.884 8.884 0 0 1-.033.48 2.731 2.731 0 0 1-.07.422.895.895 0 0 1-.14.313.425.425 0 0 1-.243.162l-.67-.102a.34.34 0 0 0 .259-.103.71.71 0 0 0 .157-.292c.039-.126.068-.268.086-.426a7.19 7.19 0 0 0 .038-.503l.038-.988h2.377v2.571h-.675Zm-2.383.956v-1.215h3.485v1.215h-.632v-.643h-2.226v.643h-.627Zm4.088-.643V9.053h.675v1.901l1.594-1.901h.616v2.884h-.676v-1.901l-1.588 1.902h-.621Zm5.624 0v-.983l.098.114h-.865c-.396 0-.707-.083-.934-.249-.224-.17-.335-.412-.335-.73 0-.338.119-.595.356-.772.242-.176.562-.264.962-.264h1.324v2.884h-.606Zm-2.074 0 .778-1.102h.691l-.745 1.102h-.724Zm2.074-1.199V9.442l.098.178h-.794c-.209 0-.371.04-.487.119-.111.075-.167.2-.167.372 0 .325.211.487.632.487h.816l-.098.14Zm-20.876 8.237c-.234 0-.448-.054-.643-.162a1.174 1.174 0 0 1-.459-.486c-.112-.22-.168-.497-.168-.832 0-.338.054-.616.162-.832a1.11 1.11 0 0 1 .454-.48c.191-.109.409-.163.654-.163.285 0 .535.061.751.184.22.122.392.293.519.513.129.22.194.48.194.778 0 .299-.065.56-.194.783-.127.22-.299.391-.519.514a1.495 1.495 0 0 1-.751.183Zm-1.599 1.01v-3.932h.643v.68l-.022.767.054.768v1.718h-.675Zm1.523-1.588a.862.862 0 0 0 .433-.108.78.78 0 0 0 .307-.313.975.975 0 0 0 .114-.48.956.956 0 0 0-.114-.482.78.78 0 0 0-.307-.313.862.862 0 0 0-.433-.108.882.882 0 0 0-.437.108.776.776 0 0 0-.308.313.956.956 0 0 0-.114.481c0 .184.038.344.114.48a.776.776 0 0 0 .308.314.882.882 0 0 0 .437.108Zm2.212.54v-2.884h.675v1.901l1.594-1.901h.616v2.884h-.675v-1.901l-1.589 1.901h-.621Zm4.259-1.215v-.486h1.567v.486h-1.567Zm.394-1.713c.31 0 .584.065.821.195a1.42 1.42 0 0 1 .768 1.291c0 .288-.069.546-.206.773-.137.223-.324.4-.562.529-.237.126-.511.19-.821.19-.259 0-.497-.044-.713-.13a1.41 1.41 0 0 1-.54-.373l.389-.379c.115.112.241.197.378.254a1.2 1.2 0 0 0 .459.087c.195 0 .366-.04.514-.119a.946.946 0 0 0 .351-.34.94.94 0 0 0 .129-.492.905.905 0 0 0-.48-.827 1.034 1.034 0 0 0-.514-.124 1.2 1.2 0 0 0-.459.087 1.177 1.177 0 0 0-.378.259l-.389-.378a1.41 1.41 0 0 1 .54-.373c.216-.086.454-.13.713-.13Zm1.79 2.923.032-.567.07.01a.364.364 0 0 0 .06.006.33.33 0 0 0 .259-.103.642.642 0 0 0 .135-.275c.032-.119.054-.25.065-.395a9.42 9.42 0 0 0 .032-.442l.049-1.113h2.334v2.884h-.676v-2.495l.157.183h-1.372l.146-.189-.038.762a7.064 7.064 0 0 1-.065.713 2.427 2.427 0 0 1-.14.567.87.87 0 0 1-.26.378.627.627 0 0 1-.416.135 1.09 1.09 0 0 1-.178-.016 2.39 2.39 0 0 1-.194-.043Zm4.545.006v-2.475l.156.162h-1.172v-.572h2.701v.572h-1.167l.157-.162v2.474h-.675Zm3.334.037c-.295 0-.558-.063-.788-.189a1.448 1.448 0 0 1-.546-.53 1.46 1.46 0 0 1-.2-.76c0-.29.067-.543.2-.763a1.41 1.41 0 0 1 .546-.524c.23-.126.493-.189.788-.189.299 0 .564.063.795.19.234.125.416.298.545.518.133.22.2.475.2.767 0 .285-.067.538-.2.762-.129.223-.311.4-.545.53a1.644 1.644 0 0 1-.795.188Zm0-.578a.894.894 0 0 0 .443-.108.746.746 0 0 0 .303-.313.975.975 0 0 0 .113-.48.956.956 0 0 0-.113-.482.746.746 0 0 0-.303-.313.882.882 0 0 0-.437-.108.894.894 0 0 0-.443.108.797.797 0 0 0-.303.313.966.966 0 0 0-.113.481c0 .184.038.344.113.48a.797.797 0 0 0 .74.422Zm3.806.578c-.234 0-.448-.054-.643-.162a1.18 1.18 0 0 1-.459-.486c-.111-.22-.167-.497-.167-.832 0-.338.054-.616.162-.832.111-.216.263-.376.454-.48a1.29 1.29 0 0 1 .653-.163c.285 0 .535.061.751.184.22.122.393.293.519.513.13.22.194.48.194.778 0 .299-.064.56-.194.783-.126.22-.299.391-.519.514a1.495 1.495 0 0 1-.751.183Zm-1.599 1.01v-3.932h.643v.68l-.022.767.054.768v1.718h-.675Zm1.524-1.588a.855.855 0 0 0 .432-.108.782.782 0 0 0 .308-.313.985.985 0 0 0 .113-.48.966.966 0 0 0-.113-.482.782.782 0 0 0-.308-.313.855.855 0 0 0-.432-.108.889.889 0 0 0-.438.108.782.782 0 0 0-.308.313.956.956 0 0 0-.113.481c0 .184.037.344.113.48a.782.782 0 0 0 .308.314c.13.072.276.108.438.108Zm3.497.578a1.62 1.62 0 0 1-.789-.189 1.453 1.453 0 0 1-.545-.53 1.46 1.46 0 0 1-.2-.76c0-.29.067-.543.2-.763.133-.223.315-.398.545-.524a1.62 1.62 0 0 1 .789-.189c.299 0 .564.063.794.19.234.125.416.298.546.518.133.22.2.475.2.767 0 .285-.067.538-.2.762-.13.223-.312.4-.546.53-.23.125-.495.188-.794.188Zm0-.578a.894.894 0 0 0 .443-.108.746.746 0 0 0 .303-.313.985.985 0 0 0 .113-.48.966.966 0 0 0-.113-.482.746.746 0 0 0-.303-.313.882.882 0 0 0-.437-.108.894.894 0 0 0-.443.108.797.797 0 0 0-.303.313.956.956 0 0 0-.113.481c0 .184.037.344.113.48a.797.797 0 0 0 .74.422Zm2.207.54v-2.884h1.41c.349 0 .623.064.821.194.202.13.303.313.303.551a.64.64 0 0 1-.281.551c-.187.13-.436.195-.746.195l.081-.168c.35 0 .609.065.778.195.173.126.26.311.26.556a.71.71 0 0 1-.287.6c-.191.14-.481.21-.87.21h-1.469Zm.643-.491h.772c.184 0 .323-.029.416-.087a.307.307 0 0 0 .141-.275c0-.13-.043-.225-.13-.286-.086-.062-.221-.092-.405-.092h-.794v.74Zm0-1.189h.708c.172 0 .302-.03.389-.091a.314.314 0 0 0 .135-.27c0-.12-.045-.208-.135-.265-.087-.058-.217-.087-.389-.087h-.708v.713Zm-28.054 8.68v-3.781h.573l1.658 2.76h-.308l1.632-2.76h.572l.011 3.782h-.67l-.005-2.74h.14l-1.383 2.307h-.313l-1.405-2.306h.162v2.738h-.664Zm6.407.038c-.296 0-.559-.063-.789-.189a1.448 1.448 0 0 1-.546-.53 1.46 1.46 0 0 1-.2-.76c0-.29.067-.543.2-.763a1.41 1.41 0 0 1 .546-.524c.23-.126.493-.189.789-.189.299 0 .563.063.794.19.234.125.416.298.545.518.134.22.2.475.2.767a1.45 1.45 0 0 1-.745 1.291 1.63 1.63 0 0 1-.794.19Zm0-.578a.9.9 0 0 0 .443-.108.75.75 0 0 0 .302-.313.975.975 0 0 0 .114-.48.956.956 0 0 0-.114-.482.75.75 0 0 0-.302-.313.889.889 0 0 0-.438-.108.897.897 0 0 0-.443.108.797.797 0 0 0-.303.313.966.966 0 0 0-.113.481c0 .184.038.344.113.48a.797.797 0 0 0 .303.314c.13.072.275.108.438.108Zm3.519.578c-.302 0-.572-.063-.81-.189a1.44 1.44 0 0 1-.551-.53 1.45 1.45 0 0 1-.2-.76c0-.29.066-.543.2-.763.133-.223.317-.398.551-.524.238-.126.508-.189.81-.189.281 0 .528.058.74.173.216.112.38.277.492.497l-.519.303a.82.82 0 0 0-.718-.4.931.931 0 0 0-.449.108.775.775 0 0 0-.313.313.956.956 0 0 0-.113.481c0 .187.037.35.113.486.076.133.18.236.313.308a.932.932 0 0 0 .849.011.82.82 0 0 0 .318-.303l.519.303a1.184 1.184 0 0 1-.492.502 1.526 1.526 0 0 1-.74.173Zm3.896-.038-1.043-1.383.551-.34 1.286 1.724h-.794Zm-2.07 0v-2.884h.676v2.884h-.676Zm.476-1.156v-.561h.978v.561h-.978Zm1.167-.205-.632-.076 1.059-1.447h.724l-1.151 1.523Zm1.697 1.361v-2.884h1.41c.349 0 .623.064.821.194.202.13.303.313.303.551a.64.64 0 0 1-.281.551c-.187.13-.436.195-.746.195l.081-.168c.35 0 .609.065.778.195.173.126.26.311.26.556a.71.71 0 0 1-.287.6c-.191.14-.481.21-.87.21h-1.469Zm.643-.491h.772c.184 0 .323-.029.416-.087a.307.307 0 0 0 .141-.275c0-.13-.043-.225-.13-.286-.086-.062-.221-.092-.405-.092h-.794v.74Zm0-1.189h.708c.173 0 .302-.03.389-.091a.314.314 0 0 0 .135-.27c0-.12-.045-.208-.135-.265-.087-.058-.216-.087-.389-.087h-.708v.713Zm5.614 1.68v-2.884h.675v2.884h-.675Zm-1.507-1.934c.37 0 .651.083.842.249.195.166.292.4.292.702 0 .314-.108.558-.324.735-.213.173-.515.258-.908.254l-1.307-.006v-2.884h.675v.945l.73.005Zm-.157 1.443c.198.003.349-.038.454-.124.104-.087.156-.213.156-.378 0-.166-.052-.285-.156-.357-.101-.076-.252-.115-.454-.119l-.573-.005v.977l.573.006Z" fill="#005D62"/></svg><svg fill="none" viewBox="0 0 21 32" id="sprite--play" xmlns="http://www.w3.org/2000/svg"><path d="M2 28.847v-25.4l16.042 12.7L2 28.847Z" stroke="#fff" stroke-width="2.674"/></svg><svg fill="none" viewBox="0 0 23 23" id="sprite--tg" xmlns="http://www.w3.org/2000/svg"><path d="m.403 11.04 5.288 2.26 2.061 7.603c.09.514.628.617.986.308l2.958-2.774c.269-.308.717-.308 1.075 0l5.288 4.418c.359.308.896.103.986-.41L22.988.867c.09-.513-.358-1.027-.806-.822L.403 9.704c-.537.206-.537 1.13 0 1.336Zm7.08 1.13L17.88 4.875c.18-.102.358.206.18.309l-8.515 9.144c-.269.308-.538.719-.538 1.232l-.269 2.466c0 .308-.448.411-.537 0l-1.076-4.52c-.269-.514-.09-1.13.359-1.336Z" fill="#213030"/></svg><svg fill="none" viewBox="0 0 21 21" id="sprite--user" xmlns="http://www.w3.org/2000/svg"><path d="M5.755 13.546c-1.238.738-4.483 2.243-2.506 4.126.965.92 2.04 1.578 3.393 1.578h7.716c1.352 0 2.428-.658 3.393-1.578 1.977-1.883-1.268-3.389-2.506-4.126a9.33 9.33 0 0 0-9.49 0Z" stroke="#F5F5F5" stroke-width="2.387" stroke-linecap="round" stroke-linejoin="round"/><path d="M14.438 5.688a3.938 3.938 0 1 1-7.876 0 3.938 3.938 0 0 1 7.875 0Z" stroke="#F5F5F5" stroke-width="2.387"/></svg><svg fill="none" viewBox="0 0 31 21" id="sprite--vk" xmlns="http://www.w3.org/2000/svg"><path d="M30.712 18.843c0-.144-.123-.144-.123-.288-.494-1.15-1.604-2.59-3.084-4.171-.74-.72-1.11-1.295-1.357-1.583-.37-.575-.37-1.007-.246-1.582.123-.431.616-1.15 1.48-2.445.493-.72.74-1.15 1.11-1.582 1.85-2.877 2.713-4.747 2.467-5.61l-.124-.144c-.123-.143-.246-.287-.493-.287-.247-.144-.617-.144-.987 0h-5.55l-.123.144c-.124.143-.124.143-.124.287-.493 1.582-1.11 2.877-1.727 4.315-.37.72-.74 1.439-1.11 2.014-.37.575-.616 1.007-.863 1.294-.247.288-.493.432-.617.72-.123.143-.37.287-.37.143-.123 0-.246 0-.246-.143l-.37-.432c-.124-.144-.124-.431-.247-.719V1.582c0-.144-.123-.431-.123-.575l-.37-.432c-.124-.144-.37-.143-.494-.287C16.404.144 15.664 0 14.801 0c-1.973 0-3.33.144-3.824.432-.246.143-.493.287-.616.575-.247.288-.247.431-.124.431.617.144 1.11.432 1.357.863l.123.288c.124.144.124.432.247.863.123.432.123.863.123 1.438v2.302c0 .719-.123 1.15-.123 1.582 0 .431-.123.72-.247.863-.123.288-.123.431-.246.431 0 0 0 .144-.124.144-.123 0-.246.144-.493.144-.123 0-.37-.144-.493-.287a1.632 1.632 0 0 1-.617-.72c-.247-.287-.493-.719-.74-1.294-.247-.576-.617-1.15-.863-2.014l-.247-.575c-.123-.288-.37-.863-.617-1.582-.247-.72-.493-1.295-.74-2.014a1.985 1.985 0 0 0-.37-.575h-.123s-.124-.144-.247-.144-.247-.144-.37-.144H.987c-.494 0-.74.144-.864.288L0 1.438v.288c0 .144 0 .288.123.575C.74 4.027 1.48 5.753 2.22 7.48c.74 1.583 1.48 3.021 1.974 4.028.616 1.007 1.11 2.014 1.726 2.877.617.863.987 1.438 1.11 1.726l.494.575.37.431c.247.288.617.72 1.11 1.151.493.432 1.11.863 1.727 1.295.616.431 1.357.719 2.097 1.006.863.288 1.603.432 2.343.288h1.85c.37 0 .617-.144.863-.431l.124-.144c0-.144.123-.144.123-.288v-.575c0-.575 0-1.007.124-1.438.123-.432.123-.72.246-1.007.124-.288.247-.432.37-.576l.247-.287h.123c.247-.144.617 0 .864.287.37.288.74.72.986 1.151.247.432.617.863 1.11 1.438.494.576.864 1.007 1.11 1.151l.37.288c.247.143.494.287.864.431.37.144.617.144.863.144l4.194-.144c.37 0 .74-.144.987-.288.246-.143.37-.287.37-.575v-.575c-.247-.288-.247-.432-.247-.575Z" fill="#213030"/></svg><svg fill="none" viewBox="0 0 23 23" id="sprite--wa" xmlns="http://www.w3.org/2000/svg"><path d="M19.634 3.354A11.421 11.421 0 0 0 11.54 0C5.21 0 .08 5.111.08 11.42c0 1.997.561 3.993 1.523 5.67L0 23l6.09-1.597a11.718 11.718 0 0 0 5.45 1.357c6.331 0 11.46-5.11 11.46-11.42-.08-2.955-1.202-5.83-3.366-7.986Zm-2.564 12.14c-.24.638-1.363 1.277-1.924 1.357-.48.08-1.122.08-1.763-.08-.4-.16-.961-.32-1.602-.64-2.886-1.197-4.729-4.072-4.889-4.312-.16-.16-1.202-1.517-1.202-2.954 0-1.438.721-2.077.962-2.396.24-.32.56-.32.801-.32h.56c.161 0 .402-.08.642.48.24.559.801 1.996.882 2.076.08.16.08.32 0 .479-.08.16-.16.32-.321.48-.16.159-.32.399-.4.478-.161.16-.321.32-.161.56.16.319.721 1.197 1.603 1.996 1.122.958 2.003 1.278 2.324 1.437.32.16.48.08.641-.08.16-.16.721-.798.881-1.117.16-.32.401-.24.642-.16.24.08 1.683.798 1.923.958.32.16.48.24.561.32.08.24.08.798-.16 1.437Z" fill="#213030"/></svg><svg fill="none" viewBox="0 0 31 21" id="sprite--yt" xmlns="http://www.w3.org/2000/svg"><path d="M31 8.06c0-.636-.113-1.378-.113-2.227-.113-.848-.226-1.697-.34-2.44-.226-.848-.565-1.484-1.244-2.014-.566-.53-1.358-.849-2.15-.955C24.551.106 20.704 0 15.5 0 10.296 0 6.336.106 3.847.424c-.792.106-1.584.424-2.15.955C1.131 1.909.68 2.545.453 3.394c-.227.742-.34 1.485-.34 2.44C0 6.681 0 7.423 0 8.06v4.879c0 .636.113 1.378.113 2.227.113.848.226 1.697.34 2.439.226.848.565 1.485 1.244 2.015.566.53 1.358.849 2.15.955 2.602.318 6.449.424 11.653.424 5.204 0 9.164-.106 11.653-.424.792-.106 1.584-.425 2.15-.955.566-.53 1.018-1.166 1.244-2.015.227-.742.34-1.485.34-2.44.113-.848.113-1.59.113-2.227V8.06Zm-9.504 3.288-8.938 5.197a.895.895 0 0 1-.565.213c-.227 0-.34 0-.566-.107-.34-.212-.566-.53-.566-.954v-10.5c0-.424.227-.742.566-.955.34-.212.792-.212 1.131 0l8.938 5.197c.34.213.566.53.566.849 0 .318-.226.848-.566 1.06Z" fill="#213030"/></svg></svg>