<svg width="144" height="25" viewBox="0 0 144 25" fill="none" xmlns="http://www.w3.org/2000/svg">
<path d="M11.2148 3.10547C11.7978 2.13674 13.2022 2.13674 13.7852 3.10547L15.749 6.36914C16.0544 6.8765 16.5286 7.25687 17.084 7.44629L17.3271 7.51562L21.0381 8.375C22.1393 8.63033 22.5731 9.96563 21.832 10.8193L19.335 13.6953C18.8912 14.2065 18.6739 14.8764 18.7324 15.5508L19.0615 19.3447C19.1593 20.4711 18.0235 21.2965 16.9824 20.8555L13.4756 19.3701C12.8523 19.106 12.1477 19.106 11.5244 19.3701L8.01758 20.8555C6.97652 21.2965 5.84072 20.4711 5.93848 19.3447L6.26758 15.5508C6.31879 14.9607 6.1584 14.3743 5.82031 13.8945L5.66504 13.6953L3.16797 10.8193C2.42689 9.96563 2.86073 8.63033 3.96191 8.375L7.67285 7.51562C8.33227 7.3629 8.9019 6.94905 9.25098 6.36914L11.2148 3.10547Z" stroke="#00A48A"/>
<path d="M71.2148 3.10547C71.7978 2.13674 73.2022 2.13674 73.7852 3.10547L75.749 6.36914C76.0544 6.8765 76.5286 7.25687 77.084 7.44629L77.3271 7.51562L81.0381 8.375C82.1393 8.63033 82.5731 9.96563 81.832 10.8193L79.335 13.6953C78.8912 14.2065 78.6739 14.8764 78.7324 15.5508L79.0615 19.3447C79.1593 20.4711 78.0235 21.2965 76.9824 20.8555L73.4756 19.3701C72.8523 19.106 72.1477 19.106 71.5244 19.3701L68.0176 20.8555C66.9765 21.2965 65.8407 20.4711 65.9385 19.3447L66.2676 15.5508C66.3188 14.9607 66.1584 14.3743 65.8203 13.8945L65.665 13.6953L63.168 10.8193C62.4269 9.96563 62.8607 8.63033 63.9619 8.375L67.6729 7.51562C68.3323 7.3629 68.9019 6.94905 69.251 6.36914L71.2148 3.10547Z" stroke="#00A48A"/>
<path d="M41.2148 3.10547C41.7978 2.13674 43.2022 2.13674 43.7852 3.10547L45.749 6.36914C46.0544 6.8765 46.5286 7.25687 47.084 7.44629L47.3271 7.51562L51.0381 8.375C52.1393 8.63033 52.5731 9.96563 51.832 10.8193L49.335 13.6953C48.8912 14.2065 48.6739 14.8764 48.7324 15.5508L49.0615 19.3447C49.1593 20.4711 48.0235 21.2965 46.9824 20.8555L43.4756 19.3701C42.8523 19.106 42.1477 19.106 41.5244 19.3701L38.0176 20.8555C36.9765 21.2965 35.8407 20.4711 35.9385 19.3447L36.2676 15.5508C36.3188 14.9607 36.1584 14.3743 35.8203 13.8945L35.665 13.6953L33.168 10.8193C32.4269 9.96563 32.8607 8.63033 33.9619 8.375L37.6729 7.51562C38.3323 7.3629 38.9019 6.94905 39.251 6.36914L41.2148 3.10547Z" stroke="#00A48A"/>
<path d="M100.215 3.10547C100.798 2.13674 102.202 2.13674 102.785 3.10547L104.749 6.36914C105.054 6.8765 105.529 7.25687 106.084 7.44629L106.327 7.51562L110.038 8.375C111.139 8.63033 111.573 9.96563 110.832 10.8193L108.335 13.6953C107.891 14.2065 107.674 14.8764 107.732 15.5508L108.062 19.3447C108.159 20.4711 107.023 21.2965 105.982 20.8555L102.476 19.3701C101.852 19.106 101.148 19.106 100.524 19.3701L97.0176 20.8555C95.9765 21.2965 94.8407 20.4711 94.9385 19.3447L95.2676 15.5508C95.3188 14.9607 95.1584 14.3743 94.8203 13.8945L94.665 13.6953L92.168 10.8193C91.4269 9.96563 91.8607 8.63033 92.9619 8.375L96.6729 7.51562C97.3323 7.3629 97.9019 6.94905 98.251 6.36914L100.215 3.10547Z" stroke="#00A48A"/>
<path d="M130.215 3.10547C130.798 2.13674 132.202 2.13674 132.785 3.10547L134.749 6.36914C135.054 6.8765 135.529 7.25687 136.084 7.44629L136.327 7.51562L140.038 8.375C141.139 8.63033 141.573 9.96563 140.832 10.8193L138.335 13.6953C137.891 14.2065 137.674 14.8764 137.732 15.5508L138.062 19.3447C138.159 20.4711 137.023 21.2965 135.982 20.8555L132.476 19.3701C131.852 19.106 131.148 19.106 130.524 19.3701L127.018 20.8555C125.977 21.2965 124.841 20.4711 124.938 19.3447L125.268 15.5508C125.319 14.9607 125.158 14.3743 124.82 13.8945L124.665 13.6953L122.168 10.8193C121.427 9.96563 121.861 8.63033 122.962 8.375L126.673 7.51562C127.332 7.3629 127.902 6.94905 128.251 6.36914L130.215 3.10547Z" stroke="#00A48A"/>
</svg>
