<svg width="860" height="823" viewBox="0 0 860 823" fill="none" xmlns="http://www.w3.org/2000/svg">
<mask id="path-1-inside-1_274_915" fill="white">
<path fill-rule="evenodd" clip-rule="evenodd" d="M0 26C0 11.6406 11.6406 0 26 0H834C848.359 0 860 11.6406 860 26V648.005C859.834 648.002 859.667 648 859.5 648C844.864 648 833 659.864 833 674.5C833 689.136 844.864 701 859.5 701C859.667 701 859.834 700.998 860 700.995V797C860 811.359 848.359 823 834 823H26C11.6406 823 0 811.359 0 797V700.995C14.4048 700.729 26 688.969 26 674.5C26 660.031 14.4048 648.271 0 648.005V26Z"/>
</mask>
<path fill-rule="evenodd" clip-rule="evenodd" d="M0 26C0 11.6406 11.6406 0 26 0H834C848.359 0 860 11.6406 860 26V648.005C859.834 648.002 859.667 648 859.5 648C844.864 648 833 659.864 833 674.5C833 689.136 844.864 701 859.5 701C859.667 701 859.834 700.998 860 700.995V797C860 811.359 848.359 823 834 823H26C11.6406 823 0 811.359 0 797V700.995C14.4048 700.729 26 688.969 26 674.5C26 660.031 14.4048 648.271 0 648.005V26Z" fill="white"/>
<path d="M860 648.005L859.945 651.004L863 651.06V648.005H860ZM860 700.995H863V697.94L859.945 697.996L860 700.995ZM0 700.995L-0.0555012 697.996L-3 698.05V700.995H0ZM0 648.005H-3V650.95L-0.0555012 651.004L0 648.005ZM26 -3C9.98374 -3 -3 9.98372 -3 26H3C3 13.2974 13.2974 3 26 3V-3ZM834 -3H26V3H834V-3ZM863 26C863 9.98374 850.016 -3 834 -3V3C846.703 3 857 13.2974 857 26H863ZM863 648.005V26H857V648.005H863ZM859.5 651C859.648 651 859.796 651.001 859.945 651.004L860.055 645.005C859.871 645.002 859.686 645 859.5 645V651ZM836 674.5C836 661.521 846.521 651 859.5 651V645C843.208 645 830 658.208 830 674.5H836ZM859.5 698C846.521 698 836 687.479 836 674.5H830C830 690.792 843.208 704 859.5 704V698ZM859.945 697.996C859.796 697.999 859.648 698 859.5 698V704C859.686 704 859.871 703.998 860.055 703.995L859.945 697.996ZM863 797V700.995H857V797H863ZM834 826C850.016 826 863 813.016 863 797H857C857 809.703 846.703 820 834 820V826ZM26 826H834V820H26V826ZM-3 797C-3 813.016 9.98373 826 26 826V820C13.2974 820 3 809.703 3 797H-3ZM-3 700.995V797H3V700.995H-3ZM23 674.5C23 687.33 12.7174 697.76 -0.0555012 697.996L0.0555012 703.995C16.0922 703.698 29 690.607 29 674.5H23ZM-0.0555012 651.004C12.7174 651.24 23 661.67 23 674.5H29C29 658.393 16.0922 645.302 0.0555012 645.005L-0.0555012 651.004ZM-3 26V648.005H3V26H-3Z" fill="url(#paint0_linear_274_915)" mask="url(#path-1-inside-1_274_915)"/>
<defs>
<linearGradient id="paint0_linear_274_915" x1="430" y1="-15" x2="430" y2="823" gradientUnits="userSpaceOnUse">
<stop stop-color="#2B2826"/>
<stop offset="1" stop-color="#1CAB98"/>
</linearGradient>
</defs>
</svg>
