<svg width="860" height="971" viewBox="0 0 860 971" fill="none" xmlns="http://www.w3.org/2000/svg">
<mask id="path-1-inside-1_274_943" fill="white">
<path fill-rule="evenodd" clip-rule="evenodd" d="M0 26C0 11.6406 11.6406 0 26 0H834C848.359 0 860 11.6406 860 26V796.005C859.834 796.002 859.667 796 859.5 796C844.864 796 833 807.864 833 822.5C833 837.136 844.864 849 859.5 849C859.667 849 859.834 848.998 860 848.995V945C860 959.359 848.359 971 834 971H26C11.6406 971 0 959.359 0 945V848.995C14.4048 848.729 26 836.969 26 822.5C26 808.031 14.4048 796.271 0 796.005V26Z"/>
</mask>
<path fill-rule="evenodd" clip-rule="evenodd" d="M0 26C0 11.6406 11.6406 0 26 0H834C848.359 0 860 11.6406 860 26V796.005C859.834 796.002 859.667 796 859.5 796C844.864 796 833 807.864 833 822.5C833 837.136 844.864 849 859.5 849C859.667 849 859.834 848.998 860 848.995V945C860 959.359 848.359 971 834 971H26C11.6406 971 0 959.359 0 945V848.995C14.4048 848.729 26 836.969 26 822.5C26 808.031 14.4048 796.271 0 796.005V26Z" fill="white"/>
<path d="M860 796.005L859.945 799.004L863 799.06V796.005H860ZM860 848.995H863V845.94L859.945 845.996L860 848.995ZM0 848.995L-0.0555012 845.996L-3 846.05V848.995H0ZM0 796.005H-3V798.95L-0.0555012 799.004L0 796.005ZM26 -3C9.98375 -3 -3 9.98371 -3 26H3C3 13.2974 13.2974 3 26 3V-3ZM834 -3H26V3H834V-3ZM863 26C863 9.98374 850.016 -3 834 -3V3C846.703 3 857 13.2974 857 26H863ZM863 796.005V26H857V796.005H863ZM859.5 799C859.648 799 859.796 799.001 859.945 799.004L860.055 793.005C859.871 793.002 859.686 793 859.5 793V799ZM836 822.5C836 809.521 846.521 799 859.5 799V793C843.208 793 830 806.208 830 822.5H836ZM859.5 846C846.521 846 836 835.479 836 822.5H830C830 838.792 843.208 852 859.5 852V846ZM859.945 845.996C859.796 845.999 859.648 846 859.5 846V852C859.686 852 859.871 851.998 860.055 851.995L859.945 845.996ZM863 945V848.995H857V945H863ZM834 974C850.016 974 863 961.016 863 945H857C857 957.703 846.703 968 834 968V974ZM26 974H834V968H26V974ZM-3 945C-3 961.016 9.98373 974 26 974V968C13.2974 968 3 957.703 3 945H-3ZM-3 848.995V945H3V848.995H-3ZM23 822.5C23 835.33 12.7174 845.76 -0.0555012 845.996L0.0555012 851.995C16.0922 851.698 29 838.607 29 822.5H23ZM-0.0555012 799.004C12.7174 799.24 23 809.67 23 822.5H29C29 806.393 16.0922 793.302 0.0555012 793.005L-0.0555012 799.004ZM-3 26V796.005H3V26H-3Z" fill="url(#paint0_linear_274_943)" mask="url(#path-1-inside-1_274_943)"/>
<defs>
<linearGradient id="paint0_linear_274_943" x1="430" y1="133" x2="430" y2="971" gradientUnits="userSpaceOnUse">
<stop stop-color="#2B2826"/>
<stop offset="1" stop-color="#1CAB98"/>
</linearGradient>
</defs>
</svg>
