<svg width="46" height="46" viewBox="0 0 46 46" fill="none" xmlns="http://www.w3.org/2000/svg">
<g clip-path="url(#clip0_1000_2363)">
<path d="M41.1435 4.3912C41.1385 3.53501 40.0978 3.10705 39.4914 3.71081L37.4684 5.73387C29.8238 -0.881974 17.6868 -1.28354 9.64844 4.8585H13.2458C20.6725 0.733537 30.6415 1.94334 36.8602 7.77365C37.0454 7.94249 37.279 8.02634 37.5124 8.02634C37.7606 8.02634 38.0084 7.93141 38.1969 7.74285L39.208 6.73172V14.8764H31.0634L32.558 13.3818C32.9527 13.0034 32.9276 12.3124 32.5054 11.9642C28.2811 8.24833 21.8765 7.37578 16.8144 9.81607V11.9917C20.9936 9.57868 26.552 9.90564 30.4213 12.7808C30.4177 12.7849 28.0416 15.1597 28.0387 15.1639C27.4331 15.7361 27.8941 16.84 28.7267 16.8121H40.1759C40.7104 16.8121 41.1437 16.3788 41.1437 15.8443C41.144 15.8403 41.1436 4.39481 41.1435 4.3912Z" fill="white"/>
<path d="M40.2658 37.4684C46.8817 29.8238 47.2832 17.6868 41.1412 9.64844V13.2449C45.2662 20.6716 44.0565 30.6414 38.226 36.8602C37.8775 37.2424 37.8911 37.8311 38.2568 38.1969L39.2679 39.208H31.1232V31.0634L32.6178 32.558C32.9963 32.9525 33.6872 32.9276 34.0354 32.5054C37.7513 28.281 38.6242 21.8762 36.1827 16.8144H34.0054C36.4209 20.9932 36.0944 26.5515 33.2187 30.4213L30.8397 28.0424C30.2396 27.4371 29.184 27.8693 29.1875 28.7267V40.1758C29.1875 40.7103 29.6208 41.1436 30.1554 41.1436H41.6045C42.4602 41.1465 42.8957 40.0941 42.2889 39.4914L40.2658 37.4684Z" fill="white"/>
<path d="M23.0013 43.5884C17.8554 43.5884 12.9338 41.6841 9.14322 38.2262C8.7611 37.8776 8.17239 37.8912 7.80663 38.2568L6.79549 39.268V31.1232H14.9402L13.4456 32.6178C13.0509 32.9962 13.0759 33.6872 13.4981 34.0354C17.7226 37.7513 24.1274 38.6243 29.1892 36.1825V34.0078C25.0099 36.4208 19.4516 36.0939 15.5822 33.2187L17.9612 30.8397C18.5664 30.2396 18.1342 29.184 17.2768 29.1875H5.82773C5.29322 29.1875 4.85989 29.6208 4.85989 30.1554V41.6045C4.83208 42.4411 5.94036 42.8999 6.51209 42.2889L8.53515 40.2658C16.1797 46.8817 28.3167 47.2832 36.3552 41.1412H32.7565C29.7839 42.7488 26.4641 43.5884 23.0013 43.5884Z" fill="white"/>
<path d="M2.41125 23.0014C2.41125 17.8555 4.31562 12.9339 7.77347 9.14331C8.12207 8.76119 8.10861 8.17248 7.74285 7.80672L6.73172 6.7955H14.8764V14.9402L13.3818 13.4456C13.0037 13.0511 12.3122 13.0758 11.9642 13.4981C8.24842 17.7225 7.37578 24.1271 9.81589 29.1892H11.9938C9.57877 25.0102 9.90528 19.4519 12.7809 15.5821L15.1599 17.9612C15.76 18.5664 16.8157 18.1343 16.8121 17.2768V5.82774C16.8121 5.29322 16.3788 4.85989 15.8443 4.85989H4.39516C3.55868 4.832 3.09974 5.94045 3.71081 6.51209L5.73387 8.53516C-0.881974 16.1797 -1.28354 28.3167 4.8585 36.355V32.7581C3.25038 29.7852 2.41125 26.4648 2.41125 23.0014Z" fill="white"/>
<path d="M25.4864 22.5937C25.8761 22.0759 26.1075 21.4325 26.1075 20.736C26.1075 19.0292 24.7189 17.6406 23.012 17.6406C21.3052 17.6406 19.9167 19.0292 19.9167 20.736C19.9167 21.4326 20.148 22.0759 20.5377 22.5937C19.1692 23.4302 18.2539 24.9384 18.2539 26.6564V27.4221C18.2539 27.9561 18.6868 28.3889 19.2207 28.3889H26.8035C27.3374 28.3889 27.7703 27.9561 27.7703 27.4221V26.6564C27.7703 24.9384 26.8549 23.4302 25.4864 22.5937ZM23.012 19.5741C23.6527 19.5741 24.174 20.0953 24.174 20.736C24.174 21.3766 23.6527 21.8978 23.012 21.8978C22.3714 21.8978 21.8502 21.3766 21.8502 20.736C21.8502 20.0953 22.3714 19.5741 23.012 19.5741ZM20.1945 26.4554C20.2981 24.9914 21.5221 23.8317 23.0121 23.8317C24.5021 23.8317 25.7262 24.9914 25.8297 26.4554H20.1945Z" fill="white"/>
</g>
<defs>
<clipPath id="clip0_1000_2363">
<rect width="45" height="45" fill="white" transform="translate(0.5 0.5)"/>
</clipPath>
</defs>
</svg>
