<svg width="46" height="46" viewBox="0 0 46 46" fill="none" xmlns="http://www.w3.org/2000/svg">
<g clip-path="url(#clip0_1000_2471)">
<path d="M44.7514 10.3811L43.4172 9.82818C43.2033 9.11539 42.9174 8.42624 42.5634 7.77005L43.1158 6.43701C43.2655 6.07578 43.1828 5.65988 42.9063 5.38338L40.4631 2.9394C40.1866 2.66281 39.7707 2.58002 39.4095 2.7297L38.0741 3.28262C37.4178 2.92886 36.7287 2.6433 36.0158 2.42973L35.4641 1.0973C35.3145 0.736074 34.9621 0.500439 34.571 0.500352L31.1152 0.5H31.1151C30.7241 0.5 30.3716 0.735547 30.222 1.09669L29.6691 2.43096C28.9563 2.64479 28.2671 2.9307 27.611 3.28473L26.278 2.73242C25.9167 2.58274 25.5009 2.66536 25.2244 2.94187L23.1484 5.01696L24.5155 6.38445L26.1344 4.76595L27.3075 5.25198C27.5903 5.36914 27.9118 5.3455 28.1744 5.18817C28.9366 4.73167 29.7584 4.39074 30.6172 4.17479C30.9137 4.10026 31.1576 3.88977 31.2746 3.60729L31.7609 2.43359L33.9247 2.43386L34.41 3.60597C34.5271 3.88871 34.7711 4.0993 35.0679 4.17374C35.9268 4.38934 36.7488 4.72991 37.5111 5.18606C37.7735 5.34304 38.0949 5.36668 38.3773 5.2497L39.5523 4.76322L41.0822 6.29349L40.5961 7.46647C40.479 7.74922 40.5026 8.07081 40.6599 8.33334C41.1164 9.09553 41.4574 9.91739 41.6733 10.7762C41.7479 11.0727 41.9583 11.3165 42.2408 11.4336L43.4144 11.9199L43.4142 14.0837L42.2421 14.569C41.9593 14.6861 41.7487 14.9301 41.6743 15.2269C41.4587 16.0858 41.1181 16.9078 40.662 17.67C40.5049 17.9325 40.4813 18.2538 40.5983 18.5364L41.0849 19.7113L39.4616 21.3342L40.8286 22.7017L42.9088 20.622C43.1853 20.3455 43.2681 19.9297 43.1185 19.5684L42.5655 18.233C42.9193 17.5768 43.2048 16.8876 43.4184 16.1747L44.7508 15.6229C45.112 15.4733 45.3477 15.1209 45.3478 14.7298L45.3482 11.274C45.3482 10.8833 45.1127 10.5308 44.7514 10.3811Z" fill="white"/>
<path d="M32.8457 7.38672C29.7494 7.38672 27.2305 9.90566 27.2305 13.002C27.2305 15.6911 29.1447 18.0102 31.7822 18.5164L32.1466 16.6175C30.4184 16.2858 29.1641 14.7653 29.1641 13.002C29.1641 10.9719 30.8156 9.32031 32.8457 9.32031C34.8758 9.32031 36.5274 10.9719 36.5274 13.002C36.5274 14.7767 35.2634 16.299 33.522 16.6217L33.8744 18.523C36.532 18.0304 38.461 15.7085 38.461 13.002C38.461 9.90575 35.942 7.38672 32.8457 7.38672Z" fill="white"/>
<path d="M44.5332 21.3479H36.9052L34.5447 17.0991C34.3742 16.7922 34.0507 16.6018 33.6995 16.6018H25.2772V6.85818H25.2767C25.2766 6.60664 25.179 6.3594 24.9941 6.17457L19.6027 0.783184C19.4178 0.598262 19.1706 0.500527 18.9191 0.500527V0.5H1.4668C0.932861 0.5 0.5 0.932861 0.5 1.4668V30.2178C0.5 30.7518 0.932861 31.1846 1.4668 31.1846H12.51V44.5332C12.51 45.0671 12.9429 45.5 13.4768 45.5H44.5332C45.0671 45.5 45.5 45.0671 45.5 44.5332V22.3147C45.5 21.7807 45.0671 21.3479 44.5332 21.3479ZM43.5664 27.9177L31.9053 29.5614V27.8789C31.9053 27.345 31.4725 26.9121 30.9385 26.9121H27.0714C26.5374 26.9121 26.1046 27.345 26.1046 27.8789V29.5773L14.4436 27.9187V23.2814H43.5664V27.9177ZM29.9717 28.8457V32.5371H28.0382V28.8457H29.9717ZM34.6932 21.3479H23.3168L24.8793 18.5354H33.1307L34.6932 21.3479ZM19.8858 3.80082L21.9763 5.89139H19.8858V3.80082ZM2.43359 29.251V2.43359H17.9522V6.85818C17.9522 7.39212 18.385 7.82498 18.919 7.82498H23.3436V17.318L21.1047 21.3479H13.4767C12.9428 21.3479 12.5099 21.7808 12.5099 22.3147V29.251H2.43359ZM14.4436 43.5664V29.8719L26.1046 31.5305V33.504C26.1046 34.0379 26.5374 34.4708 27.0714 34.4708H30.9385C31.4725 34.4708 31.9053 34.0379 31.9053 33.504V31.5141L43.5664 29.8704V43.5664H14.4436Z" fill="white"/>
<path d="M8.0332 11.6875H17.7441C18.278 11.6875 18.7109 11.2546 18.7109 10.7207C18.7109 10.1868 18.278 9.75391 17.7441 9.75391H8.0332C7.49927 9.75391 7.06641 10.1868 7.06641 10.7207C7.06641 11.2546 7.49927 11.6875 8.0332 11.6875Z" fill="white"/>
<path d="M18.7109 18.4551C18.7109 17.9211 18.278 17.4883 17.7441 17.4883H8.0332C7.49927 17.4883 7.06641 17.9211 7.06641 18.4551C7.06641 18.989 7.49927 19.4219 8.0332 19.4219H17.7441C18.278 19.4219 18.7109 18.9891 18.7109 18.4551Z" fill="white"/>
<path d="M20.8029 14.5879C20.8029 14.054 20.37 13.6211 19.8361 13.6211H5.94336C5.40942 13.6211 4.97656 14.054 4.97656 14.5879C4.97656 15.1218 5.40942 15.5547 5.94336 15.5547H19.8361C20.37 15.5547 20.8029 15.1219 20.8029 14.5879Z" fill="white"/>
</g>
<defs>
<clipPath id="clip0_1000_2471">
<rect width="45" height="45" fill="white" transform="translate(0.5 0.5)"/>
</clipPath>
</defs>
</svg>
