<svg width="46" height="46" viewBox="0 0 46 46" fill="none" xmlns="http://www.w3.org/2000/svg">
<g clip-path="url(#clip0_1000_2484)">
<path d="M23.0011 33.0272L20.2934 44.5345L17.3795 41.1401L13.2578 42.879L15.9831 31.2969" stroke="white" stroke-width="1.93359" stroke-miterlimit="10" stroke-linejoin="round"/>
<path d="M23.0039 33.0272L25.7117 44.5345L28.6256 41.1401L32.7473 42.879L30.022 31.2969" stroke="white" stroke-width="1.93359" stroke-miterlimit="10" stroke-linejoin="round"/>
<path d="M27.8096 13.8476C27.0545 13.0925 25.8302 13.0925 25.0751 13.8476L22.0892 16.8335L20.9298 15.6742C20.1747 14.919 18.9504 14.919 18.1953 15.6742C17.4401 16.4293 17.4401 17.6535 18.1953 18.4087L20.2248 20.4382C21.2545 21.4679 22.924 21.4679 23.9536 20.4382L27.8096 16.5822C28.5647 15.827 28.5647 14.6028 27.8096 13.8476Z" stroke="white" stroke-width="1.93359" stroke-miterlimit="10" stroke-linecap="round" stroke-linejoin="round"/>
<path d="M38.1893 15.0432L37.2527 13.421V11.5479C37.2527 9.97789 36.4151 8.52708 35.0555 7.74213L33.4333 6.80557L32.4968 5.18346C31.7118 3.82379 30.261 2.98619 28.691 2.98619H26.8179L25.1957 2.04972C23.8361 1.26468 22.1609 1.26468 20.8012 2.04972L19.179 2.98628H17.3059C15.7359 2.98628 14.2851 3.82388 13.5001 5.18354L12.5636 6.80574L10.9414 7.7423C9.58169 8.52734 8.74409 9.97807 8.74409 11.5481V13.4212L7.80753 15.0434C7.02249 16.403 7.02249 18.0782 7.80753 19.4379L8.74409 21.0601V22.9332C8.74409 24.5032 9.58169 25.954 10.9414 26.739L12.5636 27.6755L13.5001 29.2977C14.2852 30.6574 15.7359 31.495 17.3059 31.495H19.179L20.8012 32.4313C22.1609 33.2163 23.8361 33.2163 25.1957 32.4313L26.8179 31.4947H28.691C30.261 31.4947 31.7118 30.6571 32.4968 29.2975L33.4334 27.6753L35.0556 26.7387C36.4152 25.9537 37.2528 24.503 37.2528 22.933V21.0598L38.1894 19.4376C38.9743 18.0781 38.9743 16.403 38.1893 15.0432Z" stroke="white" stroke-width="1.93359" stroke-miterlimit="10" stroke-linecap="round" stroke-linejoin="round"/>
<path d="M22.9976 28.1086C29.0003 28.1086 33.8664 23.2425 33.8664 17.2398C33.8664 11.2372 29.0003 6.37109 22.9976 6.37109C16.995 6.37109 12.1289 11.2372 12.1289 17.2398C12.1289 23.2425 16.995 28.1086 22.9976 28.1086Z" stroke="white" stroke-width="1.93359" stroke-miterlimit="10" stroke-linecap="round" stroke-linejoin="round"/>
</g>
<defs>
<clipPath id="clip0_1000_2484">
<rect width="45" height="45" fill="white" transform="translate(0.5 0.5)"/>
</clipPath>
</defs>
</svg>
