<svg width="46" height="46" viewBox="0 0 46 46" fill="none" xmlns="http://www.w3.org/2000/svg">
<g clip-path="url(#clip0_1000_2496)">
<path d="M21.8917 40.8473H8.24023C6.73783 40.8473 5.51562 39.625 5.51562 38.1226V35.1738C5.51562 33.6715 6.73792 32.4492 8.24023 32.4492H21.8916C23.394 32.4492 24.6162 33.6715 24.6162 35.1738V38.1226C24.6163 39.625 23.394 40.8473 21.8917 40.8473ZM8.24023 34.3829C7.80403 34.3829 7.44922 34.7378 7.44922 35.1739V38.1227C7.44922 38.5588 7.80412 38.9138 8.24023 38.9138H21.8916C22.3278 38.9138 22.6826 38.5588 22.6826 38.1227V35.1739C22.6826 34.7378 22.3278 34.3829 21.8916 34.3829H8.24023Z" fill="white"/>
<path d="M44.9589 38.5682L44.2681 34.1241C44.1179 33.1583 43.2994 32.4574 42.322 32.4574H38.9854V30.6814C38.9854 29.4399 39.3415 28.2821 40.015 27.3329C40.6522 26.4349 40.989 25.3768 40.989 24.273C40.989 22.8203 40.4124 21.4652 39.3656 20.4574C38.6059 19.7261 37.6713 19.2512 36.66 19.0659V3.22461C36.66 1.72229 35.4378 0.5 33.9354 0.5H3.74805C2.24573 0.5 1.02344 1.72229 1.02344 3.22461V42.7754C1.02344 44.2777 2.24573 45.5 3.74805 45.5H33.9354C35.4378 45.5 36.66 44.2777 36.66 42.7754V40.8401H43.0129C43.5889 40.8401 44.134 40.5893 44.5086 40.1519C44.8833 39.7144 45.0474 39.1372 44.9589 38.5682ZM39.0554 24.2729C39.0554 24.9736 38.8419 25.6447 38.4381 26.2138C37.5313 27.4917 37.0519 29.0366 37.0519 30.6813V32.4573H34.3347V30.6812C34.3347 29.0946 33.8417 27.5301 32.9089 26.157C32.5043 25.5613 32.3054 24.8628 32.3337 24.1373C32.4016 22.3957 33.8193 20.9794 35.5611 20.9132C36.4858 20.8776 37.3605 21.2108 38.0247 21.8503C38.6893 22.4902 39.0554 23.3506 39.0554 24.2729ZM34.7264 42.7754C34.7264 43.2115 34.3716 43.5664 33.9354 43.5664H3.74805C3.31193 43.5664 2.95703 43.2115 2.95703 42.7754V3.22461C2.95703 2.7885 3.31193 2.43359 3.74805 2.43359H33.9354C34.3716 2.43359 34.7264 2.7885 34.7264 3.22461V19.066C32.3404 19.5108 30.4985 21.576 30.4016 24.0619C30.3569 25.2032 30.6708 26.3034 31.3093 27.2435C32.0235 28.2949 32.401 29.4837 32.401 30.6813V32.4574H29.0643C28.0868 32.4574 27.2684 33.1585 27.1183 34.1242L26.4274 38.5682C26.3389 39.1373 26.503 39.7145 26.8777 40.1519C27.2524 40.5894 27.7975 40.8402 28.3734 40.8402H34.7264V42.7754ZM43.0401 38.8941C43.0294 38.9065 43.0192 38.9065 43.0129 38.9065H28.3734C28.3673 38.9065 28.3569 38.9065 28.3463 38.8941C28.3355 38.8815 28.3371 38.8714 28.338 38.8652L29.0289 34.421C29.0316 34.4035 29.0465 34.3909 29.0642 34.3909H42.3219C42.3397 34.3909 42.3546 34.4037 42.3573 34.4212L43.0482 38.8652C43.0492 38.8714 43.0508 38.8815 43.0401 38.8941Z" fill="white"/>
<path d="M7.62305 7.83203H18.8408C19.3747 7.83203 19.8076 7.39917 19.8076 6.86523C19.8076 6.3313 19.3747 5.89844 18.8408 5.89844H7.62305C7.08911 5.89844 6.65625 6.3313 6.65625 6.86523C6.65625 7.39917 7.08911 7.83203 7.62305 7.83203Z" fill="white"/>
<path d="M7.62305 13.5H28.8595C29.3935 13.5 29.8263 13.0671 29.8263 12.5332C29.8263 11.9993 29.3935 11.5664 28.8595 11.5664H7.62305C7.08911 11.5664 6.65625 11.9993 6.65625 12.5332C6.65625 13.0671 7.08911 13.5 7.62305 13.5Z" fill="white"/>
<path d="M7.62305 17.793H28.8595C29.3935 17.793 29.8263 17.3601 29.8263 16.8262C29.8263 16.2922 29.3935 15.8594 28.8595 15.8594H7.62305C7.08911 15.8594 6.65625 16.2922 6.65625 16.8262C6.65625 17.3601 7.08911 17.793 7.62305 17.793Z" fill="white"/>
<path d="M7.62305 23.8477H26.8478C27.3817 23.8477 27.8146 23.4148 27.8146 22.8809C27.8146 22.3469 27.3817 21.9141 26.8478 21.9141H7.62305C7.08911 21.9141 6.65625 22.3469 6.65625 22.8809C6.65625 23.4148 7.08911 23.8477 7.62305 23.8477Z" fill="white"/>
<path d="M24.1876 26.207H7.62305C7.08911 26.207 6.65625 26.6399 6.65625 27.1738C6.65625 27.7078 7.08911 28.1406 7.62305 28.1406H24.1875C24.7215 28.1406 25.1543 27.7078 25.1543 27.1738C25.1543 26.6399 24.7216 26.207 24.1876 26.207Z" fill="white"/>
</g>
<defs>
<clipPath id="clip0_1000_2496">
<rect width="45" height="45" fill="white" transform="translate(0.5 0.5)"/>
</clipPath>
</defs>
</svg>
