<svg width="46" height="46" viewBox="0 0 46 46" fill="none" xmlns="http://www.w3.org/2000/svg">
<g clip-path="url(#clip0_1000_2174)">
<path d="M34.5996 0.5H11.3965C10.8625 0.5 10.4297 0.932861 10.4297 1.4668V19.1731H12.3633V2.43359H33.6328V19.1731H35.5664V1.4668C35.5664 0.932861 35.1335 0.5 34.5996 0.5Z" fill="white"/>
<path d="M30.0293 12.1777H15.9668C15.4329 12.1777 15 12.6106 15 13.1445C15 13.6785 15.4329 14.1113 15.9668 14.1113H30.0293C30.5632 14.1113 30.9961 13.6785 30.9961 13.1445C30.9961 12.6106 30.5632 12.1777 30.0293 12.1777Z" fill="white"/>
<path d="M20.0852 16.0449H15.9668C15.4329 16.0449 15 16.4778 15 17.0117C15 17.5457 15.4329 17.9785 15.9668 17.9785H20.0852C20.6191 17.9785 21.052 17.5457 21.052 17.0117C21.052 16.4778 20.6192 16.0449 20.0852 16.0449Z" fill="white"/>
<path d="M45.0166 12.7643C44.7174 12.5916 44.349 12.5916 44.0498 12.7643L32.1772 19.619C31.7148 19.886 31.5564 20.4772 31.8233 20.9396L31.8383 20.9655L30.6887 21.6145C30.0661 21.9661 29.3099 21.9905 28.666 21.6804L25.2896 20.0537C23.8381 19.3545 22.1388 19.418 20.7436 20.2234L16.7092 22.5527L14.1114 21.0528L14.1767 20.9397C14.4436 20.4773 14.2851 19.886 13.8228 19.6191L1.9502 12.7643C1.65102 12.5916 1.28258 12.5916 0.983398 12.7643C0.684307 12.937 0.5 13.2561 0.5 13.6015V28.8626C0.5 29.208 0.684307 29.5272 0.983398 29.6999L6.24778 32.7393C6.39605 32.8249 6.56296 32.8688 6.73118 32.8688C6.81494 32.8688 6.89905 32.8579 6.98141 32.8359C7.21221 32.7741 7.41031 32.6285 7.54013 32.4294L8.9912 33.2672C8.65915 34.062 8.68736 34.9971 9.15037 35.7989C9.51248 36.426 10.0781 36.8637 10.7161 37.0774C10.5823 37.7366 10.6781 38.445 11.04 39.072C11.5686 39.9874 12.5306 40.4996 13.5186 40.4996C13.6456 40.4996 13.773 40.4906 13.9 40.4734C13.9441 40.8565 14.0661 41.2301 14.2646 41.5741C14.6461 42.2348 15.2621 42.7075 15.999 42.905C16.2452 42.9709 16.4949 43.0036 16.743 43.0036C16.8742 43.0036 17.0049 42.9938 17.1344 42.9756C17.1779 43.3512 17.2965 43.724 17.4973 44.0717C18.0258 44.9871 18.9879 45.4993 19.9759 45.4993C20.46 45.4993 20.9506 45.3762 21.3992 45.1172L22.0329 44.7513C22.3366 44.576 22.5997 44.3497 22.8154 44.0865L24.6007 45.1172C25.0493 45.3762 25.5397 45.4993 26.024 45.4993C27.0119 45.4992 27.9741 44.9869 28.5026 44.0716C28.7033 43.7239 28.822 43.3512 28.8654 42.9756C28.9949 42.9938 29.1256 43.0036 29.2568 43.0036C29.5049 43.0036 29.7547 42.9709 30.0008 42.905C30.7378 42.7075 31.3538 42.2348 31.7352 41.5741C31.9338 41.2301 32.0557 40.8565 32.0998 40.4734C32.2268 40.4905 32.3542 40.4995 32.4812 40.4995C33.4691 40.4994 34.4313 39.9871 34.9598 39.0718C35.3217 38.4449 35.4175 37.7365 35.2837 37.0773C35.9217 36.8636 36.4874 36.4259 36.8494 35.7988C37.3288 34.9685 37.3425 33.995 36.9721 33.1826L38.4117 32.3515L38.4313 32.3854C38.5595 32.6074 38.7706 32.7695 39.0184 32.8359C39.1008 32.8579 39.1849 32.8688 39.2686 32.8688C39.4369 32.8688 39.6038 32.8249 39.752 32.7393L45.0164 29.6999C45.3155 29.5271 45.4998 29.208 45.4998 28.8626V13.6015C45.5 13.2561 45.3157 12.937 45.0166 12.7643ZM2.43359 28.3044V15.2761L12.0188 20.8101L6.37733 30.5814L2.43359 28.3044ZM11.1627 33.5714L12.2178 32.9623C12.3606 32.8798 12.5178 32.8379 12.6772 32.8379C12.7676 32.8379 12.8587 32.8514 12.9482 32.8787C13.1954 32.954 13.3942 33.1233 13.5079 33.3552C13.7208 33.7894 13.5595 34.3188 13.1408 34.5606L12.0856 35.1699C11.6448 35.4244 11.0792 35.2727 10.8249 34.8321C10.5705 34.3915 10.7221 33.8259 11.1627 33.5714ZM12.7146 38.1051C12.4602 37.6644 12.6118 37.0988 13.0525 36.8444L14.6072 35.9467C15.0479 35.6922 15.6134 35.8438 15.8679 36.2844C16.1223 36.7251 15.9708 37.2905 15.5303 37.5451L13.9753 38.4429C13.5345 38.6973 12.9689 38.5457 12.7146 38.1051ZM16.4995 41.0373C16.2614 40.9735 16.0624 40.8208 15.9392 40.6073C15.816 40.3938 15.7832 40.1451 15.8469 39.907C15.9108 39.6689 16.0635 39.4699 16.277 39.3467L17.4002 38.6983C17.5424 38.6162 17.7002 38.5743 17.8601 38.5743C17.9402 38.5743 18.021 38.5848 18.1004 38.6061C18.3385 38.6699 18.5375 38.8225 18.6607 39.0361C18.784 39.2496 18.8168 39.4982 18.753 39.7363C18.6891 39.9744 18.5365 40.1734 18.323 40.2966L17.1997 40.9451C16.9863 41.0684 16.7378 41.1011 16.4995 41.0373ZM21.5161 42.423C21.472 42.6989 21.308 42.9371 21.0661 43.0768L20.4324 43.4427C19.992 43.697 19.4264 43.5456 19.1718 43.1049C18.9174 42.6642 19.0689 42.0987 19.5096 41.8442L20.1433 41.4783C20.5192 41.2613 21.0022 41.3383 21.2919 41.6616C21.4784 41.8697 21.56 42.1472 21.5161 42.423ZM35.175 34.832C34.9205 35.2728 34.355 35.4243 33.9143 35.1699L29.2743 32.491C28.8119 32.2241 28.2206 32.3825 27.9537 32.8448C27.6868 33.3072 27.8452 33.8986 28.3075 34.1655L32.9475 36.8444C33.3882 37.0988 33.5398 37.6644 33.2854 38.105C33.0309 38.5458 32.4654 38.6971 32.0247 38.4429L27.3847 35.764C26.9222 35.4971 26.3311 35.6555 26.064 36.1178C25.7971 36.5802 25.9556 37.1715 26.4179 37.4384L29.7236 39.347C29.9368 39.4703 30.0893 39.6691 30.153 39.9069C30.2168 40.145 30.184 40.3938 30.0607 40.6073C29.9375 40.8207 29.7385 40.9734 29.5004 41.0372C29.262 41.1011 29.0135 41.0683 28.8001 40.945L25.495 39.0368C25.0327 38.7699 24.4414 38.9284 24.1744 39.3907C23.9075 39.8531 24.0659 40.4444 24.5282 40.7113L26.4906 41.8443C26.931 42.0988 27.0824 42.6642 26.8281 43.1048C26.5737 43.5454 26.0081 43.697 25.5675 43.4426L23.4606 42.2262C23.4495 41.5451 23.1956 40.8886 22.7319 40.3712C22.2046 39.7828 21.4702 39.4583 20.718 39.4271C20.707 38.9546 20.5782 38.4898 20.3353 38.0691C19.9539 37.4084 19.3379 36.9357 18.601 36.7382C18.3764 36.678 18.1489 36.646 17.9222 36.6408C17.9063 36.1893 17.7836 35.7354 17.5424 35.3176C17.0974 34.5469 16.3449 34.0621 15.5285 33.9281C15.5576 33.4503 15.4678 32.9602 15.2441 32.504C14.8971 31.7962 14.2656 31.2586 13.5116 31.0289C12.7575 30.7993 11.9337 30.8936 11.251 31.2877L10.3405 31.8134L8.50921 30.756L13.1446 22.7272L15.0624 23.8345C14.8612 24.1229 14.7097 24.4473 14.6164 24.7973C14.4057 25.5874 14.5157 26.4119 14.9261 27.1189C15.7699 28.5731 17.6413 29.0722 19.0974 28.2316L22.3429 26.3578L34.8372 33.5714C35.2779 33.8259 35.4295 34.3915 35.175 34.832ZM35.568 31.7606L22.8263 24.4042C22.6767 24.3179 22.5098 24.2746 22.3429 24.2746C22.176 24.2746 22.009 24.3178 21.8595 24.4042L18.1306 26.5571C17.5958 26.866 16.9084 26.6826 16.5984 26.1485C16.4476 25.8887 16.4072 25.5859 16.4846 25.2957C16.562 25.0055 16.7478 24.763 17.008 24.6128L21.7103 21.8979C22.5511 21.4124 23.5755 21.3742 24.4503 21.7956L27.8266 23.4223C29.0405 24.0071 30.4657 23.9607 31.6391 23.2982L32.805 22.64L37.4451 30.6768L35.568 31.7606ZM43.5664 28.3044L39.6227 30.5813L33.9812 20.8101L43.5664 15.2761V28.3044Z" fill="white"/>
<path d="M30.0293 10.168H15.9668C15.4329 10.168 15 9.73511 15 9.20117V5.33398C15 4.80005 15.4329 4.36719 15.9668 4.36719H30.0293C30.5632 4.36719 30.9961 4.80005 30.9961 5.33398V9.20117C30.9961 9.73511 30.5632 10.168 30.0293 10.168ZM16.9336 8.23437H29.0625V6.30078H16.9336V8.23437Z" fill="white"/>
</g>
<defs>
<clipPath id="clip0_1000_2174">
<rect width="45" height="45" fill="white" transform="translate(0.5 0.5)"/>
</clipPath>
</defs>
</svg>
