<svg width="44" height="46" viewBox="0 0 44 46" fill="none" xmlns="http://www.w3.org/2000/svg">
<path d="M40.6664 22.4051C39.2794 21.0365 37.0287 21.0429 35.6497 22.4192L29.3002 28.755C29.1254 28.3844 28.8884 28.0418 28.5939 27.7413C27.9049 27.038 26.9893 26.6506 26.0154 26.6506C26.0153 26.6506 26.015 26.6506 26.0149 26.6506L22.8966 26.6509C21.8016 26.651 20.7232 26.3544 19.7783 25.7932C18.4891 25.0278 17.017 24.6232 15.5212 24.6232C13.0812 24.6232 10.7926 25.5734 9.07697 27.299C8.22408 28.1569 7.22723 29.1573 6.24171 30.1452L6.14635 30.0499C5.76877 29.6723 5.15661 29.6723 4.77904 30.0499L0.701086 34.1278C0.323596 34.5054 0.323596 35.1176 0.701086 35.4951L10.424 45.218C10.6128 45.4068 10.8602 45.5012 11.1076 45.5012C11.355 45.5012 11.6024 45.4068 11.7912 45.218L15.8692 41.1401C16.2467 40.7625 16.2467 40.1504 15.8692 39.7728L15.7876 39.6912C16.1818 39.4027 16.6555 39.2465 17.1534 39.2465H25.77C27.7543 39.2465 29.6212 38.4754 31.0271 37.0751L40.6781 27.4635C41.3564 26.7881 41.7287 25.889 41.7265 24.9317C41.7243 23.9745 41.3479 23.0773 40.6664 22.4051ZM11.1077 43.1672L2.75201 34.8115L5.46274 32.1008L13.8184 40.4565L11.1077 43.1672ZM39.3138 26.0936L29.6627 35.7052C28.6217 36.742 27.2393 37.3129 25.77 37.3129H17.1535C16.1384 37.3129 15.1782 37.6671 14.412 38.3155L7.60894 31.5125C8.59577 30.5231 9.59412 29.5213 10.4482 28.6623C11.7982 27.3044 13.5998 26.5567 15.5212 26.5567C16.6698 26.5567 17.8005 26.8676 18.7911 27.4557C20.0347 28.1942 21.4544 28.5844 22.8968 28.5843L26.0153 28.584C26.4651 28.5839 26.8903 28.7652 27.2126 29.0942C27.5388 29.4272 27.7184 29.8675 27.7184 30.334C27.7184 30.7731 27.5474 31.1891 27.2367 31.5053C26.9285 31.8188 26.523 31.9915 26.0945 31.9915C26.0944 31.9915 26.0944 31.9915 26.0943 31.9915L19.2278 31.9905H19.2277C18.6939 31.9905 18.261 32.4233 18.2609 32.9572C18.2608 33.4911 18.6936 33.924 19.2276 33.9241L26.094 33.9251H26.0946C27.0459 33.9251 27.9415 33.547 28.616 32.8604C29.0627 32.4059 29.3743 31.854 29.5325 31.2547L37.0156 23.7878C37.6459 23.1588 38.6746 23.1557 39.3086 23.7813C39.62 24.0886 39.7921 24.4987 39.7932 24.9362C39.794 25.3739 39.6238 25.7848 39.3138 26.0936Z" fill="white"/>
<path fill-rule="evenodd" clip-rule="evenodd" d="M17.4688 10.9298C16.8689 11.5314 16.0552 11.8695 15.2067 11.8695H13.0028V12.4203H15.0137C15.3954 12.4203 15.7043 12.7306 15.7043 13.1126C15.7043 13.4946 15.3954 13.8049 15.0137 13.8049H13.0028V14.6609C13.0028 15.0429 12.694 15.3531 12.3123 15.3531C11.9306 15.3531 11.6218 15.0429 11.6218 14.6609V13.8049H10.7687C10.387 13.8049 10.0781 13.4946 10.0781 13.1126C10.0781 12.7306 10.387 12.4203 10.7687 12.4203H11.6218V11.8695H10.7687C10.387 11.8695 10.0781 11.5593 10.0781 11.1773C10.0781 10.7953 10.387 10.485 10.7687 10.485H11.6218V6.14538C11.6218 5.76337 11.9306 5.45312 12.3123 5.45312H15.2067C16.0552 5.45312 16.8689 5.79121 17.4688 6.3929C18.0687 6.99458 18.4057 7.81056 18.4057 8.66132C18.4057 9.51207 18.0687 10.3281 17.4688 10.9298ZM17.0246 8.66132C17.0246 9.14511 16.833 9.60901 16.492 9.95096C16.1511 10.2929 15.6887 10.485 15.2067 10.485H13.0028V6.83764H15.2067C15.6887 6.83764 16.1511 7.0297 16.492 7.37167C16.833 7.71365 17.0246 8.17754 17.0246 8.66132Z" fill="white"/>
<path d="M14.1426 20.3633C8.6662 20.3633 4.21094 15.908 4.21094 10.4316C4.21094 4.95526 8.6662 0.5 14.1426 0.5C19.619 0.5 24.0742 4.95526 24.0742 10.4316C24.0742 15.908 19.619 20.3633 14.1426 20.3633ZM14.1426 2.43359C9.7324 2.43359 6.14453 6.02146 6.14453 10.4316C6.14453 14.8418 9.7324 18.4297 14.1426 18.4297C18.5528 18.4297 22.1406 14.8418 22.1406 10.4316C22.1406 6.02146 18.5528 2.43359 14.1426 2.43359Z" fill="white"/>
<path d="M42.6034 9.26172H39.8413C39.3073 9.26172 38.8745 9.69458 38.8745 10.2285C38.8745 10.7625 39.3073 11.1953 39.8413 11.1953H40.2693L35.6225 15.8422L32.2276 12.4472C31.8499 12.0696 31.2379 12.0696 30.8602 12.4472L20.9784 22.3291C20.6009 22.7067 20.6009 23.3189 20.9784 23.6964C21.1672 23.8852 21.4146 23.9796 21.662 23.9796C21.9095 23.9796 22.1569 23.8852 22.3457 23.6964L31.5439 14.4982L34.9389 17.8931C35.3166 18.2707 35.9285 18.2707 36.3062 17.8931L41.6366 12.5627V12.9907C41.6366 13.5247 42.0695 13.9575 42.6034 13.9575C43.1373 13.9575 43.5702 13.5247 43.5702 12.9907V10.2286C43.5702 9.69458 43.1373 9.26172 42.6034 9.26172Z" fill="white"/>
</svg>
