<svg width="46" height="46" viewBox="0 0 46 46" fill="none" xmlns="http://www.w3.org/2000/svg">
<g clip-path="url(#clip0_1000_2397)">
<path d="M12.1455 29.0039H7.0918C6.55786 29.0039 6.125 29.4368 6.125 29.9707V42.7888H8.05859V30.9375H11.1787V42.7888H13.1123V29.9707C13.1123 29.4368 12.6794 29.0039 12.1455 29.0039Z" fill="white"/>
<path d="M21.0674 24.6094H16.0137C15.4797 24.6094 15.0469 25.0422 15.0469 25.5762V42.7888H16.9805V26.543H20.1006V42.7888H22.0342V25.5762C22.0342 25.0422 21.6013 24.6094 21.0674 24.6094Z" fill="white"/>
<path d="M29.9893 20.2148H24.9355C24.4016 20.2148 23.9688 20.6477 23.9688 21.1816V42.7888H25.9023V22.1484H29.0225V42.7888H30.9561V21.1816C30.9561 20.6477 30.5232 20.2148 29.9893 20.2148Z" fill="white"/>
<path d="M38.9072 15.8203H33.8535C33.3196 15.8203 32.8867 16.2532 32.8867 16.7871V42.7888H34.8203V17.7539H37.9404V42.7888H39.874V16.7871C39.874 16.2532 39.4412 15.8203 38.9072 15.8203Z" fill="white"/>
<path d="M45.2168 42.1065L43.4736 40.3633C43.096 39.9857 42.4839 39.9857 42.1063 40.3633C41.7288 40.7409 41.7288 41.3531 42.1063 41.7306L42.199 41.8234H4.17666V3.80091L4.26939 3.89363C4.45818 4.08242 4.70559 4.17682 4.953 4.17682C5.20041 4.17682 5.44782 4.08242 5.63661 3.89363C6.0141 3.51605 6.0141 2.9039 5.63661 2.52632L3.89348 0.783184C3.5159 0.405605 2.90374 0.405605 2.52616 0.783184L0.783118 2.52632C0.405627 2.9039 0.405627 3.51605 0.783118 3.89363C1.1607 4.27121 1.77285 4.27121 2.15043 3.89363L2.24316 3.80091V42.7901C2.24316 43.324 2.67602 43.7569 3.20995 43.7569H42.1991L42.1064 43.8496C41.7289 44.2272 41.7289 44.8393 42.1064 45.2169C42.2952 45.4057 42.5426 45.5001 42.79 45.5001C43.0374 45.5001 43.2848 45.4057 43.4736 45.2169L45.2168 43.4738C45.5943 43.0962 45.5943 42.484 45.2168 42.1065Z" fill="white"/>
<path d="M9.61914 27.2827C10.1531 27.2827 10.5859 26.8499 10.5859 26.3159V21.0652C10.5859 19.1388 12.1532 17.5715 14.0796 17.5715C16.006 17.5715 17.5732 19.1388 17.5732 21.0652V21.851C17.5732 22.3849 18.0061 22.8178 18.54 22.8178C19.074 22.8178 19.5068 22.3849 19.5068 21.851V16.6002C19.5068 14.6739 21.0741 13.1066 23.0005 13.1066C24.9269 13.1066 26.4941 14.6739 26.4941 16.6002V17.3861C26.4941 17.92 26.927 18.3529 27.4609 18.3529C27.9949 18.3529 28.4277 17.92 28.4277 17.3861V12.1353C28.4277 10.2089 29.995 8.64166 31.9214 8.64166C33.8478 8.64166 35.415 10.2089 35.415 12.1353V12.9211C35.415 13.4551 35.8479 13.8879 36.3818 13.8879C36.9158 13.8879 37.3486 13.4551 37.3486 12.9211V7.67038C37.3486 5.74399 38.9159 4.17673 40.8423 4.17673H41.1302L41.0375 4.26945C40.66 4.64703 40.66 5.25919 41.0375 5.63677C41.2263 5.82556 41.4737 5.91995 41.7211 5.91995C41.9685 5.91995 42.2159 5.82556 42.4047 5.63677L44.1479 3.89363C44.5253 3.51605 44.5253 2.9039 44.1479 2.52632L42.4048 0.783184C42.0272 0.405605 41.4151 0.405605 41.0375 0.783184C40.66 1.16076 40.66 1.77292 41.0375 2.1505L41.1302 2.24322H40.8423C37.8497 2.24322 35.415 4.67788 35.415 7.67047V7.98521C34.4703 7.18865 33.2509 6.70815 31.9214 6.70815C28.9288 6.70815 26.4941 9.14281 26.4941 12.1354V12.4501C25.5494 11.6536 24.33 11.1731 23.0005 11.1731C20.0079 11.1731 17.5732 13.6077 17.5732 16.6003V16.9151C16.6285 16.1185 15.4091 15.638 14.0796 15.638C11.087 15.638 8.65234 18.0727 8.65234 21.0653V26.316C8.65234 26.8499 9.08521 27.2827 9.61914 27.2827Z" fill="white"/>
</g>
<defs>
<clipPath id="clip0_1000_2397">
<rect width="45" height="45" fill="white" transform="translate(0.5 0.5)"/>
</clipPath>
</defs>
</svg>
