<svg width="47" height="47" viewBox="0 0 47 47" fill="none" xmlns="http://www.w3.org/2000/svg">
<g clip-path="url(#clip0_1000_2410)">
<path d="M4.48438 39.2521V15.7185C4.48438 14.6551 5.34648 13.793 6.40986 13.793H8.7628" stroke="white" stroke-width="1.95508" stroke-miterlimit="10" stroke-linecap="round" stroke-linejoin="round"/>
<path d="M38.1914 13.793H40.5963C41.6597 13.793 42.5218 14.6551 42.5218 15.7185V39.2521" stroke="white" stroke-width="1.95508" stroke-miterlimit="10" stroke-linecap="round" stroke-linejoin="round"/>
<path d="M44.082 39.7031H2.92387C2.26483 39.7031 1.73047 40.2374 1.73047 40.8965V41.353C1.73047 43.5176 3.48524 45.2723 5.64978 45.2723H41.3561C43.5206 45.2723 45.2754 43.5176 45.2754 41.353V40.8965C45.2754 40.2374 44.7411 39.7031 44.082 39.7031Z" stroke="white" stroke-width="1.95508" stroke-miterlimit="10" stroke-linecap="round" stroke-linejoin="round"/>
<path d="M38.2964 16.5291C38.2964 8.35605 31.6709 1.73047 23.4978 1.73047C15.3248 1.73047 8.69922 8.35605 8.69922 16.5291C8.69922 23.2984 13.2443 29.0061 19.4493 30.767L23.4978 36.0576L27.5463 30.767C33.7513 29.0061 38.2964 23.2984 38.2964 16.5291Z" stroke="white" stroke-width="1.95508" stroke-miterlimit="10" stroke-linecap="round" stroke-linejoin="round"/>
<path d="M8.96875 31.6719H12.4496" stroke="white" stroke-width="1.95508" stroke-miterlimit="10" stroke-linecap="round" stroke-linejoin="round"/>
<path d="M8.96875 35.582H17.1769" stroke="white" stroke-width="1.95508" stroke-miterlimit="10" stroke-linecap="round" stroke-linejoin="round"/>
<path d="M38.0316 31.6719H34.5508" stroke="white" stroke-width="1.95508" stroke-miterlimit="10" stroke-linecap="round" stroke-linejoin="round"/>
<path d="M38.0284 35.582H29.8203" stroke="white" stroke-width="1.95508" stroke-miterlimit="10" stroke-linecap="round" stroke-linejoin="round"/>
<path d="M16.2602 16.4458L12.7503 14.9878C12.3612 14.8285 12.3456 14.2833 12.7248 14.102L22.8054 9.28296C23.246 9.07235 23.7583 9.07235 24.1989 9.28296L34.2795 14.102C34.6588 14.2833 34.6431 14.8285 34.2541 14.9878L30.7441 16.4458" stroke="white" stroke-width="1.95508" stroke-miterlimit="10" stroke-linecap="round" stroke-linejoin="round"/>
<path d="M30.7456 22.0182V16.4483L29.478 15.9294C25.6493 14.3621 21.358 14.3621 17.5292 15.9294L16.2617 16.4483V22.0182H30.7456Z" stroke="white" stroke-width="1.95508" stroke-miterlimit="10" stroke-linecap="round" stroke-linejoin="round"/>
<path d="M34.5547 14.5508V18.8574" stroke="white" stroke-width="1.95508" stroke-miterlimit="10" stroke-linecap="round" stroke-linejoin="round"/>
</g>
<defs>
<clipPath id="clip0_1000_2410">
<rect width="45.5" height="45.5" fill="white" transform="translate(0.75 0.75)"/>
</clipPath>
</defs>
</svg>
