<svg width="46" height="46" viewBox="0 0 46 46" fill="none" xmlns="http://www.w3.org/2000/svg">
<g clip-path="url(#clip0_1000_2431)">
<path d="M38.0215 17.1875C37.4875 17.1875 37.0547 17.6204 37.0547 18.1543V22.9088H38.9883V18.1543C38.9883 17.6203 38.5554 17.1875 38.0215 17.1875Z" fill="white"/>
<path d="M38.298 11.6858C38.9311 10.859 39.3084 9.82644 39.3084 8.70698C39.3084 5.99959 37.1058 3.79705 34.3985 3.79705C32.1853 3.79705 30.3103 5.26922 29.6992 7.28552L25.9044 2.01551L25.9017 2.01744C25.6661 1.67616 25.3677 1.37145 25.0089 1.12404C23.4323 0.036741 21.2391 0.416604 20.12 1.97077L16.2939 7.2842C15.6828 5.2679 13.8078 3.79574 11.5946 3.79574C8.88721 3.79574 6.68467 5.99836 6.68467 8.70566C6.68467 9.82512 7.06198 10.8577 7.69515 11.6844C4.79388 11.7362 2.44922 14.1108 2.44922 17.0242V22.9939H4.38281V17.0242C4.38281 15.1446 5.91193 13.6156 7.79147 13.6156H11.5946C13.236 13.6156 14.6909 12.8051 15.5828 11.5641L15.5906 11.5697L19.5826 6.02587L22.3074 8.01027L15.9651 17.6189C15.8608 17.7769 15.8053 17.9621 15.8053 18.1515V22.9959H17.7388V18.4418L22.996 10.4772L28.2541 18.4432V22.9972H30.1877V18.1528C30.1877 17.9635 30.132 17.7783 30.0278 17.6202L24.1545 8.72209C24.1545 8.72209 26.09 5.77574 26.148 5.6628L30.4024 11.5712L30.4102 11.5655C31.3022 12.8065 32.757 13.6169 34.3984 13.6169H38.2015C40.0811 13.6169 41.6102 15.146 41.6102 17.0256V22.9953H43.5438V17.0256C43.5438 14.1122 41.1991 11.7375 38.298 11.6858ZM11.5945 11.682C9.95332 11.682 8.61817 10.3468 8.61817 8.70566C8.61817 7.06448 9.95332 5.72933 11.5945 5.72933C13.2357 5.72933 14.5708 7.06448 14.5708 8.70566C14.5708 10.3468 13.2356 11.682 11.5945 11.682ZM24.3409 4.92952L23.3737 6.39484L20.7125 4.45676L21.689 3.10061C22.1976 2.39423 23.1945 2.22153 23.9111 2.71574C24.6276 3.20994 24.8205 4.20302 24.3409 4.92952ZM34.3984 11.6833C32.7572 11.6833 31.4221 10.3482 31.4221 8.70698C31.4221 7.06588 32.7572 5.73065 34.3984 5.73065C36.0396 5.73065 37.3748 7.06579 37.3748 8.70698C37.3748 10.3481 36.0396 11.6833 34.3984 11.6833Z" fill="white"/>
<path d="M7.97461 17.1875C7.44067 17.1875 7.00781 17.6204 7.00781 18.1543V22.9088H8.94141V18.1543C8.94141 17.6203 8.50854 17.1875 7.97461 17.1875Z" fill="white"/>
<path d="M44.5332 22.0312H1.4668C0.932861 22.0312 0.5 22.4641 0.5 22.998C0.5 29.008 2.84044 34.6582 7.09004 38.9079C11.3204 43.1383 17.0207 45.4758 23 45.4971C28.9793 45.4759 34.6795 43.1384 38.91 38.9079C43.1596 34.6582 45.5 29.008 45.5 22.998C45.5 22.4641 45.0671 22.0312 44.5332 22.0312ZM29.2035 23.9648C29.1583 27.0136 28.8999 29.9416 28.4498 32.5925H17.5502C17.1001 29.9417 16.8417 27.0137 16.7965 23.9648H29.2035ZM2.45574 23.9648H14.8628C14.9066 26.9958 15.1562 29.9193 15.5914 32.5925H4.79768C3.39986 29.9485 2.59602 27.017 2.45574 23.9648ZM8.45735 37.5407C7.52237 36.6057 6.68926 35.5962 5.96196 34.5261H15.9478C16.2447 35.9605 16.5987 37.3044 17.0074 38.5301C17.7192 40.6655 18.4968 42.1748 19.279 43.2294C15.2022 42.4884 11.4498 40.5331 8.45735 37.5407ZM23 43.5645C21.5746 43.5645 20.0202 41.4538 18.8417 37.9186C18.4935 36.874 18.1868 35.7367 17.9234 34.5261H28.0766C27.8131 35.7367 27.5065 36.874 27.1583 37.9186C25.9798 41.4538 24.4254 43.5645 23 43.5645ZM37.5426 37.5407C34.5502 40.533 30.7978 42.4884 26.721 43.2293C27.5032 42.1747 28.2808 40.6654 28.9926 38.53C29.4013 37.3043 29.7553 35.9604 30.0522 34.526H40.038C39.3107 35.5962 38.4776 36.6057 37.5426 37.5407ZM41.2023 32.5925H30.4086C30.8438 29.9194 31.0934 26.9958 31.1372 23.9648H43.5443C43.404 27.017 42.6001 29.9485 41.2023 32.5925Z" fill="white"/>
</g>
<defs>
<clipPath id="clip0_1000_2431">
<rect width="45" height="45" fill="white" transform="translate(0.5 0.5)"/>
</clipPath>
</defs>
</svg>
