<svg width="46" height="46" viewBox="0 0 46 46" fill="none" xmlns="http://www.w3.org/2000/svg">
<g clip-path="url(#clip0_1000_2441)">
<path d="M42.8335 3.17117C41.1109 1.4486 38.8207 0.5 36.3847 0.5C33.9486 0.5 31.6585 1.4486 29.9359 3.17117L24.25 8.85708L25.6173 10.2244L31.3032 4.53849C32.6605 3.1811 34.4651 2.43359 36.3847 2.43359C38.3042 2.43359 40.1089 3.1811 41.4662 4.53849C44.2681 7.34044 44.2681 11.8995 41.4662 14.7015L35.7803 20.3874L37.1476 21.7547L42.8335 16.0688C46.3893 12.5129 46.3893 6.72705 42.8335 3.17117Z" fill="white"/>
<path d="M38.1122 21.3534L24.6512 7.89256C24.2736 7.51498 23.6616 7.51498 23.2839 7.89256L13.1384 18.0381C12.9571 18.2194 12.8552 18.4654 12.8552 18.7217C12.8552 18.9781 12.957 19.224 13.1384 19.4054L16.2563 22.5233L1.93978 38.0303C1.58769 38.4116 1.59955 39.0029 1.96649 39.3698L3.61708 41.0204L0.78709 43.8504C0.409512 44.228 0.409512 44.8401 0.78709 45.2177C0.975967 45.4064 1.22329 45.5008 1.47079 45.5008C1.71829 45.5008 1.96562 45.4064 2.1544 45.2176L4.98431 42.3876L6.63489 44.0382C6.82333 44.2266 7.07074 44.3214 7.31859 44.3214C7.55353 44.3214 7.78881 44.2362 7.97435 44.0649L23.4814 29.7483L26.5993 32.8662C26.7881 33.055 27.0355 33.1494 27.283 33.1494C27.5304 33.1494 27.7778 33.055 27.9666 32.8662L38.1121 22.7207C38.2934 22.5394 38.3953 22.2934 38.3953 22.0371C38.3953 21.7807 38.2935 21.5348 38.1122 21.3534ZM7.34531 42.0142L3.99062 38.6595L5.82727 36.6701L9.33472 40.1775L7.34531 42.0142ZM10.7566 38.8648L7.14 35.2482L17.6247 23.8916L22.1131 28.38L10.7566 38.8648ZM27.283 30.8154L15.1893 18.7217L18.8948 15.0163L30.9885 27.1099L27.283 30.8154ZM32.3558 25.7426L20.2621 13.649L23.9675 9.94349L36.0613 22.0372L32.3558 25.7426Z" fill="white"/>
</g>
<defs>
<clipPath id="clip0_1000_2441">
<rect width="45" height="45" fill="white" transform="translate(0.5 0.5)"/>
</clipPath>
</defs>
</svg>
