<svg width="46" height="46" viewBox="0 0 46 46" fill="none" xmlns="http://www.w3.org/2000/svg">
<g clip-path="url(#clip0_1000_2448)">
<path d="M18.8027 13.8914C18.2688 13.8914 17.8359 13.4585 17.8359 12.9246V1.46847C17.8835 0.187111 19.7224 0.188077 19.7695 1.46847V12.9246C19.7695 13.4585 19.3367 13.8914 18.8027 13.8914Z" fill="white"/>
<path d="M27.2051 13.8914C26.6711 13.8914 26.2383 13.4585 26.2383 12.9246V1.46847C26.2858 0.187111 28.1248 0.188077 28.1719 1.46847V12.9246C28.1719 13.4585 27.739 13.8914 27.2051 13.8914Z" fill="white"/>
<path d="M18.8027 44.0629C18.2688 44.0629 17.8359 43.63 17.8359 43.0961V29.988C17.8835 28.7066 19.7224 28.7076 19.7695 29.988V43.0962C19.7695 43.63 19.3367 44.0629 18.8027 44.0629Z" fill="white"/>
<path d="M27.2051 44.0358C26.6711 44.0358 26.2383 43.603 26.2383 43.069V29.988C26.2858 28.7066 28.1248 28.7076 28.1719 29.988V43.069C28.1719 43.603 27.739 44.0358 27.2051 44.0358Z" fill="white"/>
<path d="M23.002 45.4999C22.9179 45.4999 22.8338 45.4889 22.7518 45.467C5.79381 41.1699 2.57666 25.9059 2.77819 11.0952C2.77802 10.5614 3.21079 10.1286 3.74481 10.1286C8.52097 10.1286 12.4066 6.24286 12.4066 1.4668C12.4066 0.932861 12.8395 0.5 13.3734 0.5H32.6306C33.1645 0.5 33.5974 0.932861 33.5974 1.4668C33.5974 6.24295 37.483 10.1286 42.2592 10.1286C42.7931 10.1286 43.226 10.5615 43.226 11.0954C43.4306 25.9072 40.2 41.1779 23.2522 45.467C23.1702 45.4889 23.0861 45.4999 23.002 45.4999ZM4.71486 12.0181C4.81427 25.9147 7.28197 39.1873 23.002 43.5312C38.7219 39.1873 41.1896 25.9147 41.2891 12.0181C36.2182 11.5557 32.1685 7.50488 31.7075 2.43351H14.2964C13.8354 7.50488 9.78571 11.5557 4.71486 12.0181Z" fill="white"/>
<path d="M34.9086 13.2784H32.3741V11.6192C32.3741 11.3117 32.2277 11.0225 31.98 10.8403C31.7322 10.6581 31.4126 10.6047 31.1189 10.6965L23.0041 13.2323L14.8894 10.6965C14.5957 10.6045 14.2762 10.6581 14.0283 10.8403C13.7805 11.0225 13.6342 11.3116 13.6342 11.6192V13.2784H11.0996C10.5657 13.2784 10.1328 13.7113 10.1328 14.2452V30.0011C10.1328 30.5351 10.5657 30.9679 11.0996 30.9679H34.9086C35.4425 30.9679 35.8754 30.5351 35.8754 30.0011V14.2452C35.8754 13.7113 35.4425 13.2784 34.9086 13.2784ZM23.9709 14.956L30.4405 12.9342V25.3513L23.9709 27.3731V14.956ZM22.0373 14.956V27.3731L15.5678 25.3513V14.3766C15.5807 14.2909 15.5807 14.1995 15.5678 14.1138V12.9342L22.0373 14.956ZM12.0664 15.212H13.6342V26.0621C13.6342 26.485 13.909 26.8588 14.3126 26.985L20.8708 29.0344H12.0664V15.212ZM33.9418 29.0343H25.1375L31.6956 26.9849C32.0992 26.8587 32.3741 26.4849 32.3741 26.062V15.2119H33.9418V29.0343Z" fill="white"/>
</g>
<defs>
<clipPath id="clip0_1000_2448">
<rect width="45" height="45" fill="white" transform="translate(0.5 0.5)"/>
</clipPath>
</defs>
</svg>
