<svg width="32" height="32" viewBox="0 0 32 32" fill="none" xmlns="http://www.w3.org/2000/svg">
<g clip-path="url(#clip0_372_4232)">
<path d="M26.0198 21.9133L21.399 20.607L19.0332 18.7467V17.4465C20.5909 16.445 21.6248 14.6966 21.6248 12.7112V9.2832H20.2493V12.7112C20.2493 15.0546 18.3428 16.9612 15.9993 16.9612C13.6558 16.9612 11.7493 15.0546 11.7493 12.7112V9.2832H10.3739V12.7112C10.3739 14.6966 11.4078 16.445 12.9654 17.4465V18.7467L10.5996 20.607L5.97886 21.9132C3.90988 22.4978 2.46484 24.4076 2.46484 26.5576V31.3123C2.46484 31.6921 2.77276 32 3.15257 32H28.846C29.2258 32 29.5337 31.6921 29.5337 31.3123V26.5576C29.5338 24.4076 28.0887 22.4978 26.0198 21.9133ZM15.9993 29.0232L13.9567 25.3187L15.9993 23.276L18.042 25.3187L15.9993 29.0232ZM16.9014 22.2328L18.4814 20.0625L20.1966 21.4112L18.7334 24.0648L16.9014 22.2328ZM15.9993 18.3366C16.5763 18.3366 17.1333 18.2491 17.6577 18.087V18.857L15.9993 21.135L14.3409 18.857V18.087C14.8654 18.2491 15.4223 18.3366 15.9993 18.3366ZM13.5173 20.0625L15.0973 22.2329L13.2653 24.0649L11.8021 21.4112L13.5173 20.0625ZM3.84035 26.5576C3.84035 25.0203 4.87357 23.6548 6.35299 23.2368L10.5792 22.0421L15.3115 30.6245H3.84035V26.5576ZM28.1583 30.6245H16.6871L21.4195 22.0421L25.6457 23.2368C27.1251 23.6548 28.1583 25.0203 28.1583 26.5576V30.6245H28.1583Z" fill="white"/>
<path d="M27.3877 9.34272V4.94785C27.3877 4.66626 27.216 4.41305 26.9543 4.30889L16.2529 0.0488128C16.0896 -0.0162709 15.9076 -0.0162709 15.7442 0.0488128L5.04277 4.30889C4.78106 4.41305 4.60938 4.66619 4.60938 4.94785C4.60938 5.2295 4.78106 5.48265 5.04277 5.58681L9.96881 7.54782V9.30564C9.96881 9.66976 10.2527 9.9708 10.6161 9.99218C12.4102 10.0977 14.1052 10.6056 15.654 11.502C15.7606 11.5637 15.8795 11.5945 15.9985 11.5945C16.1176 11.5945 16.2365 11.5637 16.343 11.502C17.8918 10.6056 19.5869 10.0977 21.3809 9.99218C21.7444 9.9708 22.0282 9.66976 22.0282 9.30564V7.54782L26.0122 5.96187V9.34278C25.1031 9.63438 24.443 10.4875 24.443 11.4922V16.7941C24.443 17.1739 24.7509 17.4818 25.1307 17.4818H28.2692C28.649 17.4818 28.9569 17.1739 28.9569 16.7941V11.4922C28.9569 10.4875 28.2969 9.63431 27.3877 9.34272ZM20.6529 8.67388C19.0263 8.85362 17.4354 9.34728 15.9986 10.1194C14.5618 9.34728 12.9708 8.85362 11.3443 8.67388V6.6474H20.6529V8.67388H20.6529ZM22.0283 6.0674V5.95968C22.0283 5.57987 21.7204 5.27195 21.3406 5.27195H10.6565C10.2767 5.27195 9.96881 5.57987 9.96881 5.95968V6.0674L7.15652 4.94785L15.9985 1.42795L24.8405 4.94785L22.0283 6.0674ZM26.7 10.6107C27.186 10.6107 27.5815 11.0061 27.5815 11.4922V12.0517H25.8185V11.4922C25.8185 11.0061 26.2139 10.6107 26.7 10.6107ZM25.8185 16.1064V13.4272H27.5815V16.1064H25.8185Z" fill="white"/>
<path d="M15.9961 15.327C15.5697 15.327 15.1432 15.1647 14.8186 14.8401C14.55 14.5715 14.55 14.136 14.8186 13.8675C15.0873 13.5989 15.5226 13.5989 15.7913 13.8675C15.8651 13.9413 15.9513 13.9523 15.9961 13.9523C16.0408 13.9523 16.1271 13.9413 16.2009 13.8675C16.4695 13.5989 16.9049 13.5989 17.1735 13.8675C17.4421 14.136 17.4421 14.5715 17.1735 14.8401C16.8489 15.1646 16.4225 15.327 15.9961 15.327Z" fill="white"/>
</g>
<defs>
<clipPath id="clip0_372_4232">
<rect width="32" height="32" fill="white"/>
</clipPath>
</defs>
</svg>
