<svg width="31" height="32" viewBox="0 0 31 32" fill="none" xmlns="http://www.w3.org/2000/svg">
<path d="M28.6211 15.5746C27.6348 14.6014 26.0343 14.606 25.0536 15.5847L20.5385 20.0901C20.4142 19.8266 20.2456 19.583 20.0362 19.3692C19.5463 18.8691 18.8952 18.5937 18.2026 18.5937C18.2026 18.5937 18.2023 18.5937 18.2023 18.5937L15.9848 18.5938C15.2061 18.5939 14.4393 18.383 13.7673 17.984C12.8506 17.4397 11.8038 17.1519 10.7401 17.1519C9.00495 17.1519 7.37752 17.8277 6.15752 19.0547C5.55102 19.6648 4.84214 20.3762 4.14133 21.0787L4.07352 21.0109C3.80502 20.7424 3.3697 20.7424 3.1012 21.0109L0.201328 23.9108C-0.0671094 24.1793 -0.0671094 24.6146 0.201328 24.8831L7.11539 31.7972C7.24964 31.9314 7.42558 31.9985 7.60152 31.9985C7.77745 31.9985 7.95339 31.9314 8.08764 31.7972L10.9875 28.8973C11.256 28.6288 11.256 28.1935 10.9875 27.925L10.9295 27.867C11.2098 27.6618 11.5467 27.5507 11.9008 27.5507H18.0281C19.4391 27.5507 20.7668 27.0024 21.7665 26.0067L28.6295 19.1717C29.1118 18.6914 29.3765 18.052 29.375 17.3713C29.3734 16.6907 29.1057 16.0527 28.6211 15.5746ZM7.60158 30.3388L1.65977 24.397L3.58739 22.4693L9.5292 28.4111L7.60158 30.3388ZM27.6593 18.1975L20.7963 25.0325C20.056 25.7697 19.073 26.1757 18.0281 26.1757H11.9008C11.179 26.1757 10.4961 26.4276 9.95133 26.8887L5.11358 22.051C5.81533 21.3474 6.52527 20.635 7.13264 20.0242C8.09258 19.0586 9.37377 18.5268 10.7401 18.5268C11.5568 18.5268 12.3609 18.748 13.0653 19.1662C13.9496 19.6913 14.9593 19.9688 15.985 19.9687L18.2025 19.9685C18.5224 19.9685 18.8248 20.0973 19.054 20.3313C19.2859 20.5681 19.4136 20.8812 19.4136 21.213C19.4136 21.5252 19.292 21.821 19.0711 22.0458C18.852 22.2688 18.5636 22.3916 18.2589 22.3916C18.2588 22.3916 18.2588 22.3916 18.2587 22.3916L13.3759 22.3909H13.3758C12.9962 22.3909 12.6884 22.6987 12.6883 23.0783C12.6883 23.458 12.996 23.7658 13.3758 23.7659L18.2585 23.7666H18.259C18.9355 23.7666 19.5723 23.4977 20.052 23.0095C20.3696 22.6863 20.5912 22.2938 20.7036 21.8677L26.025 16.5578C26.4732 16.1106 27.2047 16.1084 27.6556 16.5533C27.877 16.7718 27.9994 17.0634 28.0001 17.3745C28.0008 17.6858 27.8797 17.978 27.6593 18.1975Z" fill="white"/>
<path d="M10.5732 6.38181C10.0556 6.19881 9.48401 5.97856 9.17008 5.73231C9.10026 5.67756 9.0702 5.52844 9.09858 5.37769C9.11395 5.29606 9.18539 5.02325 9.45808 4.94112C9.95726 4.79075 10.4249 5.00325 10.6028 5.10156C10.9351 5.28525 11.3535 5.16481 11.5371 4.83244C11.7208 4.50013 11.6003 4.08181 11.268 3.89819C11.0701 3.78881 10.7739 3.654 10.4123 3.576V3.4375C10.4123 3.05781 10.1045 2.75 9.72483 2.75C9.34514 2.75 9.03733 3.05781 9.03733 3.4375V3.63281C8.37495 3.84244 7.88158 4.41075 7.74733 5.12306C7.62164 5.78988 7.84164 6.43794 8.32145 6.81425C8.79064 7.18225 9.4607 7.447 10.1149 7.67825C10.6083 7.85269 10.623 8.22962 10.5878 8.43881C10.5285 8.79156 10.2318 9.17275 9.72033 9.17619C9.17576 9.17987 9.0207 9.15525 8.61083 8.88713C8.29301 8.67925 7.86701 8.76831 7.65914 9.08606C7.45126 9.40381 7.54033 9.82988 7.85808 10.0378C8.30639 10.3311 8.64464 10.4622 9.03739 10.5166V10.6875C9.03739 11.0672 9.3452 11.375 9.72489 11.375C10.1046 11.375 10.4124 11.0672 10.4124 10.6875V10.4443C11.2698 10.1711 11.8182 9.41406 11.9438 8.66675C12.1147 7.65025 11.5639 6.732 10.5732 6.38181Z" fill="white"/>
<path d="M9.76562 14.125C5.87131 14.125 2.70312 10.9568 2.70312 7.0625C2.70312 3.16819 5.87131 0 9.76562 0C13.6599 0 16.8281 3.16819 16.8281 7.0625C16.8281 10.9568 13.6599 14.125 9.76562 14.125ZM9.76562 1.375C6.6295 1.375 4.07812 3.92637 4.07812 7.0625C4.07812 10.1986 6.6295 12.75 9.76562 12.75C12.9018 12.75 15.4531 10.1986 15.4531 7.0625C15.4531 3.92637 12.9018 1.375 9.76562 1.375Z" fill="white"/>
<path d="M30.001 6.22656H28.0368C27.6571 6.22656 27.3493 6.53438 27.3493 6.91406C27.3493 7.29375 27.6571 7.60156 28.0368 7.60156H28.3411L25.0368 10.906L22.6226 8.49181C22.354 8.22331 21.9188 8.22331 21.6503 8.49181L14.6232 15.5189C14.3548 15.7874 14.3548 16.2228 14.6232 16.4913C14.7575 16.6255 14.9334 16.6926 15.1093 16.6926C15.2853 16.6926 15.4612 16.6255 15.5955 16.4913L22.1365 9.95025L24.5506 12.3644C24.8192 12.6329 25.2544 12.6329 25.523 12.3644L29.3135 8.57394V8.87831C29.3135 9.258 29.6213 9.56581 30.001 9.56581C30.3806 9.56581 30.6885 9.258 30.6885 8.87831V6.91412C30.6885 6.53437 30.3806 6.22656 30.001 6.22656Z" fill="white"/>
</svg>
