<svg width="32" height="32" viewBox="0 0 32 32" fill="none" xmlns="http://www.w3.org/2000/svg">
<path d="M8.28125 20.2734H4.6875C4.30781 20.2734 4 20.5813 4 20.9609V30.0761H5.375V21.6484H7.59375V30.0761H8.96875V20.9609C8.96875 20.5813 8.66094 20.2734 8.28125 20.2734Z" fill="white"/>
<path d="M14.6328 17.1484H11.0391C10.6594 17.1484 10.3516 17.4562 10.3516 17.8359V30.0761H11.7266V18.5234H13.9453V30.0761H15.3203V17.8359C15.3203 17.4562 15.0125 17.1484 14.6328 17.1484Z" fill="white"/>
<path d="M20.9688 14.0234H17.375C16.9953 14.0234 16.6875 14.3313 16.6875 14.7109V30.0761H18.0625V15.3984H20.2812V30.0761H21.6562V14.7109C21.6562 14.3313 21.3484 14.0234 20.9688 14.0234Z" fill="white"/>
<path d="M27.3125 10.8984H23.7188C23.3391 10.8984 23.0312 11.2063 23.0312 11.5859V30.0761H24.4062V12.2734H26.625V30.0761H28V11.5859C28 11.2063 27.6922 10.8984 27.3125 10.8984Z" fill="white"/>
<path d="M31.7986 29.5868L30.559 28.3472C30.2905 28.0788 29.8552 28.0788 29.5867 28.3472C29.3183 28.6157 29.3183 29.0511 29.5867 29.3196L29.6526 29.3855H2.61452V2.34731L2.68045 2.41325C2.8147 2.5475 2.99064 2.61462 3.16658 2.61462C3.34252 2.61462 3.51845 2.5475 3.6527 2.41325C3.92114 2.14475 3.92114 1.70944 3.6527 1.44094L2.41314 0.201375C2.14464 -0.067125 1.70933 -0.067125 1.44083 0.201375L0.201328 1.44094C-0.0671094 1.70944 -0.0671094 2.14475 0.201328 2.41325C0.469828 2.68175 0.905141 2.68175 1.17364 2.41325L1.23958 2.34731V30.0729C1.23958 30.4526 1.54739 30.7604 1.92708 30.7604H29.6527L29.5868 30.8264C29.3183 31.0949 29.3183 31.5302 29.5868 31.7987C29.721 31.9329 29.8969 32.0001 30.0729 32.0001C30.2488 32.0001 30.4248 31.9329 30.559 31.7987L31.7986 30.5591C32.0671 30.2906 32.0671 29.8553 31.7986 29.5868Z" fill="white"/>
<path d="M6.48438 19.0455C6.86406 19.0455 7.17188 18.7377 7.17188 18.358V14.6241C7.17188 13.2542 8.28638 12.1397 9.65625 12.1397C11.0261 12.1397 12.1406 13.2542 12.1406 14.6241V15.1829C12.1406 15.5626 12.4484 15.8704 12.8281 15.8704C13.2078 15.8704 13.5156 15.5626 13.5156 15.1829V11.4491C13.5156 10.0792 14.6301 8.96469 16 8.96469C17.3699 8.96469 18.4844 10.0792 18.4844 11.4491V12.0079C18.4844 12.3876 18.7922 12.6954 19.1719 12.6954C19.5516 12.6954 19.8594 12.3876 19.8594 12.0079V8.274C19.8594 6.90413 20.9739 5.78963 22.3438 5.78963C23.7136 5.78963 24.8281 6.90413 24.8281 8.274V8.83281C24.8281 9.2125 25.1359 9.52031 25.5156 9.52031C25.8953 9.52031 26.2031 9.2125 26.2031 8.83281V5.09894C26.2031 3.72906 27.3176 2.61456 28.6875 2.61456H28.8923L28.8263 2.6805C28.5579 2.949 28.5579 3.38431 28.8263 3.65281C28.9606 3.78706 29.1365 3.85419 29.3124 3.85419C29.4884 3.85419 29.6643 3.78706 29.7986 3.65281L31.0381 2.41325C31.3066 2.14475 31.3066 1.70944 31.0381 1.44094L29.7986 0.201375C29.5301 -0.067125 29.0948 -0.067125 28.8263 0.201375C28.5579 0.469875 28.5579 0.905187 28.8263 1.17369L28.8923 1.23962H28.6875C26.5594 1.23962 24.8281 2.97094 24.8281 5.099V5.32281C24.1563 4.75638 23.2892 4.41469 22.3438 4.41469C20.2157 4.41469 18.4844 6.146 18.4844 8.27406V8.49788C17.8126 7.93144 16.9454 7.58975 16 7.58975C13.8719 7.58975 12.1406 9.32106 12.1406 11.4491V11.6729C11.4688 11.1065 10.6017 10.7648 9.65625 10.7648C7.52819 10.7648 5.79688 12.4961 5.79688 14.6242V18.3581C5.79688 18.7377 6.10469 19.0455 6.48438 19.0455Z" fill="white"/>
</svg>
