<svg width="32" height="32" viewBox="0 0 32 32" fill="none" xmlns="http://www.w3.org/2000/svg">
<path d="M14.8405 28.6907H5.13281C4.06444 28.6907 3.19531 27.8215 3.19531 26.7532V24.6563C3.19531 23.5879 4.0645 22.7188 5.13281 22.7188H14.8404C15.9088 22.7188 16.7779 23.5879 16.7779 24.6563V26.7532C16.778 27.8216 15.9088 28.6907 14.8405 28.6907ZM5.13281 24.0938C4.82263 24.0938 4.57031 24.3462 4.57031 24.6563V26.7533C4.57031 27.0634 4.82269 27.3158 5.13281 27.3158H14.8404C15.1506 27.3158 15.4029 27.0634 15.4029 26.7533V24.6563C15.4029 24.3462 15.1506 24.0938 14.8404 24.0938H5.13281Z" fill="white"/>
<path d="M31.243 27.0707L30.7517 23.9105C30.6449 23.2237 30.0629 22.7253 29.3679 22.7253H26.9952V21.4623C26.9952 20.5795 27.2484 19.7561 27.7273 19.0812C28.1804 18.4426 28.4199 17.6902 28.4199 16.9053C28.4199 15.8722 28.0099 14.9086 27.2656 14.1919C26.7253 13.6719 26.0607 13.3342 25.3416 13.2024V1.9375C25.3416 0.869187 24.4724 0 23.4041 0H1.9375C0.869187 0 0 0.869187 0 1.9375V30.0625C0 31.1308 0.869187 32 1.9375 32H23.4041C24.4724 32 25.3416 31.1308 25.3416 30.0625V28.6863H29.8592C30.2687 28.6863 30.6564 28.5079 30.9228 28.1969C31.1892 27.8858 31.3059 27.4754 31.243 27.0707ZM27.0449 16.9052C27.0449 17.4034 26.8931 17.8807 26.606 18.2854C25.9611 19.1941 25.6202 20.2927 25.6202 21.4622V22.7252H23.688V21.4622C23.688 20.3339 23.3374 19.2214 22.6741 18.245C22.3864 17.8214 22.2449 17.3247 22.2651 16.8088C22.3134 15.5703 23.3215 14.5631 24.5601 14.5161C25.2177 14.4908 25.8397 14.7277 26.312 15.1824C26.7846 15.6375 27.0449 16.2493 27.0449 16.9052ZM23.9666 30.0625C23.9666 30.3726 23.7142 30.625 23.4041 30.625H1.9375C1.62737 30.625 1.375 30.3726 1.375 30.0625V1.9375C1.375 1.62738 1.62737 1.375 1.9375 1.375H23.4041C23.7142 1.375 23.9666 1.62738 23.9666 1.9375V13.2025C22.2699 13.5188 20.9601 14.9874 20.8911 16.7551C20.8594 17.5667 21.0826 18.3491 21.5366 19.0176C22.0445 19.7653 22.3129 20.6106 22.3129 21.4622V22.7253H19.9402C19.2451 22.7253 18.6631 23.2238 18.5564 23.9106L18.0651 27.0707C18.0021 27.4754 18.1188 27.8859 18.3852 28.1969C18.6517 28.508 19.0393 28.6864 19.4489 28.6864H23.9666V30.0625ZM29.8785 27.3024C29.8709 27.3113 29.8636 27.3113 29.8592 27.3113H19.4489C19.4445 27.3113 19.4371 27.3113 19.4296 27.3024C19.4219 27.2935 19.4231 27.2863 19.4237 27.2819L19.915 24.1216C19.9169 24.1092 19.9275 24.1002 19.9401 24.1002H29.3678C29.3804 24.1002 29.3911 24.1093 29.393 24.1217L29.8842 27.2819C29.885 27.2863 29.8861 27.2935 29.8785 27.3024Z" fill="white"/>
<path d="M4.69531 5.21094H12.6724C13.0521 5.21094 13.3599 4.90313 13.3599 4.52344C13.3599 4.14375 13.0521 3.83594 12.6724 3.83594H4.69531C4.31563 3.83594 4.00781 4.14375 4.00781 4.52344C4.00781 4.90313 4.31563 5.21094 4.69531 5.21094Z" fill="white"/>
<path d="M4.69531 9.24219H19.7968C20.1765 9.24219 20.4843 8.93438 20.4843 8.55469C20.4843 8.175 20.1765 7.86719 19.7968 7.86719H4.69531C4.31562 7.86719 4.00781 8.175 4.00781 8.55469C4.00781 8.93438 4.31562 9.24219 4.69531 9.24219Z" fill="white"/>
<path d="M4.69531 12.2969H19.7968C20.1765 12.2969 20.4843 11.9891 20.4843 11.6094C20.4843 11.2297 20.1765 10.9219 19.7968 10.9219H4.69531C4.31562 10.9219 4.00781 11.2297 4.00781 11.6094C4.00781 11.9891 4.31562 12.2969 4.69531 12.2969Z" fill="white"/>
<path d="M4.69531 16.6016H18.3663C18.7459 16.6016 19.0538 16.2938 19.0538 15.9141C19.0538 15.5344 18.7459 15.2266 18.3663 15.2266H4.69531C4.31563 15.2266 4.00781 15.5344 4.00781 15.9141C4.00781 16.2938 4.31563 16.6016 4.69531 16.6016Z" fill="white"/>
<path d="M16.4746 18.2812H4.69531C4.31563 18.2812 4.00781 18.5891 4.00781 18.9688C4.00781 19.3484 4.31563 19.6562 4.69531 19.6562H16.4745C16.8542 19.6562 17.162 19.3484 17.162 18.9688C17.162 18.5891 16.8543 18.2812 16.4746 18.2812Z" fill="white"/>
</svg>
