<svg width="29" height="32" viewBox="0 0 29 32" fill="none" xmlns="http://www.w3.org/2000/svg">
<path d="M11.4062 9.52501C11.0266 9.52501 10.7188 9.21719 10.7188 8.83751V0.690945C10.7526 -0.220242 12.0603 -0.219555 12.0938 0.690945V8.83751C12.0938 9.21719 11.7859 9.52501 11.4062 9.52501Z" fill="white"/>
<path d="M17.375 9.52501C16.9953 9.52501 16.6875 9.21719 16.6875 8.83751V0.690945C16.7213 -0.220242 18.029 -0.219555 18.0625 0.690945V8.83751C18.0625 9.21719 17.7547 9.52501 17.375 9.52501Z" fill="white"/>
<path d="M11.4062 30.9771C11.0266 30.9771 10.7188 30.6693 10.7188 30.2896V20.9683C10.7526 20.0571 12.0603 20.0578 12.0938 20.9683V30.2897C12.0938 30.6693 11.7859 30.9771 11.4062 30.9771Z" fill="white"/>
<path d="M17.375 30.9618C16.9953 30.9618 16.6875 30.6539 16.6875 30.2743V20.9722C16.7213 20.061 18.029 20.0617 18.0625 20.9722V30.2743C18.0625 30.6539 17.7547 30.9618 17.375 30.9618Z" fill="white"/>
<path d="M14.3875 31.9999C14.3277 31.9999 14.2679 31.9921 14.2096 31.9765C2.1506 28.9208 -0.137153 18.0664 0.00615983 7.53437C0.00603483 7.15475 0.313785 6.847 0.693535 6.847C4.08991 6.847 6.85303 4.08381 6.85303 0.6875C6.85303 0.307812 7.16085 0 7.54053 0H21.2345C21.6142 0 21.922 0.307812 21.922 0.6875C21.922 4.08387 24.6852 6.847 28.0815 6.847C28.4612 6.847 28.769 7.15481 28.769 7.5345C28.9145 18.0673 26.6172 28.9265 14.5655 31.9766C14.5072 31.9921 14.4473 31.9999 14.3875 31.9999ZM1.38335 8.19062C1.45403 18.0727 3.20885 27.5109 14.3875 30.5999C25.5662 27.5109 27.321 18.0727 27.3917 8.19062C23.7857 7.86181 20.9059 4.98125 20.5781 1.37494H8.19691C7.8691 4.98125 4.98928 7.86181 1.38335 8.19062Z" fill="white"/>
<path d="M22.8527 9.08619H21.0504V7.90631C21.0504 7.68763 20.9463 7.482 20.7701 7.35238C20.5939 7.22288 20.3667 7.18488 20.1578 7.25013L14.3873 9.05338L8.61681 7.25013C8.408 7.18475 8.18075 7.22281 8.0045 7.35238C7.82831 7.48194 7.72425 7.68756 7.72425 7.90631V9.08619H5.92188C5.54219 9.08619 5.23438 9.394 5.23438 9.77369V20.9779C5.23438 21.3576 5.54219 21.6654 5.92188 21.6654H22.8527C23.2324 21.6654 23.5402 21.3576 23.5402 20.9779V9.77369C23.5402 9.394 23.2324 9.08619 22.8527 9.08619ZM15.0748 10.2791L19.6754 8.84144V17.6714L15.0748 19.1091V10.2791ZM13.6998 10.2791V19.1091L9.09925 17.6714V9.86713C9.10844 9.80619 9.10844 9.74119 9.09925 9.68025V8.84144L13.6998 10.2791ZM6.60937 10.4612H7.72425V18.1768C7.72425 18.4775 7.91969 18.7433 8.20669 18.8331L12.8703 20.2904H6.60937V10.4612ZM22.1652 20.2904H15.9044L20.5679 18.833C20.8549 18.7432 21.0504 18.4774 21.0504 18.1768V10.4611H22.1652V20.2904Z" fill="white"/>
</svg>
