<svg width="32" height="27" viewBox="0 0 32 27" fill="none" xmlns="http://www.w3.org/2000/svg">
<path d="M10.3838 10.6528H9.70035L6.49128 2.59688C6.49015 2.59406 6.48865 2.59144 6.48753 2.58863C6.48271 2.57694 6.47721 2.56563 6.47177 2.55425C6.46727 2.54494 6.46303 2.53544 6.45815 2.52638C6.45278 2.51631 6.44671 2.50669 6.44084 2.49694C6.43502 2.48725 6.42946 2.47744 6.42321 2.46813C6.41734 2.45938 6.41084 2.45106 6.40452 2.4425C6.39752 2.43306 6.39077 2.42344 6.38334 2.41438C6.37634 2.40588 6.36871 2.39794 6.36134 2.38975C6.3539 2.38156 6.34665 2.37306 6.33884 2.36525C6.33027 2.35669 6.32096 2.34869 6.3119 2.3405C6.30452 2.33388 6.2974 2.32694 6.28977 2.32069C6.28009 2.31269 6.26971 2.30538 6.25952 2.29788C6.25171 2.29213 6.24409 2.28613 6.23609 2.28075C6.22621 2.27413 6.21584 2.26819 6.20559 2.26206C6.19634 2.25656 6.18727 2.25088 6.17784 2.24575C6.16834 2.24069 6.15846 2.23619 6.14865 2.2315C6.13771 2.22625 6.12677 2.221 6.11559 2.21638C6.11265 2.21519 6.11002 2.21363 6.10709 2.2125C6.10015 2.20975 6.09315 2.20787 6.08621 2.20537C6.07465 2.20119 6.06309 2.19706 6.05134 2.1935C6.0409 2.19031 6.03046 2.18769 6.01996 2.18506C6.00871 2.18225 5.99746 2.1795 5.98609 2.17725C5.97515 2.17506 5.96415 2.17338 5.95321 2.17169C5.94202 2.17 5.93084 2.1685 5.91952 2.16738C5.90859 2.16631 5.89765 2.16562 5.88671 2.16506C5.87515 2.1645 5.86359 2.16406 5.85202 2.16406C5.84146 2.16406 5.8309 2.16444 5.8204 2.16494C5.80846 2.1655 5.79659 2.16625 5.78465 2.16744C5.77433 2.1685 5.76415 2.16987 5.7539 2.17137C5.74202 2.17312 5.73015 2.175 5.71827 2.17737C5.70777 2.1795 5.69746 2.182 5.68708 2.18463C5.67583 2.18744 5.66452 2.19031 5.65333 2.19375C5.64227 2.19713 5.63146 2.201 5.62058 2.20494C5.61321 2.20756 5.60571 2.20956 5.59833 2.2125C5.59521 2.21375 5.5924 2.21537 5.58933 2.21662C5.57871 2.22106 5.5684 2.22606 5.55802 2.23094C5.54765 2.23588 5.53721 2.24063 5.52715 2.246C5.51827 2.25075 5.50977 2.25613 5.50108 2.26131C5.49027 2.26775 5.47933 2.274 5.46896 2.281C5.46146 2.28606 5.45433 2.29169 5.44702 2.297C5.43633 2.30481 5.42546 2.3125 5.41533 2.32088C5.40808 2.32681 5.40133 2.33338 5.39433 2.33963C5.38483 2.34813 5.37521 2.35644 5.36627 2.36538C5.35871 2.37294 5.35171 2.38119 5.34446 2.38913C5.33683 2.3975 5.32896 2.40569 5.32183 2.41444C5.31452 2.42331 5.30783 2.43281 5.30096 2.44213C5.29458 2.45075 5.28796 2.45925 5.28196 2.46813C5.27577 2.47738 5.27021 2.48713 5.26446 2.49669C5.25852 2.5065 5.25246 2.51625 5.24702 2.52638C5.24221 2.53544 5.2379 2.54488 5.23346 2.55419C5.22802 2.56556 5.22252 2.57694 5.21771 2.58863C5.21652 2.59144 5.21508 2.594 5.21396 2.59681L2.00476 10.6528H1.32132C0.933878 10.6528 0.567627 10.822 0.316501 11.117C0.0639374 11.4137 -0.0451881 11.805 0.0171872 12.1905C0.238938 13.5615 0.943878 14.8174 2.00207 15.7268C3.07226 16.6465 4.4397 17.1529 5.85252 17.1529C7.26534 17.1529 8.63278 16.6464 9.70298 15.7268C10.7612 14.8174 11.466 13.5615 11.6879 12.1905C11.7502 11.805 11.6411 11.4137 11.3885 11.117C11.1375 10.822 10.7712 10.6528 10.3838 10.6528ZM5.85252 4.70914L8.22022 10.6528H3.48483L5.85252 4.70914ZM8.80685 14.6839C7.98591 15.3894 6.93671 15.7779 5.85252 15.7779C4.76833 15.7779 3.71914 15.3894 2.8982 14.6839C2.10032 13.9983 1.56419 13.0569 1.38407 12.0278H10.321C10.1409 13.0569 9.60472 13.9983 8.80685 14.6839Z" fill="white"/>
<path d="M31.6775 11.1169C31.4264 10.8219 31.0602 10.6527 30.6727 10.6527H29.9893L26.7802 2.59681C26.7791 2.594 26.7776 2.59144 26.7765 2.58863C26.7717 2.57694 26.7662 2.56556 26.7607 2.55413C26.7562 2.54481 26.752 2.53544 26.7472 2.52638C26.7417 2.51625 26.7356 2.5065 26.7297 2.49663C26.724 2.48706 26.7184 2.47731 26.7123 2.46813C26.7063 2.45919 26.6997 2.45069 26.6932 2.44206C26.6863 2.43281 26.6797 2.42331 26.6724 2.41444C26.6653 2.40581 26.6575 2.39769 26.65 2.38938C26.6426 2.38131 26.6356 2.373 26.6279 2.36531C26.6192 2.35663 26.6098 2.34856 26.6006 2.34025C26.5934 2.33375 26.5863 2.32694 26.5788 2.32075C26.5691 2.31269 26.5586 2.30531 26.5484 2.29781C26.5406 2.29213 26.5331 2.28619 26.5251 2.28081C26.5153 2.27419 26.5048 2.26825 26.4945 2.26206C26.4853 2.25656 26.4763 2.25088 26.4668 2.24581C26.4573 2.24069 26.4474 2.23625 26.4376 2.23156C26.4266 2.22631 26.4158 2.22106 26.4045 2.21644C26.4016 2.21525 26.399 2.21369 26.396 2.21256C26.3891 2.20981 26.3821 2.208 26.3752 2.20544C26.3636 2.20125 26.352 2.19713 26.3403 2.1935C26.3299 2.19038 26.3195 2.18769 26.309 2.18506C26.2977 2.18219 26.2864 2.17944 26.275 2.17719C26.2641 2.175 26.2531 2.17331 26.2422 2.17169C26.231 2.17 26.2197 2.1685 26.2084 2.16738C26.1975 2.16631 26.1866 2.16562 26.1757 2.16506C26.1641 2.1645 26.1526 2.16406 26.141 2.16406C26.1303 2.16406 26.1198 2.16444 26.1093 2.16494C26.0974 2.1655 26.0855 2.16625 26.0736 2.16744C26.0633 2.1685 26.053 2.16987 26.0427 2.17137C26.0309 2.17312 26.0191 2.17494 26.0073 2.17731C25.9967 2.17944 25.9862 2.182 25.9757 2.18463C25.9646 2.18744 25.9535 2.19025 25.9424 2.19363C25.9311 2.19706 25.9201 2.201 25.909 2.205C25.9018 2.20763 25.8944 2.20956 25.8872 2.21244C25.8841 2.21363 25.8814 2.21525 25.8784 2.2165C25.8675 2.221 25.857 2.22613 25.8464 2.23119C25.8363 2.236 25.8261 2.24063 25.8163 2.24588C25.8071 2.25081 25.7983 2.25638 25.7893 2.26169C25.7788 2.26794 25.7681 2.27406 25.7581 2.28081C25.7502 2.28613 25.7427 2.292 25.7351 2.29763C25.7248 2.30519 25.7143 2.31263 25.7045 2.32069C25.6968 2.32694 25.6897 2.33388 25.6823 2.3405C25.6733 2.34869 25.664 2.35663 25.6554 2.36525C25.6475 2.37313 25.6402 2.38169 25.6327 2.39C25.6254 2.39806 25.6178 2.40594 25.6109 2.41438C25.6034 2.4235 25.5966 2.43325 25.5895 2.44275C25.5833 2.45119 25.5768 2.45938 25.571 2.46806C25.5647 2.47744 25.5591 2.48738 25.5532 2.49713C25.5474 2.50681 25.5414 2.51638 25.5361 2.52631C25.5312 2.53544 25.5269 2.54494 25.5224 2.55438C25.517 2.56569 25.5115 2.577 25.5067 2.58863C25.5055 2.59144 25.5041 2.594 25.503 2.59688L22.2938 10.6528H21.6104C21.2229 10.6528 20.8567 10.822 20.6056 11.117C20.353 11.4137 20.2439 11.805 20.3062 12.1905C20.528 13.5615 21.2329 14.8174 22.2911 15.7268C23.3613 16.6465 24.7288 17.1529 26.1416 17.1529C27.5544 17.1529 28.9219 16.6464 29.992 15.7268C31.0503 14.8174 31.7552 13.5615 31.9769 12.1905C32.0392 11.8049 31.9301 11.4137 31.6775 11.1169ZM26.1415 4.70907L28.5092 10.6527H23.7738L26.1415 4.70907ZM29.0958 14.6839C28.2748 15.3893 27.2257 15.7778 26.1415 15.7778C25.0573 15.7778 24.0081 15.3893 23.1871 14.6839C22.3893 13.9982 21.8531 13.0568 21.673 12.0277H30.6099C30.4298 13.0568 29.8937 13.9982 29.0958 14.6839Z" fill="white"/>
<path d="M28.0695 1.58094H18.1796C17.8789 0.66419 17.0156 0 15.9997 0C14.9837 0 14.1204 0.66419 13.8197 1.58094H3.92969C3.55 1.58094 3.24219 1.88876 3.24219 2.26845C3.24219 2.64814 3.55 2.95595 3.92969 2.95595H13.7057V18.7683H12.3131C11.0637 18.7683 10.0472 19.7848 10.0472 21.0341V21.7556H9.35665C8.72471 21.7556 8.21058 22.2697 8.21058 22.9017V24.9798C8.21058 25.6117 8.72471 26.1259 9.35665 26.1259H22.6426C23.2745 26.1259 23.7886 25.6117 23.7886 24.9798V22.9017C23.7886 22.2697 23.2745 21.7556 22.6426 21.7556H21.952V21.0341C21.952 19.7848 20.9355 18.7683 19.6861 18.7683H18.2936V2.95595H28.0695C28.4492 2.95595 28.757 2.64814 28.757 2.26845C28.757 1.88876 28.4492 1.58094 28.0695 1.58094ZM15.9996 1.37494C16.5063 1.37494 16.9186 1.78719 16.9186 2.29388C16.9186 2.80057 16.5063 3.21282 15.9996 3.21282C15.4929 3.21282 15.0807 2.80057 15.0807 2.29388C15.0807 1.78719 15.4929 1.37494 15.9996 1.37494ZM22.4136 24.7508H9.58559V23.1306H22.4136V24.7508ZM20.577 21.0341V21.7556H11.4223V21.0341C11.4223 20.543 11.8219 20.1433 12.3132 20.1433H19.6861C20.1773 20.1433 20.577 20.5429 20.577 21.0341ZM15.0807 18.7683V4.39508C15.3622 4.5187 15.6729 4.58783 15.9996 4.58783C16.3263 4.58783 16.637 4.5187 16.9186 4.39514V18.7683H15.0807V18.7683Z" fill="white"/>
</svg>
