<svg width="25" height="33" viewBox="0 0 25 33" fill="none" xmlns="http://www.w3.org/2000/svg">
<path d="M12.2253 23.4492L10.2999 31.632L8.22783 29.2183L5.29688 30.4548L7.23484 22.2188" stroke="white" stroke-width="1.37498" stroke-miterlimit="10" stroke-linejoin="round"/>
<path d="M12.2266 23.4492L14.1521 31.632L16.2241 29.2183L19.1551 30.4548L17.2171 22.2188" stroke="white" stroke-width="1.37498" stroke-miterlimit="10" stroke-linejoin="round"/>
<path d="M15.6458 9.80899C15.1088 9.272 14.2382 9.272 13.7012 9.80899L11.578 11.9323L10.7535 11.1078C10.2165 10.5709 9.34599 10.5709 8.80899 11.1078C8.272 11.6448 8.272 12.5154 8.80899 13.0524L10.2522 14.4955C10.9844 15.2278 12.1716 15.2278 12.9037 14.4955L15.6458 11.7535C16.1827 11.2165 16.1827 10.346 15.6458 9.80899Z" stroke="white" stroke-width="1.37498" stroke-miterlimit="10" stroke-linecap="round" stroke-linejoin="round"/>
<path d="M23.0232 10.6583L22.3572 9.5048V8.17283C22.3572 7.05641 21.7616 6.02473 20.7947 5.46656L19.6411 4.80057L18.9752 3.64708C18.417 2.68022 17.3854 2.08461 16.2689 2.08461H14.937L13.7834 1.41868C12.8166 0.86044 11.6253 0.86044 10.6585 1.41868L9.50493 2.08467H8.17295C7.05653 2.08467 6.02486 2.68029 5.46668 3.64715L4.80069 4.80069L3.64715 5.46668C2.68029 6.02492 2.08467 7.05653 2.08467 8.17295V9.50493L1.41868 10.6585C0.86044 11.6253 0.86044 12.8166 1.41868 13.7834L2.08467 14.937V16.2689C2.08467 17.3854 2.68029 18.417 3.64715 18.9752L4.80069 19.6412L5.46668 20.7948C6.02492 21.7616 7.05653 22.3572 8.17295 22.3572H9.50493L10.6585 23.023C11.6253 23.5813 12.8166 23.5813 13.7834 23.023L14.937 22.357H16.2689C17.3854 22.357 18.417 21.7614 18.9752 20.7946L19.6412 19.641L20.7948 18.975C21.7616 18.4168 22.3572 17.3852 22.3572 16.2688V14.9368L23.0232 13.7832C23.5814 12.8164 23.5814 11.6253 23.0232 10.6583Z" stroke="white" stroke-width="1.37498" stroke-miterlimit="10" stroke-linecap="round" stroke-linejoin="round"/>
<path d="M12.2209 19.9497C16.4894 19.9497 19.9497 16.4894 19.9497 12.2209C19.9497 7.95247 16.4894 4.49219 12.2209 4.49219C7.95247 4.49219 4.49219 7.95247 4.49219 12.2209C4.49219 16.4894 7.95247 19.9497 12.2209 19.9497Z" stroke="white" stroke-width="1.37498" stroke-miterlimit="10" stroke-linecap="round" stroke-linejoin="round"/>
</svg>
