<svg width="33" height="33" viewBox="0 0 33 33" fill="none" xmlns="http://www.w3.org/2000/svg">
<path d="M2.9375 27.3897V10.8386C2.9375 10.0907 3.54381 9.48438 4.29169 9.48438H5.9465" stroke="white" stroke-width="1.375" stroke-miterlimit="10" stroke-linecap="round" stroke-linejoin="round"/>
<path d="M26.6484 9.48438H28.3398C29.0877 9.48438 29.694 10.0907 29.694 10.8386V27.3897" stroke="white" stroke-width="1.375" stroke-miterlimit="10" stroke-linecap="round" stroke-linejoin="round"/>
<path d="M30.7857 27.707H1.83931C1.37581 27.707 1 28.0828 1 28.5463V28.8674C1 30.3897 2.23413 31.6238 3.75644 31.6238H28.8686C30.3909 31.6238 31.625 30.3897 31.625 28.8674V28.5463C31.625 28.0828 31.2493 27.707 30.7857 27.707Z" stroke="white" stroke-width="1.375" stroke-miterlimit="10" stroke-linecap="round" stroke-linejoin="round"/>
<path d="M26.7219 11.4078C26.7219 5.65975 22.0622 1 16.3141 1C10.566 1 5.90625 5.65975 5.90625 11.4078C5.90625 16.1686 9.10281 20.1829 13.4668 21.4213L16.3141 25.1422L19.1614 21.4213C23.5253 20.1829 26.7219 16.1686 26.7219 11.4078Z" stroke="white" stroke-width="1.375" stroke-miterlimit="10" stroke-linecap="round" stroke-linejoin="round"/>
<path d="M6.08594 22.0586H8.534" stroke="white" stroke-width="1.375" stroke-miterlimit="10" stroke-linecap="round" stroke-linejoin="round"/>
<path d="M6.08594 24.8086H11.8587" stroke="white" stroke-width="1.375" stroke-miterlimit="10" stroke-linecap="round" stroke-linejoin="round"/>
<path d="M26.534 22.0586H24.0859" stroke="white" stroke-width="1.375" stroke-miterlimit="10" stroke-linecap="round" stroke-linejoin="round"/>
<path d="M26.5305 24.8086H20.7578" stroke="white" stroke-width="1.375" stroke-miterlimit="10" stroke-linecap="round" stroke-linejoin="round"/>
<path d="M11.235 11.3518L8.76641 10.3264C8.49279 10.2144 8.48179 9.83097 8.74854 9.70341L15.8382 6.31422C16.148 6.16609 16.5083 6.16609 16.8182 6.31422L23.9078 9.70341C24.1746 9.83091 24.1636 10.2143 23.89 10.3264L21.4214 11.3518" stroke="white" stroke-width="1.375" stroke-miterlimit="10" stroke-linecap="round" stroke-linejoin="round"/>
<path d="M21.4208 15.2691V11.3518L20.5294 10.9869C17.8366 9.88458 14.8186 9.88458 12.1258 10.9869L11.2344 11.3518V15.2691H21.4208Z" stroke="white" stroke-width="1.375" stroke-miterlimit="10" stroke-linecap="round" stroke-linejoin="round"/>
<path d="M24.1016 10.0195V13.0483" stroke="white" stroke-width="1.375" stroke-miterlimit="10" stroke-linecap="round" stroke-linejoin="round"/>
</svg>
