<svg width="32" height="32" viewBox="0 0 32 32" fill="none" xmlns="http://www.w3.org/2000/svg">
<path d="M26.6797 11.8633C26.3 11.8633 25.9922 12.1711 25.9922 12.5508V15.9318H27.3672V12.5508C27.3672 12.171 27.0594 11.8633 26.6797 11.8633Z" fill="white"/>
<path d="M26.8752 7.95154C27.3255 7.36361 27.5938 6.62936 27.5938 5.83329C27.5938 3.90804 26.0275 2.34179 24.1023 2.34179C22.5285 2.34179 21.1951 3.38867 20.7606 4.82248L18.0621 1.07492L18.0601 1.07629C17.8926 0.833606 17.6804 0.616919 17.4253 0.440981C16.3041 -0.332206 14.7445 -0.0620815 13.9487 1.04311L11.2279 4.82154C10.7934 3.38773 9.46 2.34086 7.88619 2.34086C5.96094 2.34086 4.39469 3.90717 4.39469 5.83236C4.39469 6.62842 4.663 7.36267 5.11325 7.95061C3.05012 7.98742 1.38281 9.67604 1.38281 11.7477V15.9929H2.75781V11.7477C2.75781 10.4112 3.84519 9.32386 5.18175 9.32386H7.88619C9.05344 9.32386 10.088 8.74748 10.7222 7.86504L10.7278 7.86904L13.5666 3.92673L15.5042 5.33786L10.9941 12.1707C10.9199 12.283 10.8804 12.4147 10.8804 12.5494V15.9943H12.2554V12.7559L15.9939 7.09211L19.7329 12.7569V15.9952H21.1079V12.5504C21.1079 12.4157 21.0684 12.284 20.9943 12.1716L16.8177 5.84404C16.8177 5.84404 18.1941 3.74886 18.2353 3.66854L21.2606 7.87004L21.2662 7.86604C21.9005 8.74848 22.935 9.32479 24.1023 9.32479H26.8067C28.1433 9.32479 29.2306 10.4122 29.2306 11.7487V15.9939H30.6056V11.7487C30.6056 9.67698 28.9383 7.98836 26.8752 7.95154ZM7.88613 7.94886C6.71906 7.94886 5.76962 6.99942 5.76962 5.83236C5.76962 4.66529 6.71906 3.71586 7.88613 3.71586C9.05319 3.71586 10.0026 4.66529 10.0026 5.83236C10.0026 6.99942 9.05313 7.94886 7.88613 7.94886ZM16.9502 3.14711L16.2624 4.18911L14.37 2.81092L15.0644 1.84654C15.4261 1.34423 16.135 1.22142 16.6446 1.57286C17.1541 1.92429 17.2912 2.63048 16.9502 3.14711ZM24.1023 7.94979C22.9352 7.94979 21.9858 7.00036 21.9858 5.83329C21.9858 4.66629 22.9352 3.71679 24.1023 3.71679C25.2693 3.71679 26.2188 4.66623 26.2188 5.83329C26.2188 7.00029 25.2693 7.94979 24.1023 7.94979Z" fill="white"/>
<path d="M5.3125 11.8594C4.93281 11.8594 4.625 12.1672 4.625 12.5469V15.9279H6V12.5469C6 12.1671 5.69219 11.8594 5.3125 11.8594Z" fill="white"/>
<path d="M31.3125 15.3086H0.6875C0.307813 15.3086 0 15.6164 0 15.9961C0 20.2698 1.66431 24.2878 4.68625 27.3098C7.6945 30.318 11.7481 31.9803 16 31.9954C20.2519 31.9803 24.3054 30.3181 27.3137 27.3098C30.3357 24.2878 32 20.2698 32 15.9961C32 15.6164 31.6922 15.3086 31.3125 15.3086ZM20.4114 16.6836C20.3792 18.8516 20.1955 20.9337 19.8754 22.8188H12.1246C11.8045 20.9338 11.6208 18.8517 11.5886 16.6836H20.4114ZM1.39075 16.6836H10.2136C10.2447 18.8389 10.4222 20.9179 10.7317 22.8188H3.05612C2.06212 20.9387 1.4905 18.854 1.39075 16.6836ZM5.65856 26.3375C4.99369 25.6727 4.40125 24.9548 3.88406 24.1938H10.9851C11.1962 25.2138 11.448 26.1695 11.7386 27.0411C12.2448 28.5596 12.7977 29.6329 13.3539 30.3828C10.4549 29.8559 7.7865 28.4655 5.65856 26.3375ZM16 30.6211C14.9864 30.6211 13.881 29.1202 13.043 26.6063C12.7954 25.8635 12.5773 25.0547 12.39 24.1938H19.61C19.4226 25.0547 19.2046 25.8635 18.957 26.6063C18.119 29.1202 17.0136 30.6211 16 30.6211ZM26.3414 26.3375C24.2135 28.4654 21.5451 29.8559 18.6461 30.3828C19.2022 29.6328 19.7553 28.5595 20.2614 27.041C20.552 26.1694 20.8038 25.2138 21.0149 24.1938H28.1159C27.5988 24.9548 27.0063 25.6727 26.3414 26.3375ZM28.9439 22.8188H21.2683C21.5778 20.918 21.7553 18.839 21.7864 16.6836H30.6092C30.5095 18.854 29.9379 20.9387 28.9439 22.8188Z" fill="white"/>
</svg>
