<svg width="32" height="32" viewBox="0 0 32 32" fill="none" xmlns="http://www.w3.org/2000/svg">
<path d="M30.0977 1.8995C28.8728 0.674562 27.2442 0 25.5119 0C23.7796 0 22.1511 0.674562 20.9261 1.8995L16.8828 5.94281L17.8551 6.91512L21.8984 2.87181C22.8636 1.90656 24.1469 1.375 25.5119 1.375C26.8769 1.375 28.1602 1.90656 29.1254 2.87181C31.1179 4.86431 31.1179 8.10631 29.1254 10.0988L25.0821 14.1421L26.0544 15.1144L30.0977 11.0711C32.6263 8.5425 32.6263 4.42812 30.0977 1.8995Z" fill="white"/>
<path d="M26.7437 14.8283L17.1714 5.25606C16.9029 4.98756 16.4677 4.98756 16.1991 5.25606L8.9845 12.4707C8.85563 12.5996 8.78312 12.7745 8.78312 12.9568C8.78312 13.1391 8.85556 13.314 8.9845 13.4429L11.2017 15.6601L1.02106 26.6874C0.770687 26.9585 0.779125 27.3789 1.04006 27.6399L2.21381 28.8136L0.201375 30.8261C-0.067125 31.0946 -0.067125 31.5299 0.201375 31.7984C0.335688 31.9326 0.511562 31.9997 0.687562 31.9997C0.863562 31.9997 1.03944 31.9326 1.17369 31.7983L3.18606 29.7859L4.35981 30.9596C4.49381 31.0936 4.66975 31.161 4.846 31.161C5.01306 31.161 5.18038 31.1004 5.31231 30.9786L16.3396 20.7979L18.5568 23.0151C18.691 23.1494 18.8669 23.2165 19.0429 23.2165C19.2188 23.2165 19.3948 23.1494 19.529 23.0151L26.7436 15.8005C26.8725 15.6716 26.945 15.4967 26.945 15.3144C26.945 15.1321 26.8726 14.9572 26.7437 14.8283ZM4.865 29.5203L2.47944 27.1348L3.7855 25.7201L6.27969 28.2143L4.865 29.5203ZM7.29081 27.2808L4.719 24.7089L12.1748 16.6332L15.3666 19.8249L7.29081 27.2808ZM19.0429 21.5568L10.4429 12.9568L13.0779 10.3218L21.6779 18.9218L19.0429 21.5568ZM22.6503 17.9494L14.0503 9.3495L16.6853 6.7145L25.2853 15.3144L22.6503 17.9494Z" fill="white"/>
</svg>
