<svg width="32" height="32" viewBox="0 0 32 32" fill="none" xmlns="http://www.w3.org/2000/svg">
<path d="M31.4637 7.02656L30.5149 6.63338C30.3628 6.1265 30.1595 5.63644 29.9077 5.16981L30.3006 4.22188C30.407 3.965 30.3482 3.66925 30.1516 3.47263L28.4142 1.73469C28.2176 1.538 27.9218 1.47913 27.665 1.58556L26.7154 1.97875C26.2487 1.72719 25.7586 1.52413 25.2517 1.37225L24.8594 0.42475C24.753 0.167875 24.5024 0.0003125 24.2242 0.00025L21.7668 0H21.7667C21.4887 0 21.2381 0.1675 21.1316 0.424313L20.7385 1.37313C20.2316 1.52519 19.7415 1.7285 19.2749 1.98025L18.327 1.5875C18.0701 1.48106 17.7744 1.53981 17.5778 1.73644L16.1016 3.21206L17.0737 4.1845L18.2249 3.03356L19.0591 3.37919C19.2602 3.4625 19.4888 3.44569 19.6756 3.33381C20.2176 3.00919 20.802 2.76675 21.4127 2.61319C21.6236 2.56019 21.7969 2.4105 21.8802 2.20963L22.226 1.375L23.7647 1.37519L24.1098 2.20869C24.1931 2.40975 24.3666 2.5595 24.5776 2.61244C25.1884 2.76575 25.7729 3.00794 26.315 3.33231C26.5016 3.44394 26.7301 3.46075 26.931 3.37756L27.7666 3.03163L28.8544 4.11981L28.5088 4.95394C28.4255 5.155 28.4423 5.38369 28.5542 5.57038C28.8788 6.11238 29.1213 6.69681 29.2748 7.3075C29.3278 7.51838 29.4775 7.69175 29.6784 7.775L30.5129 8.12081L30.5127 9.6595L29.6792 10.0046C29.4782 10.0879 29.3284 10.2614 29.2755 10.4724C29.1222 11.0833 28.88 11.6678 28.5556 12.2098C28.4439 12.3964 28.4271 12.6249 28.5104 12.8259L28.8564 13.6614L27.702 14.8154L28.6741 15.7879L30.1534 14.309C30.35 14.1124 30.4089 13.8167 30.3025 13.5598L29.9093 12.6101C30.1608 12.1435 30.3639 11.6534 30.5157 11.1464L31.4632 10.7541C31.7201 10.6477 31.8877 10.3971 31.8877 10.1189L31.8881 7.6615C31.8881 7.38369 31.7206 7.133 31.4637 7.02656Z" fill="white"/>
<path d="M23.0009 4.89844C20.7991 4.89844 19.0078 6.68969 19.0078 8.8915C19.0078 10.8038 20.3691 12.4529 22.2446 12.8129L22.5038 11.4626C21.2748 11.2267 20.3828 10.1454 20.3828 8.8915C20.3828 7.44788 21.5573 6.27344 23.0009 6.27344C24.4445 6.27344 25.6189 7.44788 25.6189 8.8915C25.6189 10.1535 24.7201 11.2361 23.4818 11.4656L23.7324 12.8176C25.6223 12.4673 26.9939 10.8161 26.9939 8.8915C26.9939 6.68975 25.2027 4.89844 23.0009 4.89844Z" fill="white"/>
<path d="M31.3125 14.8252H25.8881L24.2096 11.8038C24.0883 11.5856 23.8582 11.4502 23.6086 11.4502H17.6194V4.52138H17.619C17.6189 4.3425 17.5495 4.16669 17.418 4.03525L13.5841 0.201375C13.4527 0.069875 13.2769 0.000375 13.098 0.000375V0H0.6875C0.307813 0 0 0.307813 0 0.6875V21.1327C0 21.5124 0.307813 21.8202 0.6875 21.8202H8.54044V31.3125C8.54044 31.6922 8.84825 32 9.22794 32H31.3125C31.6922 32 32 31.6922 32 31.3125V15.5127C32 15.1329 31.6922 14.8252 31.3125 14.8252ZM30.625 19.4971L22.3327 20.6659V19.4694C22.3327 19.0897 22.0249 18.7819 21.6452 18.7819H18.8952C18.5155 18.7819 18.2077 19.0897 18.2077 19.4694V20.6772L9.91544 19.4977V16.2001H30.625V19.4971ZM20.9577 20.1569V22.7819H19.5827V20.1569H20.9577ZM24.3152 14.8252H16.2253L17.3364 12.8252H23.2041L24.3152 14.8252ZM13.7854 2.34725L15.2721 3.83387H13.7854V2.34725ZM1.375 20.4452V1.375H12.4104V4.52138C12.4104 4.90106 12.7183 5.20888 13.0979 5.20888H16.2443V11.9595L14.6523 14.8252H9.22787C8.84819 14.8252 8.54037 15.133 8.54037 15.5127V20.4452H1.375ZM9.91544 30.625V20.8867L18.2077 22.0661V23.4695C18.2077 23.8492 18.5155 24.157 18.8952 24.157H21.6452C22.0249 24.157 22.3327 23.8492 22.3327 23.4695V22.0545L30.625 20.8856V30.625H9.91544Z" fill="white"/>
<path d="M5.35938 7.95312H12.2649C12.6446 7.95312 12.9524 7.64531 12.9524 7.26562C12.9524 6.88594 12.6446 6.57812 12.2649 6.57812H5.35938C4.97969 6.57812 4.67188 6.88594 4.67188 7.26562C4.67188 7.64531 4.97969 7.95312 5.35938 7.95312Z" fill="white"/>
<path d="M12.9524 12.7656C12.9524 12.3859 12.6446 12.0781 12.2649 12.0781H5.35938C4.97969 12.0781 4.67188 12.3859 4.67188 12.7656C4.67188 13.1453 4.97969 13.4531 5.35938 13.4531H12.2649C12.6446 13.4531 12.9524 13.1454 12.9524 12.7656Z" fill="white"/>
<path d="M14.4417 10.0156C14.4417 9.63594 14.1339 9.32812 13.7542 9.32812H3.875C3.49531 9.32812 3.1875 9.63594 3.1875 10.0156C3.1875 10.3953 3.49531 10.7031 3.875 10.7031H13.7542C14.1339 10.7031 14.4417 10.3954 14.4417 10.0156Z" fill="white"/>
</svg>
