<svg width="32" height="32" viewBox="0 0 32 32" fill="none" xmlns="http://www.w3.org/2000/svg">
<g clip-path="url(#clip0_372_4249)">
<path d="M24.25 0H7.75C7.37031 0 7.0625 0.307812 7.0625 0.6875V13.2786H8.4375V1.375H23.5625V13.2786H24.9375V0.6875C24.9375 0.307812 24.6297 0 24.25 0Z" fill="white"/>
<path d="M21 8.30469H11C10.6203 8.30469 10.3125 8.6125 10.3125 8.99219C10.3125 9.37188 10.6203 9.67969 11 9.67969H21C21.3797 9.67969 21.6875 9.37188 21.6875 8.99219C21.6875 8.6125 21.3797 8.30469 21 8.30469Z" fill="white"/>
<path d="M13.9286 11.0547H11C10.6203 11.0547 10.3125 11.3625 10.3125 11.7422C10.3125 12.1219 10.6203 12.4297 11 12.4297H13.9286C14.3083 12.4297 14.6161 12.1219 14.6161 11.7422C14.6161 11.3625 14.3084 11.0547 13.9286 11.0547Z" fill="white"/>
<path d="M31.6562 8.72102C31.4435 8.5982 31.1815 8.5982 30.9687 8.72102L22.526 13.5955C22.1972 13.7853 22.0846 14.2058 22.2744 14.5346L22.285 14.553L21.4675 15.0145C21.0247 15.2645 20.4871 15.2819 20.0291 15.0613L17.6282 13.9046C16.596 13.4074 15.3876 13.4525 14.3954 14.0253L11.5266 15.6816L9.67919 14.6151L9.72562 14.5346C9.91544 14.2058 9.80275 13.7853 9.474 13.5955L1.03125 8.72102C0.8185 8.5982 0.5565 8.5982 0.34375 8.72102C0.131062 8.84383 0 9.07077 0 9.31639V20.1687C0 20.4143 0.131062 20.6413 0.34375 20.7641L4.08731 22.9255C4.19275 22.9863 4.31144 23.0176 4.43106 23.0176C4.49062 23.0176 4.55044 23.0098 4.609 22.9941C4.77312 22.9502 4.914 22.8466 5.00631 22.7051L6.03819 23.3008C5.80206 23.866 5.82212 24.531 6.15137 25.1012C6.40887 25.5471 6.81112 25.8584 7.26475 26.0103C7.16962 26.4791 7.23775 26.9828 7.49512 27.4287C7.871 28.0796 8.55512 28.4439 9.25769 28.4439C9.348 28.4439 9.43856 28.4375 9.52887 28.4253C9.56025 28.6977 9.647 28.9634 9.78819 29.208C10.0594 29.6778 10.4975 30.014 11.0215 30.1544C11.1966 30.2013 11.3741 30.2245 11.5506 30.2245C11.6439 30.2245 11.7368 30.2176 11.8289 30.2046C11.8598 30.4717 11.9442 30.7368 12.0869 30.9841C12.4628 31.635 13.1469 31.9993 13.8495 31.9993C14.1938 31.9993 14.5426 31.9117 14.8616 31.7275L15.3122 31.4673C15.5282 31.3426 15.7154 31.1818 15.8687 30.9946L17.1382 31.7275C17.4573 31.9117 17.806 31.9993 18.1504 31.9993C18.8529 31.9992 19.5371 31.6349 19.9129 30.984C20.0557 30.7368 20.1401 30.4717 20.1709 30.2046C20.2631 30.2176 20.356 30.2245 20.4493 30.2245C20.6257 30.2245 20.8034 30.2013 20.9784 30.1544C21.5024 30.014 21.9405 29.6778 22.2117 29.208C22.3529 28.9634 22.4396 28.6977 22.471 28.4253C22.5613 28.4375 22.6519 28.4438 22.7422 28.4438C23.4447 28.4438 24.1289 28.0795 24.5047 27.4286C24.7621 26.9828 24.8302 26.479 24.7351 26.0103C25.1887 25.8583 25.5911 25.5471 25.8485 25.1011C26.1894 24.5106 26.1991 23.8184 25.9357 23.2407L26.9594 22.6497L26.9734 22.6738C27.0646 22.8317 27.2147 22.947 27.3909 22.9941C27.4494 23.0098 27.5092 23.0176 27.5688 23.0176C27.6884 23.0176 27.8071 22.9863 27.9126 22.9255L31.6561 20.7641C31.8688 20.6413 31.9999 20.4143 31.9999 20.1687V9.31639C32 9.07077 31.8689 8.84383 31.6562 8.72102ZM1.375 19.7718V10.5072L8.19112 14.4425L4.17944 21.391L1.375 19.7718ZM7.58237 23.5172L8.33269 23.084C8.43419 23.0254 8.546 22.9956 8.65931 22.9956C8.72362 22.9956 8.78837 23.0052 8.85206 23.0246C9.02781 23.0781 9.16919 23.1985 9.25006 23.3635C9.40144 23.6722 9.28675 24.0486 8.989 24.2206L8.23862 24.6539C7.92519 24.8349 7.523 24.727 7.34212 24.4137C7.16125 24.1003 7.26906 23.6981 7.58237 23.5172ZM8.68594 26.7411C8.505 26.4278 8.61281 26.0256 8.92619 25.8446L10.0318 25.2063C10.3452 25.0253 10.7473 25.1331 10.9283 25.4465C11.1092 25.7598 11.0014 26.1619 10.6882 26.3429L9.58244 26.9813C9.269 27.1623 8.86675 27.0545 8.68594 26.7411ZM11.3774 28.8263C11.2081 28.7809 11.0666 28.6723 10.979 28.5205C10.8914 28.3686 10.8681 28.1918 10.9134 28.0225C10.9588 27.8532 11.0674 27.7117 11.2192 27.6241L12.0179 27.163C12.1191 27.1046 12.2312 27.0748 12.3449 27.0748C12.4019 27.0748 12.4594 27.0823 12.5159 27.0974C12.6852 27.1428 12.8267 27.2513 12.9143 27.4032C13.0019 27.555 13.0252 27.7318 12.9799 27.9011C12.9345 28.0705 12.8259 28.212 12.6741 28.2996L11.8754 28.7607C11.7236 28.8484 11.5469 28.8716 11.3774 28.8263ZM14.9447 29.8116C14.9134 30.0078 14.7968 30.1773 14.6248 30.2766L14.1742 30.5368C13.861 30.7176 13.4587 30.61 13.2777 30.2966C13.0968 29.9831 13.2046 29.581 13.5179 29.4001L13.9686 29.1399C14.2359 28.9856 14.5794 29.0403 14.7854 29.2702C14.918 29.4182 14.976 29.6155 14.9447 29.8116ZM24.6578 24.4136C24.4768 24.7271 24.0747 24.8348 23.7613 24.6539L20.4617 22.7489C20.1329 22.5591 19.7124 22.6718 19.5226 23.0005C19.3328 23.3293 19.4455 23.7498 19.7742 23.9396L23.0738 25.8446C23.3872 26.0256 23.4949 26.4278 23.3141 26.7411C23.1331 27.0545 22.7309 27.1621 22.4176 26.9813L19.118 25.0763C18.7891 24.8866 18.3687 24.9992 18.1789 25.328C17.9891 25.6568 18.1017 26.0773 18.4305 26.2671L20.7812 27.6243C20.9328 27.712 21.0413 27.8533 21.0866 28.0225C21.1319 28.1918 21.1086 28.3686 21.0209 28.5205C20.9333 28.6723 20.7918 28.7808 20.6225 28.8262C20.453 28.8716 20.2762 28.8483 20.1245 28.7606L17.7742 27.4037C17.4455 27.2139 17.025 27.3266 16.8351 27.6553C16.6453 27.9841 16.758 28.4046 17.0867 28.5945L18.4822 29.4001C18.7954 29.5811 18.9031 29.9831 18.7222 30.2965C18.5413 30.6098 18.1391 30.7176 17.8257 30.5367L16.3276 29.6717C16.3196 29.1874 16.1391 28.7205 15.8094 28.3526C15.4344 27.9341 14.9121 27.7034 14.3772 27.6812C14.3694 27.3453 14.2778 27.0147 14.1051 26.7156C13.8339 26.2457 13.3958 25.9096 12.8718 25.7691C12.7121 25.7263 12.5503 25.7036 12.3891 25.6998C12.3778 25.3788 12.2906 25.056 12.1191 24.759C11.8026 24.2109 11.2675 23.8661 10.6869 23.7708C10.7076 23.4311 10.6437 23.0825 10.4847 22.7581C10.2379 22.2548 9.78887 21.8725 9.25269 21.7092C8.71644 21.5459 8.13062 21.613 7.64519 21.8932L6.99769 22.267L5.69544 21.5151L8.99169 15.8058L10.3555 16.5931C10.2124 16.7983 10.1047 17.029 10.0383 17.2778C9.8885 17.8396 9.96669 18.426 10.2586 18.9288C10.8586 19.9628 12.1894 20.3178 13.2248 19.72L15.5327 18.3875L24.4176 23.5172C24.7309 23.6981 24.8387 24.1003 24.6578 24.4136ZM24.9372 22.2295L15.8765 16.9983C15.7701 16.9369 15.6514 16.9061 15.5327 16.9061C15.4141 16.9061 15.2953 16.9368 15.189 16.9983L12.5373 18.5293C12.157 18.7489 11.6682 18.6185 11.4477 18.2386C11.3405 18.054 11.3118 17.8386 11.3668 17.6323C11.4219 17.4259 11.554 17.2535 11.739 17.1466L15.0829 15.216C15.6807 14.8708 16.4093 14.8436 17.0313 15.1433L19.4322 16.3C20.2955 16.7159 21.3089 16.6829 22.1434 16.2118L22.9724 15.7438L26.2721 21.4588L24.9372 22.2295ZM30.625 19.7718L27.8206 21.3909L23.8089 14.4425L30.625 10.5072V19.7718Z" fill="white"/>
<path d="M21 6.875H11C10.6203 6.875 10.3125 6.56719 10.3125 6.1875V3.4375C10.3125 3.05781 10.6203 2.75 11 2.75H21C21.3797 2.75 21.6875 3.05781 21.6875 3.4375V6.1875C21.6875 6.56719 21.3797 6.875 21 6.875ZM11.6875 5.5H20.3125V4.125H11.6875V5.5Z" fill="white"/>
</g>
<defs>
<clipPath id="clip0_372_4249">
<rect width="32" height="32" fill="white"/>
</clipPath>
</defs>
</svg>
