<svg width="675" height="674" fill="none" xmlns="http://www.w3.org/2000/svg"><path d="M619.169 318.558l54.91 2.652c-5.653-112.593-68.071-216.547-166.419-274.062L484.547 97.07c78.231 47.777 128.352 130.964 134.625 221.488h-.003z" fill="#283B3C"/><path d="M56.14 372.02l-54.956.301c4.565 43.466 17.568 85.278 37.801 123.258l45.802-30.324c-14.749-28.982-24.582-60.51-28.643-93.235h-.003z" fill="#316067"/><path d="M259.095 609.023c-55.927-15.964-103.102-47.759-138.052-89.109l-45.79 30.293c42.094 51.744 99.833 91.614 168.782 111.302 25.19 7.194 50.543 11.217 75.654 12.5l-2.549-54.777a283.634 283.634 0 01-58.048-10.206l.003-.003z" fill="#273738"/><path d="M382.703 616.198l2.549 54.796c96.981-14.163 184.516-70.147 237.416-154.026l-49.138-24.519c-43.59 66.294-113.405 110.95-190.827 123.752v-.003z" fill="#00A48A"/><path d="M608.895 415.382c-1.799 6.255-3.853 12.349-6.04 18.384l49.23 24.55c3.481-9.099 6.692-18.374 9.42-27.913 4.184-14.562 7.225-29.184 9.38-43.774l-54.935-2.652c-1.755 10.475-4.052 20.954-7.052 31.405h-.003z" fill="#2B2826"/><path d="M64.983 260.063c22.14-77.181 74.658-137.591 140.882-172.19l-19.692-51.291c-81.703 40.756-146.742 114.153-173.8 208.46-5.898 20.559-9.65 41.212-11.557 61.771l55.027-.302c1.736-15.461 4.704-30.994 9.14-46.448z" fill="#005D62"/><path d="M414.763 66.469c3.419.98 6.771 2.07 10.133 3.162l23.094-49.868a349.096 349.096 0 00-18.17-5.777C368.042-3.656 305.277-2.84 247.453 13.125l19.701 51.3c47.002-12.018 97.677-12.22 147.609 2.044z" fill="#2B2826"/></svg>