<svg width="831" height="829" fill="none" xmlns="http://www.w3.org/2000/svg"><path d="M283.133 749.036c-10.577-4.183-20.807-8.866-30.75-13.911l-29.305 46.388a417.268 417.268 0 0039.891 18.274 418.228 418.228 0 0059.913 18.626l8.056-54.281c-16.053-3.903-32.023-8.857-47.805-15.093v-.003z" fill="#2B2826"/><path d="M750.999 547.227c-2.792 7.034-5.851 13.889-9.03 20.647l47.301 27.731c4.483-9.218 8.759-18.585 12.602-28.262 30.108-75.792 36.038-155.236 21.671-229.937l-52.891 14.452c11.447 63.6 5.917 131.006-19.653 195.369zM395.884 773.666L387.84 827.9c143.941 9.649 284.748-56.783 368.206-175.81l-47.295-27.735c-71.911 99.931-190.833 155.987-312.867 149.311z" fill="#005D62"/><path d="M548.756 80.48c98.349 38.88 170.048 116.394 204.561 208.19l52.881-14.442C767.132 166.462 683.863 75.178 568.921 29.732a414.25 414.25 0 00-81.823-23.029L482 61.307c22.42 4.174 44.774 10.476 66.753 19.176l.003-.003z" fill="#00A48A"/><path d="M55.895 428.754L.988 425.891c3.56 125.37 64.425 244.507 166.576 320.648l29.295-46.376c-85.424-65.316-136.67-165.582-140.964-271.409z" fill="#2B2826"/><path d="M416.615 55.266L421.723.694a417.153 417.153 0 00-170.379 34.048L277.075 83.2c43.832-18.274 91.256-27.96 139.54-27.933z" fill="#005D62"/><path d="M80.802 282.245c28.501-71.747 77.771-129.193 138.154-168.396l-25.703-48.4c-71.47 45.197-129.83 112.38-163.328 196.677a413.624 413.624 0 00-25.624 98.331l54.91 2.869c3.941-27.231 10.992-54.425 21.591-81.084v.003z" fill="#273738"/></svg>