<svg width="55" height="48" fill="none" xmlns="http://www.w3.org/2000/svg"><path d="M37.936 10.063H0v37.936h37.936V10.062z" fill="#3216B5"/><path d="M54.396 0H16.461v37.937h37.935V0z" fill="#3216B5"/><path d="M11.383 22.781v12.646h2.747v-9.484h.412l3.519 9.484h2.084l3.447-9.484h.412v9.484h2.771V22.78h-4.002l-3.694 9.07-3.718-9.07h-3.978zm29.721 2.593v-2.529h-6.093v-.412c2.15-.95 5.9-2.178 5.9-5.546 0-2.661-2.226-4.934-5.369-4.934-3.144 0-4.749 2.152-5.456 4.093l2.327.905c.525-1.619 1.449-2.607 3.15-2.607 1.487 0 2.711 1.103 2.59 2.564-.157 1.885-2.185 3.252-4.052 4.271a143.22 143.22 0 01-3.633 1.884v2.311h10.636z" fill="#fff"/></svg>