<svg width="52" height="52" fill="none" xmlns="http://www.w3.org/2000/svg"><path d="M45.953 10.105a26.148 26.148 0 013.074 5.17l-23.37 17.46-9.766-6.206v-7.464l9.766 6.204 20.296-15.163z" fill="#21A038"/><path d="M5.927 26.003c0-.335.008-.667.024-.998L.032 24.71A26.233 26.233 0 001.95 35.957a25.955 25.955 0 005.566 8.428l4.198-4.253a19.941 19.941 0 01-4.284-6.479 20.156 20.156 0 01-1.502-7.65z" fill="url(#paint0_linear_119_654)"/><path d="M25.657 6.003c.33 0 .66.012.985.028l.297-6A25.965 25.965 0 0025.657 0a25.29 25.29 0 00-9.82 1.973 25.566 25.566 0 00-8.321 5.64l4.198 4.256a19.645 19.645 0 016.394-4.344 19.433 19.433 0 017.55-1.522z" fill="url(#paint1_linear_119_654)"/><path d="M25.658 45.99c-.33 0-.659 0-.987-.026l-.296 5.999a25.275 25.275 0 0011.099-1.942 25.551 25.551 0 008.316-5.641l-4.19-4.253a19.655 19.655 0 01-6.394 4.341 19.438 19.438 0 01-7.548 1.523z" fill="url(#paint2_linear_119_654)"/><path d="M36.77 9.494l4.988-3.726A25.33 25.33 0 0025.64 0v6.005a19.447 19.447 0 0111.129 3.49z" fill="url(#paint3_linear_119_654)"/><path d="M51.315 25.997a26.498 26.498 0 00-.403-4.66l-5.522 4.125v.535a20.171 20.171 0 01-1.696 8.11 19.93 19.93 0 01-4.803 6.71l3.983 4.46a25.923 25.923 0 006.242-8.73 26.226 26.226 0 002.199-10.55z" fill="#21A038"/><path d="M25.657 45.993a19.466 19.466 0 01-8.002-1.72 19.702 19.702 0 01-6.622-4.867l-4.4 4.035a25.603 25.603 0 008.614 6.327 25.299 25.299 0 0010.41 2.23v-6.005z" fill="url(#paint4_linear_119_654)"/><path d="M12.426 11.184l-3.98-4.461a25.92 25.92 0 00-6.245 8.73A26.227 26.227 0 000 26.003h5.927a20.173 20.173 0 011.696-8.11 19.935 19.935 0 014.803-6.71z" fill="url(#paint5_linear_119_654)"/><defs><linearGradient id="paint0_linear_119_654" x1="8.713" y1="43.636" x2="2.082" y2="24.721" gradientUnits="userSpaceOnUse"><stop offset=".14" stop-color="#F1E813"/><stop offset=".3" stop-color="#E6E418"/><stop offset=".58" stop-color="#C9DA26"/><stop offset=".89" stop-color="#A2CC39"/></linearGradient><linearGradient id="paint1_linear_119_654" x1="9.208" y1="8.675" x2="25.943" y2="2.383" gradientUnits="userSpaceOnUse"><stop offset=".06" stop-color="#0FA7DF"/><stop offset=".54" stop-color="#0098F8"/><stop offset=".92" stop-color="#0290EA"/></linearGradient><linearGradient id="paint2_linear_119_654" x1="23.984" y1="48.371" x2="42.869" y2="44.162" gradientUnits="userSpaceOnUse"><stop offset=".12" stop-color="#A2CC39"/><stop offset=".28" stop-color="#86C239"/><stop offset=".87" stop-color="#219F38"/></linearGradient><linearGradient id="paint3_linear_119_654" x1="24.408" y1="2.011" x2="40.57" y2="6.933" gradientUnits="userSpaceOnUse"><stop offset=".06" stop-color="#0290EA"/><stop offset=".79" stop-color="#0C89CA"/></linearGradient><linearGradient id="paint4_linear_119_654" x1="8.12" y1="42.71" x2="25.728" y2="49.203" gradientUnits="userSpaceOnUse"><stop offset=".13" stop-color="#F1E813"/><stop offset=".3" stop-color="#EAE616"/><stop offset=".53" stop-color="#D8DF1F"/><stop offset=".8" stop-color="#BAD52D"/><stop offset=".98" stop-color="#A2CC39"/></linearGradient><linearGradient id="paint5_linear_119_654" x1="2.208" y1="26.73" x2="9.419" y2="8.221" gradientUnits="userSpaceOnUse"><stop offset=".07" stop-color="#A2CC39"/><stop offset=".26" stop-color="#81C45E"/><stop offset=".92" stop-color="#0FA7DF"/></linearGradient></defs></svg>