<svg width="74" height="27" fill="none" xmlns="http://www.w3.org/2000/svg"><path d="M5.11 0L3.83 3.507h17.714L22.823 0H5.109zM3.191 5.26L1.914 8.766h17.713l1.279-3.506H3.192zM1.28 10.52L0 14.024h17.713l1.277-3.506H1.28z" fill="#009FDF"/><path d="M37.241 15.124v.073c.796.292 1.556.803 1.954 1.132 1.23 1.023 1.773 2.374 1.773 4.127 0 2.886-1.52 4.967-4.017 5.625-.76.22-1.556.292-3.039.292h-7.56V5.262h6.693c1.376 0 2.315.073 3.147.291 2.424.658 4.017 2.338 4.017 5.004 0 1.425-.507 2.631-1.338 3.434a5.083 5.083 0 01-1.628 1.132h-.002zm-6.693 2.228v5.552h2.895c.868 0 1.665-.073 2.243-.621.579-.548.832-1.242.832-2.155 0-.693-.182-1.351-.543-1.826-.615-.767-1.375-.95-2.677-.95h-2.75zm-.037-3.653h2.352c.724 0 1.086 0 1.447-.11.977-.293 1.592-1.168 1.592-2.373 0-1.425-.651-2.046-1.592-2.338-.399-.11-.796-.145-1.592-.145h-2.207v4.966zm16.752 12.675V8.804h-6.042V5.263H58.01l-1.194 3.543H51.46v17.569h-4.197zm12.05 0V5.262h13.604l-1.194 3.543h-8.249v4.676h3.365c2.714 0 4.125.658 5.103 1.497.76.658 2.062 2.118 2.062 5.005 0 2.849-1.338 4.419-2.461 5.223-1.303.912-2.677 1.169-5.464 1.169h-6.766v-.001zm4.16-3.544h3.148c1.194 0 1.917-.292 2.423-.95.253-.328.615-.914.615-2.009 0-1.095-.362-1.863-1.085-2.41-.434-.328-1.013-.51-1.99-.51h-3.112v5.88h.001z" fill="#0A2973"/></svg>