<svg width="32" height="32" fill="none" xmlns="http://www.w3.org/2000/svg"><g clip-path="url(#clip0_372_4232)" fill="#fff"><path d="M26.02 21.913l-4.621-1.306-2.366-1.86v-1.3a5.626 5.626 0 002.592-4.736V9.283h-1.376v3.428a4.255 4.255 0 01-4.25 4.25 4.255 4.255 0 01-4.25-4.25V9.283h-1.375v3.428a5.626 5.626 0 002.591 4.736v1.3l-2.365 1.86-4.621 1.306a4.844 4.844 0 00-3.514 4.645v4.754c0 .38.308.688.688.688h25.693c.38 0 .688-.308.688-.688v-4.754c0-2.15-1.445-4.06-3.514-4.645zM16 29.023l-2.043-3.704 2.042-2.043 2.043 2.043-2.043 3.704zm.901-6.79l1.58-2.17 1.716 1.348-1.464 2.654-1.832-1.832zM16 18.337c.577 0 1.134-.088 1.659-.25v.77L16 21.135l-1.658-2.278v-.77c.524.162 1.081.25 1.658.25zm-2.482 1.726l1.58 2.17-1.832 1.832-1.463-2.654 1.715-1.349zM3.84 26.558a3.464 3.464 0 012.513-3.321l4.226-1.195 4.732 8.582H3.841v-4.066zm24.318 4.067h-11.47l4.732-8.583 4.226 1.195a3.464 3.464 0 012.512 3.32v4.068z"/><path d="M27.388 9.343V4.948a.688.688 0 00-.434-.64L16.253.049a.687.687 0 00-.509 0L5.043 4.309a.688.688 0 000 1.279l4.926 1.96v1.759c0 .364.284.665.647.686a11.29 11.29 0 015.038 1.51.687.687 0 00.689 0 11.29 11.29 0 015.038-1.51.688.688 0 00.647-.686V7.548l3.984-1.586v3.38a2.26 2.26 0 00-1.569 2.15v5.302c0 .38.308.688.688.688h3.138c.38 0 .688-.308.688-.688v-5.302a2.26 2.26 0 00-1.57-2.15zm-6.735-.67c-1.627.18-3.218.674-4.654 1.446a12.846 12.846 0 00-4.655-1.445V6.647h9.309v2.027zm1.375-2.606V5.96a.688.688 0 00-.687-.688H10.656a.688.688 0 00-.687.688v.107l-2.812-1.12 8.841-3.519 8.842 3.52-2.812 1.12zm4.672 4.544c.486 0 .881.395.881.881v.56H25.82v-.56c0-.486.395-.881.881-.881zm-.881 5.495v-2.679h1.762v2.68H25.82zm-9.823-.779a1.66 1.66 0 01-1.177-.487.688.688 0 11.972-.973.288.288 0 00.41 0 .688.688 0 11.973.973 1.66 1.66 0 01-1.178.487z"/></g><defs><clipPath id="clip0_372_4232"><path fill="#fff" d="M0 0h32v32H0z"/></clipPath></defs></svg>