<svg width="31" height="32" fill="none" xmlns="http://www.w3.org/2000/svg"><path d="M28.621 15.575a2.54 2.54 0 00-3.567.01l-4.515 4.505a2.638 2.638 0 00-.503-.72 2.55 2.55 0 00-1.833-.776h-2.218a4.347 4.347 0 01-2.218-.61 5.933 5.933 0 00-3.027-.832 6.417 6.417 0 00-4.582 1.903L4.14 21.079l-.067-.068a.688.688 0 00-.973 0l-2.9 2.9a.688.688 0 000 .972l6.914 6.914a.685.685 0 00.973 0l2.9-2.9a.688.688 0 000-.972l-.058-.058c.28-.205.617-.316.97-.316h6.128a5.264 5.264 0 003.739-1.544l6.863-6.835c.482-.48.747-1.12.745-1.8a2.515 2.515 0 00-.754-1.797zM7.601 30.339L1.66 24.397l1.927-1.928 5.942 5.942-1.927 1.928zM27.66 18.198l-6.863 6.834a3.898 3.898 0 01-2.768 1.144h-6.127a3 3 0 00-1.95.713L5.114 22.05l2.019-2.027a5.05 5.05 0 013.607-1.497c.817 0 1.62.221 2.325.64a5.721 5.721 0 002.92.802h2.218c.32 0 .622.128.851.362.232.237.36.55.36.882 0 .312-.122.608-.343.833a1.132 1.132 0 01-.812.346l-4.883-.001a.688.688 0 000 1.375h4.883c.677 0 1.313-.268 1.793-.756.318-.324.54-.716.652-1.142l5.321-5.31a1.16 1.16 0 011.63-.005 1.157 1.157 0 01.005 1.645zM10.573 6.382c-.517-.183-1.089-.403-1.403-.65-.07-.054-.1-.204-.071-.354.015-.082.086-.355.36-.437.498-.15.966.062 1.144.16a.687.687 0 10.665-1.203 3.175 3.175 0 00-.856-.322v-.139a.687.687 0 10-1.375 0v.196c-.662.21-1.155.778-1.29 1.49-.125.667.095 1.315.574 1.691.47.368 1.14.633 1.794.864.493.175.508.552.473.76a.874.874 0 01-.868.738c-.544.004-.7-.02-1.11-.289a.687.687 0 10-.752 1.15c.448.294.787.425 1.18.48v.17a.688.688 0 001.374 0v-.243c.858-.273 1.406-1.03 1.532-1.777.17-1.017-.38-1.935-1.37-2.285z" fill="#fff"/><path d="M9.766 14.125a7.07 7.07 0 01-7.063-7.063A7.07 7.07 0 019.766 0a7.07 7.07 0 017.062 7.063 7.07 7.07 0 01-7.062 7.062zm0-12.75a5.694 5.694 0 00-5.688 5.688 5.694 5.694 0 005.688 5.687 5.694 5.694 0 005.687-5.688 5.694 5.694 0 00-5.687-5.687zm20.235 4.852h-1.964a.688.688 0 000 1.375h.304l-3.304 3.304-2.414-2.414a.688.688 0 00-.973 0l-7.027 7.027a.688.688 0 00.973.972l6.54-6.54 2.415 2.413a.688.688 0 00.972 0l3.79-3.79v.304a.688.688 0 001.376 0V6.914A.688.688 0 0030 6.227z" fill="#fff"/></svg>