<svg width="32" height="32" fill="none" xmlns="http://www.w3.org/2000/svg"><path d="M8.281 20.273H4.687a.688.688 0 00-.687.688v9.115h1.375v-8.428h2.219v8.428h1.375v-9.115a.688.688 0 00-.688-.688zm6.352-3.125h-3.594a.687.687 0 00-.687.688v12.24h1.375V18.523h2.218v11.553h1.375v-12.24a.687.687 0 00-.687-.688zm6.336-3.125h-3.594a.688.688 0 00-.688.688v15.365h1.375V15.398h2.22v14.678h1.374V14.711a.688.688 0 00-.687-.688zm6.344-3.125h-3.594a.688.688 0 00-.688.688v18.49h1.375V12.273h2.219v17.803H28v-18.49a.688.688 0 00-.688-.688z" fill="#fff"/><path d="M31.799 29.587l-1.24-1.24a.688.688 0 00-.972.973l.066.066H2.615V2.346l.065.066a.685.685 0 00.973 0 .688.688 0 000-.972L2.413.2a.688.688 0 00-.972 0L.2 1.441a.688.688 0 00.973.972l.066-.066v27.726c0 .38.307.687.687.687h27.726l-.066.066a.688.688 0 00.972.973l1.24-1.24a.688.688 0 000-.972z" fill="#fff"/><path d="M6.484 19.046c.38 0 .688-.308.688-.688v-3.734a2.487 2.487 0 012.484-2.484 2.487 2.487 0 012.485 2.484v.559a.687.687 0 101.375 0v-3.734A2.487 2.487 0 0116 8.965a2.487 2.487 0 012.484 2.484v.559a.687.687 0 101.375 0V8.274a2.487 2.487 0 012.485-2.484 2.487 2.487 0 012.484 2.484v.559a.688.688 0 001.375 0V5.099a2.487 2.487 0 012.485-2.484h.204l-.066.065a.688.688 0 00.973.973l1.24-1.24a.688.688 0 000-.972L29.798.2a.688.688 0 10-.973.973l.066.066h-.204a3.864 3.864 0 00-3.86 3.859v.224a3.842 3.842 0 00-2.484-.908 3.864 3.864 0 00-3.86 3.86v.223A3.842 3.842 0 0016 7.59a3.864 3.864 0 00-3.86 3.86v.223a3.842 3.842 0 00-2.484-.908 3.864 3.864 0 00-3.86 3.86v3.733c0 .38.309.688.688.688z" fill="#fff"/></svg>