<svg width="29" height="32" fill="none" xmlns="http://www.w3.org/2000/svg"><path d="M11.406 9.525a.687.687 0 01-.687-.687V.69c.034-.911 1.341-.91 1.375 0v8.147c0 .38-.308.687-.688.687zm5.969 0a.688.688 0 01-.688-.687V.69c.034-.911 1.342-.91 1.375 0v8.147c0 .38-.307.687-.687.687zm-5.969 21.452a.687.687 0 01-.687-.687v-9.322c.034-.91 1.341-.91 1.375 0v9.322c0 .38-.308.687-.688.687zm5.969-.015a.688.688 0 01-.688-.688v-9.302c.034-.911 1.342-.91 1.375 0v9.302c0 .38-.307.688-.687.688z" fill="#fff"/><path d="M14.387 32a.688.688 0 01-.177-.023C2.15 28.92-.137 18.067.006 7.534c0-.38.308-.687.688-.687A6.166 6.166 0 006.853.687c0-.38.308-.687.688-.687h13.694c.38 0 .687.308.687.688a6.167 6.167 0 006.16 6.159c.38 0 .687.308.687.688.146 10.532-2.152 21.392-14.203 24.442a.693.693 0 01-.179.023zM1.383 8.19c.071 9.883 1.826 19.32 13.005 22.41C25.566 27.51 27.32 18.073 27.392 8.19a7.548 7.548 0 01-6.814-6.815H8.197A7.548 7.548 0 011.383 8.19z" fill="#fff"/><path d="M22.853 9.086H21.05v-1.18a.688.688 0 00-.892-.656l-5.77 1.803L8.616 7.25a.687.687 0 00-.893.656v1.18H5.922a.688.688 0 00-.688.688v11.204c0 .38.308.687.688.687h16.93c.38 0 .688-.307.688-.687V9.774a.688.688 0 00-.687-.688zm-7.778 1.193l4.6-1.438v8.83l-4.6 1.438v-8.83zm-1.375 0v8.83l-4.6-1.438V9.867a.637.637 0 000-.187v-.839l4.6 1.438zm-7.09.182h1.114v7.716c0 .3.196.566.483.656l4.663 1.457H6.61v-9.829zm15.555 9.83h-6.26l4.663-1.458a.688.688 0 00.482-.656V10.46h1.115v9.83z" fill="#fff"/></svg>