<svg width="32" height="27" fill="none" xmlns="http://www.w3.org/2000/svg"><path d="M10.384 10.653H9.7L6.491 2.597c0-.003-.002-.006-.003-.008l-.016-.035-.014-.028-.017-.03-.018-.028-.018-.026-.022-.028-.022-.024-.022-.025-.027-.025-.022-.02-.03-.022-.024-.017-.03-.019-.028-.016-.03-.014a.655.655 0 00-.032-.016c-.003 0-.006-.002-.009-.004l-.02-.007a.698.698 0 00-.1-.028l-.034-.005a.66.66 0 00-.332.033l-.023.007-.009.005-.031.014-.03.015-.027.015-.032.02-.022.016c-.01.008-.022.015-.032.024l-.02.019-.029.025-.022.024-.022.025-.021.028-.019.026-.018.029-.017.03-.014.027-.015.035-.004.008-3.21 8.056h-.683A1.327 1.327 0 00.017 12.19a5.917 5.917 0 005.836 4.962 5.91 5.91 0 005.835-4.962 1.327 1.327 0 00-1.304-1.538zM5.853 4.709l2.367 5.944H3.485l2.368-5.944zm2.954 9.975a4.535 4.535 0 01-5.909 0 4.54 4.54 0 01-1.514-2.656h8.937a4.54 4.54 0 01-1.514 2.656zm22.87-3.567a1.317 1.317 0 00-1.004-.464h-.684L26.78 2.597c0-.003-.002-.006-.004-.008-.004-.012-.01-.023-.015-.035l-.014-.028-.017-.03-.018-.028-.019-.026-.02-.028-.023-.025-.022-.024-.027-.025-.022-.02-.03-.022-.024-.017-.03-.019-.028-.016-.03-.014c-.01-.006-.021-.01-.033-.016l-.008-.003-.02-.008a.807.807 0 00-.101-.028.656.656 0 00-.201-.01.741.741 0 00-.098.018.687.687 0 00-.067.02l-.022.007-.009.004-.032.015-.03.015-.027.016-.03.019c-.009.005-.016.011-.024.017l-.03.023-.023.02-.027.024-.022.025-.022.024-.021.029-.019.025-.018.03-.017.028-.014.028-.015.035-.004.008-3.21 8.056h-.683c-.387 0-.753.169-1.004.464a1.327 1.327 0 00-.3 1.073 5.917 5.917 0 005.836 4.963 5.91 5.91 0 005.835-4.962 1.327 1.327 0 00-.3-1.074zm-5.535-6.408l2.367 5.944h-4.735l2.367-5.944zm2.954 9.975a4.535 4.535 0 01-7.423-2.656h8.937a4.541 4.541 0 01-1.514 2.656z" fill="#fff"/><path d="M28.07 1.58h-9.89A2.298 2.298 0 0016 0c-1.016 0-1.88.664-2.18 1.58H3.93a.688.688 0 000 1.376h9.776v15.812h-1.393a2.268 2.268 0 00-2.266 2.266v.722h-.69c-.632 0-1.146.514-1.146 1.146v2.078c0 .632.514 1.146 1.146 1.146h13.286c.631 0 1.146-.514 1.146-1.146v-2.078c0-.632-.515-1.146-1.146-1.146h-.691v-.722a2.268 2.268 0 00-2.266-2.266h-1.392V2.956h9.776a.688.688 0 000-1.375zM16 1.376a.92.92 0 010 1.838.92.92 0 010-1.838zm6.414 23.376H9.586v-1.62h12.828v1.62zm-1.837-3.717v.722h-9.155v-.722c0-.491.4-.89.891-.89h7.373c.491 0 .891.399.891.89zm-5.496-2.266V4.395a2.28 2.28 0 001.838 0v14.373H15.08z" fill="#fff"/></svg>