<svg width="33" height="33" fill="none" xmlns="http://www.w3.org/2000/svg"><path d="M2.938 27.39V10.839c0-.748.606-1.355 1.354-1.355h1.655m20.701 0h1.692c.748 0 1.354.607 1.354 1.355v16.55m1.092.318H1.839a.84.84 0 00-.839.84v.32a2.756 2.756 0 002.756 2.757H28.87a2.756 2.756 0 002.756-2.757v-.32a.84.84 0 00-.84-.84z" stroke="#fff" stroke-width="1.375" stroke-miterlimit="10" stroke-linecap="round" stroke-linejoin="round"/><path d="M26.722 11.408C26.722 5.66 22.062 1 16.314 1 10.566 1 5.906 5.66 5.906 11.408c0 4.76 3.197 8.775 7.56 10.013l2.848 3.721 2.847-3.72c4.364-1.24 7.56-5.253 7.56-10.014zM6.086 22.059h2.448m-2.448 2.75h5.773m14.675-2.75h-2.448m2.444 2.75h-5.772" stroke="#fff" stroke-width="1.375" stroke-miterlimit="10" stroke-linecap="round" stroke-linejoin="round"/><path d="M11.235 11.352l-2.469-1.026a.34.34 0 01-.017-.623l7.09-3.389c.309-.148.67-.148.98 0l7.089 3.39a.34.34 0 01-.018.622l-2.469 1.026" stroke="#fff" stroke-width="1.375" stroke-miterlimit="10" stroke-linecap="round" stroke-linejoin="round"/><path d="M21.42 15.27v-3.918l-.89-.365a11.09 11.09 0 00-8.404 0l-.892.365v3.917h10.187zm2.682-5.25v3.028" stroke="#fff" stroke-width="1.375" stroke-miterlimit="10" stroke-linecap="round" stroke-linejoin="round"/></svg>