<svg width="32" height="32" fill="none" xmlns="http://www.w3.org/2000/svg"><path d="M30.098 1.9A6.443 6.443 0 0025.512 0c-1.732 0-3.36.675-4.586 1.9l-4.043 4.043.972.972 4.043-4.043a5.077 5.077 0 013.614-1.497c1.365 0 2.648.532 3.613 1.497a5.116 5.116 0 010 7.227l-4.043 4.043.972.972 4.044-4.043a6.493 6.493 0 000-9.171z" fill="#fff"/><path d="M26.744 14.828L17.17 5.256a.688.688 0 00-.972 0l-7.215 7.215a.688.688 0 000 .972l2.218 2.217-10.18 11.027a.687.687 0 00.018.953l1.174 1.174L.2 30.826a.688.688 0 10.973.972l2.012-2.012L4.36 30.96a.686.686 0 00.952.019L16.34 20.798l2.217 2.217a.685.685 0 00.972 0l7.215-7.215a.688.688 0 000-.972zM4.865 29.52l-2.386-2.385 1.306-1.415 2.495 2.494-1.415 1.306zm2.426-2.24l-2.572-2.57 7.456-8.076 3.192 3.192L7.29 27.28zm11.752-5.723l-8.6-8.6 2.635-2.635 8.6 8.6-2.635 2.635zm3.607-3.608l-8.6-8.6 2.635-2.635 8.6 8.6-2.635 2.635z" fill="#fff"/></svg>