<svg width="32" height="32" fill="none" xmlns="http://www.w3.org/2000/svg"><g clip-path="url(#clip0_372_4249)" fill="#fff"><path d="M24.25 0H7.75a.688.688 0 00-.688.688v12.59h1.375V1.376h15.126V13.28h1.375V.688A.688.688 0 0024.25 0z"/><path d="M21 8.305H11a.688.688 0 000 1.375h10a.688.688 0 000-1.375zm-7.071 2.75H11a.687.687 0 100 1.375h2.929a.687.687 0 100-1.375z"/><path d="M31.656 8.721a.687.687 0 00-.687 0l-8.443 4.874a.687.687 0 00-.252.94l.011.018-.817.461c-.443.25-.98.268-1.439.047l-2.4-1.156a3.459 3.459 0 00-3.234.12l-2.868 1.657-1.848-1.067.047-.08a.688.688 0 00-.252-.94L1.031 8.721A.687.687 0 000 9.316V20.17c0 .245.131.472.344.595l3.743 2.162a.688.688 0 00.92-.22l1.031.595a2.029 2.029 0 001.227 2.71c-.095.468-.027.972.23 1.418a2.033 2.033 0 002.034.996c.031.273.118.538.26.783.27.47.709.806 1.232.946a2.043 2.043 0 00.808.05 2.033 2.033 0 003.033 1.523l.45-.26a2.03 2.03 0 00.557-.472l1.27.732a2.033 2.033 0 003.033-1.523 1.993 1.993 0 00.806-.05 2.027 2.027 0 001.493-1.73 2.033 2.033 0 002.034-.997 2.02 2.02 0 00.23-1.417 2.03 2.03 0 001.2-2.77l1.024-.59.014.024a.687.687 0 00.94.252l3.743-2.162A.688.688 0 0032 20.17V9.316a.687.687 0 00-.344-.595zM1.375 19.771v-9.264l6.816 3.936L4.18 21.39l-2.804-1.62zm6.207 3.746l.75-.433a.651.651 0 01.52-.06.658.658 0 01.137 1.196l-.75.434a.657.657 0 01-.657-1.137zm1.104 3.224a.657.657 0 01.24-.896l1.106-.639a.657.657 0 01.656 1.137l-1.106.638a.657.657 0 01-.896-.24zm2.691 2.085a.653.653 0 01-.158-1.202l.799-.461a.652.652 0 01.896.24.652.652 0 01-.24.897l-.799.46a.652.652 0 01-.498.066zm3.568.986a.654.654 0 01-.32.465l-.45.26a.657.657 0 01-.657-1.137l.45-.26a.66.66 0 01.817.13.655.655 0 01.16.542zm9.713-5.398a.657.657 0 01-.897.24l-3.3-1.905a.688.688 0 00-.687 1.19l3.3 1.906a.657.657 0 01-.656 1.136l-3.3-1.905a.688.688 0 00-.688 1.191l2.351 1.357a.652.652 0 01.24.896.652.652 0 01-.399.306.651.651 0 01-.497-.065l-2.35-1.357a.688.688 0 00-.688 1.19l1.395.806a.657.657 0 01-.656 1.137l-1.498-.865a2.022 2.022 0 00-.519-1.32 2.034 2.034 0 00-1.432-.67 2.02 2.02 0 00-.272-.966A2.018 2.018 0 0012.39 25.7a2.028 2.028 0 00-1.702-1.929c.02-.34-.043-.689-.202-1.013a2.038 2.038 0 00-1.232-1.049 2.039 2.039 0 00-1.608.184l-.647.374-1.303-.752 3.297-5.71 1.363.788a2.175 2.175 0 002.87 3.127l2.308-1.332 8.885 5.13c.313.18.42.582.24.896zm.28-2.184l-9.061-5.232a.688.688 0 00-.688 0l-2.652 1.531a.8.8 0 01-1.17-.897.793.793 0 01.372-.485l3.344-1.931a2.085 2.085 0 011.948-.073l2.401 1.157a2.93 2.93 0 002.711-.088l.83-.468 3.3 5.715-1.336.77zm5.687-2.458l-2.804 1.619-4.012-6.948 6.816-3.936v9.265zM21 6.875H11a.688.688 0 01-.688-.688v-2.75c0-.38.308-.687.688-.687h10c.38 0 .688.308.688.688v2.75c0 .38-.308.687-.688.687zM11.687 5.5h8.626V4.125h-8.625V5.5z"/></g><defs><clipPath id="clip0_372_4249"><path fill="#fff" d="M0 0h32v32H0z"/></clipPath></defs></svg>