<svg width="46" height="46" fill="none" xmlns="http://www.w3.org/2000/svg"><g clip-path="url(#clip0_1000_2174)" fill="#fff"><path d="M34.6.5H11.396a.967.967 0 00-.966.967v17.706h1.933V2.433h21.27v16.74h1.933V1.467A.967.967 0 0034.6.5z"/><path d="M30.03 12.178H15.966a.967.967 0 000 1.933h14.062a.967.967 0 100-1.933zm-9.945 3.867h-4.118a.967.967 0 000 1.933h4.118a.967.967 0 100-1.933z"/><path d="M45.017 12.764a.967.967 0 00-.967 0L32.177 19.62a.967.967 0 00-.354 1.32l.015.026-1.15.65a2.186 2.186 0 01-2.022.065l-3.376-1.626a4.864 4.864 0 00-4.546.17l-4.035 2.329-2.598-1.5.066-.113a.967.967 0 00-.354-1.32L1.95 12.763a.967.967 0 00-1.45.838v15.26c0 .346.184.665.483.838l5.265 3.04a.967.967 0 001.292-.31l1.451.837a2.853 2.853 0 001.725 3.81 2.845 2.845 0 00.324 1.995 2.858 2.858 0 002.86 1.401c.044.383.166.757.365 1.101.381.66.997 1.134 1.734 1.331a2.875 2.875 0 001.135.07 2.858 2.858 0 004.265 2.142l.634-.366c.304-.175.567-.401.782-.664l1.786 1.03a2.859 2.859 0 004.265-2.142 2.812 2.812 0 001.135-.07 2.838 2.838 0 001.734-1.33 2.87 2.87 0 00.365-1.102 2.859 2.859 0 002.86-1.401 2.844 2.844 0 00.324-1.995 2.855 2.855 0 001.688-3.895l1.44-.83.02.033a.967.967 0 001.32.354l5.264-3.04a.967.967 0 00.484-.836v-15.26a.966.966 0 00-.483-.838zM2.434 28.304V15.276l9.585 5.534-5.642 9.771-3.943-2.277zm8.729 5.267l1.055-.609a.915.915 0 01.73-.083.914.914 0 01.56.476.925.925 0 01-.367 1.206l-1.055.609a.924.924 0 01-.923-1.599zm1.552 4.534a.924.924 0 01.338-1.26l1.554-.898a.924.924 0 01.923 1.598l-1.555.898a.924.924 0 01-1.26-.338zm3.785 2.932a.917.917 0 01-.56-.43.918.918 0 01-.093-.7.917.917 0 01.43-.56l1.123-.649a.917.917 0 01.7-.092.916.916 0 01.56.43.916.916 0 01.093.7.917.917 0 01-.43.56l-1.123.65a.916.916 0 01-.7.091zm5.016 1.386a.92.92 0 01-.45.654l-.634.366a.924.924 0 01-.922-1.599l.633-.366a.927.927 0 011.149.184.92.92 0 01.224.761zm13.659-7.591a.924.924 0 01-1.26.338l-4.64-2.679a.967.967 0 00-.967 1.675l4.64 2.678a.924.924 0 01-.923 1.599l-4.64-2.679a.967.967 0 00-.967 1.674l3.306 1.909a.917.917 0 01.429.56.917.917 0 01-.092.7.917.917 0 01-.56.43.916.916 0 01-.7-.092l-3.306-1.908a.967.967 0 00-.967 1.674l1.963 1.133a.924.924 0 01-.924 1.599l-2.106-1.217a2.842 2.842 0 00-.73-1.855 2.86 2.86 0 00-2.013-.944 2.841 2.841 0 00-.383-1.358 2.838 2.838 0 00-1.734-1.33 2.874 2.874 0 00-.679-.098 2.852 2.852 0 00-2.394-2.713 2.82 2.82 0 00-.284-1.424 2.866 2.866 0 00-1.732-1.475 2.867 2.867 0 00-2.261.259l-.91.525-1.832-1.057 4.636-8.029 1.917 1.107a3.055 3.055 0 00-.446.963c-.21.79-.1 1.615.31 2.322a3.061 3.061 0 004.171 1.113l3.246-1.874 12.494 7.213c.44.255.592.82.338 1.261zm.393-3.071l-12.742-7.357a.967.967 0 00-.966 0l-3.73 2.153a1.124 1.124 0 01-1.645-1.261c.077-.29.263-.533.523-.683l4.702-2.715a2.932 2.932 0 012.74-.102l3.377 1.626a4.12 4.12 0 003.812-.124l1.166-.658 4.64 8.037-1.877 1.084zm7.998-3.457l-3.943 2.277-5.642-9.77 9.585-5.535v13.028zM30.03 10.168H15.966A.967.967 0 0115 9.201V5.334c0-.534.433-.967.967-.967h14.062c.534 0 .967.433.967.967v3.867a.967.967 0 01-.967.967zM16.933 8.234h12.128V6.301H16.934v1.933z"/></g><defs><clipPath id="clip0_1000_2174"><path fill="#fff" transform="translate(.5 .5)" d="M0 0h45v45H0z"/></clipPath></defs></svg>