<svg width="46" height="46" fill="none" xmlns="http://www.w3.org/2000/svg"><g clip-path="url(#clip0_1000_2397)" fill="#fff"><path d="M12.146 29.004H7.091a.967.967 0 00-.967.967v12.818h1.934V30.937h3.12V42.79h1.933V29.97a.967.967 0 00-.966-.967zm8.921-4.394h-5.053a.967.967 0 00-.967.966V42.79h1.933V26.543h3.12v16.246h1.934V25.576a.967.967 0 00-.967-.967zm8.923-4.395h-5.054a.967.967 0 00-.967.967v21.607h1.933v-20.64h3.12v20.64h1.934V21.182a.967.967 0 00-.967-.967zm8.917-4.395h-5.053a.967.967 0 00-.967.967V42.79h1.933V17.754h3.12v25.035h1.934V16.787a.967.967 0 00-.967-.967z"/><path d="M45.217 42.106l-1.743-1.743a.967.967 0 10-1.368 1.368l.093.092H4.177V3.801l.092.093a.964.964 0 001.368 0 .967.967 0 000-1.368L3.893.783a.967.967 0 00-1.367 0L.783 2.526A.967.967 0 002.15 3.894l.093-.093v38.99c0 .533.433.966.967.966H42.2l-.094.093a.967.967 0 001.368 1.367l1.743-1.743a.967.967 0 000-1.367z"/><path d="M9.62 27.283a.967.967 0 00.966-.967v-5.25a3.498 3.498 0 013.494-3.494 3.498 3.498 0 013.493 3.493v.786a.967.967 0 001.934 0v-5.25A3.498 3.498 0 0123 13.106a3.498 3.498 0 013.494 3.493v.786a.967.967 0 001.934 0v-5.25a3.498 3.498 0 013.493-3.494 3.498 3.498 0 013.494 3.493v.786a.967.967 0 101.934 0V7.67a3.498 3.498 0 013.493-3.494h.288l-.093.092a.967.967 0 001.368 1.368l1.743-1.743a.967.967 0 000-1.368L42.405.783a.967.967 0 10-1.367 1.368l.092.092h-.288a5.433 5.433 0 00-5.427 5.427v.315a5.403 5.403 0 00-3.494-1.277 5.433 5.433 0 00-5.427 5.427v.315A5.403 5.403 0 0023 11.173a5.433 5.433 0 00-5.427 5.427v.315a5.403 5.403 0 00-3.493-1.277 5.433 5.433 0 00-5.428 5.427v5.251c0 .534.433.967.967.967z"/></g><defs><clipPath id="clip0_1000_2397"><path fill="#fff" transform="translate(.5 .5)" d="M0 0h45v45H0z"/></clipPath></defs></svg>