<svg width="46" height="46" fill="none" xmlns="http://www.w3.org/2000/svg"><g clip-path="url(#clip0_1000_2431)" fill="#fff"><path d="M38.022 17.188a.967.967 0 00-.967.966v4.755h1.933v-4.755a.967.967 0 00-.966-.966z"/><path d="M38.298 11.686a4.884 4.884 0 001.01-2.979 4.915 4.915 0 00-4.91-4.91A4.918 4.918 0 0029.7 7.286l-3.795-5.27-.002.001a3.492 3.492 0 00-.893-.893 3.564 3.564 0 00-4.889.847l-3.826 5.313a4.918 4.918 0 00-4.7-3.488 4.915 4.915 0 00-4.91 4.91 4.88 4.88 0 001.011 2.978 5.348 5.348 0 00-5.246 5.34v5.97h1.934v-5.97a3.411 3.411 0 013.408-3.408h3.804c1.641 0 3.096-.81 3.988-2.052l.008.006 3.992-5.544 2.724 1.984-6.342 9.609a.967.967 0 00-.16.532v4.845h1.934v-4.554l5.257-7.965 5.258 7.966v4.554h1.934v-4.844a.968.968 0 00-.16-.533l-5.873-8.898s1.935-2.946 1.993-3.06l4.254 5.91.008-.006a4.906 4.906 0 003.988 2.05h3.803c1.88 0 3.41 1.53 3.41 3.41v5.97h1.933v-5.97a5.347 5.347 0 00-5.246-5.34zm-26.704-.004a2.98 2.98 0 01-2.976-2.976 2.98 2.98 0 012.976-2.977 2.98 2.98 0 012.977 2.977 2.98 2.98 0 01-2.976 2.976zM24.341 4.93l-.967 1.465-2.662-1.938.977-1.356a1.62 1.62 0 012.222-.385 1.62 1.62 0 01.43 2.214zm10.057 6.753a2.98 2.98 0 01-2.976-2.976 2.98 2.98 0 012.976-2.976 2.98 2.98 0 012.977 2.976 2.98 2.98 0 01-2.977 2.976z"/><path d="M7.975 17.188a.967.967 0 00-.967.966v4.755H8.94v-4.755a.967.967 0 00-.966-.966z"/><path d="M44.533 22.031H1.467a.967.967 0 00-.967.967c0 6.01 2.34 11.66 6.59 15.91 4.23 4.23 9.93 6.568 15.91 6.59 5.98-.022 11.68-2.36 15.91-6.59 4.25-4.25 6.59-9.9 6.59-15.91a.967.967 0 00-.967-.967zm-15.33 1.934c-.045 3.049-.303 5.977-.753 8.628h-10.9c-.45-2.651-.708-5.58-.753-8.628h12.406zm-26.747 0h12.407c.044 3.03.293 5.954.728 8.628H4.798a20.42 20.42 0 01-2.342-8.628zM8.457 37.54a20.787 20.787 0 01-2.495-3.015h9.986c.297 1.434.65 2.778 1.06 4.004.711 2.136 1.489 3.645 2.271 4.7a20.418 20.418 0 01-10.822-5.69zM23 43.565c-1.425 0-2.98-2.111-4.158-5.646a32.875 32.875 0 01-.919-3.393h10.154a32.9 32.9 0 01-.919 3.393c-1.178 3.535-2.733 5.646-4.158 5.646zm14.543-6.024a20.417 20.417 0 01-10.822 5.688c.782-1.054 1.56-2.564 2.272-4.699.408-1.226.762-2.57 1.06-4.004h9.985a20.78 20.78 0 01-2.495 3.015zm3.66-4.948H30.408c.435-2.674.684-5.597.728-8.628h12.407a20.421 20.421 0 01-2.342 8.628z"/></g><defs><clipPath id="clip0_1000_2431"><path fill="#fff" transform="translate(.5 .5)" d="M0 0h45v45H0z"/></clipPath></defs></svg>