<svg width="515" height="515" fill="none" xmlns="http://www.w3.org/2000/svg"><path d="M421.541 92.536c36.776 36.775 59.022 83.084 65.833 131.211l24.516-1.817c-7.264-53.573-31.782-105.785-72.642-147.1-16.798-16.799-34.959-30.42-54.482-41.77L373.87 55.307c16.799 9.988 33.144 22.7 47.671 37.23zm-328.705 0c6.81-6.81 13.621-13.166 20.885-18.614l-14.075-20.43c-8.626 6.81-16.798 13.62-24.516 21.792C64.233 86.18 55.153 97.53 46.527 109.335l20.884 13.166c7.719-10.896 15.89-20.884 25.425-29.965zm375.035 262.875l21.791 11.804c17.254-36.321 25.426-76.275 24.518-115.773l-24.518 1.816c.455 34.958-6.809 69.918-21.791 102.153zM347.095 42.594l10.896-22.247c-75.367-31.78-162.537-26.332-233.818 16.345l14.075 20.43C201.809 19.44 279.9 14.446 347.095 42.595zM51.984 147.47l-20.885-13.167c-44.493 82.178-41.315 183.422 9.989 262.421l19.976-14.529C15.663 310.914 12.94 221.02 51.984 147.47zm369.549 274.224c-49.941 49.941-117.135 72.187-182.513 67.193l-3.633 24.518c72.644 5.902 147.555-18.615 203.398-74.459 14.075-14.074 26.333-29.51 36.323-45.401l-21.793-11.805c-8.627 14.075-19.069 27.241-31.782 39.954zm-328.671.003a226.905 226.905 0 01-14.074-15.436L58.81 420.789c4.994 6.357 10.896 12.259 16.799 18.16 37.229 37.23 83.084 60.839 131.21 70.372l3.632-24.515c-43.586-9.081-84.447-29.966-117.59-63.109z" fill="#000" fill-opacity=".06"/><path d="M156.426 427.142c-4.54-2.725-8.625-5.449-13.166-8.627l-15.89 19.069c4.994 3.632 10.443 7.264 16.344 10.442 38.592 22.7 81.269 32.69 123.038 30.873l-2.724-24.516c-36.321 1.361-73.551-7.265-107.602-27.241zm-69.477-270.59c3.632-6.356 7.718-12.259 12.258-18.16l-18.614-16.345c-5.448 6.81-9.989 14.075-14.529 21.793-6.356 10.443-11.35 21.792-15.89 32.689l23.609 7.264c3.632-9.08 8.172-18.615 13.166-27.241zm-22.253 55.843l-23.609-7.264c-18.614 77.182 5.448 159.359 64.016 214.295l15.891-19.069c-50.85-49.033-71.734-120.768-56.298-187.962zM283.534 61.208l4.995-24.062C219.973 27.61 149.601 50.312 99.659 99.8l18.615 16.344c44.039-43.131 105.33-63.108 165.26-54.936zm74.448 25.882c37.682 22.247 64.923 54.936 80.814 92.165l23.609-8.172c-17.708-42.678-49.035-79.907-91.711-105.332-16.799-9.988-34.506-17.252-52.666-22.7l-4.994 24.063c14.982 4.54 30.418 11.35 44.948 19.976zm94.011 204.303l24.063 5.902c5.901-33.143 4.54-66.741-4.087-98.521l-23.609 8.172c7.264 27.241 8.627 56.298 3.633 84.447zm-24.554 66.285c-29.965 50.85-79.452 83.539-133.479 93.528l2.723 24.516c61.292-10.896 118.043-47.672 152.095-105.784 8.172-14.075 14.982-29.058 19.977-44.04l-24.063-5.902c-4.54 12.712-10.442 25.424-17.253 37.682zm-230.172 50.397c-4.994-1.816-9.534-4.086-14.075-6.356l-13.167 20.885c5.903 3.178 11.805 5.902 18.161 8.172 9.081 3.632 18.161 6.356 27.241 8.626l3.633-24.516a200.74 200.74 0 01-21.793-6.811z" fill="#000" fill-opacity=".06"/><path d="M408.388 316.818c-1.363 3.178-2.724 6.357-4.087 9.534l21.339 12.712c1.817-4.086 4.087-8.625 5.903-12.712 13.62-34.504 16.345-70.372 9.988-103.969l-24.063 6.357c4.994 28.602 2.271 59.021-9.08 88.078zM248.134 419.427l-3.632 24.517c64.924 4.54 128.486-25.879 166.168-79.452l-21.339-12.713c-32.234 45.402-86.262 70.372-141.197 67.648zM317.129 105.7c44.493 17.706 76.727 52.665 92.164 93.981l24.063-6.357c-17.707-48.579-55.39-89.894-107.148-110.779-12.258-4.994-24.516-8.172-36.775-10.442l-2.27 24.517c9.988 2.27 19.978 5.448 29.966 9.08zM94.655 263.246l-24.97-1.362c1.815 56.751 29.056 110.78 75.366 144.831l13.166-20.885c-38.591-29.057-61.746-74.459-63.562-122.584zM257.648 94.35l2.27-24.516c-26.787-.454-52.666 4.994-76.729 15.437l11.805 21.792c19.522-8.172 40.861-12.712 62.654-12.712zM106.023 196.958c12.713-32.234 34.959-58.567 62.2-76.274l-11.805-21.793c-32.234 20.431-58.567 50.851-73.55 88.987-5.902 14.528-9.534 29.512-11.35 44.494l24.97 1.361c1.363-12.258 4.541-24.516 9.535-36.775z" fill="#000" fill-opacity=".06"/><path d="M384.319 248.262l24.971 1.361c-2.724-50.849-30.873-98.067-74.913-123.946l-10.442 22.701c34.959 21.339 57.659 59.021 60.384 99.884zm-253.806 24.062h-24.971c2.27 19.522 7.718 38.591 17.253 55.843l20.884-13.621c-6.81-13.165-11.349-27.24-13.166-42.222zm91.719 107.602c-25.426-7.264-46.31-21.793-62.201-40.407l-20.43 13.62c19.069 23.609 44.947 41.315 76.274 50.396 11.351 3.177 22.701 4.994 34.051 5.448l-1.362-24.971a127.306 127.306 0 01-26.332-4.086zm55.864 3.179l1.362 24.97c43.585-6.356 83.084-31.78 107.147-69.464l-22.246-10.896c-19.977 29.057-51.759 49.487-86.263 55.39zm101.695-90.802l-2.724 8.172 22.246 10.897c1.363-4.087 3.178-8.173 4.087-12.714 1.815-6.809 3.178-13.166 4.085-19.976l-24.97-1.361c0 5.447-1.363 9.988-2.724 14.982zM134.6 221.93c9.988-34.96 33.596-62.2 63.561-78.09l-9.08-23.155c-36.775 18.614-66.286 51.757-78.545 94.434-2.724 9.081-4.54 18.615-4.994 28.15h24.971c.454-7.265 1.817-14.529 4.087-21.339zm157.563-87.627c1.363.454 3.179.907 4.54 1.361l10.442-22.7-8.171-2.724c-27.695-8.173-56.298-7.719-82.177-.454l9.081 23.154c20.885-4.994 44.039-4.994 66.285 1.363z" fill="#000" fill-opacity=".06"/></svg>