<svg width="1299" height="283" fill="none" xmlns="http://www.w3.org/2000/svg"><path fill-rule="evenodd" clip-rule="evenodd" d="M185.473 0C70.738 30.028 0 71.146 0 116.5 0 208.455 290.791 283 649.5 283c358.71 0 649.5-74.545 649.5-166.5 0-45.354-70.74-86.472-185.47-116.5H185.473z" fill="#1C3B40"/><path fill-rule="evenodd" clip-rule="evenodd" d="M70.458 0C25.404 22.662 0 48.32 0 75.5 0 167.455 290.791 242 649.5 242c358.71 0 649.5-74.545 649.5-166.5 0-27.18-25.4-52.838-70.46-75.5H70.458z" fill="#005D62"/><path fill-rule="evenodd" clip-rule="evenodd" d="M178.954 0C157.662 14.288 146 29.795 146 46c0 71.245 225.425 129 503.5 129S1153 117.245 1153 46c0-16.205-11.66-31.712-32.95-46H178.954z" fill="#fff"/><path fill-rule="evenodd" clip-rule="evenodd" d="M294.549 0C282.512 9.439 276 19.523 276 30c0 53.02 166.774 96 372.5 96S1021 83.02 1021 30c0-10.477-6.51-20.561-18.55-30H294.549z" fill="#005D62"/><path fill-rule="evenodd" clip-rule="evenodd" d="M389.139 0C382.534 5.585 379 11.477 379 17.568 379 53.153 499.659 82 648.5 82S918 53.153 918 17.568c0-6.09-3.534-11.983-10.139-17.568H389.139z" fill="#fff"/><path fill-rule="evenodd" clip-rule="evenodd" d="M488.722 0C487.588 1.958 487 3.962 487 6c0 22.644 72.53 41 162 41S811 28.644 811 6c0-2.038-.588-4.042-1.722-6H488.722z" fill="#005D62"/></svg>