<svg width="1920" height="214" fill="none" xmlns="http://www.w3.org/2000/svg"><g clip-path="url(#clip0_2009_917)"><path opacity=".5" fill-rule="evenodd" clip-rule="evenodd" d="M-242.398 1.726C-361.047.18-468.004 44.32-557.897 163.915l-1.348-1.014C-469.025 42.871-361.557-1.514-242.376.039-123.27 1.591 7.487 49.02 144.369 112.455c65.436 30.325 132.298 64.321 199.976 98.731l9.359 4.759c70.879 36.031 142.622 72.354 214.561 105.257 143.888 65.812 288.484 117.909 428.38 126.634 86.235 5.379 174.095-20.452 262.515-61.086 80.73-37.095 161.86-86.493 242.62-135.667 7.71-4.693 15.42-9.385 23.12-14.064 88.36-53.68 176.2-105.659 262.38-139.37 86.18-33.714 170.79-49.193 252.7-29.787l-.39 1.641c-81.44-19.296-165.68-3.931-251.7 29.717-86.02 33.651-173.74 85.552-262.12 139.242-7.7 4.68-15.41 9.374-23.12 14.07-80.75 49.164-161.97 98.613-242.78 135.751-88.55 40.687-176.69 66.641-263.33 61.237-140.212-8.745-285.036-60.948-428.976-126.783-71.975-32.92-143.748-69.258-214.623-105.288l-9.354-4.756c-67.685-34.414-134.52-68.396-199.926-98.707C6.807 50.564-123.673 3.273-242.398 1.726zm-.807 18.966c-118.481-1.634-225.106 40.892-314.446 156.379l-1.333-1.032C-469.308 60.116-362.172 17.364-243.182 19.005c118.92 1.641 249.646 47.622 386.591 109.034 64.992 29.144 131.409 61.777 198.649 94.813l10.839 5.325c70.947 34.85 142.773 69.965 214.801 101.755 144.067 63.584 288.872 113.83 428.942 122.03 87.52 5.046 176.02-20.062 264.69-59.451 81.39-36.16 162.87-84.325 243.81-132.178 7.23-4.275 14.46-8.548 21.68-12.81 88.05-51.946 175.4-102.217 261.18-134.797 85.79-32.582 170.07-47.502 251.97-28.665l-.38 1.644c-81.45-18.734-165.37-3.92-250.99 28.598-85.62 32.521-172.86 82.719-260.92 134.674-7.23 4.264-14.46 8.54-21.7 12.819-80.93 47.842-162.48 96.056-243.97 132.257-88.78 39.441-177.56 64.661-265.468 59.594-140.377-8.218-285.404-58.565-429.524-122.172-72.064-31.805-143.92-66.935-214.864-101.783l-10.835-5.323c-67.246-33.039-133.637-65.659-198.6-94.791C5.803 68.179-124.654 22.328-243.205 20.692zm-.808 18.966c-118.312-1.724-224.605 39.19-313.392 150.57l-1.317-1.052C-469.59 77.362-362.787 36.24-243.988 37.971c118.733 1.73 249.428 46.263 386.436 105.651 64.522 27.968 130.469 59.242 197.242 90.909l12.399 5.879c71.015 33.667 142.924 67.575 215.042 98.251 144.246 61.356 289.26 109.752 429.504 117.427 88.805 4.711 177.955-19.672 266.855-57.816 82.06-35.206 163.85-82.106 244.95-128.611 6.78-3.883 13.54-7.764 20.31-11.634 87.72-50.212 174.6-98.777 259.98-130.225 85.38-31.45 169.34-45.81 251.23-27.543l-.37 1.647c-81.45-18.171-165.06-3.91-250.28 27.48-85.23 31.392-171.99 79.885-259.73 130.105-6.76 3.873-13.54 7.757-20.31 11.643-81.09 46.495-162.97 93.443-245.12 128.689-89.02 38.194-178.43 62.68-267.606 57.949h-.001c-140.541-7.691-285.772-56.18-430.071-117.558-72.154-30.692-144.092-64.613-215.105-98.28l-12.395-5.877c-66.779-31.669-132.7-62.931-197.194-90.887C4.799 85.794-125.635 41.383-244.013 39.658zm-.807 18.967c-118.144-1.813-224.105 37.488-312.339 144.761l-1.301-1.072C-469.871 94.609-363.402 55.118-244.794 56.938c118.548 1.82 249.211 44.904 386.282 102.269 64.027 26.795 129.474 56.717 195.754 87.019l14.039 6.418c71.083 32.485 143.076 65.185 215.284 94.748 144.424 59.128 289.646 105.673 430.064 112.823 90.101 4.377 179.881-19.282 269.021-56.18 82.71-34.234 164.8-79.837 246.05-124.968 6.33-3.517 12.65-7.03 18.97-10.536 87.41-48.477 173.8-95.335 258.78-125.651 84.99-30.318 168.62-44.12 250.51-26.421l-.36 1.649c-81.46-17.608-164.76-3.899-249.58 26.361-84.83 30.263-171.11 77.052-258.53 125.538-6.33 3.508-12.66 7.024-18.99 10.544-81.23 45.121-163.4 90.77-246.2 125.043-89.26 36.947-179.31 60.7-269.753 56.306h-.002c-140.706-7.165-286.14-53.797-430.619-112.947-72.243-29.577-144.264-62.29-215.345-94.775-4.68-2.138-9.357-4.276-14.028-6.412-66.288-30.306-131.713-60.218-195.715-87.003C3.796 103.41-126.615 60.439-244.82 58.625zm-.799 18.966c-117.976-1.902-223.606 35.786-311.287 138.952l-1.284-1.093c88.046-103.595 194.181-141.455 312.598-139.546 118.361 1.908 248.994 43.545 386.127 98.886 63.504 25.628 128.423 54.203 194.179 83.147 5.25 2.311 10.506 4.625 15.767 6.939 71.151 31.303 143.227 62.796 215.525 91.245 144.603 56.9 290.035 101.595 430.628 108.219 91.386 4.044 181.816-18.891 271.196-54.544 83.33-33.243 165.71-77.52 247.07-121.251 5.91-3.174 11.81-6.346 17.7-9.511 87.09-46.743 173.01-91.893 257.59-121.077 84.58-29.187 167.89-42.43 249.77-25.3l-.35 1.652c-81.47-17.046-164.45-3.888-248.87 25.242-84.44 29.134-170.24 74.219-257.34 120.97-5.9 3.168-11.81 6.343-17.72 9.521-81.34 43.72-163.8 88.041-247.23 121.321-89.5 35.701-180.18 58.721-271.893 54.662h-.002c-140.872-6.637-286.509-51.413-431.166-108.334-72.333-28.462-144.437-59.968-215.587-91.27l-15.764-6.938c-65.76-28.946-130.656-57.511-194.133-83.128C2.8 121.025-127.588 79.493-245.619 77.591zm-.808 18.966c-117.807-1.99-223.106 34.084-310.234 133.144l-1.266-1.115c87.502-99.484 193.303-135.713 311.529-133.716 118.175 1.997 248.777 42.186 385.972 95.504 62.947 24.463 127.303 51.698 192.498 79.288 5.86 2.48 11.727 4.963 17.601 7.447 71.219 30.121 143.378 60.407 215.766 87.742 144.782 54.672 290.421 97.515 431.188 103.615 179.543 7.188 353.013-82.908 521.483-170.405 5.48-2.845 10.95-5.687 16.42-8.523 86.77-45.009 172.2-88.452 256.38-116.504 84.19-28.055 167.17-40.739 249.04-24.177l-.33 1.654c-81.48-16.483-164.15-3.878-248.18 24.123-84.03 28.004-169.35 71.385-256.13 116.402-5.53 2.865-11.05 5.736-16.59 8.61-168.32 87.425-342.16 177.712-522.161 170.505h-.002c-141.037-6.111-286.876-49.029-431.714-103.722-72.422-27.348-144.608-57.645-215.827-87.766-5.872-2.483-11.737-4.965-17.596-7.445-65.2-27.592-129.533-54.818-192.456-79.271C1.796 138.64-128.569 98.549-246.427 96.557zm-.807 18.966c-117.639-2.079-222.608 32.382-309.184 127.336l-1.245-1.137c86.958-95.373 192.424-129.972 310.459-127.885 117.989 2.085 248.56 40.827 385.817 92.121 62.356 23.303 126.112 49.204 190.708 75.447 6.506 2.643 13.021 5.29 19.543 7.938 71.288 28.938 143.53 58.017 216.007 84.238 144.963 52.445 290.812 93.437 431.754 99.011 182.425 6.554 356.335-80.6 524.565-164.9 5.09-2.554 10.18-5.105 15.27-7.65 86.44-43.275 171.4-85.011 255.18-111.931 83.78-26.923 166.44-39.049 248.3-23.055l-.32 1.656c-81.48-15.92-163.84-3.867-247.47 23.005-83.63 26.875-168.48 68.552-254.94 111.834-5.14 2.572-10.28 5.15-15.43 7.73-168.09 84.237-342.36 171.568-525.218 164.997h-.003c-141.202-5.585-287.244-46.646-432.261-99.11-72.511-26.234-144.781-55.324-216.068-84.262-6.521-2.647-13.035-5.294-19.54-7.936-64.601-26.245-128.334-52.137-190.666-75.431-137.231-51.284-267.573-89.935-385.258-92.016zm-.807 18.966c-117.471-2.168-222.11 30.679-308.133 121.529l-1.224-1.16c86.413-91.261 191.544-124.231 309.388-122.055 117.803 2.174 248.342 39.469 385.663 88.739 61.722 22.146 124.833 46.719 188.785 71.619 7.196 2.802 14.402 5.608 21.618 8.415 71.356 27.756 143.681 55.627 216.248 80.735 145.141 50.216 291.198 89.357 432.314 94.406 185.292 5.919 359.622-78.241 527.572-159.322l14.19-6.849c172.21-83.058 337.89-160.134 501.56-129.291l-.32 1.658c-163.02-30.722-328.17 46.034-500.51 129.152-4.77 2.303-9.55 4.611-14.34 6.922-167.83 81.024-342.5 165.348-528.206 159.416h-.003c-141.366-5.057-287.612-44.262-432.807-94.498-72.601-25.119-144.953-53-216.309-80.757-7.216-2.807-14.422-5.613-21.617-8.414-63.956-24.902-127.045-49.466-188.744-71.604C-.21 173.869-130.53 136.659-248.041 134.489zm-.807 18.967c-117.303-2.257-221.612 28.976-307.084 115.722l-1.201-1.185c85.869-87.148 190.665-118.488 308.317-116.223 117.617 2.263 248.125 38.11 385.507 85.358 61.045 20.993 123.464 44.244 186.724 67.808 7.931 2.955 15.876 5.914 23.832 8.874 71.424 26.575 143.832 53.238 216.49 77.232 145.321 47.989 291.588 85.279 432.879 89.802 188.144 5.278 362.854-75.837 530.504-153.674 4.4-2.043 8.8-4.083 13.19-6.119 171.57-79.593 335.97-153.303 499.62-123.596l-.3 1.66c-163.04-29.594-326.92 43.82-498.61 123.466-4.44 2.058-8.88 4.12-13.33 6.185-167.54 77.788-342.58 159.054-531.124 153.765h-.004c-141.531-4.531-287.979-41.88-433.354-89.887-72.69-24.004-145.124-50.678-216.548-77.252-7.958-2.961-15.903-5.921-23.834-8.875-63.263-23.565-125.66-46.808-186.683-67.794-137.357-47.238-267.654-83.008-384.991-85.267zm-.807 18.966c-117.135-2.347-221.115 27.272-306.036 109.915l-1.175-1.21c85.323-83.034 189.783-112.745 307.244-110.392 117.431 2.353 247.907 36.753 385.353 81.976 60.313 19.845 121.984 41.78 184.495 64.013 8.722 3.103 17.46 6.21 26.213 9.319 71.492 25.393 143.983 50.849 216.731 73.729 145.499 45.761 291.976 81.2 433.441 85.198 190.979 4.635 366.049-73.386 533.369-147.957l12.26-5.459c170.94-76.126 334.04-146.471 497.68-117.9l-.29 1.662c-163.04-28.467-325.66 41.605-496.71 117.78-4.12 1.836-8.25 3.675-12.38 5.517-167.23 74.528-342.61 152.688-533.972 148.044h-.003c-141.696-4.005-288.347-39.497-433.901-85.276-72.779-22.89-145.296-48.355-216.789-73.748-8.753-3.109-17.49-6.216-26.211-9.318-62.514-22.234-124.166-44.163-184.46-64.001-137.42-45.215-267.695-79.545-384.859-81.892zm-.8 18.967c-116.966-2.436-220.617 25.567-304.988 104.108l-1.148-1.235c84.777-78.92 188.901-107.002 306.171-104.56 117.245 2.442 247.69 35.394 385.196 78.594 59.563 18.713 120.423 39.338 182.118 60.246 80.818 27.389 163.07 55.264 245.715 79.961 145.68 43.534 292.366 77.121 434.006 80.593 193.795 3.988 369.185-70.888 536.155-142.17 3.8-1.625 7.6-3.248 11.4-4.868 170.31-72.66 332.12-139.64 495.75-112.205l-.28 1.664c-163.05-27.34-324.4 39.391-494.81 112.093-3.84 1.637-7.68 3.277-11.52 4.919-166.89 71.247-342.57 146.25-536.733 142.254h-.003c-141.861-3.478-288.715-37.114-434.447-80.664-82.633-24.693-164.974-52.597-245.845-80.003-61.701-20.909-122.546-41.528-182.011-60.21-137.483-43.193-267.735-76.081-384.726-78.517zm-.807 18.965c-116.797-2.525-220.121 23.863-303.941 98.303l-1.119-1.262c84.23-74.804 188.017-101.259 305.096-98.728 117.059 2.531 247.471 34.037 385.041 75.213 58.7 17.57 118.68 36.893 179.49 56.482 81.778 26.345 165.055 53.173 248.736 76.871 145.858 41.306 292.753 73.041 434.566 75.988 196.583 3.339 372.263-68.342 538.843-136.316 3.55-1.45 7.1-2.898 10.65-4.343 169.67-69.194 330.2-132.81 493.82-106.51l-.27 1.665c-163.07-26.212-323.15 37.176-492.92 106.407-3.58 1.461-7.16 2.924-10.76 4.389-166.5 67.943-342.46 139.74-539.391 136.395h-.003c-142.026-2.951-289.082-34.731-434.994-76.052-83.675-23.696-167.037-50.55-248.861-76.909-60.813-19.59-120.777-38.907-179.389-56.451-137.547-41.169-267.777-72.617-384.594-75.142zm-.807 18.968c-116.629-2.614-219.625 22.158-302.896 92.497l-1.088-1.289c83.684-70.688 187.133-95.515 304.021-92.895 116.873 2.62 247.254 32.679 384.886 71.832 57.758 16.431 116.776 34.457 176.615 52.735 82.814 25.295 167.202 51.071 252.005 73.763 146.039 39.079 293.144 68.963 435.133 71.384 199.343 2.687 375.263-65.752 541.423-130.395 3.34-1.297 6.67-2.593 10-3.887 169.03-65.727 328.28-125.979 491.88-100.814l-.26 1.667c-163.08-25.084-321.89 34.96-491.01 100.72l-10.1 3.927c-166.09 64.617-342.28 133.161-541.959 130.469h-.003c-142.191-2.425-289.449-32.349-435.54-71.441-84.803-22.692-169.268-48.491-252.124-73.799-59.84-18.277-118.84-36.298-176.521-52.707-137.61-39.146-267.818-69.153-384.462-71.767zm-.808 18.966c-116.459-2.703-219.129 20.452-301.852 86.692l-1.053-1.318c83.136-66.57 186.246-89.769 302.944-87.061 116.687 2.709 247.036 31.321 384.73 68.45 56.727 15.297 114.7 32.038 173.484 49.014 226.675 65.458 465.407 134.398 691.224 137.41 202.06 2.034 378.2-63.115 543.9-124.407 3.16-1.167 6.31-2.333 9.45-3.496 168.4-62.261 326.36-119.15 489.95-95.12l-.24 1.669c-163.1-23.957-320.64 32.744-489.12 95.033-3.18 1.175-6.36 2.352-9.55 3.53-165.64 61.271-342.03 126.515-544.407 124.478h-.003c-226.069-3.015-465.094-72.042-691.791-137.509-58.754-16.967-116.679-33.695-173.336-48.973-137.673-37.124-267.858-65.689-384.33-68.392zm-.807 18.966c-116.29-2.792-218.634 18.746-300.809 80.887l-1.016-1.346c82.587-62.453 185.358-84.025 301.865-81.228 116.5 2.798 246.818 29.964 384.573 65.069 55.589 14.167 112.388 29.625 169.985 45.3 227.949 62.039 468.39 127.476 695.683 129.665 204.733 1.378 381.033-60.433 546.243-118.354l9.04-3.171c167.77-58.794 324.44-112.32 488.02-89.425l-.24 1.671c-163.11-22.829-319.39 30.528-487.22 89.346l-9.13 3.2c-165.16 57.905-341.7 119.8-546.729 118.42-227.533-2.191-468.252-67.706-696.219-129.752-57.568-15.668-114.324-31.115-169.849-45.265-137.737-35.101-267.899-62.225-384.197-65.017zm-.807 18.966c-116.121-2.881-218.14 17.04-299.768 75.083l-.977-1.375c82.038-58.335 184.469-78.281 300.786-75.395 116.314 2.886 246.6 28.606 384.418 61.688 54.321 13.04 109.813 27.223 166.086 41.605 229.335 58.615 471.636 120.543 700.539 121.9 207.347.722 383.767-57.704 548.427-112.236l8.79-2.91c167.13-55.327 322.51-105.49 486.08-83.73l-.22 1.673c-163.12-21.701-318.14 28.311-485.33 83.659l-8.86 2.934c-164.62 54.519-341.27 113.02-548.897 112.297-229.132-1.358-471.695-63.356-701.045-121.976-56.247-14.376-111.699-28.55-165.964-41.575-137.8-33.078-267.941-58.761-384.065-61.642zm-.807 18.966c-115.952-2.971-217.646 15.332-298.729 69.278l-.933-1.404c81.486-54.215 183.577-72.536 299.705-69.561 116.127 2.975 246.382 27.248 384.261 58.307 52.902 11.917 106.928 24.832 161.712 37.929 230.855 55.188 475.198 113.601 705.871 114.117 209.891.064 386.371-54.93 550.441-106.055l8.71-2.712c166.5-51.86 320.59-98.661 484.14-78.035l-.21 1.673c-163.13-20.573-316.88 26.095-483.43 77.972l-8.77 2.733c-164.04 51.115-340.73 106.175-550.884 106.111-230.891-.516-475.482-58.99-706.347-114.183-54.762-13.092-108.752-25.999-161.603-37.904-137.865-31.055-267.983-55.296-383.934-58.266zm-.8 18.967c-115.781-3.06-217.152 13.625-297.69 63.474l-.887-1.435c80.934-50.094 182.683-66.789 298.621-63.726 115.941 3.064 246.164 25.891 384.105 54.927 51.297 10.797 103.662 22.453 156.76 34.272 232.535 51.759 479.143 106.651 711.781 106.314 212.338-.594 388.828-52.11 552.248-99.809l8.84-2.58c165.86-48.392 318.66-91.832 482.2-72.34l-.2 1.675c-163.14-19.444-315.62 23.878-481.53 72.285l-8.9 2.596c-163.39 47.692-340.07 99.265-552.655 99.86-232.845.337-479.684-54.608-712.226-106.37-53.079-11.815-105.412-23.464-156.665-34.252-137.928-29.033-268.024-51.832-383.802-54.891zm-.808 18.965c-115.61-3.148-216.658 11.917-296.654 57.671l-.836-1.465c80.38-45.974 181.787-61.045 297.536-57.892 115.755 3.153 245.946 24.534 383.949 51.546 49.464 9.681 99.932 20.086 151.103 30.636 234.411 48.328 483.554 99.693 718.396 98.491 214.672-1.251 391.102-49.243 553.792-93.501l9.23-2.509c165.22-44.925 316.74-85.003 480.27-66.646l-.19 1.677c-163.16-18.316-314.37 21.661-479.64 66.597-3.09.839-6.18 1.68-9.28 2.523-162.67 44.252-339.28 92.294-554.173 93.546-235.037 1.203-484.395-50.208-718.811-98.538-51.153-10.547-101.595-20.946-151.021-30.621-137.992-27.009-268.066-48.366-383.671-51.515zm-.806 18.968c-115.44-3.238-216.166 10.208-295.62 51.866l-.783-1.495c79.825-41.852 180.889-55.299 296.45-52.058 115.568 3.242 245.727 23.177 383.792 48.165 47.348 8.57 95.626 17.734 144.568 27.023 236.531 44.895 488.546 92.73 725.889 90.645 216.866-1.905 393.136-46.329 555.026-87.128 3.31-.836 6.62-1.67 9.93-2.502 164.59-41.458 314.82-78.175 478.33-60.952l-.18 1.678c-163.17-17.188-313.12 19.443-477.74 60.91l-9.98 2.513c-161.87 40.795-338.31 85.261-555.371 87.168-237.526 2.086-489.741-45.787-726.273-90.684-48.927-9.287-97.183-18.447-144.499-27.01-138.055-24.987-268.107-44.902-383.539-48.139z" fill="#24C350"/></g><g clip-path="url(#clip1_2009_917)"><path opacity=".5" fill-rule="evenodd" clip-rule="evenodd" d="M-144.398 54.726C-263.047 53.18-370.004 97.32-459.897 216.915l-1.348-1.014c90.22-120.03 197.688-164.415 316.869-162.862 119.106 1.552 249.863 48.981 386.745 112.416 65.436 30.325 132.298 64.321 199.976 98.731l9.359 4.759c70.879 36.031 142.622 72.354 214.561 105.257 143.888 65.812 288.484 117.909 428.375 126.634 86.24 5.379 174.1-20.452 262.52-61.086 80.73-37.095 161.86-86.493 242.62-135.667 7.71-4.693 15.42-9.385 23.12-14.064 88.36-53.68 176.2-105.659 262.38-139.37 86.18-33.714 170.79-49.193 252.7-29.788l-.39 1.642c-81.44-19.296-165.68-3.931-251.7 29.717-86.02 33.651-173.74 85.552-262.12 139.242-7.7 4.68-15.41 9.374-23.12 14.07-80.75 49.164-161.97 98.613-242.78 135.751-88.55 40.687-176.69 66.641-263.33 61.237-140.212-8.745-285.036-60.948-428.976-126.783-71.975-32.92-143.748-69.258-214.623-105.288l-9.354-4.756c-67.685-34.414-134.52-68.396-199.926-98.707C104.807 103.564-25.673 56.273-144.398 54.726zm-.807 18.966c-118.481-1.634-225.106 40.892-314.446 156.379l-1.333-1.032c89.676-115.923 196.812-158.675 315.802-157.034 118.92 1.641 249.646 47.622 386.591 109.034 64.992 29.144 131.409 61.777 198.649 94.813l10.839 5.325c70.947 34.85 142.773 69.965 214.801 101.755 144.067 63.584 288.872 113.83 428.942 122.03 87.52 5.046 176.02-20.062 264.69-59.451 81.39-36.16 162.87-84.325 243.81-132.178 7.23-4.275 14.46-8.548 21.68-12.81 88.05-51.946 175.4-102.217 261.18-134.797 85.79-32.582 170.07-47.502 251.97-28.665l-.38 1.644c-81.45-18.734-165.37-3.921-250.99 28.598-85.62 32.521-172.86 82.719-260.92 134.674-7.23 4.264-14.46 8.54-21.7 12.819-80.93 47.842-162.48 96.056-243.97 132.257-88.78 39.441-177.56 64.661-265.47 59.594-140.375-8.218-285.402-58.565-429.522-122.172-72.064-31.805-143.92-66.935-214.864-101.783l-10.835-5.323c-67.246-33.039-133.637-65.659-198.6-94.791C103.803 121.179-26.654 75.328-145.205 73.692zm-.808 18.966c-118.312-1.724-224.605 39.19-313.392 150.57l-1.317-1.052C-371.59 130.362-264.787 89.24-145.988 90.971c118.733 1.73 249.428 46.263 386.436 105.651 64.522 27.968 130.469 59.242 197.242 90.909l12.399 5.879c71.015 33.667 142.924 67.575 215.042 98.251 144.246 61.356 289.26 109.752 429.499 117.427 88.81 4.711 177.96-19.672 266.86-57.816 82.06-35.206 163.85-82.106 244.95-128.611 6.78-3.883 13.54-7.764 20.31-11.634 87.72-50.212 174.6-98.777 259.98-130.225 85.38-31.45 169.34-45.811 251.23-27.543l-.37 1.647c-81.45-18.171-165.06-3.91-250.28 27.48-85.23 31.392-171.99 79.885-259.73 130.105-6.76 3.873-13.54 7.757-20.31 11.643-81.09 46.495-162.97 93.443-245.12 128.689-89.02 38.194-178.43 62.68-267.61 57.949-140.538-7.691-285.769-56.18-430.068-117.558-72.154-30.692-144.092-64.613-215.105-98.28l-12.395-5.877c-66.779-31.669-132.7-62.931-197.194-90.887C102.799 138.794-27.635 94.383-146.013 92.658zm-.807 18.967c-118.144-1.813-224.105 37.488-312.339 144.761l-1.301-1.072c88.589-107.705 195.058-147.196 313.666-145.376 118.548 1.819 249.211 44.904 386.282 102.269 64.027 26.795 129.474 56.717 195.754 87.019l14.039 6.418c71.083 32.485 143.076 65.185 215.284 94.748 144.424 59.128 289.646 105.673 430.065 112.823 90.1 4.377 179.88-19.282 269.02-56.18 82.71-34.234 164.8-79.837 246.05-124.968 6.33-3.517 12.65-7.03 18.97-10.536 87.41-48.477 173.8-95.335 258.78-125.651 84.99-30.318 168.62-44.12 250.51-26.421l-.36 1.649c-81.46-17.608-164.76-3.899-249.58 26.361-84.83 30.263-171.11 77.052-258.53 125.538-6.33 3.508-12.66 7.024-18.99 10.544-81.23 45.121-163.4 90.77-246.2 125.043-89.26 36.947-179.31 60.7-269.75 56.306h-.01c-140.701-7.165-286.135-53.797-430.614-112.947-72.243-29.577-144.264-62.29-215.345-94.775-4.68-2.138-9.357-4.276-14.028-6.412-66.288-30.306-131.713-60.218-195.715-87.003C101.796 156.41-28.615 113.439-146.82 111.625zm-.799 18.966c-117.976-1.902-223.606 35.786-311.287 138.952l-1.284-1.093c88.046-103.595 194.181-141.455 312.598-139.546 118.361 1.908 248.994 43.545 386.127 98.886 63.504 25.628 128.423 54.203 194.179 83.147 5.25 2.311 10.506 4.625 15.767 6.939 71.151 31.303 143.227 62.796 215.525 91.245 144.603 56.9 290.035 101.595 430.624 108.219 91.39 4.044 181.82-18.891 271.2-54.544 83.33-33.243 165.71-77.52 247.07-121.251 5.91-3.174 11.81-6.346 17.7-9.511 87.09-46.743 173.01-91.893 257.59-121.077 84.58-29.187 167.89-42.43 249.77-25.3l-.35 1.652c-81.47-17.046-164.45-3.888-248.87 25.242-84.44 29.134-170.24 74.219-257.34 120.97-5.9 3.168-11.81 6.343-17.72 9.521-81.34 43.72-163.8 88.041-247.23 121.321-89.5 35.701-180.18 58.721-271.89 54.662h-.01c-140.867-6.637-286.504-51.413-431.161-108.334-72.333-28.462-144.437-59.968-215.587-91.27l-15.764-6.938c-65.76-28.946-130.656-57.511-194.133-83.128-137.105-55.33-267.493-96.862-385.524-98.764zm-.808 18.966c-117.807-1.99-223.106 34.084-310.234 133.144l-1.266-1.115c87.502-99.484 193.303-135.713 311.529-133.716 118.175 1.997 248.777 42.186 385.972 95.504 62.947 24.463 127.303 51.698 192.498 79.288 5.86 2.48 11.727 4.963 17.601 7.447 71.219 30.121 143.378 60.407 215.766 87.742 144.782 54.672 290.421 97.515 431.191 103.615 179.54 7.188 353.01-82.908 521.48-170.405 5.48-2.845 10.95-5.687 16.42-8.523 86.77-45.009 172.2-88.452 256.38-116.504 84.19-28.055 167.17-40.739 249.04-24.177l-.33 1.654c-81.48-16.483-164.15-3.878-248.18 24.123-84.03 28.004-169.35 71.385-256.13 116.402-5.53 2.865-11.05 5.736-16.59 8.61-168.32 87.425-342.16 177.712-522.16 170.505-141.04-6.111-286.879-49.029-431.717-103.722-72.422-27.348-144.608-57.645-215.827-87.766-5.872-2.483-11.737-4.965-17.596-7.445-65.2-27.592-129.533-54.818-192.456-79.271-137.168-53.307-267.533-93.398-385.391-95.39zm-.807 18.966c-117.639-2.079-222.608 32.382-309.184 127.336l-1.245-1.137c86.958-95.373 192.424-129.972 310.459-127.885 117.99 2.085 248.56 40.827 385.817 92.121 62.356 23.303 126.112 49.204 190.708 75.447 6.506 2.643 13.021 5.29 19.543 7.938 71.288 28.938 143.53 58.017 216.007 84.238 144.963 52.445 290.812 93.437 431.759 99.011 182.42 6.554 356.33-80.6 524.56-164.9 5.09-2.554 10.18-5.105 15.27-7.65 86.44-43.275 171.4-85.011 255.18-111.931 83.78-26.923 166.44-39.049 248.3-23.055l-.32 1.656c-81.48-15.92-163.84-3.867-247.47 23.005-83.63 26.875-168.48 68.552-254.94 111.834-5.14 2.572-10.28 5.15-15.43 7.73-168.09 84.237-342.36 171.568-525.22 164.997-141.203-5.585-287.245-46.646-432.262-99.11-72.511-26.234-144.781-55.324-216.068-84.262-6.521-2.647-13.035-5.294-19.54-7.936-64.601-26.245-128.334-52.137-190.666-75.431-137.231-51.284-267.574-89.935-385.258-92.016zm-.807 18.966c-117.471-2.168-222.11 30.679-308.133 121.529l-1.224-1.16c86.413-91.261 191.544-124.231 309.388-122.055 117.803 2.174 248.342 39.469 385.663 88.739 61.722 22.146 124.833 46.719 188.785 71.619 7.196 2.802 14.402 5.608 21.618 8.415 71.356 27.756 143.681 55.627 216.248 80.735 145.141 50.216 291.198 89.357 432.316 94.406 185.29 5.919 359.62-78.241 527.57-159.322l14.19-6.849c172.21-83.058 337.89-160.134 501.56-129.291l-.32 1.658c-163.02-30.722-328.17 46.034-500.51 129.152-4.77 2.303-9.55 4.611-14.34 6.922-167.83 81.024-342.5 165.348-528.21 159.416-141.365-5.057-287.611-44.262-432.806-94.498-72.601-25.119-144.953-53-216.309-80.757-7.216-2.807-14.422-5.613-21.617-8.414-63.956-24.902-127.045-49.466-188.744-71.604C97.79 226.869-32.53 189.659-150.041 187.489zm-.807 18.967c-117.303-2.257-221.612 28.976-307.084 115.722l-1.201-1.185c85.869-87.148 190.665-118.488 308.317-116.223 117.617 2.263 248.125 38.11 385.507 85.358 61.045 20.993 123.464 44.244 186.724 67.808 7.931 2.955 15.876 5.914 23.832 8.874 71.424 26.575 143.832 53.238 216.49 77.232 145.321 47.989 291.588 85.279 432.883 89.802 188.14 5.278 362.85-75.837 530.5-153.674 4.4-2.043 8.8-4.083 13.19-6.119 171.57-79.593 335.97-153.303 499.62-123.596l-.3 1.66c-163.04-29.594-326.92 43.82-498.61 123.466-4.44 2.058-8.88 4.12-13.33 6.185-167.54 77.788-342.58 159.054-531.12 153.765h-.01c-141.529-4.531-287.977-41.88-433.352-89.887-72.69-24.004-145.124-50.678-216.548-77.252-7.958-2.961-15.903-5.921-23.834-8.875-63.263-23.565-125.66-46.808-186.683-67.794-137.356-47.238-267.654-83.008-384.991-85.267zm-.807 18.966c-117.135-2.347-221.115 27.272-306.036 109.915l-1.175-1.21c85.323-83.034 189.783-112.745 307.244-110.392 117.431 2.353 247.908 36.753 385.353 81.976 60.313 19.845 121.984 41.78 184.495 64.013 8.722 3.103 17.46 6.21 26.213 9.319 71.492 25.393 143.983 50.849 216.731 73.729 145.499 45.761 291.976 81.2 433.44 85.198 190.98 4.635 366.05-73.386 533.37-147.957l12.26-5.459c170.94-76.126 334.04-146.471 497.68-117.9l-.29 1.662c-163.04-28.467-325.66 41.605-496.71 117.78-4.12 1.836-8.25 3.675-12.38 5.517-167.23 74.528-342.61 152.688-533.97 148.044h-.01c-141.691-4.005-288.342-39.497-433.896-85.276-72.779-22.89-145.296-48.355-216.789-73.748-8.753-3.109-17.49-6.216-26.211-9.318-62.514-22.234-124.166-44.163-184.46-64.001-137.42-45.215-267.695-79.545-384.859-81.892zm-.8 18.967c-116.966-2.436-220.617 25.567-304.988 104.108l-1.148-1.235c84.777-78.92 188.901-107.002 306.171-104.56 117.245 2.442 247.69 35.394 385.196 78.594 59.563 18.713 120.423 39.338 182.118 60.246 80.818 27.389 163.07 55.264 245.715 79.961 145.68 43.534 292.366 77.121 434.011 80.593 193.79 3.988 369.18-70.888 536.15-142.17 3.8-1.625 7.6-3.248 11.4-4.868 170.31-72.66 332.12-139.64 495.75-112.205l-.28 1.664c-163.05-27.34-324.4 39.391-494.81 112.093-3.84 1.637-7.68 3.277-11.52 4.919-166.89 71.247-342.57 146.25-536.73 142.254h-.01c-141.857-3.478-288.711-37.114-434.443-80.664-82.633-24.693-164.974-52.597-245.845-80.003-61.701-20.909-122.546-41.528-182.011-60.21-137.483-43.193-267.735-76.081-384.726-78.517zm-.807 18.965c-116.797-2.525-220.121 23.863-303.941 98.303l-1.119-1.262c84.23-74.804 188.017-101.259 305.096-98.728 117.059 2.531 247.471 34.037 385.041 75.213 58.7 17.57 118.68 36.893 179.49 56.482 81.778 26.345 165.055 53.173 248.736 76.871 145.858 41.306 292.753 73.041 434.569 75.988 196.58 3.339 372.26-68.342 538.84-136.316 3.55-1.45 7.1-2.898 10.65-4.343 169.67-69.194 330.2-132.81 493.82-106.51l-.27 1.665c-163.07-26.212-323.15 37.176-492.92 106.407-3.58 1.461-7.16 2.924-10.76 4.389-166.5 67.943-342.46 139.74-539.39 136.395-142.03-2.951-289.086-34.731-434.998-76.052-83.675-23.696-167.037-50.55-248.861-76.909-60.813-19.59-120.777-38.907-179.389-56.451-137.547-41.169-267.777-72.617-384.594-75.142zm-.807 18.968c-116.629-2.614-219.625 22.158-302.896 92.497l-1.088-1.289c83.684-70.688 187.133-95.515 304.021-92.895 116.873 2.62 247.254 32.679 384.886 71.832 57.758 16.431 116.776 34.457 176.615 52.735 82.814 25.295 167.202 51.071 252.005 73.763 146.039 39.079 293.144 68.963 435.136 71.384 199.34 2.687 375.26-65.752 541.42-130.395 3.34-1.297 6.67-2.593 10-3.887 169.03-65.727 328.28-125.979 491.88-100.814l-.26 1.667c-163.08-25.084-321.89 34.96-491.01 100.72l-10.1 3.927c-166.09 64.617-342.28 133.161-541.96 130.469-142.193-2.425-289.451-32.349-435.542-71.441-84.803-22.692-169.268-48.491-252.124-73.799-59.84-18.277-118.84-36.298-176.521-52.707-137.61-39.146-267.818-69.153-384.462-71.767zm-.808 18.966c-116.459-2.703-219.129 20.452-301.852 86.692l-1.053-1.318c83.136-66.57 186.246-89.769 302.944-87.061 116.687 2.709 247.036 31.321 384.73 68.45 56.727 15.297 114.7 32.038 173.484 49.014 226.675 65.458 465.407 134.398 691.224 137.41 202.06 2.034 378.2-63.115 543.9-124.407 3.16-1.167 6.31-2.333 9.45-3.496 168.4-62.261 326.36-119.15 489.95-95.12l-.24 1.669c-163.1-23.957-320.64 32.744-489.12 95.033-3.18 1.175-6.36 2.352-9.55 3.53-165.64 61.271-342.03 126.515-544.41 124.478-226.069-3.015-465.094-72.042-691.791-137.509-58.754-16.967-116.679-33.695-173.336-48.973-137.673-37.124-267.858-65.689-384.33-68.392zm-.807 18.966c-116.29-2.792-218.634 18.746-300.809 80.887l-1.016-1.346c82.587-62.453 185.358-84.025 301.865-81.228 116.5 2.798 246.818 29.964 384.573 65.069 55.589 14.167 112.388 29.625 169.985 45.3 227.949 62.039 468.39 127.476 695.686 129.665 204.73 1.378 381.03-60.433 546.24-118.354l9.04-3.171c167.77-58.794 324.44-112.32 488.02-89.425l-.24 1.671c-163.11-22.829-319.39 30.528-487.22 89.346l-9.13 3.2c-165.16 57.905-341.7 119.8-546.73 118.42-227.532-2.191-468.251-67.706-696.218-129.752-57.568-15.668-114.324-31.115-169.849-45.265-137.737-35.101-267.9-62.225-384.197-65.017zm-.807 18.966c-116.121-2.881-218.14 17.04-299.768 75.083l-.977-1.375c82.038-58.335 184.469-78.281 300.786-75.395 116.314 2.886 246.6 28.606 384.418 61.688 54.321 13.04 109.813 27.223 166.086 41.605 229.335 58.615 471.636 120.543 700.536 121.9 207.35.722 383.77-57.704 548.43-112.236l8.79-2.91c167.13-55.327 322.51-105.49 486.08-83.73l-.22 1.673c-163.12-21.701-318.14 28.311-485.33 83.659l-8.86 2.934c-164.62 54.519-341.27 113.02-548.9 112.297-229.129-1.358-471.692-63.356-701.042-121.976-56.247-14.376-111.699-28.55-165.964-41.575-137.8-33.078-267.94-58.761-384.065-61.642zm-.807 18.966c-115.952-2.971-217.646 15.332-298.729 69.278l-.933-1.404c81.486-54.215 183.577-72.536 299.705-69.561 116.127 2.975 246.381 27.248 384.261 58.307 52.902 11.917 106.928 24.832 161.712 37.929 230.855 55.188 475.198 113.601 705.872 114.117 209.89.064 386.37-54.93 550.44-106.055l8.71-2.712c166.5-51.86 320.59-98.661 484.14-78.035l-.21 1.673c-163.13-20.573-316.88 26.095-483.43 77.972l-8.77 2.733c-164.04 51.115-340.73 106.175-550.88 106.111-230.895-.516-475.486-58.99-706.351-114.183-54.762-13.092-108.752-25.999-161.603-37.904-137.865-31.055-267.983-55.296-383.934-58.266zm-.8 18.967c-115.781-3.06-217.152 13.625-297.69 63.474l-.887-1.435c80.934-50.094 182.683-66.789 298.621-63.726 115.942 3.064 246.164 25.891 384.105 54.927 51.297 10.797 103.662 22.453 156.76 34.272 232.535 51.759 479.143 106.651 711.779 106.314 212.34-.594 388.83-52.11 552.25-99.809l8.84-2.58c165.86-48.392 318.66-91.832 482.2-72.34l-.2 1.675c-163.14-19.444-315.62 23.878-481.53 72.285l-8.9 2.596c-163.39 47.692-340.07 99.265-552.66 99.86-232.84.337-479.679-54.608-712.221-106.37-53.079-11.815-105.412-23.464-156.665-34.252-137.928-29.033-268.024-51.832-383.802-54.891zm-.808 18.965c-115.61-3.148-216.658 11.917-296.654 57.671l-.836-1.465c80.38-45.974 181.787-61.045 297.536-57.892 115.755 3.153 245.946 24.534 383.949 51.546 49.464 9.681 99.932 20.086 151.103 30.636 234.411 48.328 483.554 99.693 718.398 98.491 214.67-1.251 391.1-49.243 553.79-93.501l9.23-2.509c165.22-44.925 316.74-85.003 480.27-66.646l-.19 1.677c-163.16-18.316-314.37 21.661-479.64 66.597-3.09.839-6.18 1.68-9.28 2.523-162.67 44.252-339.28 92.294-554.17 93.546-235.04 1.203-484.398-50.208-718.814-98.538-51.153-10.547-101.595-20.946-151.021-30.621C86.773 420.624-43.3 399.267-158.906 396.118zm-.806 18.968c-115.44-3.238-216.166 10.208-295.62 51.866l-.783-1.495c79.825-41.852 180.889-55.299 296.45-52.058 115.568 3.242 245.727 23.177 383.792 48.165 47.348 8.57 95.626 17.734 144.568 27.023 236.531 44.895 488.546 92.73 725.885 90.645 216.87-1.905 393.14-46.329 555.03-87.128 3.31-.836 6.62-1.67 9.93-2.502 164.59-41.458 314.82-78.175 478.33-60.952l-.18 1.678c-163.17-17.188-313.12 19.443-477.74 60.91l-9.98 2.513c-161.87 40.795-338.31 85.261-555.37 87.168-237.527 2.086-489.742-45.787-726.274-90.684-48.927-9.287-97.183-18.447-144.499-27.01-138.055-24.987-268.107-44.902-383.539-48.139z" fill="#24C350"/></g><defs><clipPath id="clip0_2009_917"><path fill="#fff" transform="translate(795)" d="M0 0h1245.53v527.427H0z"/></clipPath><clipPath id="clip1_2009_917"><path fill="#fff" transform="translate(-120 53)" d="M0 0h1358v527H0z"/></clipPath></defs></svg>