<svg width="430" height="235" fill="none" xmlns="http://www.w3.org/2000/svg"><path opacity=".5" fill-rule="evenodd" clip-rule="evenodd" d="M-828.118 1.503C-905.279.497-974.836 29.202-1033.3 106.979l-.87-.66C-975.5 28.259-905.61-.604-828.103.406c77.457 1.009 162.492 31.853 251.51 73.106 42.555 19.722 86.037 41.83 130.05 64.208l6.087 3.095c46.094 23.432 92.75 47.054 139.534 68.452 93.574 42.799 187.609 76.679 278.587 82.353 56.084 3.498 113.216-13.3 170.722-39.726 52.497-24.124 105.26-56.249 157.783-88.228 5.013-3.052 10.025-6.103 15.033-9.146 57.466-34.91 114.588-68.713 170.632-90.636 56.048-21.925 111.073-31.992 164.337-19.372l-.253 1.068c-52.962-12.549-107.746-2.557-163.685 19.326-55.943 21.883-112.987 55.637-170.462 90.552-5.01 3.044-10.024 6.096-15.04 9.151-52.512 31.972-105.329 64.13-157.887 88.282-57.58 26.46-114.906 43.338-171.248 39.824-91.183-5.687-185.366-39.636-278.975-82.451-46.807-21.408-93.483-45.04-139.575-68.471l-6.083-3.093c-44.017-22.38-87.482-44.48-130.017-64.192-89-41.245-173.855-72-251.065-73.005zm-.525 12.334c-77.051-1.063-146.392 26.593-204.497 101.697l-.86-.671C-975.683 39.475-906.01 11.672-828.628 12.74c77.337 1.067 162.352 30.97 251.411 70.907 42.266 18.954 85.459 40.175 129.186 61.66l7.049 3.463c46.139 22.663 92.85 45.5 139.692 66.174 93.69 41.35 187.861 74.027 278.952 79.36 56.92 3.28 114.472-13.047 172.133-38.663 52.934-23.516 105.918-54.839 158.559-85.959 4.703-2.781 9.403-5.559 14.1-8.331 57.259-33.782 114.068-66.475 169.852-87.662 55.788-21.19 110.602-30.892 163.862-18.642l-.246 1.07c-52.967-12.184-107.546-2.55-163.227 18.598-55.684 21.149-112.416 53.794-169.684 87.581-4.7 2.773-9.404 5.554-14.111 8.337-52.628 31.113-105.666 62.468-158.66 86.011-57.737 25.649-115.474 42.05-172.642 38.755-91.29-5.345-185.606-38.086-279.331-79.452-46.865-20.684-93.595-43.53-139.732-66.192l-7.046-3.462c-43.731-21.486-86.908-42.7-129.155-61.645-89.04-39.93-173.88-69.748-250.977-70.811zm-.525 12.334c-76.942-1.121-146.067 25.486-203.812 97.919l-.85-.684c57.963-72.716 127.42-99.458 204.678-98.332 77.216 1.125 162.21 30.085 251.31 68.707 41.961 18.189 84.847 38.527 128.272 59.121l8.063 3.823c46.183 21.895 92.947 43.946 139.848 63.895 93.807 39.902 188.113 71.375 279.318 76.366 57.756 3.064 115.727-12.793 173.543-37.599 53.363-22.895 106.556-53.395 159.3-83.639 4.405-2.525 8.806-5.049 13.204-7.566 57.05-32.654 113.548-64.237 169.072-84.689 55.528-20.453 110.13-29.792 163.385-17.912l-.239 1.071c-52.972-11.817-107.347-2.543-162.768 17.871-55.425 20.415-111.846 51.952-168.906 84.611-4.401 2.519-8.805 5.045-13.213 7.572-52.732 30.237-105.979 60.768-159.403 83.69C93.741 285.234 35.592 301.158-22.4 298.082c-91.399-5.002-185.846-36.536-279.688-76.452-46.924-19.959-93.707-42.019-139.889-63.913l-8.06-3.823c-43.429-20.595-86.299-40.926-128.241-59.106-89.081-38.614-173.906-67.496-250.89-68.617zm-.525 12.334c-76.832-1.178-145.742 24.38-203.127 94.142l-.84-.697c57.61-70.043 126.85-95.725 203.984-94.541 77.095 1.182 162.069 29.202 251.21 66.507 41.638 17.426 84.2 36.885 127.304 56.592l9.13 4.173c46.227 21.126 93.046 42.392 140.005 61.617 93.923 38.453 188.364 68.722 279.682 73.372 58.593 2.847 116.983-12.539 174.955-36.535 53.784-22.263 107.172-51.92 160.007-81.27 4.117-2.287 8.23-4.572 12.341-6.852 56.842-31.526 113.028-61.999 168.291-81.714 55.268-19.717 109.66-28.693 162.909-17.182l-.231 1.072c-52.977-11.451-107.148-2.536-162.309 17.143-55.166 19.681-111.277 50.109-168.129 81.641-4.113 2.281-8.23 4.568-12.351 6.857-52.822 29.343-106.264 59.03-160.109 81.319-58.05 24.028-116.61 39.475-175.427 36.617h-.002c-91.505-4.659-186.084-34.985-280.043-73.452-46.981-19.235-93.819-40.509-140.045-61.635l-9.123-4.17c-43.108-19.709-85.656-39.161-127.278-56.58-89.122-37.298-173.932-65.244-250.804-66.424zm-.52 12.334c-76.723-1.236-145.417 23.273-202.437 90.365l-.84-.711c57.262-67.37 126.285-91.992 203.295-90.75 76.974 1.24 161.928 28.318 251.109 64.308 41.298 16.666 83.517 35.25 126.28 54.073l10.253 4.512c46.272 20.357 93.145 40.838 140.162 59.339 94.04 37.004 188.618 66.07 280.05 70.378 59.428 2.63 118.237-12.286 176.363-35.472 54.197-21.618 107.769-50.413 160.68-78.852 3.841-2.065 7.678-4.127 11.513-6.185 56.634-30.399 112.508-59.761 167.511-78.741 55.008-18.98 109.188-27.593 162.433-16.452l-.224 1.074c-52.981-11.085-106.949-2.529-161.851 16.416-54.907 18.946-110.707 48.266-167.351 78.67-3.838 2.059-7.679 4.124-11.525 6.191-52.898 28.433-106.522 57.256-160.78 78.898-58.205 23.218-117.177 38.188-176.82 35.549h-.001c-91.613-4.317-186.324-33.435-280.399-70.453-47.04-18.51-93.931-38.999-140.202-59.355l-10.252-4.512c-42.765-18.825-84.969-37.401-126.25-54.061-89.163-35.982-173.958-62.991-250.717-64.229zm-.525 12.335c-76.613-1.295-145.092 22.166-201.752 86.587l-.82-.725c56.9-64.698 125.705-88.258 202.591-86.96 76.852 1.3 161.786 27.435 251.008 62.11 40.936 15.908 82.789 33.62 125.187 51.563l11.446 4.843c46.316 19.588 93.242 39.284 140.318 57.06 94.156 35.555 188.869 63.417 280.414 67.384 116.761 4.675 229.576-53.917 339.137-110.819 3.562-1.85 7.121-3.698 10.676-5.542 56.427-29.271 111.989-57.523 166.731-75.766 54.748-18.245 108.717-26.494 161.957-15.723l-.217 1.075c-52.986-10.72-106.75-2.522-161.393 15.688-54.649 18.212-110.137 46.424-166.574 75.7-3.591 1.863-7.186 3.73-10.785 5.599C207.719 252.103 94.669 310.819-22.39 306.132h-.002c-91.72-3.974-186.563-31.885-280.755-67.453-47.098-17.785-94.043-37.489-140.358-57.077l-11.443-4.841c-42.402-17.944-84.239-35.65-125.16-51.553-89.204-34.667-173.984-60.74-250.63-62.034zm-.525 12.334c-76.504-1.352-144.768 21.059-201.067 82.81l-.81-.739c56.548-62.024 125.135-84.525 201.897-83.168 76.731 1.356 161.645 26.551 250.907 59.909 40.552 15.155 82.014 31.999 124.023 49.066 4.231 1.718 8.467 3.44 12.709 5.161 46.36 18.82 93.341 37.731 140.475 54.783 94.273 34.106 189.123 60.764 280.782 64.389 118.633 4.263 231.735-52.416 341.135-107.239l9.931-4.975c56.219-28.142 111.47-55.284 165.952-72.792 54.487-17.508 108.244-25.394 161.48-14.993l-.21 1.077c-52.991-10.353-106.551-2.515-160.935 14.961-54.39 17.478-109.567 44.581-165.796 72.729-3.342 1.672-6.687 3.349-10.036 5.027C209.86 256.295 96.531 313.089-22.389 308.816h-.002c-91.827-3.632-186.802-30.335-281.11-64.454-47.157-17.061-94.155-35.978-140.515-54.798-4.242-1.722-8.478-3.442-12.708-5.161-42.011-17.068-83.459-33.906-123.995-49.055-89.245-33.351-174.01-58.487-250.544-59.84zm-.525 12.334c-76.394-1.41-144.444 19.951-200.392 79.033l-.79-.754c56.196-59.35 124.566-80.79 201.202-79.376 76.611 1.414 161.504 25.668 250.807 57.71 40.14 14.402 81.183 30.382 122.773 46.576l14.058 5.472c46.405 18.051 93.44 36.176 140.633 52.504 94.388 32.657 189.374 58.112 281.145 61.395 120.498 3.849 233.87-50.882 343.095-103.612l9.229-4.454c111.992-54.015 219.739-104.139 326.174-84.081l-.203 1.078c-106.017-19.979-213.422 29.938-325.495 83.992-3.105 1.497-6.214 2.998-9.327 4.501-109.145 52.692-222.736 107.53-343.508 103.673h-.002c-91.935-3.289-187.042-28.785-281.467-61.455-47.214-16.336-94.266-34.468-140.671-52.518l-14.058-5.472c-41.592-16.195-82.621-32.169-122.746-46.566-89.286-32.036-174.036-56.235-250.457-57.646zm-.525 12.335c-76.285-1.468-144.12 18.843-199.707 75.257l-.78-.771c55.844-56.674 123.996-77.056 200.508-75.583 76.49 1.472 161.362 24.784 250.706 55.51 39.699 13.653 80.292 28.774 121.432 44.099 5.158 1.921 10.324 3.845 15.498 5.77 46.449 17.282 93.538 34.623 140.789 50.226 94.507 31.209 189.629 55.46 281.514 58.401C100 316.518 213.62 263.767 322.65 213.147l8.573-3.979c111.58-51.761 218.49-99.697 324.918-80.377l-.196 1.079c-106.025-19.246-212.605 28.497-324.26 80.293l-8.666 4.022c-108.958 50.588-222.79 103.438-345.406 99.998h-.002c-92.042-2.947-187.281-27.236-281.822-58.456-47.273-15.611-94.379-32.957-140.828-50.239-5.175-1.926-10.341-3.85-15.499-5.772-41.142-15.325-81.721-30.44-121.405-44.088-89.327-30.72-174.063-53.982-250.371-55.451zm-.525 12.334c-76.175-1.526-143.796 17.735-199.022 71.48l-.77-.786c55.493-54 123.426-73.322 199.814-71.791 76.369 1.53 161.221 23.901 250.605 53.311 39.224 12.906 79.33 27.171 119.983 41.63 5.672 2.017 11.354 4.038 17.047 6.06 46.493 16.513 93.636 33.068 140.946 47.948 94.622 29.76 189.88 52.806 281.878 55.406 124.198 3.014 238.049-47.724 346.867-96.22l7.968-3.55c111.167-49.507 217.239-95.255 323.659-76.674l-.188 1.081c-106.033-18.513-211.788 27.057-323.025 76.595l-8.053 3.588c-108.754 48.468-222.806 99.297-347.255 96.277h-.003c-92.148-2.604-187.52-25.686-282.177-55.457-47.331-14.886-94.49-31.447-140.984-47.96-5.692-2.022-11.374-4.043-17.046-6.06-40.654-14.46-80.748-28.72-119.959-41.622-89.368-29.404-174.089-51.73-250.285-53.256zm-.52 12.334c-76.066-1.584-143.473 16.627-198.342 67.705l-.75-.803c55.137-51.324 122.851-69.587 199.115-67.999 76.248 1.588 161.079 23.018 250.504 51.112 38.735 12.17 78.314 25.583 118.436 39.18 52.558 17.812 106.049 35.939 159.795 52 94.74 28.312 190.134 50.154 282.246 52.412 126.029 2.594 240.088-46.1 348.674-92.457l7.416-3.165c110.754-47.253 215.99-90.812 322.402-72.97l-.181 1.082c-106.041-17.78-210.972 25.617-321.791 72.897l-7.495 3.199c-108.529 46.334-222.78 95.11-349.05 92.511h-.002c-92.256-2.261-187.759-24.136-282.533-52.457-53.738-16.059-107.287-34.206-159.879-52.028-40.126-13.598-79.695-27.008-118.366-39.157-89.41-28.089-174.116-49.477-250.199-51.062zm-.525 12.334c-75.956-1.642-143.15 15.519-197.657 63.929l-.73-.821c54.776-48.647 122.271-65.851 198.411-64.205 76.126 1.646 160.937 22.135 250.403 48.913 38.174 11.426 77.181 23.992 116.727 36.732 53.182 17.133 107.34 34.579 161.76 49.991 94.855 26.862 190.385 47.5 282.61 49.417 127.844 2.172 242.089-44.445 350.424-88.65l6.924-2.825c110.341-44.998 214.74-86.37 321.144-69.266l-.174 1.083c-106.048-17.046-210.155 24.176-320.556 69.199l-6.997 2.855c-108.284 44.185-222.712 90.877-350.784 88.701h-.002c-92.363-1.919-187.998-22.586-282.888-49.459-54.416-15.41-108.628-32.874-161.841-50.016-39.548-12.74-78.544-25.302-116.662-36.711-89.45-26.774-174.142-47.225-250.112-48.867zm-.524 12.335c-75.847-1.7-142.829 14.41-196.983 60.154l-.71-.839c54.426-45.97 121.701-62.115 197.717-60.412 76.005 1.704 160.796 21.252 250.301 46.714 37.563 10.686 75.943 22.409 114.858 34.296 53.856 16.45 108.736 33.212 163.886 47.97 94.973 25.414 190.64 44.848 282.979 46.423 129.637 1.747 244.043-42.761 352.104-84.8l6.498-2.527c109.929-42.745 213.49-81.928 319.886-65.563l-.166 1.085c-106.057-16.314-209.339 22.735-319.323 65.5l-6.565 2.554c-108.016 42.022-222.597 86.598-352.451 84.848h-.002c-92.471-1.577-188.237-21.038-283.243-46.46-55.15-14.758-110.08-31.535-163.964-47.993-38.915-11.887-77.285-23.606-114.796-34.277-89.492-25.459-174.169-44.973-250.026-46.673zm-.525 12.334c-75.737-1.758-142.506 13.301-196.298 56.378l-.69-.856c54.066-43.293 121.121-58.38 197.013-56.618 75.884 1.761 160.654 20.368 250.2 44.515 36.891 9.947 74.593 20.835 112.822 31.874 147.412 42.569 302.666 87.403 449.52 89.362 131.408 1.322 245.952-41.046 353.715-80.906l6.147-2.273c109.516-40.49 212.24-77.486 318.628-61.859l-.16 1.085c-106.065-15.579-208.522 21.295-318.088 61.803l-6.207 2.296C223.945 286.495 109.236 328.924-22.375 327.6h-.002c-147.018-1.961-302.463-46.851-449.89-89.426-38.209-11.034-75.88-21.913-112.725-31.848-89.533-24.143-174.196-42.72-249.94-44.478zm-.526 12.335c-75.626-1.816-142.183 12.191-195.622 52.603l-.66-.876c53.706-40.614 120.541-54.643 196.309-52.824 75.763 1.819 160.512 19.486 250.098 42.316 36.151 9.212 73.089 19.266 110.546 29.46 148.241 40.345 304.607 82.901 452.421 84.324 133.144.896 247.796-39.301 355.235-76.969l5.882-2.062C447.853 211.92 549.74 177.111 656.12 192l-.152 1.086c-106.073-14.846-207.707 19.854-316.855 58.105l-5.936 2.08c-107.406 37.657-222.214 77.91-355.553 77.012-147.971-1.425-304.517-44.031-452.77-84.381-37.439-10.189-74.348-20.235-110.457-29.437-89.575-22.827-174.223-40.467-249.855-42.282zm-.525 12.334c-75.516-1.874-141.862 11.081-194.947 48.828l-.63-.894c53.346-37.937 119.96-50.908 195.605-49.031 75.642 1.877 160.37 18.603 249.997 40.117 35.327 8.48 71.414 17.704 108.01 27.057 149.143 38.119 306.718 78.392 455.58 79.275 134.843.469 249.573-37.527 356.659-72.99l5.714-1.893c108.69-35.98 209.739-68.603 316.11-54.452l-.144 1.088c-106.082-14.113-206.891 18.412-315.621 54.406l-5.762 1.908c-107.059 35.455-221.936 73.5-356.963 73.03-149.01-.883-306.756-41.202-455.909-79.324-36.578-9.35-72.64-18.567-107.93-27.038-89.616-21.512-174.249-38.214-249.769-40.087zm-.524 12.334c-75.407-1.932-141.541 9.971-194.273 45.053l-.61-.913c52.997-35.258 119.39-47.172 194.911-45.237 75.52 1.934 160.228 17.72 249.895 37.918 34.404 7.75 69.538 16.149 105.166 24.667 150.131 35.89 309.034 73.877 459.047 74.213 136.496.041 251.269-35.722 357.968-68.97l5.663-1.764c108.277-33.726 208.488-64.162 314.851-50.749l-.137 1.089c-106.09-13.379-206.076 16.97-314.388 50.707l-5.705 1.777c-106.677 33.242-221.587 69.048-358.254 69.007-150.155-.336-309.219-38.363-459.357-74.256-35.613-8.514-70.724-16.908-105.095-24.65-89.657-20.196-174.276-35.961-249.682-37.892zm-.52 12.334c-75.296-1.989-141.22 8.861-193.593 41.279l-.58-.933c52.633-32.578 118.804-43.435 194.202-41.442 75.399 1.992 160.086 16.837 249.793 35.72 33.36 7.022 67.414 14.602 101.946 22.288 151.224 33.66 311.599 69.358 462.89 69.139 138.09-.386 252.866-33.888 359.141-64.909l5.748-1.677c107.863-31.471 207.237-59.721 313.592-47.045l-.13 1.089c-106.098-12.645-205.26 15.529-313.155 47.009l-5.785 1.688c-106.257 31.016-221.162 64.555-359.41 64.942-151.424.219-311.95-35.513-463.179-69.176-34.518-7.683-68.552-15.259-101.883-22.275-89.699-18.88-174.304-33.707-249.597-35.697zm-.526 12.334c-75.184-2.047-140.899 7.75-192.917 37.505l-.55-.953c52.275-29.898 118.222-39.699 193.497-37.648 75.279 2.05 159.945 15.955 249.692 33.521 32.168 6.296 64.989 13.063 98.267 19.924 152.444 31.429 314.468 64.833 467.192 64.051 139.609-.813 254.343-32.024 360.147-60.806l6-1.632c107.45-29.216 205.986-55.28 312.332-43.341l-.123 1.09c-106.106-11.912-204.445 14.087-311.922 43.31l-6.032 1.641c-105.79 28.778-220.642 60.021-360.396 60.835-152.851.782-315.015-32.651-467.462-64.082-33.266-6.858-66.07-13.622-98.213-19.913-89.74-17.565-174.33-31.454-249.512-33.502zm-.524 12.335c-75.074-2.105-140.579 6.639-192.253 33.73l-.51-.972c51.917-27.218 117.641-35.962 192.794-33.855 75.157 2.108 159.803 15.073 249.59 31.324 30.792 5.573 62.188 11.532 94.016 17.573 153.823 29.197 317.715 60.305 472.066 58.949 141.032-1.239 255.667-30.129 360.946-56.662l6.458-1.627c107.037-26.961 204.735-50.839 311.073-39.639l-.115 1.091c-106.116-11.177-203.63 12.645-310.69 39.612l-6.486 1.634C233.543 313.542 118.799 342.46-22.364 343.7c-154.47 1.357-318.492-29.777-472.315-58.974-31.819-6.04-63.201-11.997-93.972-17.566-89.781-16.249-174.358-29.2-249.426-31.306z" fill="#24C350"/><path opacity=".5" fill-rule="evenodd" clip-rule="evenodd" d="M-446.526 1.503C-523.687.497-593.244 29.202-651.704 106.979l-.876-.66C-593.908 28.259-524.018-.604-446.512.406c77.458 1.009 162.493 31.853 251.511 73.106 42.555 19.722 86.037 41.83 130.05 64.208l6.086 3.095c46.095 23.432 92.751 47.054 139.535 68.452 93.574 42.799 187.609 76.679 278.587 82.353 56.083 3.498 113.216-13.3 170.722-39.726 52.497-24.124 105.259-56.249 157.783-88.228 5.013-3.052 10.024-6.103 15.033-9.146 57.466-34.91 114.587-68.713 170.632-90.636C929.474 41.959 984.5 31.892 1037.76 44.512l-.25 1.068c-52.961-12.549-107.745-2.557-163.684 19.326-55.943 21.883-112.987 55.637-170.462 90.552-5.01 3.044-10.024 6.096-15.04 9.151-52.512 31.972-105.329 64.13-157.887 88.282-57.581 26.46-114.906 43.338-171.248 39.824-91.183-5.687-185.367-39.636-278.975-82.451-46.807-21.408-93.483-45.04-139.575-68.471l-6.083-3.093c-44.017-22.38-87.482-44.48-130.018-64.192-88.999-41.245-173.854-72-251.064-73.005zm-.525 12.334c-77.052-1.063-146.393 26.593-204.493 101.697l-.867-.671C-594.092 39.475-524.419 11.672-447.036 12.74c77.337 1.067 162.351 30.97 251.411 70.907 42.265 18.954 85.458 40.175 129.186 61.66l7.05 3.463c46.138 22.663 92.848 45.5 139.69 66.174 93.691 41.35 187.862 74.027 278.953 79.36 56.919 3.28 114.471-13.047 172.132-38.663 52.935-23.516 105.919-54.839 158.56-85.959 4.703-2.781 9.403-5.559 14.1-8.331 57.258-33.782 114.068-66.475 169.852-87.662 55.788-21.19 110.602-30.892 163.862-18.642l-.25 1.07c-52.963-12.184-107.543-2.55-163.223 18.598-55.684 21.149-112.417 53.794-169.684 87.581-4.7 2.773-9.404 5.554-14.111 8.337-52.628 31.113-105.666 62.468-158.661 86.011-57.737 25.649-115.473 42.05-172.641 38.755-91.29-5.345-185.606-38.086-279.33-79.452-46.866-20.684-93.596-43.53-139.733-66.192l-7.046-3.462c-43.732-21.486-86.908-42.7-129.155-61.645-89.04-39.93-173.88-69.748-250.977-70.811zm-.525 12.334c-76.942-1.121-146.067 25.486-203.807 97.919l-.858-.684c57.966-72.716 127.422-99.458 204.681-98.332 77.215 1.125 162.21 30.085 251.31 68.707 41.96 18.189 84.847 38.527 128.272 59.121l8.063 3.823c46.183 21.895 92.947 43.946 139.848 63.895 93.807 39.902 188.113 71.375 279.318 76.366 57.755 3.064 115.726-12.793 173.543-37.599 53.363-22.895 106.556-53.395 159.3-83.639 4.405-2.525 8.806-5.049 13.204-7.566 57.05-32.654 113.548-64.237 169.071-84.689C929.897 63.04 984.5 53.701 1037.75 65.581l-.23 1.071c-52.976-11.817-107.351-2.543-162.772 17.871-55.425 20.415-111.847 51.952-168.906 84.611-4.401 2.519-8.805 5.045-13.213 7.572-52.732 30.237-105.979 60.768-159.403 83.69-57.894 24.838-116.042 40.762-174.034 37.686h-.001c-91.398-5.002-185.845-36.536-279.687-76.452-46.924-19.959-93.707-42.019-139.889-63.913l-8.06-3.823c-43.429-20.595-86.299-40.926-128.241-59.106-89.081-38.614-173.906-67.496-250.89-68.617zm-.525 12.334c-76.832-1.178-145.742 24.38-203.123 94.142l-.846-.697c57.612-70.043 126.852-95.725 203.986-94.541 77.094 1.182 162.069 29.202 251.209 66.507 41.639 17.426 84.201 36.885 127.304 56.592l9.13 4.173c46.228 21.126 93.046 42.392 140.005 61.617 93.923 38.453 188.365 68.722 279.683 73.372 58.593 2.847 116.982-12.539 174.954-36.535 53.785-22.263 107.173-51.92 160.008-81.27 4.117-2.287 8.23-4.572 12.34-6.852 56.843-31.526 113.029-61.999 168.292-81.714C930.109 73.582 984.5 64.606 1037.75 76.117l-.23 1.072c-52.978-11.451-107.149-2.536-162.311 17.143-55.166 19.681-111.276 50.109-168.128 81.641-4.113 2.281-8.23 4.568-12.351 6.857-52.822 29.343-106.264 59.03-160.11 81.319-58.049 24.028-116.609 39.475-175.427 36.617h-.001c-91.505-4.659-186.084-34.985-280.043-73.452-46.982-19.235-93.819-40.509-140.045-61.635l-9.123-4.17c-43.108-19.709-85.656-39.161-127.279-56.58-89.122-37.298-173.931-65.244-250.803-66.424zm-.52 12.334c-76.723-1.236-145.417 23.273-202.438 90.365l-.835-.711c57.258-67.37 126.281-91.992 203.291-90.75 76.973 1.24 161.927 28.318 251.109 64.308 41.298 16.666 83.517 35.25 126.28 54.073l10.253 4.512c46.272 20.357 93.144 40.838 140.162 59.339 94.04 37.004 188.618 66.07 280.049 70.378 59.429 2.63 118.237-12.286 176.364-35.472 54.197-21.618 107.768-50.413 160.68-78.852 3.841-2.065 7.678-4.127 11.512-6.185 56.635-30.399 112.509-59.761 167.512-78.741 55.008-18.98 109.188-27.593 162.432-16.452l-.22 1.074c-52.985-11.085-106.952-2.529-161.854 16.416-54.908 18.946-110.707 48.266-167.351 78.67-3.838 2.059-7.679 4.124-11.525 6.191-52.898 28.433-106.522 57.256-160.78 78.898-58.205 23.218-117.177 38.188-176.82 35.549h-.001c-91.613-4.317-186.325-33.435-280.4-70.453-47.04-18.51-93.93-38.999-140.201-59.355l-10.252-4.512c-42.766-18.825-84.969-37.401-126.25-54.061-89.163-35.982-173.958-62.991-250.717-64.229zm-.525 12.335C-525.759 61.879-594.238 85.34-650.9 149.76l-.823-.725c56.905-64.698 125.71-88.258 202.596-86.96 76.852 1.3 161.786 27.435 251.008 62.11 40.936 15.908 82.788 33.62 125.186 51.563l11.447 4.843c46.316 19.588 93.242 39.284 140.318 57.06 94.156 35.555 188.869 63.417 280.413 67.384 116.762 4.675 229.577-53.917 339.138-110.819 3.562-1.85 7.121-3.698 10.676-5.542 56.427-29.271 111.989-57.523 166.731-75.766 54.748-18.245 108.716-26.494 161.96-15.723l-.22 1.075c-52.987-10.72-106.75-2.522-161.393 15.688-54.649 18.212-110.137 46.424-166.574 75.7l-10.786 5.599c-109.466 56.855-222.516 115.571-339.575 110.884h-.002c-91.72-3.974-186.563-31.885-280.755-67.453-47.098-17.785-94.043-37.489-140.358-57.077l-11.443-4.841c-42.402-17.944-84.24-35.65-125.16-51.553-89.204-34.667-173.984-60.74-250.63-62.034zm-.525 12.334c-76.504-1.352-144.768 21.059-201.071 82.81l-.809-.739c56.55-62.024 125.138-84.525 201.899-83.168 76.732 1.356 161.645 26.551 250.908 59.909 40.552 15.155 82.014 31.999 124.023 49.066 4.23 1.718 8.467 3.44 12.709 5.161 46.36 18.82 93.34 37.731 140.475 54.783 94.273 34.106 189.123 60.764 280.781 64.389 118.633 4.263 231.736-52.416 341.136-107.239l9.931-4.975c56.219-28.142 111.469-55.284 165.951-72.792 54.488-17.508 108.245-25.394 161.478-14.993l-.21 1.077c-52.989-10.353-106.548-2.515-160.932 14.961-54.39 17.478-109.567 44.581-165.796 72.729-3.342 1.672-6.687 3.349-10.036 5.027-109.314 54.781-222.644 111.575-341.563 107.302h-.002c-91.827-3.632-186.803-30.335-281.11-64.454-47.157-17.061-94.155-35.978-140.515-54.798-4.242-1.722-8.478-3.442-12.708-5.161-42.012-17.068-83.459-33.906-123.996-49.055-89.244-33.351-174.01-58.487-250.543-59.84zm-.525 12.334c-76.394-1.41-144.444 19.951-200.387 79.033l-.796-.754c56.197-59.35 124.566-80.79 201.203-79.376 76.611 1.414 161.504 25.668 250.807 57.71 40.14 14.402 81.182 30.382 122.772 46.576l14.06 5.472c46.404 18.051 93.439 36.176 140.631 52.504 94.389 32.657 189.374 58.112 281.146 61.395 120.498 3.849 233.87-50.882 343.095-103.612l9.229-4.454c111.992-54.015 219.738-104.139 326.176-84.081l-.2 1.078c-106.022-19.979-213.427 29.938-325.5 83.992-3.106 1.497-6.215 2.998-9.327 4.501-109.146 52.692-222.736 107.53-343.508 103.673h-.002c-91.935-3.289-187.042-28.785-281.467-61.455-47.214-16.336-94.267-34.468-140.671-52.518l-14.058-5.472c-41.593-16.195-82.621-32.169-122.746-46.566-89.286-32.036-174.036-56.235-250.457-57.646zm-.525 12.335c-76.285-1.468-144.12 18.843-199.705 75.257l-.781-.771c55.843-56.674 123.995-77.056 200.507-75.583 76.49 1.472 161.362 24.784 250.706 55.51 39.699 13.653 80.292 28.774 121.432 44.099 5.157 1.921 10.324 3.845 15.498 5.77 46.45 17.282 93.538 34.623 140.79 50.226 94.505 31.209 189.627 55.46 281.513 58.401 122.353 3.432 235.974-49.319 345.004-99.939l8.573-3.979c111.58-51.761 218.489-99.697 324.914-80.377l-.19 1.079c-106.027-19.246-212.607 28.497-324.263 80.293l-8.665 4.022c-108.959 50.588-222.79 103.438-345.406 99.998h-.003c-92.041-2.947-187.28-27.236-281.821-58.456-47.273-15.611-94.379-32.957-140.828-50.239-5.175-1.926-10.342-3.85-15.5-5.772-41.141-15.325-81.72-30.44-121.404-44.088-89.327-30.72-174.063-53.982-250.371-55.451zm-.525 12.334c-76.175-1.526-143.796 17.735-199.023 71.48l-.764-.786c55.488-54 123.421-73.322 199.809-71.791 76.369 1.53 161.221 23.901 250.605 53.311 39.223 12.906 79.33 27.171 119.982 41.63 5.672 2.017 11.355 4.038 17.047 6.06 46.494 16.513 93.637 33.068 140.947 47.948 94.622 29.76 189.88 52.806 281.878 55.406 124.198 3.014 238.049-47.724 346.867-96.22l7.968-3.55c111.167-49.507 217.239-95.255 323.66-76.674l-.19 1.081c-106.032-18.513-211.787 27.057-323.025 76.595l-8.052 3.588c-108.754 48.468-222.806 99.297-347.256 96.277h-.002c-92.149-2.604-187.52-25.686-282.177-55.457-47.33-14.886-94.49-31.447-140.984-47.96-5.692-2.022-11.375-4.043-17.046-6.06-40.654-14.46-80.749-28.72-119.959-41.622-89.368-29.404-174.09-51.73-250.285-53.256zm-.52 12.334c-76.066-1.584-143.473 16.627-198.342 67.705l-.746-.803c55.133-51.324 122.847-69.587 199.111-67.999 76.247 1.588 161.079 23.018 250.504 51.112 38.735 12.17 78.314 25.583 118.436 39.18 52.558 17.812 106.049 35.939 159.795 52 94.74 28.312 190.134 50.154 282.246 52.412 126.029 2.594 240.088-46.1 348.673-92.457l7.417-3.165c110.754-47.253 215.99-90.812 322.402-72.97l-.18 1.082c-106.042-17.78-210.973 25.617-321.792 72.897l-7.495 3.199c-108.529 46.334-222.78 95.11-349.05 92.511h-.002c-92.256-2.261-187.759-24.136-282.533-52.457-53.738-16.059-107.287-34.206-159.88-52.028-40.125-13.598-79.694-27.008-118.366-39.157-89.409-28.089-174.115-49.477-250.198-51.062zm-.525 12.334c-75.956-1.642-143.15 15.519-197.661 63.929l-.728-.821c54.778-48.647 122.273-65.851 198.413-64.205 76.126 1.646 160.937 22.135 250.402 48.913 38.175 11.426 77.181 23.992 116.728 36.732 53.182 17.133 107.34 34.579 161.76 49.991 94.855 26.862 190.385 47.5 282.61 49.417 127.844 2.172 242.089-44.445 350.424-88.65l6.924-2.825c110.341-44.998 214.74-86.37 321.139-69.266l-.17 1.083c-106.048-17.046-210.154 24.176-320.555 69.199l-6.997 2.855c-108.284 44.185-222.712 90.877-350.784 88.701h-.002c-92.363-1.919-187.998-22.586-282.888-49.459-54.416-15.41-108.629-32.874-161.841-50.016-39.548-12.74-78.544-25.302-116.662-36.711-89.45-26.774-174.142-47.225-250.112-48.867zm-.525 12.335c-75.846-1.7-142.828 14.41-196.981 60.154l-.707-.839c54.422-45.97 121.697-62.115 197.713-60.412 76.005 1.704 160.796 21.252 250.301 46.714 37.562 10.686 75.943 22.409 114.858 34.296 53.856 16.45 108.736 33.212 163.886 47.97 94.973 25.414 190.639 44.848 282.978 46.423 129.638 1.747 244.044-42.761 352.104-84.8l6.499-2.527c109.929-42.745 213.49-81.928 319.885-65.563l-.17 1.085c-106.052-16.314-209.334 22.735-319.318 65.5l-6.565 2.554c-108.016 42.022-222.598 86.598-352.451 84.848h-.002c-92.471-1.577-188.237-21.038-283.243-46.46-55.15-14.758-110.08-31.535-163.964-47.993-38.916-11.887-77.285-23.606-114.796-34.277-89.492-25.459-174.169-44.973-250.027-46.673zm-.525 12.334c-75.736-1.758-142.505 13.301-196.302 56.378l-.685-.856c54.065-43.293 121.121-58.38 197.013-56.618 75.884 1.761 160.654 20.368 250.2 44.515 36.891 9.947 74.593 20.835 112.822 31.874 147.412 42.569 302.666 87.403 449.521 89.362 131.407 1.322 245.951-41.046 353.714-80.906l6.147-2.273c109.515-40.49 212.239-77.486 318.631-61.859l-.16 1.085c-106.068-15.579-208.525 21.295-318.091 61.803l-6.208 2.296c-107.724 39.846-222.433 82.275-354.044 80.951h-.002c-147.019-1.961-302.463-46.851-449.89-89.426-38.21-11.034-75.88-21.913-112.725-31.848-89.533-24.143-174.196-42.72-249.941-44.478zm-.525 12.335c-75.627-1.816-142.184 12.191-195.624 52.603l-.661-.876c53.709-40.614 120.543-54.643 196.311-52.824 75.763 1.819 160.513 19.486 250.099 42.316 36.15 9.212 73.089 19.266 110.546 29.46 148.241 40.345 304.606 82.901 452.421 84.324 133.144.896 247.796-39.301 355.235-76.969l5.881-2.062C829.445 211.92 931.332 177.111 1037.71 192l-.15 1.086c-106.074-14.846-207.707 19.854-316.855 58.105l-5.936 2.08c-107.406 37.657-222.215 77.91-355.553 77.012-147.971-1.425-304.517-44.031-452.77-84.381-37.439-10.189-74.348-20.235-110.458-29.437-89.574-22.827-174.222-40.467-249.854-42.282zm-.525 12.334c-75.516-1.874-141.862 11.081-194.947 48.828l-.635-.894c53.351-37.937 119.965-50.908 195.609-49.031 75.642 1.877 160.371 18.603 249.997 40.117 35.327 8.48 71.415 17.704 108.01 27.057 149.144 38.119 306.719 78.392 455.581 79.275 134.843.469 249.573-37.527 356.659-72.99l5.714-1.893c108.69-35.98 209.739-68.603 316.113-54.452l-.15 1.088c-106.079-14.113-206.888 18.412-315.618 54.406l-5.762 1.908c-107.059 35.455-221.936 73.5-356.963 73.03-149.011-.883-306.756-41.202-455.909-79.324-36.579-9.35-72.641-18.567-107.93-27.038-89.616-21.512-174.25-38.214-249.769-40.087zm-.525 12.334c-75.406-1.932-141.541 9.971-194.271 45.053l-.607-.913c52.993-35.258 119.385-47.172 194.906-45.237 75.521 1.934 160.229 17.72 249.896 37.918 34.404 7.75 69.538 16.149 105.166 24.667 150.13 35.89 309.034 73.877 459.047 74.213 136.496.041 251.269-35.722 357.968-68.97l5.663-1.764c108.276-33.726 208.488-64.162 314.848-50.749l-.13 1.089c-106.094-13.379-206.08 16.97-314.392 50.707l-5.705 1.777c-106.677 33.242-221.588 69.048-358.254 69.007-150.155-.336-309.219-38.363-459.357-74.256-35.613-8.514-70.724-16.908-105.095-24.65-89.657-20.196-174.276-35.961-249.683-37.892zm-.52 12.334c-75.295-1.989-141.22 8.861-193.596 41.279l-.576-.933c52.633-32.578 118.803-43.435 194.201-41.442 75.4 1.992 160.087 16.837 249.794 35.72 33.36 7.022 67.414 14.602 101.946 22.288 151.223 33.66 311.599 69.358 462.89 69.139 138.09-.386 252.866-33.888 359.14-64.909l5.749-1.677c107.863-31.471 207.237-59.721 313.588-47.045l-.13 1.089c-106.095-12.645-205.257 15.529-313.152 47.009l-5.784 1.688c-106.257 31.016-221.162 64.555-359.409 64.942-151.426.219-311.952-35.513-463.18-69.176-34.519-7.683-68.553-15.259-101.884-22.275-89.698-18.88-174.303-33.707-249.597-35.697zm-.525 12.334c-75.184-2.047-140.899 7.75-192.922 37.505l-.544-.953c52.274-29.898 118.221-39.699 193.496-37.648 75.278 2.05 159.945 15.955 249.692 33.521 32.168 6.296 64.989 13.063 98.267 19.924 152.444 31.429 314.468 64.833 467.192 64.051 139.609-.813 254.342-32.024 360.146-60.806l6-1.632c107.451-29.216 205.987-55.28 312.334-43.341l-.12 1.09c-106.11-11.912-204.449 14.087-311.926 43.31l-6.032 1.641c-105.791 28.778-220.642 60.021-360.396 60.835-152.851.782-315.015-32.651-467.462-64.082-33.266-6.858-66.07-13.622-98.213-19.913-89.74-17.565-174.331-31.454-249.512-33.502zm-.524 12.335c-75.074-2.105-140.579 6.639-192.25 33.73l-.509-.972c51.913-27.218 117.637-35.962 192.789-33.855 75.158 2.108 159.803 15.073 249.591 31.324 30.791 5.573 62.188 11.532 94.016 17.573 153.823 29.197 317.715 60.305 472.066 58.949 141.032-1.239 255.666-30.129 360.946-56.662l6.458-1.627c107.037-26.961 204.735-50.839 311.068-39.639l-.11 1.091c-106.116-11.177-203.631 12.645-310.69 39.612l-6.487 1.634c-105.268 26.53-220.012 55.448-361.176 56.688-154.469 1.357-318.492-29.777-472.315-58.974-31.818-6.04-63.201-11.997-93.971-17.566-89.782-16.249-174.358-29.2-249.426-31.306z" fill="#24C350"/></svg>