<svg width="2600" height="529" fill="none" xmlns="http://www.w3.org/2000/svg"><path opacity=".5" fill-rule="evenodd" clip-rule="evenodd" d="M316.847 1.726C198.197.18 91.24 44.32 1.347 163.915L0 162.901C90.22 42.871 197.688-1.514 316.869.039c119.106 1.552 249.862 48.98 386.745 112.416 65.436 30.325 132.298 64.321 199.975 98.731l9.36 4.759c70.878 36.031 142.621 72.354 214.561 105.257 143.89 65.812 288.48 117.909 428.38 126.634 86.24 5.379 174.09-20.452 262.52-61.086 80.72-37.095 161.85-86.493 242.62-135.667 7.71-4.693 15.41-9.385 23.11-14.064 88.37-53.68 176.2-105.659 262.38-139.37 86.19-33.714 170.8-49.193 252.7-29.787l-.39 1.641c-81.44-19.296-165.68-3.931-251.69 29.717-86.03 33.651-173.74 85.552-262.12 139.242-7.71 4.68-15.42 9.374-23.13 14.07-80.75 49.164-161.96 98.613-242.78 135.751-88.54 40.687-176.69 66.641-263.33 61.237-140.21-8.745-285.03-60.948-428.97-126.783-71.98-32.92-143.749-69.258-214.625-105.288l-9.354-4.756c-67.684-34.414-134.52-68.396-199.926-98.707C566.052 50.564 435.572 3.273 316.847 1.726zm-.808 18.966C197.558 19.058 90.933 61.584 1.594 177.071L.26 176.039C89.937 60.116 197.072 17.364 316.063 19.005c118.919 1.641 249.645 47.622 386.59 109.034 64.992 29.144 131.41 61.777 198.649 94.813l10.839 5.325c70.947 34.85 142.769 69.965 214.799 101.755 144.07 63.584 288.87 113.83 428.94 122.03 87.53 5.046 176.03-20.062 264.69-59.451 81.4-36.16 162.87-84.325 243.82-132.178 7.23-4.275 14.45-8.548 21.68-12.81 88.04-51.946 175.4-102.217 261.18-134.797 85.78-32.582 170.07-47.502 251.96-28.665l-.37 1.644c-81.45-18.734-165.38-3.92-251 28.598-85.62 32.521-172.86 82.719-260.92 134.674-7.22 4.264-14.46 8.54-21.69 12.819-80.93 47.842-162.49 96.056-243.98 132.257-88.78 39.441-177.56 64.661-265.46 59.594-140.38-8.218-285.41-58.564-429.53-122.172-72.06-31.805-143.917-66.935-214.862-101.783l-10.834-5.323c-67.246-33.039-133.638-65.659-198.6-94.791C565.048 68.179 434.591 22.328 316.039 20.692zm-.807 18.966C196.919 37.934 90.627 78.848 1.84 190.228l-1.318-1.052C89.655 77.362 196.457 36.24 315.256 37.971c118.734 1.73 249.429 46.263 386.437 105.651 64.522 27.968 130.468 59.242 197.242 90.909l12.398 5.879c71.015 33.667 142.927 67.575 215.047 98.251 144.24 61.356 289.26 109.752 429.5 117.427 88.81 4.711 177.95-19.672 266.85-57.816 82.06-35.206 163.85-82.106 244.96-128.611 6.77-3.883 13.54-7.764 20.3-11.634 87.73-50.212 174.6-98.777 259.98-130.225 85.39-31.45 169.35-45.81 251.24-27.543l-.37 1.647c-81.45-18.171-165.07-3.91-250.29 27.48-85.22 31.392-171.98 79.885-259.72 130.105-6.77 3.873-13.54 7.757-20.32 11.643-81.08 46.495-162.96 93.443-245.11 128.689-89.02 38.194-178.44 62.68-267.61 57.949-140.54-7.691-285.77-56.18-430.07-117.558-72.16-30.692-144.096-64.613-215.109-98.28l-12.394-5.877c-66.78-31.669-132.7-62.931-197.194-90.887C564.044 85.794 433.61 41.383 315.232 39.658zm-.807 18.967C196.281 56.812 90.319 96.113 2.085 203.386l-1.3-1.072C89.373 94.609 195.841 55.118 314.45 56.938c118.547 1.82 249.211 44.904 386.282 102.269 64.026 26.795 129.474 56.717 195.753 87.019l14.04 6.418c71.083 32.485 143.074 65.185 215.284 94.748 144.42 59.127 289.65 105.673 430.06 112.823 90.1 4.377 179.89-19.282 269.03-56.18 82.7-34.234 164.8-79.837 246.04-124.968 6.33-3.517 12.66-7.03 18.98-10.536 87.4-48.477 173.8-95.335 258.78-125.651 84.98-30.318 168.62-44.12 250.5-26.421l-.36 1.649c-81.46-17.608-164.76-3.899-249.58 26.361-84.83 30.263-171.11 77.052-258.53 125.538l-18.99 10.544c-81.22 45.121-163.4 90.77-246.2 125.043-89.26 36.947-179.31 60.7-269.75 56.306-140.71-7.165-286.14-53.797-430.62-112.947-72.24-29.577-144.263-62.29-215.345-94.775-4.68-2.138-9.356-4.276-14.028-6.412-66.287-30.306-131.713-60.218-195.715-87.003C563.04 103.41 432.63 60.439 314.425 58.625zm-.8 18.966C195.65 75.689 90.02 113.377 2.339 216.543l-1.284-1.093C89.1 111.855 195.234 73.995 313.651 75.904c118.362 1.908 248.995 43.545 386.128 98.886 63.503 25.628 128.423 54.203 194.179 83.147l15.766 6.939c71.152 31.303 143.225 62.796 215.525 91.245 144.6 56.9 290.04 101.595 430.63 108.219 91.38 4.044 181.81-18.891 271.19-54.544 83.34-33.243 165.72-77.52 247.08-121.251 5.9-3.174 11.8-6.346 17.7-9.511 87.09-46.743 173-91.893 257.58-121.077 84.59-29.187 167.9-42.43 249.77-25.3l-.34 1.652c-81.47-17.046-164.46-3.888-248.88 25.242-84.43 29.134-170.23 74.219-257.33 120.97-5.91 3.168-11.81 6.343-17.72 9.521-81.35 43.72-163.8 88.041-247.23 121.321-89.51 35.701-180.19 58.721-271.9 54.662-140.87-6.637-286.51-51.413-431.17-108.334-72.33-28.462-144.433-59.968-215.583-91.27l-15.764-6.938c-65.761-28.946-130.656-57.511-194.134-83.128-137.105-55.33-267.493-96.862-385.524-98.764zm-.807 18.966C195.011 94.567 89.712 130.641 2.583 229.701l-1.265-1.115C88.82 129.102 194.62 92.873 312.846 94.87c118.176 1.997 248.777 42.186 385.973 95.504 62.947 24.463 127.303 51.698 192.498 79.288l17.6 7.447c71.22 30.121 143.383 60.407 215.763 87.742 144.79 54.672 290.42 97.515 431.19 103.615 179.54 7.188 353.02-82.908 521.49-170.405 5.48-2.845 10.95-5.687 16.41-8.523 86.77-45.009 172.21-88.452 256.39-116.504 84.18-28.055 167.17-40.739 249.03-24.177l-.33 1.654c-81.48-16.483-164.15-3.878-248.17 24.123-84.03 28.004-169.36 71.385-256.14 116.402-5.52 2.865-11.05 5.736-16.58 8.61-168.33 87.425-342.16 177.712-522.17 170.505-141.03-6.111-286.87-49.029-431.71-103.722-72.42-27.348-144.61-57.645-215.829-87.766-5.872-2.483-11.738-4.965-17.596-7.445-65.2-27.592-129.533-54.818-192.456-79.271-137.168-53.307-267.533-93.398-385.391-95.39zm-.807 18.966C194.372 113.444 89.403 147.905 2.827 242.859l-1.245-1.137C88.539 146.349 194.006 111.75 312.04 113.837c117.99 2.085 248.56 40.827 385.818 92.121 62.356 23.303 126.111 49.204 190.708 75.447 6.506 2.643 13.02 5.29 19.543 7.938 71.287 28.938 143.531 58.017 216.011 84.238 144.96 52.445 290.81 93.437 431.75 99.011 182.42 6.554 356.34-80.6 524.56-164.9l15.27-7.65c86.45-43.275 171.41-85.011 255.18-111.931 83.79-26.923 166.45-39.049 248.31-23.055l-.33 1.656c-81.48-15.92-163.84-3.867-247.46 23.005-83.64 26.875-168.48 68.552-254.95 111.834-5.13 2.572-10.28 5.15-15.43 7.73-168.09 84.237-342.35 171.568-525.21 164.997h-.01c-141.2-5.585-287.24-46.646-432.26-99.11-72.51-26.234-144.778-55.324-216.065-84.262-6.522-2.647-13.035-5.294-19.54-7.936-64.601-26.245-128.335-52.137-190.667-75.431-137.23-51.284-267.573-89.935-385.257-92.016zm-.807 18.966C193.733 132.321 89.094 165.168 3.07 256.018l-1.224-1.16c86.414-91.261 191.545-124.231 309.389-122.055 117.803 2.174 248.342 39.469 385.662 88.739 61.722 22.146 124.833 46.719 188.786 71.619 7.195 2.802 14.401 5.608 21.617 8.415 71.356 27.756 143.68 55.627 216.25 80.735 145.14 50.216 291.2 89.357 432.31 94.406 185.29 5.919 359.62-78.241 527.58-159.322 4.73-2.287 9.46-4.57 14.19-6.849 172.21-83.058 337.89-160.134 501.55-129.291l-.31 1.658c-163.02-30.722-328.18 46.034-500.51 129.152-4.78 2.303-9.56 4.611-14.34 6.922-167.83 81.024-342.5 165.348-528.21 159.416-141.37-5.057-287.62-44.262-432.81-94.498-72.6-25.119-144.955-53.001-216.31-80.757-7.216-2.807-14.422-5.613-21.617-8.414-63.956-24.902-127.045-49.466-188.745-71.604-137.294-49.261-267.613-86.471-385.124-88.641zm-.808 18.967C193.094 151.199 88.785 182.432 3.312 269.178l-1.2-1.185C87.98 180.845 192.776 149.505 310.429 151.77c117.617 2.263 248.124 38.11 385.507 85.358 61.044 20.993 123.464 44.244 186.724 67.808 7.931 2.955 15.875 5.914 23.832 8.874 71.424 26.575 143.828 53.238 216.488 77.232 145.32 47.989 291.59 85.279 432.88 89.802 188.14 5.278 362.86-75.837 530.51-153.674 4.4-2.043 8.79-4.083 13.18-6.119 171.58-79.593 335.97-153.303 499.62-123.596l-.3 1.66c-163.03-29.594-326.92 43.82-498.61 123.466-4.43 2.058-8.88 4.12-13.32 6.185-167.55 77.788-342.58 159.054-531.13 153.765-141.53-4.531-287.98-41.88-433.36-89.887-72.69-24.004-145.122-50.678-216.546-77.252-7.957-2.961-15.902-5.921-23.834-8.875-63.262-23.565-125.66-46.808-186.682-67.794-137.357-47.238-267.654-83.008-384.992-85.267zm-.807 18.966C192.455 170.075 88.475 199.694 3.554 282.337l-1.176-1.21c85.324-83.034 189.784-112.745 307.245-110.392 117.431 2.353 247.907 36.753 385.352 81.976 60.313 19.845 121.985 41.78 184.495 64.013 8.722 3.103 17.46 6.21 26.213 9.319 71.492 25.393 143.987 50.849 216.727 73.729 145.5 45.761 291.98 81.2 433.45 85.198 190.97 4.635 366.04-73.386 533.37-147.957 4.09-1.822 8.17-3.642 12.25-5.459 170.94-76.126 334.05-146.471 497.69-117.9l-.29 1.662c-163.05-28.467-325.67 41.605-496.71 117.78-4.13 1.836-8.25 3.675-12.39 5.517-167.23 74.528-342.6 152.688-533.97 148.044-141.7-4.005-288.35-39.497-433.9-85.276-72.78-22.89-145.298-48.355-216.791-73.748-8.752-3.108-17.49-6.216-26.21-9.318-62.514-22.234-124.167-44.163-184.46-64.001-137.421-45.215-267.695-79.545-384.86-81.892zm-.799 18.967C191.824 188.953 88.172 216.956 3.802 295.497l-1.148-1.235c84.777-78.92 188.9-107.002 306.171-104.56 117.244 2.442 247.689 35.394 385.196 78.594 59.562 18.713 120.422 39.338 182.118 60.246 80.818 27.389 163.071 55.264 245.711 79.961 145.68 43.534 292.37 77.121 434.01 80.593 193.79 3.988 369.18-70.888 536.15-142.17 3.81-1.625 7.61-3.248 11.4-4.868 170.31-72.66 332.13-139.64 495.76-112.205l-.28 1.664c-163.06-27.34-324.41 39.391-494.81 112.093-3.84 1.637-7.68 3.277-11.53 4.919-166.88 71.247-342.57 146.25-536.73 142.254-141.86-3.478-288.72-37.114-434.45-80.664-82.63-24.693-164.972-52.597-245.843-80.003-61.701-20.909-122.546-41.528-182.011-60.21-137.483-43.193-267.735-76.081-384.726-78.517zm-.808 18.965c-116.797-2.525-220.12 23.863-303.94 98.303l-1.12-1.262c84.231-74.804 188.017-101.259 305.097-98.728 117.058 2.531 247.471 34.037 385.04 75.213 58.7 17.57 118.681 36.893 179.491 56.482 81.777 26.345 165.05 53.173 248.74 76.871 145.85 41.306 292.75 73.041 434.56 75.988 196.59 3.339 372.26-68.342 538.84-136.316 3.56-1.45 7.11-2.898 10.65-4.343 169.67-69.194 330.2-132.81 493.82-106.51l-.27 1.665c-163.07-26.212-323.15 37.176-492.91 106.407l-10.76 4.389c-166.51 67.943-342.46 139.74-539.4 136.395-142.03-2.951-289.08-34.731-434.99-76.052-83.68-23.696-167.04-50.55-248.865-76.909-60.812-19.59-120.776-38.907-179.389-56.451-137.546-41.169-267.776-72.617-384.594-75.142zm-.807 18.968C190.547 226.708 87.55 251.48 4.279 321.819l-1.087-1.289c83.684-70.688 187.132-95.515 304.021-92.895 116.872 2.62 247.254 32.679 384.885 71.832 57.759 16.431 116.777 34.457 176.616 52.735 82.814 25.295 167.206 51.071 252.006 73.763 146.04 39.079 293.14 68.963 435.13 71.384 199.34 2.687 375.26-65.752 541.43-130.395 3.33-1.297 6.66-2.593 9.99-3.887 169.04-65.727 328.28-125.979 491.88-100.814l-.25 1.667c-163.08-25.084-321.9 34.96-491.02 100.72-3.36 1.307-6.73 2.616-10.09 3.927-166.1 64.617-342.29 133.161-541.96 130.469h-.01c-142.19-2.425-289.45-32.349-435.54-71.441-84.8-22.692-169.266-48.491-252.122-73.799-59.839-18.277-118.84-36.298-176.521-52.707-137.61-39.146-267.817-69.153-384.462-71.767zm-.807 18.966C189.909 245.585 87.238 268.74 4.516 334.98l-1.053-1.318c83.136-66.57 186.246-89.769 302.944-87.061 116.686 2.709 247.036 31.321 384.729 68.45 56.727 15.297 114.701 32.038 173.485 49.014 226.679 65.458 465.409 134.398 691.219 137.41 202.07 2.034 378.2-63.115 543.91-124.407 3.15-1.167 6.3-2.333 9.45-3.496 168.4-62.261 326.36-119.15 489.95-95.12l-.25 1.669c-163.09-23.957-320.64 32.744-489.12 95.033-3.18 1.175-6.36 2.352-9.54 3.53-165.65 61.271-342.04 126.515-544.41 124.478h-.01c-226.06-3.015-465.09-72.042-691.787-137.509-58.753-16.967-116.678-33.695-173.335-48.973-137.674-37.124-267.859-65.689-384.33-68.392zm-.808 18.966C189.27 264.462 86.926 286 4.752 348.141l-1.017-1.346c82.587-62.453 185.358-84.025 301.866-81.228 116.5 2.798 246.818 29.964 384.573 65.069 55.588 14.167 112.388 29.625 169.985 45.3 227.951 62.039 468.391 127.476 695.681 129.665 204.73 1.378 381.03-60.433 546.24-118.354 3.02-1.059 6.03-2.116 9.05-3.171 167.76-58.794 324.43-112.32 488.01-89.425l-.23 1.671c-163.11-22.829-319.39 30.528-487.23 89.346-3.04 1.065-6.08 2.132-9.12 3.2-165.16 57.905-341.7 119.8-546.73 118.42-227.54-2.191-468.26-67.706-696.223-129.752-57.569-15.668-114.324-31.115-169.849-45.265-137.737-35.101-267.9-62.225-384.198-65.017zm-.807 18.966c-116.121-2.881-218.14 17.04-299.767 75.083l-.977-1.375c82.037-58.335 184.468-78.281 300.786-75.395 116.314 2.886 246.6 28.606 384.417 61.688 54.322 13.04 109.814 27.223 166.087 41.605 229.331 58.615 471.631 120.543 700.541 121.9 207.35.722 383.76-57.704 548.43-112.236l8.79-2.91c167.13-55.327 322.51-105.49 486.07-83.73l-.22 1.673c-163.12-21.701-318.13 28.311-485.33 83.659l-8.86 2.934c-164.62 54.519-341.26 113.02-548.89 112.297-229.13-1.358-471.7-63.356-701.048-121.976-56.246-14.376-111.699-28.55-165.963-41.575-137.801-33.078-267.941-58.761-384.066-61.642zm-.807 18.966C187.995 302.215 86.3 320.518 5.218 374.464l-.933-1.404c81.486-54.215 183.576-72.536 299.704-69.561 116.128 2.975 246.382 27.248 384.262 58.307 52.902 11.917 106.927 24.832 161.712 37.929 230.857 55.188 475.197 113.601 705.867 114.117 209.89.064 386.38-54.93 550.45-106.055l8.7-2.712c166.5-51.86 320.59-98.661 484.15-78.035l-.21 1.673c-163.14-20.573-316.88 26.095-483.43 77.972l-8.78 2.733c-164.03 51.115-340.73 106.175-550.88 106.111-230.89-.516-475.48-58.99-706.347-114.183-54.762-13.092-108.751-25.999-161.603-37.904-137.864-31.055-267.982-55.296-383.934-58.266zm-.799 18.967c-115.781-3.06-217.153 13.625-297.69 63.474l-.888-1.435c80.934-50.094 182.684-66.789 298.622-63.726 115.941 3.064 246.164 25.891 384.105 54.927 51.297 10.797 103.662 22.453 156.76 34.272 232.534 51.759 479.144 106.651 711.784 106.314 212.34-.594 388.83-52.11 552.24-99.809l8.84-2.58c165.86-48.392 318.67-91.832 482.21-72.34l-.2 1.675c-163.15-19.444-315.63 23.878-481.54 72.285l-8.89 2.596c-163.39 47.692-340.08 99.266-552.66 99.86-232.85.337-479.68-54.608-712.226-106.37-53.079-11.815-105.413-23.464-156.665-34.252-137.928-29.033-268.024-51.832-383.802-54.891zm-.808 18.965C186.729 339.97 85.68 355.035 5.685 400.789l-.837-1.465c80.38-45.974 181.787-61.045 297.537-57.892 115.755 3.153 245.945 24.534 383.948 51.546 49.465 9.681 99.933 20.086 151.103 30.636 234.414 48.328 483.554 99.693 718.394 98.49 214.68-1.25 391.1-49.242 553.79-93.5 3.09-.838 6.16-1.674 9.23-2.509 165.23-44.925 316.74-85.003 480.27-66.646l-.19 1.677c-163.16-18.316-314.37 21.661-479.64 66.597-3.08.839-6.18 1.68-9.27 2.523-162.67 44.252-339.28 92.294-554.18 93.546-235.04 1.203-484.39-50.208-718.809-98.538-51.153-10.547-101.595-20.946-151.021-30.621-137.992-27.009-268.066-48.366-383.671-51.515zm-.807 18.968c-115.439-3.238-216.166 10.208-295.62 51.866l-.782-1.495c79.825-41.852 180.889-55.299 296.45-52.058 115.568 3.242 245.727 23.177 383.791 48.165 47.349 8.57 95.627 17.734 144.568 27.023 236.531 44.895 488.551 92.73 725.891 90.645 216.86-1.905 393.13-46.329 555.02-87.128l9.93-2.502c164.59-41.458 314.82-78.175 478.33-60.952l-.17 1.678c-163.18-17.188-313.12 19.443-477.75 60.91l-9.97 2.513c-161.87 40.795-338.31 85.261-555.38 87.168-237.52 2.086-489.74-45.787-726.269-90.684-48.927-9.287-97.183-18.447-144.5-27.01-138.055-24.987-268.107-44.902-383.539-48.139z" fill="#24C350"/><path fill="url(#paint0_linear_2003_580)" d="M0 257h2599v272H0z"/><defs><linearGradient id="paint0_linear_2003_580" x1="1299.5" y1="257" x2="1299.5" y2="529" gradientUnits="userSpaceOnUse"><stop stop-color="#E6E6E6" stop-opacity="0"/><stop offset="1" stop-color="#E6E6E6"/></linearGradient></defs></svg>