<svg width="983" height="983" fill="none" xmlns="http://www.w3.org/2000/svg"><path d="M805.518 176.826c70.273 70.273 112.782 158.765 125.797 250.728l46.848-3.472C964.282 321.71 917.432 221.94 839.352 142.991c-32.099-32.1-66.801-58.127-104.108-79.817l-20.822 42.511c32.101 19.087 63.334 43.379 91.096 71.141zm-628.119 0c13.014-13.013 26.027-25.159 39.908-35.57l-26.894-39.041c-16.484 13.014-32.1 26.028-46.849 41.644-20.822 20.821-38.173 42.511-54.657 65.067l39.908 25.16c14.749-20.822 30.365-39.908 48.584-57.26zM894.047 679.15l41.642 22.556c32.969-69.405 48.585-145.752 46.849-221.228l-46.849 3.469c.868 66.801-13.013 133.605-41.642 195.203zM663.258 81.393l20.822-42.511c-144.019-60.73-310.59-50.32-446.799 31.233l26.895 39.04c121.458-72.008 270.68-81.551 399.082-27.762zM99.335 281.798l-39.908-25.159C-25.594 413.67-19.52 607.137 78.514 758.095l38.173-27.764C29.93 594.122 24.724 422.345 99.335 281.798zm706.167 524.01c-95.433 95.433-223.832 137.943-348.762 128.4l-6.942 46.85c138.813 11.279 281.961-35.571 388.671-142.283 26.895-26.893 50.319-56.39 69.407-86.755l-41.644-22.559c-16.484 26.896-36.438 52.056-60.73 76.347zm-628.053.007c-9.543-9.543-18.219-19.086-26.895-29.497l-38.173 27.761c9.543 12.148 20.822 23.426 32.1 34.703 71.141 71.141 158.764 116.255 250.728 134.473l6.941-46.847c-83.288-17.353-161.369-57.261-224.701-120.593z" fill="#fff" fill-opacity=".1"/><path d="M298.913 816.218c-8.675-5.205-16.482-10.411-25.16-16.484l-30.363 36.439c9.543 6.941 19.954 13.88 31.231 19.954 73.745 43.377 155.295 62.466 235.111 58.994l-5.205-46.847c-69.405 2.601-140.547-13.883-205.614-52.056zM166.15 299.154c6.94-12.147 14.748-23.426 23.424-34.703l-35.57-31.233c-10.411 13.013-19.087 26.896-27.763 41.644-12.145 19.955-21.689 41.642-30.365 62.464l45.114 13.881c6.941-17.35 15.616-35.571 25.16-52.053zm-42.523 106.709l-45.114-13.88c-35.57 147.485 10.41 304.516 122.327 409.492l30.365-36.438C134.038 671.34 94.129 534.263 123.627 405.863zm418.174-288.901l9.546-45.981C420.343 52.762 285.87 96.14 190.437 190.705l35.57 31.233c84.155-82.419 201.275-120.592 315.794-104.976zm142.261 49.457c72.007 42.511 124.062 104.976 154.427 176.117l45.114-15.617c-33.837-81.552-93.7-152.692-175.249-201.275-32.102-19.087-65.936-32.968-100.639-43.379l-9.543 45.981c28.629 8.676 58.126 21.689 85.89 38.173zm179.644 390.399l45.982 11.279c11.276-63.332 8.675-127.534-7.81-188.262l-45.113 15.614c13.88 52.055 16.484 107.58 6.941 161.369zm-46.92 126.664c-57.258 97.169-151.823 159.633-255.063 178.722l5.203 46.847c117.123-20.822 225.569-91.096 290.637-202.143 15.616-26.895 28.629-55.524 38.174-84.153l-45.981-11.279c-8.675 24.291-19.955 48.583-32.97 72.006zm-439.832 96.302c-9.543-3.47-18.218-7.807-26.896-12.145l-25.16 39.909c11.279 6.073 22.559 11.279 34.703 15.616 17.353 6.939 34.705 12.145 52.055 16.482l6.942-46.847c-13.883-3.472-27.764-7.81-41.644-13.015z" fill="#fff" fill-opacity=".1"/><path d="M780.383 605.403c-2.604 6.073-5.206 12.147-7.81 18.218l40.776 24.292c3.472-7.807 7.81-16.483 11.279-24.292 26.028-65.933 31.234-134.473 19.087-198.673l-45.982 12.147c9.543 54.657 4.34 112.783-17.35 168.308zM474.156 801.477l-6.941 46.849c124.062 8.675 245.522-49.451 317.529-151.823l-40.776-24.294c-61.596 86.758-164.838 134.473-269.812 129.268zM605.997 201.98c85.021 33.835 146.617 100.637 176.114 179.588l45.982-12.147c-33.835-92.829-105.844-171.779-204.746-211.687-23.424-9.543-46.848-15.616-70.274-19.954l-4.337 46.849c19.086 4.338 38.174 10.411 57.261 17.351zM180.875 503.034l-47.716-2.604c3.47 108.445 55.524 211.687 144.016 276.755l25.16-39.908c-73.744-55.525-117.99-142.283-121.46-234.243zm311.461-322.74l4.337-46.849c-51.187-.868-100.638 9.543-146.62 29.497l22.558 41.644c37.304-15.617 78.08-24.292 119.725-24.292zm-289.738 196.07c24.292-61.596 66.802-111.915 118.857-145.751l-22.558-41.643c-61.596 39.041-111.915 97.169-140.545 170.044-11.278 27.761-18.219 56.392-21.689 85.021l47.716 2.602c2.603-23.424 8.676-46.847 18.219-70.273z" fill="#fff" fill-opacity=".1"/><path d="M734.389 474.399l47.717 2.602c-5.205-97.166-58.994-187.394-143.15-236.846l-19.954 43.379c66.803 40.776 110.181 112.783 115.387 190.865zM249.395 520.38h-47.716c4.338 37.304 14.748 73.743 32.968 106.709l39.907-26.027c-13.012-25.157-21.687-52.053-25.159-80.682zm175.264 205.615c-48.585-13.88-88.493-41.644-118.859-77.214l-39.04 26.027c36.439 45.114 85.89 78.949 145.752 96.301 21.69 6.071 43.378 9.543 65.068 10.411l-2.604-47.717c-17.35-.868-33.835-3.47-50.317-7.808zm106.751 6.074l2.602 47.715c83.286-12.144 158.765-60.728 204.746-132.737l-42.509-20.822c-38.175 55.525-98.905 94.565-164.839 105.844zm194.327-173.511c-1.736 5.205-3.469 10.411-5.205 15.616l42.509 20.822c2.604-7.809 6.074-15.616 7.81-24.294 3.469-13.012 6.073-25.159 7.807-38.172l-47.715-2.601c0 10.408-2.604 19.086-5.206 28.629zM257.204 424.083c19.086-66.804 64.2-118.857 121.458-149.222l-17.35-44.246c-70.273 35.569-126.665 98.903-150.09 180.453-5.205 17.352-8.676 35.57-9.543 53.791h47.716c.868-13.883 3.472-27.764 7.809-40.776zm301.087-167.446c2.604.868 6.073 1.733 8.675 2.601l19.954-43.377-15.614-5.206c-52.924-15.616-107.58-14.748-157.032-.867l17.353 44.245c39.908-9.543 84.154-9.543 126.664 2.604z" fill="#fff" fill-opacity=".1"/></svg>