<svg width="983" height="983" fill="none" xmlns="http://www.w3.org/2000/svg"><g style="mix-blend-mode:soft-light" fill="#CCC" fill-opacity=".9"><path d="M805.517 176.826C875.791 247.1 918.3 335.591 931.315 427.554l46.847-3.472c-13.88-102.372-60.73-202.142-138.81-281.091-32.099-32.1-66.801-58.127-104.108-79.816l-20.822 42.511c32.101 19.086 63.334 43.378 91.095 71.14zm-628.119.001c13.014-13.014 26.027-25.16 39.909-35.571l-26.895-39.04c-16.484 13.013-32.1 26.027-46.849 41.643-20.822 20.822-38.173 42.511-54.657 65.068l39.908 25.159c14.749-20.821 30.365-39.908 48.584-57.259zM894.047 679.15l41.642 22.556c32.969-69.405 48.585-145.752 46.849-221.228l-46.849 3.469c.868 66.801-13.013 133.605-41.642 195.203zM663.258 81.393l20.822-42.511c-144.018-60.73-310.59-50.32-446.799 31.233l26.896 39.04c121.458-72.008 270.679-81.551 399.081-27.762zM99.335 281.798l-39.908-25.159C-25.594 413.67-19.52 607.137 78.514 758.095l38.173-27.764C29.93 594.122 24.724 422.345 99.335 281.798zm706.166 524.01c-95.433 95.433-223.833 137.942-348.763 128.399l-6.941 46.85c138.813 11.279 281.961-35.571 388.67-142.283 26.896-26.893 50.32-56.39 69.408-86.755l-41.644-22.558c-16.484 26.896-36.439 52.055-60.73 76.347zm-628.05.007c-9.544-9.543-18.219-19.086-26.895-29.497l-38.173 27.761c9.543 12.148 20.821 23.426 32.1 34.703 71.14 71.141 158.764 116.255 250.727 134.473l6.942-46.847c-83.288-17.353-161.369-57.261-224.701-120.593z"/><path d="M298.913 816.218c-8.675-5.206-16.482-10.411-25.16-16.485l-30.362 36.439c9.543 6.942 19.954 13.881 31.23 19.954 73.746 43.378 155.295 62.466 235.112 58.994l-5.206-46.847c-69.405 2.602-140.546-13.883-205.614-52.055zM166.148 299.154c6.941-12.147 14.749-23.427 23.424-34.703l-35.57-31.233c-10.411 13.012-19.086 26.895-27.762 41.644-12.146 19.954-21.689 41.642-30.365 62.464l45.114 13.88c6.94-17.35 15.616-35.57 25.159-52.052zm-42.52 106.709l-45.114-13.881c-35.57 147.486 10.411 304.517 122.328 409.493l30.364-36.439C134.039 671.34 94.131 534.262 123.628 405.863zm418.174-288.901l9.545-45.98C420.344 52.761 285.871 96.14 190.438 190.705l35.57 31.232c84.154-82.419 201.275-120.592 315.794-104.976zm142.26 49.457c72.007 42.511 124.062 104.975 154.427 176.116l45.114-15.616c-33.838-81.552-93.7-152.692-175.25-201.276-32.101-19.086-65.935-32.968-100.638-43.378l-9.543 45.981c28.629 8.676 58.126 21.689 85.89 38.173zm179.645 390.399l45.982 11.279c11.276-63.332 8.675-127.534-7.81-188.262l-45.113 15.614c13.88 52.055 16.484 107.58 6.941 161.369zm-46.921 126.664c-57.259 97.169-151.823 159.633-255.063 178.722l5.203 46.847c117.123-20.822 225.568-91.096 290.636-202.142 15.616-26.896 28.629-55.525 38.175-84.154l-45.982-11.279c-8.675 24.291-19.954 48.583-32.969 72.006zm-439.832 96.302c-9.543-3.469-18.218-7.807-26.896-12.144l-25.16 39.908c11.279 6.073 22.559 11.279 34.703 15.616 17.353 6.939 34.705 12.145 52.055 16.482l6.942-46.847c-13.883-3.472-27.764-7.809-41.644-13.015z"/><path d="M780.384 605.403c-2.604 6.074-5.206 12.147-7.81 18.218l40.776 24.292c3.472-7.807 7.81-16.482 11.279-24.292 26.028-65.933 31.234-134.473 19.087-198.673l-45.982 12.147c9.543 54.657 4.34 112.783-17.35 168.308zM474.156 801.477l-6.941 46.849c124.062 8.675 245.522-49.451 317.529-151.823l-40.776-24.294c-61.596 86.758-164.838 134.473-269.812 129.268zm131.839-599.496c85.022 33.835 146.618 100.636 176.115 179.587l45.982-12.147c-33.835-92.829-105.844-171.778-204.747-211.687-23.423-9.543-46.847-15.616-70.273-19.954l-4.338 46.849c19.086 4.338 38.175 10.411 57.261 17.352zM180.876 503.034l-47.716-2.604c3.47 108.445 55.525 211.688 144.017 276.755l25.159-39.908c-73.743-55.525-117.989-142.282-121.46-234.243zm311.461-322.741l4.338-46.848c-51.187-.868-100.639 9.543-146.62 29.497l22.558 41.643c37.304-15.616 78.08-24.292 119.724-24.292zM202.599 376.364c24.292-61.596 66.802-111.915 118.858-145.751l-22.559-41.643c-61.596 39.04-111.915 97.169-140.545 170.043-11.278 27.762-18.219 56.393-21.689 85.022l47.717 2.602c2.602-23.424 8.675-46.847 18.218-70.273z"/><path d="M734.387 474.4l47.718 2.601c-5.206-97.166-58.995-187.394-143.151-236.846L619 283.534C685.804 324.31 729.181 396.317 734.387 474.4zm-484.992 45.98H201.68c4.337 37.304 14.748 73.743 32.967 106.709l39.908-26.027c-13.013-25.157-21.688-52.053-25.16-80.682zm175.266 205.615c-48.586-13.88-88.494-41.644-118.859-77.215l-39.04 26.028c36.438 45.114 85.89 78.948 145.752 96.301 21.69 6.071 43.378 9.543 65.068 10.411l-2.604-47.718c-17.35-.868-33.835-3.469-50.317-7.807zm106.749 6.074l2.602 47.715c83.286-12.145 158.764-60.728 204.746-132.737l-42.51-20.822c-38.174 55.524-98.905 94.564-164.838 105.844zm194.327-173.511l-5.206 15.616 42.51 20.822c2.604-7.809 6.073-15.616 7.809-24.294 3.47-13.012 6.074-25.159 7.808-38.172l-47.716-2.601c0 10.408-2.604 19.086-5.205 28.629zM257.205 424.083c19.086-66.804 64.2-118.857 121.458-149.222l-17.35-44.247c-70.273 35.569-126.666 98.904-150.09 180.453-5.206 17.353-8.676 35.571-9.543 53.792h47.715c.868-13.883 3.472-27.764 7.81-40.776zM558.29 256.637c2.604.868 6.073 1.734 8.675 2.602l19.954-43.378-15.614-5.206c-52.924-15.616-107.58-14.748-157.032-.867l17.353 44.245c39.908-9.543 84.154-9.543 126.664 2.604z"/></g></svg>