<svg width="354" height="104" fill="none" xmlns="http://www.w3.org/2000/svg"><path d="M44.056 1.888c1.193 0 2.017.973 2.472 2.919.454 1.888.51 3.862.17 5.922-.34 2.003-.852 3.205-1.534 3.605-.284.172-.852.258-1.704.258-.795 0-1.704-.029-2.727-.086a423.534 423.534 0 01-3.663-.43c-1.42-.171-2.727-.343-3.92-.514a92.157 92.157 0 00-4.175-.687c-1.59-.229-2.868-.43-3.834-.6.227 8.41.284 13.103.17 14.076-.568 5.379 1.193 7.753 5.283 7.124 1.25-.23 2.187-.315 2.812-.258.681.058 1.676-.028 2.982-.257 1.136 0 1.534.658 1.193 1.974-.34 1.316-1.08 2.174-2.215 2.575a3.143 3.143 0 01-.767.086c-.625.172-1.647.343-3.068.515-1.42.114-2.613.257-3.578.429-.966.114-1.903.486-2.812 1.116-.852.572-1.306 1.373-1.363 2.403-.057.515-.142 2.003-.256 4.464-.114 2.403-.227 4.234-.34 5.493-.058.457-.03 1.259.084 2.403.114 1.087.228 2.232.341 3.433a70.79 70.79 0 01.426 3.434c.114 1.144.142 2.117.085 2.918-.056.744-.255 1.116-.596 1.116-.057 0-.256.257-.596.772-.341.458-.682.945-1.023 1.46l-.511.772c.057.4-.17.8-.682 1.202a6.657 6.657 0 01-1.533.858 10.11 10.11 0 01-1.449.343c-4.43.801-7.583.144-9.458-1.974-1.817-2.117-2.84-5.665-3.067-10.643-.227-4.578-.142-9.413.255-14.506a474.52 474.52 0 011.79-16.651c.738-6.009 1.221-10.844 1.448-14.506-.568 0-1.335.086-2.3.257-.966.115-1.733.172-2.3.172-.512 0-1.336-.086-2.472-.258-.568-.171-1.022-.887-1.363-2.145-.398-1.26-.34-2.49.17-3.691C.886 5.579 1.88 5.036 3.414 5.15c1.306.114 4.828-.086 10.565-.6 5.794-.573 11.758-1.145 17.893-1.718 6.192-.629 10.253-.944 12.184-.944zM71.75 31.844c2.67-.572 5.112.486 7.327 3.176 2.273 2.632 3.068 5.264 2.386 7.896a48.846 48.846 0 01-.682 2.49c-.17.744-.483 1.66-.937 2.746-.454 1.03-.937 1.889-1.448 2.575-.512.63-1.165 1.145-1.96 1.545-.795.344-1.647.4-2.556.172-.852-.229-1.761-1.202-2.727-2.918a320.42 320.42 0 01-1.534-2.833c-.34-.572-.397-1.345-.17-2.317.284-.973.54-1.946.767-2.919.284-1.03.313-1.602.085-1.716-.795-.344-2.13.83-4.005 3.519-1.874 2.69-3.124 4.75-3.749 6.18a17.129 17.129 0 00-1.022 3.433c-.17 1.145-.199 2.432-.085 3.863.17 1.43.312 2.575.426 3.433.17.858.454 2.203.852 4.034.454 1.831.738 3.033.852 3.605.34 1.888-.398 3.176-2.215 3.862-1.818.687-3.579.859-5.283.516-3.522-.745-5.965-2.318-7.328-4.721-1.363-2.46-1.96-6.209-1.79-11.244-.113-3.205.03-6.524.427-9.957a242.51 242.51 0 011.79-11.416c.738-4.12 1.249-7.381 1.533-9.785.17-1.087 1.193-.915 3.067.515 1.932 1.374 3.437 2.604 4.516 3.691 3.124 3.147 4.46 5.608 4.005 7.382-.057.114-.17 1.03-.341 2.746-.114 1.717-.142 2.575-.085 2.575.511.058 1.164-.4 1.96-1.373a30.416 30.416 0 002.47-3.262 23.233 23.233 0 012.727-3.519c1.023-1.144 1.932-1.802 2.727-1.974zm84.297 31.758c.056.344.028.801-.086 1.374-.114.572-.34 1.23-.681 1.974-.285.686-.54 1.287-.767 1.802-.227.515-.54 1.144-.937 1.889-.341.744-.54 1.173-.597 1.287-1.704 3.433-3.863 6.18-6.475 8.24-1.421 1.26-3.04 2.002-4.857 2.232-.227.057-.739.171-1.534.343-.738.23-1.307.372-1.704.43-.398.057-.852.028-1.363-.087-1.932-.858-3.437-1.774-4.516-2.746-1.079-.973-1.903-2.318-2.471-4.035-.227-.8-.455-2.002-.682-3.605-.114-.972.199-1.688.938-2.145.454-.344.709-.172.766.515v.257c.057 1.088.71 2.518 1.96 4.292 1.249 1.774 2.386 2.346 3.408 1.716 1.193-.686 2.074-1.774 2.642-3.261.624-1.43.823-2.833.596-4.206-.795-4.005-1.818-8.211-3.067-12.617-.057-.23-.313-1.374-.767-3.434-.455-2.06-.937-3.89-1.448-5.493-.512-1.602-1.023-2.518-1.534-2.747.341.515-.228 2.203-1.704 5.065-1.421 2.86-3.21 5.95-5.368 9.27-1.364 2.803-2.841 4.835-4.431 6.094-2.102 2.575-3.636 4.034-4.601 4.377-1.193 1.26-2.215 2.06-3.067 2.403l-.341.258c-2.102 1.259-5.425 2.432-9.969 3.519-1.421.343-3.409.086-5.965-.773-2.556-.8-4.544-1.716-5.964-2.746-1.989-1.43-3.465-2.89-4.43-4.378-.967-1.487-1.62-3.404-1.96-5.75-.512-4.178.17-8.841 2.044-13.991 1.875-5.15 4.374-9.041 7.499-11.673 2.556-2.118 6.503-3.577 11.843-4.378 1.363-.229 2.442.029 3.238.773a4.893 4.893 0 011.619 2.746c.284 1.087.426 2.375.426 3.863 0 1.03.113 2.26.341 3.69.283 1.431.454 2.518.511 3.262.056.744-.142 1.974-.597 3.69-.852 2.233-1.903 4.035-3.152 5.408-1.25 1.317-2.897 2.347-4.942 3.09-.511.23-.909.401-1.193.515-.284.115-.653.315-1.108.601a4.23 4.23 0 00-1.107.773c-.228.229-.455.543-.682.944-.17.4-.256.858-.256 1.373 0 .458.114 1.002.341 1.631.171.63.227 1.402.171 2.317 0 .859-.057 1.689-.17 2.49-.058.8.141 1.545.596 2.231.454.687 1.221 1.145 2.3 1.374 2.556.572 5.453-.372 8.691-2.833.057 0 .171-.086.341-.257 2.101-1.603 4.885-4.435 8.35-8.498.057-.057.256-.343.597-.858a35.15 35.15 0 011.363-1.888 41.505 41.505 0 011.619-2.146c5.396-8.24 7.895-13.447 7.498-15.622-.114-.572-.511-1.716-1.193-3.433-.682-1.774-1.051-3.119-1.108-4.034-.057-1.145.312-2.318 1.108-3.52.454-.743.795-1.201 1.022-1.373.284-.171.682-.257 1.193-.257a5.133 5.133 0 001.534-.43c1.647-.743 3.01-.715 4.09.086 1.136.744 1.306 2.003.511 3.777-.341.744-.54 1.402-.596 1.974 0 .515.141 1.03.426 1.545.341.458.624.83.852 1.116.227.229.71.63 1.448 1.202a59.61 59.61 0 011.619 1.287c5.339 4.921 9.145 10.071 11.418 15.45 1.136 2.632 1.959 5.522 2.471 8.67zm-53.254-15.278c-.511.63-1.193 2.26-2.045 4.892-.852 2.575-1.107 3.949-.767 4.12.739.344 1.648 0 2.727-1.03 1.136-1.03 2.13-2.317 2.982-3.862a38.077 38.077 0 002.301-4.55c.681-1.487 1.022-2.488 1.022-3.003.057-1.717-1.903-.658-5.879 3.175l-.341.258zm33.742 1.03c.056.057.113.143.17.258.113.171.199.257.256.257-.057-.343-.2-.515-.426-.515zm75.932 5.236c.682.4.398 2.432-.852 6.094-1.249 3.662-2.215 6.094-2.897 7.296a27.088 27.088 0 01-2.471 3.948c-.908 1.202-2.016 2.346-3.323 3.433-1.249 1.088-2.556 1.631-3.919 1.631-1.306.058-2.755-.343-4.345-1.202-1.648-1.087-2.983-2.746-4.005-4.978-.966-2.231-1.59-4.091-1.875-5.579a267.035 267.035 0 01-.852-6.61c-.056-.457-.056-2.23 0-5.32.057-3.09.114-5.809.171-8.155.057-2.403 0-3.89-.171-4.463-1.022-.4-2.527 2.26-4.516 7.982-1.988 5.722-2.982 9.356-2.982 10.901v1.46c0 .8-.028 1.401-.085 1.802-.056.343-.142.83-.256 1.459a4.396 4.396 0 01-.426 1.545c-.17.4-.397.772-.681 1.116-2.897 2.86-5.794 4.577-8.691 5.15-1.647.343-3.068-.344-4.261-2.06-1.135-1.717-1.902-3.548-2.3-5.494-.341-2.002-.511-3.805-.511-5.407.057-5.379.596-11.588 1.619-18.626 1.079-7.095 1.931-12.13 2.556-15.106.681-3.033 1.222-5.408 1.619-7.125.341-1.373.71-2.66 1.107-3.862a52.672 52.672 0 011.704-3.948c.682-1.43 1.421-2.633 2.216-3.605a12.323 12.323 0 012.812-2.404c1.022-.63 2.187-.858 3.493-.686 1.307.114 2.698.658 4.175 1.63 1.307.916 2.215 2.003 2.727 3.262.511 1.202.596 2.575.255 4.12-.341 1.545-.738 2.89-1.193 4.034-.397 1.145-1.05 2.633-1.959 4.464-.909 1.774-1.477 2.947-1.704 3.519-.227.457-.738 1.287-1.534 2.489-.795 1.144-1.278 2.146-1.449 3.004-.17.744-.255 1.86-.255 3.348 0 1.43-.028 2.431-.085 3.004 0 .114-.086.686-.256 1.716l-.511 3.09a185.33 185.33 0 00-.341 3.176c-.114 1.145-.142 2.117-.085 2.918.114.802.34 1.26.681 1.374 3.068-5.722 4.857-8.841 5.368-9.356 1.023-1.144 1.79-1.946 2.301-2.403.511-.515 1.278-.973 2.3-1.374 1.023-.4 2.13-.457 3.323-.171 2.386.515 4.46 2.317 6.22 5.407 1.762 3.033 2.386 5.808 1.875 8.326-.227.229-.284.887-.171 1.974.171 1.087.285 1.831.341 2.232.057.343.2 1.058.426 2.146.285 1.087.455 1.745.512 1.974.284 1.259.511 3.118.681 5.579.171 2.403.37 4.12.597 5.15.568 2.575 1.363 2.746 2.385.515.171-.4.426-1.03.767-1.888.341-.859.597-1.46.767-1.803.057-.057.256-.572.597-1.545.34-.973.71-1.974 1.107-3.004a36.79 36.79 0 011.363-3.09c.512-1.087 1.023-1.917 1.534-2.49.511-.572.966-.743 1.363-.514zm-32.548-41.543c-.341 1.03-.568 2.231-.682 3.605-.113 1.373-.028 2.603.256 3.69 0 .058.029.115.085.172 1.25-1.087 2.244-3.09 2.982-6.008.796-2.918.852-5.122.171-6.61-.114-.285-.568.344-1.364 1.889-.908 1.774-1.391 2.861-1.448 3.262zm-.426 7.295v-.171c0-.172.057-.23.17-.172.228.057.2.229-.085.515 0-.057-.028-.114-.085-.172zm99.077-15.45c.738.458 1.249.887 1.534 1.288.341.343.511.744.511 1.202a3.9 3.9 0 01-.256 1.373c-.114.4-.284 1.087-.511 2.06a17.432 17.432 0 00-.426 3.004 502.375 502.375 0 01-.426 6.18c-.17 2.289-.312 4.32-.426 6.094-.114 1.717-.227 3.29-.341 4.721.171 9.9.086 15.622-.255 17.167-.512 2.231-1.591 5.235-3.238 9.012-1.648 3.72-3.21 6.924-4.686 9.613-1.819 3.491-3.977 5.837-6.476 7.039-5.34 2.46-11.02 1.774-17.041-2.06-2.33-1.488-4.147-3.234-5.453-5.236a17.515 17.515 0 01-2.386-6.695 59.274 59.274 0 01-.426-6.953V45.32c0-2.747-.199-5.036-.597-6.867-.227-.973-.34-2.232-.34-3.777.056-1.544.141-2.89.255-4.034.171-1.144.341-2.489.512-4.034.17-1.545.255-2.832.255-3.862 0-.344.227-2.146.682-5.408.454-3.319.653-6.237.596-8.755 0-2.575-.483-4.263-1.448-5.064-.626-.515.17-1.316 2.385-2.403C242.159.372 243.21 0 243.721 0c2.727.114 4.686.4 5.879.858 2.045.801 3.749 1.917 5.113 3.348 1.419 1.373 1.845 2.918 1.278 4.635.624 1.144.937 2.718.937 4.72.056 2.003-.057 4.235-.341 6.696-.284 2.403-.426 4.062-.426 4.978 0 1.03-.142 3.204-.426 6.523-.284 3.262-.313 5.608-.085 7.039l.085-1.288c.056 1.831.682 6.38 1.875 13.648 1.249 7.21 2.442 11.501 3.578 12.874.625.687 1.193 1.202 1.704 1.545.512.287.994.344 1.449.172a8.692 8.692 0 001.278-.687c.341-.286.738-.858 1.193-1.716a34.19 34.19 0 001.193-2.146 92.04 92.04 0 001.193-2.833 7.73 7.73 0 01.085-.085c1.306-3.033 2.243-11.359 2.812-24.978-.455-5.722-.569-10.5-.341-14.334.17-2.918.426-6.466.767-10.643a4.268 4.268 0 00-.426-2.232c-.285-.744-.512-1.259-.682-1.545-.114-.343.028-1.03.426-2.06.17-.343 1.051-.2 2.641.43 1.647.629 3.011 1.287 4.09 1.973zm43.984 35.106c2.159 2.632 3.237 6.037 3.237 10.214.057 4.12-.823 7.61-2.641 10.472-1.59 2.632-4.487 4.663-8.691 6.094-4.203 1.43-7.754 1.717-10.651.858-.17-.057-.681 3.52-1.533 10.73-.852 7.267-1.335 11.701-1.449 13.304-.17 1.945-1.022 4.205-2.556 6.78-1.534 2.633-3.124 4.35-4.771 5.15-1.931.916-3.976.258-6.135-1.974-2.102-2.231-3.38-4.435-3.835-6.609a15.807 15.807 0 01-.426-2.918 19.39 19.39 0 01-.085-3.176c0-1.144.029-2.174.085-3.09.057-.858.143-1.946.256-3.262.057-1.259.114-2.231.17-2.918.058-.572.171-2.06.341-4.463.114-2.346.228-4.006.341-4.979.057-1.03.171-2.46.341-4.291.17-1.889.37-3.577.596-5.064a54.36 54.36 0 01.682-4.378c.455-2.46.824-4.578 1.108-6.352.284-1.773.54-4.005.767-6.694.227-2.69.199-5.15-.086-7.382-.226-2.29-.709-4.235-1.448-5.837-.057 0-.085-.028-.085-.086 1.022-1.144 2.102-1.83 3.237-2.06 1.193-.286 2.273-.286 3.238 0 1.023.287 2.273.83 3.749 1.631 2.386 1.316 4.119 2.861 5.198 4.635.114.172.284.658.511 1.46.227.743.455 1.459.682 2.145.284.687.511 1.059.681 1.116.285.057 1.137-.658 2.557-2.146l.17-.257c1.591-1.145 3.778-1.774 6.561-1.889 3.806 0 7.101 1.746 9.884 5.236zm-12.781 20.085c1.818-.916 3.323-2.947 4.516-6.094 1.193-3.147 1.761-5.922 1.704-8.326 0-1.201-.171-2.317-.511-3.347-.284-1.03-.71-1.889-1.279-2.575-.567-.744-1.334-1.088-2.3-1.03-.909 0-1.931.457-3.067 1.373-2.045 1.66-3.437 3.52-4.176 5.58-.681 2.06-.965 4.577-.852 7.552a31.7 31.7 0 01-.085 1.889v1.974c.057.458.114 1.03.171 1.717.114.629.284 1.087.511 1.373.284.286.625.544 1.022.772.455.23 1.052.258 1.79.086.738-.171 1.59-.486 2.556-.944zm31.89-9.956c0-9.099-.482-20.915-1.448-35.45a318.55 318.55 0 00-.171-4.034 5.77 5.77 0 01.937-3.176c.626-1.03 1.619-1.916 2.983-2.66a40.467 40.467 0 011.874-.773 49.127 49.127 0 012.641-.858c.967-.286 1.819-.344 2.557-.172.795.115 1.25.487 1.363 1.116.227.515.256 1.602.085 3.262-.113 1.602-.17 2.689-.17 3.261.284 3.09.483 5.723.596 7.897.114 2.518-.284 6.58-1.193 12.188-.852 5.55-1.306 8.727-1.363 9.528-.113 1.774-.227 3.118-.341 4.034-.056.858-.312 2.003-.767 3.433-.397 1.43-.965 2.604-1.704 3.52-1.079 1.2-2.186 1.458-3.323.772-.113-.057-.539-.372-1.278-.944-.738-.63-1.164-.944-1.278-.944zm7.839 13.561c2.102.687 3.493 2.232 4.175 4.635.682 2.346.285 4.32-1.193 5.923-1.136 1.144-2.186 1.802-3.152 1.974-.966.229-2.272.085-3.92-.43-.284-.057-.823-.2-1.619-.429a26.204 26.204 0 01-1.874-.6c-.455-.115-.966-.372-1.534-.773-.568-.343-.994-.772-1.278-1.287-.341-.63-.625-1.803-.852-3.52-.171-1.773-.597-3.004-1.278-3.69.398-1.202 1.107-2.06 2.13-2.575 1.022-.515 2.215-.716 3.579-.601 1.42.114 2.641.286 3.663.515 1.023.229 2.074.515 3.153.858z" fill="#fff"/></svg>