<svg width="265" height="68" fill="none" xmlns="http://www.w3.org/2000/svg"><g filter="url(#filter0_i_219_988)"><mask id="a" maskUnits="userSpaceOnUse" x="204.969" y="15.082" width="60" height="35" fill="#000"><path fill="#fff" d="M204.969 15.082h60v35h-60z"/><path d="M206.006 23.082v-7.333h4.976l-.011 1.152h-3.949l.314-.324.011 6.505h-1.341zm5.152 0v-5.594h1.31v3.688l3.09-3.688h1.194v5.594h-1.309v-3.687l-3.08 3.687h-1.205zm6.539-.01l.062-1.1.137.02c.041.008.08.011.115.011.216 0 .384-.066.503-.199.118-.133.206-.31.262-.534a4.14 4.14 0 00.125-.765c.028-.286.049-.573.063-.859l.094-2.158h4.526v5.594h-1.31v-4.84l.304.356h-2.661l.283-.366-.073 1.477a13.34 13.34 0 01-.126 1.383 4.6 4.6 0 01-.272 1.1 1.683 1.683 0 01-.503.733c-.21.174-.478.262-.807.262-.104 0-.22-.01-.345-.032a4.623 4.623 0 01-.377-.083zm10.458-3.74c.719 0 1.267.16 1.645.482.377.32.565.775.565 1.361 0 .608-.209 1.083-.628 1.425-.419.335-1.009.5-1.771.492l-2.619-.01v-5.594h1.31v1.833l1.498.01zm-.304 2.797c.384.007.677-.074.88-.241.203-.168.304-.412.304-.734 0-.32-.101-.551-.304-.69-.196-.147-.489-.224-.88-.231l-1.194-.01v1.895l1.194.01zm7.366.345v-3.876h-2.147l-.032.901c-.014.322-.035.632-.063.933a5.398 5.398 0 01-.136.817 1.74 1.74 0 01-.272.607.816.816 0 01-.471.315l-1.299-.2a.658.658 0 00.502-.198 1.37 1.37 0 00.304-.566 4.43 4.43 0 00.168-.828c.035-.314.059-.639.073-.974l.073-1.917h4.61v4.986h-1.31zm-4.62 1.855v-2.357h6.757v2.357h-1.225v-1.247h-4.316v1.247h-1.216zm7.927-1.247v-5.594h1.309v3.688l3.091-3.688h1.194v5.594h-1.31v-3.687l-3.079 3.687h-1.205zm10.907 0v-1.907l.188.22h-1.676c-.768 0-1.372-.16-1.812-.481-.433-.329-.65-.8-.65-1.415 0-.656.231-1.155.692-1.498.468-.342 1.089-.513 1.864-.513h2.567v5.594h-1.173zm-4.023 0l1.508-2.137h1.341l-1.445 2.137h-1.404zm4.023-2.326v-2.514l.188.346h-1.54c-.405 0-.719.077-.943.23-.216.147-.324.388-.324.723 0 .629.408.943 1.225.943h1.582l-.188.272zm-40.481 15.4a2.52 2.52 0 01-1.247-.315 2.289 2.289 0 01-.891-.943c-.216-.426-.324-.964-.324-1.613 0-.656.104-1.194.314-1.613.216-.42.51-.73.88-.933a2.53 2.53 0 011.268-.314c.551 0 1.037.119 1.456.356.426.238.761.57 1.005.995.252.427.377.93.377 1.509 0 .58-.125 1.086-.377 1.519a2.594 2.594 0 01-1.005.995c-.419.238-.905.356-1.456.356zm-3.101 1.958v-7.626h1.246v1.32l-.042 1.487.105 1.488v3.331h-1.309zm2.954-3.08c.314 0 .593-.07.838-.209.251-.14.45-.342.597-.608.147-.265.22-.576.22-.932 0-.363-.073-.674-.22-.932a1.52 1.52 0 00-.597-.608 1.66 1.66 0 00-.838-.21c-.314 0-.597.07-.849.21a1.52 1.52 0 00-.597.608c-.146.258-.22.569-.22.932 0 .356.074.667.22.932.147.266.346.468.597.608.252.14.535.21.849.21zm4.289 1.048v-5.594h1.309v3.688l3.09-3.688h1.195v5.594h-1.31v-3.687l-3.08 3.687h-1.204zm8.258-2.357v-.943h3.038v.943h-3.038zm.764-3.32c.601 0 1.132.125 1.593.376a2.78 2.78 0 011.089 1.017c.266.426.398.921.398 1.487 0 .559-.132 1.058-.398 1.498a2.851 2.851 0 01-1.089 1.027c-.461.244-.992.366-1.593.366a3.69 3.69 0 01-1.382-.251 2.736 2.736 0 01-1.048-.723l.754-.733c.224.216.468.38.734.492.272.112.569.168.89.168.377 0 .709-.077.995-.23a1.807 1.807 0 00.933-1.614 1.779 1.779 0 00-.933-1.603 1.999 1.999 0 00-.995-.24c-.321 0-.618.055-.89.167a2.31 2.31 0 00-.734.503l-.754-.734a2.735 2.735 0 011.048-.722 3.69 3.69 0 011.382-.252zm3.47 5.667l.063-1.1.136.02a.61.61 0 00.115.011c.217 0 .384-.066.503-.199s.206-.31.262-.534c.063-.23.105-.486.126-.765.028-.286.049-.573.063-.859l.094-2.158h4.525v5.594h-1.309v-4.84l.304.356h-2.661l.283-.366-.074 1.477c-.021.496-.063.957-.125 1.383a4.598 4.598 0 01-.273 1.1 1.667 1.667 0 01-.503.733c-.209.175-.478.262-.806.262-.105 0-.22-.01-.346-.032a4.718 4.718 0 01-.377-.083zm8.814.01v-4.798l.303.314h-2.273v-1.11h5.238v1.11h-2.263l.304-.314v4.798h-1.309zm6.466.073c-.573 0-1.083-.122-1.53-.366a2.815 2.815 0 01-1.058-1.027 2.83 2.83 0 01-.388-1.477c0-.559.13-1.051.388-1.477a2.737 2.737 0 011.058-1.016c.447-.245.957-.367 1.53-.367.579 0 1.093.122 1.539.367.454.244.807.58 1.059 1.005.258.427.387.922.387 1.488a2.83 2.83 0 01-.387 1.477 2.726 2.726 0 01-1.059 1.027c-.446.244-.96.366-1.539.366zm0-1.12c.321 0 .607-.07.859-.21.251-.14.447-.342.586-.608.147-.265.22-.576.22-.932 0-.363-.073-.674-.22-.932a1.446 1.446 0 00-.586-.608 1.721 1.721 0 00-.849-.21c-.321 0-.608.07-.859.21-.244.14-.44.342-.587.608-.146.258-.22.569-.22.932 0 .356.074.667.22.932.147.266.343.468.587.608.251.14.534.21.849.21zm7.38 1.12a2.52 2.52 0 01-1.247-.314 2.289 2.289 0 01-.891-.943c-.216-.426-.324-.964-.324-1.613 0-.656.104-1.194.314-1.613.217-.42.51-.73.88-.933a2.53 2.53 0 011.268-.314c.551 0 1.037.119 1.456.356.426.238.761.57 1.005.995.252.427.377.93.377 1.509 0 .58-.125 1.086-.377 1.519a2.594 2.594 0 01-1.005.995c-.419.238-.905.356-1.456.356zm-3.101 1.96v-7.627h1.246v1.32l-.042 1.487.105 1.488v3.331h-1.309zm2.954-3.08c.314 0 .593-.07.838-.21.251-.14.45-.342.597-.608.147-.265.22-.576.22-.932 0-.363-.073-.674-.22-.932a1.52 1.52 0 00-.597-.608 1.66 1.66 0 00-.838-.21c-.314 0-.597.07-.849.21a1.52 1.52 0 00-.597.608c-.146.258-.22.569-.22.932 0 .356.074.667.22.932.147.266.346.468.597.608.252.14.535.21.849.21zm6.782 1.12c-.573 0-1.083-.122-1.53-.366a2.822 2.822 0 01-1.058-1.027 2.83 2.83 0 01-.387-1.477c0-.559.129-1.051.387-1.477a2.744 2.744 0 011.058-1.016c.447-.245.957-.367 1.53-.367.58 0 1.093.122 1.54.367.454.244.806.58 1.058 1.005.258.427.387.922.387 1.488a2.83 2.83 0 01-.387 1.477 2.724 2.724 0 01-1.058 1.027c-.447.244-.96.366-1.54.366zm0-1.12c.321 0 .607-.07.859-.21.251-.14.447-.342.587-.608.146-.265.22-.576.22-.932 0-.363-.074-.674-.22-.932a1.454 1.454 0 00-.587-.608 1.718 1.718 0 00-.849-.21c-.321 0-.607.07-.859.21-.244.14-.44.342-.586.608-.147.258-.22.569-.22.932 0 .356.073.667.22.932.146.266.342.468.586.608.252.14.535.21.849.21zm4.279 1.047v-5.594h2.734c.678 0 1.208.126 1.592.377.392.252.587.608.587 1.069 0 .454-.181.81-.545 1.068-.363.252-.845.377-1.445.377l.157-.324c.677 0 1.18.125 1.508.377.336.244.503.604.503 1.079 0 .495-.185.883-.555 1.162-.37.273-.932.409-1.687.409h-2.849zm1.247-.953h1.498c.356 0 .625-.056.806-.168.182-.119.273-.297.273-.534 0-.252-.084-.437-.252-.555-.167-.12-.429-.178-.785-.178h-1.54v1.435zm0-2.305h1.372c.335 0 .587-.06.754-.178a.608.608 0 00.262-.524c0-.23-.087-.401-.262-.513-.167-.112-.419-.168-.754-.168h-1.372v1.383zm-54.399 16.258v-7.333h1.11l3.216 5.353h-.597l3.164-5.353h1.11l.021 7.333h-1.299l-.01-5.311h.272l-2.682 4.473h-.607l-2.724-4.473h.314v5.311h-1.288zm12.423.073c-.573 0-1.083-.122-1.53-.366a2.822 2.822 0 01-1.058-1.027 2.83 2.83 0 01-.387-1.477c0-.559.129-1.051.387-1.477a2.744 2.744 0 011.058-1.016c.447-.245.957-.367 1.53-.367.58 0 1.093.122 1.54.367.454.244.806.58 1.058 1.005.258.427.387.922.387 1.488a2.83 2.83 0 01-.387 1.477 2.724 2.724 0 01-1.058 1.027c-.447.244-.96.366-1.54.366zm0-1.12c.321 0 .607-.07.859-.21.251-.14.447-.342.586-.608.147-.265.22-.576.22-.932 0-.363-.073-.674-.22-.932a1.446 1.446 0 00-.586-.608 1.718 1.718 0 00-.849-.21c-.321 0-.607.07-.859.21-.244.14-.44.342-.586.608-.147.258-.22.569-.22.932 0 .356.073.667.22.932.146.266.342.468.586.608.252.14.535.21.849.21zm6.825 1.12c-.587 0-1.111-.122-1.572-.366a2.792 2.792 0 01-1.068-1.027 2.821 2.821 0 01-.388-1.477c0-.559.129-1.051.388-1.477a2.717 2.717 0 011.068-1.016c.461-.245.985-.367 1.572-.367.544 0 1.023.112 1.435.335.419.217.737.538.953.964l-1.006.587a1.59 1.59 0 00-.618-.587 1.63 1.63 0 00-.775-.188c-.321 0-.611.07-.869.21a1.487 1.487 0 00-.608.607c-.147.258-.22.569-.22.932 0 .363.073.678.22.943.147.258.349.457.608.597.258.14.548.21.869.21.279 0 .538-.063.775-.19a1.59 1.59 0 00.618-.586l1.006.587a2.287 2.287 0 01-.953.974c-.412.224-.891.335-1.435.335zm7.553-.073l-2.022-2.682 1.069-.66 2.493 3.342h-1.54zm-4.012 0v-5.594h1.309v5.594h-1.309zm.922-2.242v-1.09h1.896v1.09h-1.896zm2.263-.398l-1.226-.147 2.053-2.807h1.404l-2.231 2.954zm3.291 2.64v-5.594h2.734c.677 0 1.208.126 1.592.377.391.252.587.608.587 1.069 0 .454-.182.81-.545 1.068-.363.252-.845.377-1.446.377l.157-.324c.678 0 1.181.125 1.509.377.335.244.503.604.503 1.079 0 .495-.185.883-.555 1.162-.371.273-.933.409-1.687.409h-2.849zm1.246-.953h1.498c.356 0 .625-.056.807-.168.181-.119.272-.297.272-.534 0-.252-.084-.437-.251-.555-.168-.12-.43-.178-.786-.178h-1.54v1.435zm0-2.305h1.373c.335 0 .586-.06.754-.178a.61.61 0 00.262-.524c0-.23-.088-.401-.262-.513-.168-.112-.419-.168-.754-.168h-1.373v1.383zm10.886 3.258v-5.594h1.309v5.594h-1.309zm-2.923-3.75c.72 0 1.264.16 1.634.482.378.32.566.775.566 1.361 0 .608-.209 1.083-.628 1.425-.412.335-.999.5-1.76.492l-2.535-.01v-5.594h1.309v1.833l1.414.01zm-.304 2.797c.385.007.678-.074.88-.241.203-.168.304-.412.304-.733 0-.322-.101-.552-.304-.692-.195-.147-.488-.223-.88-.23l-1.11-.01v1.895l1.11.01z"/></mask><path d="M206.006 23.082v-7.333h4.976l-.011 1.152h-3.949l.314-.324.011 6.505h-1.341zm5.152 0v-5.594h1.31v3.688l3.09-3.688h1.194v5.594h-1.309v-3.687l-3.08 3.687h-1.205zm6.539-.01l.062-1.1.137.02c.041.008.08.011.115.011.216 0 .384-.066.503-.199.118-.133.206-.31.262-.534a4.14 4.14 0 00.125-.765c.028-.286.049-.573.063-.859l.094-2.158h4.526v5.594h-1.31v-4.84l.304.356h-2.661l.283-.366-.073 1.477a13.34 13.34 0 01-.126 1.383 4.6 4.6 0 01-.272 1.1 1.683 1.683 0 01-.503.733c-.21.174-.478.262-.807.262-.104 0-.22-.01-.345-.032a4.623 4.623 0 01-.377-.083zm10.458-3.74c.719 0 1.267.16 1.645.482.377.32.565.775.565 1.361 0 .608-.209 1.083-.628 1.425-.419.335-1.009.5-1.771.492l-2.619-.01v-5.594h1.31v1.833l1.498.01zm-.304 2.797c.384.007.677-.074.88-.241.203-.168.304-.412.304-.734 0-.32-.101-.551-.304-.69-.196-.147-.489-.224-.88-.231l-1.194-.01v1.895l1.194.01zm7.366.345v-3.876h-2.147l-.032.901c-.014.322-.035.632-.063.933a5.398 5.398 0 01-.136.817 1.74 1.74 0 01-.272.607.816.816 0 01-.471.315l-1.299-.2a.658.658 0 00.502-.198 1.37 1.37 0 00.304-.566 4.43 4.43 0 00.168-.828c.035-.314.059-.639.073-.974l.073-1.917h4.61v4.986h-1.31zm-4.62 1.855v-2.357h6.757v2.357h-1.225v-1.247h-4.316v1.247h-1.216zm7.927-1.247v-5.594h1.309v3.688l3.091-3.688h1.194v5.594h-1.31v-3.687l-3.079 3.687h-1.205zm10.907 0v-1.907l.188.22h-1.676c-.768 0-1.372-.16-1.812-.481-.433-.329-.65-.8-.65-1.415 0-.656.231-1.155.692-1.498.468-.342 1.089-.513 1.864-.513h2.567v5.594h-1.173zm-4.023 0l1.508-2.137h1.341l-1.445 2.137h-1.404zm4.023-2.326v-2.514l.188.346h-1.54c-.405 0-.719.077-.943.23-.216.147-.324.388-.324.723 0 .629.408.943 1.225.943h1.582l-.188.272zm-40.481 15.4a2.52 2.52 0 01-1.247-.315 2.289 2.289 0 01-.891-.943c-.216-.426-.324-.964-.324-1.613 0-.656.104-1.194.314-1.613.216-.42.51-.73.88-.933a2.53 2.53 0 011.268-.314c.551 0 1.037.119 1.456.356.426.238.761.57 1.005.995.252.427.377.93.377 1.509 0 .58-.125 1.086-.377 1.519a2.594 2.594 0 01-1.005.995c-.419.238-.905.356-1.456.356zm-3.101 1.958v-7.626h1.246v1.32l-.042 1.487.105 1.488v3.331h-1.309zm2.954-3.08c.314 0 .593-.07.838-.209.251-.14.45-.342.597-.608.147-.265.22-.576.22-.932 0-.363-.073-.674-.22-.932a1.52 1.52 0 00-.597-.608 1.66 1.66 0 00-.838-.21c-.314 0-.597.07-.849.21a1.52 1.52 0 00-.597.608c-.146.258-.22.569-.22.932 0 .356.074.667.22.932.147.266.346.468.597.608.252.14.535.21.849.21zm4.289 1.048v-5.594h1.309v3.688l3.09-3.688h1.195v5.594h-1.31v-3.687l-3.08 3.687h-1.204zm8.258-2.357v-.943h3.038v.943h-3.038zm.764-3.32c.601 0 1.132.125 1.593.376a2.78 2.78 0 011.089 1.017c.266.426.398.921.398 1.487 0 .559-.132 1.058-.398 1.498a2.851 2.851 0 01-1.089 1.027c-.461.244-.992.366-1.593.366a3.69 3.69 0 01-1.382-.251 2.736 2.736 0 01-1.048-.723l.754-.733c.224.216.468.38.734.492.272.112.569.168.89.168.377 0 .709-.077.995-.23a1.807 1.807 0 00.933-1.614 1.779 1.779 0 00-.933-1.603 1.999 1.999 0 00-.995-.24c-.321 0-.618.055-.89.167a2.31 2.31 0 00-.734.503l-.754-.734a2.735 2.735 0 011.048-.722 3.69 3.69 0 011.382-.252zm3.47 5.667l.063-1.1.136.02a.61.61 0 00.115.011c.217 0 .384-.066.503-.199s.206-.31.262-.534c.063-.23.105-.486.126-.765.028-.286.049-.573.063-.859l.094-2.158h4.525v5.594h-1.309v-4.84l.304.356h-2.661l.283-.366-.074 1.477c-.021.496-.063.957-.125 1.383a4.598 4.598 0 01-.273 1.1 1.667 1.667 0 01-.503.733c-.209.175-.478.262-.806.262-.105 0-.22-.01-.346-.032a4.718 4.718 0 01-.377-.083zm8.814.01v-4.798l.303.314h-2.273v-1.11h5.238v1.11h-2.263l.304-.314v4.798h-1.309zm6.466.073c-.573 0-1.083-.122-1.53-.366a2.815 2.815 0 01-1.058-1.027 2.83 2.83 0 01-.388-1.477c0-.559.13-1.051.388-1.477a2.737 2.737 0 011.058-1.016c.447-.245.957-.367 1.53-.367.579 0 1.093.122 1.539.367.454.244.807.58 1.059 1.005.258.427.387.922.387 1.488a2.83 2.83 0 01-.387 1.477 2.726 2.726 0 01-1.059 1.027c-.446.244-.96.366-1.539.366zm0-1.12c.321 0 .607-.07.859-.21.251-.14.447-.342.586-.608.147-.265.22-.576.22-.932 0-.363-.073-.674-.22-.932a1.446 1.446 0 00-.586-.608 1.721 1.721 0 00-.849-.21c-.321 0-.608.07-.859.21-.244.14-.44.342-.587.608-.146.258-.22.569-.22.932 0 .356.074.667.22.932.147.266.343.468.587.608.251.14.534.21.849.21zm7.38 1.12a2.52 2.52 0 01-1.247-.314 2.289 2.289 0 01-.891-.943c-.216-.426-.324-.964-.324-1.613 0-.656.104-1.194.314-1.613.217-.42.51-.73.88-.933a2.53 2.53 0 011.268-.314c.551 0 1.037.119 1.456.356.426.238.761.57 1.005.995.252.427.377.93.377 1.509 0 .58-.125 1.086-.377 1.519a2.594 2.594 0 01-1.005.995c-.419.238-.905.356-1.456.356zm-3.101 1.96v-7.627h1.246v1.32l-.042 1.487.105 1.488v3.331h-1.309zm2.954-3.08c.314 0 .593-.07.838-.21.251-.14.45-.342.597-.608.147-.265.22-.576.22-.932 0-.363-.073-.674-.22-.932a1.52 1.52 0 00-.597-.608 1.66 1.66 0 00-.838-.21c-.314 0-.597.07-.849.21a1.52 1.52 0 00-.597.608c-.146.258-.22.569-.22.932 0 .356.074.667.22.932.147.266.346.468.597.608.252.14.535.21.849.21zm6.782 1.12c-.573 0-1.083-.122-1.53-.366a2.822 2.822 0 01-1.058-1.027 2.83 2.83 0 01-.387-1.477c0-.559.129-1.051.387-1.477a2.744 2.744 0 011.058-1.016c.447-.245.957-.367 1.53-.367.58 0 1.093.122 1.54.367.454.244.806.58 1.058 1.005.258.427.387.922.387 1.488a2.83 2.83 0 01-.387 1.477 2.724 2.724 0 01-1.058 1.027c-.447.244-.96.366-1.54.366zm0-1.12c.321 0 .607-.07.859-.21.251-.14.447-.342.587-.608.146-.265.22-.576.22-.932 0-.363-.074-.674-.22-.932a1.454 1.454 0 00-.587-.608 1.718 1.718 0 00-.849-.21c-.321 0-.607.07-.859.21-.244.14-.44.342-.586.608-.147.258-.22.569-.22.932 0 .356.073.667.22.932.146.266.342.468.586.608.252.14.535.21.849.21zm4.279 1.047v-5.594h2.734c.678 0 1.208.126 1.592.377.392.252.587.608.587 1.069 0 .454-.181.81-.545 1.068-.363.252-.845.377-1.445.377l.157-.324c.677 0 1.18.125 1.508.377.336.244.503.604.503 1.079 0 .495-.185.883-.555 1.162-.37.273-.932.409-1.687.409h-2.849zm1.247-.953h1.498c.356 0 .625-.056.806-.168.182-.119.273-.297.273-.534 0-.252-.084-.437-.252-.555-.167-.12-.429-.178-.785-.178h-1.54v1.435zm0-2.305h1.372c.335 0 .587-.06.754-.178a.608.608 0 00.262-.524c0-.23-.087-.401-.262-.513-.167-.112-.419-.168-.754-.168h-1.372v1.383zm-54.399 16.258v-7.333h1.11l3.216 5.353h-.597l3.164-5.353h1.11l.021 7.333h-1.299l-.01-5.311h.272l-2.682 4.473h-.607l-2.724-4.473h.314v5.311h-1.288zm12.423.073c-.573 0-1.083-.122-1.53-.366a2.822 2.822 0 01-1.058-1.027 2.83 2.83 0 01-.387-1.477c0-.559.129-1.051.387-1.477a2.744 2.744 0 011.058-1.016c.447-.245.957-.367 1.53-.367.58 0 1.093.122 1.54.367.454.244.806.58 1.058 1.005.258.427.387.922.387 1.488a2.83 2.83 0 01-.387 1.477 2.724 2.724 0 01-1.058 1.027c-.447.244-.96.366-1.54.366zm0-1.12c.321 0 .607-.07.859-.21.251-.14.447-.342.586-.608.147-.265.22-.576.22-.932 0-.363-.073-.674-.22-.932a1.446 1.446 0 00-.586-.608 1.718 1.718 0 00-.849-.21c-.321 0-.607.07-.859.21-.244.14-.44.342-.586.608-.147.258-.22.569-.22.932 0 .356.073.667.22.932.146.266.342.468.586.608.252.14.535.21.849.21zm6.825 1.12c-.587 0-1.111-.122-1.572-.366a2.792 2.792 0 01-1.068-1.027 2.821 2.821 0 01-.388-1.477c0-.559.129-1.051.388-1.477a2.717 2.717 0 011.068-1.016c.461-.245.985-.367 1.572-.367.544 0 1.023.112 1.435.335.419.217.737.538.953.964l-1.006.587a1.59 1.59 0 00-.618-.587 1.63 1.63 0 00-.775-.188c-.321 0-.611.07-.869.21a1.487 1.487 0 00-.608.607c-.147.258-.22.569-.22.932 0 .363.073.678.22.943.147.258.349.457.608.597.258.14.548.21.869.21.279 0 .538-.063.775-.19a1.59 1.59 0 00.618-.586l1.006.587a2.287 2.287 0 01-.953.974c-.412.224-.891.335-1.435.335zm7.553-.073l-2.022-2.682 1.069-.66 2.493 3.342h-1.54zm-4.012 0v-5.594h1.309v5.594h-1.309zm.922-2.242v-1.09h1.896v1.09h-1.896zm2.263-.398l-1.226-.147 2.053-2.807h1.404l-2.231 2.954zm3.291 2.64v-5.594h2.734c.677 0 1.208.126 1.592.377.391.252.587.608.587 1.069 0 .454-.182.81-.545 1.068-.363.252-.845.377-1.446.377l.157-.324c.678 0 1.181.125 1.509.377.335.244.503.604.503 1.079 0 .495-.185.883-.555 1.162-.371.273-.933.409-1.687.409h-2.849zm1.246-.953h1.498c.356 0 .625-.056.807-.168.181-.119.272-.297.272-.534 0-.252-.084-.437-.251-.555-.168-.12-.43-.178-.786-.178h-1.54v1.435zm0-2.305h1.373c.335 0 .586-.06.754-.178a.61.61 0 00.262-.524c0-.23-.088-.401-.262-.513-.168-.112-.419-.168-.754-.168h-1.373v1.383zm10.886 3.258v-5.594h1.309v5.594h-1.309zm-2.923-3.75c.72 0 1.264.16 1.634.482.378.32.566.775.566 1.361 0 .608-.209 1.083-.628 1.425-.412.335-.999.5-1.76.492l-2.535-.01v-5.594h1.309v1.833l1.414.01zm-.304 2.797c.385.007.678-.074.88-.241.203-.168.304-.412.304-.733 0-.322-.101-.552-.304-.692-.195-.147-.488-.223-.88-.23l-1.11-.01v1.895l1.11.01z" fill="#005D62"/><path d="M206.006 23.082h-.177v.177h.177v-.177zm0-7.333v-.177h-.177v.177h.177zm4.976 0l.177.002.002-.18h-.179v.178zm-.011 1.152v.178h.176l.002-.176-.178-.002zm-3.949 0l-.127-.123-.291.3h.418v-.177zm.314-.324h.178l-.001-.438-.304.314.127.124zm.011 6.505v.177h.177v-.177h-.177zm-1.164 0v-7.333h-.354v7.333h.354zm-.177-7.156h4.976v-.354h-4.976v.354zm4.798-.179l-.01 1.153.355.003.01-1.152-.355-.004zm.167.977h-3.949v.355h3.949v-.355zm-3.822.3l.315-.324-.255-.247-.314.325.254.247zm.01-.447l.01 6.505h.355l-.01-6.506h-.355zm.188 6.328h-1.341v.354h1.341v-.354zm3.811.177h-.177v.177h.177v-.177zm0-5.594v-.177h-.177v.177h.177zm1.31 0h.177v-.177h-.177v.177zm0 3.688h-.178v.487l.314-.374-.136-.114zm3.09-3.688v-.177h-.083l-.053.063.136.114zm1.194 0h.178v-.177h-.178v.177zm0 5.594v.177h.178v-.177h-.178zm-1.309 0h-.178v.177h.178v-.177zm0-3.687h.177v-.49l-.313.376.136.114zm-3.08 3.687v.177h.083l.053-.063-.136-.114zm-1.028 0v-5.594h-.354v5.594h.354zm-.177-5.417h1.31v-.354h-1.31v.354zm1.132-.177v3.688h.355v-3.688h-.355zm.314 3.801l3.09-3.687-.272-.228-3.09 3.688.272.227zm2.954-3.624h1.194v-.354h-1.194v.354zm1.017-.177v5.594h.355v-5.594h-.355zm.177 5.417h-1.309v.354h1.309v-.354zm-1.132.177v-3.687h-.355v3.687h.355zm-.313-3.801l-3.08 3.687.272.228 3.08-3.688-.272-.227zm-2.944 3.624h-1.205v.354h1.205v-.354zm5.334.167l-.178-.01-.008.144.14.037.046-.171zm.062-1.1l.025-.176-.191-.027-.011.193.177.01zm.137.02l-.03.175.03-.174zm.618-.188l.132.118-.132-.118zm.262-.534l-.172-.047-.001.004.173.043zm.125-.765l-.176-.017-.001.004.177.013zm.063-.859l.177.009v-.001l-.177-.008zm.094-2.158v-.177h-.169l-.008.17.177.007zm4.526 0h.177v-.177h-.177v.177zm0 5.594v.177h.177v-.177h-.177zm-1.31 0h-.177v.177h.177v-.177zm0-4.84l.135-.115-.312-.366v.481h.177zm.304.356v.178h.385l-.25-.293-.135.115zm-2.661 0l-.14-.108-.22.286h.36v-.178zm.283-.366l.177.009.028-.566-.345.448.14.109zm-.073 1.477l-.177-.009v.001l.177.008zm-.126 1.383l-.175-.026-.001.002.176.024zm-.272 1.1l-.165-.066-.001.003.166.063zm-.503.733l-.111-.138-.003.002.114.136zm-1.152.23l-.031.175h.002l.029-.175zm-.2-.073l.062-1.1-.354-.02-.063 1.1.355.02zm-.14-.935l.132.02.059-.35a5.868 5.868 0 00-.141-.02l-.05.35zm.132.02c.05.009.098.013.145.013v-.354a.522.522 0 01-.086-.008l-.059.35zm.145.013c.255 0 .475-.08.635-.258l-.265-.236c-.077.087-.192.14-.37.14v.354zm.635-.258a1.41 1.41 0 00.302-.61l-.345-.085a1.05 1.05 0 01-.222.459l.265.236zm.301-.606a4.29 4.29 0 00.131-.798l-.354-.026c-.02.27-.06.513-.12.731l.343.093zm.131-.794c.028-.289.049-.578.063-.867l-.354-.018c-.014.284-.035.567-.062.85l.353.035zm.063-.868l.095-2.158-.355-.016-.094 2.158.354.016zm-.083-1.989h4.526v-.354h-4.526v.354zm4.349-.177v5.594h.354v-5.594h-.354zm.177 5.417h-1.31v.354h1.31v-.354zm-1.132.177v-4.84h-.355v4.84h.355zm-.313-4.725l.304.357.27-.23-.304-.357-.27.23zm.439.064h-2.661v.355h2.661v-.355zm-2.52.286l.283-.367-.281-.216-.283.366.281.217zm-.035-.484l-.073 1.477.354.018.073-1.477-.354-.018zm-.073 1.478c-.021.491-.062.946-.124 1.365l.351.052c.063-.433.106-.9.127-1.402l-.354-.015zm-.125 1.367c-.054.408-.142.76-.261 1.058l.329.131c.133-.33.227-.712.284-1.142l-.352-.047zm-.262 1.06c-.11.292-.261.508-.448.659l.222.276c.246-.198.43-.471.558-.809l-.332-.125zm-.451.66c-.171.144-.397.221-.693.221v.355c.361 0 .673-.097.921-.303l-.228-.272zm-.693.221a1.9 1.9 0 01-.316-.029l-.058.35c.133.023.258.034.374.034v-.355zm-.315-.028a4.486 4.486 0 01-.362-.08l-.091.342c.137.036.268.065.392.087l.061-.35zm10.051-3.65l-.001.178h.001v-.177zm1.645.483l-.115.135.115-.135zm-.063 2.786l.11.139.002-.002-.112-.137zm-1.771.492l.002-.177h-.001l-.001.178zm-2.619-.01h-.177v.177h.177v-.177zm0-5.594v-.177h-.177v.177h.177zm1.31 0h.177v-.177h-.177v.177zm0 1.833h-.177v.176l.176.002.001-.178zm1.194 2.808l.003-.178h-.001l-.002.178zm.88-.241l-.113-.137.113.137zm0-1.425l-.106.142.005.004.101-.146zm-.88-.23l.003-.178h-.001l-.002.178zm-1.194-.01l.001-.178-.178-.002v.18h.177zm0 1.895h-.177v.176l.175.002.002-.178zm1.498-2.609c.696 0 1.196.156 1.53.44l.23-.27c-.421-.359-1.017-.525-1.76-.525v.355zm1.53.44c.33.28.503.681.503 1.226h.355c0-.628-.204-1.135-.628-1.496l-.23.27zm.503 1.226c0 .562-.191.984-.563 1.288l.224.274c.466-.38.694-.908.694-1.561h-.355zm-.562 1.287c-.376.3-.921.46-1.658.453l-.003.355c.785.007 1.421-.162 1.882-.531l-.221-.277zm-1.659.453l-2.619-.01-.001.354 2.619.01.001-.354zm-2.442.167v-5.594h-.355v5.594h.355zm-.178-5.417h1.31v-.354h-1.31v.354zm1.133-.177v1.833h.354v-1.833h-.354zm.176 2.01l1.498.011.002-.355-1.498-.01-.002.355zm1.192 2.808c.407.008.749-.077.996-.282l-.226-.273c-.158.13-.403.207-.764.2l-.006.355zm.996-.282c.252-.208.368-.508.368-.87h-.355c0 .282-.086.47-.239.597l.226.273zm.368-.87c0-.36-.116-.654-.38-.837l-.202.292c.141.097.227.263.227.545h.355zm-.375-.833c-.238-.179-.575-.258-.983-.266l-.006.355c.374.007.624.08.777.195l.212-.284zm-.984-.266l-1.195-.01-.003.354 1.195.011.003-.355zm-1.373.167v1.896h.354v-1.896h-.354zm.175 2.074l1.195.01.003-.355-1.195-.01-.003.355zm8.562.178h-.177v.178h.177v-.178zm0-3.876h.178v-.177h-.178v.177zm-2.147 0v-.177h-.172l-.005.171.177.006zm-.032.901l.177.008.001-.002-.178-.006zm-.063.933l.177.017-.177-.017zm-.136.817l.172.044v-.001l-.172-.043zm-.272.607l-.143-.105.143.105zm-.471.315l-.027.175.035.005.035-.008-.043-.172zm-1.299-.2v-.177l-.027.353.027-.175zm.502-.198l-.128-.123.128.123zm.304-.566l-.169-.053-.001.003.17.05zm.168-.828l.176.02-.176-.02zm.073-.974l.177.008v-.001l-.177-.007zm.073-1.917v-.177h-.17l-.007.17.177.007zm4.61 0h.177v-.177h-.177v.177zm0 4.986v.178h.177v-.178h-.177zm-5.93 1.855h-.177v.177h.177v-.177zm0-2.357v-.178h-.177v.178h.177zm6.757 0h.178v-.178h-.178v.178zm0 2.357v.177h.178v-.177h-.178zm-1.225 0h-.178v.177h.178v-.177zm0-1.247h.177v-.177h-.177v.177zm-4.316 0v-.177h-.178v.177h.178zm0 1.247v.177h.177v-.177h-.177zm3.582-1.855v-3.876h-.355v3.876h.355zm-.178-4.053h-2.147v.355h2.147v-.355zm-2.324.171l-.032.901.355.013.031-.901-.354-.013zm-.032.9a18.55 18.55 0 01-.062.923l.353.033c.028-.303.049-.617.063-.94l-.354-.016zm-.062.923a5.26 5.26 0 01-.132.79l.344.087a5.66 5.66 0 00.141-.844l-.353-.033zm-.131.79a1.577 1.577 0 01-.244.546l.286.21c.135-.182.234-.407.301-.668l-.343-.088zm-.244.546a.635.635 0 01-.371.248l.086.344a.994.994 0 00.571-.381l-.286-.211zm-.302.244l-1.299-.199-.053.35 1.299.2.053-.35zm-1.325.154c.25 0 .467-.081.631-.255l-.257-.243a.486.486 0 01-.374.143v.355zm.631-.254c.157-.165.27-.381.345-.638l-.34-.1c-.064.218-.154.38-.262.493l.257.245zm.344-.635c.081-.257.139-.544.175-.86l-.352-.04a4.256 4.256 0 01-.161.794l.338.106zm.175-.861c.035-.319.06-.648.074-.986l-.354-.015c-.014.331-.038.652-.072.962l.352.039zm.074-.987l.074-1.917-.355-.014-.073 1.917.354.014zm-.104-1.747h4.61v-.354h-4.61v.354zm4.432-.177v4.986h.355v-4.986h-.355zm.178 4.81h-1.31v.354h1.31v-.355zm-5.752 2.03v-2.356h-.355v2.357h.355zm-.178-2.18h6.757v-.354h-6.757v.355zm6.58-.176v2.357h.355v-2.357h-.355zm.177 2.18h-1.225v.354h1.225v-.355zm-1.048.177v-1.247h-.355v1.247h.355zm-.177-1.424h-4.316v.354h4.316v-.354zm-4.494.177v1.247h.355v-1.247h-.355zm.178 1.07h-1.216v.354h1.216v-.355zm6.711-1.07h-.178v.177h.178v-.177zm0-5.594v-.177h-.178v.177h.178zm1.309 0h.178v-.177h-.178v.177zm0 3.688h-.177v.487l.313-.374-.136-.114zm3.091-3.688v-.177h-.083l-.053.063.136.114zm1.194 0h.177v-.177h-.177v.177zm0 5.594v.177h.177v-.177h-.177zm-1.31 0h-.177v.177h.177v-.177zm0-3.687h.178v-.49l-.314.376.136.114zm-3.079 3.687v.177h.082l.054-.063-.136-.114zm-1.028 0v-5.594h-.355v5.594h.355zm-.177-5.417h1.309v-.354h-1.309v.354zm1.132-.177v3.688h.355v-3.688h-.355zm.313 3.801l3.091-3.687-.272-.228-3.091 3.688.272.227zm2.955-3.624h1.194v-.354h-1.194v.354zm1.016-.177v5.594h.355v-5.594h-.355zm.178 5.417h-1.31v.354h1.31v-.354zm-1.132.177v-3.687h-.355v3.687h.355zm-.314-3.801l-3.08 3.687.273.228 3.079-3.688-.272-.227zm-2.943 3.624h-1.205v.354h1.205v-.354zm9.702.177h-.178v.177h.178v-.177zm0-1.907l.134-.115-.312-.364v.48h.178zm.188.22v.178h.386l-.251-.293-.135.115zm-3.488-.481l-.107.14.002.003.105-.143zm.042-2.913l-.105-.143h-.001l.106.143zm4.431-.513h.177v-.177h-.177v.177zm0 5.594v.177h.177v-.177h-.177zm-5.196 0l-.145-.102-.197.28h.342v-.178zm1.508-2.137v-.177h-.092l-.052.075.144.102zm1.341 0l.147.1.187-.277h-.334v.177zm-1.445 2.137v.177h.094l.053-.078-.147-.099zm2.619-2.326h-.178v.568l.323-.467-.145-.1zm0-2.514l.155-.085-.333.085h.178zm.188.346v.177h.299l-.143-.262-.156.085zm-2.483.23l.1.147h.001l-.101-.147zm2.483 1.666l.146.101.193-.278h-.339v.177zm-.011 2.598v-1.907h-.355v1.907h.355zm-.312-1.791l.188.22.27-.231-.189-.22-.269.23zm.323-.073h-1.676v.355h1.676v-.355zm-1.676 0c-.746 0-1.308-.156-1.708-.448l-.209.287c.481.35 1.126.516 1.917.516v-.355zm-1.705-.446c-.383-.29-.579-.705-.579-1.273h-.355c0 .662.236 1.19.72 1.556l.214-.283zm-.579-1.273c0-.61.21-1.052.619-1.355l-.211-.285c-.513.38-.763.937-.763 1.64h.355zm.618-1.354c.429-.314 1.01-.48 1.76-.48v-.354c-.8 0-1.462.176-1.969.547l.209.287zm1.76-.48h2.567v-.354h-2.567v.354zm2.389-.177v5.594h.355v-5.594h-.355zm.178 5.417h-1.173v.354h1.173v-.354zm-5.051.28l1.508-2.138-.289-.204-1.509 2.137.29.204zm1.363-2.063h1.341v-.354h-1.341v.354zm1.194-.276l-1.445 2.137.294.198 1.445-2.137-.294-.198zm-1.298 2.059h-1.404v.354h1.404v-.354zm2.796-2.149v-2.514h-.355v2.514h.355zm-.333-2.429l.188.346.312-.17-.189-.346-.311.17zm.344.084h-1.54v.354h1.54v-.354zm-1.54 0c-.424 0-.779.08-1.043.261l.201.293c.182-.126.456-.2.842-.2v-.354zm-1.042.26c-.279.19-.403.495-.403.87h.355c0-.295.093-.471.247-.576l-.199-.293zm-.403.87c0 .356.118.65.376.848.249.191.601.272 1.027.272v-.354c-.391 0-.651-.076-.811-.2-.151-.115-.237-.293-.237-.566h-.355zm1.403 1.12h1.582v-.354h-1.582v.354zm1.436-.278l-.188.273.291.201.189-.272-.292-.202zm-41.77 15.458l-.087.154.001.001.086-.155zm-.891-.943l-.158.08.002.004.156-.084zm-.01-3.226l-.158-.082-.001.003.159.079zm.88-.933l.085.156.002-.001-.087-.155zm2.724.042l-.088.155h.001l.087-.155zm1.005.995l-.154.089.002.002.152-.09zm0 3.028l-.153-.089h-.001l.154.089zm-1.005.995l-.087-.155h-.001l.088.155zm-4.557 2.315h-.178v.178h.178v-.178zm0-7.626v-.177h-.178v.177h.178zm1.246 0h.178v-.177h-.178v.177zm0 1.32l.178.005v-.005h-.178zm-.042 1.487l-.177-.005v.01l.001.008.176-.013zm.105 1.488h.178l-.001-.012-.177.012zm0 3.331v.178h.178v-.178h-.178zm2.483-3.29l-.086-.154-.002.001.088.154zm.597-.607l-.155-.085.155.085zm0-1.864l-.155.085.001.002.154-.087zm-.597-.608l-.088.154.002.001.086-.155zm-1.687 0l-.086-.155.086.155zm-.597.608l.154.087.001-.002-.155-.085zm.597 2.472l.086-.155-.086.155zm.996 1.153c-.426 0-.812-.098-1.161-.292l-.172.31a2.7 2.7 0 001.333.337v-.355zm-1.16-.291a2.106 2.106 0 01-.821-.872l-.313.167c.237.445.557.785.96 1.013l.174-.308zm-.819-.87c-.201-.393-.306-.9-.306-1.532h-.355c0 .668.112 1.235.344 1.694l.317-.161zm-.306-1.532c0-.64.102-1.147.296-1.534l-.318-.159c-.225.452-.333 1.02-.333 1.693h.355zm.295-1.532c.202-.391.472-.674.807-.858l-.17-.311c-.405.221-.722.56-.953 1.006l.316.163zm.809-.86a2.355 2.355 0 011.181-.29v-.355c-.502 0-.956.11-1.355.337l.174.309zm1.181-.29c.525 0 .98.112 1.368.333l.175-.309c-.449-.255-.966-.38-1.543-.38v.355zm1.369.333c.398.222.71.53.938.929l.308-.177a2.775 2.775 0 00-1.073-1.062l-.173.31zm.94.93c.232.395.352.866.352 1.419h.355c0-.606-.132-1.14-.402-1.599l-.305.18zm.352 1.419c0 .553-.12 1.028-.353 1.43l.307.178c.269-.464.401-1.002.401-1.608h-.355zm-.354 1.43c-.228.399-.54.708-.938.93l.173.31a2.776 2.776 0 001.073-1.063l-.308-.176zm-.939.93c-.388.22-.843.333-1.368.333v.355c.577 0 1.094-.125 1.543-.38l-.175-.308zm-4.292 2.47v-7.627h-.355v7.626h.355zm-.177-7.45h1.246v-.354h-1.246v.354zm1.069-.177v1.32h.355v-1.32h-.355zm0 1.315l-.042 1.488.355.01.042-1.488-.355-.01zm-.041 1.505l.104 1.487.354-.024-.105-1.488-.353.025zm.104 1.475v3.331h.355v-3.331h-.355zm.177 3.154h-1.309v.355h1.309v-.355zm1.645-2.725c.341 0 .652-.076.926-.233l-.176-.308a1.483 1.483 0 01-.75.186v.355zm.924-.232c.282-.157.504-.384.666-.677l-.31-.171a1.34 1.34 0 01-.528.538l.172.31zm.666-.677c.164-.296.242-.637.242-1.018h-.354c0 .332-.068.612-.198.847l.31.171zm.242-1.018c0-.387-.078-.73-.243-1.02l-.308.175c.128.227.197.506.197.845h.354zm-.242-1.018a1.694 1.694 0 00-.666-.677l-.172.31c.221.123.396.3.528.538l.31-.171zm-.664-.676a1.836 1.836 0 00-.926-.233v.355c.287 0 .535.063.75.186l.176-.308zm-.926-.233a1.89 1.89 0 00-.935.232l.172.31a1.54 1.54 0 01.763-.187v-.355zm-.935.232a1.694 1.694 0 00-.666.677l.31.171c.132-.238.308-.415.528-.538l-.172-.31zm-.665.675c-.165.29-.243.633-.243 1.02h.355c0-.34.068-.618.196-.845l-.308-.175zm-.243 1.02c0 .38.078.722.242 1.018l.31-.171a1.73 1.73 0 01-.197-.847h-.355zm.242 1.018c.162.293.384.52.666.677l.172-.31c-.22-.123-.396-.3-.528-.538l-.31.171zm.666.677c.28.156.593.232.935.232v-.355a1.54 1.54 0 01-.763-.187l-.172.31zm5.224 1.102h-.178v.177h.178v-.177zm0-5.594v-.177h-.178v.177h.178zm1.309 0h.177v-.177h-.177v.177zm0 3.688h-.177v.487l.313-.374-.136-.114zm3.09-3.688v-.177h-.082l-.053.063.135.114zm1.195 0h.177v-.177h-.177v.177zm0 5.594v.177h.177v-.177h-.177zm-1.31 0h-.177v.177h.177v-.177zm0-3.687h.178v-.49l-.314.376.136.114zm-3.08 3.687v.177h.083l.053-.063-.136-.114zm-1.027 0v-5.594h-.355v5.594h.355zm-.177-5.417h1.309v-.354h-1.309v.354zm1.132-.177v3.688h.354v-3.688h-.354zm.313 3.801l3.09-3.687-.271-.228-3.091 3.688.272.227zm2.954-3.624h1.195v-.354h-1.195v.354zm1.017-.177v5.594h.355v-5.594h-.355zm.178 5.417h-1.31v.354h1.31v-.354zm-1.132.177v-3.687h-.355v3.687h.355zm-.314-3.801l-3.08 3.687.272.228 3.08-3.688-.272-.227zm-2.944 3.624h-1.204v.354h1.204v-.354zm7.054-2.18h-.178v.177h.178v-.177zm0-.943v-.177h-.178v.177h.178zm3.038 0h.177v-.177h-.177v.177zm0 .943v.177h.177v-.177h-.177zm-.681-2.944l-.085.156.002.001.083-.157zm1.089 1.017l-.151.092.001.001.15-.093zm0 2.985l.151.093.001-.001-.152-.092zm-1.089 1.027l.083.156h.002l-.085-.156zm-2.975.115l.066-.165-.066.165zm-1.048-.723l-.123-.127-.122.118.113.127.132-.118zm.754-.733l.124-.128-.124-.12-.123.12.123.128zm.734.492l-.069.164h.001l.068-.164zm1.885-.063l.084.157.003-.002-.087-.155zm.681-.66l.152.092-.152-.092zm0-1.906l-.152.091.001.002.151-.093zm-.681-.65l-.086.155.002.002.084-.157zm-1.885-.073l-.068-.164h-.001l.069.164zm-.734.503l-.123.127.125.122.124-.124-.126-.125zm-.754-.734l-.132-.117-.113.126.122.119.123-.128zm1.048-.722l.066.164-.066-.164zm.795 3.069v-.943h-.355v.943h.355zm-.177-.766h3.038v-.354h-3.038v.355zm2.86-.177v.943h.355v-.943h-.355zm.178.766h-3.038v.354h3.038v-.354zm-2.274-2.967c.576 0 1.077.12 1.508.356l.17-.311c-.491-.268-1.052-.4-1.678-.4v.355zm1.51.357c.433.23.773.547 1.021.952l.302-.185a2.951 2.951 0 00-1.157-1.08l-.166.313zm1.022.953c.245.395.371.857.371 1.394h.355c0-.594-.14-1.124-.425-1.581l-.301.187zm.371 1.394c0 .53-.125.997-.373 1.407l.304.183c.284-.47.424-1.002.424-1.59h-.355zm-.372 1.405a2.678 2.678 0 01-1.023.964l.17.311a3.03 3.03 0 001.155-1.09l-.302-.185zm-1.021.963c-.432.229-.933.346-1.51.346v.355c.626 0 1.186-.128 1.676-.388l-.166-.313zm-1.51.346c-.482 0-.921-.08-1.316-.239l-.132.33c.442.176.926.264 1.448.264v-.355zm-1.316-.239a2.548 2.548 0 01-.981-.676l-.265.236a2.91 2.91 0 001.114.77l.132-.33zm-.99-.43l.754-.734-.247-.254-.754.733.247.254zm.507-.734c.238.23.501.408.788.529l.137-.327a2.203 2.203 0 01-.678-.457l-.247.255zm.789.53c.296.12.616.18.958.18v-.355c-.3 0-.574-.052-.823-.154l-.135.328zm.958.18c.402 0 .763-.082 1.079-.252l-.168-.312c-.256.138-.558.21-.911.21v.354zm1.082-.253c.313-.176.563-.417.746-.723l-.304-.183a1.64 1.64 0 01-.615.597l.173.309zm.746-.723c.186-.31.277-.66.277-1.045h-.355c0 .327-.076.613-.226.862l.304.183zm.277-1.045a1.96 1.96 0 00-.278-1.046l-.302.186c.148.24.225.525.225.86h.355zm-.277-1.044a1.913 1.913 0 00-.749-.715l-.168.313c.259.138.462.332.613.584l.304-.183zm-.746-.713a2.175 2.175 0 00-1.082-.264v.355c.351 0 .652.074.909.218l.173-.31zm-1.082-.264c-.342 0-.662.06-.958.18l.135.329a2.15 2.15 0 01.823-.154v-.355zm-.959.181a2.465 2.465 0 00-.79.541l.251.251a2.12 2.12 0 01.676-.465l-.137-.326zm-.541.54l-.754-.734-.247.255.754.733.247-.254zm-.745-.489a2.55 2.55 0 01.981-.676l-.132-.329a2.91 2.91 0 00-1.114.77l.265.235zm.981-.676a3.51 3.51 0 011.316-.239v-.354c-.522 0-1.006.087-1.448.264l.132.33zm4.786 5.252l-.177-.01-.008.144.14.037.045-.171zm.063-1.1l.025-.176-.191-.027-.011.193.177.01zm.136.02l-.029.175.029-.174zm.618-.188l.132.118-.132-.118zm.262-.534l-.171-.047-.001.004.172.043zm.126-.765l-.177-.017v.004l.177.013zm.063-.859l.177.009v-.001l-.177-.008zm.094-2.158v-.177h-.17l-.007.17.177.007zm4.525 0h.178v-.177h-.178v.177zm0 5.594v.177h.178v-.177h-.178zm-1.309 0h-.177v.177h.177v-.177zm0-4.84l.135-.115-.312-.366v.481h.177zm.304.356v.178h.384l-.249-.293-.135.115zm-2.661 0l-.141-.108-.22.286h.361v-.178zm.283-.366l.177.009.028-.566-.346.448.141.109zm-.074 1.477l-.177-.009v.001l.177.008zm-.125 1.383l-.176-.026v.002l.176.024zm-.273 1.1l-.164-.066-.002.003.166.063zm-.503.733l-.111-.138-.002.002.113.136zm-1.152.23l-.031.175h.002l.029-.175zm-.2-.073l.063-1.1-.354-.02-.063 1.1.354.02zm-.139-.935l.132.02.058-.35a5.75 5.75 0 00-.14-.02l-.05.35zm.132.02a.883.883 0 00.144.013v-.354a.531.531 0 01-.086-.008l-.058.35zm.144.013c.255 0 .476-.08.635-.258l-.264-.236c-.078.087-.193.14-.371.14v.354zm.635-.258a1.41 1.41 0 00.302-.61l-.344-.085a1.06 1.06 0 01-.222.459l.264.236zm.301-.606c.066-.243.11-.509.132-.798l-.354-.026a3.9 3.9 0 01-.12.731l.342.093zm.131-.794c.028-.289.05-.578.064-.867l-.355-.018a16.21 16.21 0 01-.062.85l.353.035zm.064-.868l.094-2.158-.354-.016-.095 2.158.355.016zm-.083-1.989h4.525v-.354h-4.525v.354zm4.348-.177v5.594h.355v-5.594h-.355zm.177 5.417h-1.309v.354h1.309v-.354zm-1.132.177v-4.84h-.354v4.84h.354zm-.312-4.725l.304.357.27-.23-.304-.357-.27.23zm.439.064h-2.661v.355h2.661v-.355zm-2.521.286l.283-.367-.281-.216-.283.366.281.217zm-.034-.484l-.074 1.477.354.018.074-1.477-.354-.018zm-.074 1.478c-.021.491-.062.946-.124 1.365l.351.051c.064-.432.106-.9.128-1.4l-.355-.016zm-.124 1.367c-.055.408-.142.76-.261 1.058l.329.132c.132-.331.226-.713.283-1.143l-.351-.047zm-.263 1.06c-.11.292-.261.508-.448.659l.223.276c.245-.198.43-.471.557-.809l-.332-.125zm-.45.66c-.172.144-.398.222-.693.222v.354c.361 0 .672-.097.92-.303L227 35.79zm-.693.222a1.92 1.92 0 01-.317-.03l-.058.35c.133.023.258.034.375.034v-.354zm-.315-.03a4.603 4.603 0 01-.363-.08l-.09.343c.137.036.267.065.391.087l.062-.35zm8.406.102h-.178v.177h.178v-.177zm0-4.798l.127-.123-.305-.315v.438h.178zm.303.314v.178h.418l-.29-.3-.128.122zm-2.273 0h-.177v.178h.177v-.178zm0-1.11v-.177h-.177v.177h.177zm5.238 0h.177v-.177h-.177v.177zm0 1.11v.178h.177v-.178h-.177zm-2.263 0l-.127-.123-.291.3h.418v-.177zm.304-.314h.177v-.438l-.304.315.127.123zm0 4.798v.177h.177v-.177h-.177zm-1.132 0v-4.798h-.355v4.798h.355zm-.305-4.675l.304.315.255-.247-.304-.314-.255.246zm.431.014h-2.273v.355h2.273v-.355zm-2.095.177v-1.11h-.355v1.11h.355zm-.178-.933h5.238v-.354h-5.238v.354zm5.061-.177v1.11h.354v-1.11h-.354zm.177.933h-2.263v.355h2.263v-.355zm-2.135.3l.304-.314-.255-.246-.304.314.255.247zm-.001-.437v4.798h.354v-4.798h-.354zm.177 4.62h-1.309v.355h1.309v-.354zm3.627-.115l-.087.154.002.001.085-.155zm-1.058-1.027l-.152.091.152-.09zm0-2.954l.152.092v-.001l-.152-.091zm1.058-1.016l.085.155-.085-.155zm3.069 0l-.085.155.001.001.084-.156zm1.059 1.005l-.153.09.001.002.152-.091zm0 2.965l-.153-.09-.001.001.154.09zm-1.059 1.027l.086.155-.086-.155zm-.68-.964l-.087-.155.087.155zm.586-.608l-.155-.085-.002.003.157.082zm0-1.864l-.157.082.003.005.154-.087zm-.586-.608l.086-.155-.086.155zm-1.708 0l-.086-.155-.002.001.088.154zm-.587.608l.155.087.001-.002-.156-.085zm0 1.864l-.155.086.155-.086zm.587.608l-.088.154.002.001.086-.155zm.849 1.153c-.547 0-1.027-.116-1.445-.345l-.17.311c.476.26 1.016.389 1.615.389v-.355zm-1.443-.344a2.65 2.65 0 01-.993-.963l-.304.182c.274.46.65.824 1.123 1.09l.174-.309zm-.993-.963a2.653 2.653 0 01-.362-1.386h-.355c0 .58.136 1.105.413 1.568l.304-.182zm-.362-1.386c0-.53.122-.99.362-1.385l-.304-.184c-.277.457-.413.982-.413 1.569h.355zm.362-1.386a2.57 2.57 0 01.991-.952l-.17-.31a2.92 2.92 0 00-1.125 1.08l.304.182zm.991-.952c.418-.228.898-.345 1.445-.345v-.354c-.599 0-1.139.128-1.615.388l.17.311zm1.445-.345c.554 0 1.037.117 1.454.345l.171-.31c-.477-.261-1.02-.39-1.625-.39v.355zm1.455.346c.427.23.756.543.99.94l.305-.18a2.843 2.843 0 00-1.126-1.072l-.169.312zm.991.941c.239.395.362.858.362 1.396h.354c0-.594-.135-1.122-.413-1.58l-.303.184zm.362 1.396c0 .523-.122.983-.363 1.386l.305.182c.276-.463.412-.987.412-1.568h-.354zm-.364 1.388a2.543 2.543 0 01-.99.96l.171.31c.481-.265.858-.63 1.126-1.092l-.307-.178zm-.99.96c-.417.228-.9.345-1.454.345v.355c.605 0 1.148-.128 1.625-.389l-.171-.31zm-1.454-.421c.347 0 .664-.076.945-.232l-.173-.31a1.56 1.56 0 01-.772.187v.355zm.945-.232c.283-.157.502-.386.657-.68l-.314-.165a1.27 1.27 0 01-.516.535l.173.31zm.655-.677c.164-.296.243-.637.243-1.018h-.355c0 .332-.068.612-.198.847l.31.171zm.243-1.018c0-.387-.079-.73-.244-1.02l-.308.175c.128.227.197.506.197.845h.355zm-.241-1.015a1.624 1.624 0 00-.657-.68l-.173.31c.22.122.392.299.516.535l.314-.165zm-.657-.68a1.893 1.893 0 00-.935-.232v.355c.287 0 .54.063.762.187l.173-.31zm-.935-.232c-.348 0-.664.076-.945.232l.172.31c.222-.123.478-.187.773-.187v-.355zm-.947.233a1.713 1.713 0 00-.654.676l.311.171c.132-.239.305-.417.519-.539l-.176-.308zm-.653.674c-.165.29-.243.633-.243 1.02h.355c0-.34.068-.618.197-.845l-.309-.175zm-.243 1.02c0 .38.079.722.242 1.018l.311-.171a1.719 1.719 0 01-.198-.847h-.355zm.242 1.018c.161.292.379.519.654.676l.176-.308a1.358 1.358 0 01-.519-.54l-.311.172zm.656.677c.28.156.593.232.935.232v-.355a1.54 1.54 0 01-.763-.187l-.172.31zm7.068.861l-.087.154.001.001.086-.155zm-.891-.943l-.158.08.002.004.156-.084zm-.01-3.226l-.158-.082-.001.003.159.079zm.88-.933l.085.156.002-.001-.087-.155zm2.724.042l-.088.155h.001l.087-.155zm1.005.995l-.154.089.002.002.152-.09zm0 3.028l-.153-.089h-.001l.154.089zm-1.005.995l-.087-.155h-.001l.088.155zm-4.557 2.315h-.178v.178h.178v-.178zm0-7.626v-.177h-.178v.177h.178zm1.246 0h.178v-.177h-.178v.177zm0 1.32l.178.005v-.005h-.178zm-.042 1.487l-.177-.005v.01l.001.008.176-.013zm.105 1.488h.178l-.001-.012-.177.012zm0 3.331v.178h.178v-.178h-.178zm2.483-3.29l-.086-.154-.002.001.088.154zm.597-.607l-.155-.085.155.085zm0-1.864l-.155.085.001.002.154-.087zm-.597-.608l-.088.154.002.001.086-.155zm-1.687 0l-.086-.155.086.155zm-.597.608l.154.087.001-.002-.155-.085zm.597 2.472l.086-.155-.086.155zm.996 1.153c-.426 0-.812-.098-1.161-.292l-.172.31a2.7 2.7 0 001.333.337v-.355zm-1.16-.291a2.112 2.112 0 01-.821-.872l-.313.167c.237.445.557.785.96 1.013l.174-.308zm-.819-.87c-.201-.393-.306-.9-.306-1.532h-.355c0 .668.112 1.235.344 1.694l.317-.161zm-.306-1.532c0-.64.102-1.147.296-1.534l-.318-.159c-.225.452-.333 1.02-.333 1.693h.355zm.295-1.532c.202-.391.472-.674.807-.858l-.17-.311c-.405.221-.722.56-.953 1.006l.316.163zm.809-.86a2.355 2.355 0 011.181-.29v-.355c-.502 0-.956.11-1.355.337l.174.309zm1.181-.29c.525 0 .98.112 1.368.333l.175-.309c-.449-.255-.966-.38-1.543-.38v.355zm1.369.333c.398.222.71.53.938.929l.308-.177a2.775 2.775 0 00-1.073-1.062l-.173.31zm.94.93c.232.395.352.866.352 1.419h.355c0-.606-.132-1.14-.402-1.599l-.305.18zm.352 1.419c0 .553-.12 1.028-.353 1.43l.307.178c.269-.464.401-1.002.401-1.608h-.355zm-.354 1.43c-.228.399-.54.708-.938.93l.173.31a2.776 2.776 0 001.073-1.063l-.308-.176zm-.939.93c-.388.22-.843.333-1.368.333v.355c.577 0 1.094-.125 1.543-.38l-.175-.308zm-4.292 2.47v-7.627h-.355v7.626h.355zm-.177-7.45h1.246v-.354h-1.246v.354zm1.069-.177v1.32h.355v-1.32h-.355zm0 1.315l-.042 1.488.355.01.042-1.488-.355-.01zm-.041 1.505l.104 1.487.354-.024-.105-1.488-.353.025zm.104 1.475v3.331h.355v-3.331h-.355zm.177 3.154h-1.309v.355h1.309v-.355zm1.645-2.725c.341 0 .652-.076.926-.233l-.176-.308a1.483 1.483 0 01-.75.186v.355zm.924-.232c.282-.157.504-.384.666-.677l-.31-.171a1.34 1.34 0 01-.528.538l.172.31zm.666-.677c.164-.296.242-.637.242-1.018h-.354c0 .332-.068.612-.198.847l.31.171zm.242-1.018c0-.387-.078-.73-.243-1.02l-.308.175c.128.227.197.506.197.845h.354zm-.242-1.018a1.694 1.694 0 00-.666-.677l-.172.31c.221.123.396.3.528.538l.31-.171zm-.664-.676a1.836 1.836 0 00-.926-.233v.355c.287 0 .535.063.75.186l.176-.308zm-.926-.233a1.89 1.89 0 00-.935.232l.172.31a1.54 1.54 0 01.763-.187v-.355zm-.935.232a1.694 1.694 0 00-.666.677l.31.171c.132-.238.308-.415.528-.538l-.172-.31zm-.665.675c-.165.29-.243.633-.243 1.02h.355c0-.34.068-.618.196-.845l-.308-.175zm-.243 1.02c0 .38.078.722.242 1.018l.31-.171a1.73 1.73 0 01-.197-.847h-.355zm.242 1.018c.162.293.384.52.666.677l.172-.31c-.22-.123-.396-.3-.528-.538l-.31.171zm.666.677c.28.156.593.232.935.232v-.355a1.54 1.54 0 01-.763-.187l-.172.31zm6.187.809l-.087.154.002.001.085-.155zm-1.058-1.027l-.152.091.152-.09zm0-2.954l.152.092.001-.001-.153-.091zm1.058-1.016l.086.155-.086-.155zm3.07 0l-.085.155.001.001.084-.156zm1.058 1.005l-.153.09.001.002.152-.091zm0 2.965l-.152-.09-.002.001.154.09zm-1.058 1.027l.085.155h.001l-.086-.155zm-.681-.964l-.086-.155.086.155zm.587-.608l-.156-.085-.001.003.157.082zm0-1.864l-.157.082.002.005.155-.087zm-.587-.608l.086-.155-.086.155zm-1.708 0l-.086-.155-.002.001.088.154zm-.586.608l.154.087.001-.002-.155-.085zm0 1.864l-.155.086.155-.086zm.586.608l-.088.154.002.001.086-.155zm.849 1.153c-.547 0-1.027-.116-1.444-.345l-.171.311a3.32 3.32 0 001.615.389v-.355zm-1.443-.344a2.64 2.64 0 01-.992-.963l-.305.182c.275.46.65.824 1.123 1.09l.174-.309zm-.992-.963a2.644 2.644 0 01-.363-1.386h-.355c0 .58.137 1.105.413 1.568l.305-.182zm-.363-1.386c0-.53.122-.99.362-1.385l-.303-.184c-.277.457-.414.982-.414 1.569h.355zm.363-1.386a2.56 2.56 0 01.991-.952l-.171-.31a2.92 2.92 0 00-1.125 1.08l.305.182zm.991-.952c.417-.228.897-.345 1.444-.345v-.354c-.599 0-1.138.128-1.615.388l.171.311zm1.444-.345c.554 0 1.037.117 1.455.345l.17-.31c-.477-.261-1.02-.39-1.625-.39v.355zm1.456.346c.426.23.755.543.989.94l.306-.18a2.852 2.852 0 00-1.127-1.072l-.168.312zm.99.941c.24.395.362.858.362 1.396h.355c0-.594-.136-1.122-.414-1.58l-.303.184zm.362 1.396c0 .523-.122.983-.362 1.386l.304.182c.276-.463.413-.987.413-1.568h-.355zm-.364 1.388a2.537 2.537 0 01-.99.96l.172.31c.481-.265.857-.63 1.125-1.092l-.307-.178zm-.989.96c-.418.228-.901.345-1.455.345v.355c.605 0 1.148-.128 1.625-.389l-.17-.31zm-1.455-.421c.348 0 .664-.076.945-.232l-.172-.31a1.561 1.561 0 01-.773.187v.355zm.945-.232c.283-.157.502-.386.657-.68l-.313-.165a1.276 1.276 0 01-.516.535l.172.31zm.656-.677a2.08 2.08 0 00.242-1.018h-.355c0 .332-.068.612-.198.847l.311.171zm.242-1.018c0-.387-.078-.73-.243-1.02l-.309.175c.129.227.197.506.197.845h.355zm-.241-1.015a1.624 1.624 0 00-.657-.68l-.172.31c.22.122.391.299.516.535l.313-.165zm-.657-.68a1.893 1.893 0 00-.935-.232v.355c.287 0 .54.063.763.187l.172-.31zm-.935-.232c-.347 0-.664.076-.945.232l.172.31a1.57 1.57 0 01.773-.187v-.355zm-.947.233a1.717 1.717 0 00-.653.676l.31.171c.132-.239.305-.417.519-.539l-.176-.308zm-.653.674c-.164.29-.243.633-.243 1.02h.355c0-.34.068-.618.197-.845l-.309-.175zm-.243 1.02c0 .38.079.722.243 1.018l.31-.171a1.719 1.719 0 01-.198-.847h-.355zm.243 1.018c.161.292.379.519.653.676l.176-.308a1.358 1.358 0 01-.519-.54l-.31.172zm.655.677c.28.156.593.232.935.232v-.355a1.54 1.54 0 01-.763-.187l-.172.31zm5.214 1.102h-.177v.177h.177v-.177zm0-5.594v-.177h-.177v.177h.177zm4.326.377l-.097.149h.002l.095-.149zm.042 2.137l.101.146.002-.001-.103-.145zm-1.445.377l-.16-.077-.123.255h.283v-.178zm.157-.324v-.178h-.111l-.049.1.16.078zm1.508.377l-.107.14.003.003.104-.143zm-.052 2.241l.105.143.002-.001-.107-.142zm-3.289-.544h-.178v.177h.178v-.177zm2.304-.168l.093.151.004-.002-.097-.149zm.021-1.09l-.102.145.102-.144zm-2.325-.177v-.178h-.178v.178h.178zm0-.87h-.178v.177h.178v-.177zm2.126-.178l.103.145.001-.001-.104-.144zm0-1.037l-.098.147.003.002.095-.15zm-2.126-.168v-.177h-.178v.177h.178zm-1.07 4.641v-5.594h-.354v5.594h.354zm-.177-5.417h2.734v-.354h-2.734v.354zm2.734 0c.659 0 1.151.123 1.495.349l.195-.297c-.424-.277-.993-.406-1.69-.406v.354zm1.497.35c.34.218.505.519.505.919h.354c0-.522-.226-.934-.668-1.218l-.191.298zm.505.919c0 .397-.155.7-.47.924l.205.289c.411-.293.619-.703.619-1.213h-.354zm-.469.922c-.324.225-.767.346-1.344.346v.355c.624 0 1.145-.13 1.546-.409l-.202-.292zm-1.185.6l.158-.324-.32-.155-.157.325.319.154zm-.002-.224c.661 0 1.118.124 1.401.34l.215-.281c-.373-.286-.923-.414-1.616-.414v.355zm1.404.343c.282.206.43.508.43.936h.355c0-.523-.188-.94-.576-1.223l-.209.287zm.43.936c0 .444-.163.778-.485 1.02l.214.284c.418-.315.626-.757.626-1.304h-.355zm-.483 1.02c-.326.24-.843.374-1.582.374v.354c.77 0 1.378-.138 1.792-.443l-.21-.285zm-1.582.374h-2.849v.354h2.849v-.354zm-1.602-.599h1.498v-.355h-1.498v.355zm1.498 0c.369 0 .677-.057.899-.194l-.186-.302c-.14.087-.37.141-.713.141v.355zm.903-.196c.237-.155.353-.392.353-.683h-.355c0 .184-.066.303-.192.386l.194.297zm.353-.683c0-.294-.101-.54-.326-.7l-.205.29c.11.077.176.201.176.41h.355zm-.326-.7c-.213-.15-.52-.21-.888-.21v.354c.343 0 .56.058.683.145l.205-.289zm-.888-.21h-1.54v.354h1.54v-.355zm-1.718.177v1.435h.355v-1.435h-.355zm.178-.693h1.372v-.354h-1.372V33zm1.372 0c.351 0 .646-.06.857-.21l-.205-.29c-.124.088-.332.146-.652.146V33zm.858-.211a.785.785 0 00.335-.668h-.354c0 .17-.062.29-.188.38l.207.288zm.335-.668c0-.283-.111-.514-.343-.662l-.191.298c.117.075.18.186.18.364h.354zm-.34-.66c-.211-.14-.504-.198-.853-.198v.355c.321 0 .531.054.656.137l.197-.295zm-.853-.198h-1.372v.355h1.372v-.355zm-1.55.177v1.383h.355v-1.383h-.355zm-54.221 17.641h-.177v.177h.177v-.177zm0-7.333v-.177h-.177v.177h.177zm1.11 0l.152-.091-.051-.086h-.101v.177zm3.216 5.353v.178h.314l-.162-.27-.152.092zm-.597 0l-.152-.09-.159.267h.311v-.177zm3.164-5.353v-.177h-.101l-.052.087.153.09zm1.11 0h.178l-.001-.177h-.177v.177zm.021 7.333v.177h.178v-.178l-.178.001zm-1.299 0h-.177v.177h.177v-.177zm-.01-5.311v-.178h-.178v.178h.178zm.272 0l.152.091.161-.269h-.313v.178zm-2.682 4.473v.177h.101l.051-.086-.152-.091zm-.607 0l-.152.092.052.085h.1v-.177zm-2.724-4.473v-.178h-.316l.165.27.151-.092zm.314 0h.178v-.178h-.178v.178zm0 5.311v.177h.178v-.177h-.178zm-1.111 0v-7.333h-.354v7.333h.354zm-.177-7.156h1.11v-.354h-1.11v.354zm.958-.086l3.216 5.353.304-.182-3.216-5.353-.304.182zm3.368 5.085h-.597v.355h.597v-.355zm-.444.267l3.164-5.353-.306-.18-3.163 5.353.305.18zm3.011-5.266h1.11v-.354h-1.11v.354zm.933-.176l.021 7.333.355-.002-.021-7.332h-.355zm.198 7.155h-1.299v.354h1.299v-.354zm-1.121.177l-.011-5.312-.355.001.011 5.311h.355zm-.188-5.134h.272v-.355h-.272v.355zm.12-.268l-2.682 4.473.304.182 2.682-4.473-.304-.182zm-2.53 4.387h-.607v.354h.607v-.354zm-.456.085l-2.723-4.473-.303.184 2.723 4.473.303-.184zm-2.875-4.204h.314v-.355h-.314v.355zm.137-.177v5.311h.355v-5.311h-.355zm.177 5.134h-1.288v.354h1.288v-.354zm9.605-.116l-.087.154.002.001.085-.155zm-1.058-1.027l-.152.091.152-.09zm0-2.954l.152.092.001-.001-.153-.091zm1.058-1.016l.085.155-.085-.155zm3.07 0l-.085.155.001.001.084-.156zm1.058 1.005l-.153.09.001.002.152-.092zm0 2.965l-.152-.09-.002.001.154.09zm-1.058 1.027l.085.155h.001l-.086-.155zm-.681-.964l-.086-.155.086.155zm.586-.608l-.155-.085-.001.003.156.082zm0-1.864l-.157.082.003.005.154-.087zm-.586-.608l.086-.155-.086.155zm-1.708 0l-.086-.155-.002.001.088.154zm-.586.608l.154.087.001-.002-.155-.085zm0 1.864l-.156.086.156-.086zm.586.608l-.088.154.002.001.086-.155zm.849 1.153c-.547 0-1.027-.116-1.445-.345l-.17.311c.476.26 1.016.389 1.615.389v-.355zm-1.443-.344a2.64 2.64 0 01-.992-.963l-.305.182c.275.46.65.824 1.123 1.09l.174-.309zm-.992-.963a2.644 2.644 0 01-.363-1.386h-.355c0 .58.137 1.105.413 1.568l.305-.182zm-.363-1.386c0-.53.122-.99.362-1.385l-.303-.184c-.277.457-.414.982-.414 1.569h.355zm.363-1.386c.242-.406.571-.722.99-.952l-.17-.31a2.92 2.92 0 00-1.125 1.08l.305.182zm.99-.952c.418-.228.898-.345 1.445-.345v-.354c-.599 0-1.139.128-1.615.388l.17.311zm1.445-.345c.554 0 1.037.117 1.455.345l.17-.31c-.477-.261-1.02-.39-1.625-.39v.355zm1.456.346c.426.23.755.543.989.94l.306-.18a2.852 2.852 0 00-1.127-1.072l-.168.312zm.99.941c.24.395.362.858.362 1.396h.355c0-.594-.136-1.122-.414-1.58l-.303.184zm.362 1.396c0 .523-.122.983-.362 1.386l.304.182c.276-.463.413-.987.413-1.568h-.355zm-.364 1.388a2.537 2.537 0 01-.99.96l.172.31c.481-.265.857-.63 1.125-1.092l-.307-.178zm-.989.96c-.418.228-.901.345-1.455.345v.355c.605 0 1.148-.128 1.625-.389l-.17-.31zm-1.455-.421c.348 0 .664-.076.945-.232l-.172-.31a1.561 1.561 0 01-.773.187v.355zm.945-.232c.283-.157.502-.386.657-.68l-.313-.165a1.276 1.276 0 01-.516.535l.172.31zm.656-.677a2.08 2.08 0 00.242-1.018h-.355c0 .332-.068.612-.198.847l.311.171zm.242-1.018c0-.387-.078-.73-.243-1.02l-.309.175c.129.227.197.506.197.845h.355zm-.241-1.015a1.624 1.624 0 00-.657-.68l-.172.31c.22.122.391.299.516.535l.313-.165zm-.657-.68a1.893 1.893 0 00-.935-.232v.355c.287 0 .54.063.763.187l.172-.31zm-.935-.232c-.347 0-.664.076-.945.232l.172.31a1.57 1.57 0 01.773-.187v-.355zm-.947.233a1.72 1.72 0 00-.654.676l.311.171c.132-.239.305-.417.519-.539l-.176-.308zm-.653.674c-.164.29-.243.633-.243 1.02h.355c0-.34.068-.618.197-.845l-.309-.175zm-.243 1.02c0 .38.079.722.242 1.018l.311-.171a1.719 1.719 0 01-.198-.847h-.355zm.242 1.018c.162.292.379.519.654.676l.176-.308a1.358 1.358 0 01-.519-.54l-.311.172zm.656.677c.28.156.593.232.935.232v-.355a1.54 1.54 0 01-.763-.187l-.172.31zm6.188.809l-.086.155.003.001.083-.156zm-1.068-1.027l-.153.091.153-.09zm0-2.954l.151.092.001-.001-.152-.091zm1.068-1.016l-.083-.157h-.001l.084.157zm3.007-.032l-.085.156.003.002.082-.158zm.953.964l.089.153.145-.084-.076-.15-.158.081zm-1.006.587l-.15.095.092.144.148-.086-.09-.153zm-.618-.587l-.083.157h.002l.081-.157zm-1.644.021l-.085-.156.085.156zm-.608.608l.154.087.001-.002-.155-.085zm0 1.875l-.155.086.001.001.154-.087zm.608.597l.084-.156-.084.156zm1.644.02l-.081-.157-.002.001.083.157zm.618-.586l.09-.153-.148-.086-.092.145.15.094zm1.006.587l.158.081.077-.15-.146-.084-.089.153zm-.953.974l.084.156h.001l-.085-.156zm-1.435.158c-.562 0-1.056-.117-1.489-.346l-.166.313c.49.26 1.043.388 1.655.388v-.355zm-1.486-.344a2.623 2.623 0 01-1.002-.963l-.305.182c.275.46.655.825 1.135 1.09l.172-.31zm-1.002-.963a2.654 2.654 0 01-.363-1.386h-.354c0 .58.136 1.105.412 1.568l.305-.182zm-.363-1.386c0-.53.123-.99.362-1.385l-.303-.184c-.277.457-.413.982-.413 1.569h.354zm.363-1.386a2.549 2.549 0 011-.951l-.168-.312c-.481.259-.861.62-1.137 1.081l.305.182zm.999-.95c.433-.23.927-.346 1.489-.346v-.355c-.612 0-1.165.128-1.655.387l.166.314zm1.489-.346c.52 0 .968.106 1.35.313l.169-.311c-.442-.24-.95-.357-1.519-.357v.355zm1.353.315c.386.2.677.493.877.886l.316-.16a2.331 2.331 0 00-1.03-1.041l-.163.315zm.946.653l-1.006.587.179.306 1.005-.587-.178-.306zm-.767.645a1.77 1.77 0 00-.687-.65l-.162.316c.213.11.396.281.549.524l.3-.19zm-.685-.649a1.808 1.808 0 00-.858-.209v.355c.252 0 .481.056.692.168l.166-.314zm-.858-.209c-.348 0-.667.076-.954.231l.169.312c.23-.124.49-.188.785-.188v-.355zm-.954.231a1.672 1.672 0 00-.678.678l.31.171a1.32 1.32 0 01.537-.537l-.169-.312zm-.677.676c-.165.29-.243.633-.243 1.02h.354c0-.34.069-.618.197-.845l-.308-.175zm-.243 1.02c0 .387.078.732.242 1.029l.31-.172a1.75 1.75 0 01-.198-.857h-.354zm.243 1.03c.163.287.389.51.677.666l.169-.312a1.34 1.34 0 01-.538-.529l-.308.175zm.677.666c.287.155.606.23.954.23v-.354a1.62 1.62 0 01-.785-.188l-.169.312zm.954.23c.307 0 .594-.069.858-.208l-.166-.314c-.211.112-.44.168-.692.168v.355zm.856-.207a1.77 1.77 0 00.687-.65l-.3-.19a1.415 1.415 0 01-.549.524l.162.316zm.448-.592l1.006.587.178-.306-1.005-.587-.179.306zm.937.352a2.11 2.11 0 01-.881.9l.171.311c.45-.247.793-.597 1.026-1.048l-.316-.163zm-.88.9c-.382.207-.83.314-1.35.314v.355c.569 0 1.077-.117 1.519-.357l-.169-.312zm6.203.418l-.141.107.053.07h.088v-.177zm-2.022-2.682l-.093-.15-.165.102.117.155.141-.107zm1.069-.66l.142-.106-.097-.13-.138.085.093.151zm2.493 3.342v.177h.354l-.212-.283-.142.106zm-5.552 0h-.177v.177h.177v-.177zm0-5.594v-.177h-.177v.177h.177zm1.309 0h.178v-.177h-.178v.177zm0 5.594v.177h.178v-.177h-.178zm-.387-2.242h-.178v.178h.178v-.178zm0-1.09v-.177h-.178v.178h.178zm1.896 0h.177v-.177h-.177v.178zm0 1.09v.178h.177v-.178h-.177zm.367-.398l-.022.176.102.012.061-.081-.141-.107zm-1.226-.147l-.143-.104-.179.245.301.036.021-.177zm2.053-2.807v-.177h-.09l-.053.072.143.105zm1.404 0l.141.107.215-.284h-.356v.177zm-1.262 5.487l-2.022-2.681-.283.213 2.022 2.682.283-.214zm-2.07-2.424l1.068-.66-.186-.302-1.069.66.187.302zm.833-.705l2.493 3.342.284-.212-2.493-3.342-.284.212zm2.635 3.059h-1.54v.354h1.54v-.354zm-5.375.177v-5.594h-.354v5.594h.354zm-.177-5.417h1.309v-.354h-1.309v.354zm1.132-.177v5.594h.355v-5.594h-.355zm.177 5.417h-1.309v.354h1.309v-.354zm-.21-2.065v-1.09h-.355v1.09h.355zm-.177-.912h1.896v-.355h-1.896v.355zm1.719-.177v1.09h.354v-1.09h-.354zm.177.912h-1.896v.355h1.896v-.355zm.388-.397l-1.226-.147-.042.353 1.225.146.043-.352zm-1.104.134l2.053-2.807-.286-.21-2.053 2.808.286.21zm1.91-2.735h1.404v-.354h-1.404v.354zm1.262-.284l-2.231 2.954.283.214 2.231-2.954-.283-.214zm1.202 5.701h-.178v.177h.178v-.177zm0-5.594v-.177h-.178v.177h.178zm4.326.377l-.097.148.001.001.096-.149zm.042 2.137l.101.146.002-.001-.103-.145zm-1.446.377l-.159-.077-.123.255h.282v-.178zm.157-.324v-.178h-.111l-.048.1.159.078zm1.509.377l-.108.14.003.003.105-.143zm-.052 2.241l.105.143.001-.001-.106-.142zm-3.29-.544h-.177v.177h.177v-.177zm2.305-.168l.093.151.004-.002-.097-.149zm.021-1.09l-.103.145.103-.144zm-2.326-.177v-.178h-.177v.178h.177zm0-.87h-.177v.177h.177v-.177zm2.127-.178l.102.145.001-.001-.103-.144zm0-1.037l-.099.148.003.001.096-.15zm-2.127-.168v-.177h-.177v.177h.177zm-1.069 4.641v-5.594h-.355v5.594h.355zm-.177-5.417h2.734v-.354h-2.734v.354zm2.734 0c.658 0 1.15.123 1.495.349l.194-.297c-.423-.277-.993-.406-1.689-.406v.354zm1.496.35c.341.218.505.519.505.919h.355c0-.522-.227-.934-.668-1.218l-.192.298zm.505.919c0 .398-.154.7-.47.924l.206.289c.411-.293.619-.703.619-1.213h-.355zm-.468.922c-.325.225-.767.346-1.345.346v.355c.624 0 1.145-.13 1.547-.409l-.202-.292zm-1.185.6l.157-.324-.319-.155-.157.325.319.154zm-.003-.224c.662 0 1.118.124 1.401.34l.216-.281c-.374-.286-.923-.414-1.617-.414v.355zm1.404.343c.283.206.43.508.43.936h.355c0-.523-.187-.94-.576-1.223l-.209.287zm.43.936c0 .444-.162.778-.484 1.02l.213.284c.418-.315.626-.757.626-1.304h-.355zm-.483 1.02c-.325.24-.842.374-1.581.374v.354c.77 0 1.377-.138 1.792-.443l-.211-.285zm-1.581.374h-2.849v.354h2.849v-.354zm-1.603-.599h1.498v-.355h-1.498v.355zm1.498 0c.37 0 .677-.057.9-.194l-.186-.302c-.141.087-.371.141-.714.141v.355zm.904-.196c.237-.155.353-.392.353-.683h-.355c0 .184-.066.303-.192.386l.194.297zm.353-.683c0-.294-.101-.54-.327-.7l-.205.29c.11.077.177.201.177.41h.355zm-.327-.7c-.212-.15-.519-.21-.888-.21v.354c.344 0 .561.058.683.145l.205-.289zm-.888-.21h-1.54v.354h1.54v-.355zm-1.717.177v1.435h.355v-1.435h-.355zm.177-.693h1.373v-.354h-1.373V46zm1.373 0c.35 0 .645-.06.856-.21l-.205-.29c-.124.088-.332.146-.651.146V46zm.857-.211a.786.786 0 00.336-.668h-.355c0 .17-.062.29-.188.38l.207.288zm.336-.668c0-.283-.112-.514-.344-.662l-.191.298c.117.075.18.186.18.364h.355zm-.341-.66c-.21-.14-.503-.198-.852-.198v.355c.321 0 .53.054.655.138l.197-.296zm-.852-.198h-1.373v.355h1.373v-.355zm-1.55.177v1.383h.355v-1.383h-.355zm11.063 4.641h-.177v.177h.177v-.177zm0-5.594v-.177h-.177v.177h.177zm1.309 0h.178v-.177h-.178v.177zm0 5.594v.177h.178v-.177h-.178zm-4.232-3.75l-.001.177h.001v-.177zm1.634.482l-.116.134h.001l.115-.134zm-.062 2.786l.111.138h.001l-.112-.138zm-1.76.492l.001-.177h-.001v.178zm-2.535-.01h-.178v.177h.177l.001-.177zm0-5.594v-.177h-.178v.177h.178zm1.309 0h.177v-.177h-.177v.177zm0 1.833h-.177v.176l.176.002.001-.178zm1.11 2.808l.004-.178h-.002l-.002.178zm.88-1.666l-.106.142.006.004.1-.146zm-.88-.23l.004-.178h-.002l-.002.178zm-1.11-.01l.002-.178-.179-.002v.18h.177zm0 1.895h-.177v.176l.175.002.002-.178zm4.514.964v-5.594h-.354v5.594h.354zm-.177-5.417h1.309v-.354h-1.309v.354zm1.132-.177v5.594h.355v-5.594h-.355zm.177 5.417h-1.309v.354h1.309v-.354zm-4.232-3.396c.696 0 1.192.156 1.518.438l.233-.267c-.415-.36-1.008-.526-1.751-.526v.355zm1.519.44c.331.28.504.681.504 1.227h.354c0-.629-.204-1.136-.628-1.497l-.23.27zm.504 1.227c0 .561-.191.983-.564 1.287l.225.274c.465-.38.693-.908.693-1.562h-.354zm-.563 1.287c-.369.3-.909.459-1.647.452l-.003.355c.785.007 1.418-.162 1.873-.532l-.223-.275zm-1.648.452l-2.535-.01-.001.354 2.535.01.001-.354zm-2.358.167v-5.594h-.355v5.594h.355zm-.177-5.417h1.309v-.354h-1.309v.354zm1.132-.177v1.833h.354v-1.833h-.354zm.176 2.01l1.414.011.003-.355-1.415-.01-.002.355zm1.108 2.808c.408.008.749-.077.996-.282l-.226-.273c-.157.13-.403.207-.763.2l-.007.355zm.996-.282c.253-.208.369-.508.369-.87h-.355c0 .282-.087.47-.24.597l.226.273zm.369-.87c0-.36-.116-.654-.381-.837l-.201.292c.14.097.227.263.227.545h.355zm-.375-.833c-.239-.179-.576-.258-.983-.266l-.007.355c.375.007.624.08.777.195l.213-.284zm-.985-.266l-1.11-.01-.004.355 1.111.01.003-.355zm-1.289.167v1.896h.354v-1.896h-.354zm.175 2.074l1.111.01.003-.355-1.11-.01-.004.355z" fill="#005D62" mask="url(#a)"/><mask id="b" fill="#fff"><path d="M106.801 22.338H90.803l.06 27.322h-7.73V16.047h23.728l-.06 6.29zm26.123-4.853c2.217 1.018 3.895 2.396 5.094 4.254 1.198 1.797 1.797 4.014 1.797 6.47 0 2.457-.599 4.614-1.797 6.472-1.199 1.857-2.877 3.235-5.094 4.254-2.216.958-4.793 1.438-7.789 1.438h-6.77v9.287h-7.789V16.047h14.559c2.996-.06 5.633.419 7.789 1.438zm-2.815 14.979c1.198-1.019 1.797-2.457 1.797-4.314 0-1.918-.599-3.356-1.797-4.374-1.199-1.019-2.996-1.498-5.333-1.498h-6.351v11.684h6.351c2.337.06 4.074-.48 5.333-1.498zM174.567 49.6l-.06-20.132-9.886 16.597h-3.476l-9.886-16.178V49.66h-7.31V16.047h6.471l12.583 20.91 12.403-20.91h6.41l.06 33.612h-7.309v-.06zM55.633 12.212c4.853 4.853 7.789 10.965 8.688 17.316l3.235-.24A34.174 34.174 0 0057.97 9.875a34.8 34.8 0 00-7.19-5.512l-1.438 2.936a32.463 32.463 0 016.29 4.913zm-43.38 0c.899-.899 1.798-1.738 2.756-2.457L13.152 7.06c-1.138.899-2.217 1.798-3.235 2.876-1.438 1.438-2.637 2.936-3.775 4.494l2.756 1.737c1.019-1.438 2.097-2.756 3.355-3.954zm49.491 34.692l2.876 1.557c2.277-4.793 3.356-10.066 3.236-15.278l-3.236.24a31.026 31.026 0 01-2.876 13.48zM45.806 5.621l1.438-2.936C37.298-1.509 25.794-.79 16.387 4.842l1.858 2.697c8.388-4.974 18.694-5.633 27.561-1.918zM6.86 19.462l-2.756-1.738C-1.768 28.57-1.348 41.93 5.422 52.356l2.637-1.918c-5.992-9.406-6.351-21.27-1.199-30.976zm48.773 36.189c-6.591 6.591-15.459 9.527-24.087 8.868l-.48 3.235c9.588.78 19.474-2.456 26.843-9.826a34.48 34.48 0 004.794-5.992l-2.876-1.557c-1.139 1.857-2.517 3.595-4.194 5.272zm-43.38 0a29.902 29.902 0 01-1.857-2.037L7.76 55.531c.659.84 1.438 1.618 2.217 2.397 4.913 4.913 10.964 8.029 17.315 9.287l.48-3.235c-5.752-1.199-11.145-3.955-15.519-8.329z"/><path d="M20.642 56.37a28.83 28.83 0 01-1.738-1.138l-2.097 2.516c.66.48 1.378.959 2.157 1.378 5.093 2.996 10.725 4.315 16.237 4.075l-.36-3.236c-4.792.18-9.706-.959-14.2-3.595zm-9.168-35.71a20.993 20.993 0 011.618-2.396l-2.456-2.157c-.72.898-1.319 1.857-1.918 2.876-.839 1.378-1.498 2.875-2.097 4.313l3.116.959a28.325 28.325 0 011.737-3.595zm-2.936 7.37l-3.116-.959c-2.456 10.186.72 21.03 8.449 28.28l2.097-2.516C9.257 46.365 6.5 36.897 8.538 28.03zm28.88-19.952l.659-3.176C29.03 3.644 19.742 6.64 13.152 13.171l2.456 2.157c5.812-5.692 13.9-8.329 21.81-7.25zm9.826 3.415c4.973 2.936 8.568 7.25 10.665 12.163l3.116-1.079c-2.337-5.632-6.471-10.545-12.103-13.9-2.217-1.318-4.554-2.277-6.95-2.996l-.66 3.176a27.238 27.238 0 015.932 2.636zm12.403 26.962l3.175.78c.78-4.375.6-8.809-.539-13.003l-3.116 1.079a25.886 25.886 0 01.48 11.144zm-3.236 8.748a25.883 25.883 0 01-17.615 12.343l.36 3.235c8.088-1.438 15.578-6.291 20.071-13.96a31.564 31.564 0 002.637-5.812l-3.176-.779a33.578 33.578 0 01-2.277 4.973zm-30.377 6.651c-.66-.24-1.258-.54-1.858-.839l-1.737 2.756c.779.42 1.558.78 2.396 1.079a27.69 27.69 0 003.595 1.138l.48-3.236a26.48 26.48 0 01-2.876-.898z"/><path d="M53.895 41.81l-.54 1.259 2.817 1.677c.24-.539.54-1.138.779-1.677a24.718 24.718 0 001.318-13.721l-3.176.839c.66 3.774.3 7.789-1.198 11.623zM32.744 55.352l-.479 3.235c8.568.6 16.956-3.415 21.93-10.485l-2.817-1.678c-4.254 5.992-11.384 9.287-18.634 8.928zm9.108-41.402a21.362 21.362 0 0112.163 12.402l3.175-.839a24.968 24.968 0 00-14.14-14.62c-1.618-.658-3.235-1.078-4.853-1.377l-.3 3.235c1.318.3 2.636.72 3.955 1.198zM12.493 34.74l-3.295-.18c.24 7.49 3.834 14.62 9.946 19.114l1.737-2.756c-5.093-3.835-8.148-9.826-8.388-16.178zm21.51-22.289l.3-3.235c-3.536-.06-6.951.66-10.127 2.037l1.558 2.876a21.459 21.459 0 018.269-1.678zM13.99 25.993a21.347 21.347 0 018.21-10.066l-1.558-2.876a24.457 24.457 0 00-9.706 11.743 22.88 22.88 0 00-1.498 5.872l3.295.18c.18-1.618.6-3.236 1.259-4.853z"/><path d="M50.72 32.763l3.295.18c-.36-6.71-4.074-12.942-9.886-16.357l-1.378 2.996c4.613 2.816 7.609 7.789 7.968 13.181zm-33.494 3.176h-3.295c.3 2.576 1.019 5.093 2.277 7.37l2.756-1.798a16.346 16.346 0 01-1.738-5.572zm12.104 14.2c-3.356-.959-6.112-2.876-8.21-5.333l-2.696 1.798c2.517 3.115 5.932 5.452 10.067 6.65 1.497.42 2.995.66 4.493.72l-.18-3.296a16.805 16.805 0 01-3.475-.54zm7.369.419l.18 3.296c5.752-.839 10.964-4.194 14.14-9.167l-2.936-1.438c-2.636 3.834-6.83 6.53-11.384 7.31zM50.12 38.575l-.36 1.079 2.936 1.438c.18-.54.42-1.079.54-1.678.24-.899.42-1.738.539-2.636l-3.295-.18c0 .719-.18 1.318-.36 1.977zm-32.354-9.287c1.318-4.614 4.433-8.208 8.388-10.305l-1.198-3.056c-4.854 2.456-8.748 6.83-10.366 12.462-.36 1.199-.6 2.457-.66 3.715h3.296c.06-.959.24-1.917.54-2.816zm20.79-11.564c.18.06.42.12.6.18l1.378-2.996-1.079-.36a19.634 19.634 0 00-10.845-.06l1.199 3.056a17.356 17.356 0 018.747.18z"/></mask><path d="M106.801 22.338H90.803l.06 27.322h-7.73V16.047h23.728l-.06 6.29zm26.123-4.853c2.217 1.018 3.895 2.396 5.094 4.254 1.198 1.797 1.797 4.014 1.797 6.47 0 2.457-.599 4.614-1.797 6.472-1.199 1.857-2.877 3.235-5.094 4.254-2.216.958-4.793 1.438-7.789 1.438h-6.77v9.287h-7.789V16.047h14.559c2.996-.06 5.633.419 7.789 1.438zm-2.815 14.979c1.198-1.019 1.797-2.457 1.797-4.314 0-1.918-.599-3.356-1.797-4.374-1.199-1.019-2.996-1.498-5.333-1.498h-6.351v11.684h6.351c2.337.06 4.074-.48 5.333-1.498zM174.567 49.6l-.06-20.132-9.886 16.597h-3.476l-9.886-16.178V49.66h-7.31V16.047h6.471l12.583 20.91 12.403-20.91h6.41l.06 33.612h-7.309v-.06zM55.633 12.212c4.853 4.853 7.789 10.965 8.688 17.316l3.235-.24A34.174 34.174 0 0057.97 9.875a34.8 34.8 0 00-7.19-5.512l-1.438 2.936a32.463 32.463 0 016.29 4.913zm-43.38 0c.899-.899 1.798-1.738 2.756-2.457L13.152 7.06c-1.138.899-2.217 1.798-3.235 2.876-1.438 1.438-2.637 2.936-3.775 4.494l2.756 1.737c1.019-1.438 2.097-2.756 3.355-3.954zm49.491 34.692l2.876 1.557c2.277-4.793 3.356-10.066 3.236-15.278l-3.236.24a31.026 31.026 0 01-2.876 13.48zM45.806 5.621l1.438-2.936C37.298-1.509 25.794-.79 16.387 4.842l1.858 2.697c8.388-4.974 18.694-5.633 27.561-1.918zM6.86 19.462l-2.756-1.738C-1.768 28.57-1.348 41.93 5.422 52.356l2.637-1.918c-5.992-9.406-6.351-21.27-1.199-30.976zm48.773 36.189c-6.591 6.591-15.459 9.527-24.087 8.868l-.48 3.235c9.588.78 19.474-2.456 26.843-9.826a34.48 34.48 0 004.794-5.992l-2.876-1.557c-1.139 1.857-2.517 3.595-4.194 5.272zm-43.38 0a29.902 29.902 0 01-1.857-2.037L7.76 55.531c.659.84 1.438 1.618 2.217 2.397 4.913 4.913 10.964 8.029 17.315 9.287l.48-3.235c-5.752-1.199-11.145-3.955-15.519-8.329z" fill="#005D62"/><path d="M20.642 56.37a28.83 28.83 0 01-1.738-1.138l-2.097 2.516c.66.48 1.378.959 2.157 1.378 5.093 2.996 10.725 4.315 16.237 4.075l-.36-3.236c-4.792.18-9.706-.959-14.2-3.595zm-9.168-35.71a20.993 20.993 0 011.618-2.396l-2.456-2.157c-.72.898-1.319 1.857-1.918 2.876-.839 1.378-1.498 2.875-2.097 4.313l3.116.959a28.325 28.325 0 011.737-3.595zm-2.936 7.37l-3.116-.959c-2.456 10.186.72 21.03 8.449 28.28l2.097-2.516C9.257 46.365 6.5 36.897 8.538 28.03zm28.88-19.952l.659-3.176C29.03 3.644 19.742 6.64 13.152 13.171l2.456 2.157c5.812-5.692 13.9-8.329 21.81-7.25zm9.826 3.415c4.973 2.936 8.568 7.25 10.665 12.163l3.116-1.079c-2.337-5.632-6.471-10.545-12.103-13.9-2.217-1.318-4.554-2.277-6.95-2.996l-.66 3.176a27.238 27.238 0 015.932 2.636zm12.403 26.962l3.175.78c.78-4.375.6-8.809-.539-13.003l-3.116 1.079a25.886 25.886 0 01.48 11.144zm-3.236 8.748a25.883 25.883 0 01-17.615 12.343l.36 3.235c8.088-1.438 15.578-6.291 20.071-13.96a31.564 31.564 0 002.637-5.812l-3.176-.779a33.578 33.578 0 01-2.277 4.973zm-30.377 6.651c-.66-.24-1.258-.54-1.858-.839l-1.737 2.756c.779.42 1.558.78 2.396 1.079a27.69 27.69 0 003.595 1.138l.48-3.236a26.48 26.48 0 01-2.876-.898z" fill="#005D62"/><path d="M53.895 41.81l-.54 1.259 2.817 1.677c.24-.539.54-1.138.779-1.677a24.718 24.718 0 001.318-13.721l-3.176.839c.66 3.774.3 7.789-1.198 11.623zM32.744 55.352l-.479 3.235c8.568.6 16.956-3.415 21.93-10.485l-2.817-1.678c-4.254 5.992-11.384 9.287-18.634 8.928zm9.108-41.402a21.362 21.362 0 0112.163 12.402l3.175-.839a24.968 24.968 0 00-14.14-14.62c-1.618-.658-3.235-1.078-4.853-1.377l-.3 3.235c1.318.3 2.636.72 3.955 1.198zM12.493 34.74l-3.295-.18c.24 7.49 3.834 14.62 9.946 19.114l1.737-2.756c-5.093-3.835-8.148-9.826-8.388-16.178zm21.51-22.289l.3-3.235c-3.536-.06-6.951.66-10.127 2.037l1.558 2.876a21.459 21.459 0 018.269-1.678zM13.99 25.993a21.347 21.347 0 018.21-10.066l-1.558-2.876a24.457 24.457 0 00-9.706 11.743 22.88 22.88 0 00-1.498 5.872l3.295.18c.18-1.618.6-3.236 1.259-4.853z" fill="#005D62"/><path d="M50.72 32.763l3.295.18c-.36-6.71-4.074-12.942-9.886-16.357l-1.378 2.996c4.613 2.816 7.609 7.789 7.968 13.181zm-33.494 3.176h-3.295c.3 2.576 1.019 5.093 2.277 7.37l2.756-1.798a16.346 16.346 0 01-1.738-5.572zm12.104 14.2c-3.356-.959-6.112-2.876-8.21-5.333l-2.696 1.798c2.517 3.115 5.932 5.452 10.067 6.65 1.497.42 2.995.66 4.493.72l-.18-3.296a16.805 16.805 0 01-3.475-.54zm7.369.419l.18 3.296c5.752-.839 10.964-4.194 14.14-9.167l-2.936-1.438c-2.636 3.834-6.83 6.53-11.384 7.31zM50.12 38.575l-.36 1.079 2.936 1.438c.18-.54.42-1.079.54-1.678.24-.899.42-1.738.539-2.636l-3.295-.18c0 .719-.18 1.318-.36 1.977zm-32.354-9.287c1.318-4.614 4.433-8.208 8.388-10.305l-1.198-3.056c-4.854 2.456-8.748 6.83-10.366 12.462-.36 1.199-.6 2.457-.66 3.715h3.296c.06-.959.24-1.917.54-2.816zm20.79-11.564c.18.06.42.12.6.18l1.378-2.996-1.079-.36a19.634 19.634 0 00-10.845-.06l1.199 3.056a17.356 17.356 0 018.747.18z" fill="#005D62"/><path d="M106.801 22.338H90.803l.06 27.322h-7.73V16.047h23.728l-.06 6.29zm26.123-4.853c2.217 1.018 3.895 2.396 5.094 4.254 1.198 1.797 1.797 4.014 1.797 6.47 0 2.457-.599 4.614-1.797 6.472-1.199 1.857-2.877 3.235-5.094 4.254-2.216.958-4.793 1.438-7.789 1.438h-6.77v9.287h-7.789V16.047h14.559c2.996-.06 5.633.419 7.789 1.438zm-2.815 14.979c1.198-1.019 1.797-2.457 1.797-4.314 0-1.918-.599-3.356-1.797-4.374-1.199-1.019-2.996-1.498-5.333-1.498h-6.351v11.684h6.351c2.337.06 4.074-.48 5.333-1.498zM174.567 49.6l-.06-20.132-9.886 16.597h-3.476l-9.886-16.178V49.66h-7.31V16.047h6.471l12.583 20.91 12.403-20.91h6.41l.06 33.612h-7.309v-.06zM55.633 12.212c4.853 4.853 7.789 10.965 8.688 17.316l3.235-.24A34.174 34.174 0 0057.97 9.875a34.8 34.8 0 00-7.19-5.512l-1.438 2.936a32.463 32.463 0 016.29 4.913zm-43.38 0c.899-.899 1.798-1.738 2.756-2.457L13.152 7.06c-1.138.899-2.217 1.798-3.235 2.876-1.438 1.438-2.637 2.936-3.775 4.494l2.756 1.737c1.019-1.438 2.097-2.756 3.355-3.954zm49.491 34.692l2.876 1.557c2.277-4.793 3.356-10.066 3.236-15.278l-3.236.24a31.026 31.026 0 01-2.876 13.48zM45.806 5.621l1.438-2.936C37.298-1.509 25.794-.79 16.387 4.842l1.858 2.697c8.388-4.974 18.694-5.633 27.561-1.918zM6.86 19.462l-2.756-1.738C-1.768 28.57-1.348 41.93 5.422 52.356l2.637-1.918c-5.992-9.406-6.351-21.27-1.199-30.976zm48.773 36.189c-6.591 6.591-15.459 9.527-24.087 8.868l-.48 3.235c9.588.78 19.474-2.456 26.843-9.826a34.48 34.48 0 004.794-5.992l-2.876-1.557c-1.139 1.857-2.517 3.595-4.194 5.272zm-43.38 0a29.902 29.902 0 01-1.857-2.037L7.76 55.531c.659.84 1.438 1.618 2.217 2.397 4.913 4.913 10.964 8.029 17.315 9.287l.48-3.235c-5.752-1.199-11.145-3.955-15.519-8.329z" stroke="#005D62" stroke-width="3.445" mask="url(#b)"/><path d="M20.642 56.37a28.83 28.83 0 01-1.738-1.138l-2.097 2.516c.66.48 1.378.959 2.157 1.378 5.093 2.996 10.725 4.315 16.237 4.075l-.36-3.236c-4.792.18-9.706-.959-14.2-3.595zm-9.168-35.71a20.993 20.993 0 011.618-2.396l-2.456-2.157c-.72.898-1.319 1.857-1.918 2.876-.839 1.378-1.498 2.875-2.097 4.313l3.116.959a28.325 28.325 0 011.737-3.595zm-2.936 7.37l-3.116-.959c-2.456 10.186.72 21.03 8.449 28.28l2.097-2.516C9.257 46.365 6.5 36.897 8.538 28.03zm28.88-19.952l.659-3.176C29.03 3.644 19.742 6.64 13.152 13.171l2.456 2.157c5.812-5.692 13.9-8.329 21.81-7.25zm9.826 3.415c4.973 2.936 8.568 7.25 10.665 12.163l3.116-1.079c-2.337-5.632-6.471-10.545-12.103-13.9-2.217-1.318-4.554-2.277-6.95-2.996l-.66 3.176a27.238 27.238 0 015.932 2.636zm12.403 26.962l3.175.78c.78-4.375.6-8.809-.539-13.003l-3.116 1.079a25.886 25.886 0 01.48 11.144zm-3.236 8.748a25.883 25.883 0 01-17.615 12.343l.36 3.235c8.088-1.438 15.578-6.291 20.071-13.96a31.564 31.564 0 002.637-5.812l-3.176-.779a33.578 33.578 0 01-2.277 4.973zm-30.377 6.651c-.66-.24-1.258-.54-1.858-.839l-1.737 2.756c.779.42 1.558.78 2.396 1.079a27.69 27.69 0 003.595 1.138l.48-3.236a26.48 26.48 0 01-2.876-.898z" stroke="#005D62" stroke-width="3.445" mask="url(#b)"/><path d="M53.895 41.81l-.54 1.259 2.817 1.677c.24-.539.54-1.138.779-1.677a24.718 24.718 0 001.318-13.721l-3.176.839c.66 3.774.3 7.789-1.198 11.623zM32.744 55.352l-.479 3.235c8.568.6 16.956-3.415 21.93-10.485l-2.817-1.678c-4.254 5.992-11.384 9.287-18.634 8.928zm9.108-41.402a21.362 21.362 0 0112.163 12.402l3.175-.839a24.968 24.968 0 00-14.14-14.62c-1.618-.658-3.235-1.078-4.853-1.377l-.3 3.235c1.318.3 2.636.72 3.955 1.198zM12.493 34.74l-3.295-.18c.24 7.49 3.834 14.62 9.946 19.114l1.737-2.756c-5.093-3.835-8.148-9.826-8.388-16.178zm21.51-22.289l.3-3.235c-3.536-.06-6.951.66-10.127 2.037l1.558 2.876a21.459 21.459 0 018.269-1.678zM13.99 25.993a21.347 21.347 0 018.21-10.066l-1.558-2.876a24.457 24.457 0 00-9.706 11.743 22.88 22.88 0 00-1.498 5.872l3.295.18c.18-1.618.6-3.236 1.259-4.853z" stroke="#005D62" stroke-width="3.445" mask="url(#b)"/><path d="M50.72 32.763l3.295.18c-.36-6.71-4.074-12.942-9.886-16.357l-1.378 2.996c4.613 2.816 7.609 7.789 7.968 13.181zm-33.494 3.176h-3.295c.3 2.576 1.019 5.093 2.277 7.37l2.756-1.798a16.346 16.346 0 01-1.738-5.572zm12.104 14.2c-3.356-.959-6.112-2.876-8.21-5.333l-2.696 1.798c2.517 3.115 5.932 5.452 10.067 6.65 1.497.42 2.995.66 4.493.72l-.18-3.296a16.805 16.805 0 01-3.475-.54zm7.369.419l.18 3.296c5.752-.839 10.964-4.194 14.14-9.167l-2.936-1.438c-2.636 3.834-6.83 6.53-11.384 7.31zM50.12 38.575l-.36 1.079 2.936 1.438c.18-.54.42-1.079.54-1.678.24-.899.42-1.738.539-2.636l-3.295-.18c0 .719-.18 1.318-.36 1.977zm-32.354-9.287c1.318-4.614 4.433-8.208 8.388-10.305l-1.198-3.056c-4.854 2.456-8.748 6.83-10.366 12.462-.36 1.199-.6 2.457-.66 3.715h3.296c.06-.959.24-1.917.54-2.816zm20.79-11.564c.18.06.42.12.6.18l1.378-2.996-1.079-.36a19.634 19.634 0 00-10.845-.06l1.199 3.056a17.356 17.356 0 018.747.18z" stroke="#005D62" stroke-width="3.445" mask="url(#b)"/><path d="M193.633 16.316v35.195-35.195z" fill="#005D62"/><path d="M193.633 16.316v35.195" stroke="#005D62" stroke-width=".872" stroke-miterlimit="10"/></g><defs><filter id="filter0_i_219_988" x="0" y="0" width="267.43" height="70.867" filterUnits="userSpaceOnUse" color-interpolation-filters="sRGB"><feFlood flood-opacity="0" result="BackgroundImageFix"/><feBlend in="SourceGraphic" in2="BackgroundImageFix" result="shape"/><feColorMatrix in="SourceAlpha" values="0 0 0 0 0 0 0 0 0 0 0 0 0 0 0 0 0 0 127 0" result="hardAlpha"/><feOffset dx="3" dy="3"/><feGaussianBlur stdDeviation="5.15"/><feComposite in2="hardAlpha" operator="arithmetic" k2="-1" k3="1"/><feColorMatrix values="0 0 0 0 0 0 0 0 0 0 0 0 0 0 0 0 0 0 0.25 0"/><feBlend in2="shape" result="effect1_innerShadow_219_988"/></filter></defs></svg>