<svg width="762" height="4" fill="none" xmlns="http://www.w3.org/2000/svg"><path d="M760 3.5a1.5 1.5 0 000-3v3zM0 3.5h3.016v-3H0v3zm9.048 0h6.031v-3H9.048v3zm12.063 0h6.032v-3H21.11v3zm12.064 0h6.031v-3h-6.031v3zm12.063 0h6.032v-3h-6.032v3zm12.064 0h6.031v-3h-6.031v3zm12.063 0h6.032v-3h-6.032v3zm12.064 0h6.031v-3h-6.03v3zm12.063 0h6.032v-3h-6.032v3zm12.064 0h6.031v-3h-6.031v3zm12.063 0h6.032v-3h-6.032v3zm12.064 0h6.031v-3h-6.031v3zm12.063 0h6.032v-3h-6.032v3zm12.063 0h6.032v-3h-6.032v3zm12.064 0h6.032v-3h-6.032v3zm12.063 0h6.032v-3h-6.032v3zM190 3.5h6.032v-3H190v3zm12.063 0h6.032v-3h-6.032v3zm12.064 0h6.032v-3h-6.032v3zm12.063 0h6.032v-3h-6.032v3zm12.064 0h6.032v-3h-6.032v3zm12.063 0h6.032v-3h-6.032v3zm12.064 0h6.032v-3h-6.032v3zm12.063 0h6.032v-3h-6.032v3zm12.064 0h6.031v-3h-6.031v3zm12.063 0h6.032v-3h-6.032v3zm12.064 0h6.031v-3h-6.031v3zm12.063 0h6.032v-3h-6.032v3zm12.064 0h6.031v-3h-6.031v3zm12.063 0h6.032v-3h-6.032v3zm12.064 0h6.031v-3h-6.031v3zm12.063 0h6.032v-3h-6.032v3zm12.064 0h6.031v-3h-6.031v3zm12.063 0h6.032v-3h-6.032v3zm12.064 0h6.031v-3h-6.031v3zm12.063 0h6.032v-3h-6.032v3zm12.063 0h6.032v-3h-6.032v3zm12.064 0h6.032v-3h-6.032v3zm12.063 0h6.032v-3h-6.032v3zm12.064 0h6.032v-3h-6.032v3zm12.063 0h6.032v-3h-6.032v3zm12.064 0h6.032v-3h-6.032v3zm12.063 0h6.032v-3h-6.032v3zm12.064 0h6.032v-3h-6.032v3zm12.063 0h6.032v-3h-6.032v3zm12.064 0h6.031v-3h-6.031v3zm12.063 0h6.032v-3h-6.032v3zm12.064 0h6.031v-3h-6.031v3zm12.063 0h6.032v-3h-6.032v3zm12.064 0h6.031v-3h-6.031v3zm12.063 0h6.032v-3h-6.032v3zm12.064 0h6.031v-3h-6.031v3zm12.063 0h6.032v-3h-6.032v3zm12.064 0h6.031v-3h-6.031v3zm12.063 0h6.032v-3h-6.032v3zm12.064 0h6.031v-3h-6.031v3zm12.063 0h6.032v-3h-6.032v3zm12.063 0h6.032v-3h-6.032v3zm12.064 0h6.032v-3h-6.032v3zm12.063 0h6.032v-3h-6.032v3zm12.064 0h6.032v-3h-6.032v3zm12.063 0h6.032v-3h-6.032v3zm12.064 0h6.032v-3h-6.032v3zm12.063 0H760v-3h-3.017v3z" fill="#E4E4E4"/></svg>