<svg width="228" height="60" fill="none" xmlns="http://www.w3.org/2000/svg"><g clip-path="url(#clip0_217_8818)"><g clip-path="url(#clip1_217_8818)"><g clip-path="url(#clip2_217_8818)"><mask id="a" style="mask-type:luminance" maskUnits="userSpaceOnUse" x="0" y="0" width="228" height="60"><path d="M228 0H0v60h228V0z" fill="#fff"/></mask><g mask="url(#a)"><path d="M93.495 19.878h-13.93l.052 23.791h-6.73V14.4h20.66l-.052 5.48zm22.748-4.226c1.931.887 3.392 2.087 4.435 3.705 1.044 1.565 1.565 3.495 1.565 5.634 0 2.14-.521 4.018-1.565 5.635-1.043 1.618-2.504 2.818-4.435 3.705-1.93.834-4.174 1.252-6.782 1.252h-5.896v8.087h-6.782V14.4h12.678c2.608-.052 4.904.365 6.782 1.252zm-2.452 13.044c1.044-.887 1.565-2.14 1.565-3.757 0-1.67-.521-2.922-1.565-3.808-1.043-.887-2.608-1.305-4.643-1.305h-5.531V30h5.531c2.035.052 3.548-.417 4.643-1.304zm38.714 14.921l-.053-17.53-8.608 14.452h-3.026l-8.609-14.087V43.67h-6.365V14.4h5.634l10.957 18.21 10.8-18.21h5.582l.052 29.27h-6.364v-.052z" fill="#005D62"/><g style="mix-blend-mode:multiply"><g style="mix-blend-mode:multiply"><path d="M188.139 15.287h-3.078v5.27h-.417v-5.635h3.495v.365z" fill="#333"/><path d="M188.139 15.287h-3.078v5.27h-.417v-5.635h3.495v.365z" stroke="#444" stroke-width=".522"/></g><g style="mix-blend-mode:multiply"><path d="M187.983 16.33h.417v3.6l2.974-3.6h.365v4.175h-.417v-3.6l-2.975 3.6h-.364V16.33z" fill="#333"/><path d="M187.983 16.33h.417v3.6l2.974-3.6h.365v4.175h-.417v-3.6l-2.975 3.6h-.364V16.33z" stroke="#444" stroke-width=".522"/></g><g style="mix-blend-mode:multiply"><path d="M196.747 16.33v4.175h-.417v-3.81h-2.191l-.053 1.096a38.454 38.454 0 01-.156 1.461c-.052.366-.156.73-.313.94-.156.26-.365.365-.626.365-.105 0-.208 0-.366-.052l.053-.366c.105 0 .157.052.208.052a.57.57 0 00.522-.313c.105-.208.209-.47.261-.834.053-.313.053-.73.105-1.253l.051-1.46h2.922z" fill="#333"/><path d="M196.747 16.33v4.175h-.417v-3.81h-2.191l-.053 1.096a38.454 38.454 0 01-.156 1.461c-.052.366-.156.73-.313.94-.156.26-.365.365-.626.365-.105 0-.208 0-.366-.052l.053-.366c.105 0 .157.052.208.052a.57.57 0 00.522-.313c.105-.208.209-.47.261-.834.053-.313.053-.73.105-1.253l.051-1.46h2.922z" stroke="#444" stroke-width=".522"/></g><g style="mix-blend-mode:multiply"><path d="M201.339 18.209c.261.209.417.521.417.991s-.156.783-.417 1.044c-.313.26-.73.365-1.252.365h-1.565v-4.174h.417v1.513h1.253c.469-.052.886.052 1.147.26zm-.313 1.774c.21-.157.313-.418.313-.783 0-.313-.103-.574-.313-.73-.209-.157-.521-.261-.99-.261h-1.149v2.035h1.149c.417 0 .781-.105.99-.261z" fill="#333"/><path d="M201.339 18.209c.261.209.417.521.417.991s-.156.783-.417 1.044c-.313.26-.73.365-1.252.365h-1.565v-4.174h.417v1.513h1.253c.469-.052.886.052 1.147.26zm-.313 1.774c.21-.157.313-.418.313-.783 0-.313-.103-.574-.313-.73-.209-.157-.521-.261-.99-.261h-1.149v2.035h1.149c.417 0 .781-.105.99-.261z" stroke="#444" stroke-width=".522"/></g><g style="mix-blend-mode:multiply"><path d="M206.713 20.191V21.6h-.366v-1.044h-3.964V21.6h-.366v-1.409h.261c.261 0 .469-.26.574-.678.105-.417.156-1.044.209-1.774l.052-1.356h2.975v3.86h.625v-.052zm-3.496-.834c-.104.417-.209.73-.417.834h2.817v-3.495h-2.19l-.053 1.043c0 .626-.052 1.2-.157 1.617z" fill="#333"/><path d="M206.713 20.191V21.6h-.366v-1.044h-3.964V21.6h-.366v-1.409h.261c.261 0 .469-.26.574-.678.105-.417.156-1.044.209-1.774l.052-1.356h2.975v3.86h.625v-.052zm-3.496-.834c-.104.417-.209.73-.417.834h2.817v-3.495h-2.19l-.053 1.043c0 .626-.052 1.2-.157 1.617z" stroke="#444" stroke-width=".522"/></g><g style="mix-blend-mode:multiply"><path d="M207.861 16.33h.417v3.6l2.975-3.6h.364v4.175h-.417v-3.6l-2.974 3.6h-.365V16.33z" fill="#333"/><path d="M207.861 16.33h.417v3.6l2.975-3.6h.364v4.175h-.417v-3.6l-2.974 3.6h-.365V16.33z" stroke="#444" stroke-width=".522"/></g><g style="mix-blend-mode:multiply"><path d="M216.469 16.33v4.175h-.364v-1.461h-1.617l-1.044 1.46h-.417l1.095-1.513c-.365-.052-.626-.208-.782-.417a1.44 1.44 0 01-.261-.835c0-.47.156-.782.47-1.043.312-.261.73-.365 1.251-.365h1.669zm-1.72 2.453h1.356v-2.087H214.8c-.887 0-1.356.365-1.356 1.043 0 .678.417 1.044 1.305 1.044z" fill="#333"/><path d="M216.469 16.33v4.175h-.364v-1.461h-1.617l-1.044 1.46h-.417l1.095-1.513c-.365-.052-.626-.208-.782-.417a1.44 1.44 0 01-.261-.835c0-.47.156-.782.47-1.043.312-.261.73-.365 1.251-.365h1.669zm-1.72 2.453h1.356v-2.087H214.8c-.887 0-1.356.365-1.356 1.043 0 .678.417 1.044 1.305 1.044z" stroke="#444" stroke-width=".522"/></g><g style="mix-blend-mode:multiply"><path d="M187.669 27.809c.314.156.575.417.731.73a2.432 2.432 0 010 2.191 1.642 1.642 0 01-.731.73 2.369 2.369 0 01-1.044.262c-.364 0-.73-.105-.989-.261-.314-.157-.522-.417-.68-.73v2.504h-.417v-5.74h.366v.992c.156-.313.417-.574.678-.73.312-.157.626-.261.992-.261.469.052.781.156 1.094.313zm-.208 3.443a1.79 1.79 0 00.625-.626c.158-.26.209-.574.209-.939s-.051-.626-.209-.94a1.791 1.791 0 00-.625-.625c-.261-.157-.522-.209-.886-.209-.314 0-.627.052-.888.209-.261.156-.47.365-.626.626-.156.26-.208.574-.208.939s.052.626.208.94c.156.26.365.469.626.625.261.157.522.209.888.209.364 0 .625-.104.886-.209z" fill="#333"/><path d="M187.669 27.809c.314.156.575.417.731.73a2.432 2.432 0 010 2.191 1.642 1.642 0 01-.731.73 2.369 2.369 0 01-1.044.262c-.364 0-.73-.105-.989-.261-.314-.157-.522-.417-.68-.73v2.504h-.417v-5.74h.366v.992c.156-.313.417-.574.678-.73.312-.157.626-.261.992-.261.469.052.781.156 1.094.313zm-.208 3.443a1.79 1.79 0 00.625-.626c.158-.26.209-.574.209-.939s-.051-.626-.209-.94a1.791 1.791 0 00-.625-.625c-.261-.157-.522-.209-.886-.209-.314 0-.627.052-.888.209-.261.156-.47.365-.626.626-.156.26-.208.574-.208.939s.052.626.208.94c.156.26.365.469.626.625.261.157.522.209.888.209.364 0 .625-.104.886-.209z" stroke="#444" stroke-width=".522"/></g><g style="mix-blend-mode:multiply"><path d="M190.017 27.6h.419v3.6l2.973-3.6h.366v4.174h-.417v-3.6l-2.975 3.6h-.366V27.6z" fill="#333"/><path d="M190.017 27.6h.419v3.6l2.973-3.6h.366v4.174h-.417v-3.6l-2.975 3.6h-.366V27.6z" stroke="#444" stroke-width=".522"/></g><g style="mix-blend-mode:multiply"><path d="M197.583 27.809c.314.208.575.417.783.782.209.313.312.678.312 1.096 0 .417-.103.782-.312 1.096a2.777 2.777 0 01-.783.782c-.313.209-.678.261-1.096.261a2.94 2.94 0 01-.939-.157 2.2 2.2 0 01-.731-.469l.21-.26c.365.312.834.52 1.409.52.312 0 .625-.051.886-.208.261-.156.47-.365.678-.574.158-.26.261-.521.261-.835h-2.348v-.313h2.348a2.293 2.293 0 00-.313-.834c-.156-.261-.365-.418-.626-.574-.261-.157-.574-.209-.886-.209-.575 0-1.044.157-1.409.522l-.21-.209a1.79 1.79 0 01.731-.47c.261-.104.574-.156.939-.156.418-.052.783.052 1.096.209z" fill="#333"/><path d="M197.583 27.809c.314.208.575.417.783.782.209.313.312.678.312 1.096 0 .417-.103.782-.312 1.096a2.777 2.777 0 01-.783.782c-.313.209-.678.261-1.096.261a2.94 2.94 0 01-.939-.157 2.2 2.2 0 01-.731-.469l.21-.26c.365.312.834.52 1.409.52.312 0 .625-.051.886-.208.261-.156.47-.365.678-.574.158-.26.261-.521.261-.835h-2.348v-.313h2.348a2.293 2.293 0 00-.313-.834c-.156-.261-.365-.418-.626-.574-.261-.157-.574-.209-.886-.209-.575 0-1.044.157-1.409.522l-.21-.209a1.79 1.79 0 01.731-.47c.261-.104.574-.156.939-.156.418-.052.783.052 1.096.209z" stroke="#444" stroke-width=".522"/></g><g style="mix-blend-mode:multiply"><path d="M203.218 27.6v4.174h-.418v-3.809h-2.192l-.051 1.096a40.341 40.341 0 01-.157 1.46c-.052.418-.156.731-.312.94-.158.26-.366.365-.627.365-.104 0-.209 0-.365-.052l.051-.365c.105 0 .158.052.21.052a.572.572 0 00.521-.313c.105-.209.21-.47.261-.835.052-.313.052-.73.105-1.252l.053-1.46h2.921z" fill="#333"/><path d="M203.218 27.6v4.174h-.418v-3.809h-2.192l-.051 1.096a40.341 40.341 0 01-.157 1.46c-.052.418-.156.731-.312.94-.158.26-.366.365-.627.365-.104 0-.209 0-.365-.052l.051-.365c.105 0 .158.052.21.052a.572.572 0 00.521-.313c.105-.209.21-.47.261-.835.052-.313.052-.73.105-1.252l.053-1.46h2.921z" stroke="#444" stroke-width=".522"/></g><g style="mix-blend-mode:multiply"><path d="M207.757 27.965h-1.618v3.809h-.417v-3.809h-1.617V27.6h3.703v.365h-.051z" fill="#333"/><path d="M207.757 27.965h-1.618v3.809h-.417v-3.809h-1.617V27.6h3.703v.365h-.051z" stroke="#444" stroke-width=".522"/></g><g style="mix-blend-mode:multiply"><path d="M209.008 31.565a1.54 1.54 0 01-.73-.782 2.432 2.432 0 010-2.192c.157-.313.418-.573.73-.782.314-.157.68-.26 1.097-.26.417 0 .73.103 1.095.26.313.156.574.417.73.782.158.313.261.679.261 1.096 0 .418-.103.783-.261 1.096-.156.313-.417.574-.73.782a2.434 2.434 0 01-2.192 0zm1.931-.313a1.81 1.81 0 00.627-.626c.156-.26.208-.574.208-.939s-.052-.626-.208-.939a1.811 1.811 0 00-.627-.626c-.261-.157-.522-.209-.887-.209-.313 0-.625.052-.886.209-.261.156-.47.365-.627.626-.156.26-.209.574-.209.94 0 .364.053.625.209.938.157.261.366.47.627.626.261.157.522.21.886.21.365 0 .626-.105.887-.21z" fill="#333"/><path d="M209.008 31.565a1.54 1.54 0 01-.73-.782 2.432 2.432 0 010-2.192c.157-.313.418-.573.73-.782.314-.157.68-.26 1.097-.26.417 0 .73.103 1.095.26.313.156.574.417.73.782.158.313.261.679.261 1.096 0 .418-.103.783-.261 1.096-.156.313-.417.574-.73.782a2.434 2.434 0 01-2.192 0zm1.931-.313a1.81 1.81 0 00.627-.626c.156-.26.208-.574.208-.939s-.052-.626-.208-.939a1.811 1.811 0 00-.627-.626c-.261-.157-.522-.209-.887-.209-.313 0-.625.052-.886.209-.261.156-.47.365-.627.626-.156.26-.209.574-.209.94 0 .364.053.625.209.938.157.261.366.47.627.626.261.157.522.21.886.21.365 0 .626-.105.887-.21z" stroke="#444" stroke-width=".522"/></g><g style="mix-blend-mode:multiply"><path d="M216.678 27.809c.313.156.574.417.73.73.158.313.261.678.261 1.096 0 .417-.103.782-.261 1.095a1.645 1.645 0 01-.73.73 2.371 2.371 0 01-1.043.262 2 2 0 01-.991-.261c-.314-.157-.522-.417-.678-.73v2.504h-.419v-5.74h.366v.992c.156-.313.417-.574.678-.73.314-.157.626-.261.992-.261a3.38 3.38 0 011.095.313zm-.209 3.443c.261-.156.47-.365.626-.626.157-.26.21-.574.21-.939s-.053-.626-.21-.94a1.794 1.794 0 00-.626-.625c-.261-.157-.522-.209-.886-.209-.314 0-.627.052-.888.209-.26.156-.47.365-.626.626-.156.26-.208.574-.208.939s.052.626.208.94c.156.26.366.469.626.625.261.157.522.209.888.209.312 0 .625-.104.886-.209z" fill="#333"/><path d="M216.678 27.809c.313.156.574.417.73.73.158.313.261.678.261 1.096 0 .417-.103.782-.261 1.095a1.645 1.645 0 01-.73.73 2.371 2.371 0 01-1.043.262 2 2 0 01-.991-.261c-.314-.157-.522-.417-.678-.73v2.504h-.419v-5.74h.366v.992c.156-.313.417-.574.678-.73.314-.157.626-.261.992-.261a3.38 3.38 0 011.095.313zm-.209 3.443c.261-.156.47-.365.626-.626.157-.26.21-.574.21-.939s-.053-.626-.21-.94a1.794 1.794 0 00-.626-.625c-.261-.157-.522-.209-.886-.209-.314 0-.627.052-.888.209-.26.156-.47.365-.626.626-.156.26-.208.574-.208.939s.052.626.208.94c.156.26.366.469.626.625.261.157.522.209.888.209.312 0 .625-.104.886-.209z" stroke="#444" stroke-width=".522"/></g><g style="mix-blend-mode:multiply"><path d="M219.6 31.565a1.535 1.535 0 01-.73-.782 2.432 2.432 0 010-2.192c.157-.313.417-.573.73-.782.314-.157.678-.26 1.097-.26.417 0 .73.103 1.095.26.313.156.574.417.73.782a2.432 2.432 0 010 2.192c-.156.313-.417.574-.73.782a2.426 2.426 0 01-2.192 0zm1.931-.313c.261-.156.469-.365.625-.626.158-.26.21-.574.21-.939s-.052-.626-.21-.939a1.789 1.789 0 00-.625-.626c-.261-.157-.522-.209-.887-.209-.313 0-.627.052-.888.209a1.806 1.806 0 00-.625.626c-.156.26-.209.574-.209.94 0 .364.053.625.209.938.156.261.366.47.625.626.261.157.522.21.888.21.365 0 .626-.105.887-.21z" fill="#333"/><path d="M219.6 31.565a1.535 1.535 0 01-.73-.782 2.432 2.432 0 010-2.192c.157-.313.417-.573.73-.782.314-.157.678-.26 1.097-.26.417 0 .73.103 1.095.26.313.156.574.417.73.782a2.432 2.432 0 010 2.192c-.156.313-.417.574-.73.782a2.426 2.426 0 01-2.192 0zm1.931-.313c.261-.156.469-.365.625-.626.158-.26.21-.574.21-.939s-.052-.626-.21-.939a1.789 1.789 0 00-.625-.626c-.261-.157-.522-.209-.887-.209-.313 0-.627.052-.888.209a1.806 1.806 0 00-.625.626c-.156.26-.209.574-.209.94 0 .364.053.625.209.938.156.261.366.47.625.626.261.157.522.21.888.21.365 0 .626-.105.887-.21z" stroke="#444" stroke-width=".522"/></g><g style="mix-blend-mode:multiply"><path d="M227.478 30.678c0 .366-.156.626-.417.835-.261.209-.678.313-1.2.313h-1.827v-4.174h1.774c.47 0 .836.104 1.095.261.261.209.419.47.419.783 0 .26-.053.47-.209.626-.157.156-.313.26-.574.365.625.052.939.365.939.991zm-3.026-1.2h1.356c.366 0 .626-.052.836-.208.208-.157.312-.314.312-.574 0-.261-.104-.47-.261-.574-.209-.157-.469-.209-.834-.209h-1.357v1.565h-.052zm2.609 1.148c0-.26-.105-.47-.261-.626-.209-.157-.469-.209-.835-.209h-1.461v1.618h1.409c.782.052 1.148-.21 1.148-.783z" fill="#333"/><path d="M227.478 30.678c0 .366-.156.626-.417.835-.261.209-.678.313-1.2.313h-1.827v-4.174h1.774c.47 0 .836.104 1.095.261.261.209.419.47.419.783 0 .26-.053.47-.209.626-.157.156-.313.26-.574.365.625.052.939.365.939.991zm-3.026-1.2h1.356c.366 0 .626-.052.836-.208.208-.157.312-.314.312-.574 0-.261-.104-.47-.261-.574-.209-.157-.469-.209-.834-.209h-1.357v1.565h-.052zm2.609 1.148c0-.26-.105-.47-.261-.626-.209-.157-.469-.209-.835-.209h-1.461v1.618h1.409c.782.052 1.148-.21 1.148-.783z" stroke="#444" stroke-width=".522"/></g><g style="mix-blend-mode:multiply"><path d="M189.966 43.044v-4.8l-2.349 4.07h-.209l-2.347-4.07v4.8h-.417v-5.635h.364l2.505 4.33 2.504-4.33h.313v5.635h-.364z" fill="#333"/><path d="M189.966 43.044v-4.8l-2.349 4.07h-.209l-2.347-4.07v4.8h-.417v-5.635h.364l2.505 4.33 2.504-4.33h.313v5.635h-.364z" stroke="#444" stroke-width=".522"/></g><g style="mix-blend-mode:multiply"><path d="M192.887 42.783a1.545 1.545 0 01-.731-.783 2.432 2.432 0 010-2.191c.158-.313.419-.574.731-.783.313-.156.678-.26 1.096-.26.417 0 .731.104 1.095.26.314.157.575.417.731.783a2.432 2.432 0 010 2.191c-.156.313-.417.574-.731.783a2.43 2.43 0 01-1.095.26c-.418 0-.783-.051-1.096-.26zm1.93-.313c.261-.157.47-.365.627-.627.156-.26.209-.573.209-.939 0-.365-.053-.626-.209-.939a1.803 1.803 0 00-.627-.626c-.261-.156-.522-.208-.886-.208-.314 0-.626.052-.887.208a1.811 1.811 0 00-.627.626c-.156.261-.208.574-.208.94 0 .365.052.626.208.938.158.261.366.47.627.627.261.156.521.208.887.208.313 0 .625-.052.886-.208z" fill="#333"/><path d="M192.887 42.783a1.545 1.545 0 01-.731-.783 2.432 2.432 0 010-2.191c.158-.313.419-.574.731-.783.313-.156.678-.26 1.096-.26.417 0 .731.104 1.095.26.314.157.575.417.731.783a2.432 2.432 0 010 2.191c-.156.313-.417.574-.731.783a2.43 2.43 0 01-1.095.26c-.418 0-.783-.051-1.096-.26zm1.93-.313c.261-.157.47-.365.627-.627.156-.26.209-.573.209-.939 0-.365-.053-.626-.209-.939a1.803 1.803 0 00-.627-.626c-.261-.156-.522-.208-.886-.208-.314 0-.626.052-.887.208a1.811 1.811 0 00-.627.626c-.156.261-.208.574-.208.94 0 .365.052.626.208.938.158.261.366.47.627.627.261.156.521.208.887.208.313 0 .625-.052.886-.208z" stroke="#444" stroke-width=".522"/></g><g style="mix-blend-mode:multiply"><path d="M197.949 42.783a1.53 1.53 0 01-.73-.783c-.158-.365-.261-.678-.261-1.095 0-.418.103-.783.261-1.096.156-.313.417-.574.73-.73a2.42 2.42 0 011.095-.261c.314 0 .626.052.939.208.261.157.522.313.678.574l-.312.209c-.157-.209-.313-.365-.574-.47a1.669 1.669 0 00-.731-.156c-.313 0-.625.052-.886.209-.261.156-.47.365-.627.626-.156.26-.209.574-.209.939s.053.678.209.939c.157.26.366.47.627.626.261.157.573.209.886.209.261 0 .522-.053.731-.157.208-.104.417-.26.574-.47l.312.21c-.156.26-.417.417-.678.573-.261.157-.574.209-.939.209-.417-.052-.783-.104-1.095-.313z" fill="#333"/><path d="M197.949 42.783a1.53 1.53 0 01-.73-.783c-.158-.365-.261-.678-.261-1.095 0-.418.103-.783.261-1.096.156-.313.417-.574.73-.73a2.42 2.42 0 011.095-.261c.314 0 .626.052.939.208.261.157.522.313.678.574l-.312.209c-.157-.209-.313-.365-.574-.47a1.669 1.669 0 00-.731-.156c-.313 0-.625.052-.886.209-.261.156-.47.365-.627.626-.156.26-.209.574-.209.939s.053.678.209.939c.157.26.366.47.627.626.261.157.573.209.886.209.261 0 .522-.053.731-.157.208-.104.417-.26.574-.47l.312.21c-.156.26-.417.417-.678.573-.261.157-.574.209-.939.209-.417-.052-.783-.104-1.095-.313z" stroke="#444" stroke-width=".522"/></g><g style="mix-blend-mode:multiply"><path d="M203.217 41.061h-1.043v1.93h-.418v-4.173h.418v1.878h1.043l1.566-1.878h.417l-1.722 2.034 1.827 2.14h-.47l-1.618-1.931z" fill="#333"/><path d="M203.217 41.061h-1.043v1.93h-.418v-4.173h.418v1.878h1.043l1.566-1.878h.417l-1.722 2.034 1.827 2.14h-.47l-1.618-1.931z" stroke="#444" stroke-width=".522"/></g><g style="mix-blend-mode:multiply"><path d="M209.792 41.896c0 .365-.158.626-.417.834-.261.21-.68.314-1.2.314h-1.827V38.87h1.774c.47 0 .834.104 1.095.26.261.21.417.47.417.783 0 .261-.051.47-.208.626a1.534 1.534 0 01-.573.365c.625.053.939.418.939.992zm-3.027-1.148h1.357c.365 0 .626-.052.834-.209.209-.156.314-.313.314-.574 0-.26-.105-.47-.261-.574-.209-.156-.47-.208-.834-.208h-1.358v1.565h-.052zm2.61 1.148a.865.865 0 00-.261-.626c-.209-.157-.47-.209-.836-.209h-1.461v1.617h1.409c.783 0 1.149-.26 1.149-.782z" fill="#333"/><path d="M209.792 41.896c0 .365-.158.626-.417.834-.261.21-.68.314-1.2.314h-1.827V38.87h1.774c.47 0 .834.104 1.095.26.261.21.417.47.417.783 0 .261-.051.47-.208.626a1.534 1.534 0 01-.573.365c.625.053.939.418.939.992zm-3.027-1.148h1.357c.365 0 .626-.052.834-.209.209-.156.314-.313.314-.574 0-.26-.105-.47-.261-.574-.209-.156-.47-.208-.834-.208h-1.358v1.565h-.052zm2.61 1.148a.865.865 0 00-.261-.626c-.209-.157-.47-.209-.836-.209h-1.461v1.617h1.409c.783 0 1.149-.26 1.149-.782z" stroke="#444" stroke-width=".522"/></g><g style="mix-blend-mode:multiply"><path d="M214.069 40.696c.261.209.417.522.417.991 0 .47-.156.783-.417 1.044-.312.26-.73.365-1.252.365h-1.564v-4.174h.417v1.513h1.252c.469-.052.886.052 1.147.26zm-.312 1.774c.209-.157.312-.418.312-.783 0-.313-.103-.574-.312-.73-.21-.157-.522-.261-.991-.261h-1.149v2.035h1.149c.417 0 .73-.105.991-.261zm1.46-3.652h.418v4.174h-.418v-4.174z" fill="#333"/><path d="M214.069 40.696c.261.209.417.522.417.991 0 .47-.156.783-.417 1.044-.312.26-.73.365-1.252.365h-1.564v-4.174h.417v1.513h1.252c.469-.052.886.052 1.147.26zm-.312 1.774c.209-.157.312-.418.312-.783 0-.313-.103-.574-.312-.73-.21-.157-.522-.261-.991-.261h-1.149v2.035h1.149c.417 0 .73-.105.991-.261zm1.46-3.652h.418v4.174h-.418v-4.174z" stroke="#444" stroke-width=".522"/></g></g><path d="M171.703 13.774V44.19" stroke="#444" stroke-width=".522" stroke-miterlimit="10"/><path d="M48.94 11.06c4.226 4.227 6.782 9.549 7.565 15.08l2.817-.21a29.757 29.757 0 00-8.348-16.904 30.303 30.303 0 00-6.26-4.8L43.46 6.783a28.264 28.264 0 015.479 4.278z" fill="#223334"/><path d="M11.165 11.06c.783-.782 1.566-1.512 2.4-2.138l-1.617-2.348c-.991.783-1.93 1.565-2.817 2.504-1.253 1.253-2.296 2.557-3.287 3.913l2.4 1.513c.887-1.252 1.826-2.4 2.921-3.443z" fill="#00A48A"/><path d="M54.261 41.27l2.504 1.356c1.983-4.174 2.922-8.765 2.818-13.304l-2.818.208a27.016 27.016 0 01-2.504 11.74zM40.383 5.322l1.252-2.557C32.974-.887 22.957-.26 14.765 4.644l1.618 2.347c7.304-4.33 16.278-4.904 24-1.67z" fill="#005D62"/><path d="M6.47 17.374l-2.4-1.513c-5.114 9.443-4.748 21.078 1.147 30.156l2.296-1.67c-5.218-8.19-5.53-18.52-1.044-26.973zm42.47 31.513c-5.74 5.74-13.462 8.296-20.975 7.722l-.417 2.817c8.348.678 16.956-2.139 23.374-8.556a30.025 30.025 0 004.174-5.218l-2.505-1.356c-.991 1.617-2.191 3.13-3.652 4.591z" fill="#223334"/><path d="M11.165 48.887a26.062 26.062 0 01-1.617-1.774l-2.296 1.67c.574.73 1.253 1.408 1.93 2.087 4.28 4.278 9.549 6.99 15.08 8.086l.417-2.817c-5.01-1.043-9.705-3.443-13.513-7.252z" fill="#00A48A"/><path d="M18.47 49.513a25.05 25.05 0 01-1.513-.991l-1.826 2.191c.574.417 1.2.835 1.878 1.2 4.435 2.609 9.34 3.757 14.14 3.548l-.314-2.817a22.666 22.666 0 01-12.365-3.13z" fill="#223334"/><path d="M10.487 18.417c.418-.73.887-1.408 1.409-2.087l-2.14-1.878c-.625.783-1.147 1.618-1.669 2.504-.73 1.2-1.304 2.505-1.826 3.757l2.713.835c.418-1.044.94-2.14 1.513-3.13z" fill="#00A48A"/><path d="M7.93 24.835L5.217 24a25.586 25.586 0 007.357 24.626l1.826-2.191c-5.844-5.635-8.244-13.879-6.47-21.6z" fill="#005D62"/><path d="M33.078 7.461l.574-2.765c-7.878-1.096-15.965 1.513-21.704 7.2l2.139 1.878c5.06-4.956 12.104-7.252 18.991-6.313z" fill="#1C3B40"/><path d="M41.635 10.435a22.473 22.473 0 019.287 10.591l2.713-.939C51.6 15.183 48 10.905 43.095 7.983 41.166 6.835 39.13 6 37.044 5.374l-.574 2.765a23.729 23.729 0 015.166 2.296zm10.8 23.478l2.765.678c.678-3.808.522-7.67-.47-11.322l-2.713.94c.835 3.13.992 6.47.418 9.704z" fill="#213030"/><path d="M49.617 41.53a22.538 22.538 0 01-15.339 10.748l.313 2.818c7.044-1.253 13.565-5.479 17.478-12.157a27.478 27.478 0 002.296-5.06L51.6 37.2a29.234 29.234 0 01-1.983 4.33zm-26.452 5.792c-.574-.209-1.095-.47-1.617-.73l-1.513 2.4c.678.365 1.356.678 2.087.939 1.043.417 2.087.73 3.13.99l.418-2.817a23.14 23.14 0 01-2.505-.782z" fill="#1C3B40"/><path d="M47.426 36.835l-.47 1.096 2.453 1.46c.209-.47.47-.99.678-1.46a21.524 21.524 0 001.148-11.948l-2.765.73c.574 3.287.26 6.783-1.044 10.122zM29.009 48.626l-.418 2.817c7.461.522 14.765-2.974 19.096-9.13l-2.452-1.46c-3.705 5.216-9.913 8.086-16.226 7.773z" fill="#005D62"/><path d="M36.939 12.574a18.602 18.602 0 0110.591 10.8l2.765-.73A21.742 21.742 0 0037.982 9.912c-1.408-.574-2.817-.94-4.226-1.2l-.26 2.817c1.147.261 2.295.626 3.443 1.044z" fill="#00A48A"/><path d="M11.374 30.678l-2.87-.156c.21 6.521 3.34 12.73 8.661 16.643l1.513-2.4c-4.434-3.339-7.095-8.556-7.304-14.087z" fill="#1C3B40"/><path d="M30.104 11.27l.261-2.818a21.156 21.156 0 00-8.817 1.774l1.356 2.504a18.686 18.686 0 017.2-1.46z" fill="#005D62"/><path d="M12.678 23.06a18.589 18.589 0 017.148-8.764l-1.357-2.505a21.296 21.296 0 00-8.452 10.226 19.925 19.925 0 00-1.304 5.113l2.87.157a15.796 15.796 0 011.095-4.226z" fill="#213030"/><path d="M44.661 28.957l2.87.156c-.313-5.843-3.548-11.27-8.61-14.243l-1.2 2.608c4.018 2.452 6.627 6.783 6.94 11.479z" fill="#223334"/><path d="M15.496 31.722h-2.87c.261 2.243.887 4.434 1.983 6.417l2.4-1.565a14.23 14.23 0 01-1.513-4.852z" fill="#005D62"/><path d="M26.035 44.087c-2.922-.835-5.322-2.505-7.148-4.644l-2.348 1.566c2.191 2.713 5.165 4.747 8.765 5.791 1.305.365 2.609.574 3.913.626l-.156-2.87a14.629 14.629 0 01-3.026-.47z" fill="#213030"/><path d="M32.452 44.452l.157 2.87c5.008-.73 9.547-3.652 12.313-7.983l-2.557-1.252c-2.296 3.34-5.948 5.687-9.913 6.365z" fill="#00A48A"/><path d="M44.139 34.017l-.313.94 2.556 1.252c.157-.47.366-.94.47-1.461a17.89 17.89 0 00.47-2.296l-2.87-.156c0 .626-.157 1.148-.313 1.721z" fill="#1C3B40"/><path d="M15.965 25.93c1.148-4.017 3.861-7.147 7.305-8.973l-1.044-2.661C18 16.435 14.61 20.244 13.2 25.148a13.58 13.58 0 00-.574 3.235h2.87a9.71 9.71 0 01.47-2.453z" fill="#005D62"/><path d="M34.07 15.86c.156.053.365.105.521.157l1.2-2.608-.939-.313a17.097 17.097 0 00-9.443-.053l1.043 2.661a15.11 15.11 0 017.618.157z" fill="#1C3B40"/></g></g></g></g><defs><clipPath id="clip0_217_8818"><path fill="#fff" d="M0 0h228v60H0z"/></clipPath><clipPath id="clip1_217_8818"><path fill="#fff" d="M0 0h228v60H0z"/></clipPath><clipPath id="clip2_217_8818"><path fill="#fff" d="M0 0h228v60H0z"/></clipPath></defs></svg>