<svg width="216" height="50" fill="none" xmlns="http://www.w3.org/2000/svg"><path d="M81.48 16.457H69.275l.045 20.129h-5.896V11.822h18.101l-.045 4.635zm19.93-3.576c1.691.75 2.971 1.766 3.885 3.134.915 1.325 1.372 2.958 1.372 4.768 0 1.81-.457 3.399-1.372 4.767-.914 1.369-2.194 2.384-3.885 3.134-1.691.706-3.657 1.06-5.942 1.06h-5.166v6.842H84.36V11.822h11.108c2.285-.044 4.296.309 5.942 1.06zm-2.148 11.036c.914-.75 1.371-1.81 1.371-3.178 0-1.413-.457-2.472-1.371-3.223-.915-.75-2.286-1.103-4.069-1.103h-4.845v8.607h4.845c1.783.045 3.109-.353 4.069-1.103zm33.918 12.624l-.046-14.831-7.543 12.227h-2.651l-7.542-11.918v14.567h-5.577V11.822h4.937l9.599 15.405 9.463-15.405h4.89l.046 24.764h-5.576v-.045zM42.443 8.997c3.703 3.575 5.943 8.078 6.628 12.757l2.468-.177c-.73-5.208-3.2-10.285-7.313-14.302a26.471 26.471 0 00-5.486-4.06l-1.097 2.162a24.666 24.666 0 014.8 3.62zm-33.095 0c.686-.662 1.371-1.28 2.103-1.81l-1.417-1.986c-.869.662-1.691 1.324-2.469 2.118-1.097 1.06-2.01 2.163-2.88 3.311l2.103 1.28c.777-1.06 1.6-2.03 2.56-2.913zm37.758 25.558l2.194 1.148a24.244 24.244 0 002.468-11.256l-2.468.176a22.196 22.196 0 01-2.194 9.932zM34.946 4.141l1.097-2.163c-7.588-3.09-16.364-2.56-23.54 1.59l1.416 1.986c6.4-3.664 14.262-4.15 21.027-1.413zM5.234 14.338l-2.103-1.28c-4.48 7.99-4.16 17.833 1.006 25.514l2.011-1.413c-4.571-6.93-4.845-15.67-.914-22.821zM42.443 41c-5.028 4.855-11.794 7.018-18.376 6.533l-.366 2.384c7.314.573 14.856-1.81 20.479-7.24a25.581 25.581 0 003.657-4.414l-2.194-1.148c-.869 1.369-1.92 2.649-3.2 3.885zM9.348 41a22.35 22.35 0 01-1.417-1.501L5.92 40.911c.503.619 1.097 1.192 1.691 1.766a26.017 26.017 0 0013.21 6.842l.366-2.383C16.8 46.253 12.685 44.222 9.348 41z" fill="#fff"/><path d="M15.748 41.53a21.61 21.61 0 01-1.326-.84l-1.6 1.855c.503.353 1.052.706 1.646 1.015a23.083 23.083 0 0012.388 3.002l-.275-2.384a20.415 20.415 0 01-10.833-2.648zM8.754 15.22a15.44 15.44 0 011.234-1.765l-1.874-1.589c-.548.662-1.006 1.369-1.463 2.119-.64 1.015-1.142 2.119-1.6 3.178l2.377.706a20.56 20.56 0 011.326-2.648zm-2.24 5.43l-2.377-.706c-1.874 7.504.548 15.494 6.445 20.835l1.6-1.854C7.062 34.158 4.96 27.183 6.514 20.65zM28.546 5.951l.503-2.34c-6.902-.926-13.987 1.28-19.015 6.092l1.874 1.59c4.434-4.194 10.605-6.136 16.638-5.342zm7.497 2.516c3.794 2.163 6.537 5.341 8.137 8.961l2.377-.795c-1.783-4.149-4.937-7.769-9.234-10.24-1.691-.972-3.474-1.678-5.302-2.208l-.503 2.34a21.17 21.17 0 014.525 1.942zm9.462 19.864l2.423.574c.594-3.222.457-6.489-.411-9.579l-2.377.795c.731 2.648.868 5.473.365 8.21zm-2.468 6.445c-3.017 4.944-8 8.122-13.44 9.093l.275 2.384c6.171-1.06 11.885-4.635 15.313-10.285a22.869 22.869 0 002.012-4.282l-2.423-.574a24.328 24.328 0 01-1.737 3.664zm-23.176 4.9c-.502-.177-.96-.398-1.417-.618l-1.325 2.03c.594.31 1.188.574 1.828.795.915.353 1.829.618 2.743.838l.366-2.383a20.766 20.766 0 01-2.195-.662z" fill="#fff"/><path d="M41.117 30.803l-.411.927 2.148 1.236c.183-.397.412-.839.595-1.236a17.628 17.628 0 001.005-10.109l-2.422.619c.502 2.78.228 5.738-.915 8.563zm-16.136 9.976l-.366 2.384c6.537.441 12.937-2.516 16.73-7.725l-2.148-1.236c-3.245 4.414-8.685 6.842-14.216 6.577zm6.949-30.502c4.479 1.722 7.724 5.12 9.278 9.137l2.423-.618c-1.783-4.723-5.577-8.74-10.788-10.77-1.234-.486-2.468-.795-3.702-1.016l-.229 2.384c1.006.22 2.012.53 3.017.883zM9.531 25.594l-2.514-.132a18.025 18.025 0 007.588 14.081l1.326-2.03c-3.886-2.825-6.217-7.24-6.4-11.919zm16.41-16.421l.229-2.383a19.104 19.104 0 00-7.726 1.5l1.19 2.12a16.874 16.874 0 016.307-1.237zM10.674 19.15a15.859 15.859 0 016.262-7.416l-1.189-2.12c-3.245 1.987-5.896 4.945-7.405 8.653A16.39 16.39 0 007.2 22.593l2.515.132a12.99 12.99 0 01.96-3.576z" fill="#fff"/><path d="M38.695 24.138l2.514.132c-.275-4.944-3.109-9.535-7.543-12.05l-1.051 2.206c3.52 2.075 5.805 5.739 6.08 9.712zm-25.553 2.339h-2.514c.229 1.898.777 3.752 1.737 5.43l2.103-1.325a11.748 11.748 0 01-1.326-4.105zm9.234 10.462c-2.56-.706-4.663-2.12-6.263-3.929l-2.057 1.324c1.92 2.296 4.526 4.017 7.68 4.9 1.143.31 2.285.486 3.428.53l-.137-2.428a13.243 13.243 0 01-2.651-.397zm5.622.309l.137 2.428c4.388-.618 8.365-3.09 10.788-6.754l-2.24-1.06c-2.011 2.826-5.21 4.812-8.685 5.386zm10.239-8.828l-.274.794 2.24 1.06c.137-.398.32-.795.411-1.237.183-.662.32-1.28.412-1.942l-2.515-.132c0 .53-.137.97-.274 1.456zm-24.683-6.843c1.005-3.399 3.382-6.047 6.4-7.592l-.915-2.251c-3.703 1.81-6.674 5.032-7.908 9.181a11.13 11.13 0 00-.503 2.737h2.514a7.975 7.975 0 01.412-2.075zm15.861-8.519c.137.044.32.088.457.132l1.052-2.207-.823-.265a15.492 15.492 0 00-8.274-.044l.914 2.251a13.697 13.697 0 016.674.133z" fill="#fff"/><path d="M152 12v25.654" stroke="#fff" stroke-width=".751" stroke-miterlimit="10"/><path d="M164.917 19.043v-6.315h4.285l-.009.992h-3.401l.27-.28.009 5.603h-1.154zm4.437 0v-4.817h1.127V17.4l2.661-3.175h1.029v4.817h-1.128v-3.175l-2.652 3.175h-1.037zm5.63-.01l.054-.946.118.018a.606.606 0 00.099.009c.186 0 .331-.057.433-.172.102-.114.177-.267.225-.46.054-.198.091-.418.109-.658.024-.247.042-.493.054-.74l.081-1.858h3.897v4.817h-1.128v-4.168l.262.307h-2.291l.243-.316-.063 1.272c-.018.427-.054.824-.108 1.19a3.912 3.912 0 01-.235.948c-.102.27-.246.481-.433.632-.18.15-.412.225-.694.225a1.81 1.81 0 01-.298-.027 4.01 4.01 0 01-.325-.072zm9.006-3.22c.62 0 1.092.139 1.417.415.325.277.487.668.487 1.173 0 .523-.18.932-.541 1.227-.361.289-.869.43-1.525.424l-2.255-.009v-4.817h1.127v1.578l1.29.01zm-.261 2.409c.331.006.583-.063.758-.207.174-.145.261-.355.261-.632s-.087-.475-.261-.595c-.169-.127-.421-.193-.758-.199l-1.029-.009v1.633l1.029.009zm6.343.298v-3.338h-1.849l-.027.776c-.012.276-.03.544-.054.803a4.777 4.777 0 01-.117.703c-.055.21-.133.385-.235.524a.702.702 0 01-.406.27l-1.119-.171a.567.567 0 00.433-.172 1.16 1.16 0 00.262-.487 3.82 3.82 0 00.144-.713c.03-.27.051-.55.063-.838l.064-1.651h3.969v4.294h-1.128zm-3.978 1.596v-2.03h5.819v2.03h-1.056v-1.073h-3.717v1.073h-1.046zm6.826-1.073v-4.817h1.127V17.4l2.662-3.175h1.028v4.817h-1.127v-3.175l-2.653 3.175h-1.037zm9.392 0v-1.642l.163.19h-1.444c-.661 0-1.182-.139-1.56-.415-.373-.283-.56-.69-.56-1.218 0-.566.199-.996.596-1.29.403-.295.938-.442 1.605-.442h2.211v4.817h-1.011zm-3.464 0l1.299-1.84h1.155l-1.245 1.84h-1.209zm3.464-2.003v-2.165l.163.298h-1.326c-.349 0-.62.066-.812.198-.187.127-.28.334-.28.623 0 .541.352.812 1.055.812h1.363l-.163.234zm-34.86 13.066a2.18 2.18 0 01-1.074-.27 1.969 1.969 0 01-.767-.812c-.186-.367-.279-.83-.279-1.39 0-.565.09-1.028.27-1.389.187-.36.439-.629.758-.803a2.18 2.18 0 011.092-.27c.475 0 .893.102 1.253.306.367.205.656.49.867.857.216.367.324.8.324 1.3 0 .498-.108.934-.324 1.307-.211.367-.5.653-.867.857-.36.205-.778.307-1.253.307zm-2.671 1.687v-6.567h1.074v1.136l-.036 1.281.09 1.281v2.87h-1.128zm2.544-2.652c.271 0 .511-.06.722-.18.216-.12.388-.295.514-.524.126-.228.19-.496.19-.803 0-.312-.064-.58-.19-.803a1.306 1.306 0 00-.514-.523 1.43 1.43 0 00-.722-.18c-.27 0-.514.06-.731.18-.216.12-.387.295-.514.523-.126.223-.189.49-.189.803 0 .307.063.575.189.803.127.229.298.403.514.523.217.12.461.18.731.18zm3.694.902v-4.817h1.127V28.4l2.662-3.175h1.028v4.817h-1.128v-3.175l-2.652 3.175h-1.037zm7.111-2.03v-.812h2.616v.812h-2.616zm.659-2.86c.517 0 .974.109 1.371.325.397.21.71.502.938.875.229.367.343.794.343 1.281 0 .481-.114.911-.343 1.29a2.454 2.454 0 01-.938.884c-.397.21-.854.316-1.371.316-.433 0-.83-.072-1.191-.216a2.35 2.35 0 01-.902-.623l.649-.631c.193.186.403.328.632.424a2 2 0 00.767.144c.324 0 .61-.066.857-.198a1.565 1.565 0 00.803-1.389c0-.313-.073-.587-.217-.822a1.498 1.498 0 00-.586-.559 1.726 1.726 0 00-.857-.207 2 2 0 00-.767.144 1.98 1.98 0 00-.632.433l-.649-.632c.24-.27.541-.478.902-.622a3.179 3.179 0 011.191-.217zm2.988 4.88l.054-.946.117.018a.606.606 0 00.099.009c.187 0 .331-.057.433-.172.102-.114.178-.267.226-.46a3.51 3.51 0 00.108-.658c.024-.247.042-.493.054-.74l.081-1.858h3.897v4.817h-1.127v-4.168l.261.307h-2.291l.244-.316-.064 1.272c-.018.427-.054.824-.108 1.19a3.96 3.96 0 01-.234.948c-.103.27-.247.481-.433.632-.181.15-.412.225-.695.225-.09 0-.189-.009-.298-.027a3.99 3.99 0 01-.324-.072zm7.589.01v-4.132l.262.27h-1.958v-.955h4.511v.956h-1.948l.261-.27v4.131h-1.128zm5.569.063a2.7 2.7 0 01-1.317-.316 2.432 2.432 0 01-.912-.884 2.439 2.439 0 01-.333-1.272 2.368 2.368 0 011.245-2.147 2.7 2.7 0 011.317-.315c.499 0 .941.105 1.326.315.391.21.694.5.911.866.223.367.334.794.334 1.281 0 .475-.111.9-.334 1.272a2.34 2.34 0 01-.911.884 2.72 2.72 0 01-1.326.316zm0-.965c.276 0 .523-.06.739-.18.217-.12.385-.295.506-.524.126-.228.189-.496.189-.803 0-.312-.063-.58-.189-.803a1.25 1.25 0 00-.506-.523 1.48 1.48 0 00-.73-.18c-.277 0-.523.06-.74.18-.21.12-.379.295-.505.523-.126.223-.19.49-.19.803 0 .307.064.575.19.803.126.229.295.403.505.523.217.12.46.18.731.18zm6.355.965a2.17 2.17 0 01-1.073-.27 1.962 1.962 0 01-.767-.812c-.187-.367-.28-.83-.28-1.39 0-.565.09-1.028.271-1.389.186-.36.439-.629.757-.803a2.18 2.18 0 011.092-.27c.475 0 .893.102 1.254.306.367.205.656.49.866.857.217.367.325.8.325 1.3 0 .498-.108.934-.325 1.307-.21.367-.499.653-.866.857-.361.205-.779.307-1.254.307zm-2.67 1.687v-6.567h1.073v1.136l-.036 1.281.09 1.281v2.87h-1.127zm2.544-2.652c.27 0 .511-.06.721-.18.217-.12.388-.295.515-.524.126-.228.189-.496.189-.803 0-.312-.063-.58-.189-.803a1.308 1.308 0 00-.515-.523c-.21-.12-.451-.18-.721-.18-.271 0-.514.06-.731.18-.216.12-.388.295-.514.523-.126.223-.19.49-.19.803 0 .307.064.575.19.803.126.229.298.403.514.523.217.12.46.18.731.18zm5.84.965a2.7 2.7 0 01-1.317-.316 2.422 2.422 0 01-.911-.884 2.43 2.43 0 01-.334-1.272 2.4 2.4 0 01.334-1.272c.222-.373.526-.664.911-.875a2.7 2.7 0 011.317-.315c.499 0 .941.105 1.326.315.391.21.695.5.911.866.223.367.334.794.334 1.281 0 .475-.111.9-.334 1.272-.216.373-.52.668-.911.884a2.72 2.72 0 01-1.326.316zm0-.965c.277 0 .523-.06.74-.18.216-.12.385-.295.505-.524.126-.228.19-.496.19-.803 0-.312-.064-.58-.19-.803a1.248 1.248 0 00-.505-.523 1.48 1.48 0 00-.731-.18c-.276 0-.523.06-.74.18-.21.12-.378.295-.505.523-.126.223-.189.49-.189.803 0 .307.063.575.189.803.127.229.295.403.505.523.217.12.461.18.731.18zm3.685.902v-4.817h2.355c.583 0 1.04.108 1.371.324.337.217.505.524.505.92 0 .392-.156.698-.469.92-.313.217-.728.325-1.245.325l.135-.28c.584 0 1.017.11 1.3.326.288.21.433.52.433.929 0 .427-.16.76-.479 1.001-.318.235-.802.352-1.452.352h-2.454zm1.074-.821h1.29c.307 0 .538-.048.694-.144a.512.512 0 00.235-.46c0-.217-.072-.376-.217-.478-.144-.103-.369-.154-.676-.154h-1.326v1.236zm0-1.985h1.182c.288 0 .505-.05.649-.153a.526.526 0 00.226-.451.49.49 0 00-.226-.442c-.144-.096-.361-.144-.649-.144h-1.182v1.19zm-46.846 13.806v-6.315h.956l2.769 4.61h-.514l2.725-4.61h.956l.018 6.315h-1.119l-.009-4.574h.235l-2.31 3.852h-.523l-2.345-3.852h.27v4.574h-1.109zm10.698.063a2.7 2.7 0 01-1.317-.316 2.422 2.422 0 01-.911-.884 2.43 2.43 0 01-.334-1.272 2.4 2.4 0 01.334-1.272c.222-.373.526-.664.911-.875a2.7 2.7 0 011.317-.316c.499 0 .941.106 1.326.316.391.21.695.5.911.866.223.367.334.794.334 1.281 0 .475-.111.9-.334 1.272-.216.373-.52.668-.911.884a2.72 2.72 0 01-1.326.316zm0-.965c.276 0 .523-.06.74-.18.216-.12.384-.295.505-.524.126-.228.189-.496.189-.803 0-.312-.063-.58-.189-.803a1.254 1.254 0 00-.505-.523 1.483 1.483 0 00-.731-.18c-.277 0-.523.06-.74.18-.21.12-.379.295-.505.523-.126.223-.19.49-.19.803 0 .307.064.575.19.803.126.229.295.403.505.523.217.12.46.18.731.18zm5.877.965c-.505 0-.956-.105-1.353-.316a2.404 2.404 0 01-.92-.884 2.43 2.43 0 01-.334-1.272 2.4 2.4 0 01.334-1.272c.222-.373.529-.664.92-.875a2.85 2.85 0 011.353-.316c.469 0 .881.097 1.236.29.361.186.634.462.821.83l-.866.504a1.383 1.383 0 00-1.2-.667c-.277 0-.526.06-.749.18a1.29 1.29 0 00-.523.523c-.126.223-.189.49-.189.803 0 .313.063.584.189.812a1.3 1.3 0 00.523.514c.223.12.472.18.749.18a1.383 1.383 0 001.2-.667l.866.505a1.98 1.98 0 01-.821.84c-.355.192-.767.288-1.236.288zm6.505-.063l-1.741-2.31.92-.568 2.147 2.878h-1.326zm-3.455 0v-4.817h1.127v4.817h-1.127zm.794-1.93v-.939h1.632v.938h-1.632zm1.948-.343l-1.055-.127 1.768-2.417h1.209l-1.922 2.544zm2.834 2.273v-4.817h2.355c.583 0 1.04.108 1.371.324.337.217.505.524.505.92 0 .392-.156.698-.469.92-.313.217-.728.325-1.245.325l.136-.28c.583 0 1.016.11 1.299.326.288.21.433.52.433.929 0 .427-.16.76-.479 1.001-.318.235-.802.352-1.452.352h-2.454zm1.074-.821h1.29c.307 0 .538-.048.694-.144a.512.512 0 00.235-.46c0-.217-.072-.376-.216-.479-.145-.102-.37-.153-.677-.153h-1.326v1.236zm0-1.985h1.182c.288 0 .505-.05.649-.153a.526.526 0 00.226-.451.49.49 0 00-.226-.442c-.144-.096-.361-.145-.649-.145h-1.182v1.191zm9.374 2.806v-4.817h1.128v4.817h-1.128zm-2.517-3.23c.62 0 1.089.139 1.408.415.324.277.487.668.487 1.173 0 .523-.181.932-.542 1.227-.354.289-.86.43-1.515.424l-2.183-.009v-4.817h1.127v1.578l1.218.01zm-.261 2.409c.33.006.583-.063.757-.208.175-.144.262-.354.262-.63 0-.278-.087-.476-.262-.596-.168-.127-.421-.193-.757-.199l-.957-.009v1.633l.957.009z" fill="#fff"/></svg>