<svg width="471" height="478" fill="none" xmlns="http://www.w3.org/2000/svg"><path fill-rule="evenodd" clip-rule="evenodd" d="M306.653 423.255c-11.108-13.312-30.148-8.555-45.766-18.939-9.553 8.863-15.89 20.938-26.832 28.409-9.129-6.654-15.588-15.978-23.673-23.674-12.261 12.706-28.784 9.122-41.033 18.938-23.791 19.065-7.282 67.962-18.939 101.007h178.339c-6.762-31.218-5.352-85.674-22.096-105.741zm-42.786-95.553l-3.803-19.405s-7.103-3.551-12.101.198c-1.134.847-3.288-6.117-7.114-7.196 0 0-12.944-5.552-14.522-10.025-1.577-4.471-2.86 9.752.592 12.039 3.451 2.288-4.208 2.183-6.049 0-1.842-2.184 3.546 5.025 2.889 5.798-.006.006-.012.013-.019.018-8.822 5.253-16.481 12.337-20.53 21.62-.008.012-.02.023-.028.037-.109.143-.142.263-.138.369-3.822 9.061-4.23 20.184 1.023 33.709 3.068-15.687-1.113-28.552 14.202-33.144 7.728-2.315 41.763-4.235 39.819 9.522-1.894 13.436-4.9 20.383 4.371 31.511 4.266-8.614-1.45-4.442 3.915-22.83 2.232-7.643 1.011-15.283-2.507-22.221z" fill="#fff"/><path d="M189.851 231.7l-3.066-3.329-2.836-5.402h-18.587l-2.835 5.402-3.066 3.329v13.966a1.39 1.39 0 001.391 1.392h4.453c.768 0 1.391-.624 1.391-1.392v-3.472h15.92v3.472c0 .769.623 1.392 1.391 1.392h4.452c.77 0 1.392-.624 1.392-1.392V231.7zm-22.805-6.766h15.219l2.553 4.924h-20.324l2.552-4.924zm1.21 14.84h-6.065v-3.188h6.065v3.188zm18.863 0h-6.063v-3.188h6.063v3.188zm104.778 4.246c-1.009.76-2.284 1.171-3.674 1.171a7.79 7.79 0 01-1.194-.096c-.02.021-.045.043-.067.063-1.715 1.718-2.03 4.183-.705 5.511 1.328 1.325 3.795 1.01 5.509-.705 1.716-1.715 2.031-4.182.705-5.51a2.668 2.668 0 00-.574-.434zm-9.531-2.283c1.651 1.653 3.705 2.549 5.597 2.624.086.004.172.008.258.008.982 0 1.909-.225 2.705-.689.341-.198.663-.439.949-.728 2.29-2.29 1.744-6.545-1.215-9.506-1.728-1.725-3.896-2.632-5.857-2.632-1.402 0-2.698.462-3.652 1.415-2.29 2.292-1.746 6.547 1.215 9.508zm21.559 8.932c1.327-1.326 1.012-3.794-.705-5.511a2.124 2.124 0 00-.067-.063 7.774 7.774 0 01-1.195.096c-1.387 0-2.666-.412-3.67-1.171-.21.117-.403.262-.576.434-1.327 1.328-1.012 3.795.703 5.51 1.717 1.715 4.183 2.03 5.51.705zm5.104-18.438c-.954-.953-2.249-1.415-3.651-1.415-1.96 0-4.129.907-5.858 2.632-2.959 2.96-3.502 7.218-1.213 9.506.285.289.606.53.948.729.797.462 1.725.688 2.703.688.085 0 .174-.004.261-.008 1.891-.075 3.945-.972 5.597-2.624 2.958-2.962 3.503-7.217 1.213-9.508z" fill="#fff"/><path d="M297.377 232.794c.386-.361-.195-.943-.58-.579a5.84 5.84 0 00-1.317 1.817 1.214 1.214 0 00-.386-.068c-.135 0-.265.027-.388.068a5.893 5.893 0 00-1.313-1.817c-.389-.364-.969.217-.581.579.546.514.96 1.115 1.257 1.804a1.144 1.144 0 00-.126.517v14.741a1.15 1.15 0 102.3 0v-14.741c0-.185-.046-.36-.126-.517a5.346 5.346 0 011.26-1.804zm-100.268-31.292h-37.097v3.422h37.098v-3.422h-.001zm-1.642 2.122h-3.011v-.822h3.011v.822zm-.1-24.077h-33.609v20.908h33.609v-20.908zm-3.731 17.933H165.49v-14.958h26.146v14.958zm80.315 59.221l-.08.12-13.122 19.535-.081.121.12.08 11.98 8.048.12.081.081-.121 13.122-19.535.081-.121-.12-.08-2.887-1.939 1.328-1.977.08-.119-.12-.081-5.968-4.008-.12-.08-.081.119-1.327 1.976-2.887-1.939-.119-.08zm2.274 19.141l-8.634-5.799 3.042-4.531 8.635 5.799-3.043 4.531zm-3.867 5.758l-8.634-5.8 3.041-4.531 8.637 5.8-3.044 4.531zm-190.941 3.499c.712-2.347 3.221-3.054 6.21-3.054 2.986 0 5.494.707 6.207 3.054.24.795.203.811.203-.017 0-4.232 0-16.208-.003-20.439 0-.829.019-2.193-.251-2.978-.773-2.247-3.237-2.882-6.157-2.882-2.922 0-5.386.634-6.158 2.882-.272.785-.252 2.149-.252 2.978-.002 4.231-.003 16.207-.003 20.439 0 .828-.039.811.204.017zm1.798-21.837c1.08-.538 2.523-.799 4.41-.799 1.888 0 3.331.261 4.41.799a.377.377 0 01-.168.713.374.374 0 01-.167-.04 5.558 5.558 0 00-.863-.336c-.858-.257-1.918-.384-3.21-.384-1.295 0-2.355.127-3.212.384a5.415 5.415 0 00-.864.336.375.375 0 01-.504-.167.38.38 0 01.168-.506zm0 3.646c1.08-.538 2.523-.799 4.41-.799 1.888 0 3.331.261 4.41.799a.375.375 0 11-.335.672 5.737 5.737 0 00-.863-.337c-.858-.257-1.918-.383-3.21-.383-1.295 0-2.355.126-3.211.383a5.499 5.499 0 00-.865.337.376.376 0 01-.336-.672zm0 3.645c1.08-.537 2.523-.8 4.41-.8 1.888 0 3.331.263 4.41.8a.375.375 0 11-.335.673 5.596 5.596 0 00-.863-.336c-.858-.258-1.917-.386-3.21-.386-1.295 0-2.355.126-3.211.384a5.598 5.598 0 00-.865.338.375.375 0 01-.336-.673zm24.619 14.546c.239.795.203.811.203-.018 0-4.231 0-16.208-.002-20.438-.002-.829.017-2.193-.252-2.978-.774-2.248-3.237-2.884-6.158-2.884-2.92 0-5.384.635-6.156 2.884-.27.785-.251 2.149-.251 2.978-.005 4.23-.005 16.207-.005 20.438 0 .83-.038.813.203.018.714-2.347 3.223-3.056 6.21-3.056 2.986 0 5.494.709 6.208 3.056zm-1.63-14.041a.379.379 0 01-.504.168 5.498 5.498 0 00-.863-.336c-.858-.26-1.919-.386-3.212-.386-1.293 0-2.353.126-3.21.384a5.425 5.425 0 00-.865.337.375.375 0 11-.335-.673c1.08-.538 2.523-.798 4.41-.798s3.332.261 4.411.798a.378.378 0 01.168.506zm0-3.646a.38.38 0 01-.338.208.346.346 0 01-.166-.041 5.701 5.701 0 00-.863-.336c-.858-.257-1.919-.383-3.212-.383-1.293 0-2.353.126-3.21.383a5.622 5.622 0 00-.865.336.374.374 0 01-.503-.167.377.377 0 01.168-.505c1.08-.537 2.523-.799 4.41-.799s3.332.262 4.411.799a.378.378 0 01.168.505zm0-3.645a.381.381 0 01-.338.208.369.369 0 01-.166-.04 5.701 5.701 0 00-.863-.336c-.858-.258-1.919-.384-3.212-.384-1.293 0-2.353.126-3.21.384a5.331 5.331 0 00-.865.336.376.376 0 01-.335-.673c1.08-.538 2.523-.799 4.41-.799s3.332.261 4.411.799a.378.378 0 01.168.505zM192.1 141.31c2.301-2.301 5.817-2.628 8.475-1.003-.9.891-1.94 1.932-1.94 1.932-.726.873.09 1.376.505 1.362h6.734c.256 0 .466-.21.466-.467v-6.679c.031-.611-.642-1.204-1.333-.521 0 0-1.148 1.116-1.937 1.901-4.048-2.958-9.754-2.622-13.408 1.035a10.313 10.313 0 00-3.012 7.758h3.456a6.867 6.867 0 011.994-5.318zm11.493 4.157a6.863 6.863 0 01-1.994 5.32c-2.301 2.3-5.817 2.629-8.475 1.003.9-.892 1.939-1.933 1.939-1.933.728-.872-.088-1.376-.504-1.362l-4.856.002c-.257 0-.468-.002-.468-.002h-1.411a.47.47 0 00-.468.466v6.679c-.028.61.642 1.202 1.334.52 0 0 1.146-1.117 1.939-1.899 4.049 2.958 9.753 2.623 13.409-1.033a10.318 10.318 0 003.011-7.759h-3.457v-.002h.001zm104.171 40.109h-30.309a4.663 4.663 0 00-4.662 4.664v16.318a4.662 4.662 0 004.662 4.662h2.333v8.159a1.165 1.165 0 001.99.826l9.665-8.985h16.32a4.664 4.664 0 004.663-4.662V190.24a4.664 4.664 0 00-4.662-4.664zm-26.811 6.994h18.651a1.165 1.165 0 110 2.332h-18.651a1.166 1.166 0 010-2.332zm9.326 11.656h-9.326a1.165 1.165 0 110-2.331h9.326a1.165 1.165 0 110 2.331zm13.987-4.661h-23.313a1.165 1.165 0 010-2.331h23.313a1.165 1.165 0 110 2.331z" fill="#fff"/><path d="M91.351 153.693c0 20.707-16.788 37.495-37.498 37.495-20.71 0-37.498-16.787-37.498-37.495 0-20.71 16.788-37.498 37.498-37.498 20.711 0 37.498 16.788 37.498 37.498zm11.166-38.111c20.79-2.464 35.646-21.315 33.182-42.105-2.464-20.79-21.316-35.645-42.106-33.181C72.803 42.76 57.947 61.61 60.411 82.4c2.464 20.79 21.316 35.646 42.106 33.181zm50.362 107.175c0 17.021-13.799 30.819-30.82 30.819-17.022 0-30.82-13.797-30.82-30.819 0-17.019 13.798-30.818 30.82-30.818 17.021 0 30.82 13.799 30.82 30.818zm-76.431 16.872c0 21.111-17.113 38.223-38.223 38.223C17.114 277.852 0 260.74 0 239.629c0-21.11 17.114-38.221 38.225-38.221 21.11 0 38.223 17.11 38.223 38.221zm87.273 149.075c0 21.204-17.191 38.392-38.395 38.392-21.204 0-38.392-17.189-38.392-38.392 0-21.205 17.188-38.392 38.392-38.392 21.204.001 38.395 17.188 38.395 38.392zm100.516-207.958c0 16.635-13.486 30.12-30.123 30.12-16.635 0-30.122-13.485-30.122-30.12s13.487-30.121 30.122-30.121c16.637 0 30.123 13.485 30.123 30.121zm59.986-143.439c0 20.604-16.701 37.306-37.308 37.306-20.603 0-37.306-16.702-37.306-37.306C249.609 16.702 266.312 0 286.915 0c20.607 0 37.308 16.701 37.308 37.307z" fill="#00A48A"/><path d="M363.159 286.779a3.363 3.363 0 014.276 2.075 3.361 3.361 0 11-4.276-2.075z" fill="#fff"/><path d="M369.199 279.68c-.064-.032-.129-.058-.194-.088l-.189-.085c-.033-.016-.065-.025-.103-.038a10.958 10.958 0 00-14.189 5.289l-.301.62-.416.857a2.11 2.11 0 00.98 2.811 2.105 2.105 0 002.816-.967l.719-1.479a6.766 6.766 0 019.032-3.127l1.057.492a2.09 2.09 0 002.787-.974 2.076 2.076 0 00.096-1.594 2.048 2.048 0 00-1.058-1.191l-1.037-.526z" fill="#fff"/><path d="M373.246 273.88l-.889-.43-.01-.006-.703-.342a1.978 1.978 0 00-.378-.134c-8.725-3.559-18.84.146-23.159 8.622-.021.039-.051.072-.071.114l-.777 1.605c-.464.95-.06 2.096.895 2.559a1.916 1.916 0 002.566-.88l.78-1.601c.003-.014.004-.024.012-.034 3.486-6.874 11.784-9.782 18.792-6.622l1.264.612a1.918 1.918 0 002.561-.894 1.927 1.927 0 00-.883-2.569z" fill="#fff"/><path d="M380.512 388.221c0 20.937-16.971 37.909-37.908 37.909-20.938 0-37.909-16.972-37.909-37.909 0-20.935 16.971-37.909 37.909-37.909 20.937 0 37.908 16.974 37.908 37.909zm78.391-237.956c0 21.192-17.181 38.368-38.372 38.368s-38.371-17.177-38.371-38.368c0-21.191 17.18-38.37 38.371-38.37 21.191 0 38.372 17.179 38.372 38.37zM98.197 325.389c0 20.937-16.973 37.909-37.91 37.909-20.936 0-37.908-16.972-37.908-37.909 0-20.936 16.972-37.909 37.909-37.909 20.936 0 37.909 16.973 37.909 37.909zm164.024-77.653c0 14.18-11.495 25.673-25.672 25.673-14.18 0-25.674-11.494-25.674-25.673 0-14.177 11.494-25.67 25.674-25.67 14.176 0 25.672 11.494 25.672 25.67zm-40.584-210.08c0 20.322-16.475 36.795-36.797 36.795-20.321 0-36.797-16.473-36.797-36.795 0-20.323 16.476-36.797 36.797-36.797 20.322 0 36.797 16.474 36.797 36.797zm220.055 286.043c0 20.957-16.987 37.944-37.943 37.944s-37.944-16.987-37.944-37.944c0-20.956 16.988-37.941 37.944-37.941 20.956-.001 37.943 16.985 37.943 37.941zM354.25 147.894c0 17.022-13.798 30.82-30.821 30.82-17.021 0-30.82-13.798-30.82-30.82s13.798-30.82 30.82-30.82c17.023 0 30.821 13.799 30.821 30.82zm-88.803-42.714c0 17.209-13.95 31.16-31.159 31.16s-31.159-13.951-31.159-31.16c0-17.208 13.95-31.159 31.159-31.159s31.159 13.951 31.159 31.159zm166.672 172.905c20.935 0 37.907-16.972 37.907-37.908s-16.972-37.907-37.907-37.907c-20.936 0-37.908 16.971-37.908 37.907 0 20.936 16.972 37.908 37.908 37.908zM404.965 78.109c0 20.796-16.858 37.653-37.654 37.653-20.797 0-37.655-16.858-37.655-37.653 0-20.796 16.858-37.654 37.655-37.654 20.796 0 37.654 16.858 37.654 37.654z" fill="#00A48A"/><path d="M379.801 172.841c1.457-7.276-7.322-9.972-10.407-3.465l-.441.977-.051-1.076c-.281-7.196-9.413-8.167-10.932-.901-1.153 5.845 5.208 11.297 8.199 15.458l-.002.014c.002-.003.005-.004.009-.006l.007.01.002-.015c4.388-2.653 12.38-5.166 13.616-10.996zM102.405 324.849a.823.823 0 00.022 1.427l2.496 2.695c-.018 8.462 5.592 13.691 13.746 13.691 7.03 0 12.557-7.467 12.557-12.559 0-2.351-.916.254-2.759 1.406-1.927 1.204-7.358 1.971-7.174-3.574.076-.451.124-.913.124-1.381 0-4.567-2.87-8.599-7.435-8.599-4.152 0-7.199 2.423-7.901 5.184l-3.676 1.71zm7.117 1.427a1.208 1.208 0 110-2.42 1.208 1.208 0 010 2.42zm90.627-66.042c-5.638 0-10.208 4.572-10.208 10.208s10.208 18.762 10.208 18.762 10.209-13.126 10.209-18.762c0-5.637-4.57-10.208-10.209-10.208zm0 11.861a3.173 3.173 0 11.001-6.345 3.173 3.173 0 01-.001 6.345zm75.88-121.493a7.649 7.649 0 00-7.65 7.65c0 4.224 7.65 14.06 7.65 14.06s7.651-9.836 7.651-14.06a7.65 7.65 0 00-7.651-7.65zm0 8.888a2.378 2.378 0 11.001-4.755 2.378 2.378 0 01-.001 4.755zm-97.877 192.483c1.331-2.879-1.006-3.839-1.15-1.756a7.546 7.546 0 00-.023 1.319c.072.506.182 1.026.343 1.53.341-.301.63-.662.83-1.093zm-6.324 1.057l.883.493c-.353-.872-.791-1.717-1.403-2.242-.308.831-.134 1.414.52 1.749zm10.15 4.032a5.152 5.152 0 001.375-.26c1.457-.937 1.538-1.762.243-2.474-1.096-.2-2.107 1.196-2.748 2.607a2.88 2.88 0 001.13.127zm-2.389.576c-.817-.358-1.549-.85-2.061-1.416-.295-.327-.619-.88-.91-1.546-.69.341-1.33.524-1.958.566 1.116 3.637 1.429 7.53 1.676 11.304a.739.739 0 01-.147.438h3.498c-1.003-3.087-1.168-6.376-.098-9.346z" fill="#fff"/><path d="M186.584 340.677c-1.682-1.67-3.82-3.386-8.855-3.386-5.037 0-7.174 1.716-8.856 3.386-8.291 8.229-1.997 16.844-1.39 17.886.609 1.042 1.997 4.256 2.258 6.426.262 2.17 1.128 1.996 1.128 1.996h4.305c-.242-3.747-.427-7.943-1.735-11.481l-.134-.377a7.904 7.904 0 01-1.749-.652c-.996-.496-2.38-1.719-1.949-3.018 1.235-3.73 3.583-.103 4.361 1.806.096.239.176.487.266.731a4.055 4.055 0 002.017-.269c-.766-2.279-1.002-5.228.958-5.982 1.287-.494 2.443 1.227 2.436 2.38-.009 1.5-.789 2.912-1.954 3.864.109.222.232.442.375.642.502.715 1.17 1.458 1.966 1.937.233-.489.504-.968.814-1.433.591-.885 1.784-2.298 3.026-2.072 1.086.199 2.194 1.431 1.888 2.605-.663 2.539-3.128 2.924-5.311 2.28-.16.48-.264.914-.294 1.22-.24 2.452-.085 5.052.737 7.39a.626.626 0 01-.031.428h3.726s.868.174 1.128-1.997c.26-2.169 1.649-5.383 2.257-6.425.609-1.041 6.903-9.656-1.388-17.885zm-2.402 27.698h-12.414a1.303 1.303 0 100 2.606h12.414a1.303 1.303 0 100-2.606zm-.303 3.219h-11.806a1.216 1.216 0 100 2.43h11.806a1.216 1.216 0 100-2.43zm-2.922 2.918h-5.961a.97.97 0 000 1.94h5.961a.97.97 0 100-1.94zm13.034-253.039l-10.101-4.508 8.167-19.053-12.174 17.266-8.789-3.923 23.48-17.345-.583 27.563zm-13.039 2.968l-1.484-6.52 5.63 2.145-4.146 4.375zM298.13 99.932l-1.133 1.167 2.462 2.391 1.134-1.166a9.353 9.353 0 003.628 1.44l.023 1.628 3.431-.051-.023-1.627a9.355 9.355 0 003.584-1.546l1.167 1.132 2.39-2.461-1.166-1.133a9.355 9.355 0 001.439-3.628l1.628-.024-.051-3.432-1.628.024a9.353 9.353 0 00-1.544-3.584l1.133-1.168-2.462-2.39-1.134 1.165a9.355 9.355 0 00-3.628-1.439l-.024-1.627-3.43.05.023 1.628a9.373 9.373 0 00-3.585 1.545l-1.166-1.133-2.39 2.463 1.166 1.133a9.369 9.369 0 00-1.44 3.627l-1.628.025.05 3.432 1.629-.024a9.363 9.363 0 001.545 3.583zm7.57-12.376a6.942 6.942 0 11.2 13.882 6.942 6.942 0 01-.2-13.882zm19.378-7.888l1.019-.451-1.119-2.517-1.016.452a6.348 6.348 0 00-1.631-1.553l.398-1.038-2.569-.989-.399 1.038a6.397 6.397 0 00-2.25.057l-.452-1.017-2.516 1.117.45 1.017a6.311 6.311 0 00-1.552 1.632l-1.038-.4-.989 2.57 1.037.398a6.429 6.429 0 00.056 2.251l-1.015.452 1.116 2.517 1.016-.452a6.397 6.397 0 001.632 1.553l-.4 1.038 2.57.989.4-1.036a6.43 6.43 0 002.249-.058l.452 1.016 2.517-1.117-.45-1.016a6.36 6.36 0 001.552-1.632l1.039.4.988-2.57-1.039-.4a6.288 6.288 0 00-.056-2.251zm-4.539 5.214a4.295 4.295 0 01-5.675-2.185 4.304 4.304 0 013.863-6.045 4.296 4.296 0 013.996 2.556 4.305 4.305 0 01-2.184 5.674zM298.19 362.828l6.619-12.451c1.878-3.531.983-7.168-2.175-8.848l-2.441-1.298c-3.133-1.666-6.518-.374-8.425 3.211l-7.37 13.862c-1.457 2.741-.475 6.276 2.28 7.737.036.019.069.04.105.059 2.765 1.469 6.196.452 7.728-2.258l5.144-9.676c1.081-2.029.39-4.433-1.567-5.474l-.378-.201c-1.919-1.021-4.192-.233-5.29 1.829l-4.271 8.036 1.891 1.005 4.272-8.034c.457-.859 1.372-1.484 2.39-.944l.377.202c.914.485 1.207 1.592.684 2.575l-5.076 9.551a3.625 3.625 0 01-4.897 1.496 3.61 3.61 0 01-1.815-2.335c-.146-.859.014-1.992.798-3.468l6.889-12.958c1.606-3.024 3.908-3.183 5.525-2.322l2.441 1.298c2.396 1.273 2.374 3.903 1.29 5.945l-6.62 12.454 1.892 1.007z" fill="#fff"/><path d="M177.654 145.635c0 17.21-13.951 31.158-31.159 31.158-17.209 0-31.159-13.949-31.159-31.158 0-17.209 13.95-31.158 31.159-31.158 17.208 0 31.159 13.949 31.159 31.158zm172.571 111.769c18.351-.545 32.786-15.863 32.241-34.213-.545-18.35-15.864-32.784-34.215-32.239-18.351.545-32.786 15.863-32.24 34.213.545 18.35 15.863 32.784 34.214 32.239zm-3.454 41.647c0 18.274-14.814 33.088-33.089 33.088-18.274 0-33.088-14.814-33.088-33.088 0-18.275 14.814-33.088 33.088-33.088 18.275 0 33.089 14.814 33.089 33.088zm-160.36-2.288c0 18.437-14.947 33.384-33.386 33.384-18.436 0-33.384-14.947-33.384-33.384s14.947-33.384 33.384-33.384c18.44 0 33.386 14.947 33.386 33.384z" fill="#00A48A"/><path d="M92.417 162.291c-.431 1.2-.916 2.409-1.068 3.684-.142 1.201.137 2.074.725 3.102.593 1.039 1.639 2.565 2.893 3.251v16.084h2.798v-16.1c1.24-.694 2.271-2.205 2.861-3.235.588-1.027.867-1.9.725-3.101-.152-1.276-.637-2.485-1.069-3.684-.34-.946-1.017-3.297-2.269-3.442l.746 6.903h-.932l-.746-6.933H95.62l-.746 6.933h-.932l.746-6.903c-1.253.144-1.93 2.495-2.27 3.441zm13.638 4.814c0 7.386 3.057 8.189 3.839 8.274v13.033h2.798v-29.59h-2.798s-3.839 0-3.839 8.283zm189.442-46.197c0-1.663-1.33-3.01-2.984-3.047a8.633 8.633 0 00-8.253-11.166 8.629 8.629 0 00-8.627 8.46 4.987 4.987 0 00-8.192 3.82 4.986 4.986 0 004.987 4.985h20.017a3.053 3.053 0 003.052-3.052zm-21.638 4.637h-2.398v5.293h2.398v-5.293zm5.871 2.881h-2.398v5.292h2.398v-5.292zm5.877-2.881h-2.4v5.293h2.4v-5.293zm5.875 2.881h-2.4v5.292h2.4v-5.292zm87.372-4.274l-10.259 10.259-3.878-3.876-4.022 4.023 3.876 3.876 4.024 4.022 4.023-4.022 10.26-10.26-4.024-4.022zm5.407 146.063c5.479 0 9.938-4.459 9.938-9.938 0-4.151-2.559-7.714-6.182-9.199l-1.327 1.828c3.094 1.023 5.331 3.939 5.331 7.371 0 4.281-3.48 7.762-7.761 7.762-4.28 0-7.764-3.481-7.764-7.762 0-3.431 2.242-6.348 5.333-7.371l-1.327-1.828c-3.622 1.485-6.182 5.047-6.182 9.199.002 5.479 4.461 9.938 9.941 9.938z" fill="#fff"/><path d="M382.58 252.703l.707.97.977-.068.978.068.704-.97 1.366-1.884 1.594-2.195-1.49-1.839h-6.304l-1.491 1.839 1.594 2.195 1.365 1.884zM100.016 147.181l3.912-2.584 7.948-14.841 2.573-4.804-.742-.321-.814-.352-.819-.352-1.732-.749-.892 1.665-.421.784-.419.783-2.954 5.517-5.836 10.897.196 4.357zm12.644-28.335l-1.644 3.072 3.046 1.316.817.352.243.106.127-.235.42-.785 1.099-2.052-4.108-1.774z" fill="#fff"/><path fill-rule="evenodd" clip-rule="evenodd" d="M352.7 314.793h1.085c4.357.231 6.576 5.89 3.548 9.265-1.293 1.441-4.333 2.427-6.604 1.132-.541.343-1.002.856-1.478 1.331-1.42 1.419-2.904 2.935-4.336 4.385.259.703 1.872 1.242 1.872 2.218 0 .487-.787 1.134-.787 1.134s-.613.78-1.085.787c-.929.017-1.556-1.585-2.218-1.921-.406.334-.726.752-1.133 1.084.273.701 1.892 1.26 1.873 2.267-.01.542-.718 1.039-.718 1.039s-.612.823-1.155.834c-.697.014-1.725-1.38-1.725-1.38l-.491-.493s-.672.42-.839.444c-1.126.163-1.684-.611-1.872-1.33v-.493c.289-.839 1.022-1.417 1.674-2.07 3.365-3.363 6.911-6.896 10.103-10.201-.332-.584-.576-1.219-.641-1.97-.306-3.514 2.065-5.565 4.927-6.062zm-1.823 5.567c.051 2.55 3.58 3.056 4.534.986.853-1.853-.706-3.615-2.513-3.351-1.126.166-2.047.988-2.021 2.365zM92.715 200.749l-3.392-4.84a.688.688 0 00-.667-.279c-.01-.001-.018-.006-.03-.008l-10.403-1.527a.708.708 0 00-.338.035l-8.333 3.055a.053.053 0 00-.012.005c-.009.004-.017.01-.025.012a.795.795 0 00-.164.1.596.596 0 00-.114.116c-.002.004-.005.004-.007.007l-3.519 4.814a.691.691 0 00.385 1.077l3.053.787v7.551c0 .303.199.571.49.661l11.18 3.416a.649.649 0 00.203.03c.065 0 .13-.013.195-.032.02-.005.039-.015.06-.022.026-.011.054-.018.08-.033l8.022-4.452a.687.687 0 00.356-.602v-7.549l2.713-1.303a.692.692 0 00.267-1.019zm-25.288 1.484l2.663-3.643 9.774 1.801-2.872 4.311-9.565-2.469zm12.903 11.905l-9.799-2.995v-6.683l6.59 1.701a.686.686 0 00.747-.285l2.463-3.692v11.954zm.599-14.954l-8.53-1.571 5.796-2.125 8.123 1.192-5.39 2.504zm.782 14.713v-10.905l1.214 2.576a.686.686 0 00.922.329l4.504-2.163v6.477h.001l-6.641 3.686zm2.166-9.547l-1.936-4.113 6.583-3.061 2.594 3.7-7.24 3.474z" fill="#fff"/><path d="M155.603 80.363a9.189 9.189 0 019.189 9.188 9.19 9.19 0 11-18.378.001 9.188 9.188 0 019.189-9.189zm1.162-4.593h-2.335v3.27h2.335v-3.27zm12.619 12.615h-3.271v2.336h3.271v-2.336zm-12.619 11.681h-2.335v3.27h2.335v-3.27zm-11.678-11.681h-3.271v2.336h3.271v-2.336zm19.433-9.39l-2.313 2.314 1.653 1.652 2.313-2.314-1.653-1.652zm-.664 17.152l-1.653 1.652 2.313 2.313 1.652-1.652-2.312-2.313zm-16.52.007l-2.313 2.313 1.653 1.652 2.313-2.313-1.653-1.652zm-.66-17.176l-1.653 1.653 2.313 2.312 1.653-1.652-2.313-2.313zm13.052-2.62l-1.24 3.027 2.162.885 1.24-3.026-2.162-.886zm6.052 16.09l-.886 2.161 3.027 1.24.886-2.161-3.027-1.24zm-15.267 6.387l-1.24 3.026 2.163.886 1.239-3.027-2.162-.885zm-7.244-15.591l-.886 2.162 3.026 1.24.886-2.162-3.026-1.24zm24.6-.084l-3.017 1.262.901 2.156 3.018-1.262-.902-2.156zm-7.131 15.62l-2.156.902 1.263 3.017 2.156-.903-1.263-3.017zm-15.287-6.236l-3.017 1.263.902 2.155 3.017-1.262-.902-2.156zm5.9-16.166l-2.156.901 1.262 3.018 2.156-.901-1.262-3.018zm244.594 114.621c.517-2.731-1.543-5.358-4.425-5.083-1.405.134-1.419 2.344 0 2.21 1.34-.129 2.566.849 2.294 2.286-.263 1.392 1.867 1.986 2.131.587z" fill="#fff"/><path d="M384.936 195.065c-.621 1.78-.421 3.894-.105 5.712.589 3.372 2.277 8.721 6.045 9.789.342.097.681.141 1.017.141 1.12 0 2.184-.497 3.08-1.215 1.03.823 2.036 1.183 2.993 1.183 5.647 0 9.589-12.548 6.481-16.709a4.394 4.394 0 00-.478-.54c-1.166-1.124-2.896-1.596-4.642-1.596-1.573 0-3.156.383-4.354 1.016a.046.046 0 01-.022.004c-.165 0-.932-.405-1.047-.444a9.864 9.864 0 00-3.183-.548c-2.298-.001-4.969.872-5.785 3.207z" fill="#fff"/><g clip-path="url(#clip0_19_166)" fill="#fff"><path d="M381.006 85.417l-6.214-1.756-3.182-2.502V79.41a7.566 7.566 0 003.485-6.368v-4.61h-1.85v4.61a5.722 5.722 0 01-5.715 5.716 5.722 5.722 0 01-5.716-5.716v-4.61h-1.85v4.61a7.566 7.566 0 003.486 6.368v1.749l-3.182 2.502-6.214 1.756a6.515 6.515 0 00-4.726 6.246v6.395c0 .51.414.925.925.925h34.554a.925.925 0 00.925-.925v-6.395a6.516 6.516 0 00-4.726-6.246zM367.53 94.98l-2.747-4.982 2.747-2.747 2.747 2.747-2.747 4.982zm1.213-9.132l2.125-2.919 2.307 1.814-1.968 3.569-2.464-2.464zm-1.213-5.24c.776 0 1.525-.117 2.23-.335v1.035l-2.23 3.064-2.231-3.064v-1.035a7.55 7.55 0 002.231.335zm-3.338 2.321l2.125 2.92-2.464 2.463-1.968-3.569 2.307-1.814zm-13.014 8.735a4.658 4.658 0 013.379-4.466l5.683-1.606 6.365 11.542h-15.427v-5.47zm32.704 5.47h-15.427l6.364-11.542 5.684 1.606a4.659 4.659 0 013.379 4.466v5.47z"/><path d="M382.847 68.512v-5.91a.925.925 0 00-.583-.86l-14.392-5.73a.924.924 0 00-.684 0l-14.392 5.73a.925.925 0 000 1.719l6.624 2.637v2.364c0 .49.382.895.871.923 2.413.142 4.692.825 6.775 2.031a.926.926 0 00.927 0 15.181 15.181 0 016.775-2.03.925.925 0 00.871-.924v-2.364l5.358-2.133v4.547a3.04 3.04 0 00-2.111 2.89v7.131c0 .51.414.925.925.925h4.221a.925.925 0 00.925-.925v-7.13a3.041 3.041 0 00-2.11-2.891zm-9.058-.9a17.272 17.272 0 00-6.259 1.945 17.277 17.277 0 00-6.26-1.945v-2.725h12.519v2.725zm1.85-3.505v-.145a.925.925 0 00-.925-.925h-14.369a.925.925 0 00-.925.925v.145l-3.782-1.505 11.892-4.734 11.891 4.733-3.782 1.506zm6.283 6.11c.653 0 1.185.532 1.185 1.186v.752h-2.371v-.752c0-.654.532-1.186 1.186-1.186zm-1.186 7.391v-3.603h2.371v3.603h-2.371zm-13.206-1.049a2.234 2.234 0 01-1.584-.655.925.925 0 011.308-1.308.39.39 0 00.551 0 .925.925 0 111.308 1.308 2.232 2.232 0 01-1.583.655z"/></g><g clip-path="url(#clip1_19_166)" fill="#fff"><path d="M166.686 304.9l-6.215-1.757-3.181-2.502v-1.748a7.57 7.57 0 003.485-6.369v-4.61h-1.85v4.61a5.722 5.722 0 01-5.716 5.716 5.722 5.722 0 01-5.715-5.716v-4.61h-1.85v4.61c0 2.67 1.39 5.022 3.485 6.369v1.748l-3.181 2.502-6.215 1.757a6.515 6.515 0 00-4.726 6.246v6.394c0 .511.414.925.925.925h34.555c.51 0 .924-.414.924-.925v-6.394a6.513 6.513 0 00-4.725-6.246zm-13.477 9.562l-2.747-4.982 2.747-2.747 2.748 2.747-2.748 4.982zm1.214-9.132l2.125-2.919 2.306 1.814-1.968 3.568-2.463-2.463zm-1.214-5.24c.776 0 1.526-.118 2.231-.336v1.036l-2.231 3.063-2.23-3.063v-1.036a7.538 7.538 0 002.23.336zm-3.338 2.321l2.125 2.919-2.463 2.464-1.968-3.569 2.306-1.814zm-13.014 8.735a4.658 4.658 0 013.379-4.466l5.684-1.607 6.364 11.542h-15.427v-5.469zm32.705 5.469h-15.428l6.365-11.542 5.684 1.607a4.658 4.658 0 013.379 4.466v5.469z"/><path d="M168.526 287.994v-5.91a.924.924 0 00-.583-.859l-14.392-5.73a.929.929 0 00-.684 0l-14.392 5.73a.924.924 0 000 1.718l6.625 2.638v2.364c0 .489.382.894.871.923 2.412.142 4.692.825 6.775 2.03a.922.922 0 00.927 0 15.19 15.19 0 016.775-2.03.925.925 0 00.87-.923v-2.364l5.358-2.133v4.547a3.04 3.04 0 00-2.11 2.89v7.131c0 .51.414.924.925.924h4.221c.51 0 .925-.414.925-.924v-7.131a3.042 3.042 0 00-2.111-2.891zm-9.057-.899a17.292 17.292 0 00-6.26 1.944 17.287 17.287 0 00-6.259-1.944v-2.725h12.519v2.725zm1.85-3.505v-.145a.925.925 0 00-.925-.925h-14.369a.925.925 0 00-.925.925v.145l-3.782-1.506 11.891-4.734 11.892 4.734-3.782 1.506zm6.282 6.11c.654 0 1.186.532 1.186 1.185v.753h-2.371v-.753c0-.653.532-1.185 1.185-1.185zm-1.185 7.391v-3.604h2.371v3.604h-2.371zm-13.207-1.05a2.233 2.233 0 01-1.583-.654.925.925 0 011.308-1.308.388.388 0 00.551 0 .925.925 0 011.308 1.308 2.235 2.235 0 01-1.584.654z"/></g><g clip-path="url(#clip2_19_166)" fill="#fff"><path d="M196.152 15.492h-22.19a.925.925 0 00-.925.925V33.35h1.849V17.341h20.342v16.01h1.849V16.416a.925.925 0 00-.925-.925z"/><path d="M191.781 26.66h-13.448a.925.925 0 100 1.848h13.448a.925.925 0 100-1.849zm-9.51 3.697h-3.938a.925.925 0 100 1.85h3.938a.925.925 0 100-1.85z"/><path d="M206.113 27.22a.925.925 0 00-.925 0l-11.354 6.556a.924.924 0 00-.339 1.263l.014.025-1.099.62a2.09 2.09 0 01-1.934.063l-3.229-1.555a4.652 4.652 0 00-4.348.162l-3.858 2.228-2.485-1.435.063-.108a.925.925 0 00-.339-1.263l-11.354-6.555a.925.925 0 00-1.387.8v14.595c0 .33.176.636.462.8l5.035 2.908a.924.924 0 001.236-.297l1.388.801a2.726 2.726 0 001.649 3.644 2.721 2.721 0 00.31 1.908 2.735 2.735 0 002.735 1.34c.042.367.159.724.349 1.053a2.746 2.746 0 002.744 1.34 2.735 2.735 0 004.079 2.048l.606-.35a2.72 2.72 0 00.748-.635l1.708.985a2.733 2.733 0 004.078-2.048 2.696 2.696 0 001.086-.067 2.738 2.738 0 002.008-2.325 2.735 2.735 0 002.735-1.34 2.72 2.72 0 00.31-1.909 2.72 2.72 0 001.497-1.222 2.732 2.732 0 00.117-2.502l1.377-.795.019.032a.922.922 0 001.263.339l5.034-2.907a.925.925 0 00.463-.8V28.02a.924.924 0 00-.462-.8zm-40.725 14.862v-12.46l9.167 5.293-5.395 9.345-3.772-2.178zm8.348 5.038l1.009-.583a.878.878 0 01.699-.08.884.884 0 01.184 1.608l-1.009.583a.884.884 0 01-1.206-.323.884.884 0 01.323-1.206zm1.485 4.335a.883.883 0 01.323-1.205l1.487-.859a.883.883 0 01.882 1.529l-1.487.858a.883.883 0 01-1.205-.323zm3.619 2.805a.879.879 0 01-.624-1.081.877.877 0 01.411-.536l1.075-.62a.877.877 0 01.669-.089.876.876 0 01.536.412.876.876 0 01.088.67.877.877 0 01-.411.535l-1.074.62a.877.877 0 01-.67.089zm4.798 1.325a.88.88 0 01-.43.625l-.607.35a.883.883 0 01-.882-1.529l.606-.35a.886.886 0 011.098.175.88.88 0 01.215.729zm13.063-7.26a.884.884 0 01-1.206.323l-4.438-2.562a.925.925 0 00-.924 1.602l4.437 2.562a.882.882 0 01-.882 1.528l-4.438-2.562a.925.925 0 00-.924 1.602l3.161 1.825a.877.877 0 01.322 1.205.874.874 0 01-.535.411.876.876 0 01-.67-.088l-3.161-1.825a.925.925 0 10-.924 1.602l1.876 1.083a.884.884 0 01-.883 1.529l-2.014-1.163a2.723 2.723 0 00-2.623-2.678 2.725 2.725 0 00-.366-1.298 2.714 2.714 0 00-1.659-1.273 2.752 2.752 0 00-.649-.093 2.73 2.73 0 00-2.289-2.594 2.719 2.719 0 00-.272-1.362 2.742 2.742 0 00-1.657-1.411 2.741 2.741 0 00-2.162.247l-.871.503-1.751-1.011 4.433-7.678 1.834 1.058a2.928 2.928 0 00-.131 3.142 2.928 2.928 0 003.99 1.064l3.104-1.792 11.949 6.899a.884.884 0 01.323 1.205zm.375-2.937l-12.185-7.036a.924.924 0 00-.925 0l-3.566 2.06a1.075 1.075 0 01-1.574-1.207c.074-.277.252-.51.5-.653l4.498-2.596a2.803 2.803 0 012.62-.098l3.229 1.555a3.94 3.94 0 003.646-.118l1.115-.63 4.438 7.686-1.796 1.037zm7.65-3.306l-3.772 2.178-5.395-9.345 9.167-5.292v12.46zm-12.945-17.344h-13.448a.925.925 0 01-.925-.925v-3.698c0-.51.414-.925.925-.925h13.448c.511 0 .925.414.925.925v3.698a.925.925 0 01-.925.925zm-12.524-1.85h11.6V21.04h-11.6v1.849z"/></g><g clip-path="url(#clip3_19_166)" fill="#fff"><path d="M248.403 180.296a2.733 2.733 0 00-3.839.011l-4.857 4.847a2.825 2.825 0 00-.541-.776 2.742 2.742 0 00-1.972-.834h-2.387a4.678 4.678 0 01-2.385-.656 6.383 6.383 0 00-3.257-.895 6.906 6.906 0 00-4.931 2.047l-2.169 2.178-.073-.073a.74.74 0 00-1.046 0l-3.12 3.12a.74.74 0 000 1.046l7.439 7.439a.738.738 0 001.046 0l3.12-3.12a.74.74 0 000-1.047l-.063-.062a1.76 1.76 0 011.045-.34h6.593c1.518 0 2.946-.59 4.022-1.661l7.384-7.354a2.71 2.71 0 00.802-1.937 2.708 2.708 0 00-.811-1.933zm-22.615 15.885l-6.393-6.393 2.074-2.074 6.393 6.393-2.074 2.074zm21.58-13.063l-7.384 7.353a4.19 4.19 0 01-2.978 1.23h-6.593c-.776 0-1.511.271-2.097.768l-5.205-5.205 2.172-2.181a5.436 5.436 0 013.882-1.611c.878 0 1.743.238 2.501.688a6.158 6.158 0 003.142.863h2.385c.345 0 .67.139.916.39.25.255.387.592.387.949 0 .336-.13.654-.368.896-.236.24-.546.372-.874.372l-5.254-.001a.74.74 0 000 1.48l5.254.001c.728 0 1.413-.29 1.929-.815.342-.348.58-.77.701-1.229l5.726-5.712a1.247 1.247 0 012.125.878c0 .335-.13.65-.367.886zm-18.382-12.714c-.556-.197-1.171-.434-1.509-.699-.075-.059-.108-.22-.077-.382.016-.088.093-.381.387-.469.537-.162 1.04.066 1.231.172a.74.74 0 10.716-1.295 3.448 3.448 0 00-.921-.346v-.149a.74.74 0 10-1.479 0v.21c-.713.225-1.243.837-1.388 1.603-.135.718.102 1.415.618 1.82.505.396 1.226.681 1.929.929.531.188.547.594.509.819a.941.941 0 01-.933.793c-.586.004-.753-.023-1.194-.311a.74.74 0 10-.81 1.238c.483.316.847.457 1.269.515v.184a.74.74 0 101.479 0v-.262c.923-.294 1.513-1.108 1.648-1.912.184-1.094-.409-2.082-1.475-2.458z"/><path d="M228.11 178.734c-4.19 0-7.598-3.408-7.598-7.598 0-4.19 3.408-7.599 7.598-7.599 4.19 0 7.599 3.409 7.599 7.599s-3.409 7.598-7.599 7.598zm0-13.718a6.126 6.126 0 00-6.119 6.12 6.126 6.126 0 006.119 6.119 6.126 6.126 0 006.119-6.119 6.126 6.126 0 00-6.119-6.12zm21.776 5.224h-2.113a.74.74 0 000 1.48h.328l-3.555 3.555-2.598-2.598a.741.741 0 00-1.046 0l-7.56 7.561a.74.74 0 101.046 1.046l7.037-7.037 2.598 2.597a.74.74 0 001.046 0l4.078-4.078v.327a.74.74 0 101.479 0v-2.113a.74.74 0 00-.74-.74z"/></g><g clip-path="url(#clip4_19_166)" fill="#fff"><path d="M143.523 388.478a3.415 3.415 0 00-4.798.013l-6.072 6.059a3.532 3.532 0 00-.676-.969 3.427 3.427 0 00-2.466-1.043h-2.982a5.839 5.839 0 01-2.982-.82 7.981 7.981 0 00-4.072-1.119 8.632 8.632 0 00-6.163 2.559c-.815.82-1.769 1.777-2.711 2.722l-.091-.091a.925.925 0 00-1.308 0l-3.9 3.9a.924.924 0 000 1.307l9.299 9.299a.923.923 0 001.307 0l3.9-3.9a.925.925 0 000-1.308l-.078-.078a2.2 2.2 0 011.306-.425h8.241a7.075 7.075 0 005.027-2.077l9.23-9.192a3.382 3.382 0 001.003-2.421 3.38 3.38 0 00-1.014-2.416zm-28.269 19.856l-7.991-7.991 2.593-2.593 7.991 7.991-2.593 2.593zm26.975-16.329L133 401.197a5.242 5.242 0 01-3.723 1.538h-8.241c-.971 0-1.889.339-2.622.959l-6.506-6.506 2.716-2.726a6.79 6.79 0 014.851-2.014c1.099 0 2.18.297 3.127.86a7.702 7.702 0 003.927 1.079h2.982c.43 0 .837.173 1.145.488.312.318.484.739.484 1.186 0 .419-.163.817-.461 1.12a1.52 1.52 0 01-1.092.465l-6.567-.001a.925.925 0 100 1.849l6.567.001c.91 0 1.766-.362 2.412-1.018a3.44 3.44 0 00.876-1.536l7.156-7.141a1.56 1.56 0 012.193-.006c.298.294.463.686.464 1.104.001.419-.162.812-.459 1.107zm-22.979-15.894c-.696-.246-1.465-.542-1.887-.874-.094-.073-.135-.274-.096-.477.02-.109.116-.476.483-.587.671-.202 1.3.084 1.54.216a.924.924 0 10.894-1.618 4.265 4.265 0 00-1.151-.434v-.186a.924.924 0 00-1.849 0v.263c-.891.282-1.554 1.046-1.735 2.004-.169.897.127 1.768.772 2.274.631.495 1.533.851 2.412 1.162.664.235.684.742.636 1.023-.079.475-.478.987-1.166.992-.733.005-.941-.028-1.492-.389a.924.924 0 00-1.013 1.548c.603.394 1.058.57 1.586.644v.229a.925.925 0 101.849 0v-.327c1.154-.367 1.891-1.385 2.06-2.39.23-1.367-.511-2.602-1.843-3.073z"/><path d="M118.158 386.524c-5.237 0-9.498-4.261-9.498-9.499 0-5.237 4.261-9.498 9.498-9.498 5.238 0 9.498 4.261 9.498 9.498 0 5.238-4.26 9.499-9.498 9.499zm0-17.147c-4.217 0-7.649 3.431-7.649 7.648 0 4.218 3.432 7.649 7.649 7.649 4.218 0 7.649-3.431 7.649-7.649 0-4.217-3.431-7.648-7.649-7.648zm27.22 6.529h-2.642a.925.925 0 100 1.849h.409l-4.444 4.444-3.246-3.246a.925.925 0 00-1.308 0l-9.45 9.45a.925.925 0 001.307 1.308l8.797-8.797 3.247 3.247a.924.924 0 001.307 0l5.098-5.098v.41a.925.925 0 001.849 0v-2.642a.925.925 0 00-.924-.925z"/></g><g clip-path="url(#clip5_19_166)" fill="#fff"><path d="M225.813 109.602h-3.866a.74.74 0 00-.74.739v9.807h1.479v-9.067h2.388v9.067h1.479v-9.807a.74.74 0 00-.74-.739zm6.824-3.362h-3.866a.74.74 0 00-.74.74v13.169h1.48V107.72h2.387v12.429h1.479V106.98a.74.74 0 00-.74-.74zm6.829-3.363h-3.867a.74.74 0 00-.74.74v16.531h1.48v-15.792h2.387v15.792h1.479v-16.531a.74.74 0 00-.739-.74zm6.824-3.361h-3.867a.74.74 0 00-.739.739v19.894h1.479v-19.154h2.387v19.154h1.479v-19.894a.74.74 0 00-.739-.74z"/><path d="M251.114 119.625l-1.333-1.333a.74.74 0 10-1.046 1.046l.071.071h-29.091v-29.09l.071.07a.739.739 0 101.046-1.046l-1.333-1.333a.74.74 0 00-1.046 0l-1.334 1.333a.74.74 0 101.046 1.046l.071-.07v29.829c0 .409.331.74.74.74h29.83l-.071.071a.74.74 0 101.046 1.046l1.333-1.334a.74.74 0 000-1.046z"/><path d="M223.88 108.284a.74.74 0 00.74-.74v-4.017a2.676 2.676 0 012.673-2.673 2.676 2.676 0 012.673 2.673v.601a.74.74 0 101.479 0v-4.017a2.676 2.676 0 012.673-2.673c1.474 0 2.673 1.2 2.673 2.673v.601a.74.74 0 101.479 0v-4.017c0-1.474 1.2-2.673 2.673-2.673 1.474 0 2.673 1.2 2.673 2.673v.601a.74.74 0 101.48 0V93.28a2.676 2.676 0 012.673-2.673h.22l-.071.07a.74.74 0 101.046 1.047l1.334-1.334a.741.741 0 000-1.046l-1.334-1.333a.74.74 0 10-1.046 1.046l.071.07h-.22a4.157 4.157 0 00-4.153 4.153v.24a4.132 4.132 0 00-2.673-.976 4.157 4.157 0 00-4.152 4.152v.24a4.135 4.135 0 00-2.673-.976 4.157 4.157 0 00-4.152 4.152v.241a4.134 4.134 0 00-2.673-.977 4.156 4.156 0 00-4.152 4.152v4.017c0 .409.331.74.739.74z"/></g><path d="M332.187 393.93h-4.833a.924.924 0 00-.924.924v12.259h1.849v-11.334h2.984v11.334h1.849v-12.259a.925.925 0 00-.925-.924zm8.532-4.203h-4.833a.925.925 0 00-.925.924v16.462h1.849v-15.537h2.984v15.537h1.849v-16.462a.924.924 0 00-.924-.924zm8.531-4.204h-4.833a.925.925 0 00-.925.925v20.664h1.849v-19.739h2.984v19.739h1.85v-20.664a.925.925 0 00-.925-.925zm8.535-4.203h-4.833a.925.925 0 00-.925.925v24.867h1.85V383.17h2.983v23.942h1.85v-24.867a.925.925 0 00-.925-.925z" fill="#fff"/><path d="M363.816 406.454l-1.667-1.667a.925.925 0 00-1.308 1.308l.089.089h-36.363v-36.363l.089.089a.922.922 0 001.307 0 .925.925 0 000-1.308l-1.667-1.667a.924.924 0 00-1.307 0l-1.667 1.667a.925.925 0 001.307 1.308l.089-.089v37.287c0 .511.414.925.924.925h37.288l-.089.089a.924.924 0 101.308 1.307l1.667-1.667a.925.925 0 000-1.308z" fill="#fff"/><path d="M329.772 392.278a.925.925 0 00.925-.925v-5.021a3.345 3.345 0 013.341-3.342 3.345 3.345 0 013.341 3.342v.751a.925.925 0 101.849 0v-5.021a3.346 3.346 0 013.342-3.342 3.345 3.345 0 013.341 3.342v.751a.925.925 0 101.849 0v-5.021a3.345 3.345 0 013.341-3.342 3.345 3.345 0 013.341 3.342v.751a.925.925 0 101.849 0v-5.022a3.345 3.345 0 013.342-3.341h.275l-.089.089a.925.925 0 001.308 1.308l1.667-1.667a.925.925 0 000-1.308l-1.667-1.667a.925.925 0 00-1.308 1.308l.089.088h-.275a5.197 5.197 0 00-5.191 5.191v.301a5.164 5.164 0 00-3.341-1.222 5.196 5.196 0 00-5.19 5.191v.301a5.168 5.168 0 00-3.341-1.222 5.197 5.197 0 00-5.191 5.191v.301a5.164 5.164 0 00-3.341-1.222 5.196 5.196 0 00-5.19 5.191v5.021c0 .511.414.925.924.925z" fill="#fff"/><g clip-path="url(#clip6_19_166)" stroke="#fff" stroke-width="2.148" stroke-miterlimit="10" stroke-linecap="round" stroke-linejoin="round"><path d="M42.266 340.25v-22.259a1.82 1.82 0 011.82-1.821h2.226m27.832 0h2.275a1.82 1.82 0 011.821 1.821v22.259m1.478.426h-38.93c-.622 0-1.128.505-1.128 1.129v.431a3.707 3.707 0 003.707 3.707H77.14a3.707 3.707 0 003.707-3.707v-.431c0-.624-.505-1.129-1.129-1.129z"/><path d="M74.248 318.755c0-7.73-6.267-13.997-13.997-13.997-7.73 0-13.997 6.267-13.997 13.997 0 6.403 4.299 11.801 10.168 13.467l3.83 5.004 3.828-5.004c5.87-1.666 10.168-7.064 10.168-13.467zm-27.74 14.323H49.8m-3.292 3.697h7.763m19.725-3.697h-3.293m3.295 3.697h-7.764"/><path d="M53.405 318.678l-3.32-1.379a.459.459 0 01-.023-.838l9.534-4.558a1.53 1.53 0 011.318 0l9.535 4.558a.459.459 0 01-.024.838l-3.32 1.379"/><path d="M67.106 323.947v-5.268l-1.2-.491a14.92 14.92 0 00-11.3 0l-1.2.491v5.268h13.7zm3.601-7.064v4.073"/></g><g clip-path="url(#clip7_19_166)" fill="#fff"><path d="M301.85 31.45a.925.925 0 00-.924.924v4.547h1.849v-4.547a.925.925 0 00-.925-.925z"/><path d="M302.116 26.19c.606-.79.966-1.778.966-2.849a4.7 4.7 0 00-4.695-4.696 4.702 4.702 0 00-4.494 3.337l-3.63-5.04-.002.002a3.337 3.337 0 00-.854-.855 3.409 3.409 0 00-4.676.81l-3.659 5.081a4.703 4.703 0 00-4.494-3.336 4.7 4.7 0 00-4.695 4.696c0 1.07.36 2.058.966 2.849a5.114 5.114 0 00-5.017 5.106v5.71h1.849v-5.71a3.264 3.264 0 013.26-3.26h3.637c1.57 0 2.961-.775 3.814-1.961l.008.005 3.818-5.302 2.605 1.898-6.065 9.19a.922.922 0 00-.153.508v4.633h1.849v-4.355l5.028-7.617 5.029 7.618v4.356h1.849v-4.633a.923.923 0 00-.153-.51l-5.617-8.51s1.851-2.817 1.906-2.925l4.069 5.65.008-.005a4.69 4.69 0 003.814 1.962h3.637a3.264 3.264 0 013.26 3.26v5.709h1.849v-5.71a5.114 5.114 0 00-5.017-5.106zm-25.538-.004a2.85 2.85 0 01-2.846-2.846 2.85 2.85 0 012.846-2.847 2.85 2.85 0 012.847 2.847 2.85 2.85 0 01-2.847 2.846zm12.19-6.457l-.925 1.4-2.545-1.853.934-1.296a1.549 1.549 0 012.125-.369c.685.473.87 1.423.411 2.117zm9.619 6.459a2.85 2.85 0 01-2.847-2.847 2.85 2.85 0 012.847-2.846 2.85 2.85 0 012.846 2.846 2.85 2.85 0 01-2.846 2.846z"/><path d="M273.116 31.45a.925.925 0 00-.925.924v4.547h1.85v-4.547a.925.925 0 00-.925-.925z"/><path d="M308.076 36.082h-41.187a.925.925 0 00-.924.925 21.377 21.377 0 006.302 15.215c4.046 4.046 9.497 6.281 15.216 6.302 5.718-.02 11.169-2.256 15.215-6.302a21.378 21.378 0 006.303-15.215.925.925 0 00-.925-.925zm-14.661 1.85c-.043 2.915-.29 5.715-.72 8.25h-10.424c-.431-2.535-.678-5.335-.721-8.25h11.865zm-25.58 0h11.866c.042 2.898.28 5.694.697 8.25h-10.323a19.525 19.525 0 01-2.24-8.25zm5.74 12.982a19.923 19.923 0 01-2.387-2.883h9.55a33.843 33.843 0 001.014 3.83c.68 2.042 1.424 3.485 2.172 4.494a19.525 19.525 0 01-10.349-5.44zm13.908 5.761c-1.363 0-2.85-2.018-3.977-5.399a31.464 31.464 0 01-.878-3.245h9.71a31.464 31.464 0 01-.878 3.245c-1.127 3.38-2.614 5.4-3.977 5.4zm13.908-5.76a19.529 19.529 0 01-10.35 5.44c.748-1.009 1.492-2.452 2.173-4.494a33.85 33.85 0 001.013-3.83h9.55a19.85 19.85 0 01-2.386 2.883zm3.5-4.733h-10.323c.416-2.556.655-5.352.697-8.25h11.865a19.538 19.538 0 01-2.239 8.25z"/></g><g clip-path="url(#clip8_19_166)" fill="#fff"><path d="M117.089 59.361a8.667 8.667 0 00-6.168-2.554 8.666 8.666 0 00-6.167 2.554L99.316 64.8l1.308 1.308 5.438-5.438a6.827 6.827 0 014.859-2.013c1.836 0 3.562.715 4.86 2.013a6.88 6.88 0 010 9.72l-5.438 5.437 1.308 1.308 5.438-5.438c3.4-3.4 3.4-8.934 0-12.335z"/><path d="M112.576 76.75L99.703 63.876a.925.925 0 00-1.308 0l-9.703 9.703a.925.925 0 000 1.308l2.982 2.981-13.691 14.83a.925.925 0 00.025 1.282l1.579 1.578-2.707 2.707a.925.925 0 001.308 1.307l2.706-2.706 1.579 1.578a.922.922 0 001.28.026l14.831-13.692 2.982 2.982a.92.92 0 001.307 0l9.703-9.703a.927.927 0 000-1.307zM83.152 96.509L79.944 93.3l1.756-1.902 3.355 3.354-1.903 1.757zm3.263-3.012l-3.46-3.46 10.028-10.86 4.292 4.292-10.86 10.028zm15.805-7.698L90.654 74.233l3.544-3.544 11.565 11.566-3.543 3.544zm4.851-4.852L95.505 69.381l3.544-3.543 11.566 11.566-3.544 3.543z"/></g><g clip-path="url(#clip9_19_166)" fill="#fff"><path d="M412.48 146.518h-.919l-4.315-10.834-.005-.011a.991.991 0 00-.022-.047c-.006-.012-.011-.025-.018-.037l-.023-.04-.024-.039-.025-.034-.029-.038-.029-.033-.03-.033-.037-.033-.029-.027c-.013-.011-.027-.02-.041-.03l-.032-.024-.041-.025-.037-.022a.698.698 0 01-.039-.019l-.045-.02-.011-.005-.028-.01a.868.868 0 00-.047-.016l-.042-.011a.767.767 0 00-.09-.018l-.045-.006-.045-.003-.046-.001-.043.001-.048.003-.041.005-.048.008-.042.01-.045.012a.57.57 0 00-.044.016.352.352 0 00-.03.01l-.012.005-.043.02a.519.519 0 00-.041.02l-.035.02c-.015.009-.029.017-.043.027l-.03.021-.042.032-.029.026-.037.034c-.011.01-.02.022-.03.032l-.03.034-.028.038a.769.769 0 00-.026.034.793.793 0 00-.023.039c-.008.013-.017.026-.024.04l-.018.037c-.007.016-.015.031-.021.047a.037.037 0 00-.005.011l-4.316 10.834h-.919c-.521 0-1.014.227-1.352.624a1.786 1.786 0 00-.402 1.444 7.956 7.956 0 007.848 6.674 7.952 7.952 0 007.847-6.674 1.786 1.786 0 00-.402-1.444 1.771 1.771 0 00-1.352-.624zm-6.093-7.994l3.184 7.994h-6.369l3.185-7.994zm3.973 13.415a6.097 6.097 0 01-9.983-3.572h12.019a6.105 6.105 0 01-2.036 3.572zm30.765-4.797a1.773 1.773 0 00-1.352-.624h-.919l-4.316-10.834a.037.037 0 00-.005-.011c-.006-.016-.014-.031-.021-.047l-.018-.037c-.007-.014-.016-.027-.024-.04l-.023-.039-.026-.035-.028-.037-.03-.033-.029-.033-.037-.033-.029-.027-.041-.031-.032-.022-.041-.026c-.012-.007-.024-.015-.037-.021l-.039-.02-.045-.02-.011-.005-.028-.01-.047-.016-.042-.011-.046-.011a.67.67 0 00-.044-.007l-.046-.006-.044-.003-.046-.001-.043.001-.048.003-.041.005-.048.008-.043.01-.044.012a.595.595 0 00-.045.016.352.352 0 00-.03.01l-.011.005-.044.02a.745.745 0 00-.04.02l-.036.021c-.014.008-.029.016-.042.026l-.031.022-.041.031-.03.027-.036.033-.031.033-.029.033-.029.038-.025.034-.024.039-.023.04-.018.037a.484.484 0 00-.026.058l-4.316 10.834h-.919c-.521 0-1.014.227-1.352.624a1.786 1.786 0 00-.402 1.444 7.956 7.956 0 007.847 6.674 7.952 7.952 0 007.848-6.674 1.786 1.786 0 00-.402-1.444zm-7.446-8.618l3.185 7.994h-6.369l3.184-7.994zm3.973 13.415a6.097 6.097 0 01-7.946 0 6.105 6.105 0 01-2.036-3.572h12.019a6.101 6.101 0 01-2.037 3.572z"/><path d="M436.265 134.321h-13.301a3.091 3.091 0 00-2.932-2.126 3.092 3.092 0 00-2.932 2.126h-13.3a.925.925 0 100 1.85h13.147v21.265h-1.873a3.05 3.05 0 00-3.047 3.048v.97h-.929c-.85 0-1.541.691-1.541 1.541v2.795c0 .85.691 1.541 1.541 1.541h17.868c.85 0 1.541-.691 1.541-1.541v-2.795c0-.85-.691-1.541-1.541-1.541h-.929v-.97a3.05 3.05 0 00-3.047-3.048h-1.873v-21.265h13.148a.925.925 0 000-1.85zm-16.233-.277a1.237 1.237 0 11-1.236 1.236c0-.681.555-1.236 1.236-1.236zm8.626 31.438h-17.252v-2.179h17.252v2.179zm-2.47-4.998v.97h-12.312v-.97a1.2 1.2 0 011.198-1.199h9.916a1.2 1.2 0 011.198 1.199zm-7.392-3.048v-19.33a3.074 3.074 0 002.472 0v19.33h-2.472z"/></g><g clip-path="url(#clip10_19_166)" fill="#fff"><path d="M428.065 231.432a.924.924 0 01-.924-.924v-10.956c.045-1.226 1.804-1.225 1.849 0v10.956c0 .51-.414.924-.925.924zm8.035 0a.924.924 0 01-.924-.924v-10.956c.045-1.226 1.804-1.225 1.849 0v10.956c0 .51-.414.924-.925.924zm-8.035 28.854a.925.925 0 01-.924-.925v-12.536c.045-1.225 1.804-1.225 1.849 0v12.536a.925.925 0 01-.925.925zm8.035-.026a.925.925 0 01-.924-.925v-12.51c.045-1.225 1.804-1.225 1.849 0v12.51a.925.925 0 01-.925.925z"/><path d="M432.084 261.657a.931.931 0 01-.24-.032c-16.217-4.109-19.294-18.707-19.101-32.871a.923.923 0 01.924-.925c4.568 0 8.284-3.716 8.284-8.283 0-.511.414-.925.924-.925h18.417c.511 0 .925.414.925.925 0 4.567 3.716 8.283 8.283 8.283.511 0 .925.414.925.925.196 14.165-2.894 28.769-19.102 32.871a.923.923 0 01-.239.032zm-17.489-32.021c.095 13.291 2.455 25.984 17.489 30.138 15.034-4.154 17.394-16.847 17.489-30.138-4.85-.442-8.723-4.316-9.164-9.166h-16.651c-.441 4.85-4.314 8.724-9.163 9.166z"/><path d="M443.468 230.843h-2.424v-1.586a.925.925 0 00-1.2-.883l-7.761 2.425-7.761-2.425a.925.925 0 00-1.2.883v1.586h-2.424a.925.925 0 00-.925.925v15.068c0 .511.414.925.925.925h22.77c.51 0 .924-.414.924-.925v-15.068a.925.925 0 00-.924-.925zm-10.46 1.605l6.187-1.934v11.875l-6.187 1.934v-11.875zm-1.85 0v11.875l-6.187-1.934v-10.495a.819.819 0 000-.252v-1.128l6.187 1.934zm-9.535.245h1.499v10.376c0 .405.263.762.649.883l6.272 1.96h-8.42v-13.219zm20.92 13.219h-8.42l6.272-1.96a.925.925 0 00.649-.883v-10.376h1.499v13.219z"/></g><g clip-path="url(#clip11_19_166)" fill="#fff"><path d="M58.68 228.071l-1.276-.529a10.474 10.474 0 00-.817-1.968l.528-1.275a.925.925 0 00-.2-1.008l-2.337-2.337a.926.926 0 00-1.007-.201l-1.277.529a10.497 10.497 0 00-1.969-.815l-.527-1.275a.927.927 0 00-.855-.571H45.64a.924.924 0 00-.855.571l-.528 1.276a10.51 10.51 0 00-1.969.816l-1.274-.528a.925.925 0 00-1.008.2l-1.986 1.985 1.308 1.308 1.548-1.548 1.122.465c.27.112.578.089.83-.061a8.652 8.652 0 012.335-.97.923.923 0 00.629-.542l.465-1.123 2.07.001.464 1.12a.922.922 0 00.629.543 8.652 8.652 0 012.336.969c.251.15.559.172.829.06l1.123-.465 1.463 1.464-.464 1.121a.926.926 0 00.06.83 8.63 8.63 0 01.97 2.336.925.925 0 00.543.628l1.122.466v2.069l-1.121.464a.924.924 0 00-.543.629 8.641 8.641 0 01-.968 2.337.923.923 0 00-.061.828l.465 1.124-1.552 1.552 1.307 1.308 1.99-1.989a.925.925 0 00.2-1.008l-.529-1.277c.338-.627.611-1.287.816-1.968l1.274-.528a.924.924 0 00.57-.854l.001-3.305a.924.924 0 00-.57-.854z"/><path d="M47.292 225.209a5.376 5.376 0 00-5.37 5.37c0 2.572 1.83 4.79 4.353 5.274l.349-1.816a3.523 3.523 0 01.668-6.979 3.525 3.525 0 013.521 3.521 3.52 3.52 0 01-2.874 3.462l.337 1.818a5.368 5.368 0 004.386-5.28 5.376 5.376 0 00-5.37-5.37z"/><path d="M58.467 238.559h-7.295l-2.258-4.063a.924.924 0 00-.808-.476H40.05v-9.318a.924.924 0 00-.27-.654l-5.157-5.156a.922.922 0 00-.653-.27v-.001H17.28a.925.925 0 00-.925.925v27.496c0 .51.413.924.924.924H27.84v12.766c0 .511.414.925.925.925h29.7a.925.925 0 00.925-.925v-21.248a.925.925 0 00-.924-.925zm-.925 6.283l-11.152 1.572v-1.609a.925.925 0 00-.925-.925h-3.698a.925.925 0 00-.925.925v1.624l-11.152-1.586v-4.435h27.852v4.434zm-13.001.888v3.53h-1.85v-3.53h1.85zm4.515-7.171h-10.88l1.495-2.69h7.89l1.495 2.69zm-14.16-16.781l1.998 1.999h-1.999v-1.999zm-16.691 24.339V220.47h14.84v4.232c0 .51.415.924.925.924h4.232v9.079l-2.141 3.854h-7.295a.925.925 0 00-.925.925v6.633h-9.636zm11.485 13.691v-13.097l11.152 1.586v1.888c0 .51.414.924.925.924h3.698a.925.925 0 00.925-.924v-1.903l11.152-1.572v13.098H29.69z"/><path d="M23.561 229.318h9.287a.925.925 0 000-1.849h-9.287a.925.925 0 100 1.849zm10.212 6.474a.925.925 0 00-.925-.925h-9.287a.925.925 0 000 1.849h9.287c.51 0 .925-.413.925-.924zm1.999-3.699a.925.925 0 00-.924-.925H21.56a.925.925 0 000 1.849h13.287c.51 0 .924-.414.924-.924z"/></g><g clip-path="url(#clip12_19_166)" stroke="#fff" stroke-width="2.148" stroke-miterlimit="10" stroke-linejoin="round"><path d="M403.677 333.217l-2.589 11.005-2.787-3.246-3.942 1.663 2.607-11.077m6.714 1.655l2.589 11.005 2.787-3.246 3.942 1.663-2.607-11.077"/><path d="M408.275 314.878a1.847 1.847 0 00-2.615 0l-2.855 2.855-1.109-1.109a1.85 1.85 0 10-2.615 2.616l1.941 1.94a2.521 2.521 0 003.566 0l3.687-3.687a1.847 1.847 0 000-2.615z" stroke-linecap="round"/><path d="M418.205 316.027l-.896-1.552v-1.791a4.203 4.203 0 00-2.101-3.64l-1.552-.896-.895-1.551a4.205 4.205 0 00-3.64-2.101h-1.791l-1.552-.896a4.2 4.2 0 00-4.202 0l-1.552.896h-1.791a4.203 4.203 0 00-3.64 2.101l-.896 1.552-1.551.895a4.203 4.203 0 00-2.101 3.64v1.791l-.896 1.552a4.2 4.2 0 000 4.202l.896 1.552v1.791c0 1.502.801 2.889 2.101 3.64l1.551.896.896 1.551a4.203 4.203 0 003.64 2.101h1.791l1.552.896c1.3.75 2.902.75 4.202 0l1.552-.896h1.791a4.205 4.205 0 003.64-2.101l.895-1.552 1.552-.895a4.205 4.205 0 002.101-3.64v-1.791l.896-1.552c.75-1.3.75-2.902 0-4.202z" stroke-linecap="round"/><path d="M403.676 328.523c5.74 0 10.394-4.654 10.394-10.394 0-5.741-4.654-10.395-10.394-10.395-5.741 0-10.395 4.654-10.395 10.395 0 5.74 4.654 10.394 10.395 10.394z" stroke-linecap="round"/></g><g clip-path="url(#clip13_19_166)" fill="#fff"><path d="M352.111 239.65h-12.134a2.424 2.424 0 01-2.422-2.421v-2.622a2.424 2.424 0 012.422-2.421h12.134a2.424 2.424 0 012.422 2.421v2.622a2.424 2.424 0 01-2.422 2.421zm-12.134-5.746a.705.705 0 00-.704.704v2.621c0 .387.316.703.704.703h12.134a.704.704 0 00.703-.703v-2.621a.704.704 0 00-.703-.704h-12.134z"/><path d="M372.616 237.624l-.614-3.951a1.741 1.741 0 00-1.73-1.481h-2.966v-1.579c0-1.103.317-2.133.916-2.976a4.679 4.679 0 00.865-2.72 4.667 4.667 0 00-1.443-3.392 4.668 4.668 0 00-2.405-1.237v-14.081a2.425 2.425 0 00-2.421-2.422h-26.834a2.425 2.425 0 00-2.422 2.422v35.156a2.425 2.425 0 002.422 2.422h26.834a2.424 2.424 0 002.421-2.422v-1.72h5.647a1.749 1.749 0 001.73-2.019zm-5.247-12.707c0 .622-.19 1.219-.549 1.725-.806 1.136-1.232 2.509-1.232 3.971v1.579h-2.415v-1.579c0-1.41-.439-2.801-1.268-4.022a2.963 2.963 0 01-.511-1.795 2.998 2.998 0 012.869-2.866 2.967 2.967 0 012.189.833c.591.569.917 1.334.917 2.154zm-3.848 16.446a.704.704 0 01-.703.703h-26.834a.704.704 0 01-.703-.703v-35.156c0-.388.316-.703.703-.703h26.834c.387 0 .703.315.703.703v14.081c-2.121.396-3.758 2.231-3.845 4.441a4.681 4.681 0 00.807 2.828c.635.935.971 1.991.971 3.056v1.579h-2.966c-.869 0-1.597.623-1.73 1.481l-.614 3.951a1.749 1.749 0 001.73 2.019h5.647v1.72zm7.39-3.45c-.01.011-.019.011-.025.011h-13.012c-.006 0-.015 0-.025-.011-.009-.011-.008-.02-.007-.025l.614-3.951a.033.033 0 01.032-.027h11.784c.016 0 .029.012.032.027l.614 3.951c.001.005.002.014-.007.025z"/><path d="M339.43 210.301h9.971a.86.86 0 000-1.719h-9.971a.86.86 0 100 1.719zm0 5.041h18.877a.86.86 0 000-1.719H339.43a.86.86 0 100 1.719zm0 3.816h18.877a.86.86 0 000-1.719H339.43a.86.86 0 100 1.719zm0 5.379h17.088a.86.86 0 100-1.719H339.43a.86.86 0 100 1.719zm14.724 2.1H339.43a.86.86 0 100 1.718h14.724a.859.859 0 100-1.718z"/></g><g clip-path="url(#clip14_19_166)" fill="#fff"><path d="M133.505 240.14h-4.101a.74.74 0 01-.74-.74v-6.153a.74.74 0 01.74-.739h4.101a.74.74 0 01.74.739v6.153a.74.74 0 01-.74.74zm-3.362-1.48h2.623v-4.673h-2.623v4.673zm1.312-19.029a.74.74 0 01-.74-.739v-4.238a.74.74 0 111.479 0v4.238a.74.74 0 01-.739.739z"/><path d="M138.63 225.784h-14.356c-.68-.001-1.001-.854-.481-1.301l7.178-6.153a.74.74 0 01.962 0l7.178 6.153c.517.444.204 1.299-.481 1.301zm-12.356-1.479h10.356l-5.178-4.439-5.178 4.439zm-16.355 15.338c-.649.004-.989-.799-.523-1.263l5.424-5.424-5.356-5.356a.74.74 0 01-.003-1.043l5.522-5.584-5.587-5.651a.74.74 0 111.052-1.04l6.101 6.171a.74.74 0 010 1.04l-5.519 5.581 5.359 5.359a.74.74 0 010 1.046l-5.947 5.947a.735.735 0 01-.523.217z"/><path d="M131.976 214.131l-4.102-4.102a.74.74 0 00-.523-.217h-10.54v-3.361a.74.74 0 00-.739-.74h-6.153a.74.74 0 00-.739.74v3.362h-3.362a.74.74 0 00-.74.739v4.102a.74.74 0 00.74.739h3.362v23.267h-3.089a.74.74 0 000 1.48H119.9a.74.74 0 000-1.48h-3.089v-23.267h14.642c.653.003.987-.802.523-1.262zm-21.317-6.941h4.673v2.623h-4.673v-2.623zm4.673 4.102v2.622h-4.673v-2.622h4.673zm-8.775 2.622v-2.622h2.623v2.622h-2.623zm8.775 24.746h-4.673v-23.267h4.673v23.267zm1.479-24.746v-2.622h10.234l2.622 2.622h-12.856z"/><path d="M137.603 240.14h-12.305a.74.74 0 01-.739-.74v-10.254a.74.74 0 01.739-.74h12.305a.74.74 0 01.74.74V239.4a.74.74 0 01-.74.74zm-11.565-1.48h10.825v-8.774h-10.825v8.774z"/></g><path d="M324.517 315.882h-4.102a.74.74 0 01-.739-.74v-6.152a.74.74 0 01.739-.74h4.102a.74.74 0 01.74.74v6.152a.74.74 0 01-.74.74zm-3.362-1.48h2.622v-4.673h-2.622v4.673zm1.307-19.028a.74.74 0 01-.739-.74v-4.238a.74.74 0 111.479 0v4.238a.74.74 0 01-.74.74z" fill="#fff"/><path d="M329.645 301.526H315.29c-.681 0-1.001-.854-.482-1.301l7.178-6.152a.739.739 0 01.963 0l7.178 6.152c.516.444.204 1.3-.482 1.301zm-12.356-1.479h10.357l-5.178-4.439-5.179 4.439zm-16.358 15.338c-.65.004-.99-.799-.523-1.262l5.424-5.425-5.356-5.356a.74.74 0 01-.003-1.043l5.521-5.584-5.586-5.651a.738.738 0 111.052-1.04l6.1 6.171a.74.74 0 010 1.041l-5.518 5.58 5.359 5.359a.74.74 0 010 1.046l-5.947 5.948a.74.74 0 01-.523.216z" fill="#fff"/><path d="M322.987 289.873l-4.101-4.102a.743.743 0 00-.523-.216h-10.54v-3.362a.74.74 0 00-.74-.74h-6.152a.74.74 0 00-.74.74v3.362h-3.361a.74.74 0 00-.74.739v4.102c0 .408.331.74.74.74h3.361v23.266h-3.088a.74.74 0 000 1.48h13.809a.74.74 0 000-1.48h-3.089v-23.266h14.641c.653.002.988-.802.523-1.263zm-21.316-6.941h4.673v2.623h-4.673v-2.623zm4.673 4.102v2.622h-4.673v-2.622h4.673zm-8.775 2.622v-2.622h2.622v2.622h-2.622zm8.775 24.746h-4.673v-23.266h4.673v23.266zm1.479-24.746v-2.622h10.233l2.623 2.622h-12.856z" fill="#fff"/><path d="M328.619 315.882h-12.305a.74.74 0 01-.74-.74v-10.254a.74.74 0 01.74-.74h12.305a.74.74 0 01.739.74v10.254a.74.74 0 01-.739.74zm-11.565-1.48h10.825v-8.774h-10.825v8.774z" fill="#fff"/><g clip-path="url(#clip15_19_166)" fill="#fff"><path d="M323.659 151.014a29.559 29.559 0 01-1.544-.623.356.356 0 01-.121-.331c.013-.093.081-.321.425-.425.78-.234 1.508.337 1.531.356.786.605 1.699-.488.963-1.154a3.663 3.663 0 00-1.393-.675v-.59a.752.752 0 00-1.503 0v.616c-1.625.42-2.107 2.561-.686 3.489.195.109.789.362 1.807.747.188.069.794.327.722.732-.054.302-.426.615-.956.615-.555 0-1.089-.223-1.428-.598a.752.752 0 00-1.113 1.009 3.323 3.323 0 001.654.981v.617a.752.752 0 001.503 0v-.575c2.141-.515 2.73-3.235.139-4.191zm-6.209-2.543h-4.097a.752.752 0 01-.751-.752v-4.071a.752.752 0 111.502 0v3.32h2.595v-3.32a.752.752 0 111.503 0v4.071a.753.753 0 01-.752.752zm14.696 0h-4.098a.752.752 0 01-.751-.752v-4.071a.752.752 0 111.503 0v3.32h2.594v-3.32a.752.752 0 011.503 0v4.071a.752.752 0 01-.751.752z"/><path d="M339.23 135.236h-10.485v-4.032a.751.751 0 00-.751-.751h-10.448a.751.751 0 00-.751.751v4.032H306.31a.75.75 0 00-.751.751v23.729a.75.75 0 00.751.751h32.92a.752.752 0 00.752-.751c.017-2.505-.013-21.785 0-23.729a.752.752 0 00-.752-.751zm-20.932-3.28h8.944v3.28h-8.944v-3.28zm-11.237 4.782h31.418v2.539l-3.038 3.62h-25.364l-3.016-3.619v-2.54zm0 22.227v-17.34l2.087 2.504a.748.748 0 00.577.271h26.067a.752.752 0 00.575-.269l2.112-2.517v17.351h-31.418z"/></g><g clip-path="url(#clip16_19_166)" fill="#fff"><path d="M241.446 259.688h-11.21l-.234-2.325-1.104.111.284 2.825a.555.555 0 00.552.499h12.214a.555.555 0 00.552-.499l.284-2.825-1.104-.111-.234 2.325zm3.409-21.282h-.703l-1.719-3.141a.554.554 0 00-.486-.288h-12.214a.555.555 0 00-.487.288l-1.718 3.141h-.704a.554.554 0 00-.554.555v2.622c0 .307.248.555.554.555h.531l.234 2.325 1.104-.111-.223-2.214h14.739l-.222 2.214 1.104.111.233-2.325h.531a.554.554 0 00.555-.555v-2.622a.554.554 0 00-.555-.555zm-17.476 1.109H244.3v1.513h-16.921v-1.513zm2.683-3.429h11.556l1.269 2.32h-14.094l1.269-2.32z"/><path d="M244.328 244.036a.556.556 0 00-.412-.182h-16.15a.556.556 0 00-.552.61l1.308 13.011c.028.284.267.5.552.5h13.534a.555.555 0 00.552-.5l1.308-13.011a.554.554 0 00-.14-.428zm-2.222 12.829h-12.53l-1.197-11.902h14.924l-1.197 11.902z"/><path d="M233.603 254.495h4.474c.594 0 1.126-.307 1.423-.821a1.628 1.628 0 000-1.644l-2.236-3.874a1.628 1.628 0 00-1.424-.822c-.594 0-1.126.307-1.423.822l-2.237 3.874a1.628 1.628 0 000 1.644c.297.514.829.821 1.423.821zm-.462-1.91l2.236-3.874a.526.526 0 01.463-.267c.093 0 .323.026.463.267l2.236 3.874a.524.524 0 010 .534.524.524 0 01-.462.267h-4.474a.524.524 0 01-.462-.267.524.524 0 010-.534z"/></g><g clip-path="url(#clip17_19_166)" fill="#fff"><path d="M63.546 173.708h-18.67l-.389-3.872-1.839.185.473 4.703a.924.924 0 00.92.832h20.34c.475 0 .873-.36.92-.832l.473-4.703-1.839-.185-.39 3.872zm5.681-35.446h-1.172l-2.862-5.231a.924.924 0 00-.81-.48H44.042a.924.924 0 00-.81.48l-2.863 5.231h-1.172a.924.924 0 00-.924.924v4.368c0 .51.414.924.924.924h.884l.39 3.872 1.838-.185-.37-3.687h24.547l-.37 3.687 1.838.185.39-3.872h.883c.51 0 .924-.414.924-.924v-4.368a.924.924 0 00-.924-.924zm-29.106 1.848h28.182v2.52H40.121v-2.52zm4.468-5.711h19.246l2.114 3.863H42.476l2.114-3.863z"/><path d="M68.347 147.638a.922.922 0 00-.685-.304H40.764a.922.922 0 00-.92 1.016l2.18 21.671a.924.924 0 00.919.831h22.54a.924.924 0 00.92-.831l2.178-21.671a.926.926 0 00-.234-.712zm-3.7 21.366H43.778l-1.993-19.822h24.856l-1.994 19.822z"/><path d="M50.488 165.056h7.45a2.71 2.71 0 002.37-1.369 2.709 2.709 0 000-2.737l-3.724-6.452a2.71 2.71 0 00-2.371-1.369 2.71 2.71 0 00-2.37 1.369l-3.726 6.452a2.709 2.709 0 000 2.737 2.71 2.71 0 002.371 1.369zm-.77-3.182l3.725-6.452a.873.873 0 01.77-.445c.154 0 .539.043.77.445l3.726 6.452a.873.873 0 010 .889.874.874 0 01-.77.445h-7.451a.873.873 0 01-.77-.445.872.872 0 010-.889z"/></g><g clip-path="url(#clip18_19_166)" fill="#fff"><path d="M143.111 139.355a.74.74 0 01-.74-.74v-8.765c.036-.98 1.443-.979 1.479 0v8.765a.74.74 0 01-.739.74zm6.429 0a.74.74 0 01-.739-.74v-8.765c.036-.98 1.443-.979 1.479 0v8.765a.74.74 0 01-.74.74zm-6.429 23.082a.74.74 0 01-.74-.74v-10.028c.036-.981 1.443-.98 1.479 0v10.028a.74.74 0 01-.739.74zm6.429-.021a.74.74 0 01-.739-.739v-10.008c.036-.981 1.443-.98 1.479 0v10.008a.74.74 0 01-.74.739z"/><path d="M146.323 163.536a.731.731 0 01-.191-.025c-12.974-3.288-15.436-14.966-15.282-26.297a.74.74 0 01.74-.74 6.635 6.635 0 006.627-6.627.74.74 0 01.74-.74h14.733a.74.74 0 01.74.74 6.634 6.634 0 006.627 6.627.74.74 0 01.739.74c.157 11.332-2.315 23.015-15.281 26.297a.733.733 0 01-.192.025zm-13.991-25.616c.076 10.632 1.964 20.786 13.991 24.11 12.027-3.324 13.915-13.478 13.991-24.11a8.12 8.12 0 01-7.33-7.333h-13.321a8.121 8.121 0 01-7.331 7.333z"/><path d="M155.432 138.884h-1.939v-1.269a.738.738 0 00-.96-.706l-6.209 1.94-6.208-1.94a.738.738 0 00-.961.706v1.269h-1.939a.74.74 0 00-.739.74v12.054c0 .409.331.74.739.74h18.216a.74.74 0 00.74-.74v-12.054a.74.74 0 00-.74-.74zm-8.368 1.284l4.95-1.547v9.5l-4.95 1.547v-9.5zm-1.48 0v9.5l-4.949-1.547v-8.397a.677.677 0 000-.201v-.902l4.949 1.547zm-7.628.196h1.199v8.301c0 .323.211.609.519.706l5.018 1.568h-6.736v-10.575zm16.736 10.575h-6.736l5.018-1.568a.74.74 0 00.519-.706v-8.302h1.199v10.576z"/></g><defs><clipPath id="clip0_19_166"><path fill="#fff" transform="translate(346.012 55.947)" d="M0 0h43.036v43.036H0z"/></clipPath><clipPath id="clip1_19_166"><path fill="#fff" transform="translate(131.691 275.43)" d="M0 0h43.036v43.036H0z"/></clipPath><clipPath id="clip2_19_166"><path fill="#fff" transform="translate(163.539 15.492)" d="M0 0h43.036v43.036H0z"/></clipPath><clipPath id="clip3_19_166"><path fill="#fff" transform="translate(216.902 163.537)" d="M0 0h34.429v34.429H0z"/></clipPath><clipPath id="clip4_19_166"><path fill="#fff" transform="translate(104.148 367.527)" d="M0 0h43.036v43.036H0z"/></clipPath><clipPath id="clip5_19_166"><path fill="#fff" transform="translate(216.902 87.793)" d="M0 0h34.429v34.429H0z"/></clipPath><clipPath id="clip6_19_166"><path fill="#fff" transform="translate(38.734 303.834)" d="M0 0h43.036v43.036H0z"/></clipPath><clipPath id="clip7_19_166"><path fill="#fff" transform="translate(265.965 15.492)" d="M0 0h43.036v43.036H0z"/></clipPath><clipPath id="clip8_19_166"><path fill="#fff" transform="translate(76.606 56.807)" d="M0 0h43.036v43.036H0z"/></clipPath><clipPath id="clip9_19_166"><path fill="#fff" transform="translate(398.516 128.246)" d="M0 0h43.036v43.036H0z"/></clipPath><clipPath id="clip10_19_166"><path fill="#fff" transform="translate(410.566 218.621)" d="M0 0h43.036v43.036H0z"/></clipPath><clipPath id="clip11_19_166"><path fill="#fff" transform="translate(16.355 218.621)" d="M0 0h43.036v43.036H0z"/></clipPath><clipPath id="clip12_19_166"><path fill="#fff" transform="translate(382.16 302.111)" d="M0 0h43.036v43.036H0z"/></clipPath><clipPath id="clip13_19_166"><path fill="#fff" transform="translate(333.102 203.785)" d="M0 0h40v40H0z"/></clipPath><clipPath id="clip14_19_166"><path fill="#fff" transform="translate(105.012 205.711)" d="M0 0h34.429v34.429H0z"/></clipPath><clipPath id="clip15_19_166"><path fill="#fff" transform="translate(305.559 128.246)" d="M0 0h34.429v34.429H0z"/></clipPath><clipPath id="clip16_19_166"><path fill="#fff" transform="translate(222.93 234.977)" d="M0 0h25.822v25.822H0z"/></clipPath><clipPath id="clip17_19_166"><path fill="#fff" transform="translate(32.71 132.551)" d="M0 0h43.005v43.005H0z"/></clipPath><clipPath id="clip18_19_166"><path fill="#fff" transform="translate(129.109 129.107)" d="M0 0h34.429v34.429H0z"/></clipPath></defs></svg>