<svg width="1179" height="581" fill="none" xmlns="http://www.w3.org/2000/svg"><path fill-rule="evenodd" clip-rule="evenodd" d="M1179 48.147h-34.32v15.445h17.16V520.09h-22.31v13.73H1179V48.146zM0 63.592V533.82h39.472v-13.73h-22.31V63.592h17.161V48.147H0v15.445zM80.66 520.09h94.389v13.73H80.661v-13.73zm166.468 0h-25.742v13.73h25.742v-13.73zm0 34.324h17.16v13.729h-30.891v-13.729h.002V533.82h13.729v20.594zm132.143 0h-41.188v13.729h41.188v-13.729zm73.797 0h34.323v13.729h-34.323v-13.729zm240.26 0h34.323v13.729h-34.323v-13.729zm219.668 0h34.324v13.729h-34.324v-13.729zm-113.266 0h42.904v13.729H799.73v-13.729zm295.18-34.324h-89.24v13.73h89.24v-13.73zm-595.508 0h-25.743v34.324h13.729V533.82h12.014v-13.73zm193.927 0h-12.015v13.73h12.015v20.594h13.73V520.09h-13.73zm266.005 0h-25.743v34.324h13.729V533.82h12.014v-13.73zm-324.354 0h-89.24v13.73h89.24v-13.73zM111.549 48.146h36.039v15.446h-36.039V48.147zm151.023 0h-36.039v15.446h36.039V48.147zm73.794 0h36.04v15.446h-36.04V48.147zm147.59 0h-63.498v15.446h63.498V48.147zm46.338 0h84.092v15.446h-84.092V48.147zm228.25 0h-68.647v15.446h68.647V48.147zm49.768 0h32.607v15.446h-32.607V48.147zm145.872 0h-37.755v15.446h37.755V48.147zm75.516 0h39.47v15.446h-39.47V48.147z" fill="silver"/><path fill-rule="evenodd" clip-rule="evenodd" d="M475.375 12.107v255.708h.001v6.864h-.001v10.297h-6.865v-10.297H322.638v-6.864H468.51V12.107h6.865zM133.861 267.815V63.592h-6.865v204.223h-5.15v6.864l118.416.001h6.864l41.187-.001v-6.864h-41.187V252.37h-6.864v15.445H133.861zm-116.7 0h73.795v6.864H17.161v-6.864zm187.061 58.349h-77.227v6.865h.001V578.44h6.865V333.029h70.361v-6.865zm34.322 0h243.694v6.865H360.394v221.385h-6.865V333.029H238.544v-6.865zm425.611 0H514.849v6.865h72.076v247.127h6.865V333.029h70.365v-6.865zm34.322 0h241.979v6.865H825.473v221.385h-6.864V333.029H698.477v-6.865zm157.886-58.349H712.206V12.107h-6.865v272.869h6.865v-10.297h144.157v-6.864zm34.324 0h156.173V63.592h6.86v204.223h3.43v6.864H890.687v-6.864zm271.153 0h-72.08v6.864h72.08v-6.864zm-187.062 58.349h78.942v253.992h-6.86V333.029h-72.082v-6.865zM1166.99 533.82v34.323h-6.87V533.82h6.87zm-226.534-13.73V384.514h-6.865V520.09h6.865zm-233.398 0V384.514h-6.864V520.09h6.864zM480.524 384.514V520.09h-6.865V384.514h6.865zM247.126 520.09V384.514h-6.864V520.09h6.864zm-228.25 49.769V533.82h-6.864v36.039h6.864zm228.25-506.267v157.886h-6.864V63.592h6.864zm113.268 154.454V12.106h-6.865v205.94h6.865zm465.079-205.94v205.94h-6.864V12.106h6.864zm114.983 205.94V63.592h-6.865v154.454h6.865z" fill="silver"/><path d="M18.02 529.529H2.573V51.579h356.961M18.019 529.529v39.472l112.409 8.581 103.827-10.297h252.276l103.828 12.013 103.827-12.013h252.276l103.828 12.013 110.69-12.013v-37.756m-1142.96 0h1142.96m0 0h14.59V51.579H819.466m-459.931 0V12.965h114.983V.952h231.681v12.013h113.267v38.614m-459.931 0h459.931M246.268 217.188h38.614m69.505 0h-34.324m149.306-54.917h-66.93V176h-8.581m-30.033 0h-4.29m42.904 48.053v-18.878h66.93m-66.93 47.194v16.304m-317.49 20.594v-15.446m0 44.621v20.593H16.303m181.913-6.864v25.742m12.871 29.175h-12.871v32.607h-65.214m149.306-34.323v-53.201m156.17 53.201v-53.201m82.376 25.742v-25.742m-13.729 54.059h13.729v33.465h66.93m5.149 0h65.214v-32.607h12.013m-12.013-29.175v-25.742m84.092 53.201v-53.201m154.454 53.201v-53.201m84.092 25.742v-25.742m-12.013 54.917h12.013v32.607h66.935m48.05-94.389v34.323h66.93m-66.93-63.498v-22.31m-202.509-60.065h41.188m-75.511 0h-34.324m-48.052 39.471v15.446m0-44.62v-18.878h-65.214M783.427 176h-6.865v-13.729h-65.214M531.151 62.734v48.91h73.795v173.332h5.148V103.922h-71.22V62.734m-.858 65.214v-13.73h63.498v58.779m-63.498 63.069v36.039h63.498v-99.108m-63.498-12.442v12.442m0 12.442v-12.442m0 0h63.498" stroke="silver"/><g filter="url(#filter0_b_2019_4770)"><path fill="#F2F2F2" fill-opacity=".5" d="M19 66h445v191H19z"/></g><g filter="url(#filter1_b_2019_4770)"><path fill="#46A201" fill-opacity=".5" d="M19 331h449v187H19z"/></g><g filter="url(#filter2_b_2019_4770)"><path fill="#F8ED74" fill-opacity=".5" d="M717 66h443v452H717z"/></g><path d="M924.262 301l-7.02-21.6h3.255l5.985 18.435 6.06-18.435h3.255l-7.02 21.6h-4.515zm13.198 0v-21.6h3.135V301h-3.135zm6.739 0v-21.6h8.73c.21 0 .47.01.78.03.31.01.605.04.885.09 1.2.19 2.2.6 3 1.23a5.79 5.79 0 011.815 2.385c.4.96.6 2.02.6 3.18 0 1.17-.2 2.235-.6 3.195a5.79 5.79 0 01-1.815 2.385c-.8.63-1.8 1.04-3 1.23-.28.04-.58.07-.9.09-.31.02-.565.03-.765.03h-5.595V301h-3.135zm3.135-10.725h5.475c.2 0 .42-.01.66-.03.25-.02.485-.055.705-.105.64-.15 1.155-.425 1.545-.825.39-.41.67-.88.84-1.41a5.04 5.04 0 000-3.165c-.17-.53-.45-.995-.84-1.395-.39-.41-.905-.69-1.545-.84a3.84 3.84 0 00-.705-.12c-.24-.02-.46-.03-.66-.03h-5.475v7.92zM204.819 173v-3.015c-1.11.19-2.175.145-3.195-.135a6.68 6.68 0 01-2.715-1.5c-.79-.72-1.415-1.65-1.875-2.79-.46-1.14-.69-2.47-.69-3.99 0-1.53.23-2.865.69-4.005.46-1.15 1.085-2.09 1.875-2.82.8-.73 1.705-1.24 2.715-1.53 1.02-.3 2.085-.355 3.195-.165v-1.65h3.12v1.65c1.11-.19 2.17-.135 3.18.165 1.02.29 1.925.8 2.715 1.53.8.73 1.43 1.67 1.89 2.82.47 1.14.705 2.475.705 4.005 0 1.52-.235 2.85-.705 3.99-.46 1.14-1.09 2.07-1.89 2.79a6.554 6.554 0 01-2.715 1.5c-1.01.28-2.07.325-3.18.135V173h-3.12zm0-5.925v-11.16c-.9-.14-1.685-.08-2.355.18-.66.26-1.205.665-1.635 1.215-.43.54-.75 1.18-.96 1.92-.21.73-.315 1.51-.315 2.34 0 .82.105 1.595.315 2.325.21.72.53 1.345.96 1.875.43.52.975.9 1.635 1.14.67.24 1.455.295 2.355.165zm3.12 0c.9.13 1.68.075 2.34-.165.66-.24 1.205-.62 1.635-1.14.44-.52.765-1.135.975-1.845.22-.72.33-1.48.33-2.28 0-.8-.11-1.57-.33-2.31a5.587 5.587 0 00-.975-1.95c-.43-.57-.975-.99-1.635-1.26-.66-.28-1.44-.35-2.34-.21v11.16zm17.624 6.375c-1.62 0-3.025-.365-4.215-1.095s-2.11-1.735-2.76-3.015c-.64-1.29-.96-2.775-.96-4.455 0-1.69.33-3.175.99-4.455.66-1.29 1.585-2.29 2.775-3 1.19-.72 2.58-1.08 4.17-1.08 1.62 0 3.025.365 4.215 1.095s2.11 1.735 2.76 3.015c.65 1.28.975 2.755.975 4.425 0 1.69-.33 3.18-.99 4.47-.65 1.28-1.57 2.285-2.76 3.015-1.19.72-2.59 1.08-4.2 1.08zm0-2.955c1.55 0 2.705-.52 3.465-1.56.77-1.05 1.155-2.4 1.155-4.05 0-1.69-.39-3.04-1.17-4.05-.77-1.02-1.92-1.53-3.45-1.53-1.05 0-1.915.24-2.595.72-.68.47-1.185 1.125-1.515 1.965-.33.83-.495 1.795-.495 2.895 0 1.7.39 3.06 1.17 4.08.78 1.02 1.925 1.53 3.435 1.53zm17.952 2.955c-1.55 0-2.85-.375-3.9-1.125-1.05-.76-1.845-1.785-2.385-3.075-.54-1.29-.81-2.745-.81-4.365s.265-3.075.795-4.365c.54-1.29 1.33-2.305 2.37-3.045 1.05-.75 2.34-1.125 3.87-1.125 1.52 0 2.83.375 3.93 1.125 1.11.74 1.965 1.755 2.565 3.045.6 1.28.9 2.735.9 4.365 0 1.62-.3 3.08-.9 4.38-.59 1.29-1.435 2.31-2.535 3.06-1.09.75-2.39 1.125-3.9 1.125zm-7.62 6.75v-23.4h2.79v11.655h.36V180.2h-3.15zm7.185-9.585c1 0 1.825-.255 2.475-.765.66-.51 1.15-1.195 1.47-2.055.33-.87.495-1.84.495-2.91 0-1.06-.165-2.02-.495-2.88-.32-.86-.815-1.545-1.485-2.055-.67-.51-1.525-.765-2.565-.765-.98 0-1.79.24-2.43.72-.63.48-1.1 1.15-1.41 2.01-.3.86-.45 1.85-.45 2.97s.15 2.11.45 2.97c.3.86.775 1.535 1.425 2.025s1.49.735 2.52.735zm11.786 9.585l3.135-8.535.045 2.52-7.065-17.385h3.27l5.28 13.425h-.96l5.04-13.425h3.18l-8.94 23.4h-2.985zm13.359-7.2v-16.2h2.625l5.985 11.88 5.97-11.88h2.64V173h-3.03v-9.78L277.54 173h-1.425l-4.875-9.78V173h-3.015z" fill="#4D4D4D"/><path d="M172.354 436v-21.6h13.8v2.955h-10.665V436h-3.135zm17.767.45c-1.2 0-2.205-.22-3.015-.66-.81-.45-1.425-1.04-1.845-1.77a4.93 4.93 0 01-.615-2.43c0-.82.145-1.54.435-2.16.29-.62.72-1.145 1.29-1.575.57-.44 1.27-.795 2.1-1.065.72-.21 1.535-.395 2.445-.555.91-.16 1.865-.31 2.865-.45 1.01-.14 2.01-.28 3-.42l-1.14.63c.02-1.27-.25-2.21-.81-2.82-.55-.62-1.5-.93-2.85-.93-.85 0-1.63.2-2.34.6-.71.39-1.205 1.04-1.485 1.95l-2.925-.9c.4-1.39 1.16-2.495 2.28-3.315 1.13-.82 2.63-1.23 4.5-1.23 1.45 0 2.71.25 3.78.75 1.08.49 1.87 1.27 2.37 2.34.26.53.42 1.09.48 1.68.06.59.09 1.225.09 1.905V436h-2.775v-3.705l.54.48c-.67 1.24-1.525 2.165-2.565 2.775-1.03.6-2.3.9-3.81.9zm.555-2.565c.89 0 1.655-.155 2.295-.465.64-.32 1.155-.725 1.545-1.215.39-.49.645-1 .765-1.53.17-.48.265-1.02.285-1.62.03-.6.045-1.08.045-1.44l1.02.375c-.99.15-1.89.285-2.7.405-.81.12-1.545.24-2.205.36-.65.11-1.23.245-1.74.405-.43.15-.815.33-1.155.54-.33.21-.595.465-.795.765-.19.3-.285.665-.285 1.095 0 .42.105.81.315 1.17.21.35.53.63.96.84.43.21.98.315 1.65.315zm9.55 2.115v-2.655c.6.11 1.055.095 1.365-.045.32-.15.555-.42.705-.81.16-.39.295-.895.405-1.515.17-.91.315-1.945.435-3.105.13-1.17.245-2.435.345-3.795.1-1.36.19-2.785.27-4.275h11.64V436h-3.15v-13.245h-5.67c-.06.79-.13 1.63-.21 2.52-.07.88-.15 1.755-.24 2.625-.09.87-.185 1.685-.285 2.445-.1.76-.205 1.41-.315 1.95-.2 1.08-.495 1.94-.885 2.58a2.58 2.58 0 01-1.62 1.215c-.7.19-1.63.16-2.79-.09zm23.046.45c-1.2 0-2.205-.22-3.015-.66-.81-.45-1.425-1.04-1.845-1.77a4.93 4.93 0 01-.615-2.43c0-.82.145-1.54.435-2.16.29-.62.72-1.145 1.29-1.575.57-.44 1.27-.795 2.1-1.065.72-.21 1.535-.395 2.445-.555.91-.16 1.865-.31 2.865-.45 1.01-.14 2.01-.28 3-.42l-1.14.63c.02-1.27-.25-2.21-.81-2.82-.55-.62-1.5-.93-2.85-.93-.85 0-1.63.2-2.34.6-.71.39-1.205 1.04-1.485 1.95l-2.925-.9c.4-1.39 1.16-2.495 2.28-3.315 1.13-.82 2.63-1.23 4.5-1.23 1.45 0 2.71.25 3.78.75 1.08.49 1.87 1.27 2.37 2.34.26.53.42 1.09.48 1.68.06.59.09 1.225.09 1.905V436h-2.775v-3.705l.54.48c-.67 1.24-1.525 2.165-2.565 2.775-1.03.6-2.3.9-3.81.9zm.555-2.565c.89 0 1.655-.155 2.295-.465.64-.32 1.155-.725 1.545-1.215.39-.49.645-1 .765-1.53.17-.48.265-1.02.285-1.62.03-.6.045-1.08.045-1.44l1.02.375c-.99.15-1.89.285-2.7.405-.81.12-1.545.24-2.205.36-.65.11-1.23.245-1.74.405-.43.15-.815.33-1.155.54-.33.21-.595.465-.795.765-.19.3-.285.665-.285 1.095 0 .42.105.81.315 1.17.21.35.53.63.96.84.43.21.98.315 1.65.315zm10.75-6.09v-2.52h9v2.52h-9zm14.188 15.405l3.135-8.535.045 2.52-7.065-17.385h3.27l5.28 13.425h-.96l5.04-13.425h3.18l-8.94 23.4h-2.985zm11.575-7.2l6.24-8.1-5.895-8.1h3.45l5.64 7.905V419.8h2.82v7.905l5.64-7.905h3.465l-5.895 8.1 6.24 8.1H278.4l-5.805-7.905V436h-2.82v-7.905l-5.79 7.905h-3.645zm36.845-16.2V436h-3.015v-11.265L286.07 436h-2.55v-16.2h3.015v11.04l8.115-11.04h2.535zm3.277 16.2v-16.2h3.135v6.615h7.905V419.8h3.135V436h-3.135v-6.63h-7.905V436h-3.135z" fill="#fff"/><defs><filter id="filter0_b_2019_4770" x="-11" y="36" width="505" height="251" filterUnits="userSpaceOnUse" color-interpolation-filters="sRGB"><feFlood flood-opacity="0" result="BackgroundImageFix"/><feGaussianBlur in="BackgroundImageFix" stdDeviation="15"/><feComposite in2="SourceAlpha" operator="in" result="effect1_backgroundBlur_2019_4770"/><feBlend in="SourceGraphic" in2="effect1_backgroundBlur_2019_4770" result="shape"/></filter><filter id="filter1_b_2019_4770" x="-11" y="301" width="509" height="247" filterUnits="userSpaceOnUse" color-interpolation-filters="sRGB"><feFlood flood-opacity="0" result="BackgroundImageFix"/><feGaussianBlur in="BackgroundImageFix" stdDeviation="15"/><feComposite in2="SourceAlpha" operator="in" result="effect1_backgroundBlur_2019_4770"/><feBlend in="SourceGraphic" in2="effect1_backgroundBlur_2019_4770" result="shape"/></filter><filter id="filter2_b_2019_4770" x="687" y="36" width="503" height="512" filterUnits="userSpaceOnUse" color-interpolation-filters="sRGB"><feFlood flood-opacity="0" result="BackgroundImageFix"/><feGaussianBlur in="BackgroundImageFix" stdDeviation="15"/><feComposite in2="SourceAlpha" operator="in" result="effect1_backgroundBlur_2019_4770"/><feBlend in="SourceGraphic" in2="effect1_backgroundBlur_2019_4770" result="shape"/></filter></defs></svg>