<svg width="1180" height="635" fill="none" xmlns="http://www.w3.org/2000/svg"><path d="M459.43 565.665v52.992H720V299.99h-42.235l-74.449-178.311-136.728 54.424-30.066-74.475 30.782-13.606 5.727 13.606 16.465-6.445-5.727-12.89 23.623-10.025-11.454-29.36-51.541 20.05-17.181-40.102-11.453 4.297-9.306-20.05-126.706 51.559L173.089.657l-40.088 63.018-10.738-7.161-2.147 3.58-13.602-10.025L2 204.03l98.788 66.598h82.323v158.26h115.252v136.776H459.43z" fill="#CDCDCD"/><path fill-rule="evenodd" clip-rule="evenodd" d="M173.011 1L280.1 59.452 406.914 7.467l9.512 19.817 11.981-4.792 17.029 41.383 51.099-20.598 13.134 32.277-22.987 9.71 5.376 13.54-19.403 7.276-5.868-13.201-27.991 11.779 30.04 71.344 135.2-53.754 75.985 179.748h153.774v89.592h34.329v231.595H457.775v-53.39H297.213V433.004H181.31V274.698h-69.864l-4.514 4.925L0 206.731 106.172 50.228l13.406 10.022 2.488-3.505 10.278 6.937L173.011 1zm12.176 273.698v154.428h115.904v136.789h156.684v-134.85h3.877v188.241h77.852v-6.909h3.878v6.909h76.739v-6.909h3.877v6.909h80.531v-6.909h3.877v6.909h77.314v-6.909h3.878v6.909h74.648v-223.84h-34.328v-14.824h-80.375v-3.878h80.375v-70.89H677.45l-13.637-32.26-76.837 31.389 11.276 28.379-3.604 1.432-11.262-28.344-10.118 4.133-10.199-26.37 3.616-1.398 8.774 22.685 86.844-35.478-28.018-66.28-85.69 34.738 9.74 23.228-3.576 1.499-9.757-23.27-4.618 1.872-1.457-3.593 4.576-1.855-10.804-25.794 3.577-1.498 10.82 25.835 85.679-34.734-30.833-72.937-84.732 33.689 11.492 28.089-3.588 1.468-11.507-28.125-46.87 18.635-33.02-78.421 35.069-14.757 5.928 13.335 12.282-4.605-5.318-13.393 22.957-9.697L494.4 48.318l-51.085 20.593-17.032-41.393-8.219 3.287 18.478 40.863-49.541 19.301-1.407-3.613 45.73-17.817-17.609-38.943-.018-.04-8.696-18.114-119.58 49.02 22.566 55.525 39.675-15.175 1.385 3.622-43.223 16.531-23.991-59.033-1.971.808L174.307 6.125l-40.86 62.98-10.411-7.028-2.597 3.658-13.337-9.97L5.381 205.707l100.961 68.821 3.399-3.707h104.568v-30.342l45.928-67.719 93.335-37.938 18.543 12.124 28.278 70.865-13.964 7.877-24.937 36.895-108.708-71.925-25.501 37.6 107.599 72.07-24.516 37.795v14.911h-78.891l-17.166-12.517v-65.819h-29.122zm39.919-43.231l-6.919 10.202v96.877l14.552 10.61h73.75v-12.181l23.061-35.552-104.444-69.956zm29.854-44.019l105.469 69.782 23.3-34.47 11.807-6.661-26.568-66.578-15.818-10.343-90.364 36.731-7.826 11.539zm251.499 67.024l-7.217 3.093-1.528-3.564 7.218-3.093 1.527 3.564zm454.445 44.615h139.976v258.112H1180v33.002h-79.12v43.876H939.345v-76.878h21.559V299.087zm136.106 331.112v-43.876h79.11v-25.247h-79.11V302.965H964.782v258.111h-21.56v69.123h153.788zM537.1 329.271l-8.043 4.124-1.769-3.45 8.042-4.124 1.77 3.45zm66.603 28.85l3.56-1.536 8.705 20.179H713.7v3.878H613.418l-9.715-22.521zm-42.719 13.743c7.868 7.272 15.318 18.323 15.318 33.168 0 14.843-7.31 26.139-16.565 33.668-9.201 7.486-20.488 11.39-28.834 11.39-6.781 0-14.194-3.05-20.554-6.66-6.408-3.638-12.009-7.997-15.237-10.93l2.607-2.87c3.041 2.762 8.412 6.947 14.544 10.428 6.181 3.509 12.877 6.155 18.64 6.155 7.334 0 17.777-3.516 26.387-10.52 8.555-6.96 15.135-17.225 15.135-30.661 0-13.434-6.72-23.524-14.073-30.321-3.675-3.397-7.476-5.939-10.594-7.623-1.56-.843-2.929-1.46-4.007-1.862a12.993 12.993 0 00-1.482-.462 3.773 3.773 0 00-.403-.07l-.043-.003v-3.877c.898 0 2.081.332 3.28.778 1.276.475 2.81 1.172 4.498 2.084 3.376 1.824 7.448 4.55 11.383 8.188zm-175.751 59.201v7.293h-3.877v-7.293h3.877zm-3.877 52.464v-8.398h3.877v8.398h-3.877zm158.148 5.134v-7.831h3.878v7.831h-3.878zm246.216 0v-7.831h3.878v7.831h-3.878zM539.504 589.509v-7.593h3.878v7.593h-3.878zm246.216 0v-7.593h3.878v7.593h-3.878zm-77.314-7.343v6.815h-3.877v-6.815h3.877z" fill="silver"/><path d="M943.222 585.825l10.558 10.558 1.441-1.31-11.999-12.044v2.796zM172.763 3.91l6.045 3.555-6.944 11.81-6.046-3.555 6.945-11.81zm323.104 40.866l1.914 4.876-12.715 4.992-1.914-4.876 12.715-4.992zm-62.325 25.309l-2.563-6.528-47.481 18.642 2.563 6.528 47.481-18.642zm170.456 53.204l2.563 6.528-8.883 3.488-2.563-6.528 8.883-3.488zm31.503 82.279l-2.563-6.528-97.355 38.225 2.563 6.528 97.355-38.225zm-450.157 94.354h-9.897v6.836h9.897v-6.836zm-9.897 44.493h3.45v-13.601h6.446l.001 20.437h-9.897v-6.836zm9.897 41.37h-9.897v9.352h9.897v-9.352zm124.251 43.419h-11.71v1.452h-8.919v24.163h11.027v-17.344h9.602v-8.271zm0 44.271h-10.643v10.643h10.643v-10.643zm-5.321 44.971h-5.322v17.157h5.322v-17.157zm73.395-87.79h7.621v10.703h-7.621v-10.703zm87.479 0h-7.622v10.703h7.622v-10.703zm-87.479 42.819h7.621v12.155h-7.621v-12.155zm88.865 0h-11.027v15.722h11.027v-15.722zm-7.647 92.412h6.124v39.521h-6.124v-39.521zm86.416 15.26h-6.734v9.07h6.734v-9.07zm-9.757 30.783h12.643v11.407h-12.643V611.93zm93.253 0h-12.644v11.407h12.644V611.93zm69.832 0h12.644v11.407h-12.644V611.93zm12.644-30.988h-12.644v8.807h12.644v-8.807zm73.191 0h6.659v8.807h-6.659v-8.807zm6.659-100.319h-6.659v8.807h6.659v-8.807zm-79.851-5.839h13.091v26.324h-13.091v-26.324zm-166.077 6.364h-6.659v8.807h6.659v-8.807zm235.91 130.782h12.643v11.407h-12.643V611.93zM241.348 430.656h-9.896v9.352h9.896v-9.352zm-65.901 0h9.897v9.352h-9.897v-9.352zm41.695-120.527h-19.419v12.863h19.419v-12.863zm14.31 32.87h9.896v9.707h-9.896v-9.707zm77.824-8.842H288.63v17.364h20.646v-17.364zM841.21 473.199h12.193v-8.535h12.802l.001 16.173h5.493v9.118h-5.493l-.001 68.594h-12.802v-66.248H841.21v-19.102zm142.138 0h14.576v8.09h40.236v-8.09h13.25v-5.46h8.1v-19.504h-8.1v-34.901h8.1V393.42h-6.08v-12.113h15.73v12.113h-4.51v24.636h-9.19v25.663h9.19v63.069h-9.19v23.594h8.11v27.135h-25.41v-9.569h21.35v-13.05h-8.1v-32.832h8.1v-10.923h-8.1v-2.669h-68.062v-15.275zm29.152-91.892h20.33v7.596h-20.33v-7.596zm-21.556 0H977.6v7.596h13.344v-7.596zm104.296 0h8.83v21.762h-8.83v-21.762zm-111.892 166.64h14.576v9.57h-14.576v-9.57zM991 597v-33h-9v33h9zm0 2v33h-9v-33h9zm11 33v-33h-9v33h9zm11-33v33h-9v-33h9zm11 33v-33h-9v33h9zm11-33v33h-9v-33h9zm11 33v-33h-9v33h9zm11-33v33h-9v-33h9zm-55-2v-33h-9v33h9zm11-33v33h-9v-33h9zm11 33v-33h-9v33h9zm11-33v33h-9v-33h9zm11 33v-33h-9v33h9zm11-33v33h-9v-33h9zm-190.794 16.942h5.493v9.118h-5.493v-9.118zm-32.475-204.051h-14.858v16.761h14.858v-16.761zm-49.007 3.506h7.369v9.51h-7.369v-9.51zm-73.665-1.432h-11.768v8.915h11.768v-8.915zm-92.479 1.432h7.013v9.51h-7.013v-9.51zm-59.366-232.226l-2.563-6.528-8.884 3.488 2.563 6.528 8.884-3.488zm-42.183 11.028l2.563 6.528-8.884 3.488-2.563-6.528 8.884-3.488zm-167.478-54.778l-2.563-6.528-38.183 14.992-21.992-56.01-8.01 3.145 24.565 62.564 8.01-3.145-.01-.026 38.183-14.992zm-210.54-35.446l-6.046-3.555-5.18 8.81 6.046 3.554 5.18-8.81zM33.108 212.087l6.045 3.555-6.363 10.822-6.046-3.555 6.364-10.822zm39.552 29.935l-6.046-3.555-5.18 8.81 6.045 3.555 5.18-8.81zm33.001-61.678l6.045 3.555-3.114 5.296-6.046-3.555 3.115-5.296zm66.652-87.059l-6.045-3.555-3.115 5.296 6.046 3.555 3.114-5.296zm73.202-42.198l6.046 3.555-7.696 13.088-6.046-3.555 7.696-13.088zm-31.108-19.868l-6.046-3.555-7.696 13.088 6.046 3.555 7.696-13.088zm-35.845 198.397l6.045 3.555-3.114 5.296-6.046-3.555 3.115-5.296zm66.951-86.669l-6.045-3.555-3.114 5.296 6.045 3.555 3.114-5.296zm6.428 41.797l4.319 2.919-29.265 43.308-4.319-2.919 29.265-43.308zm-139.485 83.832l-9.152-5.381-5.18 8.809 9.152 5.382 5.18-8.81zM61.9 148.958l16.337 9.607-5.18 8.809-16.337-9.606 5.18-8.81zm49.808-94.71l-6.045-3.555-7.537 12.817 6.045 3.555 7.537-12.817zm-61.033 77.833l6.045 3.555-6.508 11.067-6.045-3.555 6.508-11.067zm428.439 54.184l-7.214-18.374-8.883 3.488 7.214 18.374 8.883-3.488zM406.663 8.243l4.89 12.456-8.883 3.488-4.89-12.456 8.883-3.488zm-32.644 28.455l-4.891-12.456-8.883 3.488 4.89 12.456 8.884-3.488zm-46.34 3.818l4.89 12.455-8.883 3.488-4.891-12.456 8.884-3.487zm177.905 208.923l2.563 6.528-8.606 3.379-2.563-6.528 8.606-3.379zm32.562 81.657l-2.563-6.528-8.606 3.379 2.564 6.528 8.605-3.379zm37.66-23.865l2.563 6.528-8.606 3.379-2.563-6.529 8.606-3.378zm90.719-28.955l-2.564-6.528-10.074 3.955 2.563 6.528 10.075-3.955zm11.008 21.964h156.198v11.944H677.533V300.24zm-348.332-7.736l-3.661 5.382 7.535 5.125 3.66-5.382-7.534-5.125zm21.073-32.533l3.661-5.382 7.535 5.125-3.661 5.382-7.535-5.125zm31.975-46.714l-3.661 5.382 7.535 5.125 12.145-5.786-4.315-9.228-11.704 4.507zm-20.66-61.785l7.193-3.637 3.788 7.493-7.194 3.636-3.787-7.492zM984.131 300.65h-20.484v65.709h20.484V300.65z" fill="silver"/><path fill-rule="evenodd" clip-rule="evenodd" d="M1060.73 380.539h38.69v2.327h-36.37v5.9h-78.02v166.843h78.33v2.326h-80.657V386.44h78.027v-5.901zM591.953 483.396H464.595v-2.326h127.358v2.326zm171.79 0H615.829v-2.326h147.914v2.326zm78.616 0h-24.168v-2.326h24.168v2.326z" fill="silver"/><path fill="#CDCDCD" d="M722 312.99h107v63H722zm263.851 54.852v-62.857h109.509v75h-42.66v5h-18.49V380.7h-22.76v4.285h-18.488V380.7h-15.644v4.285h-9.956v-17.143h18.489z"/><path d="M986 390.955h66.3v4.278h5.7v17.113h-7.13v37.079h7.13v17.113h-7.13v5.704h-13.54v17.113h12.83v2.852h7.84v8.557h-7.84v35.652h7.84v10.695h-20.67v7.844h-38.498v-7.844H986v-57.756h12.832v-17.113H986v-81.287z" fill="#49CD6D"/><path fill-rule="evenodd" clip-rule="evenodd" d="M869.475 300.5h-34.363v90.203h34.363v89.58h3.3v11h-3.3v89h3.3v11h-3.3v27.075h68.726v-62.999h21.477V300.5h-90.203zm-143.7 201.783v-17.081h57.792v5.727h8.591v-5.727h47.965v8.59h12.886v65.863h10.739v58.704h-68.473v-7.076h-15v7.076H722V502.283h3.775zm57.5 78h9v11h-9v-11z" fill="#fff"/><rect x="382" y="291.5" width="66" height="66" rx="33" stroke="#919191" stroke-width="2"/><path d="M412 332.5a3 3 0 116 0 3 3 0 01-6 0z" fill="#919191"/><path fill-rule="evenodd" clip-rule="evenodd" d="M406.243 321.694l-.631-5.678a9.899 9.899 0 010-2.19l.046-.41a9.399 9.399 0 0118.684 0l.045.41a9.899 9.899 0 010 2.19l-.631 5.678 1.373.11a4.723 4.723 0 014.285 3.944 41.795 41.795 0 010 13.504 4.723 4.723 0 01-4.285 3.944l-2.992.239a89.753 89.753 0 01-14.275 0l-2.992-.239a4.723 4.723 0 01-4.285-3.944 41.795 41.795 0 010-13.504 4.723 4.723 0 014.285-3.944l1.373-.11zm8.009-13.596a6.4 6.4 0 017.108 5.649l.045.41c.057.508.057 1.02 0 1.528l-.642 5.781a89.75 89.75 0 00-11.527 0l-.642-5.781a6.848 6.848 0 010-1.528l.045-.41a6.4 6.4 0 015.613-5.649zm7.646 16.457a86.82 86.82 0 00-13.797 0l-2.992.239a1.723 1.723 0 00-1.563 1.439 38.76 38.76 0 000 12.534 1.723 1.723 0 001.563 1.439l2.992.238c4.592.367 9.206.367 13.797 0l2.993-.238a1.723 1.723 0 001.563-1.439c.679-4.15.679-8.384 0-12.534a1.723 1.723 0 00-1.563-1.439l-2.993-.239z" fill="#919191"/><g filter="url(#filter0_b_545_2531)"><rect x="1006" y="457.157" width="27" height="27" rx="13.5" fill="#fff"/><rect x="1006.5" y="457.657" width="26" height="26" rx="13" stroke="#333"/><path d="M1015.88 475.157v-7.26l-1.62.99v-1.398l1.62-.972h1.28v8.64h-1.28zm5.98.162c-.43 0-.83-.08-1.21-.24-.38-.164-.7-.396-.98-.696-.27-.3-.47-.654-.59-1.062l1.21-.336c.12.372.32.658.61.858.28.196.6.292.96.288.31-.004.59-.078.83-.222.24-.144.43-.338.56-.582.14-.248.21-.532.21-.852 0-.48-.15-.876-.45-1.188-.3-.312-.69-.468-1.17-.468-.13 0-.27.02-.42.06-.14.04-.27.092-.39.156l-.59-.99 3.05-2.694.13.36h-4.2v-1.194h5.2v1.194l-2.54 2.436-.01-.408c.55 0 1.02.122 1.42.366.4.24.71.568.92.984.22.412.33.874.33 1.386 0 .552-.13 1.042-.39 1.47-.25.428-.6.764-1.04 1.008-.43.244-.91.366-1.45.366z" fill="#333"/></g><g filter="url(#filter1_b_545_2531)"><rect x="762" y="329.157" width="27" height="27" rx="13.5" fill="#fff"/><rect x="762.5" y="329.657" width="26" height="26" rx="13" stroke="#919191"/><path d="M775.315 347.157v-7.26l-1.626.99v-1.398l1.626-.972h1.278v8.64h-1.278z" fill="#919191"/></g><g filter="url(#filter2_b_545_2531)"><rect x="1026" y="325" width="27" height="27" rx="13.5" fill="#fff"/><rect x="1026.5" y="325.5" width="26" height="26" rx="13" stroke="#919191"/><path d="M1035.79 343v-7.26l-1.62.99v-1.398l1.62-.972h1.28V343h-1.28zm3.32-.006l.01-1.116 3.76-3.372c.3-.268.51-.524.62-.768.11-.244.16-.488.16-.732 0-.308-.06-.584-.2-.828a1.552 1.552 0 00-.56-.588 1.59 1.59 0 00-.83-.216c-.32 0-.61.076-.86.228-.25.148-.44.346-.58.594-.14.248-.21.516-.21.804h-1.28c0-.56.13-1.05.38-1.47.25-.424.6-.754 1.05-.99.44-.24.95-.36 1.52-.36.55 0 1.03.124 1.47.372.43.244.77.58 1.02 1.008.25.428.37.916.37 1.464 0 .396-.05.732-.15 1.008-.11.276-.26.532-.47.768-.21.236-.47.492-.78.768l-2.9 2.592-.14-.36h4.44v1.194h-5.84z" fill="#919191"/></g><g filter="url(#filter3_b_545_2531)"><rect x="880" y="580.5" width="49" height="27" rx="13.5" fill="#fff"/><rect x="880.5" y="581" width="48" height="26" rx="13" stroke="#333"/><path d="M891.055 598.5v-8.64h3.396c.548 0 1.008.112 1.38.336.372.224.652.514.84.87.188.352.282.724.282 1.116 0 .476-.118.884-.354 1.224-.232.34-.546.572-.942.696l-.012-.294c.552.136.976.402 1.272.798.296.392.444.85.444 1.374 0 .508-.102.95-.306 1.326-.2.376-.494.67-.882.882-.384.208-.85.312-1.398.312h-3.72zm1.272-1.194h2.256c.284 0 .538-.054.762-.162.228-.108.406-.262.534-.462.132-.204.198-.446.198-.726 0-.26-.058-.494-.174-.702a1.204 1.204 0 00-.492-.498 1.459 1.459 0 00-.75-.186h-2.334v2.736zm0-3.918h2.106c.232 0 .44-.046.624-.138.188-.096.336-.232.444-.408.112-.18.168-.396.168-.648a1.1 1.1 0 00-.336-.828c-.224-.216-.524-.324-.9-.324h-2.106v2.346zm5.508 5.112l2.424-3.276-2.37-3.204h1.488l1.614 2.226 1.596-2.226h1.488l-2.37 3.204 2.43 3.276h-1.494l-1.65-2.298-1.662 2.298h-1.494zm9.839.18c-.648 0-1.21-.146-1.686-.438a2.952 2.952 0 01-1.104-1.206c-.256-.516-.384-1.11-.384-1.782 0-.676.132-1.27.396-1.782a2.902 2.902 0 011.11-1.2c.476-.288 1.032-.432 1.668-.432.648 0 1.21.146 1.686.438.476.292.844.694 1.104 1.206.26.512.39 1.102.39 1.77 0 .676-.132 1.272-.396 1.788-.26.512-.628.914-1.104 1.206-.476.288-1.036.432-1.68.432zm0-1.182c.62 0 1.082-.208 1.386-.624.308-.42.462-.96.462-1.62 0-.676-.156-1.216-.468-1.62-.308-.408-.768-.612-1.38-.612-.42 0-.766.096-1.038.288-.272.188-.474.45-.606.786a3.12 3.12 0 00-.198 1.158c0 .68.156 1.224.468 1.632.312.408.77.612 1.374.612zm4.018 2.442v-2.448c.356 0 .61-.118.762-.354.156-.24.28-.646.372-1.218.056-.348.102-.718.138-1.11.04-.392.074-.816.102-1.272.028-.46.056-.966.084-1.518h4.644v5.472h.636v2.448h-1.188v-1.44h-4.356v1.44h-1.194zm1.794-2.448h3.048v-4.464h-2.268c-.016.264-.034.536-.054.816-.016.28-.036.558-.06.834-.02.276-.044.54-.072.792-.028.252-.06.48-.096.684-.048.316-.106.58-.174.792a1.284 1.284 0 01-.324.546z" fill="#333"/></g><g filter="url(#filter4_b_545_2531)"><rect x="753" y="536" width="79" height="27" rx="13.5" fill="#CFECD7"/><rect x="753.5" y="536.5" width="78" height="26" rx="13" stroke="#333"/><path d="M763.926 554v-8.64h6.87V554h-1.254v-7.458h-4.362V554h-1.254zm11.597.18c-.62 0-1.14-.15-1.56-.45a2.828 2.828 0 01-.954-1.23c-.216-.516-.324-1.098-.324-1.746 0-.648.106-1.23.318-1.746.216-.516.532-.922.948-1.218.42-.3.936-.45 1.548-.45.608 0 1.132.15 1.572.45.444.296.786.702 1.026 1.218.24.512.36 1.094.36 1.746 0 .648-.12 1.232-.36 1.752a2.91 2.91 0 01-1.014 1.224c-.436.3-.956.45-1.56.45zm-3.048 2.7v-9.36h1.116v4.662h.144v4.698h-1.26zm2.874-3.834c.4 0 .73-.102.99-.306.264-.204.46-.478.588-.822a3.26 3.26 0 00.198-1.164c0-.424-.066-.808-.198-1.152a1.79 1.79 0 00-.594-.822c-.268-.204-.61-.306-1.026-.306-.392 0-.716.096-.972.288-.252.192-.44.46-.564.804a3.6 3.6 0 00-.18 1.188c0 .448.06.844.18 1.188s.31.614.57.81c.26.196.596.294 1.008.294zm9.892-5.526V554h-1.206v-4.506l-3.24 4.506h-1.02v-6.48h1.206v4.416l3.246-4.416h1.014zm.957 6.48l2.424-3.276-2.37-3.204h1.488l1.614 2.226 1.596-2.226h1.488l-2.37 3.204 2.43 3.276h-1.494l-1.65-2.298-1.662 2.298h-1.494zm9.839.18c-.648 0-1.21-.146-1.686-.438a2.952 2.952 0 01-1.104-1.206c-.256-.516-.384-1.11-.384-1.782 0-.676.132-1.27.396-1.782a2.902 2.902 0 011.11-1.2c.476-.288 1.032-.432 1.668-.432.648 0 1.21.146 1.686.438.476.292.844.694 1.104 1.206.26.512.39 1.102.39 1.77 0 .676-.132 1.272-.396 1.788-.26.512-.628.914-1.104 1.206-.476.288-1.036.432-1.68.432zm0-1.182c.62 0 1.082-.208 1.386-.624.308-.42.462-.96.462-1.62 0-.676-.156-1.216-.468-1.62-.308-.408-.768-.612-1.38-.612-.42 0-.766.096-1.038.288-.272.188-.474.45-.606.786a3.12 3.12 0 00-.198 1.158c0 .68.156 1.224.468 1.632.312.408.77.612 1.374.612zM799.64 554l2.496-3.24-2.358-3.24h1.38l2.256 3.162v-3.162h1.128v3.162l2.256-3.162h1.386l-2.358 3.24 2.496 3.24h-1.458l-2.322-3.162V554h-1.128v-3.162L801.098 554h-1.458zm11.233.18c-.48 0-.882-.088-1.206-.264a1.88 1.88 0 01-.738-.708 1.972 1.972 0 01-.246-.972c0-.328.058-.616.174-.864.116-.248.288-.458.516-.63a2.76 2.76 0 01.84-.426 9.21 9.21 0 01.978-.222 33.24 33.24 0 011.146-.18l1.2-.168-.456.252c.008-.508-.1-.884-.324-1.128-.22-.248-.6-.372-1.14-.372-.34 0-.652.08-.936.24-.284.156-.482.416-.594.78l-1.17-.36c.16-.556.464-.998.912-1.326.452-.328 1.052-.492 1.8-.492.58 0 1.084.1 1.512.3.432.196.748.508.948.936.104.212.168.436.192.672.024.236.036.49.036.762V554h-1.11v-1.482l.216.192c-.268.496-.61.866-1.026 1.11-.412.24-.92.36-1.524.36zm.222-1.026c.356 0 .662-.062.918-.186.256-.128.462-.29.618-.486.156-.196.258-.4.306-.612a2.15 2.15 0 00.114-.648c.012-.24.018-.432.018-.576l.408.15-1.08.162a27.47 27.47 0 00-.882.144c-.26.044-.492.098-.696.162-.172.06-.326.132-.462.216a1.058 1.058 0 00-.318.306.802.802 0 00-.114.438c0 .168.042.324.126.468.084.14.212.252.384.336.172.084.392.126.66.126zm8.722.846v-2.25h-1.284c-.152 0-.334-.006-.546-.018a5.175 5.175 0 01-.588-.066 2.196 2.196 0 01-1.212-.63c-.324-.336-.486-.798-.486-1.386 0-.568.152-1.024.456-1.368a2.1 2.1 0 011.17-.672 2.96 2.96 0 01.624-.078c.216-.008.398-.012.546-.012h2.574l.006 6.48h-1.26zm-4.302 0l1.638-2.562h1.326L816.853 554h-1.338zm2.91-3.258h1.392v-2.214h-1.392c-.088 0-.196.004-.324.012s-.252.03-.372.066c-.124.036-.244.1-.36.192a1.069 1.069 0 00-.384.84c0 .276.078.504.234.684.156.176.342.292.558.348.116.032.232.052.348.06.116.008.216.012.3.012z" fill="#333"/></g><g filter="url(#filter5_b_545_2531)"><rect x="880.03" y="418" width="71" height="27" rx="13.5" fill="#CFECD7"/><rect x="880.53" y="418.5" width="70" height="26" rx="13" stroke="#333"/><path d="M890.923 436v-8.64h1.254v4.032l3.618-4.032h1.56l-3.822 4.218 4.104 4.422h-1.608l-3.852-4.128V436h-1.254zm9.892.18c-.648 0-1.21-.146-1.686-.438a2.952 2.952 0 01-1.104-1.206c-.256-.516-.384-1.11-.384-1.782 0-.676.132-1.27.396-1.782a2.902 2.902 0 011.11-1.2c.476-.288 1.032-.432 1.668-.432.648 0 1.21.146 1.686.438.476.292.844.694 1.104 1.206.26.512.39 1.102.39 1.77 0 .676-.132 1.272-.396 1.788-.26.512-.628.914-1.104 1.206-.476.288-1.036.432-1.68.432zm0-1.182c.62 0 1.082-.208 1.386-.624.308-.42.462-.96.462-1.62 0-.676-.156-1.216-.468-1.62-.308-.408-.768-.612-1.38-.612-.42 0-.766.096-1.038.288-.272.188-.474.45-.606.786a3.12 3.12 0 00-.198 1.158c0 .68.156 1.224.468 1.632.312.408.77.612 1.374.612zm7.541 1.182c-.62 0-1.14-.15-1.56-.45a2.828 2.828 0 01-.954-1.23c-.216-.516-.324-1.098-.324-1.746 0-.648.106-1.23.318-1.746.216-.516.532-.922.948-1.218.42-.3.936-.45 1.548-.45.608 0 1.132.15 1.572.45.444.296.786.702 1.026 1.218.24.512.36 1.094.36 1.746 0 .648-.12 1.232-.36 1.752a2.91 2.91 0 01-1.014 1.224c-.436.3-.956.45-1.56.45zm-3.048 2.7v-9.36h1.116v4.662h.144v4.698h-1.26zm2.874-3.834c.4 0 .73-.102.99-.306.264-.204.46-.478.588-.822a3.26 3.26 0 00.198-1.164c0-.424-.066-.808-.198-1.152a1.79 1.79 0 00-.594-.822c-.268-.204-.61-.306-1.026-.306-.392 0-.716.096-.972.288-.252.192-.44.46-.564.804a3.6 3.6 0 00-.18 1.188c0 .448.06.844.18 1.188s.31.614.57.81c.26.196.596.294 1.008.294zm9.892-5.526V436h-1.206v-4.506l-3.24 4.506h-1.02v-6.48h1.206v4.416l3.246-4.416h1.014zm1.197 7.92v-2.448c.356 0 .61-.118.762-.354.156-.24.28-.646.372-1.218.056-.348.102-.718.138-1.11.04-.392.074-.816.102-1.272.028-.46.056-.966.084-1.518h4.644v5.472h.636v2.448h-1.188V436h-4.356v1.44h-1.194zm1.794-2.448h3.048v-4.464h-2.268c-.016.264-.034.536-.054.816-.016.28-.036.558-.06.834-.02.276-.044.54-.072.792-.028.252-.06.48-.096.684-.048.316-.106.58-.174.792a1.284 1.284 0 01-.324.546zm8.953 1.188c-.648 0-1.21-.146-1.686-.438a2.952 2.952 0 01-1.104-1.206c-.256-.516-.384-1.11-.384-1.782 0-.676.132-1.27.396-1.782a2.902 2.902 0 011.11-1.2c.476-.288 1.032-.432 1.668-.432.648 0 1.21.146 1.686.438.476.292.844.694 1.104 1.206.26.512.39 1.102.39 1.77 0 .676-.132 1.272-.396 1.788-.26.512-.628.914-1.104 1.206-.476.288-1.036.432-1.68.432zm0-1.182c.62 0 1.082-.208 1.386-.624.308-.42.462-.96.462-1.62 0-.676-.156-1.216-.468-1.62-.308-.408-.768-.612-1.38-.612-.42 0-.766.096-1.038.288-.272.188-.474.45-.606.786a3.12 3.12 0 00-.198 1.158c0 .68.156 1.224.468 1.632.312.408.77.612 1.374.612zm7.541 1.182c-.62 0-1.14-.15-1.56-.45a2.828 2.828 0 01-.954-1.23c-.216-.516-.324-1.098-.324-1.746 0-.648.106-1.23.318-1.746.216-.516.532-.922.948-1.218.42-.3.936-.45 1.548-.45.608 0 1.132.15 1.572.45.444.296.786.702 1.026 1.218.24.512.36 1.094.36 1.746 0 .648-.12 1.232-.36 1.752a2.91 2.91 0 01-1.014 1.224c-.436.3-.956.45-1.56.45zm-3.048 2.7v-9.36h1.116v4.662h.144v4.698h-1.26zm2.874-3.834c.4 0 .73-.102.99-.306.264-.204.46-.478.588-.822a3.26 3.26 0 00.198-1.164c0-.424-.066-.808-.198-1.152a1.79 1.79 0 00-.594-.822c-.268-.204-.61-.306-1.026-.306-.392 0-.716.096-.972.288-.252.192-.44.46-.564.804a3.6 3.6 0 00-.18 1.188c0 .448.06.844.18 1.188s.31.614.57.81c.26.196.596.294 1.008.294z" fill="#333"/></g><g filter="url(#filter6_b_545_2531)"><rect x="965" y="576" width="110" height="39" rx="19.5" fill="#CFECD7"/><rect x="965.5" y="576.5" width="109" height="38" rx="19" stroke="#333"/><path d="M991.353 594v-1.074c.204.02.372.01.504-.03a.681.681 0 00.342-.252c.092-.128.17-.312.234-.552.068-.24.134-.55.198-.93.088-.484.162-.982.222-1.494s.11-1.02.15-1.524c.044-.508.08-.998.108-1.47.028-.472.05-.91.066-1.314h5.67V594h-1.254v-7.458h-3.24c-.02.32-.044.678-.072 1.074-.028.396-.062.816-.102 1.26a37.8 37.8 0 01-.15 1.374c-.056.472-.128.946-.216 1.422-.072.408-.16.776-.264 1.104a2.523 2.523 0 01-.42.822c-.176.216-.406.36-.69.432-.284.076-.646.066-1.086-.03zm12.057.18c-.65 0-1.21-.14-1.7-.42a3.015 3.015 0 01-1.14-1.182c-.26-.508-.4-1.096-.4-1.764 0-.708.13-1.322.4-1.842s.64-.922 1.11-1.206c.48-.284 1.03-.426 1.67-.426.66 0 1.22.154 1.68.462.47.304.81.738 1.04 1.302.23.564.32 1.234.28 2.01h-1.26v-.456c-.01-.752-.15-1.308-.43-1.668-.28-.36-.7-.54-1.27-.54-.62 0-1.1.198-1.41.594-.32.396-.48.968-.48 1.716 0 .712.16 1.264.48 1.656.31.388.77.582 1.37.582.39 0 .73-.088 1.01-.264.29-.18.51-.436.67-.768l1.23.39c-.25.58-.63 1.03-1.14 1.35a3.23 3.23 0 01-1.71.474zm-2.31-3.066v-.978h4.62v.978h-4.62zm9.36 3.066c-.66 0-1.22-.148-1.69-.444a2.948 2.948 0 01-1.07-1.218c-.24-.516-.36-1.102-.37-1.758.01-.668.13-1.258.39-1.77.25-.516.61-.92 1.08-1.212.46-.292 1.03-.438 1.68-.438.71 0 1.31.176 1.81.528.51.352.84.834 1 1.446l-1.25.36a1.648 1.648 0 00-.61-.846c-.28-.204-.6-.306-.97-.306-.41 0-.75.098-1.01.294-.26.192-.46.456-.59.792-.13.336-.19.72-.2 1.152.01.668.16 1.208.46 1.62.3.412.75.618 1.34.618.41 0 .73-.092.98-.276.25-.188.45-.456.58-.804l1.27.3c-.21.632-.56 1.118-1.05 1.458-.49.336-1.08.504-1.78.504zm5.66-.18v-5.352h-2.22v-1.128h5.68v1.128h-2.21V594h-1.25zm4.6 0v-6.48h1.25v2.646h3.16v-2.646h1.26V594h-1.26v-2.652h-3.16V594h-1.25zm12.81-6.48V594h-1.21v-4.506l-3.24 4.506h-1.02v-6.48h1.21v4.416l3.25-4.416h1.01zm7.15 7.758V594h-5.48v-6.48h1.26v5.298h2.95v-5.298h1.26v5.352h1.26v2.406h-1.25zm4.04-1.098c-.48 0-.88-.088-1.2-.264a1.86 1.86 0 01-.74-.708 2.02 2.02 0 01-.25-.972c0-.328.06-.616.18-.864.11-.248.29-.458.51-.63.23-.176.51-.318.84-.426.29-.084.62-.158.98-.222.37-.064.75-.124 1.15-.18l1.2-.168-.46.252c.01-.508-.1-.884-.32-1.128-.22-.248-.6-.372-1.14-.372-.34 0-.65.08-.94.24-.28.156-.48.416-.59.78l-1.17-.36c.16-.556.46-.998.91-1.326.45-.328 1.05-.492 1.8-.492.58 0 1.08.1 1.51.3.43.196.75.508.95.936.1.212.17.436.19.672.03.236.04.49.04.762V594h-1.11v-1.482l.21.192c-.26.496-.61.866-1.02 1.11-.41.24-.92.36-1.53.36zm.23-1.026c.35 0 .66-.062.91-.186.26-.128.47-.29.62-.486.16-.196.26-.4.31-.612.07-.192.1-.408.11-.648.01-.24.02-.432.02-.576l.41.15-1.08.162c-.33.048-.62.096-.88.144-.26.044-.5.098-.7.162-.17.06-.33.132-.46.216a1.09 1.09 0 00-.32.306.768.768 0 00-.11.438c0 .168.04.324.12.468.09.14.21.252.39.336.17.084.39.126.66.126zM1005.57 606v-1.062c.24.044.43.038.55-.018.13-.06.22-.168.28-.324.07-.156.12-.358.16-.606.07-.364.13-.778.18-1.242.05-.468.1-.974.14-1.518.04-.544.07-1.114.1-1.71h4.66V606h-1.26v-5.298h-2.27c-.02.316-.05.652-.08 1.008-.03.352-.06.702-.1 1.05-.03.348-.07.674-.11.978-.04.304-.08.564-.13.78-.08.432-.2.776-.35 1.032a1.03 1.03 0 01-.65.486c-.28.076-.65.064-1.12-.036zm13.21-6.48V606h-1.2v-4.506l-3.24 4.506h-1.02v-6.48h1.2v4.416l3.25-4.416h1.01zm4.73 9.18v-2.586c-.63.1-1.21.032-1.72-.204-.52-.236-.93-.62-1.23-1.152-.31-.532-.46-1.196-.46-1.992s.15-1.462.46-1.998c.3-.536.71-.922 1.23-1.158.51-.236 1.09-.304 1.72-.204v-1.962h1.13v1.962c.63-.1 1.2-.032 1.72.204.51.236.92.622 1.23 1.158.3.536.45 1.202.45 1.998s-.15 1.46-.45 1.992c-.31.532-.72.916-1.23 1.152-.52.236-1.09.304-1.72.204v2.586h-1.13zm0-3.72v-4.434a1.944 1.944 0 00-.88.03c-.26.076-.49.21-.67.402-.18.188-.33.434-.43.738-.1.3-.15.65-.15 1.05s.05.75.15 1.05c.11.3.25.546.44.738.19.188.42.32.68.396.26.072.55.082.86.03zm1.13 0c.31.052.59.042.85-.03.26-.072.49-.202.68-.39.19-.188.33-.432.43-.732.11-.304.16-.658.16-1.062 0-.408-.05-.762-.15-1.062-.1-.304-.24-.55-.43-.738-.18-.192-.4-.324-.67-.396-.26-.072-.55-.08-.87-.024v4.434zm6.26 1.02v-5.352h-2.22v-1.128h5.69v1.128h-2.22V606h-1.25z" fill="#333"/></g><rect x="723" y="45" width="22" height="22" rx="2" fill="#CDCDCD" stroke="#919191" stroke-width="2"/><path d="M754.84 57.101v-1.029h4.2v1.029h-4.2zM768.98 61V50.92h1.246v4.445h5.306V50.92h1.246V61h-1.246v-4.452h-5.306V61h-1.246zm12.758.21c-.742 0-1.391-.163-1.946-.49a3.43 3.43 0 01-1.288-1.379c-.308-.593-.462-1.283-.462-2.072 0-.826.151-1.54.455-2.142a3.323 3.323 0 011.267-1.4c.546-.331 1.185-.497 1.918-.497.76 0 1.407.175 1.939.525.536.35.938.85 1.204 1.498.27.649.387 1.421.35 2.317h-1.26v-.448c-.014-.929-.203-1.622-.567-2.079-.364-.462-.906-.693-1.624-.693-.77 0-1.356.247-1.757.742-.402.495-.602 1.204-.602 2.128 0 .891.2 1.582.602 2.072.401.49.973.735 1.715.735.499 0 .933-.114 1.302-.343.368-.229.658-.558.868-.987l1.197.413a3.394 3.394 0 01-1.33 1.554 3.689 3.689 0 01-1.981.546zm-2.793-3.64v-1.001h5.586v1.001h-5.586zm9.373 3.43v-6.426h-2.632V53.44h6.51v1.134h-2.632V61h-1.246zm6.886 1.68v-2.709c.425 0 .728-.138.91-.413.182-.28.329-.74.441-1.379.075-.401.136-.83.182-1.288.047-.457.087-.966.119-1.526.038-.565.073-1.206.105-1.925h5.208v6.531h.735v2.709h-1.19V61h-5.32v1.68h-1.19zm1.918-2.709h3.801v-5.502h-2.835a44.15 44.15 0 01-.14 2.121c-.028.36-.063.7-.105 1.022a9.988 9.988 0 01-.133.854c-.06.35-.13.646-.21.889a1.483 1.483 0 01-.378.616zm10.127 1.239c-.751 0-1.4-.17-1.946-.511a3.389 3.389 0 01-1.253-1.414c-.294-.602-.441-1.293-.441-2.072 0-.793.15-1.489.448-2.086a3.335 3.335 0 011.267-1.393c.546-.336 1.188-.504 1.925-.504.756 0 1.407.17 1.953.511.546.336.964.805 1.253 1.407.294.597.441 1.286.441 2.065 0 .789-.147 1.484-.441 2.086a3.38 3.38 0 01-1.26 1.407c-.546.336-1.194.504-1.946.504zm0-1.183c.784 0 1.368-.261 1.75-.784.383-.523.574-1.2.574-2.03 0-.854-.193-1.533-.581-2.037-.387-.509-.968-.763-1.743-.763-.527 0-.961.119-1.302.357-.34.238-.595.567-.763.987-.168.42-.252.905-.252 1.456 0 .85.196 1.53.588 2.044.392.513.969.77 1.729.77zm8.093 1.183c-.765 0-1.416-.17-1.953-.511a3.325 3.325 0 01-1.218-1.421c-.28-.602-.424-1.288-.434-2.058.01-.789.157-1.482.441-2.079a3.318 3.318 0 011.239-1.407c.537-.336 1.183-.504 1.939-.504.798 0 1.484.196 2.058.588a2.83 2.83 0 011.162 1.61l-1.232.371a2.018 2.018 0 00-.777-1.022 2.115 2.115 0 00-1.225-.364c-.518 0-.945.121-1.281.364-.336.238-.585.57-.749.994-.163.42-.247.903-.252 1.449.01.84.203 1.519.581 2.037.383.513.95.77 1.701.77.495 0 .906-.112 1.232-.336.327-.229.574-.558.742-.987l1.26.329c-.261.705-.669 1.244-1.225 1.617-.555.373-1.225.56-2.009.56zm6.248-.21v-6.426h-2.632V53.44h6.51v1.134h-2.632V61h-1.246zm5.837 3.36l1.463-3.976.021 1.176-3.304-8.12h1.309l2.59 6.531h-.448l2.429-6.531h1.267l-4.116 10.92h-1.211zm6.196-3.36v-7.56h6.195V61h-1.246v-6.377h-3.703V61h-1.246zm10.024.21c-.564 0-1.038-.103-1.421-.308a2.194 2.194 0 01-.861-.826 2.252 2.252 0 01-.287-1.12c0-.397.075-.74.224-1.029.154-.294.369-.537.644-.728.276-.196.605-.35.987-.462.36-.098.761-.182 1.204-.252.448-.075.901-.142 1.358-.203.458-.06.885-.119 1.281-.175l-.448.259c.014-.672-.121-1.169-.406-1.491-.28-.322-.765-.483-1.456-.483-.457 0-.858.105-1.204.315-.34.205-.581.541-.721 1.008l-1.183-.357c.182-.663.535-1.183 1.057-1.561.523-.378 1.211-.567 2.065-.567.686 0 1.274.124 1.764.371.495.243.85.611 1.064 1.106.108.233.175.488.203.763.028.27.042.555.042.854V61h-1.106v-1.813l.259.168c-.284.611-.683 1.073-1.197 1.386-.508.313-1.129.469-1.862.469zm.189-1.043c.448 0 .836-.08 1.162-.238.332-.163.598-.376.798-.637.201-.266.332-.555.392-.868.07-.233.108-.492.112-.777.01-.29.014-.511.014-.665l.434.189c-.406.056-.805.11-1.197.161a27.12 27.12 0 00-1.113.168 8.36 8.36 0 00-.945.203 3.11 3.11 0 00-.581.252 1.324 1.324 0 00-.434.399 1.041 1.041 0 00-.161.595c0 .205.052.401.154.588.108.187.271.338.49.455.224.117.516.175.875.175z" fill="#4D4D4D"/><rect x="722" y="76" width="24" height="24" rx="3" fill="#fff"/><rect x="723" y="77" width="22" height="22" rx="2" stroke="#000" stroke-opacity=".25" stroke-width="2"/><path d="M754.84 89.101v-1.029h4.2v1.029h-4.2zM768.98 93V82.92h1.134l3.808 8.029 3.787-8.029h1.148v10.073h-1.183v-7.336L774.251 93h-.665l-3.423-7.343V93h-1.183zm14.836.21c-.742 0-1.391-.163-1.946-.49a3.43 3.43 0 01-1.288-1.379c-.308-.593-.462-1.283-.462-2.072 0-.826.152-1.54.455-2.142a3.329 3.329 0 011.267-1.4c.546-.331 1.185-.497 1.918-.497.761 0 1.407.175 1.939.525.537.35.938.85 1.204 1.498.271.649.387 1.421.35 2.317h-1.26v-.448c-.014-.929-.203-1.622-.567-2.079-.364-.462-.905-.693-1.624-.693-.77 0-1.356.247-1.757.742-.401.495-.602 1.204-.602 2.128 0 .891.201 1.582.602 2.072.401.49.973.735 1.715.735.499 0 .933-.114 1.302-.343.369-.229.658-.558.868-.987l1.197.413a3.389 3.389 0 01-1.33 1.554 3.686 3.686 0 01-1.981.546zm-2.793-3.64v-1.001h5.586v1.001h-5.586zm10.693 3.64c-.765 0-1.416-.17-1.953-.511a3.325 3.325 0 01-1.218-1.421c-.28-.602-.424-1.288-.434-2.058.01-.789.157-1.482.441-2.079a3.318 3.318 0 011.239-1.407c.537-.336 1.183-.504 1.939-.504.798 0 1.484.196 2.058.588a2.83 2.83 0 011.162 1.61l-1.232.371a2.018 2.018 0 00-.777-1.022 2.115 2.115 0 00-1.225-.364c-.518 0-.945.121-1.281.364-.336.238-.585.57-.749.994-.163.42-.247.903-.252 1.449.01.84.203 1.519.581 2.037.383.513.95.77 1.701.77.495 0 .906-.112 1.232-.336.327-.229.574-.558.742-.987l1.26.329c-.261.705-.669 1.244-1.225 1.617-.555.373-1.225.56-2.009.56zm6.248-.21v-6.426h-2.632V85.44h6.51v1.134h-2.632V93h-1.246zm6.826.21c-.564 0-1.038-.103-1.421-.308a2.194 2.194 0 01-.861-.826 2.252 2.252 0 01-.287-1.12c0-.397.075-.74.224-1.029.154-.294.369-.537.644-.728.276-.196.605-.35.987-.462.36-.098.761-.182 1.204-.252.448-.075.901-.142 1.358-.203.458-.06.885-.119 1.281-.175l-.448.259c.014-.672-.121-1.169-.406-1.491-.28-.322-.765-.483-1.456-.483-.457 0-.858.105-1.204.315-.34.205-.581.541-.721 1.008l-1.183-.357c.182-.663.535-1.183 1.057-1.561.523-.378 1.211-.567 2.065-.567.686 0 1.274.124 1.764.371.495.243.85.611 1.064 1.106.108.233.175.488.203.763.028.27.042.555.042.854V93h-1.106v-1.813l.259.168c-.284.611-.683 1.073-1.197 1.386-.508.313-1.129.469-1.862.469zm.189-1.043c.448 0 .836-.08 1.162-.238.332-.163.598-.376.798-.637.201-.266.332-.555.392-.868.07-.233.108-.492.112-.777.01-.29.014-.511.014-.665l.434.189c-.406.056-.805.11-1.197.161a27.12 27.12 0 00-1.113.168 8.36 8.36 0 00-.945.203 3.11 3.11 0 00-.581.252 1.324 1.324 0 00-.434.399 1.041 1.041 0 00-.161.595c0 .205.052.401.154.588.108.187.271.338.49.455.224.117.516.175.875.175zm11 1.043c-.751 0-1.4-.17-1.946-.511a3.389 3.389 0 01-1.253-1.414c-.294-.602-.441-1.293-.441-2.072 0-.793.149-1.489.448-2.086a3.335 3.335 0 011.267-1.393c.546-.336 1.188-.504 1.925-.504.756 0 1.407.17 1.953.511.546.336.964.805 1.253 1.407.294.597.441 1.286.441 2.065 0 .789-.147 1.484-.441 2.086a3.38 3.38 0 01-1.26 1.407c-.546.336-1.195.504-1.946.504zm0-1.183c.784 0 1.367-.261 1.75-.784s.574-1.2.574-2.03c0-.854-.194-1.533-.581-2.037-.387-.509-.968-.763-1.743-.763-.527 0-.961.119-1.302.357a2.136 2.136 0 00-.763.987c-.168.42-.252.905-.252 1.456 0 .85.196 1.53.588 2.044.392.513.968.77 1.729.77zm7.981 1.19c-.714-.005-1.323-.159-1.827-.462-.504-.308-.896-.758-1.176-1.351-.28-.593-.436-1.318-.469-2.177-.018-.397-.014-.833.014-1.309.033-.476.084-.933.154-1.372.075-.439.168-.8.28-1.085.126-.34.304-.656.532-.945a3.4 3.4 0 01.784-.728c.294-.2.623-.357.987-.469a8 8 0 011.141-.259c.402-.065.803-.121 1.204-.168.402-.051.784-.112 1.148-.182l.126 1.12c-.256.056-.56.105-.91.147-.35.037-.714.082-1.092.133a8.675 8.675 0 00-1.078.217c-.34.089-.634.212-.882.371-.364.22-.644.548-.84.987a4.467 4.467 0 00-.35 1.463c.29-.448.665-.777 1.127-.987a3.53 3.53 0 011.477-.315c.677 0 1.26.159 1.75.476.49.313.866.744 1.127 1.295.266.55.399 1.178.399 1.883 0 .747-.149 1.4-.448 1.96-.298.56-.721.994-1.267 1.302-.541.308-1.178.46-1.911.455zm.077-1.183c.733 0 1.288-.226 1.666-.679.378-.457.567-1.064.567-1.82 0-.775-.196-1.384-.588-1.827-.392-.448-.942-.672-1.652-.672-.718 0-1.269.224-1.652.672-.378.443-.567 1.052-.567 1.827 0 .78.192 1.39.574 1.834.383.443.934.665 1.652.665zm13.27 2.366V93h-8.463v-7.56h1.204v6.426h2.604V85.44h1.204v6.426h2.597V85.44h1.204v6.426h.896V94.4h-1.246zm5.368-1.19c-.742 0-1.39-.163-1.946-.49a3.437 3.437 0 01-1.288-1.379c-.308-.593-.462-1.283-.462-2.072 0-.826.152-1.54.455-2.142a3.335 3.335 0 011.267-1.4c.546-.331 1.186-.497 1.918-.497.761 0 1.407.175 1.939.525.537.35.938.85 1.204 1.498.271.649.388 1.421.35 2.317h-1.26v-.448c-.014-.929-.203-1.622-.567-2.079-.364-.462-.905-.693-1.624-.693-.77 0-1.355.247-1.757.742-.401.495-.602 1.204-.602 2.128 0 .891.201 1.582.602 2.072.402.49.973.735 1.715.735.5 0 .934-.114 1.302-.343.369-.229.658-.558.868-.987l1.197.413a3.389 3.389 0 01-1.33 1.554 3.686 3.686 0 01-1.981.546zm-2.793-3.64v-1.001h5.586v1.001h-5.586zm7.509 3.43v-7.56h5.25v1.183h-4.004V93h-1.246zm9.379.21c-.751 0-1.4-.17-1.946-.511a3.389 3.389 0 01-1.253-1.414c-.294-.602-.441-1.293-.441-2.072 0-.793.15-1.489.448-2.086a3.335 3.335 0 011.267-1.393c.546-.336 1.188-.504 1.925-.504.756 0 1.407.17 1.953.511.546.336.964.805 1.253 1.407.294.597.441 1.286.441 2.065 0 .789-.147 1.484-.441 2.086a3.38 3.38 0 01-1.26 1.407c-.546.336-1.194.504-1.946.504zm0-1.183c.784 0 1.368-.261 1.75-.784.383-.523.574-1.2.574-2.03 0-.854-.193-1.533-.581-2.037-.387-.509-.968-.763-1.743-.763-.527 0-.961.119-1.302.357-.34.238-.595.567-.763.987-.168.42-.252.905-.252 1.456 0 .85.196 1.53.588 2.044.392.513.969.77 1.729.77zm7.424.973v-7.56h6.195V93h-1.246v-6.377h-3.703V93h-1.246zm11.096.21c-.752 0-1.4-.17-1.946-.511a3.382 3.382 0 01-1.253-1.414c-.294-.602-.441-1.293-.441-2.072 0-.793.149-1.489.448-2.086a3.328 3.328 0 011.267-1.393c.546-.336 1.187-.504 1.925-.504.756 0 1.407.17 1.953.511.546.336.963.805 1.253 1.407.294.597.441 1.286.441 2.065 0 .789-.147 1.484-.441 2.086a3.38 3.38 0 01-1.26 1.407c-.546.336-1.195.504-1.946.504zm0-1.183c.784 0 1.367-.261 1.75-.784.382-.523.574-1.2.574-2.03 0-.854-.194-1.533-.581-2.037-.388-.509-.969-.763-1.743-.763-.528 0-.962.119-1.302.357a2.136 2.136 0 00-.763.987c-.168.42-.252.905-.252 1.456 0 .85.196 1.53.588 2.044.392.513.968.77 1.729.77zm4.208.973v-1.071c.28.051.492.042.637-.028a.682.682 0 00.329-.385c.075-.187.135-.42.182-.7.079-.443.147-.938.203-1.484.061-.546.114-1.143.161-1.792.051-.653.098-1.353.14-2.1h5.285V93h-1.246v-6.377h-2.905c-.028.43-.063.87-.105 1.323-.037.453-.077.894-.119 1.323a30.88 30.88 0 01-.14 1.19c-.047.364-.098.679-.154.945-.089.457-.212.824-.371 1.099-.159.27-.387.446-.686.525-.299.084-.702.075-1.211-.028zm8.623 0l-.007-7.56h1.253v2.737h1.631c.219 0 .443.005.672.014.229.01.427.03.595.063.392.075.735.205 1.029.392.294.187.523.441.686.763.163.317.245.712.245 1.183 0 .653-.17 1.171-.511 1.554-.336.378-.777.63-1.323.756-.187.042-.401.07-.644.084-.238.01-.464.014-.679.014h-2.947zm1.246-1.029h1.722c.14 0 .296-.005.469-.014a2.18 2.18 0 00.462-.07c.238-.07.45-.208.637-.413.191-.205.287-.5.287-.882 0-.387-.093-.686-.28-.896a1.286 1.286 0 00-.721-.413 2.469 2.469 0 00-.427-.063 6.883 6.883 0 00-.427-.014h-1.722v2.765zm8.826 1.239c-.747 0-1.407-.161-1.981-.483a3.608 3.608 0 01-1.358-1.344l.994-.644c.275.415.604.735.987.959.382.22.819.329 1.309.329.513 0 .921-.117 1.225-.35.303-.238.455-.558.455-.959 0-.299-.075-.527-.224-.686-.15-.159-.364-.268-.644-.329a4.787 4.787 0 00-1.001-.091h-.784v-1.029h.777c.49 0 .889-.08 1.197-.238.308-.159.462-.43.462-.812 0-.392-.145-.677-.434-.854-.285-.182-.626-.273-1.022-.273-.42 0-.822.089-1.204.266a3.434 3.434 0 00-.987.658l-.756-.847c.392-.401.842-.71 1.351-.924a4.213 4.213 0 011.673-.329c.485 0 .928.086 1.33.259.406.168.728.418.966.749.242.327.364.726.364 1.197 0 .401-.094.758-.28 1.071a2.52 2.52 0 01-.826.819l-.049-.441c.308.075.562.212.763.413.205.196.357.43.455.7.098.27.147.553.147.847 0 .495-.131.92-.392 1.274-.257.35-.605.62-1.043.812a3.72 3.72 0 01-1.47.28zm7.381 0c-.751 0-1.4-.17-1.946-.511a3.389 3.389 0 01-1.253-1.414c-.294-.602-.441-1.293-.441-2.072 0-.793.149-1.489.448-2.086a3.335 3.335 0 011.267-1.393c.546-.336 1.188-.504 1.925-.504.756 0 1.407.17 1.953.511.546.336.964.805 1.253 1.407.294.597.441 1.286.441 2.065 0 .789-.147 1.484-.441 2.086a3.38 3.38 0 01-1.26 1.407c-.546.336-1.195.504-1.946.504zm0-1.183c.784 0 1.367-.261 1.75-.784s.574-1.2.574-2.03c0-.854-.194-1.533-.581-2.037-.387-.509-.968-.763-1.743-.763-.527 0-.961.119-1.302.357a2.136 2.136 0 00-.763.987c-.168.42-.252.905-.252 1.456 0 .85.196 1.53.588 2.044.392.513.968.77 1.729.77zm4.901.973v-7.56h3.22c.192 0 .397.012.616.035.224.019.427.054.609.105.406.107.74.329 1.001.665.266.331.399.751.399 1.26 0 .285-.044.532-.133.742-.084.21-.205.392-.364.546a1.51 1.51 0 01-.483.322c.164.028.329.091.497.189.266.145.474.348.623.609.154.261.231.595.231 1.001 0 .513-.123.938-.371 1.274a1.89 1.89 0 01-1.022.686 3.223 3.223 0 01-.602.105 9.983 9.983 0 01-.637.021h-3.584zm1.26-1.015h2.254c.098 0 .215-.01.35-.028.14-.019.264-.042.371-.07.243-.07.418-.2.525-.392a1.21 1.21 0 00.168-.623c0-.299-.084-.541-.252-.728a1.076 1.076 0 00-.651-.35 1.369 1.369 0 00-.322-.049 7.233 7.233 0 00-.301-.007h-2.142v2.247zm0-3.276h1.876c.131 0 .269-.007.413-.021.145-.019.271-.049.378-.091a.838.838 0 00.469-.392 1.24 1.24 0 00.154-.609 1.19 1.19 0 00-.168-.637.834.834 0 00-.497-.385 1.536 1.536 0 00-.504-.091 9.207 9.207 0 00-.35-.014h-1.771v2.24zm8.231 4.501c-.564 0-1.038-.103-1.421-.308a2.194 2.194 0 01-.861-.826 2.252 2.252 0 01-.287-1.12c0-.397.075-.74.224-1.029.154-.294.369-.537.644-.728.276-.196.605-.35.987-.462.36-.098.761-.182 1.204-.252.448-.075.901-.142 1.358-.203.458-.06.885-.119 1.281-.175l-.448.259c.014-.672-.121-1.169-.406-1.491-.28-.322-.765-.483-1.456-.483-.457 0-.858.105-1.204.315-.34.205-.581.541-.721 1.008l-1.183-.357c.182-.663.535-1.183 1.057-1.561.523-.378 1.211-.567 2.065-.567.686 0 1.274.124 1.764.371.495.243.85.611 1.064 1.106.108.233.175.488.203.763.028.27.042.555.042.854V93h-1.106v-1.813l.259.168c-.284.611-.683 1.073-1.197 1.386-.508.313-1.129.469-1.862.469zm.189-1.043c.448 0 .836-.08 1.162-.238.332-.163.598-.376.798-.637.201-.266.332-.555.392-.868.07-.233.108-.492.112-.777.01-.29.014-.511.014-.665l.434.189c-.406.056-.805.11-1.197.161a27.12 27.12 0 00-1.113.168 8.36 8.36 0 00-.945.203 3.11 3.11 0 00-.581.252 1.324 1.324 0 00-.434.399 1.041 1.041 0 00-.161.595c0 .205.052.401.154.588.108.187.271.338.49.455.224.117.516.175.875.175zm5.25.833v-7.56h1.246v3.185h3.976V85.44h1.246V93h-1.246v-3.192h-3.976V93h-1.246zm14.337-7.56V93h-1.204v-5.572L934.576 93h-1.029v-7.56h1.204v5.495l3.969-5.495h1.022zm6.35 7.56v-2.737h-1.631c-.192 0-.404-.007-.637-.021a8.08 8.08 0 01-.644-.077 2.589 2.589 0 01-1.386-.721c-.374-.378-.56-.9-.56-1.568 0-.649.175-1.169.525-1.561a2.43 2.43 0 011.309-.77c.233-.056.469-.086.707-.091.242-.01.448-.014.616-.014h2.947l.007 7.56h-1.253zm-5.089 0l2.009-3.08h1.344L942.347 93h-1.344zm3.367-3.766h1.722v-2.765h-1.722c-.108 0-.25.005-.427.014a2.18 2.18 0 00-.497.084 1.285 1.285 0 00-.791.665c-.094.177-.14.387-.14.63 0 .35.098.635.294.854.196.215.434.36.714.434.154.037.305.06.455.07.154.01.284.014.392.014zM722.98 125v-10.08h1.246v4.732l4.41-4.732h1.568l-4.578 4.893 4.935 5.187h-1.61l-4.725-4.928V125h-1.246zm10.938.21c-.751 0-1.4-.17-1.946-.511a3.39 3.39 0 01-1.253-1.414c-.294-.602-.441-1.293-.441-2.072 0-.793.149-1.489.448-2.086a3.335 3.335 0 011.267-1.393c.546-.336 1.188-.504 1.925-.504.756 0 1.407.17 1.953.511.546.336.964.805 1.253 1.407.294.597.441 1.286.441 2.065 0 .789-.147 1.484-.441 2.086a3.384 3.384 0 01-1.26 1.407c-.546.336-1.195.504-1.946.504zm0-1.183c.784 0 1.367-.261 1.75-.784s.574-1.199.574-2.03c0-.854-.194-1.533-.581-2.037-.387-.509-.968-.763-1.743-.763-.527 0-.961.119-1.302.357a2.136 2.136 0 00-.763.987c-.168.42-.252.905-.252 1.456 0 .849.196 1.531.588 2.044.392.513.968.77 1.729.77zm4.901.973v-7.56h1.071l2.87 5.866 2.87-5.866h1.071V125h-1.204v-4.963L743.089 125h-.658l-2.408-4.963V125h-1.204zm9.55 0v-7.56h1.246v3.185h3.976v-3.185h1.246V125h-1.246v-3.192h-3.976V125h-1.246zm10.298.21c-.564 0-1.038-.103-1.421-.308a2.192 2.192 0 01-.861-.826 2.253 2.253 0 01-.287-1.12c0-.397.075-.74.224-1.029.154-.294.369-.537.644-.728.276-.196.605-.35.987-.462.36-.098.761-.182 1.204-.252.448-.075.901-.142 1.358-.203.458-.061.885-.119 1.281-.175l-.448.259c.014-.672-.121-1.169-.406-1.491-.28-.322-.765-.483-1.456-.483-.457 0-.858.105-1.204.315-.34.205-.581.541-.721 1.008l-1.183-.357c.182-.663.535-1.183 1.057-1.561.523-.378 1.211-.567 2.065-.567.686 0 1.274.124 1.764.371.495.243.85.611 1.064 1.106.108.233.175.488.203.763.028.271.042.555.042.854V125h-1.106v-1.813l.259.168c-.284.611-.683 1.073-1.197 1.386-.508.313-1.129.469-1.862.469zm.189-1.043c.448 0 .836-.079 1.162-.238.332-.163.598-.376.798-.637.201-.266.332-.555.392-.868.07-.233.108-.492.112-.777.01-.289.014-.511.014-.665l.434.189c-.406.056-.805.11-1.197.161-.392.051-.763.107-1.113.168a8.36 8.36 0 00-.945.203 3.045 3.045 0 00-.581.252 1.33 1.33 0 00-.434.399 1.042 1.042 0 00-.161.595c0 .205.052.401.154.588.108.187.271.338.49.455.224.117.516.175.875.175zm7.259.833v-6.426h-2.632v-1.134h6.51v1.134h-2.632V125h-1.246zm6.826.21c-.564 0-1.038-.103-1.421-.308a2.192 2.192 0 01-.861-.826 2.253 2.253 0 01-.287-1.12c0-.397.075-.74.224-1.029.154-.294.369-.537.644-.728.276-.196.605-.35.987-.462.36-.098.761-.182 1.204-.252.448-.075.901-.142 1.358-.203.458-.061.885-.119 1.281-.175l-.448.259c.014-.672-.121-1.169-.406-1.491-.28-.322-.765-.483-1.456-.483-.457 0-.858.105-1.204.315-.34.205-.581.541-.721 1.008l-1.183-.357c.182-.663.535-1.183 1.057-1.561.523-.378 1.211-.567 2.065-.567.686 0 1.274.124 1.764.371.495.243.85.611 1.064 1.106.108.233.175.488.203.763.028.271.042.555.042.854V125h-1.106v-1.813l.259.168c-.284.611-.683 1.073-1.197 1.386-.508.313-1.129.469-1.862.469zm.189-1.043c.448 0 .836-.079 1.162-.238.332-.163.598-.376.798-.637.201-.266.332-.555.392-.868.07-.233.108-.492.112-.777.01-.289.014-.511.014-.665l.434.189c-.406.056-.805.11-1.197.161-.392.051-.763.107-1.113.168a8.36 8.36 0 00-.945.203 3.045 3.045 0 00-.581.252 1.33 1.33 0 00-.434.399 1.042 1.042 0 00-.161.595c0 .205.052.401.154.588.108.187.271.338.49.455.224.117.516.175.875.175zm7.78.833v-10.08h1.26l5.257 7.875v-7.875h1.26V125h-1.26l-5.257-7.882V125h-1.26zm11.41-5.25c-.462 0-.884-.112-1.267-.336a2.637 2.637 0 01-.917-.91 2.475 2.475 0 01-.336-1.274c0-.457.117-.877.35-1.26.233-.383.541-.688.924-.917a2.383 2.383 0 011.246-.343c.462 0 .882.114 1.26.343.383.224.688.527.917.91.229.378.343.8.343 1.267 0 .467-.114.891-.343 1.274a2.637 2.637 0 01-.917.91 2.425 2.425 0 01-1.26.336zm0-1.099c.257 0 .492-.065.707-.196.219-.131.392-.303.518-.518.131-.215.196-.45.196-.707 0-.257-.065-.492-.196-.707a1.385 1.385 0 00-.518-.518 1.331 1.331 0 00-.707-.196c-.257 0-.492.065-.707.196a1.453 1.453 0 00-.518.518c-.131.215-.196.45-.196.707 0 .257.065.492.196.707.131.215.303.387.518.518.215.131.45.196.707.196zm-2.1 2.716v-1.029h4.2v1.029h-4.2zM798 125v-8.701l-1.897 1.148v-1.393L798 114.92h1.267V125H798zm-75.02 32v-10.08h1.246v4.732l4.41-4.732h1.568l-4.578 4.893 4.935 5.187h-1.61l-4.725-4.928V157h-1.246zm10.938.21c-.751 0-1.4-.17-1.946-.511a3.39 3.39 0 01-1.253-1.414c-.294-.602-.441-1.293-.441-2.072 0-.793.149-1.489.448-2.086a3.335 3.335 0 011.267-1.393c.546-.336 1.188-.504 1.925-.504.756 0 1.407.17 1.953.511.546.336.964.805 1.253 1.407.294.597.441 1.286.441 2.065 0 .789-.147 1.484-.441 2.086a3.384 3.384 0 01-1.26 1.407c-.546.336-1.195.504-1.946.504zm0-1.183c.784 0 1.367-.261 1.75-.784s.574-1.199.574-2.03c0-.854-.194-1.533-.581-2.037-.387-.509-.968-.763-1.743-.763-.527 0-.961.119-1.302.357a2.136 2.136 0 00-.763.987c-.168.42-.252.905-.252 1.456 0 .849.196 1.531.588 2.044.392.513.968.77 1.729.77zm4.901.973v-7.56h1.071l2.87 5.866 2.87-5.866h1.071V157h-1.204v-4.963L743.089 157h-.658l-2.408-4.963V157h-1.204zm9.55 0v-7.56h1.246v3.185h3.976v-3.185h1.246V157h-1.246v-3.192h-3.976V157h-1.246zm10.298.21c-.564 0-1.038-.103-1.421-.308a2.192 2.192 0 01-.861-.826 2.253 2.253 0 01-.287-1.12c0-.397.075-.74.224-1.029.154-.294.369-.537.644-.728.276-.196.605-.35.987-.462.36-.098.761-.182 1.204-.252.448-.075.901-.142 1.358-.203.458-.061.885-.119 1.281-.175l-.448.259c.014-.672-.121-1.169-.406-1.491-.28-.322-.765-.483-1.456-.483-.457 0-.858.105-1.204.315-.34.205-.581.541-.721 1.008l-1.183-.357c.182-.663.535-1.183 1.057-1.561.523-.378 1.211-.567 2.065-.567.686 0 1.274.124 1.764.371.495.243.85.611 1.064 1.106.108.233.175.488.203.763.028.271.042.555.042.854V157h-1.106v-1.813l.259.168c-.284.611-.683 1.073-1.197 1.386-.508.313-1.129.469-1.862.469zm.189-1.043c.448 0 .836-.079 1.162-.238.332-.163.598-.376.798-.637.201-.266.332-.555.392-.868.07-.233.108-.492.112-.777.01-.289.014-.511.014-.665l.434.189c-.406.056-.805.11-1.197.161-.392.051-.763.107-1.113.168a8.36 8.36 0 00-.945.203 3.045 3.045 0 00-.581.252 1.33 1.33 0 00-.434.399 1.042 1.042 0 00-.161.595c0 .205.052.401.154.588.108.187.271.338.49.455.224.117.516.175.875.175zm7.259.833v-6.426h-2.632v-1.134h6.51v1.134h-2.632V157h-1.246zm6.826.21c-.564 0-1.038-.103-1.421-.308a2.192 2.192 0 01-.861-.826 2.253 2.253 0 01-.287-1.12c0-.397.075-.74.224-1.029.154-.294.369-.537.644-.728.276-.196.605-.35.987-.462.36-.098.761-.182 1.204-.252.448-.075.901-.142 1.358-.203.458-.061.885-.119 1.281-.175l-.448.259c.014-.672-.121-1.169-.406-1.491-.28-.322-.765-.483-1.456-.483-.457 0-.858.105-1.204.315-.34.205-.581.541-.721 1.008l-1.183-.357c.182-.663.535-1.183 1.057-1.561.523-.378 1.211-.567 2.065-.567.686 0 1.274.124 1.764.371.495.243.85.611 1.064 1.106.108.233.175.488.203.763.028.271.042.555.042.854V157h-1.106v-1.813l.259.168c-.284.611-.683 1.073-1.197 1.386-.508.313-1.129.469-1.862.469zm.189-1.043c.448 0 .836-.079 1.162-.238.332-.163.598-.376.798-.637.201-.266.332-.555.392-.868.07-.233.108-.492.112-.777.01-.289.014-.511.014-.665l.434.189c-.406.056-.805.11-1.197.161-.392.051-.763.107-1.113.168a8.36 8.36 0 00-.945.203 3.045 3.045 0 00-.581.252 1.33 1.33 0 00-.434.399 1.042 1.042 0 00-.161.595c0 .205.052.401.154.588.108.187.271.338.49.455.224.117.516.175.875.175zm7.78.833v-10.08h1.26l5.257 7.875v-7.875h1.26V157h-1.26l-5.257-7.882V157h-1.26zm11.41-5.25c-.462 0-.884-.112-1.267-.336a2.637 2.637 0 01-.917-.91 2.475 2.475 0 01-.336-1.274c0-.457.117-.877.35-1.26.233-.383.541-.688.924-.917a2.383 2.383 0 011.246-.343c.462 0 .882.114 1.26.343.383.224.688.527.917.91.229.378.343.8.343 1.267 0 .467-.114.891-.343 1.274a2.637 2.637 0 01-.917.91 2.425 2.425 0 01-1.26.336zm0-1.099c.257 0 .492-.065.707-.196.219-.131.392-.303.518-.518.131-.215.196-.45.196-.707 0-.257-.065-.492-.196-.707a1.385 1.385 0 00-.518-.518 1.331 1.331 0 00-.707-.196c-.257 0-.492.065-.707.196a1.453 1.453 0 00-.518.518c-.131.215-.196.45-.196.707 0 .257.065.492.196.707.131.215.303.387.518.518.215.131.45.196.707.196zm-2.1 2.716v-1.029h4.2v1.029h-4.2zM798 157v-8.701l-1.897 1.148v-1.393L798 146.92h1.267V157H798zm3.371-.007l.007-1.12 4.473-4.025c.373-.336.623-.653.749-.952.13-.303.196-.614.196-.931 0-.387-.089-.737-.266-1.05a1.986 1.986 0 00-1.764-1.015 2.01 2.01 0 00-1.071.287c-.313.187-.56.436-.742.749a1.974 1.974 0 00-.259 1.022h-1.274c0-.635.147-1.195.441-1.68.294-.49.693-.873 1.197-1.148.508-.28 1.085-.42 1.729-.42a3.27 3.27 0 011.68.434 3.13 3.13 0 011.169 1.169c.289.49.434 1.045.434 1.666 0 .439-.056.819-.168 1.141a2.784 2.784 0 01-.504.896c-.229.271-.516.56-.861.868l-3.717 3.339-.161-.42h5.411v1.19h-6.699zM722.98 189v-10.08h1.246v4.732l4.41-4.732h1.568l-4.578 4.893 4.935 5.187h-1.61l-4.725-4.928V189h-1.246zm10.938.21c-.751 0-1.4-.17-1.946-.511a3.39 3.39 0 01-1.253-1.414c-.294-.602-.441-1.293-.441-2.072 0-.793.149-1.489.448-2.086a3.335 3.335 0 011.267-1.393c.546-.336 1.188-.504 1.925-.504.756 0 1.407.17 1.953.511.546.336.964.805 1.253 1.407.294.597.441 1.286.441 2.065 0 .789-.147 1.484-.441 2.086a3.384 3.384 0 01-1.26 1.407c-.546.336-1.195.504-1.946.504zm0-1.183c.784 0 1.367-.261 1.75-.784s.574-1.199.574-2.03c0-.854-.194-1.533-.581-2.037-.387-.509-.968-.763-1.743-.763-.527 0-.961.119-1.302.357a2.136 2.136 0 00-.763.987c-.168.42-.252.905-.252 1.456 0 .849.196 1.531.588 2.044.392.513.968.77 1.729.77zm4.901.973v-7.56h1.071l2.87 5.866 2.87-5.866h1.071V189h-1.204v-4.963L743.089 189h-.658l-2.408-4.963V189h-1.204zm9.55 0v-7.56h1.246v3.185h3.976v-3.185h1.246V189h-1.246v-3.192h-3.976V189h-1.246zm10.298.21c-.564 0-1.038-.103-1.421-.308a2.192 2.192 0 01-.861-.826 2.253 2.253 0 01-.287-1.12c0-.397.075-.74.224-1.029.154-.294.369-.537.644-.728.276-.196.605-.35.987-.462.36-.098.761-.182 1.204-.252.448-.075.901-.142 1.358-.203.458-.061.885-.119 1.281-.175l-.448.259c.014-.672-.121-1.169-.406-1.491-.28-.322-.765-.483-1.456-.483-.457 0-.858.105-1.204.315-.34.205-.581.541-.721 1.008l-1.183-.357c.182-.663.535-1.183 1.057-1.561.523-.378 1.211-.567 2.065-.567.686 0 1.274.124 1.764.371.495.243.85.611 1.064 1.106.108.233.175.488.203.763.028.271.042.555.042.854V189h-1.106v-1.813l.259.168c-.284.611-.683 1.073-1.197 1.386-.508.313-1.129.469-1.862.469zm.189-1.043c.448 0 .836-.079 1.162-.238.332-.163.598-.376.798-.637.201-.266.332-.555.392-.868.07-.233.108-.492.112-.777.01-.289.014-.511.014-.665l.434.189c-.406.056-.805.11-1.197.161-.392.051-.763.107-1.113.168a8.36 8.36 0 00-.945.203 3.045 3.045 0 00-.581.252 1.33 1.33 0 00-.434.399 1.042 1.042 0 00-.161.595c0 .205.052.401.154.588.108.187.271.338.49.455.224.117.516.175.875.175zm7.259.833v-6.426h-2.632v-1.134h6.51v1.134h-2.632V189h-1.246zm6.826.21c-.564 0-1.038-.103-1.421-.308a2.192 2.192 0 01-.861-.826 2.253 2.253 0 01-.287-1.12c0-.397.075-.74.224-1.029.154-.294.369-.537.644-.728.276-.196.605-.35.987-.462.36-.098.761-.182 1.204-.252.448-.075.901-.142 1.358-.203.458-.061.885-.119 1.281-.175l-.448.259c.014-.672-.121-1.169-.406-1.491-.28-.322-.765-.483-1.456-.483-.457 0-.858.105-1.204.315-.34.205-.581.541-.721 1.008l-1.183-.357c.182-.663.535-1.183 1.057-1.561.523-.378 1.211-.567 2.065-.567.686 0 1.274.124 1.764.371.495.243.85.611 1.064 1.106.108.233.175.488.203.763.028.271.042.555.042.854V189h-1.106v-1.813l.259.168c-.284.611-.683 1.073-1.197 1.386-.508.313-1.129.469-1.862.469zm.189-1.043c.448 0 .836-.079 1.162-.238.332-.163.598-.376.798-.637.201-.266.332-.555.392-.868.07-.233.108-.492.112-.777.01-.289.014-.511.014-.665l.434.189c-.406.056-.805.11-1.197.161-.392.051-.763.107-1.113.168a8.36 8.36 0 00-.945.203 3.045 3.045 0 00-.581.252 1.33 1.33 0 00-.434.399 1.042 1.042 0 00-.161.595c0 .205.052.401.154.588.108.187.271.338.49.455.224.117.516.175.875.175zm7.78.833v-10.08h1.26l5.257 7.875v-7.875h1.26V189h-1.26l-5.257-7.882V189h-1.26zm11.41-5.25c-.462 0-.884-.112-1.267-.336a2.637 2.637 0 01-.917-.91 2.475 2.475 0 01-.336-1.274c0-.457.117-.877.35-1.26.233-.383.541-.688.924-.917a2.383 2.383 0 011.246-.343c.462 0 .882.114 1.26.343.383.224.688.527.917.91.229.378.343.8.343 1.267 0 .467-.114.891-.343 1.274a2.637 2.637 0 01-.917.91 2.425 2.425 0 01-1.26.336zm0-1.099c.257 0 .492-.065.707-.196.219-.131.392-.303.518-.518.131-.215.196-.45.196-.707 0-.257-.065-.492-.196-.707a1.385 1.385 0 00-.518-.518 1.331 1.331 0 00-.707-.196c-.257 0-.492.065-.707.196a1.453 1.453 0 00-.518.518c-.131.215-.196.45-.196.707 0 .257.065.492.196.707.131.215.303.387.518.518.215.131.45.196.707.196zm-2.1 2.716v-1.029h4.2v1.029h-4.2zM798 189v-8.701l-1.897 1.148v-1.393L798 178.92h1.267V189H798zm6.416.196c-.5 0-.964-.091-1.393-.273a3.291 3.291 0 01-1.113-.784 3.177 3.177 0 01-.679-1.211l1.197-.343c.154.467.41.821.77 1.064a2.07 2.07 0 001.211.357c.41-.009.765-.103 1.064-.28.303-.182.536-.429.7-.742.168-.313.252-.674.252-1.085 0-.625-.187-1.132-.56-1.519-.374-.392-.864-.588-1.47-.588a2.322 2.322 0 00-1.043.266l-.602-.987 3.738-3.381.161.42h-5.019v-1.19h5.943v1.197l-3.185 3.052-.014-.441c.667-.047 1.25.063 1.75.329.499.266.886.646 1.162 1.141.28.495.42 1.062.42 1.701 0 .644-.145 1.213-.434 1.708-.29.495-.682.884-1.176 1.169-.495.28-1.055.42-1.68.42zm13.424-4.095v-1.029h4.2v1.029h-4.2zM833.555 189l1.204-2.499-3.549-7.581h1.393l2.807 6.251 2.87-6.251h1.33L834.906 189h-1.351zm6.574 0v-7.56h1.246v3.185h3.976v-3.185h1.246V189h-1.246v-3.192h-3.976V189h-1.246zm14.336-7.56V189h-1.204v-5.572L849.299 189h-1.029v-7.56h1.204v5.495l3.969-5.495h1.022zm1.674 7.56v-7.56h3.22c.191 0 .397.012.616.035.224.019.427.054.609.105.406.107.74.329 1.001.665.266.331.399.751.399 1.26 0 .285-.044.532-.133.742-.084.21-.205.392-.364.546a1.51 1.51 0 01-.483.322c.163.028.329.091.497.189.266.145.474.348.623.609.154.261.231.595.231 1.001 0 .513-.124.938-.371 1.274a1.89 1.89 0 01-1.022.686 3.288 3.288 0 01-.602.105c-.219.014-.432.021-.637.021h-3.584zm1.26-1.015h2.254c.098 0 .215-.009.35-.028.14-.019.264-.042.371-.07.243-.07.418-.201.525-.392a1.21 1.21 0 00.168-.623c0-.299-.084-.541-.252-.728a1.076 1.076 0 00-.651-.35 1.385 1.385 0 00-.322-.049 6.748 6.748 0 00-.301-.007h-2.142v2.247zm0-3.276h1.876c.131 0 .268-.007.413-.021.145-.019.271-.049.378-.091a.837.837 0 00.469-.392c.103-.187.154-.39.154-.609a1.19 1.19 0 00-.168-.637.833.833 0 00-.497-.385 1.544 1.544 0 00-.504-.091 10.027 10.027 0 00-.35-.014h-1.771v2.24zm9.358 4.501c-.742 0-1.391-.163-1.946-.49a3.428 3.428 0 01-1.288-1.379c-.308-.593-.462-1.283-.462-2.072 0-.826.152-1.54.455-2.142a3.329 3.329 0 011.267-1.4c.546-.331 1.185-.497 1.918-.497.761 0 1.407.175 1.939.525.537.35.938.849 1.204 1.498.271.649.387 1.421.35 2.317h-1.26v-.448c-.014-.929-.203-1.622-.567-2.079-.364-.462-.905-.693-1.624-.693-.77 0-1.356.247-1.757.742-.401.495-.602 1.204-.602 2.128 0 .891.201 1.582.602 2.072.401.49.973.735 1.715.735.499 0 .933-.114 1.302-.343.369-.229.658-.558.868-.987l1.197.413a3.392 3.392 0 01-1.33 1.554 3.686 3.686 0 01-1.981.546zm-2.793-3.64v-1.001h5.586v1.001h-5.586zm10.981 3.64c-.71 0-1.307-.175-1.792-.525-.486-.355-.854-.833-1.106-1.435-.248-.607-.371-1.286-.371-2.037 0-.761.123-1.442.371-2.044.252-.602.62-1.076 1.106-1.421.49-.345 1.089-.518 1.799-.518.7 0 1.302.175 1.806.525.508.345.898.819 1.169 1.421.27.602.406 1.281.406 2.037s-.136 1.435-.406 2.037a3.424 3.424 0 01-1.169 1.435c-.504.35-1.109.525-1.813.525zm-3.479 3.15v-10.92h1.113v5.565h.14v5.355h-1.253zm3.325-4.291c.499 0 .912-.126 1.239-.378.326-.252.571-.593.735-1.022.163-.434.245-.919.245-1.456 0-.532-.082-1.013-.245-1.442a2.196 2.196 0 00-.742-1.022c-.332-.252-.754-.378-1.267-.378-.49 0-.896.121-1.218.364-.322.238-.563.572-.721 1.001-.159.425-.238.917-.238 1.477 0 .551.077 1.043.231 1.477.158.429.401.768.728 1.015.326.243.744.364 1.253.364zm7.981 1.141c-.765 0-1.416-.17-1.953-.511a3.323 3.323 0 01-1.218-1.421c-.28-.602-.425-1.288-.434-2.058.009-.789.156-1.482.441-2.079a3.304 3.304 0 011.239-1.407c.537-.336 1.183-.504 1.939-.504.798 0 1.484.196 2.058.588a2.83 2.83 0 011.162 1.61l-1.232.371a2.029 2.029 0 00-.777-1.022 2.115 2.115 0 00-1.225-.364c-.518 0-.945.121-1.281.364a2.105 2.105 0 00-.749.994c-.163.42-.247.903-.252 1.449.009.84.203 1.519.581 2.037.383.513.95.77 1.701.77.495 0 .905-.112 1.232-.336.327-.229.574-.558.742-.987l1.26.329c-.261.705-.67 1.244-1.225 1.617s-1.225.56-2.009.56zm10.571-7.77V189h-1.204v-5.572L888.177 189h-1.029v-7.56h1.204v5.495l3.969-5.495h1.022zm3.682 7.56v-6.426h-2.632v-1.134h6.51v1.134h-2.632V189h-1.246zm8.199.21c-.742 0-1.39-.163-1.946-.49a3.435 3.435 0 01-1.288-1.379c-.308-.593-.462-1.283-.462-2.072 0-.826.152-1.54.455-2.142a3.335 3.335 0 011.267-1.4c.546-.331 1.186-.497 1.918-.497.761 0 1.407.175 1.939.525.537.35.938.849 1.204 1.498.271.649.388 1.421.35 2.317h-1.26v-.448c-.014-.929-.203-1.622-.567-2.079-.364-.462-.905-.693-1.624-.693-.77 0-1.355.247-1.757.742-.401.495-.602 1.204-.602 2.128 0 .891.201 1.582.602 2.072.402.49.973.735 1.715.735.5 0 .934-.114 1.302-.343.369-.229.658-.558.868-.987l1.197.413a3.392 3.392 0 01-1.33 1.554 3.686 3.686 0 01-1.981.546zm-2.793-3.64v-1.001h5.586v1.001h-5.586zm9.374 3.43v-6.426h-2.632v-1.134h6.51v1.134h-2.632V189h-1.246zm8.006.21c-.751 0-1.4-.17-1.946-.511a3.39 3.39 0 01-1.253-1.414c-.294-.602-.441-1.293-.441-2.072 0-.793.15-1.489.448-2.086a3.335 3.335 0 011.267-1.393c.546-.336 1.188-.504 1.925-.504.756 0 1.407.17 1.953.511.546.336.964.805 1.253 1.407.294.597.441 1.286.441 2.065 0 .789-.147 1.484-.441 2.086a3.384 3.384 0 01-1.26 1.407c-.546.336-1.194.504-1.946.504zm0-1.183c.784 0 1.368-.261 1.75-.784.383-.523.574-1.199.574-2.03 0-.854-.193-1.533-.581-2.037-.387-.509-.968-.763-1.743-.763-.527 0-.961.119-1.302.357-.34.238-.595.567-.763.987-.168.42-.252.905-.252 1.456 0 .849.196 1.531.588 2.044.392.513.969.77 1.729.77zm4.902.973v-7.56h3.22c.191 0 .396.012.616.035.224.019.427.054.609.105a1.83 1.83 0 011.001.665c.266.331.399.751.399 1.26 0 .285-.045.532-.133.742-.084.21-.206.392-.364.546a1.51 1.51 0 01-.483.322c.163.028.329.091.497.189.266.145.473.348.623.609.154.261.231.595.231 1.001 0 .513-.124.938-.371 1.274-.248.331-.588.56-1.022.686a3.288 3.288 0 01-.602.105c-.22.014-.432.021-.637.021h-3.584zm1.26-1.015h2.254c.098 0 .214-.009.35-.028.14-.019.263-.042.371-.07a.84.84 0 00.525-.392 1.21 1.21 0 00.168-.623c0-.299-.084-.541-.252-.728a1.081 1.081 0 00-.651-.35 1.393 1.393 0 00-.322-.049 6.78 6.78 0 00-.301-.007h-2.142v2.247zm0-3.276h1.876c.13 0 .268-.007.413-.021.144-.019.27-.049.378-.091a.84.84 0 00.469-.392c.102-.187.154-.39.154-.609a1.19 1.19 0 00-.168-.637.836.836 0 00-.497-.385 1.553 1.553 0 00-.504-.091 10.027 10.027 0 00-.35-.014h-1.771v2.24zm8.231 4.501c-.565 0-1.038-.103-1.421-.308a2.192 2.192 0 01-.861-.826 2.253 2.253 0 01-.287-1.12c0-.397.075-.74.224-1.029.154-.294.369-.537.644-.728.275-.196.604-.35.987-.462.359-.098.761-.182 1.204-.252.448-.075.901-.142 1.358-.203.457-.061.884-.119 1.281-.175l-.448.259c.014-.672-.121-1.169-.406-1.491-.28-.322-.765-.483-1.456-.483-.457 0-.859.105-1.204.315-.341.205-.581.541-.721 1.008l-1.183-.357c.182-.663.534-1.183 1.057-1.561.523-.378 1.211-.567 2.065-.567.686 0 1.274.124 1.764.371.495.243.849.611 1.064 1.106a2.4 2.4 0 01.203.763c.028.271.042.555.042.854V189h-1.106v-1.813l.259.168c-.285.611-.684 1.073-1.197 1.386-.509.313-1.129.469-1.862.469zm.189-1.043c.448 0 .835-.079 1.162-.238.331-.163.597-.376.798-.637.201-.266.331-.555.392-.868.07-.233.107-.492.112-.777.009-.289.014-.511.014-.665l.434.189c-.406.056-.805.11-1.197.161-.392.051-.763.107-1.113.168a8.36 8.36 0 00-.945.203 3.045 3.045 0 00-.581.252 1.33 1.33 0 00-.434.399 1.042 1.042 0 00-.161.595c0 .205.051.401.154.588.107.187.271.338.49.455.224.117.516.175.875.175zm7.78.833v-10.08h6.37v1.183h-5.124V189h-1.246zm6.041 0v-1.372h1.372V189h-1.372zm11.047 0h-1.26v-7.882L952.744 189h-1.26v-10.08h1.26v7.875l5.257-7.875h1.26V189zm1.901 0v-1.372h1.372V189h-1.372zM728.669 27.27c-1.296 0-2.4-.282-3.312-.846-.912-.57-1.611-1.362-2.097-2.376-.48-1.014-.72-2.19-.72-3.528s.24-2.514.72-3.528c.486-1.014 1.185-1.803 2.097-2.367.912-.57 2.016-.855 3.312-.855 1.29 0 2.391.285 3.303.855.918.564 1.617 1.353 2.097 2.367s.72 2.19.72 3.528-.24 2.514-.72 3.528c-.48 1.014-1.179 1.806-2.097 2.376-.912.564-2.013.846-3.303.846zm0-1.791c.918.012 1.68-.189 2.286-.603.612-.42 1.071-1.002 1.377-1.746.306-.75.459-1.62.459-2.61 0-.99-.153-1.854-.459-2.592-.306-.744-.765-1.323-1.377-1.737-.606-.414-1.368-.624-2.286-.63-.918-.012-1.683.189-2.295.603-.606.414-1.062.996-1.368 1.746-.306.75-.462 1.62-.468 2.61-.006.99.144 1.857.45 2.601.306.738.765 1.314 1.377 1.728.618.414 1.386.624 2.304.63zm11.731 1.8c-.924-.006-1.71-.207-2.358-.603-.648-.396-1.155-.966-1.521-1.71-.36-.75-.57-1.653-.63-2.709-.03-.51-.027-1.074.009-1.692a17.2 17.2 0 01.198-1.809c.102-.582.231-1.068.387-1.458.174-.432.411-.828.711-1.188.3-.366.63-.672.99-.918.384-.264.81-.468 1.278-.612.468-.15.957-.267 1.467-.351a33.49 33.49 0 011.557-.216 23.586 23.586 0 001.539-.243l.18 1.683c-.33.078-.72.141-1.17.189-.444.048-.906.102-1.386.162-.474.06-.927.144-1.359.252a3.91 3.91 0 00-1.125.459c-.45.276-.795.678-1.035 1.206a5.205 5.205 0 00-.423 1.719c.372-.564.846-.969 1.422-1.215a4.423 4.423 0 011.791-.378c.864 0 1.608.204 2.232.612.63.408 1.113.963 1.449 1.665.336.702.504 1.497.504 2.385 0 .96-.198 1.8-.594 2.52a4.21 4.21 0 01-1.647 1.674c-.708.396-1.53.588-2.466.576zm.099-1.773c.864 0 1.515-.267 1.953-.801.444-.534.666-1.245.666-2.133 0-.912-.228-1.629-.684-2.151-.456-.522-1.101-.783-1.935-.783-.846 0-1.494.261-1.944.783-.444.522-.666 1.239-.666 2.151 0 .924.225 1.644.675 2.16.45.516 1.095.774 1.935.774zm10.634 1.764c-.972 0-1.815-.219-2.529-.657a4.428 4.428 0 01-1.656-1.809c-.384-.774-.576-1.665-.576-2.673 0-1.014.198-1.905.594-2.673a4.354 4.354 0 011.665-1.8c.714-.432 1.548-.648 2.502-.648.972 0 1.815.219 2.529.657a4.428 4.428 0 011.656 1.809c.39.768.585 1.653.585 2.655 0 1.014-.198 1.908-.594 2.682a4.428 4.428 0 01-1.656 1.809c-.714.432-1.554.648-2.52.648zm0-1.773c.93 0 1.623-.312 2.079-.936.462-.63.693-1.44.693-2.43 0-1.014-.234-1.824-.702-2.43-.462-.612-1.152-.918-2.07-.918-.63 0-1.149.144-1.557.432a2.503 2.503 0 00-.909 1.179c-.198.498-.297 1.077-.297 1.737 0 1.02.234 1.836.702 2.448.468.612 1.155.918 2.061.918zm9.769 1.773c-.942 0-1.788-.201-2.538-.603a4.573 4.573 0 01-1.764-1.665l1.494-.981c.348.468.75.831 1.206 1.089.462.258.981.387 1.557.387.6 0 1.074-.135 1.422-.405.354-.276.531-.645.531-1.107 0-.366-.102-.636-.306-.81-.198-.18-.474-.297-.828-.351a7.81 7.81 0 00-1.188-.081h-.864v-1.512h.864c.588 0 1.071-.081 1.449-.243.384-.168.576-.483.576-.945 0-.45-.165-.774-.495-.972-.324-.198-.711-.297-1.161-.297-.504 0-.993.108-1.467.324-.474.21-.888.471-1.242.783l-1.098-1.287a5.668 5.668 0 011.764-1.161 5.436 5.436 0 012.142-.423c.624 0 1.2.111 1.728.333.534.216.96.537 1.278.963.324.426.486.951.486 1.575 0 .486-.108.93-.324 1.332-.216.402-.546.768-.99 1.098l-.054-.639c.366.114.672.297.918.549.246.252.429.549.549.891.126.336.189.693.189 1.071 0 .654-.174 1.212-.522 1.674-.342.462-.804.813-1.386 1.053-.582.24-1.224.36-1.926.36zm5.627-.27v-9.72h1.881v3.969h4.743V17.28h1.881V27h-1.881v-3.978h-4.743V27h-1.881zm13.596.27c-.72 0-1.323-.132-1.809-.396a2.821 2.821 0 01-1.107-1.062 2.958 2.958 0 01-.369-1.458c0-.492.087-.924.261-1.296.174-.372.432-.687.774-.945a4.14 4.14 0 011.26-.639c.432-.126.921-.237 1.467-.333a49.86 49.86 0 011.719-.27l1.8-.252-.684.378c.012-.762-.15-1.326-.486-1.692-.33-.372-.9-.558-1.71-.558-.51 0-.978.12-1.404.36-.426.234-.723.624-.891 1.17l-1.755-.54c.24-.834.696-1.497 1.368-1.989.678-.492 1.578-.738 2.7-.738.87 0 1.626.15 2.268.45a2.797 2.797 0 011.422 1.404c.156.318.252.654.288 1.008.036.354.054.735.054 1.143V27h-1.665v-2.223l.324.288c-.402.744-.915 1.299-1.539 1.665-.618.36-1.38.54-2.286.54zm.333-1.539c.534 0 .993-.093 1.377-.279a2.71 2.71 0 00.927-.729c.234-.294.387-.6.459-.918.102-.288.159-.612.171-.972.018-.36.027-.648.027-.864l.612.225-1.62.243c-.486.072-.927.144-1.323.216-.39.066-.738.147-1.044.243-.258.09-.489.198-.693.324a1.587 1.587 0 00-.477.459c-.114.18-.171.399-.171.657 0 .252.063.486.189.702.126.21.318.378.576.504.258.126.588.189.99.189zM793.199 27v-3.384c-.33.168-.717.306-1.161.414a6.255 6.255 0 01-1.404.153c-.996 0-1.797-.222-2.403-.666-.6-.45-.99-1.098-1.17-1.944a8.01 8.01 0 01-.108-.774c-.024-.27-.039-.516-.045-.738V17.28h1.908v2.286c0 .156.006.363.018.621.012.252.045.498.099.738.114.54.342.942.684 1.206.342.258.825.387 1.449.387.45 0 .855-.057 1.215-.171.366-.12.672-.273.918-.459V17.28h1.899V27h-1.899zm8.557.27c-.966 0-1.815-.21-2.547-.63a4.48 4.48 0 01-1.701-1.773c-.402-.762-.603-1.644-.603-2.646 0-1.062.198-1.983.594-2.763.402-.78.96-1.383 1.674-1.809.714-.426 1.545-.639 2.493-.639.99 0 1.833.231 2.529.693.696.456 1.215 1.107 1.557 1.953.348.846.486 1.851.414 3.015h-1.881v-.684c-.012-1.128-.228-1.962-.648-2.502-.414-.54-1.047-.81-1.899-.81-.942 0-1.65.297-2.124.891-.474.594-.711 1.452-.711 2.574 0 1.068.237 1.896.711 2.484.474.582 1.158.873 2.052.873.588 0 1.095-.132 1.521-.396.432-.27.768-.654 1.008-1.152l1.845.585c-.378.87-.951 1.545-1.719 2.025a4.786 4.786 0 01-2.565.711zm-3.465-4.599v-1.467h6.939v1.467h-6.939zM807.997 27v-9.72h1.881v3.969h4.743V17.28h1.881V27h-1.881v-3.978h-4.743V27h-1.881zm19.04-9.72V27h-1.809v-6.759L820.368 27h-1.53v-9.72h1.809v6.624l4.869-6.624h1.521zm8.248 9.72v-3.375h-1.926c-.228 0-.501-.009-.819-.027a7.762 7.762 0 01-.882-.099c-.726-.132-1.332-.447-1.818-.945-.486-.504-.729-1.197-.729-2.079 0-.852.228-1.536.684-2.052a3.15 3.15 0 011.755-1.008 4.44 4.44 0 01.936-.117c.324-.012.597-.018.819-.018h3.861l.009 9.72h-1.89zm-6.453 0l2.457-3.843h1.989L830.839 27h-2.007zm4.365-4.887h2.088v-3.321h-2.088a8 8 0 00-.486.018 2.472 2.472 0 00-.558.099c-.186.054-.366.15-.54.288a1.603 1.603 0 00-.576 1.26c0 .414.117.756.351 1.026.234.264.513.438.837.522.174.048.348.078.522.09.174.012.324.018.45.018zm13.895 5.157c-.996 0-1.842-.222-2.538-.666a4.354 4.354 0 01-1.602-1.827c-.366-.774-.552-1.653-.558-2.637.006-1.002.198-1.887.576-2.655a4.333 4.333 0 011.62-1.818c.702-.438 1.545-.657 2.529-.657 1.062 0 1.968.264 2.718.792.756.528 1.254 1.251 1.494 2.169l-1.872.54c-.186-.546-.492-.969-.918-1.269a2.397 2.397 0 00-1.449-.459c-.618 0-1.125.147-1.521.441-.396.288-.69.684-.882 1.188-.192.504-.291 1.08-.297 1.728.006 1.002.234 1.812.684 2.43.456.618 1.128.927 2.016.927.606 0 1.095-.138 1.467-.414.378-.282.666-.684.864-1.206l1.908.45c-.318.948-.843 1.677-1.575 2.187-.732.504-1.62.756-2.664.756zm4.812-.27l3.636-4.914-3.555-4.806h2.232l2.421 3.339 2.394-3.339h2.232l-3.555 4.806L861.354 27h-2.241l-2.475-3.447L854.145 27h-2.241zm14.668.27c-.966 0-1.815-.21-2.547-.63a4.48 4.48 0 01-1.701-1.773c-.402-.762-.603-1.644-.603-2.646 0-1.062.198-1.983.594-2.763.402-.78.96-1.383 1.674-1.809.714-.426 1.545-.639 2.493-.639.99 0 1.833.231 2.529.693.696.456 1.215 1.107 1.557 1.953.348.846.486 1.851.414 3.015h-1.881v-.684c-.012-1.128-.228-1.962-.648-2.502-.414-.54-1.047-.81-1.899-.81-.942 0-1.65.297-2.124.891-.474.594-.711 1.452-.711 2.574 0 1.068.237 1.896.711 2.484.474.582 1.158.873 2.052.873.588 0 1.095-.132 1.521-.396.432-.27.768-.654 1.008-1.152l1.845.585c-.378.87-.951 1.545-1.719 2.025a4.786 4.786 0 01-2.565.711zm-3.465-4.599v-1.467h6.939v1.467h-6.939zM872.549 27v-9.72h1.575l3.591 7.128 3.582-7.128h1.584V27h-1.818v-5.868L878.138 27h-.855l-2.925-5.868V27h-1.809zm12.67 0v-9.72h1.89v3.375h1.278c.276 0 .573.006.891.018.318.012.588.042.81.09.522.108.975.288 1.359.54.384.252.678.588.882 1.008.21.414.315.924.315 1.53 0 .846-.219 1.521-.657 2.025-.438.498-1.032.834-1.782 1.008-.24.054-.525.09-.855.108-.324.012-.624.018-.9.018h-3.231zm1.89-1.512h1.449c.156 0 .33-.006.522-.018.192-.012.369-.039.531-.081a1.65 1.65 0 00.765-.513c.228-.258.342-.603.342-1.035 0-.444-.114-.798-.342-1.062a1.516 1.516 0 00-.846-.513 2.584 2.584 0 00-.495-.081 6.71 6.71 0 00-.477-.018h-1.449v3.321zM893.715 27v-9.72h1.881V27h-1.881zm4.937-1.26v-1.989h1.989v1.989h-1.989zm.009-5.211V18.54h1.989v1.989h-1.989z" fill="#4D4D4D"/><defs><filter id="filter0_b_545_2531" x="991" y="442.157" width="57" height="57" filterUnits="userSpaceOnUse" color-interpolation-filters="sRGB"><feFlood flood-opacity="0" result="BackgroundImageFix"/><feGaussianBlur in="BackgroundImageFix" stdDeviation="7.5"/><feComposite in2="SourceAlpha" operator="in" result="effect1_backgroundBlur_545_2531"/><feBlend in="SourceGraphic" in2="effect1_backgroundBlur_545_2531" result="shape"/></filter><filter id="filter1_b_545_2531" x="747" y="314.157" width="57" height="57" filterUnits="userSpaceOnUse" color-interpolation-filters="sRGB"><feFlood flood-opacity="0" result="BackgroundImageFix"/><feGaussianBlur in="BackgroundImageFix" stdDeviation="7.5"/><feComposite in2="SourceAlpha" operator="in" result="effect1_backgroundBlur_545_2531"/><feBlend in="SourceGraphic" in2="effect1_backgroundBlur_545_2531" result="shape"/></filter><filter id="filter2_b_545_2531" x="1011" y="310" width="57" height="57" filterUnits="userSpaceOnUse" color-interpolation-filters="sRGB"><feFlood flood-opacity="0" result="BackgroundImageFix"/><feGaussianBlur in="BackgroundImageFix" stdDeviation="7.5"/><feComposite in2="SourceAlpha" operator="in" result="effect1_backgroundBlur_545_2531"/><feBlend in="SourceGraphic" in2="effect1_backgroundBlur_545_2531" result="shape"/></filter><filter id="filter3_b_545_2531" x="865" y="565.5" width="79" height="57" filterUnits="userSpaceOnUse" color-interpolation-filters="sRGB"><feFlood flood-opacity="0" result="BackgroundImageFix"/><feGaussianBlur in="BackgroundImageFix" stdDeviation="7.5"/><feComposite in2="SourceAlpha" operator="in" result="effect1_backgroundBlur_545_2531"/><feBlend in="SourceGraphic" in2="effect1_backgroundBlur_545_2531" result="shape"/></filter><filter id="filter4_b_545_2531" x="738" y="521" width="109" height="57" filterUnits="userSpaceOnUse" color-interpolation-filters="sRGB"><feFlood flood-opacity="0" result="BackgroundImageFix"/><feGaussianBlur in="BackgroundImageFix" stdDeviation="7.5"/><feComposite in2="SourceAlpha" operator="in" result="effect1_backgroundBlur_545_2531"/><feBlend in="SourceGraphic" in2="effect1_backgroundBlur_545_2531" result="shape"/></filter><filter id="filter5_b_545_2531" x="865.03" y="403" width="101" height="57" filterUnits="userSpaceOnUse" color-interpolation-filters="sRGB"><feFlood flood-opacity="0" result="BackgroundImageFix"/><feGaussianBlur in="BackgroundImageFix" stdDeviation="7.5"/><feComposite in2="SourceAlpha" operator="in" result="effect1_backgroundBlur_545_2531"/><feBlend in="SourceGraphic" in2="effect1_backgroundBlur_545_2531" result="shape"/></filter><filter id="filter6_b_545_2531" x="950" y="561" width="140" height="69" filterUnits="userSpaceOnUse" color-interpolation-filters="sRGB"><feFlood flood-opacity="0" result="BackgroundImageFix"/><feGaussianBlur in="BackgroundImageFix" stdDeviation="7.5"/><feComposite in2="SourceAlpha" operator="in" result="effect1_backgroundBlur_545_2531"/><feBlend in="SourceGraphic" in2="effect1_backgroundBlur_545_2531" result="shape"/></filter></defs></svg>