<svg width="129" height="129" fill="none" xmlns="http://www.w3.org/2000/svg"><path d="M105.749 23.212c9.225 9.225 14.806 20.841 16.515 32.913l6.149-.456c-1.822-13.438-7.972-26.535-18.222-36.899-4.214-4.213-8.77-7.63-13.667-10.477l-2.733 5.58c4.214 2.506 8.314 5.694 11.958 9.339z" fill="#223334"/><path d="M23.291 23.212c1.709-1.708 3.417-3.303 5.24-4.67L25 13.419c-2.164 1.708-4.214 3.416-6.15 5.466-2.734 2.733-5.012 5.58-7.175 8.542l5.239 3.303c1.936-2.734 3.986-5.24 6.377-7.517z" fill="#00A48A"/><path d="M117.366 89.152l5.467 2.961c4.328-9.11 6.378-19.133 6.15-29.04l-6.15.455a58.974 58.974 0 01-5.467 25.624zM87.07 10.684l2.734-5.58c-18.906-7.972-40.773-6.605-58.654 4.1l3.53 5.125c15.945-9.453 35.534-10.705 52.39-3.645z" fill="#005D62"/><path d="M13.04 36.992L7.801 33.69C-3.359 54.303-2.563 79.7 10.307 99.516l5.011-3.645C3.93 77.991 3.246 55.441 13.04 36.992zm92.709 68.788c-12.528 12.527-29.384 18.107-45.785 16.855l-.911 6.15c18.223 1.48 37.015-4.67 51.023-18.678a65.517 65.517 0 009.112-11.388l-5.467-2.962c-2.164 3.531-4.784 6.834-7.972 10.023z" fill="#223334"/><path d="M23.292 105.78a57.1 57.1 0 01-3.53-3.872l-5.012 3.644c1.253 1.594 2.733 3.075 4.214 4.555 9.339 9.339 20.842 15.261 32.915 17.653l.91-6.15c-10.933-2.278-21.183-7.517-29.497-15.83z" fill="#00A48A"/><path d="M39.236 107.146a54.133 54.133 0 01-3.302-2.164l-3.986 4.784c1.252.911 2.62 1.822 4.1 2.619 9.68 5.694 20.386 8.2 30.864 7.744l-.683-6.149c-9.111.341-18.45-1.823-26.992-6.834z" fill="#223334"/><path d="M21.811 39.27c.911-1.595 1.936-3.075 3.075-4.555l-4.67-4.1c-1.366 1.708-2.505 3.53-3.644 5.466-1.594 2.62-2.847 5.467-3.986 8.2l5.922 1.822a53.828 53.828 0 013.303-6.833z" fill="#00A48A"/><path d="M16.23 53.278l-5.923-1.822c-4.67 19.36 1.367 39.974 16.059 53.754l3.986-4.783c-12.756-12.3-17.995-30.294-14.123-47.15z" fill="#005D62"/><path d="M71.125 15.354l1.253-6.036C55.18 6.926 37.528 12.62 25 25.034l4.67 4.1c11.047-10.82 26.422-15.83 41.456-13.78z" fill="#1C3B40"/><path d="M89.804 21.845c9.453 5.58 16.286 13.78 20.272 23.12l5.923-2.05c-4.442-10.706-12.301-20.045-23.006-26.422-4.215-2.506-8.656-4.328-13.212-5.695l-1.253 6.036c3.759 1.14 7.631 2.847 11.276 5.011zm23.575 51.249l6.036 1.48c1.481-8.313 1.139-16.74-1.025-24.712l-5.922 2.05a49.2 49.2 0 01.911 21.182z" fill="#213030"/><path d="M107.229 89.721a49.198 49.198 0 01-33.484 23.461l.683 6.15c15.375-2.733 29.612-11.958 38.154-26.535 2.05-3.531 3.758-7.29 5.011-11.047l-6.036-1.481c-1.139 3.189-2.62 6.378-4.328 9.452zm-57.743 12.642c-1.253-.455-2.392-1.025-3.53-1.594l-3.304 5.238a32.735 32.735 0 004.556 2.051c2.278.91 4.556 1.594 6.834 2.163l.91-6.15a50.262 50.262 0 01-5.466-1.708z" fill="#1C3B40"/><path d="M102.446 79.472l-1.025 2.391 5.353 3.189c.456-1.025 1.025-2.164 1.48-3.189 3.417-8.655 4.101-17.652 2.506-26.08l-6.036 1.595c1.252 7.175.569 14.805-2.278 22.094zM62.242 105.21l-.911 6.15c16.286 1.139 32.231-6.492 41.684-19.93l-5.353-3.19c-8.086 11.39-21.64 17.653-35.42 16.97z" fill="#005D62"/><path d="M79.553 26.515c11.162 4.441 19.248 13.21 23.12 23.574l6.036-1.594a47.459 47.459 0 00-26.878-27.789c-3.075-1.253-6.15-2.05-9.225-2.62l-.57 6.15c2.506.57 5.012 1.367 7.517 2.279z" fill="#00A48A"/><path d="M23.747 66.033l-6.264-.341c.456 14.235 7.29 27.788 18.906 36.329l3.303-5.238c-9.68-7.29-15.49-18.678-15.945-30.75z" fill="#1C3B40"/><path d="M64.634 23.667l.57-6.15c-6.72-.113-13.212 1.253-19.248 3.873l2.96 5.466c4.898-2.05 10.25-3.189 15.718-3.189z" fill="#005D62"/><path d="M26.594 49.406a40.575 40.575 0 0115.603-19.133l-2.962-5.467c-8.086 5.125-14.691 12.756-18.45 22.322-1.48 3.644-2.392 7.403-2.847 11.161l6.264.342c.342-3.075 1.139-6.15 2.392-9.225z" fill="#213030"/><path d="M96.41 62.275l6.264.342c-.683-12.755-7.745-24.6-18.792-31.091l-2.62 5.694c8.77 5.353 14.464 14.805 15.148 25.055z" fill="#223334"/><path d="M32.744 68.31H26.48c.57 4.898 1.936 9.681 4.328 14.009l5.24-3.417c-1.709-3.302-2.848-6.833-3.304-10.591z" fill="#005D62"/><path d="M55.75 95.302c-6.378-1.822-11.617-5.467-15.603-10.136l-5.125 3.417c4.784 5.922 11.275 10.363 19.134 12.641a37.11 37.11 0 008.542 1.367l-.342-6.264a31.94 31.94 0 01-6.605-1.025z" fill="#213030"/><path d="M69.759 96.1l.341 6.263c10.934-1.594 20.843-7.972 26.879-17.425l-5.58-2.733C86.386 89.494 78.413 94.62 69.758 96.1z" fill="#00A48A"/><path d="M95.27 73.322l-.683 2.05 5.58 2.733c.342-1.025.798-2.05 1.026-3.189.455-1.708.797-3.302 1.024-5.01l-6.263-.342c0 1.366-.342 2.505-.684 3.758z" fill="#1C3B40"/><path d="M33.77 55.67c2.505-8.77 8.427-15.603 15.944-19.589l-2.277-5.808c-9.226 4.67-16.629 12.983-19.704 23.688-.683 2.278-1.139 4.67-1.253 7.061h6.264a21.2 21.2 0 011.026-5.352z" fill="#005D62"/><path d="M73.29 33.69c.341.113.797.227 1.138.34l2.62-5.693-2.05-.684c-6.947-2.05-14.123-1.936-20.614-.113l2.278 5.808c5.239-1.253 11.047-1.253 16.628.341z" fill="#1C3B40"/></svg>