<svg width="340" height="380" fill="none" xmlns="http://www.w3.org/2000/svg"><path d="M75.723 47.605c31.951-21.171 68.659-30.451 104.416-28.317l2.282-17.973C142.663-1.291 101.359 8.764 65.529 32.22c-14.595 9.67-27.094 20.791-38.154 33.229l14.47 11.131C51.523 65.911 63.1 55.97 75.724 47.605zM27.54 285.025c-3.92-5.917-7.513-11.767-10.383-17.813l-16.82 7.171c3.655 7.229 7.376 14.13 12.147 20.903 6.273 9.467 13.14 17.689 20.4 25.65l12.572-13.155c-6.74-7.172-12.755-14.538-17.916-22.756zM272.373 52.688l11.719-14.01C260.388 20.894 232.73 9.135 204.069 4.002l-2.283 17.974c25.316 4.796 49.501 15.167 70.587 30.713zM28.738 94.067l-14.47-11.131c-34.002 49.778-42.844 113.538-22.469 171.278l16.82-7.172c-17.9-51.432-10.06-108.567 20.12-152.975zm32.489 228.526l-12.57 13.155c52.83 44.182 126.42 56.727 190.997 31.25l-7.565-16.558c-58.138 22.344-123.463 11.136-170.862-27.847zM313.459 95.854c28.75 43.393 34.967 95.186 21.777 141.676l17.175 6.217c14.912-51.604 8.185-109.305-23.963-157.825-8.102-12.229-17.454-23.345-27.467-32.89l-11.72 14.011c8.901 8.294 16.88 17.766 24.198 28.811z" fill="#fff" fill-opacity=".07"/><path d="M278.529 288.161c-2.633 2.879-5.2 5.431-8.161 8.245l11.443 14.272c3.356-3.075 6.778-6.478 9.938-10.274 22.052-24.547 35.523-53.908 40.333-84.343l-18.106-1.626c-4.341 26.433-16.028 52.059-35.447 73.726zM72.91 298.671c-4.058-3.555-7.722-7.372-11.319-11.516l-14.533 11.049c4.12 4.934 8.701 9.278 13.61 13.688 6.61 6.122 14.075 11.393 21.28 16.269l8.707-15.987c-6.025-3.955-12.246-8.632-17.744-13.503zM223.807 54.785l7.79-16.516c-23.072-9.12-47.538-13.061-71.756-11.488l2.441 18.25c20.74-1.254 41.926 2.02 61.525 9.754zm44.28 27.425c32.335 29.096 48.69 69.631 47.985 110.118l18.106 1.627c1.115-45.868-17.128-92.249-54.108-125.361-8.968-7.966-18.791-15.08-28.879-20.884L243.4 64.225c8.516 5.142 16.832 11.269 24.687 17.985zm2.658 173.644c-2.043 3.341-4.348 6.288-6.653 9.235l13.154 12.571c3.16-3.797 5.993-7.661 8.564-11.919 3.954-6.027 7.253-12.186 10.223-18.412l-17.174-6.217a147.95 147.95 0 01-8.114 14.742z" fill="#fff" fill-opacity=".07"/><path d="M235.781 89.99l6.287 4.35 12.309-13.55c-2.684-1.91-5.631-4.215-8.316-6.126-22.924-14.895-48.431-22.12-73.628-22.453l1.064 18.312c21.391.585 42.961 7.01 62.284 19.468zM69.925 124.961c19.31-29.541 49.284-47.7 81.387-52.793l-1.064-18.312c-37.681 5.669-73.045 26.831-95.716 61.153-5.404 8.122-9.496 16.51-12.933 25.032l17.375 5.233c3.104-6.882 6.863-13.631 10.95-20.313zm81.176 183.774l-4.644 17.837c41.255 7.006 84.27-4.75 115.652-33.207l-13.154-12.572c-26.644 23.615-62.829 33.685-97.854 27.942zm-98.092-142.48l-17.374-5.233c-4.255 19.281-4.113 38.771-.099 57.682l17.47-5.332c-3.04-15.298-3.191-31.376.003-47.117z" fill="#fff" fill-opacity=".07"/><path d="M162.917 284.16l-3.661 18.036c14.433 1.222 29.004.082 42.862-4.276l-6.776-17.081c-10.507 2.989-21.338 4.205-32.425 3.321zm91.158-50.469c-8.973 17.3-22.528 30.255-38.302 39.004l6.843 16.753c19.847-10.313 36.428-26.409 47.579-47.705 3.958-7.733 6.934-15.664 8.926-23.796l-18.235-2.676a93.818 93.818 0 01-6.811 18.42zm-40.194-126.632l5.504 3.165 11.13-14.47c-2.752-1.584-5.436-3.494-8.583-4.816-4.652-2.31-9.043-4.226-13.829-5.879l-4.643 17.836c3.934.798 7.014 2.448 10.421 4.164z" fill="#fff" fill-opacity=".07"/></svg>