<svg width="95" height="95" fill="none" xmlns="http://www.w3.org/2000/svg"><path d="M72.592 22.178c5.635 5.635 9.043 12.73 10.087 20.105l3.756-.279c-1.113-8.208-4.87-16.208-11.13-22.539a40.404 40.404 0 00-8.348-6.4l-1.67 3.41a37.687 37.687 0 017.305 5.703zm-50.366 0c1.044-1.043 2.087-2.017 3.2-2.852l-2.156-3.13c-1.322 1.043-2.574 2.087-3.757 3.339-1.67 1.67-3.06 3.409-4.382 5.217l3.2 2.018c1.182-1.67 2.434-3.2 3.895-4.591zm57.461 40.279l3.34 1.809c2.643-5.566 3.895-11.688 3.756-17.74l-3.757.279a36.022 36.022 0 01-3.339 15.652zM61.183 14.526l1.67-3.408c-11.549-4.87-24.905-4.035-35.827 2.504l2.157 3.13c9.739-5.773 21.704-6.539 32-2.226zm-45.218 16.07l-3.2-2.018c-6.817 12.592-6.33 28.105 1.53 40.21l3.061-2.227C10.4 55.64 9.982 41.865 15.965 30.596zm56.626 42.017C64.94 80.266 54.644 83.674 44.626 82.91l-.556 3.756c11.13.905 22.608-2.852 31.165-11.408A40.034 40.034 0 0080.8 68.3l-3.339-1.808c-1.322 2.156-2.922 4.173-4.87 6.121zm-50.364 0a34.75 34.75 0 01-2.157-2.365l-3.06 2.226c.764.974 1.669 1.879 2.573 2.783 5.704 5.704 12.73 9.322 20.104 10.782l.557-3.756c-6.678-1.392-12.94-4.591-18.017-9.67z" fill="#fff" fill-opacity=".2"/><path d="M31.966 73.448a33.376 33.376 0 01-2.018-1.322l-2.434 2.922a22.01 22.01 0 002.504 1.6c5.913 3.478 12.452 5.009 18.852 4.73l-.417-3.756c-5.566.209-11.27-1.113-16.487-4.174zM21.322 31.987a24.37 24.37 0 011.878-2.782L20.348 26.7c-.834 1.044-1.53 2.157-2.226 3.34-.974 1.6-1.739 3.339-2.435 5.008l3.618 1.113a32.872 32.872 0 012.017-4.174zm-3.409 8.557l-3.618-1.113c-2.852 11.826.835 24.417 9.81 32.835l2.434-2.922c-7.791-7.513-10.991-18.505-8.626-28.8zm33.53-23.165l.766-3.687c-10.505-1.461-21.287 2.017-28.94 9.6l2.853 2.504c6.747-6.609 16.139-9.67 25.321-8.417zm11.409 3.965c5.774 3.408 9.948 8.417 12.383 14.121l3.617-1.252C76.14 27.674 71.34 21.97 64.8 18.074c-2.574-1.53-5.287-2.643-8.07-3.478l-.765 3.687c2.296.695 4.661 1.739 6.887 3.06zm14.4 31.304l3.687.904c.904-5.078.696-10.226-.626-15.095l-3.617 1.252a30.054 30.054 0 01.556 12.94zm-3.757 10.156a30.051 30.051 0 01-20.452 14.331l.418 3.756c9.391-1.67 18.087-7.304 23.304-16.208a36.64 36.64 0 003.061-6.748l-3.687-.904c-.696 1.947-1.6 3.895-2.644 5.773zm-35.269 7.722c-.765-.278-1.46-.626-2.157-.974l-2.017 3.2c.904.488 1.809.905 2.783 1.253a32.05 32.05 0 004.174 1.321l.556-3.756a30.76 30.76 0 01-3.339-1.044z" fill="#fff" fill-opacity=".2"/><path d="M70.574 56.544l-.626 1.46 3.27 1.948c.278-.626.626-1.321.904-1.947 2.087-5.287 2.504-10.783 1.53-15.93l-3.687.973c.766 4.383.348 9.044-1.39 13.496zM46.017 72.265l-.556 3.757c9.948.695 19.687-3.965 25.46-12.174L67.653 61.9c-4.939 6.957-13.217 10.783-21.635 10.365zm10.574-48.069a24.802 24.802 0 0114.122 14.4l3.687-.974a28.99 28.99 0 00-16.418-16.974c-1.878-.765-3.756-1.252-5.634-1.6L52 22.805c1.53.347 3.06.834 4.591 1.39zM22.505 48.335l-3.826-.209c.278 8.696 4.452 16.974 11.547 22.192l2.018-3.2c-5.913-4.452-9.461-11.41-9.74-18.783zm24.973-25.878l.348-3.757c-4.104-.07-8.07.765-11.756 2.365l1.808 3.34a24.916 24.916 0 019.6-1.948zM24.243 38.178a24.785 24.785 0 019.53-11.686l-1.808-3.34a28.395 28.395 0 00-11.27 13.635 26.563 26.563 0 00-1.739 6.818l3.826.208c.21-1.878.696-3.756 1.461-5.635z" fill="#fff" fill-opacity=".2"/><path d="M66.887 46.04l3.826.208c-.417-7.791-4.73-15.026-11.478-18.991l-1.6 3.478c5.357 3.27 8.835 9.044 9.252 15.304zM28 49.726h-3.826c.348 2.992 1.183 5.913 2.644 8.557l3.2-2.087c-1.044-2.017-1.74-4.174-2.018-6.47zm14.052 16.487c-3.895-1.113-7.095-3.339-9.53-6.191l-3.13 2.087c2.921 3.617 6.886 6.33 11.686 7.722 1.74.486 3.479.765 5.218.834l-.209-3.826a19.51 19.51 0 01-4.035-.626zm8.557.487l.208 3.826c6.679-.974 12.73-4.87 16.418-10.643l-3.409-1.67c-3.06 4.453-7.93 7.583-13.217 8.487zm15.582-13.913l-.417 1.252 3.408 1.67c.21-.626.487-1.252.627-1.948a23.88 23.88 0 00.626-3.06l-3.826-.21c0 .835-.21 1.531-.418 2.296zM28.626 42.005c1.53-5.357 5.148-9.53 9.74-11.966l-1.392-3.547c-5.635 2.852-10.156 7.93-12.035 14.47-.417 1.39-.695 2.851-.765 4.312H28c.07-1.113.279-2.226.626-3.27zm24.139-13.427c.21.07.487.14.696.21l1.6-3.48-1.252-.416a22.796 22.796 0 00-12.591-.07l1.391 3.548a20.15 20.15 0 0110.156.208z" fill="#fff" fill-opacity=".2"/></svg>