<svg width="340" height="380" fill="none" xmlns="http://www.w3.org/2000/svg"><path d="M332.044 247.989c-12.867 36.105-36.672 65.548-66.564 85.288l8.955 15.75c33.376-21.762 60.394-54.582 74.993-94.842 5.878-16.492 9.209-32.887 10.598-49.473l-18.255-.227c-1.343 14.341-4.643 29.241-9.727 43.504zM228.193 29.118c6.686 2.383 13.069 4.91 18.992 8.026l9.157-15.826c-7.26-3.593-14.377-6.883-22.256-9.44-10.698-3.813-21.124-6.274-31.709-8.288l-2.168 18.066c9.693 1.697 18.925 3.982 27.984 7.462zm-56.547 332.755l-.974 18.239c29.634.014 58.819-7.167 84.83-20.25l-8.955-15.752c-23.132 11.347-48.704 17.555-74.901 17.763zm7.059-342.609l2.168-18.066C112.1-2.466 45.693 31.636 9.303 90.754l15.985 8.712c33.116-52.75 92.109-82.964 153.417-80.202zM9.03 133.109a167.136 167.136 0 015.831-14.248l-15.984-8.712c-2.655 5.333-4.72 11.128-6.785 16.922-13.026 36.551-14.258 74.543-5.4 109.6l17.47-5.327c-7.724-31.891-6.728-65.696 4.868-98.235z" fill="#fff" fill-opacity=".07"/><path d="M183.705 45.413c5.38.41 10.601 1.266 15.964 2.425l5.002-17.558c-6.255-1.477-12.527-2.204-19.101-2.79-8.961-.932-18.095-.672-26.785-.253l2.623 18.015c7.193-.45 14.976-.44 22.297.161zm-44.212 2.827l-2.622-18.015C79.6 42.214 32.487 84.198 14.413 140.55l17.717 4.556c16.582-49.349 57.747-85.918 107.363-96.868zm169.802 97.948l17.599-4.276c-15.311-48.66-52.659-88.347-101.388-105.966l-5.001 17.558c42.632 15.698 75.297 50.198 88.79 92.684zM209.249 331.066l3.672 17.887c23.932-6.541 45.872-18.062 64.307-33.846l-12.9-13.139c-15.843 13.443-34.759 23.531-55.079 29.098zm-51.881 4.615c-43.324-3.887-80.724-26.511-104.444-59.329L37.46 285.91c26.62 37.369 69.035 63.539 118.486 67.853 11.954.995 24.081.796 35.634-.611l-3.672-17.887c-9.898.993-20.227 1.079-30.541.416zM51.09 198.334c-.37-3.899-.293-7.639-.216-11.38l-18.065-2.169c-.252 4.935-.2 9.726.296 14.674.451 7.194 1.506 14.101 2.864 20.864l17.47-5.326a147.995 147.995 0 01-2.35-16.663z" fill="#fff" fill-opacity=".07"/><path d="M178.551 310.078l-7.639.291-1.722 18.224c3.294-.08 7.034-.003 10.329-.086 27.276-1.831 52.019-11.349 72.38-26.195l-11.835-14.015c-17.466 12.362-38.58 20.159-61.513 21.781zm-118.953-74.3l-17.472 5.327c17.49 44.664 57.825 77.377 105.4 85.543l1.723-18.225c-40.413-7.119-74.109-35.206-89.65-72.645zm230.687-53.162c2.268 35.22-10.824 67.727-33.456 91.058l11.834 14.014c26.751-27.137 42.355-65.281 39.908-106.342-.547-9.74-2.304-18.906-4.666-27.786l-17.041 6.234c1.644 7.368 2.684 15.023 3.421 22.822zM115.104 84.259L108.122 67.2c-37.213 19.139-64.58 54.346-72.621 95.939l18.065 2.169c7.155-34.876 30.069-64.637 61.538-81.05zm163.948 55.17l17.042-6.234c-8.161-17.98-19.965-33.49-34.52-46.214l-10.781 14.745c11.609 10.417 21.374 23.192 28.259 37.703zM162.824 70.873c25.479-1.719 50.04 4.775 70.437 17.32l10.78-14.746c-23.787-15.009-52.361-22.932-82.487-20.86-11.537.66-22.661 2.975-33.211 6.499l6.983 17.057c8.592-2.966 17.758-4.722 27.498-5.27z" fill="#fff" fill-opacity=".07"/><path d="M216.594 272.397l6.983 17.058c32.996-17.879 55.542-51.539 58.858-89.039l-18.413.219c-3.163 30.019-21.081 57.039-47.428 71.762zM120.39 111.009l-7.889-16.627c-12.281 7.68-23.256 17.332-31.731 29.13l15.667 9.603c6.614-8.693 14.552-16.163 23.953-22.106zm-42.669 95.06c-3.196-19.224-.12-37.721 7.253-54.182l-15.524-9.301c-9.694 20.156-13.308 42.981-9.457 66.709 1.471 8.562 3.847 16.693 7.131 24.395l16.196-8.797a93.843 93.843 0 01-5.599-18.824zm108.116 77.217c-2.101.255-4.201.512-6.302.768l-.227 18.255c3.152-.384 6.445-.466 9.756-1.295 5.108-.943 9.771-2.044 14.591-3.591l-6.982-17.057c-3.627 1.721-7.081 2.249-10.836 2.92zm77.515-108.26c.128 1.051.4 2.403.528 3.453l18.413-.218-.767-6.302c-3.309-21.023-12.648-39.925-25.661-54.861l-12.548 13.362c9.924 12.328 17.239 27.745 20.035 44.566z" fill="#fff" fill-opacity=".07"/></svg>