<svg width="340" height="380" fill="none" xmlns="http://www.w3.org/2000/svg"><path d="M209.981 23.638c37.295 8.842 69.164 29.285 92.054 56.84l14.676-10.624C291.431 39.058 255.853 15.79 214.238 5.68 197.203 1.642 180.541.124 163.903.556l1.771 18.17c14.402-.232 29.573 1.419 44.307 4.912zM3.778 150.8c1.637-6.907 3.45-13.528 5.9-19.756l-16.732-7.371c-2.777 7.609-5.27 15.042-6.95 23.154-2.62 11.051-3.926 21.683-4.77 32.425l18.194.18c.627-9.821 1.89-19.248 4.358-28.632zm336.942 19.822l18.237-1.026c-3.227-29.458-13.556-57.682-29.405-82.108l-14.678 10.624c13.808 21.753 22.775 46.493 25.846 72.51zM143.952 21.116l-1.771-18.17C82.608 12.166 30.033 49.306 1.827 103.65l16.732 7.371C43.855 62.795 90.91 29.453 143.952 21.116zM-.606 201.069l-18.195-.18c3.878 68.761 45.037 131.041 107.78 160.749l6.911-16.842C39.835 317.646 3.352 262.311-.606 201.069zm337.916 29.048c-12.01 50.648-45.556 90.597-88.5 112.756l7.205 16.785c47.853-24.4 85.363-68.759 98.791-125.393 3.385-14.273 5.104-28.698 5.223-42.53l-18.238 1.025c.033 12.167-1.424 24.465-4.481 37.357zm-206.201 127.16a167.04 167.04 0 01-14.8-4.238l-6.912 16.841c5.592 2.056 11.578 3.475 17.563 4.893 37.756 8.952 75.655 6.022 109.533-6.615l-7.205-16.784c-30.855 11.165-64.567 13.872-98.179 5.903z" fill="#fff" fill-opacity=".07"/><path d="M173.09 336.106c-3.902.047-7.518-.081-11.597-.318l-2.591 18.109c4.538.346 9.361.517 14.292.227 32.991-.689 63.627-10.933 89.127-28.231l-11.193-14.325c-22.258 14.905-48.95 23.896-78.038 24.538zM24.84 193.239c-.181-5.392.099-10.676.664-16.134l-18-3.051c-.783 6.379-.82 12.693-.683 19.29.052 9.01 1.31 18.061 2.676 26.653l17.62-4.577c-1.233-7.1-2.074-14.838-2.278-22.181zm7.643 43.638l-17.62 4.576c18.18 55.617 65.064 97.857 123.055 109.66l2.592-18.109c-50.866-11.087-91.717-48.006-108.027-96.127zm78.794-179.494l-6.175-17.027c-46.694 20.54-82.058 62.004-94.244 112.367l18 3.052c10.942-44.093 41.663-80.334 82.419-98.392zm56.721-12.572c32.244-.623 61.978 9.344 86.349 26.55l11.648-14.259c-27.617-19.92-61.67-31.155-98.277-30.594-14.402.233-28.32 2.526-41.82 6.134l6.176 17.026c11.155-2.948 23.472-4.648 35.924-4.857zm137.988 91.802l17.379-5.606c-9.119-23.073-22.97-43.622-40.675-60.22l-11.65 14.259c15.095 14.278 27.19 31.978 34.946 51.567zm10.261 51.065c.874 43.49-17.525 83.139-47.553 110.306l11.192 14.325c34.234-30.547 55.609-75.57 54.49-125.196-.318-11.99-1.842-24.023-4.504-35.353l-17.379 5.606c2.07 9.73 3.285 19.988 3.754 30.312zm-124.903 120.66c-3.835.793-7.561 1.126-11.288 1.458l-.18 18.195c4.932-.29 9.689-.865 14.554-1.899 7.101-1.236 13.851-3.04 20.425-5.128l-7.205-16.784a147.813 147.813 0 01-16.306 4.158z" fill="#fff" fill-opacity=".07"/><path d="M288.481 169.422l1.124 7.561 18.304-.28c-.441-3.266-.773-6.992-1.215-10.258-4.803-26.913-16.969-50.467-33.953-69.082l-12.636 13.296c14.197 16.01 24.256 36.145 28.376 58.763zm-60.847 126.364l7.205 16.785c42.484-22.269 70.591-65.939 73.505-114.122l-18.304.28c-2.658 40.95-26.891 77.514-62.406 97.057zM149.565 72.295c34.761-6.105 68.505 3.354 94.171 23.3l12.636-13.297c-29.899-23.623-69.521-34.962-110.068-28.04-9.622 1.61-18.541 4.357-27.109 7.676l8.06 16.257c7.143-2.44 14.639-4.31 22.31-5.896zM70.954 257.181l-16.192 8.805c23.093 34.897 61.081 58.25 103.304 61.695l.181-18.194c-35.449-3.298-67.538-22.82-87.293-52.306zm36.911-168.998l-8.06-16.257C82.825 82.004 68.7 95.433 57.643 111.292l15.836 9.103c9.085-12.678 20.715-23.781 34.386-32.212zM52.43 211.211c-4.495-25.138-.726-50.263 9.514-71.908l-15.836-9.104c-12.318 25.286-17.07 54.555-11.716 84.273 1.918 11.397 5.435 22.201 10.092 32.302l16.191-8.806c-3.887-8.217-6.636-17.135-8.245-26.757z" fill="#fff" fill-opacity=".07"/><path d="M246.866 135.727l16.192-8.806c-21.379-30.843-57.303-49.573-94.941-48.77l2.231 18.28c30.185-.138 59.002 14.718 76.518 39.296zm-149.9 113.275L81.3 258.661c8.976 11.368 19.77 21.222 32.425 28.356l7.832-16.623c-9.365-5.624-17.657-12.697-24.593-21.392zm99.155 32.018c-18.76 5.28-37.481 4.245-54.651-1.285l-7.547 16.448c21.095 7.433 44.179 8.528 67.343 2.106 8.35-2.398 16.172-5.649 23.469-9.755l-10.515-15.138a93.843 93.843 0 01-18.099 7.624zm36.261-19.609l10.513 15.137c24.883-20.848 39.827-52.077 40.344-85.024l-18.17 1.77c-1.292 25.956-13.326 51.066-32.687 68.117zm28.671-96.301l1.452 6.18 18.171-1.771c-.726-3.091-1.168-6.356-2.355-9.556-1.495-4.974-3.099-9.489-5.164-14.111l-16.191 8.806c2.107 3.416 3.009 6.792 4.087 10.452zM80.035 215.809c-7.258-25.794-2.986-52.015 9.664-73.574l-14.653-11.013c-15.869 25.903-21.56 58.11-12.741 89.623 1.804 6.75 4.353 13.433 7.756 19.59l15.665-9.66c-2.526-4.733-4.481-9.817-5.691-14.966zm64.931-115.912c1.031-.243 2.345-.66 3.375-.903l-2.231-18.279-6.179 1.452c-20.536 5.588-38.303 16.938-51.727 31.506l14.654 11.012c11.169-11.212 25.694-20.17 42.108-24.788z" fill="#fff" fill-opacity=".07"/></svg>